<svg width="160" height="155" viewBox="0 0 160 155" fill="none" xmlns="http://www.w3.org/2000/svg">
<path d="M24.499 22.6406L24.526 123.321L38.5087 136.093L77.0467 137L86.3326 133.065H134.822V102.847L144 93.8687V22.6406H24.499Z" fill="#661109"/>
<g filter="url(#filter0_d_139_4639)">
<path d="M20 20L20.027 120.681L34.0097 133.453L72.5477 134.359L81.8335 130.425H130.323V100.206L139.501 91.2281V20H20Z" fill="black"/>
</g>
<g filter="url(#filter1_d_139_4639)">
<path d="M53.895 50.4028V89.5906H108.44V50.4028H53.895ZM106.569 88.2439H55.7666V51.7408H106.569V88.2439Z" fill="#75E8F0"/>
</g>
<path d="M75.5664 71.8032H75.6024C75.6024 71.8752 75.5904 71.9352 75.5664 71.9832H75.5424C75.5424 71.9912 75.5344 72.0112 75.5184 72.0432H75.5064C75.4824 72.0752 75.4544 72.1072 75.4224 72.1392C75.3984 72.1632 75.3664 72.1912 75.3264 72.2232H75.3144C75.3064 72.2312 75.2944 72.2392 75.2784 72.2472C75.2624 72.2552 75.2464 72.2672 75.2304 72.2832H75.4104C75.4024 72.2832 75.3984 72.2872 75.3984 72.2952C75.3984 72.2952 75.3944 72.2952 75.3864 72.2952L75.2304 72.4032H75.3504L75.2664 72.4632H75.1224L74.8464 72.6432H74.7024L74.5224 72.7632H74.6064L74.0784 73.1232H73.8384L73.5744 73.3032H73.7184L73.6344 73.3632L72.9384 73.8432H72.9024L72.7224 73.9632H72.7344L72.3744 74.2032L72.2904 74.2632H72.2064L72.1104 74.3232H72.3384L72.1584 74.4432H72.3984L72.0504 74.6832H72.0144L71.6544 74.9232H72.1224L71.7624 75.1632H71.0784L70.7304 75.4032H71.1864L71.0064 75.5232H70.7064C70.6824 75.5072 70.6624 75.4872 70.6464 75.4632C70.6384 75.4472 70.6264 75.4272 70.6104 75.4032H70.1664C70.1504 75.3712 70.1424 75.3432 70.1424 75.3192V75.1632H70.8264V74.9232H70.3704V74.6832H70.3944V74.4432H70.1544V74.3232H69.9384V74.2632H70.0224V73.9632H70.0104V73.8432H70.0464V73.6032H70.0344V73.3032H69.8904C69.8984 73.2392 69.9184 73.1792 69.9504 73.1232H70.1904C70.2384 73.0512 70.2984 72.9912 70.3704 72.9432C70.3944 72.9272 70.4184 72.9112 70.4424 72.8952C70.4664 72.8792 70.4864 72.8672 70.5024 72.8592L70.6584 72.7632H70.5744L70.7544 72.6432H70.9104L71.1984 72.4632H71.3424L71.4384 72.4032H71.3184L71.5104 72.2832H71.3304L71.7144 72.0432H71.7264L71.8224 71.9832H71.8464L72.1344 71.8032H72.0984L72.4824 71.5632H72.4704L72.5184 71.5392L72.4584 71.5032H72.4464L72.2544 71.3832H72.2304L72.1344 71.3232H72.1824L71.7984 71.0832H71.6184L71.2224 70.8432H71.3664L71.0784 70.6632H71.1144L70.9224 70.5432H70.8024L70.7064 70.4832H70.7784L70.5864 70.3632L70.3704 70.2312C70.3144 70.1992 70.2584 70.1632 70.2024 70.1232H70.0584C70.0264 70.0912 69.9904 70.0592 69.9504 70.0272C69.9184 69.9872 69.8904 69.9392 69.8664 69.8832H70.2624L70.2264 69.7632H69.4704C69.4624 69.7472 69.4584 69.7272 69.4584 69.7032V69.6432H70.4904V69.5232H70.5624V69.2832H70.1184V69.1032H69.6024V68.9232H69.1944V68.6832H70.3824V68.6232H69.6144V68.3832H69.4344V68.2032H70.4064V68.0232H70.2264V67.8432H70.2144V67.7232H70.0584C70.0744 67.5792 70.1584 67.5072 70.3104 67.5072C70.3264 67.5072 70.3424 67.5112 70.3584 67.5192C70.3824 67.5192 70.4104 67.5272 70.4424 67.5432L70.7064 67.7232H70.8624L71.0424 67.8432H71.0544L71.3304 68.0232H71.5104L71.7744 68.2032H70.8024L71.0664 68.3832H71.2464L71.5944 68.6232H72.3744L72.4584 68.6832H71.2584L71.6184 68.9232H72.0264L72.2904 69.1032H72.8184L73.0824 69.2832H73.5264L73.8864 69.5232H73.8024L73.9824 69.6432H72.9624L73.1304 69.7632H73.8984L74.0784 69.8832H73.6944L74.0424 70.1232H74.1984L74.5464 70.3632H74.5584L74.7384 70.4832H74.6544L74.7504 70.5432H74.8584L75.0384 70.6632H75.0144L75.1944 70.7832C75.2104 70.7912 75.2264 70.7992 75.2424 70.8072C75.2584 70.8152 75.2704 70.8272 75.2784 70.8432H75.1344C75.1824 70.8752 75.2264 70.9112 75.2664 70.9512C75.3064 70.9912 75.3344 71.0352 75.3504 71.0832H75.5424C75.5664 71.1392 75.5784 71.2072 75.5784 71.2872V71.3232H75.5304V71.3832H75.5544V71.5032H75.5664V71.8032ZM70.4184 75.5712C70.3544 75.5712 70.3024 75.5552 70.2624 75.5232H70.5744L70.5504 75.5352C70.5184 75.5512 70.4904 75.5592 70.4664 75.5592C70.4504 75.5672 70.4344 75.5712 70.4184 75.5712ZM77.9544 89.3432H77.5584V89.5832H77.6664V89.7032H77.6904V89.9432H77.7744V90.0032H77.8464V90.1232H78.0264V90.3032C78.0264 90.3272 78.0224 90.3472 78.0144 90.3632C77.9984 90.4832 77.9344 90.5632 77.8224 90.6032H77.7144C77.6664 90.6192 77.6264 90.6272 77.5944 90.6272H70.3344C70.3024 90.6272 70.2624 90.6192 70.2144 90.6032H70.3224C70.2104 90.5632 70.1424 90.4832 70.1184 90.3632V90.1232H69.9384V90.0032H69.8664V89.9432H69.7824V89.7032H69.7584V89.5832H69.6504V89.3432H70.0464V89.2832H70.1424V89.1632H69.6384V89.1032H69.8424V88.9232H69.7944V88.6832H69.8064V88.5992C69.8064 88.5592 69.8104 88.5272 69.8184 88.5032H69.7464C69.8024 88.3512 69.9064 88.2752 70.0584 88.2752H77.3184C77.4864 88.2752 77.5904 88.3512 77.6304 88.5032H77.6904C77.6984 88.5192 77.7024 88.5352 77.7024 88.5512C77.7104 88.5672 77.7144 88.5832 77.7144 88.5992V88.6832H77.7024V88.9232H77.7504V89.1032H77.5464V89.1632H78.0504V89.2832H77.9544V89.3432Z" fill="#75E8F0"/>
<g filter="url(#filter2_d_139_4639)">
<path d="M88.8157 94.6609C88.0059 94.0711 87.1241 93.5782 86.1973 93.1997V90.2949H76.1466V93.1028C75.1479 93.4989 74.2031 94.0095 73.3393 94.6609C70.379 96.8966 69.3352 99.9774 68.9663 101.324H93.3686C92.9727 99.9774 91.848 96.8878 88.8157 94.6609ZM75.1479 94.9249C75.8137 94.4232 76.5425 94.0271 77.3074 93.7278V91.5713H85.0365V93.807C85.7474 94.0975 86.4312 94.476 87.0521 94.9337C89.3915 96.6502 90.2553 99.018 90.5523 100.057H71.7826C72.0616 99.018 72.8624 96.6502 75.1479 94.9337V94.9249Z" fill="#75E8F0"/>
</g>
<defs>
<filter id="filter0_d_139_4639" x="0" y="0" width="159.501" height="154.359" filterUnits="userSpaceOnUse" color-interpolation-filters="sRGB">
<feFlood flood-opacity="0" result="BackgroundImageFix"/>
<feColorMatrix in="SourceAlpha" type="matrix" values="0 0 0 0 0 0 0 0 0 0 0 0 0 0 0 0 0 0 127 0" result="hardAlpha"/>
<feOffset/>
<feGaussianBlur stdDeviation="10"/>
<feColorMatrix type="matrix" values="0 0 0 0 0 0 0 0 0 0 0 0 0 0 0 0 0 0 1 0"/>
<feBlend mode="normal" in2="BackgroundImageFix" result="effect1_dropShadow_139_4639"/>
<feBlend mode="normal" in="SourceGraphic" in2="effect1_dropShadow_139_4639" result="shape"/>
</filter>
<filter id="filter1_d_139_4639" x="33.895" y="30.4028" width="94.5454" height="79.188" filterUnits="userSpaceOnUse" color-interpolation-filters="sRGB">
<feFlood flood-opacity="0" result="BackgroundImageFix"/>
<feColorMatrix in="SourceAlpha" type="matrix" values="0 0 0 0 0 0 0 0 0 0 0 0 0 0 0 0 0 0 127 0" result="hardAlpha"/>
<feOffset/>
<feGaussianBlur stdDeviation="10"/>
<feColorMatrix type="matrix" values="0 0 0 0 0.215686 0 0 0 0 0.921569 0 0 0 0 0.952941 0 0 0 0.75 0"/>
<feBlend mode="normal" in2="BackgroundImageFix" result="effect1_dropShadow_139_4639"/>
<feBlend mode="normal" in="SourceGraphic" in2="effect1_dropShadow_139_4639" result="shape"/>
</filter>
<filter id="filter2_d_139_4639" x="48.9663" y="70.2949" width="64.4023" height="51.0293" filterUnits="userSpaceOnUse" color-interpolation-filters="sRGB">
<feFlood flood-opacity="0" result="BackgroundImageFix"/>
<feColorMatrix in="SourceAlpha" type="matrix" values="0 0 0 0 0 0 0 0 0 0 0 0 0 0 0 0 0 0 127 0" result="hardAlpha"/>
<feOffset/>
<feGaussianBlur stdDeviation="10"/>
<feColorMatrix type="matrix" values="0 0 0 0 0.215686 0 0 0 0 0.921569 0 0 0 0 0.952941 0 0 0 0.75 0"/>
<feBlend mode="normal" in2="BackgroundImageFix" result="effect1_dropShadow_139_4639"/>
<feBlend mode="normal" in="SourceGraphic" in2="effect1_dropShadow_139_4639" result="shape"/>
</filter>
</defs>
</svg>
