<svg width="214" height="88" viewBox="0 0 214 88" fill="none" xmlns="http://www.w3.org/2000/svg">
<path d="M4.64014 0V67.91L24.5301 87.81H213.6V66.71L208.38 61.48V30.14L213 25.52V0H4.64014Z" fill="#75E8F0"/>
<path d="M0 0V67.91L19.89 87.81H208.96V66.71L203.74 61.48V30.14L208.36 25.52V0H0Z" fill="#FCF551"/>
<path d="M66.628 57V31.8H69.652V42.96H80.38V31.8H83.404V57H80.38V45.768H69.652V57H66.628ZM97.059 57.504C95.475 57.504 93.999 57.144 92.631 56.424C91.287 55.704 90.195 54.66 89.355 53.292C88.515 51.924 88.095 50.256 88.095 48.288V47.856C88.095 45.912 88.515 44.256 89.355 42.888C90.195 41.496 91.287 40.44 92.631 39.72C93.999 39 95.475 38.64 97.059 38.64C98.643 38.64 100.107 39 101.451 39.72C102.819 40.44 103.923 41.496 104.763 42.888C105.603 44.256 106.023 45.912 106.023 47.856V48.288C106.023 50.256 105.603 51.924 104.763 53.292C103.923 54.66 102.819 55.704 101.451 56.424C100.107 57.144 98.643 57.504 97.059 57.504ZM97.059 54.84C98.211 54.84 99.243 54.576 100.155 54.048C101.067 53.52 101.787 52.764 102.315 51.78C102.867 50.796 103.143 49.632 103.143 48.288V47.856C103.143 46.56 102.867 45.42 102.315 44.436C101.787 43.452 101.055 42.684 100.119 42.132C99.207 41.58 98.187 41.304 97.059 41.304C95.931 41.304 94.899 41.58 93.963 42.132C93.051 42.684 92.319 43.452 91.767 44.436C91.239 45.42 90.975 46.56 90.975 47.856V48.288C90.975 49.632 91.239 50.796 91.767 51.78C92.319 52.764 93.051 53.52 93.963 54.048C94.899 54.576 95.931 54.84 97.059 54.84ZM109.814 57V39.144H112.622V41.088H113.054C113.366 40.248 113.822 39.636 114.422 39.252C115.022 38.844 115.73 38.64 116.546 38.64C117.41 38.64 118.118 38.868 118.67 39.324C119.246 39.78 119.642 40.368 119.858 41.088H120.29C121.106 39.456 122.402 38.64 124.178 38.64C125.522 38.64 126.554 39.072 127.274 39.936C128.018 40.776 128.39 41.88 128.39 43.248V57H125.582V44.184C125.582 43.344 125.39 42.66 125.006 42.132C124.622 41.58 124.01 41.304 123.17 41.304C122.378 41.304 121.73 41.604 121.226 42.204C120.746 42.804 120.506 43.704 120.506 44.904V57H117.698V44.04C117.698 43.248 117.482 42.6 117.05 42.096C116.618 41.568 116.042 41.304 115.322 41.304C114.458 41.304 113.786 41.616 113.306 42.24C112.85 42.864 112.622 43.68 112.622 44.688V57H109.814ZM141.217 57.504C139.513 57.504 138.001 57.12 136.681 56.352C135.385 55.56 134.365 54.48 133.621 53.112C132.877 51.72 132.505 50.112 132.505 48.288V47.424C132.505 45.744 132.889 44.244 133.657 42.924C134.425 41.604 135.469 40.56 136.789 39.792C138.133 39.024 139.633 38.64 141.289 38.64C142.753 38.64 144.013 38.904 145.069 39.432C146.149 39.96 147.025 40.632 147.697 41.448C148.393 42.264 148.897 43.14 149.209 44.076C149.545 44.988 149.713 45.84 149.713 46.632V48.936H135.313C135.385 50.688 135.937 52.116 136.969 53.22C138.025 54.3 139.465 54.84 141.289 54.84C142.993 54.84 144.265 54.48 145.105 53.76C145.945 53.04 146.521 52.176 146.833 51.168L149.497 51.888C148.993 53.544 148.057 54.9 146.689 55.956C145.345 56.988 143.521 57.504 141.217 57.504ZM135.385 46.344H146.905C146.857 45.312 146.557 44.424 146.005 43.68C145.477 42.912 144.793 42.324 143.953 41.916C143.113 41.508 142.225 41.304 141.289 41.304C139.705 41.304 138.373 41.784 137.293 42.744C136.213 43.704 135.577 44.904 135.385 46.344Z" fill="#661108"/>
</svg>
