<svg width="223" height="90" viewBox="0 0 223 90" fill="none" xmlns="http://www.w3.org/2000/svg">
<path d="M0.879822 0.989824V23.3998L6.2998 28.8198V62.1898L0.589844 67.8998V89.8598H216.81V22.2598L194.63 0.0698242L0.879822 0.989824Z" fill="#75E8F0"/>
<path d="M6.18988 0.92V23.33L11.6099 28.75V62.12L5.8999 67.82V89.79H222.12V22.18L199.93 0L6.18988 0.92Z" fill="#FCF551"/>
<path d="M58.132 58V32.8H61.156V55.192H74.332V58H58.132ZM88.059 58.504C86.475 58.504 84.999 58.144 83.631 57.424C82.287 56.704 81.195 55.66 80.355 54.292C79.515 52.924 79.095 51.256 79.095 49.288V48.856C79.095 46.912 79.515 45.256 80.355 43.888C81.195 42.496 82.287 41.44 83.631 40.72C84.999 40 86.475 39.64 88.059 39.64C89.643 39.64 91.107 40 92.451 40.72C93.819 41.44 94.923 42.496 95.763 43.888C96.603 45.256 97.023 46.912 97.023 48.856V49.288C97.023 51.256 96.603 52.924 95.763 54.292C94.923 55.66 93.819 56.704 92.451 57.424C91.107 58.144 89.643 58.504 88.059 58.504ZM88.059 55.84C89.211 55.84 90.243 55.576 91.155 55.048C92.067 54.52 92.787 53.764 93.315 52.78C93.867 51.796 94.143 50.632 94.143 49.288V48.856C94.143 47.56 93.867 46.42 93.315 45.436C92.787 44.452 92.055 43.684 91.119 43.132C90.207 42.58 89.187 42.304 88.059 42.304C86.931 42.304 85.899 42.58 84.963 43.132C84.051 43.684 83.319 44.452 82.767 45.436C82.239 46.42 81.975 47.56 81.975 48.856V49.288C81.975 50.632 82.239 51.796 82.767 52.78C83.319 53.764 84.051 54.52 84.963 55.048C85.899 55.576 86.931 55.84 88.059 55.84ZM104.198 65.2V62.608H114.818C115.466 62.608 115.79 62.248 115.79 61.528V55.264H115.358C114.782 56.344 113.99 57.16 112.982 57.712C111.998 58.24 110.918 58.504 109.742 58.504C108.158 58.504 106.694 58.156 105.35 57.46C104.03 56.74 102.962 55.696 102.146 54.328C101.354 52.96 100.958 51.304 100.958 49.36V48.784C100.958 46.84 101.366 45.196 102.182 43.852C102.998 42.484 104.066 41.44 105.386 40.72C106.706 40 108.134 39.64 109.67 39.64C110.966 39.64 112.106 39.928 113.09 40.504C114.074 41.056 114.83 41.872 115.358 42.952H115.79V40.144H118.598V62.392C118.598 63.208 118.334 63.88 117.806 64.408C117.302 64.936 116.642 65.2 115.826 65.2H104.198ZM109.814 55.84C110.942 55.84 111.95 55.576 112.838 55.048C113.75 54.496 114.47 53.728 114.998 52.744C115.526 51.76 115.79 50.608 115.79 49.288V48.856C115.79 47.584 115.514 46.456 114.962 45.472C114.434 44.488 113.714 43.72 112.802 43.168C111.914 42.592 110.918 42.304 109.814 42.304C108.686 42.304 107.666 42.58 106.754 43.132C105.866 43.66 105.158 44.416 104.63 45.4C104.102 46.36 103.838 47.488 103.838 48.784V49.36C103.838 50.68 104.09 51.832 104.594 52.816C105.122 53.776 105.83 54.52 106.718 55.048C107.63 55.576 108.662 55.84 109.814 55.84ZM132.325 37.336C131.653 37.336 131.065 37.084 130.561 36.58C130.057 36.076 129.805 35.488 129.805 34.816C129.805 34.12 130.057 33.532 130.561 33.052C131.065 32.548 131.653 32.296 132.325 32.296C133.021 32.296 133.609 32.548 134.089 33.052C134.593 33.532 134.845 34.12 134.845 34.816C134.845 35.488 134.593 36.076 134.089 36.58C133.609 37.084 133.021 37.336 132.325 37.336ZM124.693 58V55.408H130.957V42.736H125.341V40.144H133.765V55.408H139.597V58H124.693ZM146.304 58V40.144H149.112V43.168H149.544C150.648 40.816 152.568 39.64 155.304 39.64C157.368 39.64 159.012 40.288 160.236 41.584C161.46 42.856 162.072 44.776 162.072 47.344V58H159.264V47.92C159.264 46.048 158.844 44.644 158.004 43.708C157.164 42.772 156.024 42.304 154.584 42.304C152.904 42.304 151.572 42.892 150.588 44.068C149.604 45.22 149.112 46.768 149.112 48.712V58H146.304Z" fill="#661108"/>
</svg>
