<svg width="216" height="88" viewBox="0 0 216 88" fill="none" xmlns="http://www.w3.org/2000/svg">
<path d="M6.84006 0V24.11L0.810059 30.14V60.68L6.03006 65.91V87.81H215.4V67.11L210.38 62.09V28.13L215.1 23.41V0H6.84006Z" fill="#FCF551"/>
<path d="M45.132 58.01V32.81H48.156V55.202H61.332V58.01H45.132ZM75.059 58.514C73.475 58.514 71.999 58.154 70.631 57.434C69.287 56.714 68.195 55.67 67.355 54.302C66.515 52.934 66.095 51.266 66.095 49.298V48.866C66.095 46.922 66.515 45.266 67.355 43.898C68.195 42.506 69.287 41.45 70.631 40.73C71.999 40.01 73.475 39.65 75.059 39.65C76.643 39.65 78.107 40.01 79.451 40.73C80.819 41.45 81.923 42.506 82.763 43.898C83.603 45.266 84.023 46.922 84.023 48.866V49.298C84.023 51.266 83.603 52.934 82.763 54.302C81.923 55.67 80.819 56.714 79.451 57.434C78.107 58.154 76.643 58.514 75.059 58.514ZM75.059 55.85C76.211 55.85 77.243 55.586 78.155 55.058C79.067 54.53 79.787 53.774 80.315 52.79C80.867 51.806 81.143 50.642 81.143 49.298V48.866C81.143 47.57 80.867 46.43 80.315 45.446C79.787 44.462 79.055 43.694 78.119 43.142C77.207 42.59 76.187 42.314 75.059 42.314C73.931 42.314 72.899 42.59 71.963 43.142C71.051 43.694 70.319 44.462 69.767 45.446C69.239 46.43 68.975 47.57 68.975 48.866V49.298C68.975 50.642 69.239 51.806 69.767 52.79C70.319 53.774 71.051 54.53 71.963 55.058C72.899 55.586 73.931 55.85 75.059 55.85ZM91.1979 65.21V62.618H101.818C102.466 62.618 102.79 62.258 102.79 61.538V55.274H102.358C101.782 56.354 100.99 57.17 99.9819 57.722C98.9979 58.25 97.9179 58.514 96.7419 58.514C95.1579 58.514 93.6939 58.166 92.3499 57.47C91.0299 56.75 89.9619 55.706 89.1459 54.338C88.3539 52.97 87.9579 51.314 87.9579 49.37V48.794C87.9579 46.85 88.3659 45.206 89.1819 43.862C89.9979 42.494 91.0659 41.45 92.3859 40.73C93.7059 40.01 95.1339 39.65 96.6699 39.65C97.9659 39.65 99.1059 39.938 100.09 40.514C101.074 41.066 101.83 41.882 102.358 42.962H102.79V40.154H105.598V62.402C105.598 63.218 105.334 63.89 104.806 64.418C104.302 64.946 103.642 65.21 102.826 65.21H91.1979ZM96.8139 55.85C97.9419 55.85 98.9499 55.586 99.8379 55.058C100.75 54.506 101.47 53.738 101.998 52.754C102.526 51.77 102.79 50.618 102.79 49.298V48.866C102.79 47.594 102.514 46.466 101.962 45.482C101.434 44.498 100.714 43.73 99.8019 43.178C98.9139 42.602 97.9179 42.314 96.8139 42.314C95.6859 42.314 94.6659 42.59 93.7539 43.142C92.8659 43.67 92.1579 44.426 91.6299 45.41C91.1019 46.37 90.8379 47.498 90.8379 48.794V49.37C90.8379 50.69 91.0899 51.842 91.5939 52.826C92.1219 53.786 92.8299 54.53 93.7179 55.058C94.6299 55.586 95.6619 55.85 96.8139 55.85ZM119.325 37.346C118.653 37.346 118.065 37.094 117.561 36.59C117.057 36.086 116.805 35.498 116.805 34.826C116.805 34.13 117.057 33.542 117.561 33.062C118.065 32.558 118.653 32.306 119.325 32.306C120.021 32.306 120.609 32.558 121.089 33.062C121.593 33.542 121.845 34.13 121.845 34.826C121.845 35.498 121.593 36.086 121.089 36.59C120.609 37.094 120.021 37.346 119.325 37.346ZM111.693 58.01V55.418H117.957V42.746H112.341V40.154H120.765V55.418H126.597V58.01H111.693ZM133.304 58.01V40.154H136.112V43.178H136.544C137.648 40.826 139.568 39.65 142.304 39.65C144.368 39.65 146.012 40.298 147.236 41.594C148.46 42.866 149.072 44.786 149.072 47.354V58.01H146.264V47.93C146.264 46.058 145.844 44.654 145.004 43.718C144.164 42.782 143.024 42.314 141.584 42.314C139.904 42.314 138.572 42.902 137.588 44.078C136.604 45.23 136.112 46.778 136.112 48.722V58.01H133.304Z" fill="#661108"/>
</svg>
