<svg width="208" height="88" viewBox="0 0 208 88" fill="none" xmlns="http://www.w3.org/2000/svg">
<path d="M6.22998 -0.0100098V23.7L0.459961 29.47V61.47L5.75998 66.77V87.8H202.74V67.5L207.56 62.68V29.33L201.39 23.16V-0.0100098H6.22998Z" fill="#FCF551"/>
<path d="M41.132 57V31.8H44.156V54.192H57.332V57H41.132ZM71.059 57.504C69.475 57.504 67.999 57.144 66.631 56.424C65.287 55.704 64.195 54.66 63.355 53.292C62.515 51.924 62.095 50.256 62.095 48.288V47.856C62.095 45.912 62.515 44.256 63.355 42.888C64.195 41.496 65.287 40.44 66.631 39.72C67.999 39 69.475 38.64 71.059 38.64C72.643 38.64 74.107 39 75.451 39.72C76.819 40.44 77.923 41.496 78.763 42.888C79.603 44.256 80.023 45.912 80.023 47.856V48.288C80.023 50.256 79.603 51.924 78.763 53.292C77.923 54.66 76.819 55.704 75.451 56.424C74.107 57.144 72.643 57.504 71.059 57.504ZM71.059 54.84C72.211 54.84 73.243 54.576 74.155 54.048C75.067 53.52 75.787 52.764 76.315 51.78C76.867 50.796 77.143 49.632 77.143 48.288V47.856C77.143 46.56 76.867 45.42 76.315 44.436C75.787 43.452 75.055 42.684 74.119 42.132C73.207 41.58 72.187 41.304 71.059 41.304C69.931 41.304 68.899 41.58 67.963 42.132C67.051 42.684 66.319 43.452 65.767 44.436C65.239 45.42 64.975 46.56 64.975 47.856V48.288C64.975 49.632 65.239 50.796 65.767 51.78C66.319 52.764 67.051 53.52 67.963 54.048C68.899 54.576 69.931 54.84 71.059 54.84ZM87.1979 64.2V61.608H97.8179C98.4659 61.608 98.7899 61.248 98.7899 60.528V54.264H98.3579C97.7819 55.344 96.9899 56.16 95.9819 56.712C94.9979 57.24 93.9179 57.504 92.7419 57.504C91.1579 57.504 89.6939 57.156 88.3499 56.46C87.0299 55.74 85.9619 54.696 85.1459 53.328C84.3539 51.96 83.9579 50.304 83.9579 48.36V47.784C83.9579 45.84 84.3659 44.196 85.1819 42.852C85.9979 41.484 87.0659 40.44 88.3859 39.72C89.7059 39 91.1339 38.64 92.6699 38.64C93.9659 38.64 95.1059 38.928 96.0899 39.504C97.0739 40.056 97.8299 40.872 98.3579 41.952H98.7899V39.144H101.598V61.392C101.598 62.208 101.334 62.88 100.806 63.408C100.302 63.936 99.6419 64.2 98.8259 64.2H87.1979ZM92.8139 54.84C93.9419 54.84 94.9499 54.576 95.8379 54.048C96.7499 53.496 97.4699 52.728 97.9979 51.744C98.5259 50.76 98.7899 49.608 98.7899 48.288V47.856C98.7899 46.584 98.5139 45.456 97.9619 44.472C97.4339 43.488 96.7139 42.72 95.8019 42.168C94.9139 41.592 93.9179 41.304 92.8139 41.304C91.6859 41.304 90.6659 41.58 89.7539 42.132C88.8659 42.66 88.1579 43.416 87.6299 44.4C87.1019 45.36 86.8379 46.488 86.8379 47.784V48.36C86.8379 49.68 87.0899 50.832 87.5939 51.816C88.1219 52.776 88.8299 53.52 89.7179 54.048C90.6299 54.576 91.6619 54.84 92.8139 54.84ZM115.145 57.504C113.561 57.504 112.085 57.144 110.717 56.424C109.373 55.704 108.281 54.66 107.441 53.292C106.601 51.924 106.181 50.256 106.181 48.288V47.856C106.181 45.912 106.601 44.256 107.441 42.888C108.281 41.496 109.373 40.44 110.717 39.72C112.085 39 113.561 38.64 115.145 38.64C116.729 38.64 118.193 39 119.537 39.72C120.905 40.44 122.009 41.496 122.849 42.888C123.689 44.256 124.109 45.912 124.109 47.856V48.288C124.109 50.256 123.689 51.924 122.849 53.292C122.009 54.66 120.905 55.704 119.537 56.424C118.193 57.144 116.729 57.504 115.145 57.504ZM115.145 54.84C116.297 54.84 117.329 54.576 118.241 54.048C119.153 53.52 119.873 52.764 120.401 51.78C120.953 50.796 121.229 49.632 121.229 48.288V47.856C121.229 46.56 120.953 45.42 120.401 44.436C119.873 43.452 119.141 42.684 118.205 42.132C117.293 41.58 116.273 41.304 115.145 41.304C114.017 41.304 112.985 41.58 112.049 42.132C111.137 42.684 110.405 43.452 109.853 44.436C109.325 45.42 109.061 46.56 109.061 47.856V48.288C109.061 49.632 109.325 50.796 109.853 51.78C110.405 52.764 111.137 53.52 112.049 54.048C112.985 54.576 114.017 54.84 115.145 54.84ZM135.784 57.504C133.816 57.504 132.208 56.856 130.96 55.56C129.712 54.264 129.088 52.344 129.088 49.8V39.144H131.896V49.44C131.896 51.312 132.28 52.68 133.048 53.544C133.816 54.408 134.992 54.84 136.576 54.84C138.28 54.84 139.612 54.264 140.572 53.112C141.556 51.936 142.048 50.376 142.048 48.432V39.144H144.856V57H142.048V53.76H141.616C141.04 54.912 140.284 55.824 139.348 56.496C138.412 57.168 137.224 57.504 135.784 57.504ZM159.123 57C158.307 57 157.635 56.736 157.107 56.208C156.603 55.68 156.351 55.008 156.351 54.192V41.736H150.735V39.144H156.351V31.8H159.159V39.144H166.071V41.736H159.159V53.328C159.159 54.048 159.483 54.408 160.131 54.408H165.207V57H159.123Z" fill="#661108"/>
</svg>
