<svg width="216" height="88" viewBox="0 0 216 88" fill="none" xmlns="http://www.w3.org/2000/svg">
<path d="M6.84006 0V24.11L0.810059 30.14V60.68L6.03006 65.91V87.81H215.4V67.11L210.38 62.09V28.13L215.1 23.41V0H6.84006Z" fill="#FCF551"/>
<path d="M45.132 32.81H48.156V55.202H61.332V58.01H45.132V32.81ZM84.023 49.298C84.023 50.786 83.771 52.106 83.267 53.258C82.787 54.386 82.139 55.346 81.323 56.138C80.507 56.906 79.547 57.494 78.443 57.902C77.363 58.31 76.235 58.514 75.059 58.514C73.859 58.514 72.719 58.31 71.639 57.902C70.559 57.494 69.611 56.906 68.795 56.138C67.979 55.346 67.319 54.386 66.815 53.258C66.335 52.106 66.095 50.786 66.095 49.298V48.866C66.095 47.402 66.335 46.106 66.815 44.978C67.319 43.826 67.979 42.854 68.795 42.062C69.635 41.27 70.595 40.67 71.675 40.262C72.755 39.854 73.883 39.65 75.059 39.65C76.235 39.65 77.363 39.854 78.443 40.262C79.523 40.67 80.471 41.27 81.287 42.062C82.127 42.854 82.787 43.826 83.267 44.978C83.771 46.106 84.023 47.402 84.023 48.866V49.298ZM75.059 55.85C75.923 55.85 76.715 55.706 77.435 55.418C78.179 55.106 78.827 54.662 79.379 54.086C79.931 53.51 80.363 52.826 80.675 52.034C80.987 51.218 81.143 50.306 81.143 49.298V48.866C81.143 47.906 80.987 47.03 80.675 46.238C80.363 45.422 79.931 44.726 79.379 44.15C78.827 43.574 78.179 43.13 77.435 42.818C76.691 42.482 75.899 42.314 75.059 42.314C74.219 42.314 73.427 42.482 72.683 42.818C71.939 43.13 71.291 43.574 70.739 44.15C70.187 44.726 69.755 45.422 69.443 46.238C69.131 47.03 68.975 47.906 68.975 48.866V49.298C68.975 50.306 69.131 51.218 69.443 52.034C69.755 52.826 70.187 53.51 70.739 54.086C71.291 54.662 71.927 55.106 72.647 55.418C73.391 55.706 74.195 55.85 75.059 55.85ZM102.79 55.274H102.358C101.782 56.354 100.99 57.17 99.9819 57.722C98.9979 58.25 97.9179 58.514 96.7419 58.514C95.5419 58.514 94.4139 58.31 93.3579 57.902C92.3019 57.494 91.3659 56.906 90.5499 56.138C89.7579 55.37 89.1219 54.422 88.6419 53.294C88.1859 52.142 87.9579 50.834 87.9579 49.37V48.794C87.9579 47.354 88.1979 46.07 88.6779 44.942C89.1579 43.79 89.7939 42.83 90.5859 42.062C91.3779 41.27 92.3019 40.67 93.3579 40.262C94.4139 39.854 95.5179 39.65 96.6699 39.65C97.9659 39.65 99.0939 39.938 100.054 40.514C101.038 41.066 101.806 41.882 102.358 42.962H102.79V40.154H105.598V62.402C105.598 63.218 105.334 63.89 104.806 64.418C104.302 64.946 103.642 65.21 102.826 65.21H91.1979V62.618H101.818C102.466 62.618 102.79 62.258 102.79 61.538V55.274ZM96.8139 55.85C97.6539 55.85 98.4339 55.694 99.1539 55.382C99.8739 55.07 100.498 54.626 101.026 54.05C101.578 53.474 102.01 52.79 102.322 51.998C102.634 51.182 102.79 50.282 102.79 49.298V48.866C102.79 47.906 102.634 47.03 102.322 46.238C102.01 45.422 101.578 44.726 101.026 44.15C100.498 43.574 99.8619 43.13 99.1179 42.818C98.3979 42.482 97.6299 42.314 96.8139 42.314C95.9739 42.314 95.1819 42.47 94.4379 42.782C93.7179 43.094 93.0819 43.538 92.5299 44.114C92.0019 44.69 91.5819 45.374 91.2699 46.166C90.9819 46.958 90.8379 47.834 90.8379 48.794V49.37C90.8379 50.378 90.9819 51.278 91.2699 52.07C91.5819 52.862 92.0019 53.546 92.5299 54.122C93.0819 54.674 93.7179 55.106 94.4379 55.418C95.1579 55.706 95.9499 55.85 96.8139 55.85ZM128.109 49.298C128.109 50.786 127.857 52.106 127.353 53.258C126.873 54.386 126.225 55.346 125.409 56.138C124.593 56.906 123.633 57.494 122.529 57.902C121.449 58.31 120.321 58.514 119.145 58.514C117.945 58.514 116.805 58.31 115.725 57.902C114.645 57.494 113.697 56.906 112.881 56.138C112.065 55.346 111.405 54.386 110.901 53.258C110.421 52.106 110.181 50.786 110.181 49.298V48.866C110.181 47.402 110.421 46.106 110.901 44.978C111.405 43.826 112.065 42.854 112.881 42.062C113.721 41.27 114.681 40.67 115.761 40.262C116.841 39.854 117.969 39.65 119.145 39.65C120.321 39.65 121.449 39.854 122.529 40.262C123.609 40.67 124.557 41.27 125.373 42.062C126.213 42.854 126.873 43.826 127.353 44.978C127.857 46.106 128.109 47.402 128.109 48.866V49.298ZM119.145 55.85C120.009 55.85 120.801 55.706 121.521 55.418C122.265 55.106 122.913 54.662 123.465 54.086C124.017 53.51 124.449 52.826 124.761 52.034C125.073 51.218 125.229 50.306 125.229 49.298V48.866C125.229 47.906 125.073 47.03 124.761 46.238C124.449 45.422 124.017 44.726 123.465 44.15C122.913 43.574 122.265 43.13 121.521 42.818C120.777 42.482 119.985 42.314 119.145 42.314C118.305 42.314 117.513 42.482 116.769 42.818C116.025 43.13 115.377 43.574 114.825 44.15C114.273 44.726 113.841 45.422 113.529 46.238C113.217 47.03 113.061 47.906 113.061 48.866V49.298C113.061 50.306 113.217 51.218 113.529 52.034C113.841 52.826 114.273 53.51 114.825 54.086C115.377 54.662 116.013 55.106 116.733 55.418C117.477 55.706 118.281 55.85 119.145 55.85ZM146.048 40.154H148.856V58.01H146.048V54.77H145.616C145.04 55.922 144.284 56.834 143.348 57.506C142.412 58.178 141.224 58.514 139.784 58.514C138.8 58.514 137.888 58.346 137.048 58.01C136.232 57.698 135.524 57.218 134.924 56.57C134.348 55.922 133.892 55.118 133.556 54.158C133.244 53.198 133.088 52.082 133.088 50.81V40.154H135.896V50.45C135.896 52.322 136.28 53.69 137.048 54.554C137.816 55.418 138.992 55.85 140.576 55.85C142.28 55.85 143.612 55.274 144.572 54.122C145.556 52.946 146.048 51.386 146.048 49.442V40.154ZM154.735 40.154H160.351V32.81H163.159V40.154H170.071V42.746H163.159V54.338C163.159 55.058 163.483 55.418 164.131 55.418H169.207V58.01H163.123C162.307 58.01 161.635 57.746 161.107 57.218C160.603 56.69 160.351 56.018 160.351 55.202V42.746H154.735V40.154Z" fill="#661108"/>
</svg>
