<svg width="571" height="155" viewBox="0 0 571 155" fill="none" xmlns="http://www.w3.org/2000/svg">
<g clip-path="url(#clip0_149_2404)">
<path d="M31.9888 109.302H82.1919L31.9888 89.0898V109.302Z" fill="#661109"/>
<path d="M151.694 -8.05762L31.9888 30.9073V77.8326L110.142 109.302H408.539L528.244 70.3371V-8.05762H151.694Z" fill="#661109"/>
<path d="M42.5564 118.45H92.7595L42.5564 98.2305V118.45Z" fill="#FCF551"/>
<path d="M162.252 1.08984L42.5564 40.0476V86.98L120.709 118.45H419.106L538.811 79.4846V1.08984H162.252Z" fill="#FCF551"/>
<path d="M120.275 124.644H362.506V129.521H120.275" fill="#FCF551"/>
<path d="M42.3967 124.644H92.5998V129.521H42.3967" fill="#FCF551"/>
<path d="M532.76 1.08984V79.2629V81.4514L538.811 79.4846V79.2629V1.08984H532.76Z" fill="#75E8F0"/>
<g filter="url(#filter0_g_149_2404)">
<path d="M164.288 54.464H161.152C161.109 54.6347 161.067 54.8053 161.024 54.976C160.981 55.104 160.917 55.2533 160.832 55.424H162.624L162.432 56.064H160.896C160.768 56.448 160.597 56.8747 160.384 57.344H159.424C159.253 57.7707 159.019 58.1973 158.72 58.624H158.848C158.677 58.8373 158.528 59.0507 158.4 59.264C158.272 59.4773 158.123 59.6907 157.952 59.904H164.864L164.032 60.864H158.336C158.165 61.0773 157.952 61.2907 157.696 61.504C157.44 61.7173 157.205 61.9307 156.992 62.144H157.824C157.653 62.3147 157.44 62.4853 157.184 62.656C156.971 62.784 156.757 62.9333 156.544 63.104H158.656L158.4 63.296L158.976 64.384H157.44L158.144 65.664H158.336L158.528 65.984H158.464L159.104 67.264H159.744L160.128 67.904H155.2L155.712 68.864H160.192L160.576 69.504H159.168L159.68 70.464H166.016L166.72 71.744H162.496L163.008 72.704H161.024L162.048 74.624H162.496L162.88 75.264H162.688L162.88 75.584H159.872L160.576 76.864L160.704 77.184H158.72L159.04 77.888C159.168 78.0587 159.232 78.2507 159.232 78.464H160.576V78.592C160.576 79.0613 160.384 79.4453 160 79.744H161.728C161.515 79.9147 161.237 80 160.896 80H147.776C147.52 80 147.285 79.9787 147.072 79.936C146.901 79.8507 146.709 79.7867 146.496 79.744H144.768C144.427 79.5733 144.128 79.36 143.872 79.104C143.659 78.848 143.488 78.6347 143.36 78.464H142.08L141.952 78.272L141.504 77.184H143.552L143.36 76.864H137.28V77.184H134.016V78.464H139.2C139.115 79.0613 138.837 79.488 138.368 79.744H137.92C137.621 79.9147 137.301 80 136.96 80H124.416C124.032 80 123.733 79.9147 123.52 79.744H124.032C123.563 79.488 123.285 79.0613 123.2 78.464H118.08C118.08 78.4213 118.08 78.4 118.08 78.4C118.037 78.3573 118.016 78.3147 118.016 78.272V77.184H121.28V76.864H127.68V75.584H120.832V75.264H124.864V74.624H123.52V73.664H125.76V72.704H122.112V71.744H127.04V70.464H124.224V69.504H124.16V69.184H123.776V68.864H122.048V67.904H124.224V67.264H123.648V65.984H123.712V65.664H123.52V64.384H125.056V63.104H122.88V62.144H122.048V60.864H127.68V59.904H120.768V58.624H120.64V57.344H121.6V56.064H123.072V55.424H121.28V54.464H124.416V53.824H129.024V53.184H122.688V52.864H123.008V52.544H123.584V52.224H123.648V51.584H123.52V50.624H123.776V49.344H123.456V48.704H123.776V47.744H123.52V47.424H123.712V46.784H123.648V46.464H123.392V46.144H123.968V45.184H124.48V44.224H121.472V42.944H122.176V41.664H121.792V40.704H123.52V39.744H124.16V38.784H123.008V38.144H123.456V37.824H123.584V36.864H123.712C123.712 36.3947 123.904 35.968 124.288 35.584H127.744C128 35.328 128.363 35.2 128.832 35.2H147.776C149.611 35.2 151.317 35.328 152.896 35.584H149.504C151.211 35.84 152.832 36.2667 154.368 36.864H154.24C154.965 37.12 155.669 37.44 156.352 37.824H156.224L156.8 38.144H156.288C156.501 38.2293 156.672 38.336 156.8 38.464C156.971 38.592 157.141 38.6987 157.312 38.784H158.464C158.677 38.9547 158.891 39.1253 159.104 39.296C159.317 39.424 159.509 39.5733 159.68 39.744H159.04C159.253 39.9147 159.424 40.0853 159.552 40.256C159.723 40.384 159.893 40.5333 160.064 40.704H158.336C158.507 40.8747 158.656 41.0453 158.784 41.216C158.912 41.344 159.04 41.4933 159.168 41.664H159.488C159.829 42.0907 160.128 42.5173 160.384 42.944H159.744C159.872 43.1147 159.979 43.328 160.064 43.584C160.192 43.7973 160.32 44.0107 160.448 44.224H163.456L163.84 45.184H163.328C163.371 45.3547 163.413 45.5253 163.456 45.696C163.541 45.824 163.605 45.9733 163.648 46.144H163.008L163.136 46.464H163.392C163.435 46.5493 163.456 46.656 163.456 46.784L163.648 47.424H163.84C163.84 47.552 163.861 47.6587 163.904 47.744H163.968C164.011 47.9147 164.032 48.0853 164.032 48.256C164.075 48.384 164.096 48.5333 164.096 48.704H163.264C163.264 48.7893 163.264 48.896 163.264 49.024C163.264 49.152 163.285 49.2587 163.328 49.344H163.712C163.712 49.5573 163.712 49.7707 163.712 49.984C163.755 50.1973 163.776 50.4107 163.776 50.624V51.264H164.16V51.584H163.776V52.224H163.136C163.136 52.2667 163.115 52.3093 163.072 52.352C163.072 52.3947 163.072 52.4587 163.072 52.544H163.712C163.712 52.5867 163.691 52.6293 163.648 52.672C163.648 52.7147 163.648 52.7787 163.648 52.864H166.656C166.613 52.9493 166.592 53.056 166.592 53.184H167.424L167.36 53.824H164.416C164.331 54.08 164.288 54.2933 164.288 54.464ZM138.688 53.184H145.024V53.824H140.416V53.888H145.088C145.387 53.888 145.621 53.8667 145.792 53.824H148.736C149.205 53.696 149.632 53.4827 150.016 53.184H149.12L149.44 52.864H146.432C146.56 52.736 146.645 52.6293 146.688 52.544H146.048L146.24 52.224H146.88L147.072 51.584H147.392C147.435 51.4987 147.456 51.392 147.456 51.264H147.072L147.136 50.624C147.136 50.1973 147.072 49.7707 146.944 49.344H146.56C146.517 49.2587 146.475 49.152 146.432 49.024C146.432 48.896 146.389 48.7893 146.304 48.704H147.2C147.029 48.3627 146.795 48.0427 146.496 47.744H146.368C146.24 47.616 146.091 47.5093 145.92 47.424H145.728C145.301 47.2107 144.853 47.104 144.384 47.104H139.712V47.424H139.52V47.744H139.776V48.704H139.456V49.344H139.776V50.624H139.52V51.584H139.648V52.224H139.584V52.544H139.008V52.864H138.688V53.184ZM143.744 67.904L143.488 67.264H142.784L142.272 66.048H139.648V67.264H140.224V67.904H143.744ZM138.048 67.904V68.864H139.264L138.88 67.904H138.048ZM143.872 69.184L143.744 68.864H139.776V69.184H140.16V69.504H140.224V70.464H143.04V71.744H138.112V72.704H141.76V73.664H139.52V74.624H140.864V75.264H136.832V75.584H145.856L145.664 75.264H145.856L145.536 74.624H145.024L144.64 73.664L144.192 72.704H146.24L145.792 71.744H149.952L149.376 70.464H143.04L142.656 69.504H144.064L143.872 69.184ZM201.206 62.464V63.104H209.334V63.744H204.406V64.384H202.102V65.024H204.086V65.408C204.086 65.664 204.065 65.856 204.022 65.984H204.918C204.619 66.752 204.065 67.136 203.254 67.136H184.182V67.264H186.742V67.456C186.742 67.6267 186.742 67.8187 186.742 68.032C186.742 68.2027 186.763 68.3733 186.806 68.544H183.35C183.35 68.672 183.35 68.8 183.35 68.928C183.393 69.0133 183.414 69.0987 183.414 69.184H183.03C183.03 69.3547 183.073 69.568 183.158 69.824H183.414C183.627 70.4213 183.969 70.848 184.438 71.104H182.71C183.009 71.2747 183.414 71.36 183.926 71.36C184.267 71.36 184.545 71.2747 184.758 71.104H187.766C187.937 71.0187 188.086 70.8907 188.214 70.72C188.385 70.5493 188.577 70.3787 188.79 70.208L189.174 69.824H187.958C188.342 69.4827 188.918 69.312 189.686 69.312H201.782C202.294 69.312 202.678 69.4827 202.934 69.824H204.086C204.299 70.1227 204.406 70.4213 204.406 70.72C204.363 70.8053 204.342 70.9333 204.342 71.104H201.334C201.249 71.5307 201.121 71.9573 200.95 72.384H197.814C197.686 72.5973 197.579 72.8107 197.494 73.024H205.43C205.345 73.2373 205.217 73.4507 205.046 73.664C204.918 73.8773 204.769 74.0907 204.598 74.304H202.678C202.507 74.56 202.337 74.7733 202.166 74.944H202.614C202.571 74.9867 202.529 75.0293 202.486 75.072C202.443 75.1147 202.401 75.1787 202.358 75.264H198.774L198.454 75.584H199.542C199.499 75.6267 199.435 75.6693 199.35 75.712C199.307 75.7547 199.265 75.8187 199.222 75.904H201.206C200.907 76.2027 200.523 76.5227 200.054 76.864H199.094C199.051 76.9067 198.987 76.9493 198.902 76.992C198.817 77.0347 198.731 77.0987 198.646 77.184H197.942C197.259 77.6533 196.513 78.08 195.702 78.464H194.87C194.358 78.72 193.803 78.9547 193.206 79.168C192.651 79.3813 192.054 79.5733 191.414 79.744H190.39C189.921 79.872 189.43 79.9787 188.918 80.064C188.406 80.192 187.851 80.2987 187.254 80.384H189.942C189.345 80.4693 188.726 80.5333 188.086 80.576C187.446 80.6187 186.763 80.64 186.038 80.64C185.355 80.64 184.673 80.6187 183.99 80.576C183.307 80.5333 182.646 80.4693 182.006 80.384H179.318C178.763 80.2987 178.23 80.192 177.718 80.064C177.206 79.9787 176.694 79.872 176.182 79.744H177.206C176.054 79.4453 174.966 79.0187 173.942 78.464H174.774C174.006 78.0373 173.345 77.6107 172.79 77.184H173.494C173.409 77.0987 173.323 77.0347 173.238 76.992C173.195 76.9493 173.131 76.9067 173.046 76.864H174.006C173.835 76.6933 173.665 76.544 173.494 76.416C173.323 76.2453 173.153 76.0747 172.982 75.904H170.934L170.614 75.584H169.526C169.483 75.4987 169.441 75.4347 169.398 75.392C169.355 75.3493 169.313 75.3067 169.27 75.264H172.79C172.747 75.1787 172.662 75.072 172.534 74.944H172.086C172.001 74.8587 171.915 74.752 171.83 74.624C171.745 74.496 171.659 74.3893 171.574 74.304H173.494C173.366 74.0907 173.238 73.8773 173.11 73.664C172.982 73.4507 172.854 73.2373 172.726 73.024H164.726C164.598 72.8107 164.491 72.5973 164.406 72.384H167.542L166.966 71.104H168.694C168.609 70.8907 168.523 70.6773 168.438 70.464C168.395 70.2507 168.331 70.0373 168.246 69.824H168.054L167.862 69.184H168.31L168.118 68.544H171.574C171.531 68.3307 171.489 68.1173 171.446 67.904C171.403 67.6907 171.361 67.4773 171.318 67.264H168.758L168.63 65.984H167.734C167.734 65.8133 167.713 65.664 167.67 65.536C167.67 65.3653 167.67 65.1947 167.67 65.024H165.686V64.384H167.926V63.744H172.854V63.104H164.726V62.976C164.726 62.7627 164.747 62.592 164.79 62.464H175.862C175.862 62.2933 175.862 62.144 175.862 62.016C175.905 61.8453 175.926 61.6747 175.926 61.504H165.75C165.75 61.4187 165.75 61.3547 165.75 61.312C165.793 61.2693 165.814 61.2267 165.814 61.184H170.038C170.038 61.056 170.059 60.9493 170.102 60.864H174.838V60.544H165.814C165.857 60.3307 165.899 60.1173 165.942 59.904C165.985 59.6907 166.027 59.4773 166.07 59.264H168.502C168.502 59.0933 168.545 58.88 168.63 58.624H166.518C166.518 58.5387 166.518 58.4747 166.518 58.432C166.561 58.3893 166.582 58.3467 166.582 58.304H168.118C168.118 58.2187 168.118 58.1547 168.118 58.112C168.161 58.0693 168.182 58.0267 168.182 57.984H166.582L166.71 57.664H168.246L168.438 57.024H169.654L170.038 56.064H168.886C168.971 55.8507 169.057 55.6373 169.142 55.424C169.227 55.168 169.334 54.9547 169.462 54.784H169.27L169.398 54.464H167.798C167.883 54.2933 167.926 54.1867 167.926 54.144H166.454L166.838 53.504H169.974C170.017 53.4187 170.102 53.312 170.23 53.184H171.382C171.553 52.9707 171.702 52.7573 171.83 52.544C172.001 52.288 172.171 52.0747 172.342 51.904H171.19C171.318 51.7333 171.446 51.584 171.574 51.456C171.745 51.2853 171.915 51.1147 172.086 50.944H174.582L175.222 50.304H171.446C172.001 49.8347 172.555 49.408 173.11 49.024H176.63L177.142 48.704H175.99C176.331 48.4907 176.737 48.2773 177.206 48.064H179.702C180.854 47.5093 182.049 47.0827 183.286 46.784H179.702C180.641 46.5707 181.622 46.4 182.646 46.272C183.67 46.144 184.737 46.08 185.846 46.08C186.955 46.08 188.001 46.144 188.982 46.272C189.963 46.4 190.902 46.5707 191.798 46.784H195.318C195.958 46.9547 196.555 47.1467 197.11 47.36C197.707 47.5733 198.283 47.808 198.838 48.064H196.342C196.555 48.1493 196.747 48.256 196.918 48.384C197.131 48.4693 197.323 48.576 197.494 48.704H198.646C198.731 48.7467 198.817 48.7893 198.902 48.832C198.987 48.8747 199.073 48.9387 199.158 49.024H195.638C196.193 49.408 196.747 49.8347 197.302 50.304H201.142L201.782 50.944H199.286C199.457 51.1147 199.606 51.2853 199.734 51.456C199.905 51.584 200.054 51.7333 200.182 51.904H201.334C201.505 52.0747 201.654 52.288 201.782 52.544C201.953 52.7573 202.123 52.9707 202.294 53.184H201.078C201.121 53.2693 201.206 53.376 201.334 53.504H198.134L198.518 54.144H199.99L200.182 54.464H201.846C201.846 54.5067 201.889 54.6133 201.974 54.784H202.166L202.742 56.064L203.126 57.024H203.19L203.382 57.664H202.614L202.742 57.984H203.318L203.446 58.304H204.47C204.47 58.3467 204.47 58.3893 204.47 58.432C204.513 58.4747 204.534 58.5387 204.534 58.624H204.022L204.214 59.264H201.782L201.974 60.544H210.998V60.864H206.262C206.262 60.9067 206.262 60.9493 206.262 60.992C206.305 61.0347 206.326 61.0987 206.326 61.184H202.038C202.081 61.2693 202.102 61.376 202.102 61.504H212.278C212.278 61.6747 212.278 61.8453 212.278 62.016C212.278 62.144 212.299 62.2933 212.342 62.464H201.206ZM181.75 58.304V58.624H183.798V59.136H188.918V58.624H189.366V58.304H188.342V57.984H187.702C187.702 57.856 187.681 57.7493 187.638 57.664H188.406C188.406 57.4933 188.363 57.28 188.278 57.024H188.214C188.171 56.64 188.043 56.32 187.83 56.064C187.403 55.3813 186.742 55.04 185.846 55.04C184.993 55.04 184.353 55.3813 183.926 56.064H185.078C184.907 56.32 184.779 56.64 184.694 57.024H183.414C183.414 57.1093 183.393 57.216 183.35 57.344C183.35 57.4293 183.329 57.536 183.286 57.664H181.75C181.75 57.792 181.729 57.8987 181.686 57.984H183.286V58.304H181.75ZM245.817 78.784H247.865V79.744H246.265V80.064H246.713C246.67 80.2347 246.649 80.384 246.649 80.512C246.649 80.6827 246.628 80.8533 246.585 81.024H246.521V81.344H243.513C243.47 81.4293 243.449 81.536 243.449 81.664C243.449 81.792 243.428 81.8987 243.385 81.984H247.097C247.054 82.1973 247.012 82.4107 246.969 82.624C246.926 82.8373 246.884 83.0507 246.841 83.264H245.817C245.774 83.4347 245.732 83.584 245.689 83.712C245.646 83.8827 245.582 84.0533 245.497 84.224H243.385L243.129 84.864H244.217L243.961 85.504H244.089C244.004 85.7173 243.897 85.9307 243.769 86.144H243.833L243.257 87.104C243.214 87.1467 243.172 87.1893 243.129 87.232C243.129 87.2747 243.108 87.3387 243.065 87.424C242.98 87.5947 242.873 87.744 242.745 87.872C242.617 88.0427 242.489 88.2133 242.361 88.384H242.233L241.913 88.704H243.129L242.553 89.344H241.081C240.953 89.4293 240.825 89.536 240.697 89.664C240.569 89.792 240.462 89.8987 240.377 89.984H242.105C241.934 90.1547 241.721 90.304 241.465 90.432C241.252 90.6027 241.038 90.7733 240.825 90.944H243.129C242.873 91.1147 242.596 91.264 242.297 91.392C242.041 91.5627 241.764 91.7333 241.465 91.904H240.825C240.612 92.032 240.377 92.1387 240.121 92.224C239.865 92.352 239.63 92.4587 239.417 92.544H235.769C234.958 92.8427 234.126 93.0987 233.273 93.312C232.42 93.5253 231.545 93.696 230.649 93.824H234.425C233.785 93.9093 233.124 93.9733 232.441 94.016C231.758 94.0587 231.076 94.08 230.393 94.08C229.668 94.08 228.942 94.0587 228.217 94.016C227.534 93.9733 226.873 93.9093 226.233 93.824H222.457C220.537 93.568 218.766 93.1413 217.145 92.544H220.793C220.537 92.4587 220.281 92.352 220.025 92.224C219.769 92.1387 219.513 92.032 219.257 91.904H219.897C219.598 91.7333 219.3 91.5627 219.001 91.392C218.702 91.264 218.404 91.1147 218.105 90.944H215.865C215.609 90.7733 215.353 90.6027 215.097 90.432C214.884 90.304 214.67 90.1547 214.457 89.984H212.729C212.388 89.728 212.132 89.5147 211.961 89.344H213.433C213.305 89.2587 213.177 89.152 213.049 89.024C212.921 88.896 212.814 88.7893 212.729 88.704H211.513C211.47 88.6187 211.428 88.5547 211.385 88.512C211.342 88.4693 211.278 88.4267 211.193 88.384H211.385C211.214 88.2133 211.065 88.0427 210.937 87.872C210.809 87.744 210.681 87.5947 210.553 87.424H210.489C210.446 87.3387 210.361 87.232 210.233 87.104H210.297C210.169 86.9333 210.041 86.7627 209.913 86.592C209.785 86.464 209.678 86.3147 209.593 86.144L209.209 85.504H209.081C209.038 85.4187 208.996 85.312 208.953 85.184C208.91 85.056 208.846 84.9493 208.761 84.864H207.673L207.417 84.224H209.593C209.55 84.0533 209.486 83.8827 209.401 83.712C209.358 83.584 209.316 83.4347 209.273 83.264H208.889C208.889 83.136 208.868 83.008 208.825 82.88C208.825 82.7947 208.825 82.7093 208.825 82.624C208.825 82.3253 208.846 82.112 208.889 81.984H208.697C208.825 81.728 208.974 81.5147 209.145 81.344H208.761C209.017 81.1733 209.209 81.0667 209.337 81.024H210.169C210.425 80.9387 210.66 80.896 210.873 80.896H223.353C223.566 80.896 223.801 80.9387 224.057 81.024H223.161C223.374 81.0667 223.545 81.1733 223.673 81.344H224.057C224.228 81.5147 224.377 81.728 224.505 81.984H224.697L224.825 82.176C225.124 82.688 225.401 83.0507 225.657 83.264H225.977C226.446 83.6053 227.086 83.776 227.897 83.776C228.537 83.776 229.092 83.6053 229.561 83.264H230.585C230.969 82.9653 231.246 82.5387 231.417 81.984H227.705C227.79 81.728 227.833 81.5147 227.833 81.344H230.841C230.884 81.2587 230.905 81.152 230.905 81.024H230.969C231.012 80.8533 231.033 80.6827 231.033 80.512C231.033 80.384 231.033 80.2347 231.033 80.064H230.649V79.744H232.185V78.784H230.137V78.464H228.921V78.144H230.073V76.864H228.857V76.48L228.217 76.864H228.153C227.129 77.4613 226.02 77.888 224.825 78.144H225.081C224.74 78.1867 224.398 78.2507 224.057 78.336C223.716 78.3787 223.353 78.4213 222.969 78.464H221.369C221.113 78.5067 220.857 78.528 220.601 78.528C220.345 78.528 220.089 78.528 219.833 78.528C219.534 78.528 219.236 78.528 218.937 78.528C218.638 78.528 218.361 78.5067 218.105 78.464H219.641C219.257 78.4213 218.873 78.3787 218.489 78.336C218.105 78.2507 217.721 78.1867 217.337 78.144H217.145C216.505 78.016 215.886 77.8453 215.289 77.632C214.734 77.4187 214.18 77.1627 213.625 76.864H213.689C213.518 76.7787 213.348 76.6933 213.177 76.608C213.006 76.48 212.836 76.352 212.665 76.224H214.137C213.881 76.0107 213.625 75.7973 213.369 75.584C213.156 75.3707 212.942 75.1573 212.729 74.944H207.545L207.225 74.624H210.169C209.828 74.1973 209.529 73.7707 209.273 73.344H210.105C209.806 72.9173 209.572 72.4907 209.401 72.064H209.273C209.06 71.5947 208.889 71.168 208.761 70.784H204.089C204.089 70.6987 204.089 70.6347 204.089 70.592C204.046 70.5493 204.025 70.5067 204.025 70.464H208.377L208.185 69.824H208.505C208.462 69.6107 208.398 69.3973 208.313 69.184C208.27 68.9707 208.228 68.7573 208.185 68.544H208.953L208.761 67.264H207.929L207.865 66.624H206.329C206.286 66.4107 206.265 66.1973 206.265 65.984C206.265 65.7707 206.244 65.5573 206.201 65.344H205.625C205.625 65.1733 205.625 65.024 205.625 64.896C205.582 64.7253 205.561 64.5547 205.561 64.384H206.457V63.744H207.609C207.609 63.5733 207.588 63.424 207.545 63.296C207.545 63.1253 207.545 62.9547 207.545 62.784H208.121V61.824H207.097C207.097 61.6533 207.097 61.504 207.097 61.376C207.097 61.2053 207.118 61.0347 207.161 60.864H207.289V60.8C207.289 60.6293 207.289 60.48 207.289 60.352C207.332 60.224 207.353 60.0747 207.353 59.904H207.609C207.652 59.7333 207.673 59.584 207.673 59.456C207.673 59.2853 207.694 59.1147 207.737 58.944C207.78 58.8587 207.801 58.752 207.801 58.624C207.801 58.496 207.822 58.3893 207.865 58.304H207.545V57.984H207.929C207.972 57.7707 208.014 57.5573 208.057 57.344C208.1 57.088 208.142 56.8747 208.185 56.704H208.121C208.164 56.5333 208.206 56.384 208.249 56.256C208.292 56.0853 208.334 55.9147 208.377 55.744H208.889C208.974 55.5307 209.038 55.3173 209.081 55.104C209.166 54.848 209.252 54.6347 209.337 54.464H209.657L209.785 54.144H208.889C208.932 54.0587 208.974 53.952 209.017 53.824C209.06 53.696 209.102 53.5893 209.145 53.504L209.529 52.544C209.572 52.4587 209.593 52.3947 209.593 52.352C209.636 52.3093 209.678 52.2667 209.721 52.224L209.913 51.904C209.998 51.8187 210.062 51.712 210.105 51.584C210.19 51.456 210.276 51.3493 210.361 51.264C210.404 51.1787 210.446 51.1147 210.489 51.072C210.532 51.0293 210.574 50.9867 210.617 50.944H210.489L211.257 49.984C211.385 49.8987 211.492 49.792 211.577 49.664C211.705 49.536 211.812 49.4293 211.897 49.344H212.025C212.068 49.2587 212.11 49.1947 212.153 49.152C212.238 49.1093 212.302 49.0667 212.345 49.024H213.049C213.305 48.768 213.582 48.5547 213.881 48.384H212.281C212.452 48.256 212.622 48.1493 212.793 48.064C212.964 47.936 213.134 47.8293 213.305 47.744H213.753C214.35 47.4027 215.076 47.0827 215.929 46.784H218.041C219.577 46.3147 221.22 46.08 222.969 46.08C224.505 46.08 225.934 46.3147 227.257 46.784H225.145C225.828 46.9973 226.51 47.3173 227.193 47.744H226.809C226.98 47.8293 227.129 47.936 227.257 48.064C227.428 48.1493 227.598 48.256 227.769 48.384H229.305C229.476 48.4693 229.625 48.576 229.753 48.704C229.881 48.832 230.009 48.9387 230.137 49.024H229.433L229.753 49.344H229.689L230.265 49.984C230.35 50.0267 230.414 50.0907 230.457 50.176C230.542 50.2613 230.606 50.3467 230.649 50.432V49.984H230.905V49.344H231.993V49.024H232.697V48.384H229.561C229.561 48.128 229.625 47.9147 229.753 47.744H230.841C231.054 47.232 231.417 46.912 231.929 46.784H230.649C230.777 46.7413 230.948 46.72 231.161 46.72H242.361C242.574 46.72 242.724 46.7413 242.809 46.784H244.089C244.601 46.912 244.964 47.232 245.177 47.744H244.089C244.174 48 244.217 48.2133 244.217 48.384H247.353V49.024H246.649V49.344H245.561V49.984H245.305V50.944H245.369V51.904H245.305V53.504H245.369V54.144H246.265V54.464H245.881V55.744H245.305L245.369 56.704V58.304H245.177V58.944H244.985V59.904H245.369V60.864H246.137V61.824H244.793V62.784H245.241V63.744H245.369V64.384H243.257L243.321 65.344H243.577V66.624H244.985V67.264H246.137V68.544H245.305V69.824H245.049V70.464H240.633V70.784H245.305V72.064H245.433V73.344H244.537L244.601 74.624H241.657V74.944H246.841V76.224H244.537V76.864H245.753V78.144H244.601V78.464H245.817V78.784ZM224.249 66.624C224.548 66.9227 224.932 67.136 225.401 67.264H226.169C226.34 67.3067 226.51 67.3493 226.681 67.392C226.894 67.392 227.086 67.392 227.257 67.392C227.47 67.392 227.662 67.392 227.833 67.392C228.046 67.3493 228.238 67.3067 228.409 67.264H227.257C227.726 67.136 228.11 66.9227 228.409 66.624H227.001C227.342 66.2827 227.577 65.856 227.705 65.344H227.449L227.641 64.384H229.689C229.689 64.2987 229.71 64.2347 229.753 64.192V63.744H229.625V62.784H229.241V61.824H230.521V60.864H229.689V60.736C229.689 60.5653 229.668 60.416 229.625 60.288C229.625 60.16 229.604 60.032 229.561 59.904H229.241C229.198 59.5627 229.092 59.2427 228.921 58.944H229.049C228.921 58.688 228.772 58.4747 228.601 58.304H228.793C228.622 58.1333 228.494 58.0267 228.409 57.984C227.982 57.6853 227.364 57.536 226.553 57.536C225.742 57.536 225.124 57.6853 224.697 57.984H224.313C224.228 58.0267 224.1 58.1333 223.929 58.304H224.249C224.078 58.4747 223.929 58.688 223.801 58.944H223.737C223.694 59.072 223.652 59.2213 223.609 59.392C223.566 59.52 223.502 59.6907 223.417 59.904H223.161C223.118 60.0747 223.076 60.2453 223.033 60.416C223.033 60.544 223.033 60.6933 223.033 60.864H222.841V61.248C222.798 61.376 222.777 61.568 222.777 61.824H223.801V62.784H223.225C223.225 62.9547 223.225 63.1253 223.225 63.296C223.268 63.424 223.289 63.552 223.289 63.68V63.744H222.137L222.201 64.384H221.305L221.497 65.344H222.073C222.201 65.856 222.436 66.2827 222.777 66.624H224.249ZM230.585 76.224H231.161V75.776L230.585 76.224ZM250.81 41.344V40.064H250.746V39.104H251.322V38.784H251.706V37.504H251.386V36.544H251.45V35.264H251.706V34.304H251.578V33.728C251.578 33.3867 251.621 33.152 251.706 33.024H252.346L252.538 32.704H252.026C252.367 32.2347 252.837 32 253.434 32H264.25C264.847 32 265.317 32.2347 265.658 32.704H266.17L266.362 33.024H265.658C265.786 33.1947 265.85 33.4293 265.85 33.728V34.304H265.978V35.264H265.722V36.544H265.658V37.504H265.978V38.784H265.594V39.104H265.018V40.064H265.082V41.344H265.53V41.472C265.53 41.856 265.381 42.24 265.082 42.624H264.314C264.015 43.008 263.589 43.2 263.034 43.2H252.218C251.663 43.2 251.215 43.008 250.874 42.624H251.642C251.386 42.2827 251.258 41.8987 251.258 41.472V41.344H250.81ZM263.994 54.784H270.01V56.064H267.834V56.704H265.402V57.984H267.258V58.304H266.042V58.944H266.234V59.584H266.554V60.544H263.354V61.504H265.466V62.464H265.082V63.104H266.17V64.064H266.426V65.024H266.042V65.984H266.362V66.624H266.042V67.904H265.914V68.864H265.658V69.824H265.914V70.464H266.042V71.744H265.786V72.384H266.106V73.024H266.042V73.984H266.298V74.944H266.49V75.264H266.042V76.544H265.146V77.824H265.786V78.272C265.786 78.4853 265.765 78.656 265.722 78.784H265.274C265.146 79.2107 264.911 79.5307 264.57 79.744H265.85C265.637 79.9147 265.317 80 264.89 80H253.434C253.05 80 252.751 79.9147 252.538 79.744H251.258C250.874 79.5307 250.618 79.2107 250.49 78.784H250.938C250.895 78.656 250.874 78.4853 250.874 78.272V77.824H250.234V76.544H251.13V75.264H251.578V74.944H251.386V73.984H251.13V73.024H251.194V72.384H250.874V71.744H251.13V70.464H251.002V69.824H250.746V68.864H251.002V67.904H251.13V66.624H251.45V65.984H251.13V65.024H251.514V64.064H251.258V63.104H250.17V62.464H250.554V61.504H248.442V60.544H251.642V59.584H251.322V58.944H251.13V58.304H252.346V57.984H250.49V56.704H252.922V56.064H255.098V54.784H249.082V54.144H254.394V52.864H252.474V51.904H253.626V50.624H251.578V50.304H251.13V49.664H250.746V48.704H251.194V48.448C251.194 47.9787 251.301 47.6373 251.514 47.424H251.578C251.919 46.9547 252.389 46.72 252.986 46.72H264.442C265.039 46.72 265.509 46.9547 265.85 47.424H265.722C265.978 47.68 266.106 48.0213 266.106 48.448V48.704H265.658V49.664H266.042V50.304H266.49V50.624H268.538V51.904H267.386V52.864H269.306V54.144H263.994V54.784ZM310.555 74.304H307.931C307.675 74.7307 307.376 75.1573 307.035 75.584H308.187C308.144 75.6693 308.059 75.776 307.931 75.904H305.115C304.944 76.0747 304.774 76.2453 304.603 76.416C304.475 76.544 304.304 76.6933 304.091 76.864H304.027C303.814 77.0347 303.579 77.2053 303.323 77.376C303.11 77.504 302.875 77.6533 302.619 77.824H301.467C301.083 78.08 300.656 78.3147 300.187 78.528C299.718 78.6987 299.248 78.8907 298.779 79.104H298.523C298.395 79.1467 298.246 79.1893 298.075 79.232C297.947 79.2747 297.776 79.3387 297.563 79.424H304.859C304.688 79.4667 304.496 79.5093 304.283 79.552C304.112 79.5947 303.92 79.6587 303.707 79.744H300.507C299.952 79.872 299.376 79.9787 298.779 80.064C298.182 80.192 297.563 80.2987 296.923 80.384H295.003C294.32 80.4693 293.595 80.5333 292.827 80.576C292.059 80.6187 291.248 80.64 290.395 80.64C289.584 80.64 288.816 80.6187 288.091 80.576C287.408 80.5333 286.747 80.4693 286.107 80.384H287.963C287.366 80.2987 286.79 80.192 286.235 80.064C285.68 79.9787 285.147 79.872 284.635 79.744H287.835L286.747 79.424H279.451C279.323 79.3387 279.174 79.2747 279.003 79.232C278.875 79.1893 278.726 79.1467 278.555 79.104H278.747C278.278 78.8907 277.808 78.6773 277.339 78.464C276.912 78.2507 276.486 78.0373 276.059 77.824H277.211C276.955 77.6533 276.699 77.504 276.443 77.376C276.23 77.2053 276.016 77.0347 275.803 76.864H275.931C275.718 76.6933 275.526 76.544 275.355 76.416C275.184 76.2453 275.014 76.0747 274.843 75.904H277.595C277.552 75.8187 277.51 75.7547 277.467 75.712C277.424 75.6693 277.382 75.6267 277.339 75.584H276.123C275.952 75.3707 275.782 75.1573 275.611 74.944C275.44 74.7307 275.27 74.5173 275.099 74.304H277.787C277.616 74.0907 277.488 73.8773 277.403 73.664C277.318 73.408 277.232 73.1947 277.147 73.024H275.931C275.846 72.8533 275.803 72.7467 275.803 72.704H273.819L273.627 72.064H272.155C272.112 71.936 272.091 71.744 272.091 71.488C272.091 71.1467 272.112 70.912 272.155 70.784H272.603C272.816 70.272 273.158 69.952 273.627 69.824H273.499C273.584 69.7813 273.734 69.76 273.947 69.76H285.339C285.382 69.76 285.424 69.7813 285.467 69.824C285.552 69.824 285.616 69.824 285.659 69.824H285.787C286.128 69.9093 286.427 70.0373 286.683 70.208C286.982 70.3787 287.28 70.5707 287.579 70.784H287.195C287.536 70.9973 287.899 71.2107 288.283 71.424C288.667 71.5947 289.115 71.68 289.627 71.68C289.968 71.68 290.288 71.616 290.587 71.488C290.886 71.3173 291.056 71.0827 291.099 70.784H291.291V70.72C291.291 70.336 291.206 70.0373 291.035 69.824C290.864 69.568 290.587 69.3547 290.203 69.184H289.435C289.008 68.9707 288.432 68.7573 287.707 68.544C287.024 68.3307 286.064 68.1173 284.827 67.904H285.403L284.379 67.712C284.038 67.6267 283.696 67.5627 283.355 67.52C283.014 67.4347 282.672 67.3493 282.331 67.264H282.587L281.499 66.944H281.627C281.072 66.7733 280.539 66.5813 280.027 66.368C279.515 66.1547 279.024 65.92 278.555 65.664H278.811L277.275 64.704H277.147C276.848 64.4907 276.571 64.2773 276.315 64.064C276.102 63.8507 275.888 63.6373 275.675 63.424H274.331C274.288 63.3387 274.246 63.2747 274.203 63.232C274.16 63.1893 274.118 63.1467 274.075 63.104H274.651C274.523 62.976 274.438 62.8693 274.395 62.784H272.603L271.899 61.824H274.651L274.267 61.184H273.371C273.158 60.7147 272.987 60.288 272.859 59.904H273.243C273.243 59.8187 273.222 59.7547 273.179 59.712C273.179 59.6693 273.179 59.6267 273.179 59.584H276.187C276.187 59.4133 276.144 59.2 276.059 58.944H270.427C270.427 58.7733 270.427 58.624 270.427 58.496C270.384 58.3253 270.342 58.1547 270.299 57.984H270.363L270.299 57.344H274.587C274.544 57.2587 274.523 57.152 274.523 57.024C274.523 56.8533 274.523 56.704 274.523 56.576C274.566 56.4053 274.587 56.2347 274.587 56.064H271.579L271.643 55.424H274.523L274.715 54.784H273.435C273.478 54.6987 273.52 54.592 273.563 54.464C273.606 54.336 273.648 54.2293 273.691 54.144H273.179C273.264 53.9733 273.35 53.824 273.435 53.696C273.52 53.5253 273.584 53.3547 273.627 53.184H273.883L274.267 52.544H274.203C274.288 52.3733 274.395 52.224 274.523 52.096C274.651 51.9253 274.779 51.7547 274.907 51.584C275.035 51.4133 275.163 51.264 275.291 51.136C275.419 50.9653 275.568 50.7947 275.739 50.624H275.611L275.931 50.304H275.867C275.91 50.2187 275.952 50.1547 275.995 50.112C276.08 50.0693 276.144 50.0267 276.187 49.984H276.315L277.083 49.344C277.168 49.2587 277.232 49.1947 277.275 49.152C277.36 49.1093 277.446 49.0667 277.531 49.024H276.315C277.04 48.5547 277.83 48.128 278.683 47.744H280.667C280.795 47.6587 280.923 47.5947 281.051 47.552C281.179 47.5093 281.328 47.4667 281.499 47.424H277.147C277.318 47.3387 277.467 47.2747 277.595 47.232C277.766 47.1893 277.936 47.1467 278.107 47.104H280.859C281.926 46.7627 283.056 46.5067 284.251 46.336C285.488 46.1653 286.79 46.08 288.155 46.08C289.563 46.08 290.886 46.1653 292.123 46.336C293.36 46.5067 294.512 46.7627 295.579 47.104H292.827C292.998 47.1467 293.147 47.1893 293.275 47.232C293.446 47.2747 293.616 47.3387 293.787 47.424H298.075L298.971 47.744H296.987C297.456 47.9147 297.904 48.128 298.331 48.384C298.758 48.5973 299.163 48.8107 299.547 49.024H300.763L301.275 49.344H301.339C301.51 49.4293 301.659 49.536 301.787 49.664C301.958 49.792 302.107 49.8987 302.235 49.984H302.171L302.555 50.304H302.619L303.003 50.624H303.131C303.515 50.9227 303.835 51.2427 304.091 51.584C304.432 51.8827 304.688 52.2027 304.859 52.544H304.923L305.307 53.184H304.987C305.072 53.3547 305.158 53.5253 305.243 53.696C305.328 53.824 305.392 53.9733 305.435 54.144H305.883L306.075 54.784H307.291L307.355 55.232V55.424H308.443C308.443 55.5947 308.4 55.808 308.315 56.064C308.016 56.6613 307.59 56.96 307.035 56.96H296.283C295.856 56.96 295.451 56.8747 295.067 56.704C294.726 56.4907 294.384 56.2773 294.043 56.064C293.744 55.8507 293.403 55.6373 293.019 55.424H291.931C291.504 55.168 291.035 55.04 290.523 55.04C290.096 55.04 289.755 55.168 289.499 55.424H286.683C286.47 55.6373 286.363 55.8507 286.363 56.064H289.371C289.371 56.2773 289.414 56.4907 289.499 56.704C289.584 56.9173 289.776 57.1307 290.075 57.344H285.851C286.064 57.4293 286.299 57.536 286.555 57.664C286.811 57.792 287.131 57.8987 287.515 57.984H287.451C287.963 58.1547 288.603 58.304 289.371 58.432C290.182 58.56 291.12 58.7093 292.187 58.88C292.272 58.88 292.336 58.9013 292.379 58.944C292.464 58.944 292.528 58.944 292.571 58.944H298.203C298.715 59.0293 299.206 59.136 299.675 59.264C300.187 59.3493 300.656 59.456 301.083 59.584H298.075C298.246 59.6267 298.395 59.6693 298.523 59.712C298.694 59.7547 298.864 59.8187 299.035 59.904H298.651C299.206 60.0747 299.696 60.2667 300.123 60.48C300.592 60.6933 301.04 60.928 301.467 61.184H302.427L303.451 61.824H300.699C300.912 61.9947 301.126 62.1653 301.339 62.336C301.552 62.464 301.744 62.6133 301.915 62.784H303.707L304.027 63.104H303.451L303.771 63.424H305.051C305.52 63.8933 305.862 64.32 306.075 64.704H306.203C306.331 64.8747 306.438 65.0453 306.523 65.216C306.608 65.344 306.694 65.4933 306.779 65.664H306.523C306.608 65.8773 306.694 66.0907 306.779 66.304C306.907 66.5173 306.992 66.7307 307.035 66.944H306.843L306.971 67.264H306.715C306.758 67.3493 306.779 67.456 306.779 67.584C306.779 67.712 306.8 67.8187 306.843 67.904H306.267C306.395 68.3307 306.459 68.7573 306.459 69.184H307.291V69.632C307.291 69.8027 307.27 69.9947 307.227 70.208C307.227 70.3787 307.227 70.5707 307.227 70.784H307.035C306.992 70.9973 306.95 71.2107 306.907 71.424C306.907 71.6373 306.864 71.8507 306.779 72.064H308.251C308.251 72.2773 308.187 72.4907 308.059 72.704H310.107C310.022 72.8747 309.979 72.9813 309.979 73.024H311.195C311.11 73.2373 311.003 73.4507 310.875 73.664C310.79 73.8773 310.683 74.0907 310.555 74.304ZM341.655 72.704H340.119V73.344H342.423V73.984H344.535V74.944H343.063V75.904H347.351V76.864H340.375V78.144H340.887V78.272C340.887 78.3573 340.866 78.4213 340.823 78.464C340.738 78.8907 340.588 79.2107 340.375 79.424H339.863C339.692 79.5947 339.564 79.7013 339.479 79.744H341.655C341.442 79.9147 341.143 80 340.759 80H333.527C332.802 80 332.076 79.9787 331.351 79.936C330.668 79.8933 330.007 79.8293 329.367 79.744H327.191C326.892 79.7013 326.594 79.6587 326.295 79.616C325.996 79.5307 325.676 79.4667 325.335 79.424H325.847C325.292 79.296 324.759 79.1467 324.247 78.976C323.778 78.8053 323.308 78.6347 322.839 78.464H322.903C322.775 78.3787 322.647 78.3147 322.519 78.272C322.391 78.2293 322.284 78.1867 322.199 78.144H321.687C321.346 77.9307 321.004 77.7387 320.663 77.568C320.322 77.3547 319.98 77.12 319.639 76.864H326.679C326.508 76.6933 326.316 76.544 326.103 76.416C325.932 76.2453 325.762 76.0747 325.591 75.904H321.303L320.471 74.944H322.007C321.879 74.7733 321.751 74.624 321.623 74.496C321.538 74.3253 321.452 74.1547 321.367 73.984H319.255L318.871 73.344H316.567C316.524 73.2587 316.482 73.152 316.439 73.024C316.396 72.896 316.332 72.7893 316.247 72.704H317.847L317.463 71.744H318.743L318.551 71.104C318.466 70.848 318.423 70.6347 318.423 70.464H323.479C323.436 70.2933 323.394 70.144 323.351 70.016C323.351 69.8453 323.351 69.6747 323.351 69.504H316.055C316.055 69.4187 316.034 69.3547 315.991 69.312C315.991 69.2693 315.991 69.2267 315.991 69.184H315.799C315.799 69.0133 315.778 68.864 315.735 68.736C315.735 68.5653 315.735 68.3947 315.735 68.224H315.543C315.543 68.0533 315.522 67.904 315.479 67.776C315.479 67.6053 315.479 67.4347 315.479 67.264H316.375V66.944H315.799V66.304H315.287V65.024H316.055V63.744H315.287V62.784H315.863V62.144H315.927V61.184H316.247V58.944H316.375V57.984H316.695V57.92H311.639C310.999 57.92 310.487 57.6213 310.103 57.024H311.063C310.935 56.768 310.871 56.4907 310.871 56.192V55.744H308.823V54.784H309.271V53.504H308.951V52.864H309.079V52.224H310.039V51.904H308.439V50.944H310.359V49.984H309.975V49.344H309.527V48.384H309.143V48.064H308.951C309.079 47.424 309.484 46.9973 310.167 46.784H310.551C310.679 46.7413 310.85 46.72 311.063 46.72H316.119V46.464H316.375V45.504H315.863V44.864H315.799V43.904H315.543V43.584H314.007V42.944H312.535V42.624H313.047V42.304H314.519V41.024H315.095V40.384H313.047V39.744H316.183V38.784H315.863V38.464H315.159V37.824H315.799V37.504H315.159V36.544H315.735V36.288C315.735 36.0747 315.778 35.84 315.863 35.584H316.695C316.994 34.9013 317.527 34.56 318.295 34.56H329.495C330.178 34.56 330.711 34.9013 331.095 35.584H330.263C330.348 35.84 330.391 36.0747 330.391 36.288V36.544H329.815V37.504H330.455V37.824H329.815V38.464H330.519V38.784H330.839V39.744H327.703V40.384H329.751V41.024H329.175V42.304H327.703V42.624H327.191V42.944H328.663V43.584H330.199V43.904H330.455V44.864H330.519V45.504H331.031V46.464H330.775V46.72H338.839C339.052 46.72 339.202 46.7413 339.287 46.784H338.903C339.5 46.9973 339.906 47.424 340.119 48.064H340.311C340.311 48.1067 340.311 48.1493 340.311 48.192C340.354 48.2347 340.375 48.2987 340.375 48.384H340.759V49.344H341.207V49.984H341.591V50.944H339.671V51.904H341.271V52.224H340.311V52.864H340.183V53.504H340.503V54.784H340.055V55.744H342.103V56.192C342.103 56.3627 342.082 56.512 342.039 56.64C341.996 56.768 341.932 56.896 341.847 57.024H340.951C340.567 57.6213 340.055 57.92 339.415 57.92H331.351V57.984H331.031V58.944H330.903V61.184H330.583V62.144H330.519V62.784H329.943V63.744H330.711V65.024H329.943C329.943 65.2373 329.943 65.4507 329.943 65.664C329.986 65.8773 330.028 66.0907 330.071 66.304H330.647C330.732 66.56 330.818 66.7733 330.903 66.944H331.415L331.607 67.264H330.711C331.18 67.8613 331.906 68.16 332.887 68.16H338.711C338.924 68.16 339.074 68.1813 339.159 68.224H339.351C339.863 68.352 340.226 68.672 340.439 69.184H340.631C340.631 69.2267 340.631 69.2693 340.631 69.312C340.674 69.3547 340.695 69.4187 340.695 69.504H347.991C347.991 69.5467 347.991 69.6107 347.991 69.696C348.034 69.7387 348.055 69.8027 348.055 69.888V70.464H342.935V71.744H341.655V72.704ZM377.894 62.464V63.104H386.022V63.744H381.094V64.384H378.79V65.024H380.774V65.408C380.774 65.664 380.752 65.856 380.71 65.984H381.606C381.307 66.752 380.752 67.136 379.942 67.136H360.87V67.264H363.43V67.456C363.43 67.6267 363.43 67.8187 363.43 68.032C363.43 68.2027 363.451 68.3733 363.494 68.544H360.038C360.038 68.672 360.038 68.8 360.038 68.928C360.08 69.0133 360.102 69.0987 360.102 69.184H359.718C359.718 69.3547 359.76 69.568 359.846 69.824H360.102C360.315 70.4213 360.656 70.848 361.126 71.104H359.398C359.696 71.2747 360.102 71.36 360.614 71.36C360.955 71.36 361.232 71.2747 361.446 71.104H364.454C364.624 71.0187 364.774 70.8907 364.902 70.72C365.072 70.5493 365.264 70.3787 365.478 70.208L365.862 69.824H364.646C365.03 69.4827 365.606 69.312 366.374 69.312H378.47C378.982 69.312 379.366 69.4827 379.622 69.824H380.774C380.987 70.1227 381.094 70.4213 381.094 70.72C381.051 70.8053 381.03 70.9333 381.03 71.104H378.022C377.936 71.5307 377.808 71.9573 377.638 72.384H374.502C374.374 72.5973 374.267 72.8107 374.182 73.024H382.118C382.032 73.2373 381.904 73.4507 381.734 73.664C381.606 73.8773 381.456 74.0907 381.286 74.304H379.366C379.195 74.56 379.024 74.7733 378.854 74.944H379.302C379.259 74.9867 379.216 75.0293 379.174 75.072C379.131 75.1147 379.088 75.1787 379.046 75.264H375.462L375.142 75.584H376.229C376.187 75.6267 376.123 75.6693 376.038 75.712C375.995 75.7547 375.952 75.8187 375.91 75.904H377.894C377.595 76.2027 377.211 76.5227 376.742 76.864H375.782C375.739 76.9067 375.675 76.9493 375.59 76.992C375.504 77.0347 375.419 77.0987 375.333 77.184H374.63C373.947 77.6533 373.2 78.08 372.39 78.464H371.558C371.046 78.72 370.491 78.9547 369.894 79.168C369.339 79.3813 368.742 79.5733 368.102 79.744H367.078C366.608 79.872 366.118 79.9787 365.606 80.064C365.094 80.192 364.539 80.2987 363.942 80.384H366.63C366.032 80.4693 365.414 80.5333 364.774 80.576C364.134 80.6187 363.451 80.64 362.726 80.64C362.043 80.64 361.36 80.6187 360.678 80.576C359.995 80.5333 359.334 80.4693 358.694 80.384H356.006C355.451 80.2987 354.918 80.192 354.406 80.064C353.894 79.9787 353.382 79.872 352.87 79.744H353.894C352.742 79.4453 351.654 79.0187 350.63 78.464H351.462C350.694 78.0373 350.032 77.6107 349.478 77.184H350.182C350.096 77.0987 350.011 77.0347 349.926 76.992C349.883 76.9493 349.819 76.9067 349.734 76.864H350.694C350.523 76.6933 350.352 76.544 350.182 76.416C350.011 76.2453 349.84 76.0747 349.67 75.904H347.622L347.302 75.584H346.214C346.171 75.4987 346.128 75.4347 346.086 75.392C346.043 75.3493 346 75.3067 345.958 75.264H349.478C349.435 75.1787 349.35 75.072 349.222 74.944H348.774C348.688 74.8587 348.603 74.752 348.518 74.624C348.432 74.496 348.347 74.3893 348.262 74.304H350.182C350.054 74.0907 349.926 73.8773 349.798 73.664C349.67 73.4507 349.542 73.2373 349.414 73.024H341.413C341.285 72.8107 341.179 72.5973 341.093 72.384H344.23L343.654 71.104H345.382C345.296 70.8907 345.211 70.6773 345.126 70.464C345.083 70.2507 345.019 70.0373 344.934 69.824H344.742L344.549 69.184H344.998L344.806 68.544H348.262C348.219 68.3307 348.176 68.1173 348.134 67.904C348.091 67.6907 348.048 67.4773 348.006 67.264H345.446L345.318 65.984H344.422C344.422 65.8133 344.4 65.664 344.358 65.536C344.358 65.3653 344.358 65.1947 344.358 65.024H342.373V64.384H344.614V63.744H349.542V63.104H341.413V62.976C341.413 62.7627 341.435 62.592 341.477 62.464H352.55C352.55 62.2933 352.55 62.144 352.55 62.016C352.592 61.8453 352.614 61.6747 352.614 61.504H342.438C342.438 61.4187 342.438 61.3547 342.438 61.312C342.48 61.2693 342.502 61.2267 342.502 61.184H346.726C346.726 61.056 346.747 60.9493 346.79 60.864H351.526V60.544H342.502C342.544 60.3307 342.587 60.1173 342.63 59.904C342.672 59.6907 342.715 59.4773 342.758 59.264H345.19C345.19 59.0933 345.232 58.88 345.318 58.624H343.206C343.206 58.5387 343.206 58.4747 343.206 58.432C343.248 58.3893 343.27 58.3467 343.27 58.304H344.806C344.806 58.2187 344.806 58.1547 344.806 58.112C344.848 58.0693 344.87 58.0267 344.87 57.984H343.27L343.398 57.664H344.934L345.126 57.024H346.342L346.726 56.064H345.574C345.659 55.8507 345.744 55.6373 345.83 55.424C345.915 55.168 346.022 54.9547 346.15 54.784H345.958L346.086 54.464H344.486C344.571 54.2933 344.614 54.1867 344.614 54.144H343.142L343.526 53.504H346.661C346.704 53.4187 346.79 53.312 346.918 53.184H348.07C348.24 52.9707 348.39 52.7573 348.518 52.544C348.688 52.288 348.859 52.0747 349.03 51.904H347.878C348.006 51.7333 348.134 51.584 348.262 51.456C348.432 51.2853 348.603 51.1147 348.774 50.944H351.27L351.91 50.304H348.134C348.688 49.8347 349.243 49.408 349.798 49.024H353.318L353.83 48.704H352.678C353.019 48.4907 353.424 48.2773 353.894 48.064H356.39C357.542 47.5093 358.736 47.0827 359.974 46.784H356.39C357.328 46.5707 358.31 46.4 359.333 46.272C360.358 46.144 361.424 46.08 362.534 46.08C363.643 46.08 364.688 46.144 365.67 46.272C366.651 46.4 367.59 46.5707 368.486 46.784H372.006C372.646 46.9547 373.243 47.1467 373.798 47.36C374.395 47.5733 374.971 47.808 375.526 48.064H373.03C373.243 48.1493 373.435 48.256 373.606 48.384C373.819 48.4693 374.011 48.576 374.182 48.704H375.333C375.419 48.7467 375.504 48.7893 375.59 48.832C375.675 48.8747 375.76 48.9387 375.846 49.024H372.326C372.88 49.408 373.435 49.8347 373.99 50.304H377.83L378.47 50.944H375.974C376.144 51.1147 376.294 51.2853 376.422 51.456C376.592 51.584 376.742 51.7333 376.87 51.904H378.022C378.192 52.0747 378.342 52.288 378.47 52.544C378.64 52.7573 378.811 52.9707 378.982 53.184H377.766C377.808 53.2693 377.894 53.376 378.022 53.504H374.822L375.206 54.144H376.678L376.87 54.464H378.534C378.534 54.5067 378.576 54.6133 378.662 54.784H378.854L379.43 56.064L379.814 57.024H379.878L380.069 57.664H379.302L379.43 57.984H380.006L380.134 58.304H381.158C381.158 58.3467 381.158 58.3893 381.158 58.432C381.2 58.4747 381.222 58.5387 381.222 58.624H380.71L380.902 59.264H378.47L378.662 60.544H387.686V60.864H382.95C382.95 60.9067 382.95 60.9493 382.95 60.992C382.992 61.0347 383.014 61.0987 383.014 61.184H378.726C378.768 61.2693 378.79 61.376 378.79 61.504H388.966C388.966 61.6747 388.966 61.8453 388.966 62.016C388.966 62.144 388.987 62.2933 389.03 62.464H377.894ZM358.438 58.304V58.624H360.486V59.136H365.606V58.624H366.054V58.304H365.03V57.984H364.39C364.39 57.856 364.368 57.7493 364.326 57.664H365.094C365.094 57.4933 365.051 57.28 364.966 57.024H364.902C364.859 56.64 364.731 56.32 364.518 56.064C364.091 55.3813 363.43 55.04 362.534 55.04C361.68 55.04 361.04 55.3813 360.614 56.064H361.766C361.595 56.32 361.467 56.64 361.382 57.024H360.102C360.102 57.1093 360.08 57.216 360.038 57.344C360.038 57.4293 360.016 57.536 359.974 57.664H358.438C358.438 57.792 358.416 57.8987 358.374 57.984H359.974V58.304H358.438ZM413.929 51.584H416.361V52.864H416.233V54.144H413.993V55.104H414.569V56.384H414.057V57.664H412.905V57.984H408.873V58.432C408.873 58.5173 408.851 58.6027 408.809 58.688C408.809 58.7733 408.787 58.8587 408.745 58.944H410.217C410.003 59.7547 409.449 60.16 408.553 60.16H400.297C400.126 60.16 399.955 60.16 399.785 60.16C399.657 60.16 399.529 60.1813 399.401 60.224H401.961C401.747 60.2667 401.555 60.3093 401.385 60.352C401.214 60.3947 401.022 60.4587 400.809 60.544H402.921C402.793 60.5867 402.601 60.6933 402.345 60.864H403.561L403.177 61.184H403.497C403.241 61.44 403.049 61.76 402.921 62.144H401.001C400.915 62.3147 400.873 62.4213 400.873 62.464H400.233C400.233 62.5067 400.211 62.5493 400.169 62.592C400.169 62.6347 400.169 62.6987 400.169 62.784H400.937C400.894 62.8693 400.873 62.976 400.873 63.104C400.873 63.1893 400.851 63.296 400.809 63.424H401.193V64.384H400.297V65.024H401.193V65.984H402.153V67.264H400.745V67.584H399.721V67.904H403.561V68.864H401.641V69.504H402.281V70.144H400.809V71.424H399.977V71.744H399.145V72.704H401.321V73.664H400.169V74.624H401.321V74.944H401.193V75.584H399.785V76.224H400.809V77.504H401.065V78.464H400.809C400.723 79.0613 400.446 79.488 399.977 79.744H399.401C399.187 79.9147 398.889 80 398.505 80H386.345C385.961 80 385.662 79.9147 385.449 79.744H386.025C385.555 79.488 385.278 79.0613 385.193 78.464H385.449V77.504H385.193V76.224H384.169V75.584H385.577V74.944H385.705V74.624H384.553V73.664H385.705V72.704H383.529V71.744H384.361V71.424H385.193V70.144H386.665V69.504H386.025V68.864H387.945V67.904H384.105V67.584H385.129V67.264H386.536V65.984H385.577V65.024H384.681V64.384H385.577V63.424H385.193V62.784H384.424V62.464H385.065V62.144H386.985V61.184H386.665V60.864H385.513V60.544H383.401V60.224H380.84V58.944H379.432V57.984H383.465V57.664H384.617V56.384H385.129V55.104H384.553V54.144H386.793V52.864H386.921V51.584H384.489V50.624H386.536V49.344H384.553V49.024H385.193V48.448C385.193 48.2347 385.235 48 385.321 47.744H385.257C385.555 47.0613 386.089 46.72 386.857 46.72H398.057C398.782 46.72 399.294 47.0613 399.593 47.744H399.721C399.806 48 399.849 48.2347 399.849 48.448V49.024H399.208V49.344H401.193V49.536L401.449 49.344H401.577C401.662 49.2587 401.747 49.1947 401.833 49.152C401.918 49.1093 401.982 49.0667 402.025 49.024H402.153C403.006 48.4693 403.838 48.0427 404.649 47.744H404.777C405.63 47.4027 406.483 47.1467 407.337 46.976C408.19 46.8053 409.086 46.72 410.025 46.72H413.097C413.865 46.72 414.398 47.0613 414.697 47.744H414.569C414.654 48 414.697 48.2347 414.697 48.448V49.024H414.632V49.344H414.505V50.624H413.929V51.584ZM461.07 79.424H458.958V80.704H459.534V81.344H459.662V82.624H460.11V82.944H460.494V83.584H461.454V84.544C461.454 84.672 461.432 84.7787 461.39 84.864C461.304 85.504 460.963 85.9307 460.366 86.144H459.79C459.534 86.2293 459.32 86.272 459.15 86.272H420.43C420.259 86.272 420.046 86.2293 419.79 86.144H420.366C419.768 85.9307 419.406 85.504 419.278 84.864V83.584H418.318V82.944H417.934V82.624H417.486V81.344H417.358V80.704H416.782V79.424H418.894V79.104H419.406V78.464H416.718V78.144H417.806V77.184H417.549V75.904H417.614V75.456C417.614 75.2427 417.635 75.072 417.678 74.944H417.294C417.592 74.1333 418.147 73.728 418.958 73.728H457.678C458.574 73.728 459.128 74.1333 459.342 74.944H459.662C459.704 75.0293 459.726 75.1147 459.726 75.2C459.768 75.2853 459.79 75.3707 459.79 75.456V75.904H459.726V77.184H459.982V78.144H458.894V78.464H461.582V79.104H461.07V79.424Z" fill="#D379F1"/>
</g>
<path d="M167.287 54.464H164.151C164.108 54.6347 164.066 54.8053 164.023 54.976C163.98 55.104 163.916 55.2533 163.831 55.424H165.623L165.431 56.064H163.895C163.767 56.448 163.596 56.8747 163.383 57.344H162.423C162.252 57.7707 162.018 58.1973 161.719 58.624H161.847C161.676 58.8373 161.527 59.0507 161.399 59.264C161.271 59.4773 161.122 59.6907 160.951 59.904H167.863L167.031 60.864H161.335C161.164 61.0773 160.951 61.2907 160.695 61.504C160.439 61.7173 160.204 61.9307 159.991 62.144H160.823C160.652 62.3147 160.439 62.4853 160.183 62.656C159.97 62.784 159.756 62.9333 159.543 63.104H161.655L161.399 63.296L161.975 64.384H160.439L161.143 65.664H161.335L161.527 65.984H161.463L162.103 67.264H162.743L163.127 67.904H158.199L158.711 68.864H163.191L163.575 69.504H162.167L162.679 70.464H169.015L169.719 71.744H165.495L166.007 72.704H164.023L165.047 74.624H165.495L165.879 75.264H165.687L165.879 75.584H162.871L163.575 76.864L163.703 77.184H161.719L162.039 77.888C162.167 78.0587 162.231 78.2507 162.231 78.464H163.575V78.592C163.575 79.0613 163.383 79.4453 162.999 79.744H164.727C164.514 79.9147 164.236 80 163.895 80H150.775C150.519 80 150.284 79.9787 150.071 79.936C149.9 79.8507 149.708 79.7867 149.495 79.744H147.767C147.426 79.5733 147.127 79.36 146.871 79.104C146.658 78.848 146.487 78.6347 146.359 78.464H145.079L144.951 78.272L144.503 77.184H146.551L146.359 76.864H140.279V77.184H137.015V78.464H142.199C142.114 79.0613 141.836 79.488 141.367 79.744H140.919C140.62 79.9147 140.3 80 139.959 80H127.415C127.031 80 126.732 79.9147 126.519 79.744H127.031C126.562 79.488 126.284 79.0613 126.199 78.464H121.079C121.079 78.4213 121.079 78.4 121.079 78.4C121.036 78.3573 121.015 78.3147 121.015 78.272V77.184H124.279V76.864H130.679V75.584H123.831V75.264H127.863V74.624H126.519V73.664H128.759V72.704H125.111V71.744H130.039V70.464H127.223V69.504H127.159V69.184H126.775V68.864H125.047V67.904H127.223V67.264H126.647V65.984H126.711V65.664H126.519V64.384H128.055V63.104H125.879V62.144H125.047V60.864H130.679V59.904H123.767V58.624H123.639V57.344H124.599V56.064H126.071V55.424H124.279V54.464H127.415V53.824H132.023V53.184H125.687V52.864H126.007V52.544H126.583V52.224H126.647V51.584H126.519V50.624H126.775V49.344H126.455V48.704H126.775V47.744H126.519V47.424H126.711V46.784H126.647V46.464H126.391V46.144H126.967V45.184H127.479V44.224H124.471V42.944H125.175V41.664H124.791V40.704H126.519V39.744H127.159V38.784H126.007V38.144H126.455V37.824H126.583V36.864H126.711C126.711 36.3947 126.903 35.968 127.287 35.584H130.743C130.999 35.328 131.362 35.2 131.831 35.2H150.775C152.61 35.2 154.316 35.328 155.895 35.584H152.503C154.21 35.84 155.831 36.2667 157.367 36.864H157.239C157.964 37.12 158.668 37.44 159.351 37.824H159.223L159.799 38.144H159.287C159.5 38.2293 159.671 38.336 159.799 38.464C159.97 38.592 160.14 38.6987 160.311 38.784H161.463C161.676 38.9547 161.89 39.1253 162.103 39.296C162.316 39.424 162.508 39.5733 162.679 39.744H162.039C162.252 39.9147 162.423 40.0853 162.551 40.256C162.722 40.384 162.892 40.5333 163.063 40.704H161.335C161.506 40.8747 161.655 41.0453 161.783 41.216C161.911 41.344 162.039 41.4933 162.167 41.664H162.487C162.828 42.0907 163.127 42.5173 163.383 42.944H162.743C162.871 43.1147 162.978 43.328 163.063 43.584C163.191 43.7973 163.319 44.0107 163.447 44.224H166.455L166.839 45.184H166.327C166.37 45.3547 166.412 45.5253 166.455 45.696C166.54 45.824 166.604 45.9733 166.647 46.144H166.007L166.135 46.464H166.391C166.434 46.5493 166.455 46.656 166.455 46.784L166.647 47.424H166.839C166.839 47.552 166.86 47.6587 166.903 47.744H166.967C167.01 47.9147 167.031 48.0853 167.031 48.256C167.074 48.384 167.095 48.5333 167.095 48.704H166.263C166.263 48.7893 166.263 48.896 166.263 49.024C166.263 49.152 166.284 49.2587 166.327 49.344H166.711C166.711 49.5573 166.711 49.7707 166.711 49.984C166.754 50.1973 166.775 50.4107 166.775 50.624V51.264H167.159V51.584H166.775V52.224H166.135C166.135 52.2667 166.114 52.3093 166.071 52.352C166.071 52.3947 166.071 52.4587 166.071 52.544H166.711C166.711 52.5867 166.69 52.6293 166.647 52.672C166.647 52.7147 166.647 52.7787 166.647 52.864H169.655C169.612 52.9493 169.591 53.056 169.591 53.184H170.423L170.359 53.824H167.415C167.33 54.08 167.287 54.2933 167.287 54.464ZM141.687 53.184H148.023V53.824H143.415V53.888H148.087C148.386 53.888 148.62 53.8667 148.791 53.824H151.735C152.204 53.696 152.631 53.4827 153.015 53.184H152.119L152.439 52.864H149.431C149.559 52.736 149.644 52.6293 149.687 52.544H149.047L149.239 52.224H149.879L150.071 51.584H150.391C150.434 51.4987 150.455 51.392 150.455 51.264H150.071L150.135 50.624C150.135 50.1973 150.071 49.7707 149.943 49.344H149.559C149.516 49.2587 149.474 49.152 149.431 49.024C149.431 48.896 149.388 48.7893 149.303 48.704H150.199C150.028 48.3627 149.794 48.0427 149.495 47.744H149.367C149.239 47.616 149.09 47.5093 148.919 47.424H148.727C148.3 47.2107 147.852 47.104 147.383 47.104H142.711V47.424H142.519V47.744H142.775V48.704H142.455V49.344H142.775V50.624H142.519V51.584H142.647V52.224H142.583V52.544H142.007V52.864H141.687V53.184ZM146.743 67.904L146.487 67.264H145.783L145.271 66.048H142.647V67.264H143.223V67.904H146.743ZM141.047 67.904V68.864H142.263L141.879 67.904H141.047ZM146.871 69.184L146.743 68.864H142.775V69.184H143.159V69.504H143.223V70.464H146.039V71.744H141.111V72.704H144.759V73.664H142.519V74.624H143.863V75.264H139.831V75.584H148.855L148.663 75.264H148.855L148.535 74.624H148.023L147.639 73.664L147.191 72.704H149.239L148.791 71.744H152.951L152.375 70.464H146.039L145.655 69.504H147.063L146.871 69.184ZM204.205 62.464V63.104H212.333V63.744H207.405V64.384H205.101V65.024H207.085V65.408C207.085 65.664 207.064 65.856 207.021 65.984H207.917C207.618 66.752 207.064 67.136 206.253 67.136H187.181V67.264H189.741V67.456C189.741 67.6267 189.741 67.8187 189.741 68.032C189.741 68.2027 189.762 68.3733 189.805 68.544H186.349C186.349 68.672 186.349 68.8 186.349 68.928C186.392 69.0133 186.413 69.0987 186.413 69.184H186.029C186.029 69.3547 186.072 69.568 186.157 69.824H186.413C186.626 70.4213 186.968 70.848 187.437 71.104H185.709C186.008 71.2747 186.413 71.36 186.925 71.36C187.266 71.36 187.544 71.2747 187.757 71.104H190.765C190.936 71.0187 191.085 70.8907 191.213 70.72C191.384 70.5493 191.576 70.3787 191.789 70.208L192.173 69.824H190.957C191.341 69.4827 191.917 69.312 192.685 69.312H204.781C205.293 69.312 205.677 69.4827 205.933 69.824H207.085C207.298 70.1227 207.405 70.4213 207.405 70.72C207.362 70.8053 207.341 70.9333 207.341 71.104H204.333C204.248 71.5307 204.12 71.9573 203.949 72.384H200.813C200.685 72.5973 200.578 72.8107 200.493 73.024H208.429C208.344 73.2373 208.216 73.4507 208.045 73.664C207.917 73.8773 207.768 74.0907 207.597 74.304H205.677C205.506 74.56 205.336 74.7733 205.165 74.944H205.613C205.57 74.9867 205.528 75.0293 205.485 75.072C205.442 75.1147 205.4 75.1787 205.357 75.264H201.773L201.453 75.584H202.541C202.498 75.6267 202.434 75.6693 202.349 75.712C202.306 75.7547 202.264 75.8187 202.221 75.904H204.205C203.906 76.2027 203.522 76.5227 203.053 76.864H202.093C202.05 76.9067 201.986 76.9493 201.901 76.992C201.816 77.0347 201.73 77.0987 201.645 77.184H200.941C200.258 77.6533 199.512 78.08 198.701 78.464H197.869C197.357 78.72 196.802 78.9547 196.205 79.168C195.65 79.3813 195.053 79.5733 194.413 79.744H193.389C192.92 79.872 192.429 79.9787 191.917 80.064C191.405 80.192 190.85 80.2987 190.253 80.384H192.941C192.344 80.4693 191.725 80.5333 191.085 80.576C190.445 80.6187 189.762 80.64 189.037 80.64C188.354 80.64 187.672 80.6187 186.989 80.576C186.306 80.5333 185.645 80.4693 185.005 80.384H182.317C181.762 80.2987 181.229 80.192 180.717 80.064C180.205 79.9787 179.693 79.872 179.181 79.744H180.205C179.053 79.4453 177.965 79.0187 176.941 78.464H177.773C177.005 78.0373 176.344 77.6107 175.789 77.184H176.493C176.408 77.0987 176.322 77.0347 176.237 76.992C176.194 76.9493 176.13 76.9067 176.045 76.864H177.005C176.834 76.6933 176.664 76.544 176.493 76.416C176.322 76.2453 176.152 76.0747 175.981 75.904H173.933L173.613 75.584H172.525C172.482 75.4987 172.44 75.4347 172.397 75.392C172.354 75.3493 172.312 75.3067 172.269 75.264H175.789C175.746 75.1787 175.661 75.072 175.533 74.944H175.085C175 74.8587 174.914 74.752 174.829 74.624C174.744 74.496 174.658 74.3893 174.573 74.304H176.493C176.365 74.0907 176.237 73.8773 176.109 73.664C175.981 73.4507 175.853 73.2373 175.725 73.024H167.725C167.597 72.8107 167.49 72.5973 167.405 72.384H170.541L169.965 71.104H171.693C171.608 70.8907 171.522 70.6773 171.437 70.464C171.394 70.2507 171.33 70.0373 171.245 69.824H171.053L170.861 69.184H171.309L171.117 68.544H174.573C174.53 68.3307 174.488 68.1173 174.445 67.904C174.402 67.6907 174.36 67.4773 174.317 67.264H171.757L171.629 65.984H170.733C170.733 65.8133 170.712 65.664 170.669 65.536C170.669 65.3653 170.669 65.1947 170.669 65.024H168.685V64.384H170.925V63.744H175.853V63.104H167.725V62.976C167.725 62.7627 167.746 62.592 167.789 62.464H178.861C178.861 62.2933 178.861 62.144 178.861 62.016C178.904 61.8453 178.925 61.6747 178.925 61.504H168.749C168.749 61.4187 168.749 61.3547 168.749 61.312C168.792 61.2693 168.813 61.2267 168.813 61.184H173.037C173.037 61.056 173.058 60.9493 173.101 60.864H177.837V60.544H168.813C168.856 60.3307 168.898 60.1173 168.941 59.904C168.984 59.6907 169.026 59.4773 169.069 59.264H171.501C171.501 59.0933 171.544 58.88 171.629 58.624H169.517C169.517 58.5387 169.517 58.4747 169.517 58.432C169.56 58.3893 169.581 58.3467 169.581 58.304H171.117C171.117 58.2187 171.117 58.1547 171.117 58.112C171.16 58.0693 171.181 58.0267 171.181 57.984H169.581L169.709 57.664H171.245L171.437 57.024H172.653L173.037 56.064H171.885C171.97 55.8507 172.056 55.6373 172.141 55.424C172.226 55.168 172.333 54.9547 172.461 54.784H172.269L172.397 54.464H170.797C170.882 54.2933 170.925 54.1867 170.925 54.144H169.453L169.837 53.504H172.973C173.016 53.4187 173.101 53.312 173.229 53.184H174.381C174.552 52.9707 174.701 52.7573 174.829 52.544C175 52.288 175.17 52.0747 175.341 51.904H174.189C174.317 51.7333 174.445 51.584 174.573 51.456C174.744 51.2853 174.914 51.1147 175.085 50.944H177.581L178.221 50.304H174.445C175 49.8347 175.554 49.408 176.109 49.024H179.629L180.141 48.704H178.989C179.33 48.4907 179.736 48.2773 180.205 48.064H182.701C183.853 47.5093 185.048 47.0827 186.285 46.784H182.701C183.64 46.5707 184.621 46.4 185.645 46.272C186.669 46.144 187.736 46.08 188.845 46.08C189.954 46.08 191 46.144 191.981 46.272C192.962 46.4 193.901 46.5707 194.797 46.784H198.317C198.957 46.9547 199.554 47.1467 200.109 47.36C200.706 47.5733 201.282 47.808 201.837 48.064H199.341C199.554 48.1493 199.746 48.256 199.917 48.384C200.13 48.4693 200.322 48.576 200.493 48.704H201.645C201.73 48.7467 201.816 48.7893 201.901 48.832C201.986 48.8747 202.072 48.9387 202.157 49.024H198.637C199.192 49.408 199.746 49.8347 200.301 50.304H204.141L204.781 50.944H202.285C202.456 51.1147 202.605 51.2853 202.733 51.456C202.904 51.584 203.053 51.7333 203.181 51.904H204.333C204.504 52.0747 204.653 52.288 204.781 52.544C204.952 52.7573 205.122 52.9707 205.293 53.184H204.077C204.12 53.2693 204.205 53.376 204.333 53.504H201.133L201.517 54.144H202.989L203.181 54.464H204.845C204.845 54.5067 204.888 54.6133 204.973 54.784H205.165L205.741 56.064L206.125 57.024H206.189L206.381 57.664H205.613L205.741 57.984H206.317L206.445 58.304H207.469C207.469 58.3467 207.469 58.3893 207.469 58.432C207.512 58.4747 207.533 58.5387 207.533 58.624H207.021L207.213 59.264H204.781L204.973 60.544H213.997V60.864H209.261C209.261 60.9067 209.261 60.9493 209.261 60.992C209.304 61.0347 209.325 61.0987 209.325 61.184H205.037C205.08 61.2693 205.101 61.376 205.101 61.504H215.277C215.277 61.6747 215.277 61.8453 215.277 62.016C215.277 62.144 215.298 62.2933 215.341 62.464H204.205ZM184.749 58.304V58.624H186.797V59.136H191.917V58.624H192.365V58.304H191.341V57.984H190.701C190.701 57.856 190.68 57.7493 190.637 57.664H191.405C191.405 57.4933 191.362 57.28 191.277 57.024H191.213C191.17 56.64 191.042 56.32 190.829 56.064C190.402 55.3813 189.741 55.04 188.845 55.04C187.992 55.04 187.352 55.3813 186.925 56.064H188.077C187.906 56.32 187.778 56.64 187.693 57.024H186.413C186.413 57.1093 186.392 57.216 186.349 57.344C186.349 57.4293 186.328 57.536 186.285 57.664H184.749C184.749 57.792 184.728 57.8987 184.685 57.984H186.285V58.304H184.749ZM248.816 78.784H250.864V79.744H249.264V80.064H249.712C249.669 80.2347 249.648 80.384 249.648 80.512C249.648 80.6827 249.627 80.8533 249.584 81.024H249.52V81.344H246.512C246.469 81.4293 246.448 81.536 246.448 81.664C246.448 81.792 246.427 81.8987 246.384 81.984H250.096C250.053 82.1973 250.011 82.4107 249.968 82.624C249.925 82.8373 249.883 83.0507 249.84 83.264H248.816C248.773 83.4347 248.731 83.584 248.688 83.712C248.645 83.8827 248.581 84.0533 248.496 84.224H246.384L246.128 84.864H247.216L246.96 85.504H247.088C247.003 85.7173 246.896 85.9307 246.768 86.144H246.832L246.256 87.104C246.213 87.1467 246.171 87.1893 246.128 87.232C246.128 87.2747 246.107 87.3387 246.064 87.424C245.979 87.5947 245.872 87.744 245.744 87.872C245.616 88.0427 245.488 88.2133 245.36 88.384H245.232L244.912 88.704H246.128L245.552 89.344H244.08C243.952 89.4293 243.824 89.536 243.696 89.664C243.568 89.792 243.461 89.8987 243.376 89.984H245.104C244.933 90.1547 244.72 90.304 244.464 90.432C244.251 90.6027 244.037 90.7733 243.824 90.944H246.128C245.872 91.1147 245.595 91.264 245.296 91.392C245.04 91.5627 244.763 91.7333 244.464 91.904H243.824C243.611 92.032 243.376 92.1387 243.12 92.224C242.864 92.352 242.629 92.4587 242.416 92.544H238.768C237.957 92.8427 237.125 93.0987 236.272 93.312C235.419 93.5253 234.544 93.696 233.648 93.824H237.424C236.784 93.9093 236.123 93.9733 235.44 94.016C234.757 94.0587 234.075 94.08 233.392 94.08C232.667 94.08 231.941 94.0587 231.216 94.016C230.533 93.9733 229.872 93.9093 229.232 93.824H225.456C223.536 93.568 221.765 93.1413 220.144 92.544H223.792C223.536 92.4587 223.28 92.352 223.024 92.224C222.768 92.1387 222.512 92.032 222.256 91.904H222.896C222.597 91.7333 222.299 91.5627 222 91.392C221.701 91.264 221.403 91.1147 221.104 90.944H218.864C218.608 90.7733 218.352 90.6027 218.096 90.432C217.883 90.304 217.669 90.1547 217.456 89.984H215.728C215.387 89.728 215.131 89.5147 214.96 89.344H216.432C216.304 89.2587 216.176 89.152 216.048 89.024C215.92 88.896 215.813 88.7893 215.728 88.704H214.512C214.469 88.6187 214.427 88.5547 214.384 88.512C214.341 88.4693 214.277 88.4267 214.192 88.384H214.384C214.213 88.2133 214.064 88.0427 213.936 87.872C213.808 87.744 213.68 87.5947 213.552 87.424H213.488C213.445 87.3387 213.36 87.232 213.232 87.104H213.296C213.168 86.9333 213.04 86.7627 212.912 86.592C212.784 86.464 212.677 86.3147 212.592 86.144L212.208 85.504H212.08C212.037 85.4187 211.995 85.312 211.952 85.184C211.909 85.056 211.845 84.9493 211.76 84.864H210.672L210.416 84.224H212.592C212.549 84.0533 212.485 83.8827 212.4 83.712C212.357 83.584 212.315 83.4347 212.272 83.264H211.888C211.888 83.136 211.867 83.008 211.824 82.88C211.824 82.7947 211.824 82.7093 211.824 82.624C211.824 82.3253 211.845 82.112 211.888 81.984H211.696C211.824 81.728 211.973 81.5147 212.144 81.344H211.76C212.016 81.1733 212.208 81.0667 212.336 81.024H213.168C213.424 80.9387 213.659 80.896 213.872 80.896H226.352C226.565 80.896 226.8 80.9387 227.056 81.024H226.16C226.373 81.0667 226.544 81.1733 226.672 81.344H227.056C227.227 81.5147 227.376 81.728 227.504 81.984H227.696L227.824 82.176C228.123 82.688 228.4 83.0507 228.656 83.264H228.976C229.445 83.6053 230.085 83.776 230.896 83.776C231.536 83.776 232.091 83.6053 232.56 83.264H233.584C233.968 82.9653 234.245 82.5387 234.416 81.984H230.704C230.789 81.728 230.832 81.5147 230.832 81.344H233.84C233.883 81.2587 233.904 81.152 233.904 81.024H233.968C234.011 80.8533 234.032 80.6827 234.032 80.512C234.032 80.384 234.032 80.2347 234.032 80.064H233.648V79.744H235.184V78.784H233.136V78.464H231.92V78.144H233.072V76.864H231.856V76.48L231.216 76.864H231.152C230.128 77.4613 229.019 77.888 227.824 78.144H228.08C227.739 78.1867 227.397 78.2507 227.056 78.336C226.715 78.3787 226.352 78.4213 225.968 78.464H224.368C224.112 78.5067 223.856 78.528 223.6 78.528C223.344 78.528 223.088 78.528 222.832 78.528C222.533 78.528 222.235 78.528 221.936 78.528C221.637 78.528 221.36 78.5067 221.104 78.464H222.64C222.256 78.4213 221.872 78.3787 221.488 78.336C221.104 78.2507 220.72 78.1867 220.336 78.144H220.144C219.504 78.016 218.885 77.8453 218.288 77.632C217.733 77.4187 217.179 77.1627 216.624 76.864H216.688C216.517 76.7787 216.347 76.6933 216.176 76.608C216.005 76.48 215.835 76.352 215.664 76.224H217.136C216.88 76.0107 216.624 75.7973 216.368 75.584C216.155 75.3707 215.941 75.1573 215.728 74.944H210.544L210.224 74.624H213.168C212.827 74.1973 212.528 73.7707 212.272 73.344H213.104C212.805 72.9173 212.571 72.4907 212.4 72.064H212.272C212.059 71.5947 211.888 71.168 211.76 70.784H207.088C207.088 70.6987 207.088 70.6347 207.088 70.592C207.045 70.5493 207.024 70.5067 207.024 70.464H211.376L211.184 69.824H211.504C211.461 69.6107 211.397 69.3973 211.312 69.184C211.269 68.9707 211.227 68.7573 211.184 68.544H211.952L211.76 67.264H210.928L210.864 66.624H209.328C209.285 66.4107 209.264 66.1973 209.264 65.984C209.264 65.7707 209.243 65.5573 209.2 65.344H208.624C208.624 65.1733 208.624 65.024 208.624 64.896C208.581 64.7253 208.56 64.5547 208.56 64.384H209.456V63.744H210.608C210.608 63.5733 210.587 63.424 210.544 63.296C210.544 63.1253 210.544 62.9547 210.544 62.784H211.12V61.824H210.096C210.096 61.6533 210.096 61.504 210.096 61.376C210.096 61.2053 210.117 61.0347 210.16 60.864H210.288V60.8C210.288 60.6293 210.288 60.48 210.288 60.352C210.331 60.224 210.352 60.0747 210.352 59.904H210.608C210.651 59.7333 210.672 59.584 210.672 59.456C210.672 59.2853 210.693 59.1147 210.736 58.944C210.779 58.8587 210.8 58.752 210.8 58.624C210.8 58.496 210.821 58.3893 210.864 58.304H210.544V57.984H210.928C210.971 57.7707 211.013 57.5573 211.056 57.344C211.099 57.088 211.141 56.8747 211.184 56.704H211.12C211.163 56.5333 211.205 56.384 211.248 56.256C211.291 56.0853 211.333 55.9147 211.376 55.744H211.888C211.973 55.5307 212.037 55.3173 212.08 55.104C212.165 54.848 212.251 54.6347 212.336 54.464H212.656L212.784 54.144H211.888C211.931 54.0587 211.973 53.952 212.016 53.824C212.059 53.696 212.101 53.5893 212.144 53.504L212.528 52.544C212.571 52.4587 212.592 52.3947 212.592 52.352C212.635 52.3093 212.677 52.2667 212.72 52.224L212.912 51.904C212.997 51.8187 213.061 51.712 213.104 51.584C213.189 51.456 213.275 51.3493 213.36 51.264C213.403 51.1787 213.445 51.1147 213.488 51.072C213.531 51.0293 213.573 50.9867 213.616 50.944H213.488L214.256 49.984C214.384 49.8987 214.491 49.792 214.576 49.664C214.704 49.536 214.811 49.4293 214.896 49.344H215.024C215.067 49.2587 215.109 49.1947 215.152 49.152C215.237 49.1093 215.301 49.0667 215.344 49.024H216.048C216.304 48.768 216.581 48.5547 216.88 48.384H215.28C215.451 48.256 215.621 48.1493 215.792 48.064C215.963 47.936 216.133 47.8293 216.304 47.744H216.752C217.349 47.4027 218.075 47.0827 218.928 46.784H221.04C222.576 46.3147 224.219 46.08 225.968 46.08C227.504 46.08 228.933 46.3147 230.256 46.784H228.144C228.827 46.9973 229.509 47.3173 230.192 47.744H229.808C229.979 47.8293 230.128 47.936 230.256 48.064C230.427 48.1493 230.597 48.256 230.768 48.384H232.304C232.475 48.4693 232.624 48.576 232.752 48.704C232.88 48.832 233.008 48.9387 233.136 49.024H232.432L232.752 49.344H232.688L233.264 49.984C233.349 50.0267 233.413 50.0907 233.456 50.176C233.541 50.2613 233.605 50.3467 233.648 50.432V49.984H233.904V49.344H234.992V49.024H235.696V48.384H232.56C232.56 48.128 232.624 47.9147 232.752 47.744H233.84C234.053 47.232 234.416 46.912 234.928 46.784H233.648C233.776 46.7413 233.947 46.72 234.16 46.72H245.36C245.573 46.72 245.723 46.7413 245.808 46.784H247.088C247.6 46.912 247.963 47.232 248.176 47.744H247.088C247.173 48 247.216 48.2133 247.216 48.384H250.352V49.024H249.648V49.344H248.56V49.984H248.304V50.944H248.368V51.904H248.304V53.504H248.368V54.144H249.264V54.464H248.88V55.744H248.304L248.368 56.704V58.304H248.176V58.944H247.984V59.904H248.368V60.864H249.136V61.824H247.792V62.784H248.24V63.744H248.368V64.384H246.256L246.32 65.344H246.576V66.624H247.984V67.264H249.136V68.544H248.304V69.824H248.048V70.464H243.632V70.784H248.304V72.064H248.432V73.344H247.536L247.6 74.624H244.656V74.944H249.84V76.224H247.536V76.864H248.752V78.144H247.6V78.464H248.816V78.784ZM227.248 66.624C227.547 66.9227 227.931 67.136 228.4 67.264H229.168C229.339 67.3067 229.509 67.3493 229.68 67.392C229.893 67.392 230.085 67.392 230.256 67.392C230.469 67.392 230.661 67.392 230.832 67.392C231.045 67.3493 231.237 67.3067 231.408 67.264H230.256C230.725 67.136 231.109 66.9227 231.408 66.624H230C230.341 66.2827 230.576 65.856 230.704 65.344H230.448L230.64 64.384H232.688C232.688 64.2987 232.709 64.2347 232.752 64.192V63.744H232.624V62.784H232.24V61.824H233.52V60.864H232.688V60.736C232.688 60.5653 232.667 60.416 232.624 60.288C232.624 60.16 232.603 60.032 232.56 59.904H232.24C232.197 59.5627 232.091 59.2427 231.92 58.944H232.048C231.92 58.688 231.771 58.4747 231.6 58.304H231.792C231.621 58.1333 231.493 58.0267 231.408 57.984C230.981 57.6853 230.363 57.536 229.552 57.536C228.741 57.536 228.123 57.6853 227.696 57.984H227.312C227.227 58.0267 227.099 58.1333 226.928 58.304H227.248C227.077 58.4747 226.928 58.688 226.8 58.944H226.736C226.693 59.072 226.651 59.2213 226.608 59.392C226.565 59.52 226.501 59.6907 226.416 59.904H226.16C226.117 60.0747 226.075 60.2453 226.032 60.416C226.032 60.544 226.032 60.6933 226.032 60.864H225.84V61.248C225.797 61.376 225.776 61.568 225.776 61.824H226.8V62.784H226.224C226.224 62.9547 226.224 63.1253 226.224 63.296C226.267 63.424 226.288 63.552 226.288 63.68V63.744H225.136L225.2 64.384H224.304L224.496 65.344H225.072C225.2 65.856 225.435 66.2827 225.776 66.624H227.248ZM233.584 76.224H234.16V75.776L233.584 76.224ZM253.809 41.344V40.064H253.745V39.104H254.321V38.784H254.705V37.504H254.385V36.544H254.449V35.264H254.705V34.304H254.577V33.728C254.577 33.3867 254.62 33.152 254.705 33.024H255.345L255.537 32.704H255.025C255.366 32.2347 255.836 32 256.433 32H267.249C267.846 32 268.316 32.2347 268.657 32.704H269.169L269.361 33.024H268.657C268.785 33.1947 268.849 33.4293 268.849 33.728V34.304H268.977V35.264H268.721V36.544H268.657V37.504H268.977V38.784H268.593V39.104H268.017V40.064H268.081V41.344H268.529V41.472C268.529 41.856 268.38 42.24 268.081 42.624H267.313C267.014 43.008 266.588 43.2 266.033 43.2H255.217C254.662 43.2 254.214 43.008 253.873 42.624H254.641C254.385 42.2827 254.257 41.8987 254.257 41.472V41.344H253.809ZM266.993 54.784H273.009V56.064H270.833V56.704H268.401V57.984H270.257V58.304H269.041V58.944H269.233V59.584H269.553V60.544H266.353V61.504H268.465V62.464H268.081V63.104H269.169V64.064H269.425V65.024H269.041V65.984H269.361V66.624H269.041V67.904H268.913V68.864H268.657V69.824H268.913V70.464H269.041V71.744H268.785V72.384H269.105V73.024H269.041V73.984H269.297V74.944H269.489V75.264H269.041V76.544H268.145V77.824H268.785V78.272C268.785 78.4853 268.764 78.656 268.721 78.784H268.273C268.145 79.2107 267.91 79.5307 267.569 79.744H268.849C268.636 79.9147 268.316 80 267.889 80H256.433C256.049 80 255.75 79.9147 255.537 79.744H254.257C253.873 79.5307 253.617 79.2107 253.489 78.784H253.937C253.894 78.656 253.873 78.4853 253.873 78.272V77.824H253.233V76.544H254.129V75.264H254.577V74.944H254.385V73.984H254.129V73.024H254.193V72.384H253.873V71.744H254.129V70.464H254.001V69.824H253.745V68.864H254.001V67.904H254.129V66.624H254.449V65.984H254.129V65.024H254.513V64.064H254.257V63.104H253.169V62.464H253.553V61.504H251.441V60.544H254.641V59.584H254.321V58.944H254.129V58.304H255.345V57.984H253.489V56.704H255.921V56.064H258.097V54.784H252.081V54.144H257.393V52.864H255.473V51.904H256.625V50.624H254.577V50.304H254.129V49.664H253.745V48.704H254.193V48.448C254.193 47.9787 254.3 47.6373 254.513 47.424H254.577C254.918 46.9547 255.388 46.72 255.985 46.72H267.441C268.038 46.72 268.508 46.9547 268.849 47.424H268.721C268.977 47.68 269.105 48.0213 269.105 48.448V48.704H268.657V49.664H269.041V50.304H269.489V50.624H271.537V51.904H270.385V52.864H272.305V54.144H266.993V54.784ZM313.554 74.304H310.93C310.674 74.7307 310.375 75.1573 310.034 75.584H311.186C311.143 75.6693 311.058 75.776 310.93 75.904H308.114C307.943 76.0747 307.773 76.2453 307.602 76.416C307.474 76.544 307.303 76.6933 307.09 76.864H307.026C306.813 77.0347 306.578 77.2053 306.322 77.376C306.109 77.504 305.874 77.6533 305.618 77.824H304.466C304.082 78.08 303.655 78.3147 303.186 78.528C302.717 78.6987 302.247 78.8907 301.778 79.104H301.522C301.394 79.1467 301.245 79.1893 301.074 79.232C300.946 79.2747 300.775 79.3387 300.562 79.424H307.858C307.687 79.4667 307.495 79.5093 307.282 79.552C307.111 79.5947 306.919 79.6587 306.706 79.744H303.506C302.951 79.872 302.375 79.9787 301.778 80.064C301.181 80.192 300.562 80.2987 299.922 80.384H298.002C297.319 80.4693 296.594 80.5333 295.826 80.576C295.058 80.6187 294.247 80.64 293.394 80.64C292.583 80.64 291.815 80.6187 291.09 80.576C290.407 80.5333 289.746 80.4693 289.106 80.384H290.962C290.365 80.2987 289.789 80.192 289.234 80.064C288.679 79.9787 288.146 79.872 287.634 79.744H290.834L289.746 79.424H282.45C282.322 79.3387 282.173 79.2747 282.002 79.232C281.874 79.1893 281.725 79.1467 281.554 79.104H281.746C281.277 78.8907 280.807 78.6773 280.338 78.464C279.911 78.2507 279.485 78.0373 279.058 77.824H280.21C279.954 77.6533 279.698 77.504 279.442 77.376C279.229 77.2053 279.015 77.0347 278.802 76.864H278.93C278.717 76.6933 278.525 76.544 278.354 76.416C278.183 76.2453 278.013 76.0747 277.842 75.904H280.594C280.551 75.8187 280.509 75.7547 280.466 75.712C280.423 75.6693 280.381 75.6267 280.338 75.584H279.122C278.951 75.3707 278.781 75.1573 278.61 74.944C278.439 74.7307 278.269 74.5173 278.098 74.304H280.786C280.615 74.0907 280.487 73.8773 280.402 73.664C280.317 73.408 280.231 73.1947 280.146 73.024H278.93C278.845 72.8533 278.802 72.7467 278.802 72.704H276.818L276.626 72.064H275.154C275.111 71.936 275.09 71.744 275.09 71.488C275.09 71.1467 275.111 70.912 275.154 70.784H275.602C275.815 70.272 276.157 69.952 276.626 69.824H276.498C276.583 69.7813 276.733 69.76 276.946 69.76H288.338C288.381 69.76 288.423 69.7813 288.466 69.824C288.551 69.824 288.615 69.824 288.658 69.824H288.786C289.127 69.9093 289.426 70.0373 289.682 70.208C289.981 70.3787 290.279 70.5707 290.578 70.784H290.194C290.535 70.9973 290.898 71.2107 291.282 71.424C291.666 71.5947 292.114 71.68 292.626 71.68C292.967 71.68 293.287 71.616 293.586 71.488C293.885 71.3173 294.055 71.0827 294.098 70.784H294.29V70.72C294.29 70.336 294.205 70.0373 294.034 69.824C293.863 69.568 293.586 69.3547 293.202 69.184H292.434C292.007 68.9707 291.431 68.7573 290.706 68.544C290.023 68.3307 289.063 68.1173 287.826 67.904H288.402L287.378 67.712C287.037 67.6267 286.695 67.5627 286.354 67.52C286.013 67.4347 285.671 67.3493 285.33 67.264H285.586L284.498 66.944H284.626C284.071 66.7733 283.538 66.5813 283.026 66.368C282.514 66.1547 282.023 65.92 281.554 65.664H281.81L280.274 64.704H280.146C279.847 64.4907 279.57 64.2773 279.314 64.064C279.101 63.8507 278.887 63.6373 278.674 63.424H277.33C277.287 63.3387 277.245 63.2747 277.202 63.232C277.159 63.1893 277.117 63.1467 277.074 63.104H277.65C277.522 62.976 277.437 62.8693 277.394 62.784H275.602L274.898 61.824H277.65L277.266 61.184H276.37C276.157 60.7147 275.986 60.288 275.858 59.904H276.242C276.242 59.8187 276.221 59.7547 276.178 59.712C276.178 59.6693 276.178 59.6267 276.178 59.584H279.186C279.186 59.4133 279.143 59.2 279.058 58.944H273.426C273.426 58.7733 273.426 58.624 273.426 58.496C273.383 58.3253 273.341 58.1547 273.298 57.984H273.362L273.298 57.344H277.586C277.543 57.2587 277.522 57.152 277.522 57.024C277.522 56.8533 277.522 56.704 277.522 56.576C277.565 56.4053 277.586 56.2347 277.586 56.064H274.578L274.642 55.424H277.522L277.714 54.784H276.434C276.477 54.6987 276.519 54.592 276.562 54.464C276.605 54.336 276.647 54.2293 276.69 54.144H276.178C276.263 53.9733 276.349 53.824 276.434 53.696C276.519 53.5253 276.583 53.3547 276.626 53.184H276.882L277.266 52.544H277.202C277.287 52.3733 277.394 52.224 277.522 52.096C277.65 51.9253 277.778 51.7547 277.906 51.584C278.034 51.4133 278.162 51.264 278.29 51.136C278.418 50.9653 278.567 50.7947 278.738 50.624H278.61L278.93 50.304H278.866C278.909 50.2187 278.951 50.1547 278.994 50.112C279.079 50.0693 279.143 50.0267 279.186 49.984H279.314L280.082 49.344C280.167 49.2587 280.231 49.1947 280.274 49.152C280.359 49.1093 280.445 49.0667 280.53 49.024H279.314C280.039 48.5547 280.829 48.128 281.682 47.744H283.666C283.794 47.6587 283.922 47.5947 284.05 47.552C284.178 47.5093 284.327 47.4667 284.498 47.424H280.146C280.317 47.3387 280.466 47.2747 280.594 47.232C280.765 47.1893 280.935 47.1467 281.106 47.104H283.858C284.925 46.7627 286.055 46.5067 287.25 46.336C288.487 46.1653 289.789 46.08 291.154 46.08C292.562 46.08 293.885 46.1653 295.122 46.336C296.359 46.5067 297.511 46.7627 298.578 47.104H295.826C295.997 47.1467 296.146 47.1893 296.274 47.232C296.445 47.2747 296.615 47.3387 296.786 47.424H301.074L301.97 47.744H299.986C300.455 47.9147 300.903 48.128 301.33 48.384C301.757 48.5973 302.162 48.8107 302.546 49.024H303.762L304.274 49.344H304.338C304.509 49.4293 304.658 49.536 304.786 49.664C304.957 49.792 305.106 49.8987 305.234 49.984H305.17L305.554 50.304H305.618L306.002 50.624H306.13C306.514 50.9227 306.834 51.2427 307.09 51.584C307.431 51.8827 307.687 52.2027 307.858 52.544H307.922L308.306 53.184H307.986C308.071 53.3547 308.157 53.5253 308.242 53.696C308.327 53.824 308.391 53.9733 308.434 54.144H308.882L309.074 54.784H310.29L310.354 55.232V55.424H311.442C311.442 55.5947 311.399 55.808 311.314 56.064C311.015 56.6613 310.589 56.96 310.034 56.96H299.282C298.855 56.96 298.45 56.8747 298.066 56.704C297.725 56.4907 297.383 56.2773 297.042 56.064C296.743 55.8507 296.402 55.6373 296.018 55.424H294.93C294.503 55.168 294.034 55.04 293.522 55.04C293.095 55.04 292.754 55.168 292.498 55.424H289.682C289.469 55.6373 289.362 55.8507 289.362 56.064H292.37C292.37 56.2773 292.413 56.4907 292.498 56.704C292.583 56.9173 292.775 57.1307 293.074 57.344H288.85C289.063 57.4293 289.298 57.536 289.554 57.664C289.81 57.792 290.13 57.8987 290.514 57.984H290.45C290.962 58.1547 291.602 58.304 292.37 58.432C293.181 58.56 294.119 58.7093 295.186 58.88C295.271 58.88 295.335 58.9013 295.378 58.944C295.463 58.944 295.527 58.944 295.57 58.944H301.202C301.714 59.0293 302.205 59.136 302.674 59.264C303.186 59.3493 303.655 59.456 304.082 59.584H301.074C301.245 59.6267 301.394 59.6693 301.522 59.712C301.693 59.7547 301.863 59.8187 302.034 59.904H301.65C302.205 60.0747 302.695 60.2667 303.122 60.48C303.591 60.6933 304.039 60.928 304.466 61.184H305.426L306.45 61.824H303.698C303.911 61.9947 304.125 62.1653 304.338 62.336C304.551 62.464 304.743 62.6133 304.914 62.784H306.706L307.026 63.104H306.45L306.77 63.424H308.05C308.519 63.8933 308.861 64.32 309.074 64.704H309.202C309.33 64.8747 309.437 65.0453 309.522 65.216C309.607 65.344 309.693 65.4933 309.778 65.664H309.522C309.607 65.8773 309.693 66.0907 309.778 66.304C309.906 66.5173 309.991 66.7307 310.034 66.944H309.842L309.97 67.264H309.714C309.757 67.3493 309.778 67.456 309.778 67.584C309.778 67.712 309.799 67.8187 309.842 67.904H309.266C309.394 68.3307 309.458 68.7573 309.458 69.184H310.29V69.632C310.29 69.8027 310.269 69.9947 310.226 70.208C310.226 70.3787 310.226 70.5707 310.226 70.784H310.034C309.991 70.9973 309.949 71.2107 309.906 71.424C309.906 71.6373 309.863 71.8507 309.778 72.064H311.25C311.25 72.2773 311.186 72.4907 311.058 72.704H313.106C313.021 72.8747 312.978 72.9813 312.978 73.024H314.194C314.109 73.2373 314.002 73.4507 313.874 73.664C313.789 73.8773 313.682 74.0907 313.554 74.304ZM344.654 72.704H343.118V73.344H345.422V73.984H347.534V74.944H346.062V75.904H350.35V76.864H343.374V78.144H343.886V78.272C343.886 78.3573 343.865 78.4213 343.822 78.464C343.737 78.8907 343.587 79.2107 343.374 79.424H342.862C342.691 79.5947 342.563 79.7013 342.478 79.744H344.654C344.441 79.9147 344.142 80 343.758 80H336.526C335.801 80 335.075 79.9787 334.35 79.936C333.667 79.8933 333.006 79.8293 332.366 79.744H330.19C329.891 79.7013 329.593 79.6587 329.294 79.616C328.995 79.5307 328.675 79.4667 328.334 79.424H328.846C328.291 79.296 327.758 79.1467 327.246 78.976C326.777 78.8053 326.307 78.6347 325.838 78.464H325.902C325.774 78.3787 325.646 78.3147 325.518 78.272C325.39 78.2293 325.283 78.1867 325.198 78.144H324.686C324.345 77.9307 324.003 77.7387 323.662 77.568C323.321 77.3547 322.979 77.12 322.638 76.864H329.678C329.507 76.6933 329.315 76.544 329.102 76.416C328.931 76.2453 328.761 76.0747 328.59 75.904H324.302L323.47 74.944H325.006C324.878 74.7733 324.75 74.624 324.622 74.496C324.537 74.3253 324.451 74.1547 324.366 73.984H322.254L321.87 73.344H319.566C319.523 73.2587 319.481 73.152 319.438 73.024C319.395 72.896 319.331 72.7893 319.246 72.704H320.846L320.462 71.744H321.742L321.55 71.104C321.465 70.848 321.422 70.6347 321.422 70.464H326.478C326.435 70.2933 326.393 70.144 326.35 70.016C326.35 69.8453 326.35 69.6747 326.35 69.504H319.054C319.054 69.4187 319.033 69.3547 318.99 69.312C318.99 69.2693 318.99 69.2267 318.99 69.184H318.798C318.798 69.0133 318.777 68.864 318.734 68.736C318.734 68.5653 318.734 68.3947 318.734 68.224H318.542C318.542 68.0533 318.521 67.904 318.478 67.776C318.478 67.6053 318.478 67.4347 318.478 67.264H319.374V66.944H318.798V66.304H318.286V65.024H319.054V63.744H318.286V62.784H318.862V62.144H318.926V61.184H319.246V58.944H319.374V57.984H319.694V57.92H314.638C313.998 57.92 313.486 57.6213 313.102 57.024H314.062C313.934 56.768 313.87 56.4907 313.87 56.192V55.744H311.822V54.784H312.27V53.504H311.95V52.864H312.078V52.224H313.038V51.904H311.438V50.944H313.358V49.984H312.974V49.344H312.526V48.384H312.142V48.064H311.95C312.078 47.424 312.483 46.9973 313.166 46.784H313.55C313.678 46.7413 313.849 46.72 314.062 46.72H319.118V46.464H319.374V45.504H318.862V44.864H318.798V43.904H318.542V43.584H317.006V42.944H315.534V42.624H316.046V42.304H317.518V41.024H318.094V40.384H316.046V39.744H319.182V38.784H318.862V38.464H318.158V37.824H318.798V37.504H318.158V36.544H318.734V36.288C318.734 36.0747 318.777 35.84 318.862 35.584H319.694C319.993 34.9013 320.526 34.56 321.294 34.56H332.494C333.177 34.56 333.71 34.9013 334.094 35.584H333.262C333.347 35.84 333.39 36.0747 333.39 36.288V36.544H332.814V37.504H333.454V37.824H332.814V38.464H333.518V38.784H333.838V39.744H330.702V40.384H332.75V41.024H332.174V42.304H330.702V42.624H330.19V42.944H331.662V43.584H333.198V43.904H333.454V44.864H333.518V45.504H334.03V46.464H333.774V46.72H341.838C342.051 46.72 342.201 46.7413 342.286 46.784H341.902C342.499 46.9973 342.905 47.424 343.118 48.064H343.31C343.31 48.1067 343.31 48.1493 343.31 48.192C343.353 48.2347 343.374 48.2987 343.374 48.384H343.758V49.344H344.206V49.984H344.59V50.944H342.67V51.904H344.27V52.224H343.31V52.864H343.182V53.504H343.502V54.784H343.054V55.744H345.102V56.192C345.102 56.3627 345.081 56.512 345.038 56.64C344.995 56.768 344.931 56.896 344.846 57.024H343.95C343.566 57.6213 343.054 57.92 342.414 57.92H334.35V57.984H334.03V58.944H333.902V61.184H333.582V62.144H333.518V62.784H332.942V63.744H333.71V65.024H332.942C332.942 65.2373 332.942 65.4507 332.942 65.664C332.985 65.8773 333.027 66.0907 333.07 66.304H333.646C333.731 66.56 333.817 66.7733 333.902 66.944H334.414L334.606 67.264H333.71C334.179 67.8613 334.905 68.16 335.886 68.16H341.71C341.923 68.16 342.073 68.1813 342.158 68.224H342.35C342.862 68.352 343.225 68.672 343.438 69.184H343.63C343.63 69.2267 343.63 69.2693 343.63 69.312C343.673 69.3547 343.694 69.4187 343.694 69.504H350.99C350.99 69.5467 350.99 69.6107 350.99 69.696C351.033 69.7387 351.054 69.8027 351.054 69.888V70.464H345.934V71.744H344.654V72.704ZM380.893 62.464V63.104H389.021V63.744H384.093V64.384H381.789V65.024H383.773V65.408C383.773 65.664 383.751 65.856 383.709 65.984H384.605C384.306 66.752 383.751 67.136 382.941 67.136H363.869V67.264H366.429V67.456C366.429 67.6267 366.429 67.8187 366.429 68.032C366.429 68.2027 366.45 68.3733 366.493 68.544H363.037C363.037 68.672 363.037 68.8 363.037 68.928C363.079 69.0133 363.101 69.0987 363.101 69.184H362.717C362.717 69.3547 362.759 69.568 362.845 69.824H363.101C363.314 70.4213 363.655 70.848 364.125 71.104H362.397C362.695 71.2747 363.101 71.36 363.613 71.36C363.954 71.36 364.231 71.2747 364.445 71.104H367.453C367.623 71.0187 367.773 70.8907 367.901 70.72C368.071 70.5493 368.263 70.3787 368.477 70.208L368.861 69.824H367.645C368.029 69.4827 368.605 69.312 369.373 69.312H381.469C381.981 69.312 382.365 69.4827 382.621 69.824H383.773C383.986 70.1227 384.093 70.4213 384.093 70.72C384.05 70.8053 384.029 70.9333 384.029 71.104H381.021C380.935 71.5307 380.807 71.9573 380.637 72.384H377.501C377.373 72.5973 377.266 72.8107 377.181 73.024H385.117C385.031 73.2373 384.903 73.4507 384.733 73.664C384.605 73.8773 384.455 74.0907 384.285 74.304H382.365C382.194 74.56 382.023 74.7733 381.853 74.944H382.301C382.258 74.9867 382.215 75.0293 382.173 75.072C382.13 75.1147 382.087 75.1787 382.045 75.264H378.461L378.141 75.584H379.229C379.186 75.6267 379.122 75.6693 379.037 75.712C378.994 75.7547 378.951 75.8187 378.909 75.904H380.893C380.594 76.2027 380.21 76.5227 379.741 76.864H378.781C378.738 76.9067 378.674 76.9493 378.589 76.992C378.503 77.0347 378.418 77.0987 378.333 77.184H377.629C376.946 77.6533 376.199 78.08 375.389 78.464H374.557C374.045 78.72 373.49 78.9547 372.893 79.168C372.338 79.3813 371.741 79.5733 371.101 79.744H370.077C369.607 79.872 369.117 79.9787 368.605 80.064C368.093 80.192 367.538 80.2987 366.941 80.384H369.629C369.031 80.4693 368.413 80.5333 367.773 80.576C367.133 80.6187 366.45 80.64 365.725 80.64C365.042 80.64 364.359 80.6187 363.677 80.576C362.994 80.5333 362.333 80.4693 361.693 80.384H359.005C358.45 80.2987 357.917 80.192 357.405 80.064C356.893 79.9787 356.381 79.872 355.869 79.744H356.893C355.741 79.4453 354.653 79.0187 353.629 78.464H354.461C353.693 78.0373 353.031 77.6107 352.477 77.184H353.181C353.095 77.0987 353.01 77.0347 352.925 76.992C352.882 76.9493 352.818 76.9067 352.733 76.864H353.693C353.522 76.6933 353.351 76.544 353.181 76.416C353.01 76.2453 352.839 76.0747 352.669 75.904H350.621L350.301 75.584H349.213C349.17 75.4987 349.127 75.4347 349.085 75.392C349.042 75.3493 348.999 75.3067 348.957 75.264H352.477C352.434 75.1787 352.349 75.072 352.221 74.944H351.773C351.687 74.8587 351.602 74.752 351.517 74.624C351.431 74.496 351.346 74.3893 351.261 74.304H353.181C353.053 74.0907 352.925 73.8773 352.797 73.664C352.669 73.4507 352.541 73.2373 352.413 73.024H344.413C344.285 72.8107 344.178 72.5973 344.093 72.384H347.229L346.653 71.104H348.381C348.295 70.8907 348.21 70.6773 348.125 70.464C348.082 70.2507 348.018 70.0373 347.933 69.824H347.741L347.549 69.184H347.997L347.805 68.544H351.261C351.218 68.3307 351.175 68.1173 351.133 67.904C351.09 67.6907 351.047 67.4773 351.005 67.264H348.445L348.317 65.984H347.421C347.421 65.8133 347.399 65.664 347.357 65.536C347.357 65.3653 347.357 65.1947 347.357 65.024H345.373V64.384H347.613V63.744H352.541V63.104H344.413V62.976C344.413 62.7627 344.434 62.592 344.477 62.464H355.549C355.549 62.2933 355.549 62.144 355.549 62.016C355.591 61.8453 355.613 61.6747 355.613 61.504H345.437C345.437 61.4187 345.437 61.3547 345.437 61.312C345.479 61.2693 345.501 61.2267 345.501 61.184H349.725C349.725 61.056 349.746 60.9493 349.789 60.864H354.525V60.544H345.501C345.543 60.3307 345.586 60.1173 345.629 59.904C345.671 59.6907 345.714 59.4773 345.757 59.264H348.189C348.189 59.0933 348.231 58.88 348.317 58.624H346.205C346.205 58.5387 346.205 58.4747 346.205 58.432C346.247 58.3893 346.269 58.3467 346.269 58.304H347.805C347.805 58.2187 347.805 58.1547 347.805 58.112C347.847 58.0693 347.869 58.0267 347.869 57.984H346.269L346.397 57.664H347.933L348.125 57.024H349.341L349.725 56.064H348.573C348.658 55.8507 348.743 55.6373 348.829 55.424C348.914 55.168 349.021 54.9547 349.149 54.784H348.957L349.085 54.464H347.485C347.57 54.2933 347.613 54.1867 347.613 54.144H346.141L346.525 53.504H349.661C349.703 53.4187 349.789 53.312 349.917 53.184H351.069C351.239 52.9707 351.389 52.7573 351.517 52.544C351.687 52.288 351.858 52.0747 352.029 51.904H350.877C351.005 51.7333 351.133 51.584 351.261 51.456C351.431 51.2853 351.602 51.1147 351.773 50.944H354.269L354.909 50.304H351.133C351.687 49.8347 352.242 49.408 352.797 49.024H356.317L356.829 48.704H355.677C356.018 48.4907 356.423 48.2773 356.893 48.064H359.389C360.541 47.5093 361.735 47.0827 362.973 46.784H359.389C360.327 46.5707 361.309 46.4 362.333 46.272C363.357 46.144 364.423 46.08 365.533 46.08C366.642 46.08 367.687 46.144 368.669 46.272C369.65 46.4 370.589 46.5707 371.485 46.784H375.005C375.645 46.9547 376.242 47.1467 376.797 47.36C377.394 47.5733 377.97 47.808 378.525 48.064H376.029C376.242 48.1493 376.434 48.256 376.605 48.384C376.818 48.4693 377.01 48.576 377.181 48.704H378.333C378.418 48.7467 378.503 48.7893 378.589 48.832C378.674 48.8747 378.759 48.9387 378.845 49.024H375.325C375.879 49.408 376.434 49.8347 376.989 50.304H380.829L381.469 50.944H378.973C379.143 51.1147 379.293 51.2853 379.421 51.456C379.591 51.584 379.741 51.7333 379.869 51.904H381.021C381.191 52.0747 381.341 52.288 381.469 52.544C381.639 52.7573 381.81 52.9707 381.981 53.184H380.765C380.807 53.2693 380.893 53.376 381.021 53.504H377.821L378.205 54.144H379.677L379.869 54.464H381.533C381.533 54.5067 381.575 54.6133 381.661 54.784H381.853L382.429 56.064L382.813 57.024H382.877L383.069 57.664H382.301L382.429 57.984H383.005L383.133 58.304H384.157C384.157 58.3467 384.157 58.3893 384.157 58.432C384.199 58.4747 384.221 58.5387 384.221 58.624H383.709L383.901 59.264H381.469L381.661 60.544H390.685V60.864H385.949C385.949 60.9067 385.949 60.9493 385.949 60.992C385.991 61.0347 386.013 61.0987 386.013 61.184H381.725C381.767 61.2693 381.789 61.376 381.789 61.504H391.965C391.965 61.6747 391.965 61.8453 391.965 62.016C391.965 62.144 391.986 62.2933 392.029 62.464H380.893ZM361.437 58.304V58.624H363.485V59.136H368.605V58.624H369.053V58.304H368.029V57.984H367.389C367.389 57.856 367.367 57.7493 367.325 57.664H368.093C368.093 57.4933 368.05 57.28 367.965 57.024H367.901C367.858 56.64 367.73 56.32 367.517 56.064C367.09 55.3813 366.429 55.04 365.533 55.04C364.679 55.04 364.039 55.3813 363.613 56.064H364.765C364.594 56.32 364.466 56.64 364.381 57.024H363.101C363.101 57.1093 363.079 57.216 363.037 57.344C363.037 57.4293 363.015 57.536 362.973 57.664H361.437C361.437 57.792 361.415 57.8987 361.373 57.984H362.973V58.304H361.437ZM416.928 51.584H419.36V52.864H419.232V54.144H416.992V55.104H417.568V56.384H417.056V57.664H415.904V57.984H411.872V58.432C411.872 58.5173 411.85 58.6027 411.808 58.688C411.808 58.7733 411.786 58.8587 411.744 58.944H413.216C413.002 59.7547 412.448 60.16 411.552 60.16H403.296C403.125 60.16 402.954 60.16 402.784 60.16C402.656 60.16 402.528 60.1813 402.4 60.224H404.96C404.746 60.2667 404.554 60.3093 404.384 60.352C404.213 60.3947 404.021 60.4587 403.808 60.544H405.92C405.792 60.5867 405.6 60.6933 405.344 60.864H406.56L406.176 61.184H406.496C406.24 61.44 406.048 61.76 405.92 62.144H404C403.914 62.3147 403.872 62.4213 403.872 62.464H403.232C403.232 62.5067 403.21 62.5493 403.168 62.592C403.168 62.6347 403.168 62.6987 403.168 62.784H403.936C403.893 62.8693 403.872 62.976 403.872 63.104C403.872 63.1893 403.85 63.296 403.808 63.424H404.192V64.384H403.296V65.024H404.192V65.984H405.152V67.264H403.744V67.584H402.72V67.904H406.56V68.864H404.64V69.504H405.28V70.144H403.808V71.424H402.976V71.744H402.144V72.704H404.32V73.664H403.168V74.624H404.32V74.944H404.192V75.584H402.784V76.224H403.808V77.504H404.064V78.464H403.808C403.722 79.0613 403.445 79.488 402.976 79.744H402.4C402.186 79.9147 401.888 80 401.504 80H389.344C388.96 80 388.661 79.9147 388.448 79.744H389.024C388.554 79.488 388.277 79.0613 388.192 78.464H388.448V77.504H388.192V76.224H387.168V75.584H388.576V74.944H388.704V74.624H387.552V73.664H388.704V72.704H386.528V71.744H387.36V71.424H388.192V70.144H389.664V69.504H389.024V68.864H390.944V67.904H387.104V67.584H388.128V67.264H389.536V65.984H388.576V65.024H387.68V64.384H388.576V63.424H388.192V62.784H387.424V62.464H388.064V62.144H389.984V61.184H389.664V60.864H388.512V60.544H386.4V60.224H383.84V58.944H382.432V57.984H386.464V57.664H387.616V56.384H388.128V55.104H387.552V54.144H389.792V52.864H389.92V51.584H387.488V50.624H389.536V49.344H387.552V49.024H388.192V48.448C388.192 48.2347 388.234 48 388.32 47.744H388.256C388.554 47.0613 389.088 46.72 389.856 46.72H401.056C401.781 46.72 402.293 47.0613 402.592 47.744H402.72C402.805 48 402.848 48.2347 402.848 48.448V49.024H402.208V49.344H404.192V49.536L404.448 49.344H404.576C404.661 49.2587 404.746 49.1947 404.832 49.152C404.917 49.1093 404.981 49.0667 405.024 49.024H405.152C406.005 48.4693 406.837 48.0427 407.648 47.744H407.776C408.629 47.4027 409.482 47.1467 410.336 46.976C411.189 46.8053 412.085 46.72 413.024 46.72H416.096C416.864 46.72 417.397 47.0613 417.696 47.744H417.568C417.653 48 417.696 48.2347 417.696 48.448V49.024H417.632V49.344H417.504V50.624H416.928V51.584ZM464.069 79.424H461.957V80.704H462.533V81.344H462.661V82.624H463.109V82.944H463.493V83.584H464.453V84.544C464.453 84.672 464.431 84.7787 464.389 84.864C464.303 85.504 463.962 85.9307 463.365 86.144H462.789C462.533 86.2293 462.319 86.272 462.149 86.272H423.429C423.258 86.272 423.045 86.2293 422.789 86.144H423.365C422.767 85.9307 422.405 85.504 422.277 84.864V83.584H421.317V82.944H420.933V82.624H420.485V81.344H420.357V80.704H419.781V79.424H421.893V79.104H422.405V78.464H419.717V78.144H420.805V77.184H420.549V75.904H420.613V75.456C420.613 75.2427 420.634 75.072 420.677 74.944H420.293C420.591 74.1333 421.146 73.728 421.957 73.728H460.677C461.573 73.728 462.127 74.1333 462.341 74.944H462.661C462.703 75.0293 462.725 75.1147 462.725 75.2C462.767 75.2853 462.789 75.3707 462.789 75.456V75.904H462.725V77.184H462.981V78.144H461.893V78.464H464.581V79.104H464.069V79.424Z" fill="#00FFF8"/>
</g>
<defs>
<filter id="filter0_g_149_2404" x="112.816" y="26.8" width="353.966" height="72.4801" filterUnits="userSpaceOnUse" color-interpolation-filters="sRGB">
<feFlood flood-opacity="0" result="BackgroundImageFix"/>
<feBlend mode="normal" in="SourceGraphic" in2="BackgroundImageFix" result="shape"/>
<feTurbulence type="fractalNoise" baseFrequency="5 5" numOctaves="3" seed="901" />
<feDisplacementMap in="shape" scale="10.399999618530273" xChannelSelector="R" yChannelSelector="G" result="displacedImage" width="100%" height="100%" />
<feMerge result="effect1_texture_149_2404">
<feMergeNode in="displacedImage"/>
</feMerge>
</filter>
<clipPath id="clip0_149_2404">
<rect width="571" height="155" fill="white"/>
</clipPath>
</defs>
</svg>
