<svg width="462" height="114" viewBox="0 0 462 114" fill="none" xmlns="http://www.w3.org/2000/svg">
<path opacity="0.25" d="M111.442 0L0 37.6988V83.0992L72.7583 113.546H350.558L462 75.8473V0H111.442Z" fill="black"/>
<path d="M111.442 0L0 37.6988V83.0992L72.7583 113.546H350.558L462 75.8473V0H111.442ZM455.119 74.6225L346.998 109.906H77.4667L6.88097 81.4108V38.9167L115.002 3.63979H455.127V74.6225H455.119Z" fill="#FCF551"/>
<path d="M135.216 58.848H132.864C132.832 58.976 132.8 59.104 132.768 59.232C132.736 59.328 132.688 59.44 132.624 59.568H133.968L133.824 60.048H132.672C132.576 60.336 132.448 60.656 132.288 61.008H131.568C131.44 61.328 131.264 61.648 131.04 61.968H131.136C131.008 62.128 130.896 62.288 130.8 62.448C130.704 62.608 130.592 62.768 130.464 62.928H135.648L135.024 63.648H130.752C130.624 63.808 130.464 63.968 130.272 64.128C130.08 64.288 129.904 64.448 129.744 64.608H130.368C130.24 64.736 130.08 64.864 129.888 64.992C129.728 65.088 129.568 65.2 129.408 65.328H130.992L130.8 65.472L131.232 66.288H130.08L130.608 67.248H130.752L130.896 67.488H130.848L131.328 68.448H131.808L132.096 68.928H128.4L128.784 69.648H132.144L132.432 70.128H131.376L131.76 70.848H136.512L137.04 71.808H133.872L134.256 72.528H132.768L133.536 73.968H133.872L134.16 74.448H134.016L134.16 74.688H131.904L132.432 75.648L132.528 75.888H131.04L131.28 76.416C131.376 76.544 131.424 76.688 131.424 76.848H132.432V76.944C132.432 77.296 132.288 77.584 132 77.808H133.296C133.136 77.936 132.928 78 132.672 78H122.832C122.64 78 122.464 77.984 122.304 77.952C122.176 77.888 122.032 77.84 121.872 77.808H120.576C120.32 77.68 120.096 77.52 119.904 77.328C119.744 77.136 119.616 76.976 119.52 76.848H118.56L118.464 76.704L118.128 75.888H119.664L119.52 75.648H114.96V75.888H112.512V76.848H116.4C116.336 77.296 116.128 77.616 115.776 77.808H115.44C115.216 77.936 114.976 78 114.72 78H105.312C105.024 78 104.8 77.936 104.64 77.808H105.024C104.672 77.616 104.464 77.296 104.4 76.848H100.56C100.56 76.816 100.56 76.8 100.56 76.8C100.528 76.768 100.512 76.736 100.512 76.704V75.888H102.96V75.648H107.76V74.688H102.624V74.448H105.648V73.968H104.64V73.248H106.32V72.528H103.584V71.808H107.28V70.848H105.168V70.128H105.12V69.888H104.832V69.648H103.536V68.928H105.168V68.448H104.736V67.488H104.784V67.248H104.64V66.288H105.792V65.328H104.16V64.608H103.536V63.648H107.76V62.928H102.576V61.968H102.48V61.008H103.2V60.048H104.304V59.568H102.96V58.848H105.312V58.368H108.768V57.888H104.016V57.648H104.256V57.408H104.688V57.168H104.736V56.688H104.64V55.968H104.832V55.008H104.592V54.528H104.832V53.808H104.64V53.568H104.784V53.088H104.736V52.848H104.544V52.608H104.976V51.888H105.36V51.168H103.104V50.208H103.632V49.248H103.344V48.528H104.64V47.808H105.12V47.088H104.256V46.608H104.592V46.368H104.688V45.648H104.784C104.784 45.296 104.928 44.976 105.216 44.688H107.808C108 44.496 108.272 44.4 108.624 44.4H122.832C124.208 44.4 125.488 44.496 126.672 44.688H124.128C125.408 44.88 126.624 45.2 127.776 45.648H127.68C128.224 45.84 128.752 46.08 129.264 46.368H129.168L129.6 46.608H129.216C129.376 46.672 129.504 46.752 129.6 46.848C129.728 46.944 129.856 47.024 129.984 47.088H130.848C131.008 47.216 131.168 47.344 131.328 47.472C131.488 47.568 131.632 47.68 131.76 47.808H131.28C131.44 47.936 131.568 48.064 131.664 48.192C131.792 48.288 131.92 48.4 132.048 48.528H130.752C130.88 48.656 130.992 48.784 131.088 48.912C131.184 49.008 131.28 49.12 131.376 49.248H131.616C131.872 49.568 132.096 49.888 132.288 50.208H131.808C131.904 50.336 131.984 50.496 132.048 50.688C132.144 50.848 132.24 51.008 132.336 51.168H134.592L134.88 51.888H134.496C134.528 52.016 134.56 52.144 134.592 52.272C134.656 52.368 134.704 52.48 134.736 52.608H134.256L134.352 52.848H134.544C134.576 52.912 134.592 52.992 134.592 53.088L134.736 53.568H134.88C134.88 53.664 134.896 53.744 134.928 53.808H134.976C135.008 53.936 135.024 54.064 135.024 54.192C135.056 54.288 135.072 54.4 135.072 54.528H134.448C134.448 54.592 134.448 54.672 134.448 54.768C134.448 54.864 134.464 54.944 134.496 55.008H134.784C134.784 55.168 134.784 55.328 134.784 55.488C134.816 55.648 134.832 55.808 134.832 55.968V56.448H135.12V56.688H134.832V57.168H134.352C134.352 57.2 134.336 57.232 134.304 57.264C134.304 57.296 134.304 57.344 134.304 57.408H134.784C134.784 57.44 134.768 57.472 134.736 57.504C134.736 57.536 134.736 57.584 134.736 57.648H136.992C136.96 57.712 136.944 57.792 136.944 57.888H137.568L137.52 58.368H135.312C135.248 58.56 135.216 58.72 135.216 58.848ZM116.016 57.888H120.768V58.368H117.312V58.416H120.816C121.04 58.416 121.216 58.4 121.344 58.368H123.552C123.904 58.272 124.224 58.112 124.512 57.888H123.84L124.08 57.648H121.824C121.92 57.552 121.984 57.472 122.016 57.408H121.536L121.68 57.168H122.16L122.304 56.688H122.544C122.576 56.624 122.592 56.544 122.592 56.448H122.304L122.352 55.968C122.352 55.648 122.304 55.328 122.208 55.008H121.92C121.888 54.944 121.856 54.864 121.824 54.768C121.824 54.672 121.792 54.592 121.728 54.528H122.4C122.272 54.272 122.096 54.032 121.872 53.808H121.776C121.68 53.712 121.568 53.632 121.44 53.568H121.296C120.976 53.408 120.64 53.328 120.288 53.328H116.784V53.568H116.64V53.808H116.832V54.528H116.592V55.008H116.832V55.968H116.64V56.688H116.736V57.168H116.688V57.408H116.256V57.648H116.016V57.888ZM119.808 68.928L119.616 68.448H119.088L118.704 67.536H116.736V68.448H117.168V68.928H119.808ZM115.536 68.928V69.648H116.448L116.16 68.928H115.536ZM119.904 69.888L119.808 69.648H116.832V69.888H117.12V70.128H117.168V70.848H119.28V71.808H115.584V72.528H118.32V73.248H116.64V73.968H117.648V74.448H114.624V74.688H121.392L121.248 74.448H121.392L121.152 73.968H120.768L120.48 73.248L120.144 72.528H121.68L121.344 71.808H124.464L124.032 70.848H119.28L118.992 70.128H120.048L119.904 69.888ZM162.905 64.848V65.328H169.001V65.808H165.305V66.288H163.577V66.768H165.065V67.056C165.065 67.248 165.049 67.392 165.017 67.488H165.689C165.465 68.064 165.049 68.352 164.441 68.352H150.137V68.448H152.057V68.592C152.057 68.72 152.057 68.864 152.057 69.024C152.057 69.152 152.073 69.28 152.105 69.408H149.513C149.513 69.504 149.513 69.6 149.513 69.696C149.545 69.76 149.561 69.824 149.561 69.888H149.273C149.273 70.016 149.305 70.176 149.369 70.368H149.561C149.721 70.816 149.977 71.136 150.329 71.328H149.033C149.257 71.456 149.561 71.52 149.945 71.52C150.201 71.52 150.409 71.456 150.569 71.328H152.825C152.953 71.264 153.065 71.168 153.161 71.04C153.289 70.912 153.433 70.784 153.593 70.656L153.881 70.368H152.969C153.257 70.112 153.689 69.984 154.265 69.984H163.337C163.721 69.984 164.009 70.112 164.201 70.368H165.065C165.225 70.592 165.305 70.816 165.305 71.04C165.273 71.104 165.257 71.2 165.257 71.328H163.001C162.937 71.648 162.841 71.968 162.713 72.288H160.361C160.265 72.448 160.185 72.608 160.121 72.768H166.073C166.009 72.928 165.913 73.088 165.785 73.248C165.689 73.408 165.577 73.568 165.449 73.728H164.009C163.881 73.92 163.753 74.08 163.625 74.208H163.961C163.929 74.24 163.897 74.272 163.865 74.304C163.833 74.336 163.801 74.384 163.769 74.448H161.081L160.841 74.688H161.656C161.625 74.72 161.577 74.752 161.513 74.784C161.481 74.816 161.449 74.864 161.417 74.928H162.905C162.681 75.152 162.393 75.392 162.041 75.648H161.321C161.289 75.68 161.241 75.712 161.177 75.744C161.113 75.776 161.049 75.824 160.984 75.888H160.457C159.945 76.24 159.385 76.56 158.777 76.848H158.153C157.769 77.04 157.353 77.216 156.905 77.376C156.489 77.536 156.041 77.68 155.561 77.808H154.793C154.441 77.904 154.073 77.984 153.689 78.048C153.305 78.144 152.889 78.224 152.441 78.288H154.457C154.009 78.352 153.545 78.4 153.065 78.432C152.585 78.464 152.073 78.48 151.529 78.48C151.017 78.48 150.505 78.464 149.993 78.432C149.481 78.4 148.985 78.352 148.505 78.288H146.489C146.073 78.224 145.673 78.144 145.289 78.048C144.905 77.984 144.521 77.904 144.137 77.808H144.905C144.041 77.584 143.225 77.264 142.457 76.848H143.081C142.505 76.528 142.009 76.208 141.593 75.888H142.121C142.057 75.824 141.993 75.776 141.929 75.744C141.897 75.712 141.849 75.68 141.785 75.648H142.505C142.377 75.52 142.249 75.408 142.121 75.312C141.993 75.184 141.865 75.056 141.737 74.928H140.201L139.961 74.688H139.145C139.113 74.624 139.081 74.576 139.049 74.544C139.017 74.512 138.985 74.48 138.953 74.448H141.593C141.561 74.384 141.497 74.304 141.401 74.208H141.065C141.001 74.144 140.937 74.064 140.873 73.968C140.809 73.872 140.745 73.792 140.681 73.728H142.121C142.025 73.568 141.929 73.408 141.833 73.248C141.737 73.088 141.641 72.928 141.545 72.768H135.544C135.448 72.608 135.368 72.448 135.304 72.288H137.657L137.225 71.328H138.521C138.457 71.168 138.393 71.008 138.329 70.848C138.297 70.688 138.249 70.528 138.185 70.368H138.041L137.896 69.888H138.233L138.089 69.408H140.681C140.649 69.248 140.617 69.088 140.585 68.928C140.553 68.768 140.521 68.608 140.489 68.448H138.569L138.473 67.488H137.801C137.801 67.36 137.785 67.248 137.753 67.152C137.753 67.024 137.753 66.896 137.753 66.768H136.264V66.288H137.945V65.808H141.641V65.328H135.544V65.232C135.544 65.072 135.56 64.944 135.592 64.848H143.897C143.897 64.72 143.897 64.608 143.897 64.512C143.929 64.384 143.945 64.256 143.945 64.128H136.312C136.312 64.064 136.312 64.016 136.312 63.984C136.345 63.952 136.361 63.92 136.361 63.888H139.529C139.529 63.792 139.545 63.712 139.577 63.648H143.129V63.408H136.361C136.393 63.248 136.425 63.088 136.457 62.928C136.489 62.768 136.521 62.608 136.553 62.448H138.377C138.377 62.32 138.409 62.16 138.473 61.968H136.889C136.889 61.904 136.889 61.856 136.889 61.824C136.921 61.792 136.937 61.76 136.937 61.728H138.089C138.089 61.664 138.089 61.616 138.089 61.584C138.121 61.552 138.137 61.52 138.137 61.488H136.937L137.033 61.248H138.185L138.329 60.768H139.241L139.529 60.048H138.665C138.729 59.888 138.793 59.728 138.857 59.568C138.921 59.376 139.001 59.216 139.097 59.088H138.953L139.049 58.848H137.849C137.913 58.72 137.945 58.64 137.945 58.608H136.841L137.129 58.128H139.48C139.513 58.064 139.577 57.984 139.673 57.888H140.537C140.665 57.728 140.777 57.568 140.873 57.408C141.001 57.216 141.129 57.056 141.257 56.928H140.393C140.489 56.8 140.585 56.688 140.681 56.592C140.809 56.464 140.937 56.336 141.065 56.208H142.937L143.417 55.728H140.585C141.001 55.376 141.417 55.056 141.833 54.768H144.473L144.857 54.528H143.993C144.249 54.368 144.553 54.208 144.905 54.048H146.777C147.641 53.632 148.537 53.312 149.465 53.088H146.777C147.481 52.928 148.217 52.8 148.984 52.704C149.753 52.608 150.553 52.56 151.385 52.56C152.217 52.56 153.001 52.608 153.737 52.704C154.473 52.8 155.177 52.928 155.849 53.088H158.489C158.969 53.216 159.417 53.36 159.833 53.52C160.281 53.68 160.713 53.856 161.129 54.048H159.257C159.417 54.112 159.561 54.192 159.689 54.288C159.849 54.352 159.993 54.432 160.121 54.528H160.984C161.049 54.56 161.113 54.592 161.177 54.624C161.241 54.656 161.305 54.704 161.369 54.768H158.729C159.145 55.056 159.561 55.376 159.977 55.728H162.857L163.337 56.208H161.465C161.593 56.336 161.705 56.464 161.801 56.592C161.929 56.688 162.041 56.8 162.137 56.928H163.001C163.129 57.056 163.241 57.216 163.337 57.408C163.465 57.568 163.593 57.728 163.721 57.888H162.809C162.841 57.952 162.905 58.032 163.001 58.128H160.601L160.889 58.608H161.993L162.137 58.848H163.385C163.385 58.88 163.417 58.96 163.481 59.088H163.625L164.057 60.048L164.345 60.768H164.393L164.536 61.248H163.961L164.057 61.488H164.489L164.585 61.728H165.353C165.353 61.76 165.353 61.792 165.353 61.824C165.385 61.856 165.401 61.904 165.401 61.968H165.017L165.161 62.448H163.337L163.481 63.408H170.249V63.648H166.697C166.697 63.68 166.697 63.712 166.697 63.744C166.729 63.776 166.745 63.824 166.745 63.888H163.529C163.561 63.952 163.577 64.032 163.577 64.128H171.209C171.209 64.256 171.209 64.384 171.209 64.512C171.209 64.608 171.225 64.72 171.257 64.848H162.905ZM148.312 61.728V61.968H149.849V62.352H153.689V61.968H154.025V61.728H153.257V61.488H152.777C152.777 61.392 152.761 61.312 152.729 61.248H153.305C153.305 61.12 153.273 60.96 153.209 60.768H153.161C153.129 60.48 153.033 60.24 152.873 60.048C152.553 59.536 152.057 59.28 151.385 59.28C150.745 59.28 150.265 59.536 149.945 60.048H150.809C150.681 60.24 150.585 60.48 150.521 60.768H149.561C149.561 60.832 149.545 60.912 149.513 61.008C149.513 61.072 149.497 61.152 149.465 61.248H148.312C148.312 61.344 148.297 61.424 148.265 61.488H149.465V61.728H148.312ZM196.363 77.088H197.899V77.808H196.699V78.048H197.035C197.003 78.176 196.987 78.288 196.987 78.384C196.987 78.512 196.971 78.64 196.939 78.768H196.891V79.008H194.635C194.603 79.072 194.587 79.152 194.587 79.248C194.587 79.344 194.571 79.424 194.539 79.488H197.323C197.291 79.648 197.259 79.808 197.227 79.968C197.195 80.128 197.163 80.288 197.131 80.448H196.363C196.331 80.576 196.299 80.688 196.267 80.784C196.235 80.912 196.187 81.04 196.123 81.168H194.539L194.347 81.648H195.163L194.971 82.128H195.067C195.003 82.288 194.923 82.448 194.827 82.608H194.875L194.443 83.328C194.411 83.36 194.379 83.392 194.347 83.424C194.347 83.456 194.331 83.504 194.299 83.568C194.235 83.696 194.155 83.808 194.059 83.904C193.963 84.032 193.867 84.16 193.771 84.288H193.675L193.435 84.528H194.347L193.915 85.008H192.811C192.715 85.072 192.619 85.152 192.523 85.248C192.427 85.344 192.347 85.424 192.283 85.488H193.579C193.451 85.616 193.291 85.728 193.099 85.824C192.939 85.952 192.779 86.08 192.619 86.208H194.347C194.155 86.336 193.947 86.448 193.723 86.544C193.531 86.672 193.323 86.8 193.099 86.928H192.619C192.459 87.024 192.283 87.104 192.091 87.168C191.899 87.264 191.723 87.344 191.563 87.408H188.827C188.219 87.632 187.595 87.824 186.955 87.984C186.315 88.144 185.659 88.272 184.987 88.368H187.819C187.339 88.432 186.843 88.48 186.331 88.512C185.819 88.544 185.307 88.56 184.795 88.56C184.251 88.56 183.707 88.544 183.163 88.512C182.651 88.48 182.155 88.432 181.675 88.368H178.843C177.403 88.176 176.075 87.856 174.859 87.408H177.595C177.403 87.344 177.211 87.264 177.019 87.168C176.827 87.104 176.635 87.024 176.443 86.928H176.923C176.699 86.8 176.475 86.672 176.251 86.544C176.027 86.448 175.803 86.336 175.579 86.208H173.899C173.707 86.08 173.515 85.952 173.323 85.824C173.163 85.728 173.003 85.616 172.843 85.488H171.547C171.291 85.296 171.099 85.136 170.971 85.008H172.075C171.979 84.944 171.883 84.864 171.787 84.768C171.691 84.672 171.611 84.592 171.547 84.528H170.635C170.603 84.464 170.571 84.416 170.539 84.384C170.507 84.352 170.459 84.32 170.395 84.288H170.539C170.411 84.16 170.299 84.032 170.203 83.904C170.107 83.808 170.011 83.696 169.915 83.568H169.867C169.835 83.504 169.771 83.424 169.675 83.328H169.723C169.627 83.2 169.531 83.072 169.435 82.944C169.339 82.848 169.259 82.736 169.195 82.608L168.907 82.128H168.811C168.779 82.064 168.747 81.984 168.715 81.888C168.683 81.792 168.635 81.712 168.571 81.648H167.755L167.563 81.168H169.195C169.163 81.04 169.115 80.912 169.051 80.784C169.019 80.688 168.987 80.576 168.955 80.448H168.667C168.667 80.352 168.651 80.256 168.619 80.16C168.619 80.096 168.619 80.032 168.619 79.968C168.619 79.744 168.635 79.584 168.667 79.488H168.523C168.619 79.296 168.731 79.136 168.859 79.008H168.571C168.763 78.88 168.907 78.8 169.003 78.768H169.627C169.819 78.704 169.995 78.672 170.155 78.672H179.515C179.675 78.672 179.851 78.704 180.043 78.768H179.371C179.531 78.8 179.659 78.88 179.755 79.008H180.043C180.171 79.136 180.283 79.296 180.379 79.488H180.523L180.619 79.632C180.843 80.016 181.051 80.288 181.243 80.448H181.483C181.835 80.704 182.315 80.832 182.923 80.832C183.403 80.832 183.819 80.704 184.171 80.448H184.939C185.227 80.224 185.435 79.904 185.563 79.488H182.779C182.843 79.296 182.875 79.136 182.875 79.008H185.131C185.163 78.944 185.179 78.864 185.179 78.768H185.227C185.259 78.64 185.275 78.512 185.275 78.384C185.275 78.288 185.275 78.176 185.275 78.048H184.987V77.808H186.139V77.088H184.603V76.848H183.691V76.608H184.555V75.648H183.643V75.36L183.163 75.648H183.115C182.347 76.096 181.515 76.416 180.619 76.608H180.811C180.555 76.64 180.299 76.688 180.043 76.752C179.787 76.784 179.515 76.816 179.227 76.848H178.027C177.835 76.88 177.643 76.896 177.451 76.896C177.259 76.896 177.067 76.896 176.875 76.896C176.651 76.896 176.427 76.896 176.203 76.896C175.979 76.896 175.771 76.88 175.579 76.848H176.731C176.443 76.816 176.155 76.784 175.867 76.752C175.579 76.688 175.291 76.64 175.003 76.608H174.859C174.379 76.512 173.915 76.384 173.467 76.224C173.051 76.064 172.635 75.872 172.219 75.648H172.267C172.139 75.584 172.011 75.52 171.883 75.456C171.755 75.36 171.627 75.264 171.499 75.168H172.603C172.411 75.008 172.219 74.848 172.027 74.688C171.867 74.528 171.707 74.368 171.547 74.208H167.659L167.419 73.968H169.627C169.371 73.648 169.147 73.328 168.955 73.008H169.579C169.355 72.688 169.179 72.368 169.051 72.048H168.955C168.795 71.696 168.667 71.376 168.571 71.088H165.067C165.067 71.024 165.067 70.976 165.067 70.944C165.035 70.912 165.019 70.88 165.019 70.848H168.283L168.139 70.368H168.379C168.347 70.208 168.299 70.048 168.235 69.888C168.203 69.728 168.171 69.568 168.139 69.408H168.715L168.571 68.448H167.947L167.899 67.968H166.747C166.715 67.808 166.699 67.648 166.699 67.488C166.699 67.328 166.683 67.168 166.651 67.008H166.219C166.219 66.88 166.219 66.768 166.219 66.672C166.187 66.544 166.171 66.416 166.171 66.288H166.843V65.808H167.707C167.707 65.68 167.691 65.568 167.659 65.472C167.659 65.344 167.659 65.216 167.659 65.088H168.091V64.368H167.323C167.323 64.24 167.323 64.128 167.323 64.032C167.323 63.904 167.339 63.776 167.371 63.648H167.467V63.6C167.467 63.472 167.467 63.36 167.467 63.264C167.499 63.168 167.515 63.056 167.515 62.928H167.707C167.739 62.8 167.755 62.688 167.755 62.592C167.755 62.464 167.771 62.336 167.803 62.208C167.835 62.144 167.851 62.064 167.851 61.968C167.851 61.872 167.867 61.792 167.899 61.728H167.659V61.488H167.947C167.979 61.328 168.011 61.168 168.043 61.008C168.075 60.816 168.107 60.656 168.139 60.528H168.091C168.123 60.4 168.155 60.288 168.187 60.192C168.219 60.064 168.251 59.936 168.283 59.808H168.667C168.731 59.648 168.779 59.488 168.811 59.328C168.875 59.136 168.939 58.976 169.003 58.848H169.243L169.339 58.608H168.667C168.699 58.544 168.731 58.464 168.763 58.368C168.795 58.272 168.827 58.192 168.859 58.128L169.147 57.408C169.179 57.344 169.195 57.296 169.195 57.264C169.227 57.232 169.259 57.2 169.291 57.168L169.435 56.928C169.499 56.864 169.547 56.784 169.579 56.688C169.643 56.592 169.707 56.512 169.771 56.448C169.803 56.384 169.835 56.336 169.867 56.304C169.899 56.272 169.931 56.24 169.963 56.208H169.867L170.443 55.488C170.539 55.424 170.619 55.344 170.683 55.248C170.779 55.152 170.859 55.072 170.923 55.008H171.019C171.051 54.944 171.083 54.896 171.115 54.864C171.179 54.832 171.227 54.8 171.259 54.768H171.787C171.979 54.576 172.187 54.416 172.411 54.288H171.211C171.339 54.192 171.467 54.112 171.595 54.048C171.723 53.952 171.851 53.872 171.979 53.808H172.315C172.763 53.552 173.307 53.312 173.947 53.088H175.531C176.683 52.736 177.915 52.56 179.227 52.56C180.379 52.56 181.451 52.736 182.443 53.088H180.859C181.371 53.248 181.883 53.488 182.395 53.808H182.107C182.235 53.872 182.347 53.952 182.443 54.048C182.571 54.112 182.699 54.192 182.827 54.288H183.979C184.107 54.352 184.219 54.432 184.315 54.528C184.411 54.624 184.507 54.704 184.603 54.768H184.075L184.315 55.008H184.267L184.699 55.488C184.763 55.52 184.811 55.568 184.843 55.632C184.907 55.696 184.955 55.76 184.987 55.824V55.488H185.179V55.008H185.995V54.768H186.523V54.288H184.171C184.171 54.096 184.219 53.936 184.315 53.808H185.131C185.291 53.424 185.563 53.184 185.947 53.088H184.987C185.083 53.056 185.211 53.04 185.371 53.04H193.771C193.931 53.04 194.043 53.056 194.107 53.088H195.067C195.451 53.184 195.723 53.424 195.883 53.808H195.067C195.131 54 195.163 54.16 195.163 54.288H197.515V54.768H196.987V55.008H196.171V55.488H195.979V56.208H196.027V56.928H195.979V58.128H196.027V58.608H196.699V58.848H196.411V59.808H195.979L196.027 60.528V61.728H195.883V62.208H195.739V62.928H196.027V63.648H196.603V64.368H195.595V65.088H195.931V65.808H196.027V66.288H194.443L194.491 67.008H194.683V67.968H195.739V68.448H196.603V69.408H195.979V70.368H195.787V70.848H192.475V71.088H195.979V72.048H196.075V73.008H195.403L195.451 73.968H193.243V74.208H197.131V75.168H195.403V75.648H196.315V76.608H195.451V76.848H196.363V77.088ZM180.187 67.968C180.411 68.192 180.699 68.352 181.051 68.448H181.627C181.755 68.48 181.883 68.512 182.011 68.544C182.171 68.544 182.315 68.544 182.443 68.544C182.603 68.544 182.747 68.544 182.875 68.544C183.035 68.512 183.179 68.48 183.307 68.448H182.443C182.795 68.352 183.083 68.192 183.307 67.968H182.251C182.507 67.712 182.683 67.392 182.779 67.008H182.587L182.731 66.288H184.267C184.267 66.224 184.283 66.176 184.315 66.144V65.808H184.219V65.088H183.931V64.368H184.891V63.648H184.267V63.552C184.267 63.424 184.251 63.312 184.219 63.216C184.219 63.12 184.203 63.024 184.171 62.928H183.931C183.899 62.672 183.819 62.432 183.691 62.208H183.787C183.691 62.016 183.579 61.856 183.451 61.728H183.595C183.467 61.6 183.371 61.52 183.307 61.488C182.987 61.264 182.523 61.152 181.915 61.152C181.307 61.152 180.843 61.264 180.523 61.488H180.235C180.171 61.52 180.075 61.6 179.947 61.728H180.187C180.059 61.856 179.947 62.016 179.851 62.208H179.803C179.771 62.304 179.739 62.416 179.707 62.544C179.675 62.64 179.627 62.768 179.563 62.928H179.371C179.339 63.056 179.307 63.184 179.275 63.312C179.275 63.408 179.275 63.52 179.275 63.648H179.131V63.936C179.099 64.032 179.083 64.176 179.083 64.368H179.851V65.088H179.419C179.419 65.216 179.419 65.344 179.419 65.472C179.451 65.568 179.467 65.664 179.467 65.76V65.808H178.603L178.651 66.288H177.979L178.123 67.008H178.555C178.651 67.392 178.827 67.712 179.083 67.968H180.187ZM184.939 75.168H185.371V74.832L184.939 75.168ZM200.108 49.008V48.048H200.06V47.328H200.492V47.088H200.78V46.128H200.54V45.408H200.588V44.448H200.78V43.728H200.684V43.296C200.684 43.04 200.716 42.864 200.78 42.768H201.26L201.404 42.528H201.02C201.276 42.176 201.628 42 202.076 42H210.188C210.635 42 210.988 42.176 211.244 42.528H211.628L211.772 42.768H211.244C211.34 42.896 211.388 43.072 211.388 43.296V43.728H211.484V44.448H211.292V45.408H211.244V46.128H211.484V47.088H211.196V47.328H210.764V48.048H210.812V49.008H211.148V49.104C211.148 49.392 211.036 49.68 210.812 49.968H210.236C210.012 50.256 209.692 50.4 209.276 50.4H201.164C200.748 50.4 200.412 50.256 200.156 49.968H200.732C200.54 49.712 200.444 49.424 200.444 49.104V49.008H200.108ZM209.996 59.088H214.508V60.048H212.876V60.528H211.052V61.488H212.444V61.728H211.532V62.208H211.676V62.688H211.916V63.408H209.516V64.128H211.1V64.848H210.812V65.328H211.628V66.048H211.82V66.768H211.532V67.488H211.772V67.968H211.532V68.928H211.436V69.648H211.244V70.368H211.436V70.848H211.532V71.808H211.34V72.288H211.58V72.768H211.532V73.488H211.724V74.208H211.868V74.448H211.532V75.408H210.859V76.368H211.34V76.704C211.34 76.864 211.324 76.992 211.292 77.088H210.956C210.86 77.408 210.684 77.648 210.428 77.808H211.388C211.228 77.936 210.988 78 210.668 78H202.076C201.788 78 201.564 77.936 201.404 77.808H200.444C200.156 77.648 199.964 77.408 199.868 77.088H200.204C200.172 76.992 200.156 76.864 200.156 76.704V76.368H199.676V75.408H200.348V74.448H200.684V74.208H200.54V73.488H200.348V72.768H200.396V72.288H200.156V71.808H200.348V70.848H200.252V70.368H200.06V69.648H200.252V68.928H200.348V67.968H200.588V67.488H200.348V66.768H200.636V66.048H200.444V65.328H199.628V64.848H199.916V64.128H198.332V63.408H200.732V62.688H200.492V62.208H200.348V61.728H201.26V61.488H199.868V60.528H201.692V60.048H203.324V59.088H198.812V58.608H202.796V57.648H201.355V56.928H202.22V55.968H200.684V55.728H200.348V55.248H200.06V54.528H200.396V54.336C200.396 53.984 200.476 53.728 200.636 53.568H200.684C200.94 53.216 201.292 53.04 201.74 53.04H210.332C210.78 53.04 211.132 53.216 211.388 53.568H211.292C211.484 53.76 211.58 54.016 211.58 54.336V54.528H211.244V55.248H211.532V55.728H211.868V55.968H213.404V56.928H212.54V57.648H213.98V58.608H209.996V59.088ZM244.916 73.728H242.948C242.756 74.048 242.532 74.368 242.276 74.688H243.14C243.108 74.752 243.044 74.832 242.948 74.928H240.836C240.708 75.056 240.58 75.184 240.452 75.312C240.356 75.408 240.228 75.52 240.068 75.648H240.02C239.86 75.776 239.684 75.904 239.492 76.032C239.332 76.128 239.156 76.24 238.964 76.368H238.1C237.812 76.56 237.492 76.736 237.14 76.896C236.788 77.024 236.436 77.168 236.084 77.328H235.892C235.796 77.36 235.684 77.392 235.556 77.424C235.46 77.456 235.332 77.504 235.172 77.568H240.644C240.516 77.6 240.372 77.632 240.212 77.664C240.084 77.696 239.94 77.744 239.78 77.808H237.38C236.964 77.904 236.532 77.984 236.084 78.048C235.636 78.144 235.172 78.224 234.692 78.288H233.252C232.74 78.352 232.196 78.4 231.62 78.432C231.044 78.464 230.436 78.48 229.796 78.48C229.188 78.48 228.612 78.464 228.068 78.432C227.556 78.4 227.06 78.352 226.58 78.288H227.972C227.524 78.224 227.092 78.144 226.676 78.048C226.26 77.984 225.86 77.904 225.476 77.808H227.876L227.06 77.568H221.588C221.492 77.504 221.38 77.456 221.252 77.424C221.156 77.392 221.044 77.36 220.916 77.328H221.06C220.708 77.168 220.356 77.008 220.004 76.848C219.684 76.688 219.364 76.528 219.044 76.368H219.908C219.716 76.24 219.524 76.128 219.332 76.032C219.172 75.904 219.012 75.776 218.852 75.648H218.948C218.788 75.52 218.644 75.408 218.516 75.312C218.388 75.184 218.26 75.056 218.132 74.928H220.196C220.164 74.864 220.132 74.816 220.1 74.784C220.068 74.752 220.036 74.72 220.004 74.688H219.092C218.964 74.528 218.836 74.368 218.708 74.208C218.58 74.048 218.452 73.888 218.324 73.728H220.34C220.212 73.568 220.116 73.408 220.052 73.248C219.988 73.056 219.924 72.896 219.86 72.768H218.948C218.884 72.64 218.852 72.56 218.852 72.528H217.364L217.22 72.048H216.116C216.084 71.952 216.068 71.808 216.068 71.616C216.068 71.36 216.084 71.184 216.116 71.088H216.452C216.612 70.704 216.868 70.464 217.22 70.368H217.124C217.188 70.336 217.3 70.32 217.46 70.32H226.004C226.036 70.32 226.068 70.336 226.1 70.368C226.164 70.368 226.212 70.368 226.244 70.368H226.34C226.596 70.432 226.82 70.528 227.012 70.656C227.236 70.784 227.46 70.928 227.684 71.088H227.396C227.652 71.248 227.924 71.408 228.212 71.568C228.5 71.696 228.836 71.76 229.22 71.76C229.476 71.76 229.716 71.712 229.94 71.616C230.164 71.488 230.292 71.312 230.324 71.088H230.468V71.04C230.468 70.752 230.404 70.528 230.276 70.368C230.148 70.176 229.94 70.016 229.652 69.888H229.076C228.756 69.728 228.324 69.568 227.78 69.408C227.268 69.248 226.548 69.088 225.62 68.928H226.052L225.284 68.784C225.028 68.72 224.772 68.672 224.516 68.64C224.26 68.576 224.004 68.512 223.748 68.448H223.94L223.124 68.208H223.22C222.804 68.08 222.404 67.936 222.02 67.776C221.636 67.616 221.268 67.44 220.916 67.248H221.108L219.956 66.528H219.86C219.636 66.368 219.428 66.208 219.236 66.048C219.076 65.888 218.916 65.728 218.756 65.568H217.748C217.716 65.504 217.684 65.456 217.652 65.424C217.62 65.392 217.588 65.36 217.556 65.328H217.988C217.892 65.232 217.828 65.152 217.796 65.088H216.452L215.924 64.368H217.988L217.7 63.888H217.028C216.868 63.536 216.74 63.216 216.644 62.928H216.932C216.932 62.864 216.916 62.816 216.884 62.784C216.884 62.752 216.884 62.72 216.884 62.688H219.14C219.14 62.56 219.108 62.4 219.044 62.208H214.82C214.82 62.08 214.82 61.968 214.82 61.872C214.788 61.744 214.756 61.616 214.724 61.488H214.772L214.724 61.008H217.94C217.908 60.944 217.892 60.864 217.892 60.768C217.892 60.64 217.892 60.528 217.892 60.432C217.924 60.304 217.94 60.176 217.94 60.048H215.684L215.732 59.568H217.892L218.036 59.088H217.076C217.108 59.024 217.14 58.944 217.172 58.848C217.204 58.752 217.236 58.672 217.268 58.608H216.884C216.948 58.48 217.012 58.368 217.076 58.272C217.14 58.144 217.188 58.016 217.22 57.888H217.412L217.7 57.408H217.652C217.716 57.28 217.796 57.168 217.892 57.072C217.988 56.944 218.084 56.816 218.18 56.688C218.276 56.56 218.372 56.448 218.468 56.352C218.564 56.224 218.676 56.096 218.804 55.968H218.708L218.948 55.728H218.9C218.932 55.664 218.964 55.616 218.996 55.584C219.06 55.552 219.108 55.52 219.14 55.488H219.236L219.812 55.008C219.876 54.944 219.924 54.896 219.956 54.864C220.02 54.832 220.084 54.8 220.148 54.768H219.236C219.78 54.416 220.372 54.096 221.012 53.808H222.5C222.596 53.744 222.692 53.696 222.788 53.664C222.884 53.632 222.996 53.6 223.124 53.568H219.86C219.988 53.504 220.1 53.456 220.196 53.424C220.324 53.392 220.452 53.36 220.58 53.328H222.644C223.444 53.072 224.292 52.88 225.188 52.752C226.116 52.624 227.092 52.56 228.116 52.56C229.172 52.56 230.164 52.624 231.092 52.752C232.02 52.88 232.884 53.072 233.684 53.328H231.62C231.748 53.36 231.86 53.392 231.956 53.424C232.084 53.456 232.212 53.504 232.34 53.568H235.556L236.228 53.808H234.74C235.092 53.936 235.428 54.096 235.748 54.288C236.068 54.448 236.372 54.608 236.66 54.768H237.572L237.956 55.008H238.004C238.132 55.072 238.244 55.152 238.34 55.248C238.468 55.344 238.58 55.424 238.676 55.488H238.628L238.916 55.728H238.964L239.252 55.968H239.348C239.636 56.192 239.876 56.432 240.068 56.688C240.324 56.912 240.516 57.152 240.644 57.408H240.692L240.98 57.888H240.74C240.804 58.016 240.868 58.144 240.932 58.272C240.996 58.368 241.044 58.48 241.076 58.608H241.412L241.556 59.088H242.468L242.516 59.424V59.568H243.332C243.332 59.696 243.3 59.856 243.236 60.048C243.012 60.496 242.692 60.72 242.276 60.72H234.212C233.892 60.72 233.588 60.656 233.3 60.528C233.044 60.368 232.788 60.208 232.532 60.048C232.308 59.888 232.052 59.728 231.764 59.568H230.948C230.628 59.376 230.276 59.28 229.892 59.28C229.572 59.28 229.316 59.376 229.124 59.568H227.012C226.852 59.728 226.772 59.888 226.772 60.048H229.028C229.028 60.208 229.06 60.368 229.124 60.528C229.188 60.688 229.332 60.848 229.556 61.008H226.388C226.548 61.072 226.724 61.152 226.916 61.248C227.108 61.344 227.348 61.424 227.636 61.488H227.588C227.972 61.616 228.452 61.728 229.028 61.824C229.636 61.92 230.34 62.032 231.14 62.16C231.204 62.16 231.252 62.176 231.284 62.208C231.348 62.208 231.396 62.208 231.428 62.208H235.652C236.036 62.272 236.404 62.352 236.756 62.448C237.14 62.512 237.492 62.592 237.812 62.688H235.556C235.684 62.72 235.796 62.752 235.892 62.784C236.02 62.816 236.148 62.864 236.276 62.928H235.988C236.404 63.056 236.772 63.2 237.092 63.36C237.444 63.52 237.78 63.696 238.1 63.888H238.82L239.588 64.368H237.524C237.684 64.496 237.844 64.624 238.004 64.752C238.164 64.848 238.308 64.96 238.436 65.088H239.78L240.02 65.328H239.588L239.828 65.568H240.788C241.14 65.92 241.396 66.24 241.556 66.528H241.652C241.748 66.656 241.828 66.784 241.892 66.912C241.956 67.008 242.02 67.12 242.084 67.248H241.892C241.956 67.408 242.02 67.568 242.084 67.728C242.18 67.888 242.244 68.048 242.276 68.208H242.132L242.228 68.448H242.036C242.068 68.512 242.084 68.592 242.084 68.688C242.084 68.784 242.1 68.864 242.132 68.928H241.7C241.796 69.248 241.844 69.568 241.844 69.888H242.468V70.224C242.468 70.352 242.452 70.496 242.42 70.656C242.42 70.784 242.42 70.928 242.42 71.088H242.276C242.244 71.248 242.212 71.408 242.18 71.568C242.18 71.728 242.148 71.888 242.084 72.048H243.188C243.188 72.208 243.14 72.368 243.044 72.528H244.58C244.516 72.656 244.484 72.736 244.484 72.768H245.396C245.332 72.928 245.252 73.088 245.156 73.248C245.092 73.408 245.012 73.568 244.916 73.728ZM268.241 72.528H267.089V73.008H268.817V73.488H270.401V74.208H269.297V74.928H272.513V75.648H267.281V76.608H267.665V76.704C267.665 76.768 267.649 76.816 267.617 76.848C267.553 77.168 267.441 77.408 267.281 77.568H266.897C266.769 77.696 266.673 77.776 266.609 77.808H268.241C268.081 77.936 267.857 78 267.569 78H262.145C261.601 78 261.057 77.984 260.513 77.952C260.001 77.92 259.505 77.872 259.025 77.808H257.393C257.169 77.776 256.945 77.744 256.721 77.712C256.497 77.648 256.257 77.6 256.001 77.568H256.385C255.969 77.472 255.569 77.36 255.185 77.232C254.833 77.104 254.481 76.976 254.129 76.848H254.177C254.081 76.784 253.985 76.736 253.889 76.704C253.793 76.672 253.713 76.64 253.649 76.608H253.265C253.009 76.448 252.753 76.304 252.497 76.176C252.241 76.016 251.985 75.84 251.729 75.648H257.009C256.881 75.52 256.737 75.408 256.577 75.312C256.449 75.184 256.321 75.056 256.193 74.928H252.977L252.353 74.208H253.505C253.409 74.08 253.313 73.968 253.217 73.872C253.153 73.744 253.089 73.616 253.025 73.488H251.441L251.153 73.008H249.425C249.393 72.944 249.361 72.864 249.329 72.768C249.297 72.672 249.249 72.592 249.185 72.528H250.385L250.097 71.808H251.057L250.913 71.328C250.849 71.136 250.817 70.976 250.817 70.848H254.609C254.577 70.72 254.545 70.608 254.513 70.512C254.513 70.384 254.513 70.256 254.513 70.128H249.041C249.041 70.064 249.025 70.016 248.993 69.984C248.993 69.952 248.993 69.92 248.993 69.888H248.849C248.849 69.76 248.833 69.648 248.801 69.552C248.801 69.424 248.801 69.296 248.801 69.168H248.657C248.657 69.04 248.641 68.928 248.609 68.832C248.609 68.704 248.609 68.576 248.609 68.448H249.281V68.208H248.849V67.728H248.465V66.768H249.041V65.808H248.465V65.088H248.897V64.608H248.945V63.888H249.185V62.208H249.281V61.488H249.521V61.44H245.729C245.249 61.44 244.865 61.216 244.577 60.768H245.297C245.201 60.576 245.153 60.368 245.153 60.144V59.808H243.617V59.088H243.953V58.128H243.713V57.648H243.809V57.168H244.529V56.928H243.329V56.208H244.769V55.488H244.481V55.008H244.145V54.288H243.857V54.048H243.713C243.809 53.568 244.113 53.248 244.625 53.088H244.913C245.009 53.056 245.137 53.04 245.297 53.04H249.089V52.848H249.281V52.128H248.897V51.648H248.849V50.928H248.657V50.688H247.505V50.208H246.401V49.968H246.785V49.728H247.889V48.768H248.321V48.288H246.785V47.808H249.137V47.088H248.897V46.848H248.369V46.368H248.849V46.128H248.369V45.408H248.801V45.216C248.801 45.056 248.833 44.88 248.897 44.688H249.521C249.745 44.176 250.145 43.92 250.721 43.92H259.121C259.633 43.92 260.033 44.176 260.321 44.688H259.697C259.761 44.88 259.793 45.056 259.793 45.216V45.408H259.361V46.128H259.841V46.368H259.361V46.848H259.889V47.088H260.129V47.808H257.777V48.288H259.313V48.768H258.881V49.728H257.777V49.968H257.393V50.208H258.497V50.688H259.649V50.928H259.841V51.648H259.889V52.128H260.273V52.848H260.081V53.04H266.129C266.289 53.04 266.401 53.056 266.465 53.088H266.177C266.625 53.248 266.929 53.568 267.089 54.048H267.233C267.233 54.08 267.233 54.112 267.233 54.144C267.265 54.176 267.281 54.224 267.281 54.288H267.569V55.008H267.905V55.488H268.193V56.208H266.753V56.928H267.953V57.168H267.233V57.648H267.137V58.128H267.377V59.088H267.041V59.808H268.577V60.144C268.577 60.272 268.561 60.384 268.529 60.48C268.497 60.576 268.449 60.672 268.385 60.768H267.713C267.425 61.216 267.041 61.44 266.561 61.44H260.513V61.488H260.273V62.208H260.177V63.888H259.937V64.608H259.889V65.088H259.457V65.808H260.033V66.768H259.457C259.457 66.928 259.457 67.088 259.457 67.248C259.489 67.408 259.521 67.568 259.553 67.728H259.985C260.049 67.92 260.113 68.08 260.177 68.208H260.561L260.705 68.448H260.033C260.385 68.896 260.929 69.12 261.665 69.12H266.033C266.193 69.12 266.305 69.136 266.369 69.168H266.513C266.897 69.264 267.169 69.504 267.329 69.888H267.473C267.473 69.92 267.473 69.952 267.473 69.984C267.505 70.016 267.521 70.064 267.521 70.128H272.993C272.993 70.16 272.993 70.208 272.993 70.272C273.025 70.304 273.041 70.352 273.041 70.416V70.848H269.201V71.808H268.241V72.528ZM295.42 64.848V65.328H301.516V65.808H297.82V66.288H296.092V66.768H297.58V67.056C297.58 67.248 297.564 67.392 297.532 67.488H298.204C297.98 68.064 297.564 68.352 296.956 68.352H282.652V68.448H284.572V68.592C284.572 68.72 284.572 68.864 284.572 69.024C284.572 69.152 284.588 69.28 284.62 69.408H282.028C282.028 69.504 282.028 69.6 282.028 69.696C282.06 69.76 282.076 69.824 282.076 69.888H281.788C281.788 70.016 281.82 70.176 281.884 70.368H282.076C282.236 70.816 282.492 71.136 282.844 71.328H281.548C281.772 71.456 282.076 71.52 282.46 71.52C282.716 71.52 282.924 71.456 283.084 71.328H285.34C285.468 71.264 285.58 71.168 285.676 71.04C285.804 70.912 285.948 70.784 286.108 70.656L286.396 70.368H285.484C285.772 70.112 286.204 69.984 286.78 69.984H295.852C296.236 69.984 296.524 70.112 296.716 70.368H297.58C297.74 70.592 297.82 70.816 297.82 71.04C297.788 71.104 297.772 71.2 297.772 71.328H295.516C295.452 71.648 295.356 71.968 295.228 72.288H292.876C292.78 72.448 292.7 72.608 292.636 72.768H298.588C298.524 72.928 298.428 73.088 298.3 73.248C298.204 73.408 298.092 73.568 297.964 73.728H296.524C296.396 73.92 296.268 74.08 296.14 74.208H296.476C296.444 74.24 296.412 74.272 296.38 74.304C296.348 74.336 296.316 74.384 296.284 74.448H293.596L293.356 74.688H294.172C294.14 74.72 294.092 74.752 294.028 74.784C293.996 74.816 293.964 74.864 293.932 74.928H295.42C295.196 75.152 294.908 75.392 294.556 75.648H293.836C293.804 75.68 293.756 75.712 293.692 75.744C293.628 75.776 293.564 75.824 293.5 75.888H292.972C292.46 76.24 291.9 76.56 291.292 76.848H290.668C290.284 77.04 289.868 77.216 289.42 77.376C289.004 77.536 288.556 77.68 288.076 77.808H287.308C286.956 77.904 286.588 77.984 286.204 78.048C285.82 78.144 285.404 78.224 284.956 78.288H286.972C286.524 78.352 286.06 78.4 285.58 78.432C285.1 78.464 284.588 78.48 284.044 78.48C283.532 78.48 283.02 78.464 282.508 78.432C281.996 78.4 281.5 78.352 281.02 78.288H279.004C278.588 78.224 278.188 78.144 277.804 78.048C277.42 77.984 277.036 77.904 276.652 77.808H277.42C276.556 77.584 275.74 77.264 274.972 76.848H275.596C275.02 76.528 274.524 76.208 274.108 75.888H274.636C274.572 75.824 274.508 75.776 274.444 75.744C274.412 75.712 274.364 75.68 274.3 75.648H275.02C274.892 75.52 274.764 75.408 274.636 75.312C274.508 75.184 274.38 75.056 274.252 74.928H272.716L272.476 74.688H271.66C271.628 74.624 271.596 74.576 271.564 74.544C271.532 74.512 271.5 74.48 271.468 74.448H274.108C274.076 74.384 274.012 74.304 273.916 74.208H273.58C273.516 74.144 273.452 74.064 273.388 73.968C273.324 73.872 273.26 73.792 273.196 73.728H274.636C274.54 73.568 274.444 73.408 274.348 73.248C274.252 73.088 274.156 72.928 274.06 72.768H268.06C267.964 72.608 267.884 72.448 267.82 72.288H270.172L269.74 71.328H271.036C270.972 71.168 270.908 71.008 270.844 70.848C270.812 70.688 270.764 70.528 270.7 70.368H270.556L270.412 69.888H270.748L270.604 69.408H273.196C273.164 69.248 273.132 69.088 273.1 68.928C273.068 68.768 273.036 68.608 273.004 68.448H271.084L270.988 67.488H270.316C270.316 67.36 270.3 67.248 270.268 67.152C270.268 67.024 270.268 66.896 270.268 66.768H268.78V66.288H270.46V65.808H274.156V65.328H268.06V65.232C268.06 65.072 268.076 64.944 268.108 64.848H276.412C276.412 64.72 276.412 64.608 276.412 64.512C276.444 64.384 276.46 64.256 276.46 64.128H268.828C268.828 64.064 268.828 64.016 268.828 63.984C268.86 63.952 268.876 63.92 268.876 63.888H272.044C272.044 63.792 272.06 63.712 272.092 63.648H275.644V63.408H268.876C268.908 63.248 268.94 63.088 268.972 62.928C269.004 62.768 269.036 62.608 269.068 62.448H270.892C270.892 62.32 270.924 62.16 270.988 61.968H269.404C269.404 61.904 269.404 61.856 269.404 61.824C269.436 61.792 269.452 61.76 269.452 61.728H270.604C270.604 61.664 270.604 61.616 270.604 61.584C270.636 61.552 270.652 61.52 270.652 61.488H269.452L269.548 61.248H270.7L270.844 60.768H271.756L272.044 60.048H271.18C271.244 59.888 271.308 59.728 271.372 59.568C271.436 59.376 271.516 59.216 271.612 59.088H271.468L271.564 58.848H270.364C270.428 58.72 270.46 58.64 270.46 58.608H269.356L269.644 58.128H271.996C272.028 58.064 272.092 57.984 272.188 57.888H273.052C273.18 57.728 273.292 57.568 273.388 57.408C273.516 57.216 273.644 57.056 273.772 56.928H272.908C273.004 56.8 273.1 56.688 273.196 56.592C273.324 56.464 273.452 56.336 273.58 56.208H275.452L275.932 55.728H273.1C273.516 55.376 273.932 55.056 274.348 54.768H276.988L277.372 54.528H276.508C276.764 54.368 277.068 54.208 277.42 54.048H279.292C280.156 53.632 281.052 53.312 281.98 53.088H279.292C279.996 52.928 280.732 52.8 281.5 52.704C282.268 52.608 283.068 52.56 283.9 52.56C284.732 52.56 285.516 52.608 286.252 52.704C286.988 52.8 287.692 52.928 288.364 53.088H291.004C291.484 53.216 291.932 53.36 292.348 53.52C292.796 53.68 293.228 53.856 293.644 54.048H291.772C291.932 54.112 292.076 54.192 292.204 54.288C292.364 54.352 292.508 54.432 292.636 54.528H293.5C293.564 54.56 293.628 54.592 293.692 54.624C293.756 54.656 293.82 54.704 293.884 54.768H291.244C291.66 55.056 292.076 55.376 292.492 55.728H295.372L295.852 56.208H293.98C294.108 56.336 294.22 56.464 294.316 56.592C294.444 56.688 294.556 56.8 294.652 56.928H295.516C295.644 57.056 295.756 57.216 295.852 57.408C295.98 57.568 296.108 57.728 296.236 57.888H295.324C295.356 57.952 295.42 58.032 295.516 58.128H293.116L293.404 58.608H294.508L294.652 58.848H295.9C295.9 58.88 295.932 58.96 295.996 59.088H296.14L296.572 60.048L296.86 60.768H296.908L297.052 61.248H296.476L296.572 61.488H297.004L297.1 61.728H297.868C297.868 61.76 297.868 61.792 297.868 61.824C297.9 61.856 297.916 61.904 297.916 61.968H297.532L297.676 62.448H295.852L295.996 63.408H302.764V63.648H299.212C299.212 63.68 299.212 63.712 299.212 63.744C299.244 63.776 299.26 63.824 299.26 63.888H296.044C296.076 63.952 296.092 64.032 296.092 64.128H303.724C303.724 64.256 303.724 64.384 303.724 64.512C303.724 64.608 303.74 64.72 303.772 64.848H295.42ZM280.828 61.728V61.968H282.364V62.352H286.204V61.968H286.54V61.728H285.772V61.488H285.292C285.292 61.392 285.276 61.312 285.244 61.248H285.82C285.82 61.12 285.788 60.96 285.724 60.768H285.676C285.644 60.48 285.548 60.24 285.388 60.048C285.068 59.536 284.572 59.28 283.9 59.28C283.26 59.28 282.78 59.536 282.46 60.048H283.324C283.196 60.24 283.1 60.48 283.036 60.768H282.076C282.076 60.832 282.06 60.912 282.028 61.008C282.028 61.072 282.012 61.152 281.98 61.248H280.828C280.828 61.344 280.812 61.424 280.78 61.488H281.98V61.728H280.828ZM322.446 56.688H324.27V57.648H324.174V58.608H322.494V59.328H322.926V60.288H322.542V61.248H321.678V61.488H318.654V61.824C318.654 61.888 318.638 61.952 318.606 62.016C318.606 62.08 318.59 62.144 318.558 62.208H319.662C319.502 62.816 319.086 63.12 318.414 63.12H312.222C312.094 63.12 311.966 63.12 311.838 63.12C311.742 63.12 311.646 63.136 311.55 63.168H313.47C313.31 63.2 313.166 63.232 313.038 63.264C312.91 63.296 312.766 63.344 312.606 63.408H314.19C314.094 63.44 313.95 63.52 313.758 63.648H314.67L314.382 63.888H314.622C314.43 64.08 314.286 64.32 314.19 64.608H312.75C312.686 64.736 312.654 64.816 312.654 64.848H312.174C312.174 64.88 312.158 64.912 312.126 64.944C312.126 64.976 312.126 65.024 312.126 65.088H312.702C312.67 65.152 312.654 65.232 312.654 65.328C312.654 65.392 312.638 65.472 312.606 65.568H312.894V66.288H312.222V66.768H312.894V67.488H313.614V68.448H312.558V68.688H311.79V68.928H314.67V69.648H313.23V70.128H313.71V70.608H312.606V71.568H311.982V71.808H311.358V72.528H312.99V73.248H312.126V73.968H312.99V74.208H312.894V74.688H311.838V75.168H312.606V76.128H312.798V76.848H312.606C312.542 77.296 312.334 77.616 311.982 77.808H311.55C311.39 77.936 311.166 78 310.878 78H301.758C301.47 78 301.246 77.936 301.086 77.808H301.518C301.166 77.616 300.958 77.296 300.894 76.848H301.086V76.128H300.894V75.168H300.126V74.688H301.182V74.208H301.278V73.968H300.414V73.248H301.278V72.528H299.646V71.808H300.27V71.568H300.894V70.608H301.998V70.128H301.518V69.648H302.958V68.928H300.078V68.688H300.846V68.448H301.902V67.488H301.182V66.768H300.51V66.288H301.182V65.568H300.894V65.088H300.318V64.848H300.798V64.608H302.238V63.888H301.998V63.648H301.134V63.408H299.55V63.168H297.63V62.208H296.574V61.488H299.598V61.248H300.462V60.288H300.846V59.328H300.414V58.608H302.094V57.648H302.19V56.688H300.366V55.968H301.902V55.008H300.414V54.768H300.894V54.336C300.894 54.176 300.926 54 300.99 53.808H300.942C301.166 53.296 301.566 53.04 302.142 53.04H310.542C311.086 53.04 311.47 53.296 311.694 53.808H311.79C311.854 54 311.886 54.176 311.886 54.336V54.768H311.406V55.008H312.894V55.152L313.086 55.008H313.182C313.246 54.944 313.31 54.896 313.374 54.864C313.438 54.832 313.486 54.8 313.518 54.768H313.614C314.254 54.352 314.878 54.032 315.486 53.808H315.582C316.222 53.552 316.862 53.36 317.502 53.232C318.142 53.104 318.814 53.04 319.518 53.04H321.822C322.398 53.04 322.798 53.296 323.022 53.808H322.926C322.99 54 323.022 54.176 323.022 54.336V54.768H322.974V55.008H322.878V55.968H322.446V56.688ZM357.802 77.568H356.218V78.528H356.65V79.008H356.746V79.968H357.082V80.208H357.37V80.688H358.09V81.408C358.09 81.504 358.074 81.584 358.042 81.648C357.978 82.128 357.722 82.448 357.274 82.608H356.842C356.65 82.672 356.49 82.704 356.362 82.704H327.322C327.194 82.704 327.034 82.672 326.842 82.608H327.274C326.826 82.448 326.554 82.128 326.458 81.648V80.688H325.738V80.208H325.45V79.968H325.114V79.008H325.018V78.528H324.586V77.568H326.17V77.328H326.554V76.848H324.538V76.608H325.354V75.888H325.162V74.928H325.21V74.592C325.21 74.432 325.226 74.304 325.258 74.208H324.97C325.194 73.6 325.61 73.296 326.218 73.296H355.258C355.93 73.296 356.346 73.6 356.506 74.208H356.746C356.778 74.272 356.794 74.336 356.794 74.4C356.826 74.464 356.842 74.528 356.842 74.592V74.928H356.794V75.888H356.986V76.608H356.17V76.848H358.186V77.328H357.802V77.568Z" fill="#FCF551"/>
</svg>
