<svg width="216" height="88" viewBox="0 0 216 88" fill="none" xmlns="http://www.w3.org/2000/svg">
<path d="M6.84006 -0.0100098V24.1L0.810059 30.13V60.67L6.03006 65.9V87.8H215.4V67.1L210.38 62.08V28.12L215.1 23.4V-0.0100098H6.84006Z" fill="#FCF551"/>
<path d="M56.06 60V34.8H65.06C66.788 34.8 68.216 35.124 69.344 35.772C70.496 36.396 71.348 37.224 71.9 38.256C72.476 39.288 72.764 40.416 72.764 41.64V42.72C72.764 43.656 72.5 44.592 71.972 45.528C71.468 46.464 70.676 47.184 69.596 47.688V48.12C70.316 48.216 70.88 48.504 71.288 48.984C71.696 49.44 71.9 50.088 71.9 50.928V60H68.876V51.576C68.876 50.952 68.732 50.472 68.444 50.136C68.156 49.8 67.652 49.632 66.932 49.632H59.084V60H56.06ZM59.084 46.824H64.7C68.06 46.824 69.74 45.384 69.74 42.504V41.856C69.74 40.584 69.32 39.564 68.48 38.796C67.664 38.004 66.404 37.608 64.7 37.608H59.084V46.824ZM84.655 60.504C82.687 60.504 81.079 59.856 79.831 58.56C78.583 57.264 77.959 55.344 77.959 52.8V42.144H80.767V52.44C80.767 54.312 81.151 55.68 81.919 56.544C82.687 57.408 83.863 57.84 85.447 57.84C87.151 57.84 88.483 57.264 89.443 56.112C90.427 54.936 90.919 53.376 90.919 51.432V42.144H93.727V60H90.919V56.76H90.487C89.911 57.912 89.155 58.824 88.219 59.496C87.283 60.168 86.095 60.504 84.655 60.504ZM100.218 60V57.408H106.698V37.392H100.434V34.8H109.506V57.408H115.986V60H100.218ZM130.217 60.504C128.513 60.504 127.001 60.12 125.681 59.352C124.385 58.56 123.365 57.48 122.621 56.112C121.877 54.72 121.505 53.112 121.505 51.288V50.424C121.505 48.744 121.889 47.244 122.657 45.924C123.425 44.604 124.469 43.56 125.789 42.792C127.133 42.024 128.633 41.64 130.289 41.64C131.753 41.64 133.013 41.904 134.069 42.432C135.149 42.96 136.025 43.632 136.697 44.448C137.393 45.264 137.897 46.14 138.209 47.076C138.545 47.988 138.713 48.84 138.713 49.632V51.936H124.313C124.385 53.688 124.937 55.116 125.969 56.22C127.025 57.3 128.465 57.84 130.289 57.84C131.993 57.84 133.265 57.48 134.105 56.76C134.945 56.04 135.521 55.176 135.833 54.168L138.497 54.888C137.993 56.544 137.057 57.9 135.689 58.956C134.345 59.988 132.521 60.504 130.217 60.504ZM124.385 49.344H135.905C135.857 48.312 135.557 47.424 135.005 46.68C134.477 45.912 133.793 45.324 132.953 44.916C132.113 44.508 131.225 44.304 130.289 44.304C128.705 44.304 127.373 44.784 126.293 45.744C125.213 46.704 124.577 47.904 124.385 49.344ZM152.476 60.504C150.628 60.504 149.116 60.192 147.94 59.568C146.764 58.92 145.888 58.104 145.312 57.12C144.736 56.112 144.412 55.08 144.34 54.024L147.004 53.376C147.124 54.744 147.652 55.848 148.588 56.688C149.548 57.504 150.796 57.912 152.332 57.912C153.652 57.912 154.708 57.66 155.5 57.156C156.316 56.628 156.724 55.896 156.724 54.96C156.724 53.952 156.328 53.232 155.536 52.8C154.744 52.368 153.46 52.092 151.684 51.972C149.644 51.828 148.06 51.348 146.932 50.532C145.828 49.692 145.276 48.504 145.276 46.968V46.752C145.276 45.624 145.588 44.688 146.212 43.944C146.836 43.176 147.64 42.6 148.624 42.216C149.608 41.832 150.652 41.64 151.756 41.64C153.34 41.64 154.648 41.916 155.68 42.468C156.736 42.996 157.54 43.692 158.092 44.556C158.644 45.396 158.98 46.272 159.1 47.184L156.436 47.832C156.34 46.68 155.884 45.78 155.068 45.132C154.252 44.484 153.196 44.16 151.9 44.16C150.892 44.16 149.992 44.376 149.2 44.808C148.408 45.24 148.012 45.888 148.012 46.752C148.012 47.616 148.372 48.276 149.092 48.732C149.836 49.188 151.18 49.488 153.124 49.632C155.188 49.8 156.772 50.304 157.876 51.144C158.98 51.96 159.532 53.16 159.532 54.744V54.96C159.532 56.688 158.872 58.044 157.552 59.028C156.256 60.012 154.564 60.504 152.476 60.504Z" fill="#661108"/>
</svg>
