<svg width="275" height="270" viewBox="0 0 275 270" fill="none" xmlns="http://www.w3.org/2000/svg">
<path d="M28.8402 25.3052L28.8933 227.577L56.3686 253.237L132.094 255.076L150.34 247.154H245.62V186.461L263.654 168.423V25.3052H28.8402Z" fill="#661109"/>
<g filter="url(#filter0_d_159_10513)">
<path d="M20 20L20.053 222.272L47.5284 247.932L123.254 249.771L141.5 241.848H236.78V181.156L254.814 163.118V20H20Z" fill="#FCF551"/>
</g>
<g filter="url(#filter1_d_159_10513)">
<path d="M203.458 182.361L186.676 171.492C186.477 171.381 186.233 171.315 186.022 171.315H165.684L167.822 137.202C167.822 136.869 167.723 136.526 167.501 136.293C167.268 136.05 166.947 135.928 166.626 135.928H106.365C106.043 135.928 105.722 136.061 105.489 136.304C105.268 136.537 105.157 136.858 105.157 137.191L107.295 171.304H86.979C86.7464 171.304 86.5248 171.359 86.3254 171.481L69.5542 182.349C69.0003 182.759 68.8231 183.491 69.1997 184.034C69.4323 184.399 69.8089 184.599 70.2188 184.599C70.4514 184.599 70.673 184.477 70.8724 184.399L87.3335 173.708H107.439L107.583 176.079C107.616 176.71 108.17 177.164 108.79 177.164H164.211C164.853 177.164 165.374 176.71 165.418 176.079L165.551 173.708H185.668L202.129 184.399C202.351 184.488 202.55 184.599 202.805 184.599C203.204 184.599 203.58 184.399 203.813 184.034C204.167 183.491 204.001 182.759 203.458 182.349V182.361ZM160.29 167.514L160.212 168.667L160.101 170.606L160.068 171.137L159.99 172.522C159.957 173.032 159.525 173.397 159.016 173.397H114.23C113.72 173.397 113.277 173.032 113.255 172.522L113.221 171.913L113.022 168.678L112.922 167.071V167.049L111.294 141.102C111.294 140.836 111.394 140.57 111.571 140.382C111.759 140.182 112.025 140.071 112.28 140.071H160.976C161.231 140.071 161.497 140.171 161.685 140.37C161.863 140.559 161.94 140.836 161.94 141.102L160.29 167.514Z" fill="#D360AA"/>
</g>
<path d="M134.412 155.616H134.455C134.455 155.703 134.441 155.775 134.412 155.833H134.383C134.383 155.842 134.373 155.866 134.354 155.905H134.34C134.311 155.943 134.277 155.982 134.239 156.02C134.21 156.049 134.172 156.083 134.123 156.121H134.109C134.099 156.131 134.085 156.14 134.066 156.15C134.047 156.159 134.027 156.174 134.008 156.193H134.224C134.215 156.193 134.21 156.198 134.21 156.208C134.21 156.208 134.205 156.208 134.196 156.208L134.008 156.337H134.152L134.051 156.409H133.878L133.547 156.626H133.374L133.157 156.77H133.258L132.624 157.203H132.335L132.018 157.419H132.191L132.09 157.491L131.254 158.068H131.211L130.994 158.212H131.009L130.576 158.5L130.475 158.572H130.374L130.259 158.645H130.533L130.317 158.789H130.605L130.187 159.077H130.144L129.711 159.366H130.273L129.841 159.654H129.019L128.601 159.942H129.149L128.932 160.087H128.572C128.543 160.067 128.519 160.043 128.5 160.014C128.49 159.995 128.476 159.971 128.456 159.942H127.923C127.904 159.904 127.894 159.87 127.894 159.841V159.654H128.716V159.366H128.168V159.077H128.197V158.789H127.908V158.645H127.649V158.572H127.75V158.212H127.735V158.068H127.779V157.779H127.764V157.419H127.591C127.601 157.342 127.625 157.27 127.663 157.203H127.952C128.009 157.116 128.082 157.044 128.168 156.986C128.197 156.967 128.226 156.948 128.255 156.929C128.283 156.909 128.307 156.895 128.327 156.885L128.514 156.77H128.413L128.629 156.626H128.817L129.163 156.409H129.336L129.451 156.337H129.307L129.538 156.193H129.322L129.783 155.905H129.797L129.913 155.833H129.942L130.288 155.616H130.245L130.706 155.328H130.692L130.749 155.299L130.677 155.256H130.663L130.432 155.112H130.403L130.288 155.04H130.345L129.884 154.751H129.668L129.192 154.463H129.365L129.019 154.246H129.062L128.831 154.102H128.687L128.572 154.03H128.658L128.428 153.886L128.168 153.727C128.101 153.689 128.033 153.646 127.966 153.598H127.793C127.755 153.559 127.711 153.521 127.663 153.482C127.625 153.434 127.591 153.376 127.562 153.309H128.038L127.995 153.165H127.087C127.077 153.146 127.072 153.122 127.072 153.093V153.021H128.312V152.877H128.399V152.588H127.865V152.372H127.245V152.156H126.755V151.867H128.182V151.795H127.26V151.507H127.043V151.29H128.211V151.074H127.995V150.858H127.981V150.714H127.793C127.812 150.54 127.913 150.454 128.096 150.454C128.115 150.454 128.134 150.459 128.154 150.468C128.182 150.468 128.216 150.478 128.255 150.497L128.572 150.714H128.759L128.976 150.858H128.99L129.322 151.074H129.538L129.855 151.29H128.687L129.004 151.507H129.221L129.639 151.795H130.576L130.677 151.867H129.235L129.668 152.156H130.158L130.475 152.372H131.11L131.427 152.588H131.96L132.393 152.877H132.292L132.508 153.021H131.283L131.485 153.165H132.408L132.624 153.309H132.162L132.581 153.598H132.768L133.186 153.886H133.201L133.417 154.03H133.316L133.431 154.102H133.561L133.777 154.246H133.749L133.965 154.391C133.984 154.4 134.003 154.41 134.023 154.419C134.042 154.429 134.056 154.443 134.066 154.463H133.893C133.95 154.501 134.003 154.544 134.051 154.592C134.099 154.641 134.133 154.693 134.152 154.751H134.383C134.412 154.818 134.426 154.9 134.426 154.996V155.04H134.369V155.112H134.397V155.256H134.412V155.616ZM128.226 160.144C128.149 160.144 128.086 160.125 128.038 160.087H128.413L128.384 160.101C128.346 160.12 128.312 160.13 128.283 160.13C128.264 160.139 128.245 160.144 128.226 160.144ZM145.041 159.87H144.565V160.159H144.695V160.303H144.723V160.591H144.824V160.663H144.911V160.808H145.127V161.024C145.127 161.053 145.122 161.077 145.113 161.096C145.094 161.24 145.017 161.336 144.882 161.384H144.752C144.695 161.404 144.647 161.413 144.608 161.413H135.884C135.846 161.413 135.797 161.404 135.74 161.384H135.87C135.735 161.336 135.653 161.24 135.624 161.096V160.808H135.408V160.663H135.322V160.591H135.221V160.303H135.192V160.159H135.062V159.87H135.538V159.798H135.653V159.654H135.048V159.582H135.293V159.366H135.235V159.077H135.249V158.976C135.249 158.928 135.254 158.89 135.264 158.861H135.177C135.245 158.678 135.37 158.587 135.552 158.587H144.276C144.478 158.587 144.603 158.678 144.651 158.861H144.723C144.733 158.88 144.738 158.899 144.738 158.918C144.747 158.938 144.752 158.957 144.752 158.976V159.077H144.738V159.366H144.796V159.582H144.55V159.654H145.156V159.798H145.041V159.87Z" fill="#D360AA"/>
<g filter="url(#filter2_d_159_10513)">
<path d="M103.063 172.888C103.241 172.976 103.396 173.01 103.573 173.01C104.016 173.01 104.47 172.744 104.67 172.29C104.947 171.691 104.67 170.971 104.06 170.727L94.1794 166.296C91.2217 164.722 93.2821 159.205 93.3486 159.05L98.7987 140.149C98.7987 140.149 99.4079 137.346 100.77 133.335C103.052 126.588 112.114 121.89 114.95 120.55L116.467 124.206C118.771 129.014 124.21 133.479 124.465 133.656C124.687 133.845 124.964 133.944 125.229 133.944C125.584 133.944 125.95 133.8 126.149 133.501C126.592 132.981 126.503 132.216 125.983 131.773C125.938 131.74 120.732 127.452 118.694 123.187L115.049 114.567C115.005 114.445 113.587 111.553 116.39 106.767L126.725 89.5281C126.758 89.4727 131.012 82.382 136.606 82.382C142.2 82.382 146.443 89.4727 146.509 89.5613L156.833 106.745C159.636 111.565 158.218 114.445 158.174 114.578C158.141 114.611 158.13 114.656 158.096 114.667L154.574 123.153C152.502 127.463 147.274 131.762 147.218 131.806C146.72 132.216 146.631 132.981 147.041 133.501C147.296 133.789 147.639 133.944 147.994 133.944C148.259 133.944 148.525 133.856 148.758 133.656C149.002 133.49 154.441 129.014 156.756 124.128L158.274 120.539C161.098 121.868 170.149 126.577 172.442 133.324C173.804 137.324 174.413 140.105 174.447 140.215L179.919 159.127C179.952 159.216 182.035 164.722 179.143 166.251L169.185 170.727C168.576 170.993 168.299 171.702 168.576 172.301C168.775 172.755 169.207 173.021 169.683 173.021C169.849 173.021 169.993 172.987 170.182 172.899L180.196 168.445C185.014 165.841 182.289 158.596 182.212 158.396L176.806 139.639C176.773 139.517 176.13 136.703 174.735 132.571C172.098 124.782 162.25 119.73 159.226 118.323L160.334 115.653C160.622 115.066 162.25 111.221 158.905 105.537L148.581 88.3426C148.381 87.9881 143.596 80 136.617 80C129.638 80 124.853 87.9881 124.665 88.3426L114.34 105.571C110.995 111.243 112.612 115.066 112.922 115.653L114.03 118.323C111.006 119.73 101.136 124.782 98.4885 132.571C97.0706 136.703 96.4503 139.528 96.4503 139.551L91.0445 158.297C90.9115 158.607 88.1976 165.864 93.0938 168.478L103.063 172.91V172.888Z" fill="#D360AA"/>
</g>
<g filter="url(#filter3_d_159_10513)">
<path d="M146.565 114.91L142.422 126.965C141.901 128.416 140.328 129.568 138.755 129.568H134.512C132.95 129.568 131.333 128.416 130.835 126.954L126.703 114.899L125.529 115.775L129.749 128.084C130.347 129.823 132.264 131.197 134.125 131.197H139.165C141.037 131.197 142.909 129.823 143.518 128.095L147.75 115.797L146.576 114.91H146.565Z" fill="#D360AA"/>
<path d="M152.192 113.581L140.25 104.562C138.223 103.034 135.033 103.034 132.995 104.562L121.053 113.581C120.499 113.991 120.411 114.722 120.787 115.276C121.197 115.786 121.962 115.908 122.482 115.509L123.712 114.6L133.571 107.166C135.277 105.87 137.969 105.87 139.674 107.166L149.733 114.755C149.733 114.755 149.744 114.777 149.755 114.777L150.73 115.509C150.951 115.675 151.217 115.752 151.472 115.752C151.826 115.752 152.203 115.575 152.425 115.265C152.834 114.711 152.713 113.98 152.192 113.57V113.581Z" fill="#D360AA"/>
</g>
<defs>
<filter id="filter0_d_159_10513" x="0" y="0" width="274.814" height="269.771" filterUnits="userSpaceOnUse" color-interpolation-filters="sRGB">
<feFlood flood-opacity="0" result="BackgroundImageFix"/>
<feColorMatrix in="SourceAlpha" type="matrix" values="0 0 0 0 0 0 0 0 0 0 0 0 0 0 0 0 0 0 127 0" result="hardAlpha"/>
<feOffset/>
<feGaussianBlur stdDeviation="10"/>
<feColorMatrix type="matrix" values="0 0 0 0 0 0 0 0 0 0 0 0 0 0 0 0 0 0 1 0"/>
<feBlend mode="normal" in2="BackgroundImageFix" result="effect1_dropShadow_159_10513"/>
<feBlend mode="normal" in="SourceGraphic" in2="effect1_dropShadow_159_10513" result="shape"/>
</filter>
<filter id="filter1_d_159_10513" x="49" y="115.928" width="175" height="88.6709" filterUnits="userSpaceOnUse" color-interpolation-filters="sRGB">
<feFlood flood-opacity="0" result="BackgroundImageFix"/>
<feColorMatrix in="SourceAlpha" type="matrix" values="0 0 0 0 0 0 0 0 0 0 0 0 0 0 0 0 0 0 127 0" result="hardAlpha"/>
<feOffset/>
<feGaussianBlur stdDeviation="10"/>
<feColorMatrix type="matrix" values="0 0 0 0 0.827451 0 0 0 0 0.376471 0 0 0 0 0.666667 0 0 0 1 0"/>
<feBlend mode="normal" in2="BackgroundImageFix" result="effect1_dropShadow_159_10513"/>
<feBlend mode="normal" in="SourceGraphic" in2="effect1_dropShadow_159_10513" result="shape"/>
</filter>
<filter id="filter2_d_159_10513" x="70.1753" y="60" width="132.874" height="133.021" filterUnits="userSpaceOnUse" color-interpolation-filters="sRGB">
<feFlood flood-opacity="0" result="BackgroundImageFix"/>
<feColorMatrix in="SourceAlpha" type="matrix" values="0 0 0 0 0 0 0 0 0 0 0 0 0 0 0 0 0 0 127 0" result="hardAlpha"/>
<feOffset/>
<feGaussianBlur stdDeviation="10"/>
<feColorMatrix type="matrix" values="0 0 0 0 0.827451 0 0 0 0 0.376471 0 0 0 0 0.666667 0 0 0 1 0"/>
<feBlend mode="normal" in2="BackgroundImageFix" result="effect1_dropShadow_159_10513"/>
<feBlend mode="normal" in="SourceGraphic" in2="effect1_dropShadow_159_10513" result="shape"/>
</filter>
<filter id="filter3_d_159_10513" x="100.559" y="83.4158" width="72.1111" height="67.781" filterUnits="userSpaceOnUse" color-interpolation-filters="sRGB">
<feFlood flood-opacity="0" result="BackgroundImageFix"/>
<feColorMatrix in="SourceAlpha" type="matrix" values="0 0 0 0 0 0 0 0 0 0 0 0 0 0 0 0 0 0 127 0" result="hardAlpha"/>
<feOffset/>
<feGaussianBlur stdDeviation="10"/>
<feColorMatrix type="matrix" values="0 0 0 0 0.827451 0 0 0 0 0.376471 0 0 0 0 0.666667 0 0 0 1 0"/>
<feBlend mode="normal" in2="BackgroundImageFix" result="effect1_dropShadow_159_10513"/>
<feBlend mode="normal" in="SourceGraphic" in2="effect1_dropShadow_159_10513" result="shape"/>
</filter>
</defs>
</svg>
