<svg width="276" height="270" viewBox="0 0 276 270" fill="none" xmlns="http://www.w3.org/2000/svg">
<path d="M28.866 25.3088L28.9192 227.719L56.4746 253.397L132.421 255.22L150.72 247.309H246.278V186.558L264.364 168.508V25.3088H28.866Z" fill="#661109"/>
<g filter="url(#filter0_d_159_10484)">
<path d="M20 20L20.0532 222.411L47.6087 248.088L123.555 249.911L141.854 242.001H237.412V181.249L255.498 163.199V20H20Z" fill="#FCF551"/>
</g>
<g filter="url(#filter1_d_159_10484)">
<path d="M84 83V162.258H191.91V83H84ZM188.201 159.546H87.6975V85.7243H188.201V159.546Z" fill="#D360AA"/>
</g>
<path d="M130.448 122.272H130.544C130.544 122.464 130.512 122.624 130.448 122.752H130.384C130.384 122.773 130.363 122.827 130.32 122.912H130.288C130.224 122.997 130.149 123.083 130.064 123.168C130 123.232 129.915 123.307 129.808 123.392H129.776C129.755 123.413 129.723 123.435 129.68 123.456C129.637 123.477 129.595 123.509 129.552 123.552H130.032C130.011 123.552 130 123.563 130 123.584C130 123.584 129.989 123.584 129.968 123.584L129.552 123.872H129.872L129.648 124.032H129.264L128.528 124.512H128.144L127.664 124.832H127.888L126.48 125.792H125.84L125.136 126.272H125.52L125.296 126.432L123.44 127.712H123.344L122.864 128.032H122.896L121.936 128.672L121.712 128.832H121.488L121.232 128.992H121.84L121.36 129.312H122L121.072 129.952H120.976L120.016 130.592H121.264L120.304 131.232H118.48L117.552 131.872H118.768L118.288 132.192H117.488C117.424 132.149 117.371 132.096 117.328 132.032C117.307 131.989 117.275 131.936 117.232 131.872H116.048C116.005 131.787 115.984 131.712 115.984 131.648V131.232H117.808V130.592H116.592V129.952H116.656V129.312H116.016V128.992H115.44V128.832H115.664V128.032H115.632V127.712H115.728V127.072H115.696V126.272H115.312C115.333 126.101 115.387 125.941 115.472 125.792H116.112C116.24 125.6 116.4 125.44 116.592 125.312C116.656 125.269 116.72 125.227 116.784 125.184C116.848 125.141 116.901 125.109 116.944 125.088L117.36 124.832H117.136L117.616 124.512H118.032L118.8 124.032H119.184L119.44 123.872H119.12L119.632 123.552H119.152L120.176 122.912H120.208L120.464 122.752H120.528L121.296 122.272H121.2L122.224 121.632H122.192L122.32 121.568L122.16 121.472H122.128L121.616 121.152H121.552L121.296 120.992H121.424L120.4 120.352H119.92L118.864 119.712H119.248L118.48 119.232H118.576L118.064 118.912H117.744L117.488 118.752H117.68L117.168 118.432L116.592 118.08C116.443 117.995 116.293 117.899 116.144 117.792H115.76C115.675 117.707 115.579 117.621 115.472 117.536C115.387 117.429 115.312 117.301 115.248 117.152H116.304L116.208 116.832H114.192C114.171 116.789 114.16 116.736 114.16 116.672V116.512H116.912V116.192H117.104V115.552H115.92V115.072H114.544V114.592H113.456V113.952H116.624V113.792H114.576V113.152H114.096V112.672H116.688V112.192H116.208V111.712H116.176V111.392H115.76C115.803 111.008 116.027 110.816 116.432 110.816C116.475 110.816 116.517 110.827 116.56 110.848C116.624 110.848 116.699 110.869 116.784 110.912L117.488 111.392H117.904L118.384 111.712H118.416L119.152 112.192H119.632L120.336 112.672H117.744L118.448 113.152H118.928L119.856 113.792H121.936L122.16 113.952H118.96L119.92 114.592H121.008L121.712 115.072H123.12L123.824 115.552H125.008L125.968 116.192H125.744L126.224 116.512H123.504L123.952 116.832H126L126.48 117.152H125.456L126.384 117.792H126.8L127.728 118.432H127.76L128.24 118.752H128.016L128.272 118.912H128.56L129.04 119.232H128.976L129.456 119.552C129.499 119.573 129.541 119.595 129.584 119.616C129.627 119.637 129.659 119.669 129.68 119.712H129.296C129.424 119.797 129.541 119.893 129.648 120C129.755 120.107 129.829 120.224 129.872 120.352H130.384C130.448 120.501 130.48 120.683 130.48 120.896V120.992H130.352V121.152H130.416V121.472H130.448V122.272ZM116.72 132.32C116.549 132.32 116.411 132.277 116.304 132.192H117.136L117.072 132.224C116.987 132.267 116.912 132.288 116.848 132.288C116.805 132.309 116.763 132.32 116.72 132.32ZM154.035 131.712H152.979V132.352H153.267V132.672H153.331V133.312H153.555V133.472H153.747V133.792H154.227V134.272C154.227 134.336 154.216 134.389 154.195 134.432C154.152 134.752 153.981 134.965 153.683 135.072H153.395C153.267 135.115 153.16 135.136 153.075 135.136H133.715C133.629 135.136 133.523 135.115 133.395 135.072H133.683C133.384 134.965 133.203 134.752 133.139 134.432V133.792H132.659V133.472H132.467V133.312H132.243V132.672H132.179V132.352H131.891V131.712H132.947V131.552H133.203V131.232H131.859V131.072H132.403V130.592H132.275V129.952H132.307V129.728C132.307 129.621 132.317 129.536 132.339 129.472H132.147C132.296 129.067 132.573 128.864 132.979 128.864H152.339C152.787 128.864 153.064 129.067 153.171 129.472H153.331C153.352 129.515 153.363 129.557 153.363 129.6C153.384 129.643 153.395 129.685 153.395 129.728V129.952H153.363V130.592H153.491V131.072H152.947V131.232H154.291V131.552H154.035V131.712Z" fill="#D360AA"/>
<g filter="url(#filter2_d_159_10484)">
<path d="M153.069 172.518C151.47 171.324 149.72 170.338 147.888 169.562V163.684H127.999V169.365C126.028 170.153 124.151 171.208 122.447 172.518C116.582 177.051 114.519 183.264 113.8 186H162.076C161.299 183.264 159.074 177.027 153.069 172.518ZM126.028 173.051C127.338 172.043 128.787 171.231 130.294 170.628V166.258H145.593V170.779C147.008 171.37 148.352 172.124 149.581 173.051C154.205 176.517 155.909 181.317 156.512 183.415H119.375C119.931 181.317 121.519 176.529 126.028 173.051Z" fill="#D360AA"/>
</g>
<defs>
<filter id="filter0_d_159_10484" x="0" y="0" width="275.498" height="269.911" filterUnits="userSpaceOnUse" color-interpolation-filters="sRGB">
<feFlood flood-opacity="0" result="BackgroundImageFix"/>
<feColorMatrix in="SourceAlpha" type="matrix" values="0 0 0 0 0 0 0 0 0 0 0 0 0 0 0 0 0 0 127 0" result="hardAlpha"/>
<feOffset/>
<feGaussianBlur stdDeviation="10"/>
<feColorMatrix type="matrix" values="0 0 0 0 0 0 0 0 0 0 0 0 0 0 0 0 0 0 1 0"/>
<feBlend mode="normal" in2="BackgroundImageFix" result="effect1_dropShadow_159_10484"/>
<feBlend mode="normal" in="SourceGraphic" in2="effect1_dropShadow_159_10484" result="shape"/>
</filter>
<filter id="filter1_d_159_10484" x="64" y="63" width="147.91" height="119.259" filterUnits="userSpaceOnUse" color-interpolation-filters="sRGB">
<feFlood flood-opacity="0" result="BackgroundImageFix"/>
<feColorMatrix in="SourceAlpha" type="matrix" values="0 0 0 0 0 0 0 0 0 0 0 0 0 0 0 0 0 0 127 0" result="hardAlpha"/>
<feOffset/>
<feGaussianBlur stdDeviation="10"/>
<feColorMatrix type="matrix" values="0 0 0 0 0.827451 0 0 0 0 0.376471 0 0 0 0 0.666667 0 0 0 0.75 0"/>
<feBlend mode="normal" in2="BackgroundImageFix" result="effect1_dropShadow_159_10484"/>
<feBlend mode="normal" in="SourceGraphic" in2="effect1_dropShadow_159_10484" result="shape"/>
</filter>
<filter id="filter2_d_159_10484" x="93.7999" y="143.684" width="88.2756" height="62.3157" filterUnits="userSpaceOnUse" color-interpolation-filters="sRGB">
<feFlood flood-opacity="0" result="BackgroundImageFix"/>
<feColorMatrix in="SourceAlpha" type="matrix" values="0 0 0 0 0 0 0 0 0 0 0 0 0 0 0 0 0 0 127 0" result="hardAlpha"/>
<feOffset/>
<feGaussianBlur stdDeviation="10"/>
<feColorMatrix type="matrix" values="0 0 0 0 0.827451 0 0 0 0 0.376471 0 0 0 0 0.666667 0 0 0 0.75 0"/>
<feBlend mode="normal" in2="BackgroundImageFix" result="effect1_dropShadow_159_10484"/>
<feBlend mode="normal" in="SourceGraphic" in2="effect1_dropShadow_159_10484" result="shape"/>
</filter>
</defs>
</svg>
