<svg width="275" height="270" viewBox="0 0 275 270" fill="none" xmlns="http://www.w3.org/2000/svg">
<path d="M28.8342 25.3052L28.8696 227.577L56.3439 253.237L132 255.076L150.234 247.154H245.466V186.461L263.47 168.423V25.3052H28.8342Z" fill="#661109"/>
<g filter="url(#filter0_d_149_2293)">
<path d="M20 20L20.0353 222.272L47.5097 247.932L123.166 249.771L141.4 241.848H236.632V181.156L254.636 163.118V20H20Z" fill="#FCF551"/>
</g>
<g filter="url(#filter1_d_149_2293)">
<path d="M134.68 86.267C134.68 75.4948 123.722 71.019 117.849 71.019C114.324 71.019 107.337 73.238 103.488 78.0361C101.605 80.3878 100.754 83.0619 100.977 85.8877C97.4933 85.4135 91.8019 85.2998 88.3587 90.4962C85.8674 94.2323 85.6244 97.3236 85.8877 99.3339C82.2622 99.7511 75.8012 101.42 73.2897 107.906C71.4061 112.78 71.7301 117.806 73.3302 121.808C73.3302 121.808 73.3302 121.808 73.3302 121.827C73.6948 122.945 74.3226 124.159 75.2543 125.354C75.2543 125.354 75.2746 125.392 75.2948 125.411C75.3556 125.487 75.4164 125.582 75.4974 125.657C75.8822 126.151 76.267 126.625 76.6924 127.023C75.0518 128.275 74.0999 130.095 73.8771 133.414C73.634 137.15 75.3556 141.645 78.3735 143.959C76.3278 145.931 74.5049 148.89 74.9505 155.11C75.3556 158.941 77.6443 162.829 80.9255 165.276C82.6471 166.546 84.5712 167.324 86.5156 167.608C86.6371 167.646 86.7789 167.665 86.9207 167.684C86.9612 167.684 87.0219 167.684 87.0624 167.684C87.1232 167.684 87.184 167.703 87.2245 167.703C87.5485 169.505 88.622 171.515 89.8575 173.013C91.9032 175.479 94.4957 176.92 97.3515 177.148C98.1819 180.201 100.045 184.791 105.554 185.397C105.98 188.299 107.053 190.689 108.755 192.566C110.901 194.899 113.94 196.246 117.565 196.473C117.93 196.492 118.294 196.511 118.659 196.511C122.993 196.511 127.449 194.899 130.548 192.168C133.221 189.816 134.659 186.801 134.639 183.672V116.611V86.4566C134.639 86.4566 134.639 86.3428 134.639 86.2859L134.68 86.267ZM130.811 112.23C129.211 111.358 127.267 110.713 125.262 110.447C119.833 109.765 115.195 112.097 112.522 116.877C109.463 122.926 111.874 127.478 113.595 129.64C115.823 132.466 119.206 134.343 121.94 134.343C122.183 134.343 122.426 134.343 122.669 134.287C123.722 134.135 124.451 133.225 124.31 132.238C124.168 131.252 123.175 130.55 122.122 130.702C121.19 130.835 118.578 129.868 116.694 127.478C115.236 125.62 113.919 122.528 115.965 118.47C118.294 114.297 121.839 113.709 124.411 113.975C128.016 114.316 130.467 116.232 130.791 116.915V183.672C130.791 186.403 129.231 188.356 127.915 189.532C125.322 191.827 121.454 193.078 117.828 192.851C116.046 192.737 113.514 192.187 111.691 190.177C109.747 188.053 108.917 184.677 109.281 180.448C109.544 178.513 112.117 174.682 115.56 173.07C117.525 172.141 119.428 172.141 121.17 173.07C122.102 173.563 123.277 173.26 123.803 172.387C124.33 171.515 124.006 170.415 123.074 169.922C120.178 168.386 116.998 168.348 113.838 169.827C113.778 169.865 113.717 169.903 113.636 169.941C112.805 169.144 111.55 168.594 109.99 168.424C107.357 168.139 104.44 168.974 103.954 171.136C103.732 172.122 104.4 173.07 105.453 173.279C106.365 173.449 107.276 172.994 107.62 172.217C107.985 172.065 108.937 171.894 109.909 172.084C110.071 172.122 110.213 172.16 110.334 172.198C107.641 174.568 105.757 177.717 105.433 180.087C105.392 180.618 105.372 181.149 105.352 181.661C102.456 180.96 101.524 178.191 100.754 174.929L100.39 173.374L98.6883 173.506C96.2375 173.715 94.4147 172.406 93.3412 171.268C92.1057 169.979 91.4171 168.5 91.1335 167.513C96.5616 166.774 103.266 163.607 105.028 154.959C105.635 154.75 106.243 154.503 106.83 154.162C106.871 154.162 106.891 154.124 106.911 154.105C109.119 152.948 111.428 151.071 112.988 148.662C114.79 145.855 115.276 142.84 114.365 139.938C114.061 138.971 112.988 138.421 111.975 138.705C110.942 138.99 110.375 139.995 110.658 140.943C111.266 142.859 110.922 144.831 109.686 146.766C108.43 148.7 106.425 150.274 104.663 151.109C104.623 151.128 104.582 151.147 104.521 151.165C103.954 151.431 103.407 151.602 102.942 151.697C98.8098 152.436 94.678 148.738 94.6374 148.681C93.888 147.979 92.6525 147.998 91.9032 148.7C91.1538 149.402 91.174 150.559 91.9234 151.26C92.1462 151.469 96.0552 154.996 100.916 155.395C99.3364 160.8 95.2451 162.829 91.9437 163.588L88.865 163.986C88.6828 164.005 88.5005 164.005 88.2979 164.024C87.8523 164.024 87.5485 164.024 87.3662 164.005C87.3662 164.005 87.3257 164.005 87.3055 164.005C87.2852 164.005 87.2447 164.005 87.2447 164.005C85.6041 163.815 84.2269 163.057 83.2749 162.355C80.8242 160.534 79.0418 157.519 78.738 154.731C78.2924 148.491 80.4394 146.822 82.6876 145.059L85.8674 142.574L82.1002 141.74C79.6697 141.209 77.4418 137.074 77.6646 133.547C77.8671 130.626 78.5557 129.849 79.9128 129.204C81.9179 130.304 84.3484 131.157 87.3055 131.537C87.9941 131.631 88.6423 131.669 89.2904 131.669C91.5183 131.669 93.5032 131.176 95.2451 130.475C96.1362 130.968 97.9591 132.428 97.8578 134.419C97.6958 137.416 95.4476 139.692 95.3868 139.749C94.6577 140.469 94.678 141.607 95.4476 142.309C95.8122 142.65 96.2983 142.821 96.7844 142.821C97.2705 142.821 97.7971 142.631 98.1819 142.271C98.3237 142.138 101.483 139.028 101.726 134.609C101.868 132.068 100.491 129.963 98.8503 128.54C101.342 126.814 102.8 124.994 102.921 124.823C103.549 124.007 103.347 122.889 102.496 122.301C101.625 121.713 100.43 121.902 99.8022 122.699C99.7617 122.737 97.6958 125.354 94.2931 126.928C92.4905 127.763 90.3233 128.294 87.8726 127.99C85.908 127.744 84.2674 127.232 82.8901 126.587L81.5331 125.885C80.1963 125.089 79.1836 124.14 78.4545 123.249C76.1658 120.044 74.8087 114.563 76.9152 109.082C79.0216 103.601 85.3611 102.88 87.5283 102.786L93.2399 108.304C92.0044 108.968 90.5259 109.385 88.7638 109.461C87.6903 109.499 86.8802 110.353 86.9207 111.358C86.9612 112.325 87.8321 113.084 88.8448 113.084C88.865 113.084 88.9056 113.084 88.9258 113.084C92.6931 112.913 95.7109 111.699 97.8781 109.442C101.645 105.498 101.321 99.8839 101.321 99.6374C101.261 98.6322 100.349 97.8926 99.2756 97.9495C98.2022 98.0064 97.392 98.8598 97.473 99.8649C97.473 99.9029 97.6148 103.108 95.9742 105.763L89.9588 99.9598C89.6752 99.2581 88.865 96.5081 91.6196 92.3737C94.0906 88.6566 98.2022 89.0359 101.868 89.6617C102.091 89.6997 102.314 89.7376 102.516 89.7755L107.235 93.5685C107.6 93.853 108.046 94.0047 108.491 94.0047C109.038 94.0047 109.585 93.7961 109.949 93.3789C110.638 92.6203 110.557 91.4824 109.747 90.8186L105.068 87.0635C104.42 84.5411 104.906 82.2274 106.547 80.1792C109.524 76.481 115.378 74.6224 117.808 74.6224C121.272 74.6224 130.75 77.3723 130.771 86.229C130.771 86.229 130.771 86.248 130.771 86.267V86.3997C130.71 94.3461 125.201 96.2236 124.532 96.4133C123.682 96.3754 122.932 96.8874 122.669 97.646C122.325 98.5943 122.872 99.6184 123.884 99.9408C125.606 100.472 128.441 98.6132 128.765 98.4046C129.353 98.0064 130.062 97.4374 130.771 96.7167V112.23H130.811Z" fill="#D360AA"/>
</g>
<g filter="url(#filter2_d_149_2293)">
<path d="M200.586 133.414V133.281C200.181 130.057 198.885 128.199 197.305 127.004C201.356 123.04 203.564 115.265 200.708 107.868C198.217 101.382 191.756 99.7131 188.11 99.2959C188.373 97.2856 188.11 94.1943 185.639 90.4582C182.196 85.2807 176.545 85.3755 173.061 85.8497C173.385 82.7773 172.535 79.9136 170.59 77.4671C167.025 73.0293 160.605 71 156.169 71C150.296 71 139.338 75.4758 139.338 86.2479C139.338 86.3048 139.338 86.3428 139.338 86.3996V183.653C139.318 186.801 140.776 189.816 143.43 192.168C146.528 194.899 150.984 196.511 155.319 196.511C155.683 196.511 156.048 196.511 156.412 196.473C163.035 196.056 167.431 191.94 168.423 185.397C173.912 184.791 175.795 180.239 176.626 177.186C179.421 177.091 181.912 176.104 183.735 174.36C185.578 172.596 186.672 170.112 186.793 167.475C194.085 166.489 198.419 162.488 199.108 156.058C199.614 151.165 198.379 147.088 195.401 143.902C198.277 142.024 200.829 139.009 200.566 133.414H200.586ZM146.67 186.099C145.678 186.099 144.888 185.359 144.888 184.43C144.888 183.501 145.678 182.761 146.67 182.761C147.663 182.761 148.453 183.501 148.453 184.43C148.453 185.359 147.663 186.099 146.67 186.099ZM145.82 187.578V189.304C144.949 188.47 144.017 187.313 143.531 185.815C143.976 186.687 144.807 187.332 145.82 187.578ZM191.391 141.967L188.819 143.219L191.047 144.964C193.173 146.633 195.948 149.553 195.28 155.717C194.733 160.932 191.27 163.663 184.687 164.081L182.682 164.213L182.905 166.091C183.168 168.31 182.439 170.472 180.981 171.875C179.887 172.918 178.449 173.487 176.727 173.601L176.12 154.731L181.73 149.971C182.439 150.426 183.31 150.691 184.241 150.691C186.712 150.691 188.718 148.814 188.718 146.5C188.718 144.186 186.712 142.309 184.241 142.309C181.77 142.309 179.765 144.186 179.765 146.5C179.765 147.372 180.049 148.169 180.535 148.852L174.418 154.067L175.046 173.582L173.588 173.449L173.223 175.005C172.373 178.608 171.34 181.623 167.653 181.889V165.56L165.203 163.417V155.129L170.57 150.16C171.137 150.54 171.826 150.748 172.555 150.748C174.459 150.748 176.018 149.288 176.018 147.486C176.018 145.685 174.459 144.224 172.555 144.224C170.651 144.224 169.091 145.685 169.091 147.486C169.091 148.017 169.233 148.51 169.476 148.946L163.522 154.446V161.919L160.321 159.112V147.79C161.82 147.429 162.954 146.159 162.954 144.641C162.954 142.84 161.395 141.379 159.491 141.379C157.587 141.379 156.028 142.84 156.028 144.641C156.028 146.159 157.142 147.429 158.661 147.79V159.795L165.993 166.243V182.022C165.81 182.097 165.648 182.173 165.506 182.287C165.486 182.306 165.446 182.325 165.425 182.344C165.425 182.344 165.425 182.344 165.425 182.363C165.162 182.591 164.96 182.894 164.879 183.235C164.879 183.273 164.879 183.311 164.879 183.349C164.879 183.425 164.838 183.501 164.838 183.577C164.575 187.616 162.954 190.442 160.18 191.864L156.777 188.925V181.13C158.276 180.77 159.41 179.499 159.41 177.982C159.41 176.18 157.85 174.72 155.947 174.72C154.043 174.72 152.483 176.18 152.483 177.982C152.483 179.499 153.597 180.77 155.116 181.13V189.627L158.478 192.528C157.79 192.718 157.06 192.851 156.271 192.889C153.273 193.078 150.093 192.225 147.622 190.613V187.578C149.121 187.218 150.255 185.947 150.255 184.43C150.255 182.628 148.696 181.168 146.792 181.168C145.009 181.168 143.531 182.458 143.349 184.089C143.349 183.956 143.328 183.823 143.328 183.691V168.234L144.868 169.789H154.326C154.731 171.268 156.129 172.349 157.83 172.349C159.835 172.349 161.456 170.832 161.456 168.955C161.456 167.077 159.835 165.56 157.83 165.56C156.129 165.56 154.731 166.66 154.326 168.12H145.637L143.328 165.769V155.755H146.549C146.933 157.386 148.493 158.6 150.356 158.6C152.503 158.6 154.265 156.95 154.265 154.939C154.265 152.929 152.524 151.279 150.356 151.279C148.493 151.279 146.954 152.493 146.549 154.124H143.328V130.399C145.293 130.399 147.156 130.399 149.121 130.399V138.402C148.027 138.629 147.197 139.559 147.197 140.659C147.197 141.929 148.311 142.972 149.668 142.972C151.025 142.972 152.139 141.929 152.139 140.659C152.139 139.559 151.308 138.629 150.215 138.402V130.759C152.2 132.637 154.144 134.514 156.088 136.392L156.838 137.112L157.628 136.411L156.878 135.671C155.785 134.609 154.711 133.566 153.597 132.504H162.124C162.367 133.528 163.36 134.305 164.534 134.305C165.891 134.305 167.005 133.262 167.005 131.992C167.005 130.721 165.891 129.678 164.534 129.678C163.36 129.678 162.367 130.456 162.124 131.48H152.524C151.835 130.835 151.167 130.171 150.458 129.526L150.296 129.375H150.073C147.744 129.375 145.617 129.375 143.328 129.375V126.852C149.627 126.795 155.926 126.814 162.124 126.909C162.367 127.952 163.36 128.73 164.534 128.73C165.891 128.73 167.005 127.687 167.005 126.416C167.005 125.145 165.891 124.102 164.534 124.102C163.36 124.102 162.367 124.88 162.124 125.904C155.926 125.828 149.627 125.809 143.328 125.847V121.428L144.908 123.021H150.782C151.025 123.932 151.896 124.614 152.949 124.614C154.184 124.614 155.197 123.666 155.197 122.509C155.197 121.352 154.184 120.404 152.949 120.404C151.896 120.404 151.025 121.087 150.782 121.997H145.394L143.349 119.911V114.165L146.063 112.97L156.736 116.687L170.995 110.39C171.36 110.827 171.846 111.168 172.413 111.358C172.757 111.471 173.122 111.528 173.487 111.528C173.952 111.528 174.418 111.434 174.844 111.244C176.423 110.542 177.112 108.759 176.363 107.28C175.998 106.56 175.37 106.01 174.56 105.744C173.77 105.479 172.899 105.516 172.13 105.858C171.36 106.199 170.772 106.787 170.489 107.546C170.286 108.077 170.246 108.646 170.388 109.196L156.655 115.265L147.825 112.192L156.169 108.513L158.559 102.16L169.375 97.3804C169.983 98.1011 170.894 98.5373 171.866 98.5373C172.312 98.5373 172.778 98.4425 173.223 98.2528C174.803 97.5511 175.492 95.7684 174.742 94.2891C173.993 92.8098 172.089 92.165 170.509 92.8667C169.152 93.4736 168.464 94.877 168.767 96.2046L157.445 101.211L155.055 107.565L143.349 112.742V96.7167C144.057 97.4563 144.746 98.0063 145.354 98.4045C145.678 98.6132 148.493 100.491 150.235 99.9407C151.248 99.6183 151.794 98.5942 151.45 97.6459C151.187 96.8873 150.417 96.4132 149.627 96.4132H149.587C148.918 96.2236 143.409 94.346 143.349 86.3807V86.2669C143.349 86.2669 143.349 86.2669 143.349 86.2479C143.369 78.2257 151.167 75.2102 155.197 74.7172L153.962 75.7982V84.4652C152.443 84.7687 151.288 86.0393 151.288 87.5565C151.288 89.3013 152.807 90.7237 154.65 90.7237C156.493 90.7237 158.012 89.3013 158.012 87.5565C158.012 86.0393 156.858 84.7687 155.339 84.4652V76.3671L157.283 74.6982C160.807 74.9637 165.223 76.6516 167.633 79.667C169.334 81.7722 169.8 84.2945 169.031 87.1014L166.782 89.1496C166.013 89.8513 165.993 90.9892 166.742 91.7099C167.127 92.0702 167.613 92.2599 168.119 92.2599C168.626 92.2599 169.091 92.0892 169.456 91.7478L171.603 89.7944C171.785 89.7565 171.988 89.7375 172.211 89.6996C175.877 89.0548 180.008 88.6944 182.459 92.4116C185.133 96.4322 184.444 99.1252 184.16 99.9028L182.176 101.477C181.365 102.122 181.264 103.26 181.953 104.018C182.338 104.435 182.884 104.663 183.431 104.663C183.877 104.663 184.322 104.53 184.667 104.246L186.449 102.823C188.454 102.88 194.733 103.525 197.022 108.797H180.292L170.833 117.939V127.175C169.172 127.535 167.917 128.919 167.917 130.588C167.917 132.523 169.598 134.078 171.643 134.078C173.689 134.078 175.37 132.504 175.37 130.588C175.37 128.919 174.114 127.535 172.454 127.175V118.564L180.96 110.353H197.548C198.723 114.373 198.156 118.299 196.799 121.22H183.37L177.882 127.156V132.826C176.221 133.187 174.965 134.571 174.965 136.221C174.965 138.155 176.646 139.711 178.692 139.711C180.737 139.711 182.419 138.136 182.419 136.221C182.419 134.552 181.163 133.168 179.502 132.826V127.725L184.1 122.756H195.948C195.199 123.932 194.328 124.842 193.416 125.43H187.928C186.854 125.43 186.004 126.245 186.004 127.231C186.004 128.218 186.874 129.033 187.928 129.033H193.558C195.422 129.868 196.455 130.892 196.799 133.642C197.001 138.307 194.895 140.279 191.452 141.967H191.391ZM181.467 146.462C181.467 145.021 182.722 143.864 184.241 143.864C185.76 143.864 187.016 145.04 187.016 146.462C187.016 147.884 185.781 149.06 184.241 149.06C182.702 149.06 181.467 147.884 181.467 146.462ZM170.793 147.448C170.793 146.519 171.583 145.779 172.575 145.779C173.568 145.779 174.357 146.519 174.357 147.448C174.357 148.378 173.568 149.117 172.575 149.117C171.583 149.117 170.793 148.378 170.793 147.448ZM159.471 146.272C158.478 146.272 157.688 145.533 157.688 144.603C157.688 143.674 158.478 142.935 159.471 142.935C160.463 142.935 161.253 143.674 161.253 144.603C161.253 145.533 160.463 146.272 159.471 146.272ZM155.866 179.651C154.873 179.651 154.083 178.911 154.083 177.982C154.083 177.053 154.873 176.313 155.866 176.313C156.858 176.313 157.648 177.053 157.648 177.982C157.648 178.911 156.858 179.651 155.866 179.651ZM155.825 168.974C155.825 168.006 156.655 167.229 157.688 167.229C158.721 167.229 159.552 168.006 159.552 168.974C159.552 169.941 158.721 170.718 157.688 170.718C156.655 170.718 155.825 169.941 155.825 168.974ZM148.047 154.977C148.047 153.858 149.02 152.929 150.235 152.929C151.45 152.929 152.422 153.839 152.422 154.977C152.422 156.115 151.45 157.026 150.235 157.026C149.02 157.026 148.047 156.115 148.047 154.977ZM149.546 139.388C150.316 139.388 150.924 139.976 150.924 140.678C150.924 141.379 150.296 141.967 149.546 141.967C148.797 141.967 148.169 141.379 148.169 140.678C148.169 139.976 148.797 139.388 149.546 139.388ZM163.035 132.03C163.035 131.309 163.663 130.74 164.413 130.74C165.162 130.74 165.79 131.328 165.79 132.03C165.79 132.731 165.162 133.319 164.413 133.319C163.663 133.319 163.035 132.731 163.035 132.03ZM163.035 126.435C163.035 125.714 163.663 125.145 164.413 125.145C165.162 125.145 165.79 125.733 165.79 126.435C165.79 127.137 165.162 127.725 164.413 127.725C163.663 127.725 163.035 127.137 163.035 126.435ZM151.653 122.528C151.653 121.94 152.179 121.447 152.807 121.447C153.435 121.447 153.962 121.94 153.962 122.528C153.962 123.116 153.435 123.609 152.807 123.609C152.179 123.609 151.653 123.116 151.653 122.528ZM171.684 108.001C171.846 107.584 172.17 107.242 172.595 107.053C172.838 106.939 173.102 106.901 173.345 106.901C173.547 106.901 173.75 106.939 173.952 106.996C174.398 107.147 174.763 107.451 174.965 107.849C175.39 108.684 175.006 109.67 174.114 110.068C173.689 110.258 173.203 110.277 172.757 110.125C172.312 109.973 171.947 109.67 171.745 109.272C171.542 108.873 171.522 108.418 171.684 108.001ZM170.955 94.0615C171.198 93.9478 171.461 93.9098 171.704 93.9098C172.373 93.9098 173 94.2702 173.304 94.8581C173.73 95.6925 173.345 96.6787 172.454 97.077C171.562 97.4753 170.509 97.1149 170.084 96.2805C169.659 95.446 170.043 94.4598 170.935 94.0615H170.955ZM154.508 85.7169C155.602 85.7169 156.473 86.5514 156.473 87.5565C156.473 88.5617 155.582 89.3961 154.508 89.3961C153.435 89.3961 152.544 88.5617 152.544 87.5565C152.544 86.5514 153.435 85.7169 154.508 85.7169ZM171.562 128.616C172.717 128.616 173.649 129.488 173.649 130.569C173.649 131.65 172.717 132.523 171.562 132.523C170.408 132.523 169.476 131.65 169.476 130.569C169.476 129.488 170.408 128.616 171.562 128.616ZM178.651 134.268C179.806 134.268 180.737 135.14 180.737 136.221C180.737 137.302 179.806 138.174 178.651 138.174C177.497 138.174 176.565 137.302 176.565 136.221C176.565 135.14 177.497 134.268 178.651 134.268Z" fill="#D360AA"/>
</g>
<defs>
<filter id="filter0_d_149_2293" x="0" y="0" width="274.636" height="269.771" filterUnits="userSpaceOnUse" color-interpolation-filters="sRGB">
<feFlood flood-opacity="0" result="BackgroundImageFix"/>
<feColorMatrix in="SourceAlpha" type="matrix" values="0 0 0 0 0 0 0 0 0 0 0 0 0 0 0 0 0 0 127 0" result="hardAlpha"/>
<feOffset/>
<feGaussianBlur stdDeviation="10"/>
<feColorMatrix type="matrix" values="0 0 0 0 0 0 0 0 0 0 0 0 0 0 0 0 0 0 1 0"/>
<feBlend mode="normal" in2="BackgroundImageFix" result="effect1_dropShadow_149_2293"/>
<feBlend mode="normal" in="SourceGraphic" in2="effect1_dropShadow_149_2293" result="shape"/>
</filter>
<filter id="filter1_d_149_2293" x="52" y="51.019" width="102.68" height="165.492" filterUnits="userSpaceOnUse" color-interpolation-filters="sRGB">
<feFlood flood-opacity="0" result="BackgroundImageFix"/>
<feColorMatrix in="SourceAlpha" type="matrix" values="0 0 0 0 0 0 0 0 0 0 0 0 0 0 0 0 0 0 127 0" result="hardAlpha"/>
<feOffset/>
<feGaussianBlur stdDeviation="10"/>
<feColorMatrix type="matrix" values="0 0 0 0 0.827451 0 0 0 0 0.376471 0 0 0 0 0.666667 0 0 0 1 0"/>
<feBlend mode="normal" in2="BackgroundImageFix" result="effect1_dropShadow_149_2293"/>
<feBlend mode="normal" in="SourceGraphic" in2="effect1_dropShadow_149_2293" result="shape"/>
</filter>
<filter id="filter2_d_149_2293" x="119.338" y="51" width="102.662" height="165.511" filterUnits="userSpaceOnUse" color-interpolation-filters="sRGB">
<feFlood flood-opacity="0" result="BackgroundImageFix"/>
<feColorMatrix in="SourceAlpha" type="matrix" values="0 0 0 0 0 0 0 0 0 0 0 0 0 0 0 0 0 0 127 0" result="hardAlpha"/>
<feOffset/>
<feGaussianBlur stdDeviation="10"/>
<feColorMatrix type="matrix" values="0 0 0 0 0.827451 0 0 0 0 0.376471 0 0 0 0 0.666667 0 0 0 1 0"/>
<feBlend mode="normal" in2="BackgroundImageFix" result="effect1_dropShadow_149_2293"/>
<feBlend mode="normal" in="SourceGraphic" in2="effect1_dropShadow_149_2293" result="shape"/>
</filter>
</defs>
</svg>
