<svg width="275" height="270" viewBox="0 0 275 270" fill="none" xmlns="http://www.w3.org/2000/svg">
<path d="M29.1044 25.4639L29.1397 227.736L56.6141 253.396L132.27 255.235L150.504 247.312H245.737V186.62L263.741 168.582V25.4639H29.1044Z" fill="#661109"/>
<g filter="url(#filter0_d_71_535)">
<path d="M20.2702 20.1587L20.3055 222.431L47.7799 248.09L123.436 249.93L141.67 242.007H236.902V181.315L254.906 163.277V20.1587H20.2702Z" fill="black"/>
</g>
<g filter="url(#filter1_d_71_535)">
<path d="M135.556 89.6576C135.556 79.6129 125.998 75.4395 120.874 75.4395C117.8 75.4395 111.704 77.5085 108.347 81.9826C106.704 84.1754 105.962 86.6689 106.156 89.3039C103.117 88.8618 98.1525 88.7557 95.1488 93.6011C92.9756 97.0849 92.7636 99.9675 92.9933 101.842C89.8307 102.231 84.1944 103.787 82.0036 109.835C80.3604 114.38 80.6431 119.066 82.0389 122.798C82.0389 122.798 82.0389 122.798 82.0389 122.815C82.3569 123.859 82.9046 124.991 83.7174 126.105C83.7174 126.105 83.7351 126.14 83.7527 126.158C83.8057 126.229 83.8587 126.317 83.9294 126.388C84.2651 126.847 84.6008 127.29 84.9718 127.661C83.5407 128.828 82.7103 130.526 82.5159 133.621C82.3039 137.104 83.8057 141.295 86.4383 143.453C84.6538 145.292 83.0637 148.051 83.4524 153.851C83.8057 157.423 85.8023 161.049 88.6645 163.33C90.1664 164.515 91.8449 165.24 93.541 165.505C93.647 165.541 93.7707 165.558 93.8944 165.576C93.9297 165.576 93.9827 165.576 94.0181 165.576C94.0711 165.576 94.1241 165.594 94.1594 165.594C94.4421 167.274 95.3785 169.148 96.4563 170.545C98.2408 172.844 100.502 174.188 102.994 174.4C103.718 177.247 105.344 181.527 110.149 182.093C110.52 184.799 111.457 187.027 112.941 188.778C114.814 190.953 117.464 192.208 120.627 192.421C120.945 192.438 121.263 192.456 121.581 192.456C125.362 192.456 129.249 190.953 131.952 188.406C134.284 186.213 135.539 183.402 135.521 180.484V117.935V89.8167C135.521 89.8167 135.521 89.7106 135.521 89.6576H135.556ZM132.182 113.85C130.786 113.036 129.09 112.435 127.341 112.187C122.606 111.551 118.559 113.726 116.227 118.182C113.559 123.823 115.662 128.068 117.164 130.084C119.107 132.719 122.058 134.469 124.443 134.469C124.655 134.469 124.867 134.469 125.079 134.416C125.998 134.275 126.634 133.426 126.51 132.506C126.387 131.587 125.521 130.933 124.602 131.074C123.789 131.198 121.51 130.296 119.867 128.068C118.595 126.335 117.446 123.452 119.231 119.668C121.263 115.777 124.355 115.229 126.599 115.477C129.744 115.795 131.881 117.581 132.164 118.218V180.466C132.164 183.013 130.804 184.834 129.655 185.93C127.394 188.07 124.019 189.237 120.856 189.025C119.302 188.919 117.093 188.406 115.503 186.532C113.807 184.551 113.082 181.403 113.4 177.46C113.63 175.656 115.874 172.084 118.877 170.581C120.591 169.714 122.252 169.714 123.772 170.581C124.584 171.04 125.609 170.757 126.069 169.944C126.528 169.13 126.245 168.105 125.432 167.645C122.906 166.213 120.132 166.177 117.376 167.557C117.323 167.592 117.27 167.627 117.199 167.663C116.475 166.92 115.379 166.407 114.019 166.248C111.722 165.983 109.178 166.761 108.754 168.777C108.559 169.696 109.142 170.581 110.061 170.775C110.856 170.934 111.651 170.51 111.951 169.785C112.27 169.643 113.1 169.484 113.948 169.661C114.089 169.696 114.213 169.732 114.319 169.767C111.969 171.978 110.326 174.913 110.043 177.124C110.008 177.619 109.99 178.114 109.973 178.591C107.446 177.937 106.633 175.355 105.962 172.314L105.644 170.863L104.16 170.987C102.022 171.182 100.432 169.962 99.4953 168.901C98.4175 167.698 97.8168 166.319 97.5694 165.399C102.305 164.709 108.153 161.756 109.69 153.692C110.22 153.498 110.75 153.268 111.262 152.949C111.298 152.949 111.315 152.914 111.333 152.896C113.259 151.818 115.273 150.067 116.634 147.821C118.206 145.204 118.63 142.392 117.835 139.686C117.57 138.784 116.634 138.271 115.75 138.537C114.849 138.802 114.354 139.739 114.602 140.623C115.132 142.41 114.831 144.249 113.754 146.053C112.658 147.856 110.909 149.324 109.372 150.102C109.337 150.12 109.301 150.138 109.248 150.155C108.754 150.403 108.276 150.562 107.87 150.65C104.266 151.34 100.661 147.892 100.626 147.839C99.9723 147.184 98.8945 147.202 98.2408 147.856C97.5871 148.511 97.6048 149.589 98.2585 150.244C98.4528 150.438 101.863 153.727 106.103 154.099C104.725 159.139 101.156 161.031 98.2762 161.738L95.5906 162.11C95.4315 162.127 95.2725 162.127 95.0958 162.145C94.7071 162.145 94.4421 162.145 94.2831 162.127C94.2831 162.127 94.2478 162.127 94.2301 162.127C94.2124 162.127 94.1771 162.127 94.1771 162.127C92.746 161.951 91.5445 161.243 90.7141 160.589C88.5762 158.891 87.0214 156.079 86.7564 153.48C86.3677 147.662 88.2405 146.106 90.2017 144.461L92.9756 142.144L89.6893 141.366C87.5691 140.871 85.6256 137.016 85.8199 133.727C85.9966 131.003 86.5973 130.278 87.7811 129.677C89.5303 130.703 91.6505 131.498 94.2301 131.852C94.8308 131.941 95.3962 131.976 95.9616 131.976C97.9051 131.976 99.6366 131.516 101.156 130.862C101.934 131.322 103.524 132.683 103.435 134.54C103.294 137.334 101.333 139.456 101.28 139.509C100.644 140.181 100.661 141.242 101.333 141.897C101.651 142.215 102.075 142.374 102.499 142.374C102.923 142.374 103.382 142.197 103.718 141.861C103.842 141.738 106.598 138.837 106.81 134.717C106.934 132.347 105.732 130.384 104.301 129.058C106.474 127.449 107.746 125.751 107.852 125.592C108.4 124.831 108.223 123.788 107.481 123.24C106.722 122.692 105.679 122.869 105.131 123.611C105.096 123.647 103.294 126.087 100.326 127.555C98.7532 128.333 96.8627 128.828 94.7248 128.545C93.011 128.315 91.5798 127.838 90.3784 127.237L89.1946 126.582C88.0285 125.839 87.1451 124.955 86.509 124.124C84.5125 121.135 83.3287 116.025 85.1662 110.914C87.0037 105.803 92.5339 105.131 94.4244 105.043L99.4069 110.189C98.3292 110.808 97.0394 111.197 95.5022 111.268C94.5658 111.303 93.8591 112.099 93.8944 113.036C93.9297 113.938 94.6895 114.645 95.5729 114.645C95.5906 114.645 95.6259 114.645 95.6436 114.645C98.9299 114.486 101.562 113.354 103.453 111.25C106.739 107.572 106.457 102.337 106.457 102.107C106.404 101.17 105.609 100.48 104.672 100.533C103.736 100.586 103.029 101.382 103.1 102.319C103.1 102.355 103.223 105.343 101.792 107.819L96.5446 102.408C96.2973 101.754 95.5906 99.1893 97.9935 95.3342C100.149 91.8681 103.736 92.2218 106.934 92.8053C107.128 92.8407 107.322 92.8761 107.499 92.9114L111.616 96.4483C111.934 96.7136 112.323 96.855 112.711 96.855C113.188 96.855 113.665 96.6605 113.983 96.2715C114.584 95.5641 114.513 94.503 113.807 93.8841L109.725 90.3826C109.16 88.0306 109.584 85.8731 111.015 83.9632C113.612 80.5148 118.718 78.7818 120.839 78.7818C123.86 78.7818 132.129 81.346 132.146 89.6045C132.146 89.6045 132.146 89.6222 132.146 89.6399V89.7637C132.093 97.1733 127.288 98.9241 126.705 99.1009C125.963 99.0656 125.309 99.543 125.079 100.25C124.779 101.135 125.256 102.09 126.139 102.39C127.641 102.885 130.115 101.152 130.397 100.958C130.91 100.586 131.528 100.056 132.146 99.3839V113.85H132.182Z" fill="#75E8F0"/>
</g>
<g filter="url(#filter2_d_71_535)">
<path d="M193.049 133.603V133.479C192.696 130.473 191.565 128.74 190.187 127.626C193.721 123.93 195.647 116.679 193.155 109.782C190.982 103.734 185.346 102.178 182.166 101.789C182.395 99.9144 182.166 97.0318 180.01 93.548C177.007 88.7203 172.077 88.8087 169.038 89.2508C169.321 86.3859 168.579 83.7156 166.883 81.4344C163.773 77.2963 158.172 75.4041 154.303 75.4041C149.179 75.4041 139.62 79.5775 139.62 89.6222C139.62 89.6752 139.62 89.7106 139.62 89.7636V180.448C139.603 183.384 140.875 186.196 143.189 188.388C145.892 190.935 149.78 192.438 153.561 192.438C153.879 192.438 154.197 192.438 154.515 192.403C160.292 192.014 164.126 188.176 164.992 182.075C169.78 181.509 171.423 177.265 172.148 174.418C174.586 174.33 176.759 173.41 178.349 171.783C179.957 170.138 180.911 167.822 181.017 165.364C187.378 164.444 191.159 160.713 191.76 154.718C192.201 150.155 191.124 146.353 188.526 143.382C191.035 141.631 193.261 138.82 193.032 133.603H193.049ZM146.016 182.73C145.15 182.73 144.461 182.04 144.461 181.173C144.461 180.307 145.15 179.617 146.016 179.617C146.882 179.617 147.571 180.307 147.571 181.173C147.571 182.04 146.882 182.73 146.016 182.73ZM145.274 184.109V185.718C144.514 184.94 143.702 183.861 143.278 182.464C143.666 183.278 144.391 183.879 145.274 184.109ZM185.028 141.578L182.784 142.746L184.728 144.372C186.583 145.929 189.003 148.652 188.42 154.399C187.943 159.263 184.922 161.809 179.18 162.198L177.431 162.322L177.625 164.073C177.855 166.142 177.219 168.158 175.946 169.466C174.992 170.439 173.738 170.97 172.236 171.076L171.706 153.48L176.6 149.041C177.219 149.466 177.978 149.713 178.791 149.713C180.947 149.713 182.696 147.962 182.696 145.805C182.696 143.647 180.947 141.897 178.791 141.897C176.636 141.897 174.886 143.647 174.886 145.805C174.886 146.618 175.134 147.361 175.558 147.998L170.222 152.861L170.77 171.058L169.497 170.934L169.179 172.384C168.437 175.744 167.536 178.556 164.321 178.804V163.578L162.183 161.579V153.851L166.865 149.218C167.36 149.572 167.96 149.766 168.596 149.766C170.257 149.766 171.618 148.404 171.618 146.724C171.618 145.044 170.257 143.683 168.596 143.683C166.936 143.683 165.575 145.044 165.575 146.724C165.575 147.22 165.699 147.679 165.911 148.086L160.716 153.215V160.182L157.925 157.565V147.007C159.232 146.671 160.222 145.487 160.222 144.072C160.222 142.392 158.861 141.03 157.2 141.03C155.539 141.03 154.179 142.392 154.179 144.072C154.179 145.487 155.151 146.671 156.476 147.007V158.202L162.872 164.214V178.927C162.713 178.998 162.571 179.069 162.448 179.175C162.43 179.193 162.395 179.21 162.377 179.228C162.377 179.228 162.377 179.228 162.377 179.246C162.147 179.458 161.971 179.741 161.9 180.059C161.9 180.095 161.9 180.13 161.9 180.165C161.9 180.236 161.865 180.307 161.865 180.378C161.635 184.144 160.222 186.779 157.801 188.106L154.833 185.364V178.096C156.14 177.76 157.13 176.575 157.13 175.161C157.13 173.481 155.769 172.119 154.108 172.119C152.447 172.119 151.087 173.481 151.087 175.161C151.087 176.575 152.059 177.76 153.384 178.096V186.019L156.317 188.724C155.716 188.901 155.08 189.025 154.391 189.06C151.776 189.237 149.002 188.442 146.847 186.938V184.109C148.154 183.773 149.143 182.588 149.143 181.173C149.143 179.493 147.783 178.132 146.122 178.132C144.567 178.132 143.278 179.334 143.119 180.855C143.119 180.731 143.101 180.607 143.101 180.484V166.071L144.444 167.521H152.695C153.048 168.9 154.267 169.908 155.751 169.908C157.501 169.908 158.914 168.494 158.914 166.743C158.914 164.992 157.501 163.578 155.751 163.578C154.267 163.578 153.048 164.603 152.695 165.965H145.115L143.101 163.772V154.435H145.91C146.246 155.956 147.606 157.087 149.232 157.087C151.105 157.087 152.642 155.549 152.642 153.674C152.642 151.8 151.122 150.261 149.232 150.261C147.606 150.261 146.264 151.393 145.91 152.914H143.101V130.791C144.815 130.791 146.44 130.791 148.154 130.791V138.254C147.2 138.466 146.476 139.332 146.476 140.358C146.476 141.543 147.447 142.516 148.631 142.516C149.815 142.516 150.787 141.543 150.787 140.358C150.787 139.332 150.062 138.466 149.108 138.254V131.127C150.84 132.878 152.536 134.628 154.232 136.379L154.886 137.051L155.575 136.397L154.921 135.707C153.967 134.717 153.031 133.744 152.059 132.754H159.497C159.709 133.709 160.575 134.434 161.6 134.434C162.783 134.434 163.755 133.461 163.755 132.276C163.755 131.092 162.783 130.119 161.6 130.119C160.575 130.119 159.709 130.844 159.497 131.799H151.122C150.522 131.198 149.939 130.579 149.32 129.978L149.179 129.836H148.984C146.953 129.836 145.097 129.836 143.101 129.836V127.484C148.596 127.431 154.091 127.449 159.497 127.537C159.709 128.51 160.575 129.235 161.6 129.235C162.783 129.235 163.755 128.262 163.755 127.077C163.755 125.892 162.783 124.92 161.6 124.92C160.575 124.92 159.709 125.645 159.497 126.6C154.091 126.529 148.596 126.511 143.101 126.547V122.426L144.479 123.912H149.603C149.815 124.761 150.575 125.397 151.493 125.397C152.571 125.397 153.455 124.513 153.455 123.434C153.455 122.356 152.571 121.471 151.493 121.471C150.575 121.471 149.815 122.108 149.603 122.957H144.903L143.119 121.012V115.653L145.486 114.539L154.797 118.005L167.236 112.134C167.554 112.541 167.978 112.859 168.473 113.036C168.773 113.142 169.091 113.195 169.409 113.195C169.815 113.195 170.222 113.107 170.593 112.93C171.971 112.276 172.572 110.613 171.918 109.234C171.6 108.562 171.052 108.049 170.346 107.802C169.656 107.554 168.897 107.589 168.225 107.908C167.554 108.226 167.042 108.774 166.794 109.482C166.618 109.977 166.582 110.507 166.706 111.02L154.727 116.679L147.023 113.814L154.303 110.383L156.388 104.459L165.822 100.003C166.352 100.675 167.148 101.082 167.996 101.082C168.384 101.082 168.791 100.993 169.179 100.816C170.558 100.162 171.158 98.4996 170.505 97.1203C169.851 95.7409 168.19 95.1396 166.812 95.794C165.628 96.3598 165.027 97.6685 165.292 98.9064L155.416 103.575L153.331 109.499L143.119 114.327V99.3838C143.737 100.074 144.338 100.586 144.868 100.958C145.15 101.152 147.606 102.903 149.126 102.39C150.009 102.09 150.486 101.135 150.186 100.25C149.956 99.543 149.285 99.1009 148.596 99.1009H148.56C147.977 98.924 143.172 97.1733 143.119 89.746V89.6398C143.119 89.6398 143.119 89.6398 143.119 89.6222C143.136 82.1417 149.939 79.3299 153.455 78.8702L152.377 79.8782V87.9598C151.052 88.2428 150.045 89.4276 150.045 90.8424C150.045 92.4693 151.37 93.7956 152.978 93.7956C154.585 93.7956 155.91 92.4693 155.91 90.8424C155.91 89.4276 154.903 88.2428 153.578 87.9598V80.4087L155.274 78.8525C158.349 79.1001 162.2 80.674 164.303 83.4857C165.787 85.4487 166.193 87.8007 165.522 90.418L163.561 92.3278C162.889 92.9822 162.872 94.0432 163.526 94.7152C163.861 95.0512 164.285 95.2281 164.727 95.2281C165.169 95.2281 165.575 95.0689 165.893 94.7506L167.766 92.9291C167.925 92.8937 168.102 92.8761 168.296 92.8407C171.494 92.2394 175.098 91.9034 177.236 95.3695C179.568 99.1186 178.968 101.63 178.72 102.355L176.989 103.823C176.282 104.424 176.194 105.485 176.795 106.192C177.13 106.581 177.607 106.794 178.084 106.794C178.473 106.794 178.862 106.67 179.162 106.404L180.717 105.078C182.466 105.131 187.943 105.732 189.94 110.649H175.346L167.095 119.172V127.785C165.646 128.121 164.55 129.412 164.55 130.968C164.55 132.772 166.017 134.222 167.801 134.222C169.586 134.222 171.052 132.754 171.052 130.968C171.052 129.412 169.957 128.121 168.508 127.785V119.756L175.929 112.099H190.399C191.424 115.848 190.929 119.508 189.745 122.232H178.031L173.243 127.767V133.055C171.794 133.391 170.699 134.682 170.699 136.22C170.699 138.024 172.165 139.474 173.95 139.474C175.734 139.474 177.201 138.006 177.201 136.22C177.201 134.664 176.105 133.373 174.657 133.055V128.298L178.667 123.664H189.003C188.35 124.761 187.59 125.61 186.795 126.158H182.007C181.07 126.158 180.328 126.918 180.328 127.838C180.328 128.757 181.088 129.518 182.007 129.518H186.919C188.544 130.296 189.445 131.251 189.745 133.815C189.922 138.165 188.085 140.004 185.081 141.578H185.028ZM176.37 145.77C176.37 144.426 177.466 143.347 178.791 143.347C180.116 143.347 181.212 144.443 181.212 145.77C181.212 147.096 180.134 148.192 178.791 148.192C177.448 148.192 176.37 147.096 176.37 145.77ZM167.059 146.689C167.059 145.823 167.748 145.133 168.614 145.133C169.48 145.133 170.169 145.823 170.169 146.689C170.169 147.556 169.48 148.245 168.614 148.245C167.748 148.245 167.059 147.556 167.059 146.689ZM157.183 145.593C156.317 145.593 155.628 144.903 155.628 144.036C155.628 143.17 156.317 142.48 157.183 142.48C158.048 142.48 158.737 143.17 158.737 144.036C158.737 144.903 158.048 145.593 157.183 145.593ZM154.038 176.717C153.172 176.717 152.483 176.027 152.483 175.161C152.483 174.294 153.172 173.604 154.038 173.604C154.903 173.604 155.592 174.294 155.592 175.161C155.592 176.027 154.903 176.717 154.038 176.717ZM154.02 166.761C154.02 165.859 154.744 165.134 155.645 165.134C156.547 165.134 157.271 165.859 157.271 166.761C157.271 167.663 156.547 168.388 155.645 168.388C154.744 168.388 154.02 167.663 154.02 166.761ZM147.218 153.71C147.218 152.666 148.066 151.8 149.126 151.8C150.186 151.8 151.034 152.649 151.034 153.71C151.034 154.771 150.186 155.62 149.126 155.62C148.066 155.62 147.218 154.771 147.218 153.71ZM148.525 139.173C149.196 139.173 149.727 139.722 149.727 140.376C149.727 141.03 149.179 141.578 148.525 141.578C147.871 141.578 147.324 141.03 147.324 140.376C147.324 139.722 147.871 139.173 148.525 139.173ZM160.292 132.312C160.292 131.64 160.84 131.109 161.494 131.109C162.147 131.109 162.695 131.658 162.695 132.312C162.695 132.966 162.147 133.514 161.494 133.514C160.84 133.514 160.292 132.966 160.292 132.312ZM160.292 127.113C160.292 126.441 160.84 125.91 161.494 125.91C162.147 125.91 162.695 126.458 162.695 127.113C162.695 127.767 162.147 128.315 161.494 128.315C160.84 128.315 160.292 127.767 160.292 127.113ZM150.363 123.452C150.363 122.904 150.822 122.444 151.37 122.444C151.917 122.444 152.377 122.904 152.377 123.452C152.377 124 151.917 124.46 151.37 124.46C150.822 124.46 150.363 124 150.363 123.452ZM167.837 109.924C167.978 109.535 168.261 109.216 168.632 109.039C168.844 108.933 169.073 108.898 169.285 108.898C169.462 108.898 169.639 108.933 169.816 108.986C170.204 109.128 170.522 109.411 170.699 109.782C171.07 110.56 170.734 111.48 169.957 111.851C169.586 112.028 169.162 112.046 168.773 111.904C168.384 111.763 168.066 111.48 167.89 111.108C167.713 110.737 167.695 110.313 167.837 109.924ZM167.201 96.9081C167.413 96.8019 167.642 96.7666 167.854 96.7666C168.437 96.7666 168.985 97.1026 169.25 97.6508C169.621 98.4289 169.285 99.3485 168.508 99.7198C167.731 100.091 166.812 99.7552 166.441 98.9771C166.07 98.199 166.406 97.2794 167.183 96.9081H167.201ZM152.854 89.127C153.808 89.127 154.568 89.9051 154.568 90.8424C154.568 91.7796 153.79 92.5577 152.854 92.5577C151.917 92.5577 151.14 91.7796 151.14 90.8424C151.14 89.9051 151.917 89.127 152.854 89.127ZM167.731 129.129C168.738 129.129 169.55 129.942 169.55 130.95C169.55 131.958 168.738 132.772 167.731 132.772C166.724 132.772 165.911 131.958 165.911 130.95C165.911 129.942 166.724 129.129 167.731 129.129ZM173.915 134.399C174.922 134.399 175.734 135.212 175.734 136.22C175.734 137.228 174.922 138.042 173.915 138.042C172.907 138.042 172.095 137.228 172.095 136.22C172.095 135.212 172.907 134.399 173.915 134.399Z" fill="#75E8F0"/>
</g>
<defs>
<filter id="filter0_d_71_535" x="0.270203" y="0.158691" width="274.636" height="269.771" filterUnits="userSpaceOnUse" color-interpolation-filters="sRGB">
<feFlood flood-opacity="0" result="BackgroundImageFix"/>
<feColorMatrix in="SourceAlpha" type="matrix" values="0 0 0 0 0 0 0 0 0 0 0 0 0 0 0 0 0 0 127 0" result="hardAlpha"/>
<feOffset/>
<feGaussianBlur stdDeviation="10"/>
<feColorMatrix type="matrix" values="0 0 0 0 0 0 0 0 0 0 0 0 0 0 0 0 0 0 1 0"/>
<feBlend mode="normal" in2="BackgroundImageFix" result="effect1_dropShadow_71_535"/>
<feBlend mode="normal" in="SourceGraphic" in2="effect1_dropShadow_71_535" result="shape"/>
</filter>
<filter id="filter1_d_71_535" x="60.8785" y="55.4395" width="94.6779" height="157.016" filterUnits="userSpaceOnUse" color-interpolation-filters="sRGB">
<feFlood flood-opacity="0" result="BackgroundImageFix"/>
<feColorMatrix in="SourceAlpha" type="matrix" values="0 0 0 0 0 0 0 0 0 0 0 0 0 0 0 0 0 0 127 0" result="hardAlpha"/>
<feOffset/>
<feGaussianBlur stdDeviation="10"/>
<feColorMatrix type="matrix" values="0 0 0 0 0 0 0 0 0 1 0 0 0 0 1 0 0 0 1 0"/>
<feBlend mode="normal" in2="BackgroundImageFix" result="effect1_dropShadow_71_535"/>
<feBlend mode="normal" in="SourceGraphic" in2="effect1_dropShadow_71_535" result="shape"/>
</filter>
<filter id="filter2_d_71_535" x="119.62" y="55.4041" width="94.6626" height="157.034" filterUnits="userSpaceOnUse" color-interpolation-filters="sRGB">
<feFlood flood-opacity="0" result="BackgroundImageFix"/>
<feColorMatrix in="SourceAlpha" type="matrix" values="0 0 0 0 0 0 0 0 0 0 0 0 0 0 0 0 0 0 127 0" result="hardAlpha"/>
<feOffset/>
<feGaussianBlur stdDeviation="10"/>
<feColorMatrix type="matrix" values="0 0 0 0 0 0 0 0 0 1 0 0 0 0 1 0 0 0 1 0"/>
<feBlend mode="normal" in2="BackgroundImageFix" result="effect1_dropShadow_71_535"/>
<feBlend mode="normal" in="SourceGraphic" in2="effect1_dropShadow_71_535" result="shape"/>
</filter>
</defs>
</svg>
