<svg width="275" height="270" viewBox="0 0 275 270" fill="none" xmlns="http://www.w3.org/2000/svg">
<path d="M28.8402 25.3091L28.8756 227.72L56.3686 253.379L132.076 255.22L150.322 247.31H245.62V186.558L263.636 168.508V25.3091H28.8402Z" fill="#661109"/>
<g filter="url(#filter0_d_149_2300)">
<path d="M20 20L20.0354 222.411L47.5284 248.07L123.236 249.911L141.482 242.001H236.78V181.249L254.796 163.199V20H20Z" fill="black"/>
</g>
<path d="M204.495 178.647L187.681 167.746C187.469 167.623 187.239 167.57 187.027 167.57H166.659L168.798 133.363C168.798 133.026 168.692 132.69 168.48 132.46C168.25 132.212 167.932 132.088 167.596 132.088H107.217C106.899 132.088 106.581 132.212 106.333 132.46C106.121 132.69 105.998 133.009 105.998 133.345L108.137 167.552H87.769C87.5391 167.552 87.3093 167.605 87.1148 167.729L70.3184 178.63C69.7703 179.037 69.5935 179.78 69.9648 180.311C70.1947 180.683 70.5836 180.877 70.9903 180.877C71.2201 180.877 71.45 180.753 71.6445 180.665L88.1403 169.941H108.278L108.42 172.312C108.455 172.949 109.003 173.392 109.64 173.392H165.174C165.81 173.392 166.341 172.932 166.394 172.312L166.535 169.941H186.691L203.187 180.665C203.399 180.753 203.611 180.877 203.859 180.877C204.248 180.877 204.637 180.665 204.866 180.311C205.22 179.762 205.061 179.037 204.513 178.63L204.495 178.647ZM161.249 163.765L161.178 164.933L161.072 166.879L161.037 167.41L160.966 168.808C160.931 169.321 160.506 169.693 159.976 169.693H115.103C114.59 169.693 114.148 169.321 114.113 168.808L114.077 168.189L113.883 164.95L113.777 163.34L112.15 137.309C112.15 137.043 112.239 136.778 112.415 136.583C112.61 136.389 112.858 136.282 113.123 136.282H161.921C162.186 136.282 162.433 136.371 162.628 136.583C162.805 136.778 162.893 137.043 162.893 137.309L161.231 163.8L161.249 163.765Z" fill="#75E8F0"/>
<path d="M133.594 152.608H133.63C133.63 152.68 133.618 152.74 133.594 152.788H133.57C133.57 152.796 133.562 152.816 133.546 152.848H133.534C133.51 152.88 133.482 152.912 133.45 152.944C133.426 152.968 133.394 152.996 133.354 153.028H133.342C133.334 153.036 133.322 153.044 133.306 153.052C133.29 153.06 133.274 153.072 133.258 153.088H133.438C133.43 153.088 133.426 153.092 133.426 153.1C133.426 153.1 133.422 153.1 133.414 153.1L133.258 153.208H133.378L133.294 153.268H133.15L132.874 153.448H132.73L132.55 153.568H132.634L132.106 153.928H131.866L131.602 154.108H131.746L131.662 154.168L130.966 154.648H130.93L130.75 154.768H130.762L130.402 155.008L130.318 155.068H130.234L130.138 155.128H130.366L130.186 155.248H130.426L130.078 155.488H130.042L129.682 155.728H130.15L129.79 155.968H129.106L128.758 156.208H129.214L129.034 156.328H128.734C128.71 156.312 128.69 156.292 128.674 156.268C128.666 156.252 128.654 156.232 128.638 156.208H128.194C128.178 156.176 128.17 156.148 128.17 156.124V155.968H128.854V155.728H128.398V155.488H128.422V155.248H128.182V155.128H127.966V155.068H128.05V154.768H128.038V154.648H128.074V154.408H128.062V154.108H127.918C127.926 154.044 127.946 153.984 127.978 153.928H128.218C128.266 153.856 128.326 153.796 128.398 153.748C128.422 153.732 128.446 153.716 128.47 153.7C128.494 153.684 128.514 153.672 128.53 153.664L128.686 153.568H128.602L128.782 153.448H128.938L129.226 153.268H129.37L129.466 153.208H129.346L129.538 153.088H129.358L129.742 152.848H129.754L129.85 152.788H129.874L130.162 152.608H130.126L130.51 152.368H130.498L130.546 152.344L130.486 152.308H130.474L130.282 152.188H130.258L130.162 152.128H130.21L129.826 151.888H129.646L129.25 151.648H129.394L129.106 151.468H129.142L128.95 151.348H128.83L128.734 151.288H128.806L128.614 151.168L128.398 151.036C128.342 151.004 128.286 150.968 128.23 150.928H128.086C128.054 150.896 128.018 150.864 127.978 150.832C127.946 150.792 127.918 150.744 127.894 150.688H128.29L128.254 150.568H127.498C127.49 150.552 127.486 150.532 127.486 150.508V150.448H128.518V150.328H128.59V150.088H128.146V149.908H127.63V149.728H127.222V149.488H128.41V149.428H127.642V149.188H127.462V149.008H128.434V148.828H128.254V148.648H128.242V148.528H128.086C128.102 148.384 128.186 148.312 128.338 148.312C128.354 148.312 128.37 148.316 128.386 148.324C128.41 148.324 128.438 148.332 128.47 148.348L128.734 148.528H128.89L129.07 148.648H129.082L129.358 148.828H129.538L129.802 149.008H128.83L129.094 149.188H129.274L129.622 149.428H130.402L130.486 149.488H129.286L129.646 149.728H130.054L130.318 149.908H130.846L131.11 150.088H131.554L131.914 150.328H131.83L132.01 150.448H130.99L131.158 150.568H131.926L132.106 150.688H131.722L132.07 150.928H132.226L132.574 151.168H132.586L132.766 151.288H132.682L132.778 151.348H132.886L133.066 151.468H133.042L133.222 151.588C133.238 151.596 133.254 151.604 133.27 151.612C133.286 151.62 133.298 151.632 133.306 151.648H133.162C133.21 151.68 133.254 151.716 133.294 151.756C133.334 151.796 133.362 151.84 133.378 151.888H133.57C133.594 151.944 133.606 152.012 133.606 152.092V152.128H133.558V152.188H133.582V152.308H133.594V152.608ZM128.446 156.376C128.382 156.376 128.33 156.36 128.29 156.328H128.602L128.578 156.34C128.546 156.356 128.518 156.364 128.494 156.364C128.478 156.372 128.462 156.376 128.446 156.376ZM142.439 156.148H142.043V156.388H142.151V156.508H142.175V156.748H142.259V156.808H142.331V156.928H142.511V157.108C142.511 157.132 142.507 157.152 142.499 157.168C142.483 157.288 142.419 157.368 142.307 157.408H142.199C142.151 157.424 142.111 157.432 142.079 157.432H134.819C134.787 157.432 134.747 157.424 134.699 157.408H134.807C134.695 157.368 134.627 157.288 134.603 157.168V156.928H134.423V156.808H134.351V156.748H134.267V156.508H134.243V156.388H134.135V156.148H134.531V156.088H134.627V155.968H134.123V155.908H134.327V155.728H134.279V155.488H134.291V155.404C134.291 155.364 134.295 155.332 134.303 155.308H134.231C134.287 155.156 134.391 155.08 134.543 155.08H141.803C141.971 155.08 142.075 155.156 142.115 155.308H142.175C142.183 155.324 142.187 155.34 142.187 155.356C142.195 155.372 142.199 155.388 142.199 155.404V155.488H142.187V155.728H142.235V155.908H142.031V155.968H142.535V156.088H142.439V156.148Z" fill="#75E8F0"/>
<path d="M103.911 169.145C104.088 169.233 104.247 169.269 104.424 169.269C104.866 169.269 105.326 169.003 105.52 168.543C105.803 167.941 105.52 167.234 104.901 166.968L95.0003 162.526C92.0477 160.951 94.0986 155.412 94.1693 155.253L99.6326 136.3C99.6326 136.3 100.251 133.487 101.613 129.47C103.894 122.692 112.981 118.002 115.828 116.658L117.348 120.321C119.664 125.134 125.11 129.629 125.358 129.806C125.57 130.001 125.853 130.107 126.118 130.107C126.471 130.107 126.843 129.965 127.037 129.664C127.479 129.133 127.391 128.372 126.878 127.93C126.843 127.895 121.627 123.594 119.576 119.312L115.934 110.676C115.899 110.552 114.466 107.65 117.278 102.854L127.638 85.565C127.638 85.565 131.935 78.398 137.539 78.398C143.144 78.398 147.405 85.4943 147.458 85.6004L157.801 102.837C160.612 107.668 159.198 110.552 159.145 110.694C159.109 110.729 159.109 110.765 159.074 110.782L155.538 119.294C153.452 123.612 148.236 127.93 148.165 127.965C147.67 128.372 147.582 129.133 147.988 129.664C148.236 129.965 148.59 130.107 148.943 130.107C149.208 130.107 149.474 130.018 149.703 129.806C149.951 129.647 155.397 125.152 157.713 120.25L159.233 116.64C162.062 117.967 171.132 122.692 173.431 129.452C174.792 133.469 175.411 136.247 175.446 136.371L180.927 155.324C180.927 155.324 183.049 160.934 180.149 162.473L170.177 166.95C169.559 167.216 169.293 167.941 169.559 168.525C169.771 168.986 170.195 169.251 170.672 169.251C170.832 169.251 170.973 169.216 171.168 169.127L181.192 164.668C186.019 162.066 183.279 154.793 183.208 154.581L177.78 135.77C177.745 135.646 177.108 132.832 175.694 128.673C173.059 120.869 163.176 115.79 160.153 114.392L161.266 111.72C161.567 111.136 163.194 107.278 159.834 101.58L149.491 84.344C149.279 83.9901 144.505 75.9736 137.504 75.9736C130.503 75.9736 125.711 83.9901 125.517 84.344L115.174 101.616C111.814 107.296 113.441 111.136 113.759 111.72L114.873 114.392C111.832 115.79 101.949 120.869 99.2966 128.673C97.8822 132.814 97.2634 135.646 97.2634 135.681L91.8355 154.475C91.7117 154.775 88.9713 162.066 93.8864 164.685L103.876 169.127L103.911 169.145Z" fill="#75E8F0"/>
<path d="M147.493 111.012L143.339 123.099C142.826 124.55 141.235 125.718 139.661 125.718H135.4C133.826 125.718 132.218 124.55 131.705 123.099L127.568 111.012L126.383 111.897L130.609 124.231C131.21 125.983 133.137 127.346 134.993 127.346H140.05C141.924 127.346 143.798 125.966 144.417 124.231L148.66 111.897L147.476 111.012H147.493Z" fill="#75E8F0"/>
<path d="M153.133 109.667L141.164 100.624C139.131 99.0848 135.93 99.0848 133.897 100.624L121.928 109.667C121.379 110.074 121.291 110.818 121.662 111.366C122.069 111.879 122.829 112.003 123.36 111.596L124.597 110.676L134.463 103.226C136.178 101.934 138.865 101.934 140.58 103.226L150.658 110.835C150.658 110.835 150.658 110.853 150.676 110.871L151.648 111.614C151.861 111.773 152.126 111.862 152.391 111.862C152.745 111.862 153.116 111.685 153.346 111.384C153.752 110.835 153.646 110.092 153.116 109.685L153.133 109.667Z" fill="#75E8F0"/>
<defs>
<filter id="filter0_d_149_2300" x="0" y="0" width="274.796" height="269.911" filterUnits="userSpaceOnUse" color-interpolation-filters="sRGB">
<feFlood flood-opacity="0" result="BackgroundImageFix"/>
<feColorMatrix in="SourceAlpha" type="matrix" values="0 0 0 0 0 0 0 0 0 0 0 0 0 0 0 0 0 0 127 0" result="hardAlpha"/>
<feOffset/>
<feGaussianBlur stdDeviation="10"/>
<feColorMatrix type="matrix" values="0 0 0 0 0 0 0 0 0 0 0 0 0 0 0 0 0 0 1 0"/>
<feBlend mode="normal" in2="BackgroundImageFix" result="effect1_dropShadow_149_2300"/>
<feBlend mode="normal" in="SourceGraphic" in2="effect1_dropShadow_149_2300" result="shape"/>
</filter>
</defs>
</svg>
