<svg width="276" height="270" viewBox="0 0 276 270" fill="none" xmlns="http://www.w3.org/2000/svg">
<path d="M28.866 25.3091L28.9192 227.72L56.4746 253.397L132.421 255.22L150.72 247.31H246.278V186.558L264.364 168.508V25.3091H28.866Z" fill="#661109"/>
<g filter="url(#filter0_d_149_2287)">
<path d="M20 20L20.0532 222.411L47.6087 248.088L123.555 249.911L141.854 242.001H237.412V181.249L255.498 163.199V20H20Z" fill="black"/>
</g>
<g filter="url(#filter1_d_149_2287)">
<path d="M86.7963 81.123V159.907H194.287V81.123H86.7963ZM190.599 157.2H90.4845V83.8129H190.599V157.2Z" fill="#75E8F0"/>
</g>
<path d="M133.629 122.286H133.689C133.689 122.406 133.669 122.506 133.629 122.586H133.589C133.589 122.6 133.575 122.633 133.549 122.686H133.529C133.489 122.74 133.442 122.793 133.389 122.846C133.349 122.886 133.295 122.933 133.229 122.986H133.209C133.195 123 133.175 123.013 133.149 123.026C133.122 123.04 133.095 123.06 133.069 123.086H133.369C133.355 123.086 133.349 123.093 133.349 123.106C133.349 123.106 133.342 123.106 133.329 123.106L133.069 123.286H133.269L133.129 123.386H132.889L132.429 123.686H132.189L131.889 123.886H132.029L131.149 124.486H130.749L130.309 124.786H130.549L130.409 124.886L129.249 125.686H129.189L128.889 125.886H128.909L128.309 126.286L128.169 126.386H128.029L127.869 126.486H128.249L127.949 126.686H128.349L127.769 127.086H127.709L127.109 127.486H127.889L127.289 127.886H126.149L125.569 128.286H126.329L126.029 128.486H125.529C125.489 128.46 125.455 128.426 125.429 128.386C125.415 128.36 125.395 128.326 125.369 128.286H124.629C124.602 128.233 124.589 128.186 124.589 128.146V127.886H125.729V127.486H124.969V127.086H125.009V126.686H124.609V126.486H124.249V126.386H124.389V125.886H124.369V125.686H124.429V125.286H124.409V124.786H124.169C124.182 124.68 124.215 124.58 124.269 124.486H124.669C124.749 124.366 124.849 124.266 124.969 124.186C125.009 124.16 125.049 124.133 125.089 124.106C125.129 124.08 125.162 124.06 125.189 124.046L125.449 123.886H125.309L125.609 123.686H125.869L126.349 123.386H126.589L126.749 123.286H126.549L126.869 123.086H126.569L127.209 122.686H127.229L127.389 122.586H127.429L127.909 122.286H127.849L128.489 121.886H128.469L128.549 121.846L128.449 121.786H128.429L128.109 121.586H128.069L127.909 121.486H127.989L127.349 121.086H127.049L126.389 120.686H126.629L126.149 120.386H126.209L125.889 120.186H125.689L125.529 120.086H125.649L125.329 119.886L124.969 119.666C124.875 119.613 124.782 119.553 124.689 119.486H124.449C124.395 119.433 124.335 119.38 124.269 119.326C124.215 119.26 124.169 119.18 124.129 119.086H124.789L124.729 118.886H123.469C123.455 118.86 123.449 118.826 123.449 118.786V118.686H125.169V118.486H125.289V118.086H124.549V117.786H123.689V117.486H123.009V117.086H124.989V116.986H123.709V116.586H123.409V116.286H125.029V115.986H124.729V115.686H124.709V115.486H124.449C124.475 115.246 124.615 115.126 124.869 115.126C124.895 115.126 124.922 115.133 124.949 115.146C124.989 115.146 125.035 115.16 125.089 115.186L125.529 115.486H125.789L126.089 115.686H126.109L126.569 115.986H126.869L127.309 116.286H125.689L126.129 116.586H126.429L127.009 116.986H128.309L128.449 117.086H126.449L127.049 117.486H127.729L128.169 117.786H129.049L129.489 118.086H130.229L130.829 118.486H130.689L130.989 118.686H129.289L129.569 118.886H130.849L131.149 119.086H130.509L131.089 119.486H131.349L131.929 119.886H131.949L132.249 120.086H132.109L132.269 120.186H132.449L132.749 120.386H132.709L133.009 120.586C133.035 120.6 133.062 120.613 133.089 120.626C133.115 120.64 133.135 120.66 133.149 120.686H132.909C132.989 120.74 133.062 120.8 133.129 120.866C133.195 120.933 133.242 121.006 133.269 121.086H133.589C133.629 121.18 133.649 121.293 133.649 121.426V121.486H133.569V121.586H133.609V121.786H133.629V122.286ZM125.049 128.566C124.942 128.566 124.855 128.54 124.789 128.486H125.309L125.269 128.506C125.215 128.533 125.169 128.546 125.129 128.546C125.102 128.56 125.075 128.566 125.049 128.566ZM148.37 128.186H147.71V128.586H147.89V128.786H147.93V129.186H148.07V129.286H148.19V129.486H148.49V129.786C148.49 129.826 148.484 129.86 148.47 129.886C148.444 130.086 148.337 130.22 148.15 130.286H147.97C147.89 130.313 147.824 130.326 147.77 130.326H135.67C135.617 130.326 135.55 130.313 135.47 130.286H135.65C135.464 130.22 135.35 130.086 135.31 129.886V129.486H135.01V129.286H134.89V129.186H134.75V128.786H134.71V128.586H134.53V128.186H135.19V128.086H135.35V127.886H134.51V127.786H134.85V127.486H134.77V127.086H134.79V126.946C134.79 126.88 134.797 126.826 134.81 126.786H134.69C134.784 126.533 134.957 126.406 135.21 126.406H147.31C147.59 126.406 147.764 126.533 147.83 126.786H147.93C147.944 126.813 147.95 126.84 147.95 126.866C147.964 126.893 147.97 126.92 147.97 126.946V127.086H147.95V127.486H148.03V127.786H147.69V127.886H148.53V128.086H148.37V128.186Z" fill="#75E8F0"/>
<g filter="url(#filter2_d_149_2287)">
<path d="M155.614 170.1C154.018 168.914 152.28 167.923 150.454 167.163V161.323H130.647V166.968C128.679 167.764 126.817 168.791 125.115 170.1C119.281 174.595 117.224 180.789 116.497 183.496H164.586C163.806 180.789 161.59 174.577 155.614 170.1ZM128.679 170.631C129.991 169.622 131.428 168.826 132.935 168.224V163.889H148.167V168.384C149.567 168.968 150.915 169.729 152.139 170.649C156.749 174.1 158.451 178.86 159.036 180.948H122.047C122.597 178.86 124.175 174.1 128.679 170.649V170.631Z" fill="#75E8F0"/>
</g>
<defs>
<filter id="filter0_d_149_2287" x="0" y="0" width="275.498" height="269.911" filterUnits="userSpaceOnUse" color-interpolation-filters="sRGB">
<feFlood flood-opacity="0" result="BackgroundImageFix"/>
<feColorMatrix in="SourceAlpha" type="matrix" values="0 0 0 0 0 0 0 0 0 0 0 0 0 0 0 0 0 0 127 0" result="hardAlpha"/>
<feOffset/>
<feGaussianBlur stdDeviation="10"/>
<feColorMatrix type="matrix" values="0 0 0 0 0 0 0 0 0 0 0 0 0 0 0 0 0 0 1 0"/>
<feBlend mode="normal" in2="BackgroundImageFix" result="effect1_dropShadow_149_2287"/>
<feBlend mode="normal" in="SourceGraphic" in2="effect1_dropShadow_149_2287" result="shape"/>
</filter>
<filter id="filter1_d_149_2287" x="66.7963" y="61.123" width="147.491" height="118.784" filterUnits="userSpaceOnUse" color-interpolation-filters="sRGB">
<feFlood flood-opacity="0" result="BackgroundImageFix"/>
<feColorMatrix in="SourceAlpha" type="matrix" values="0 0 0 0 0 0 0 0 0 0 0 0 0 0 0 0 0 0 127 0" result="hardAlpha"/>
<feOffset/>
<feGaussianBlur stdDeviation="10"/>
<feColorMatrix type="matrix" values="0 0 0 0 0.215686 0 0 0 0 0.921569 0 0 0 0 0.952941 0 0 0 0.75 0"/>
<feBlend mode="normal" in2="BackgroundImageFix" result="effect1_dropShadow_149_2287"/>
<feBlend mode="normal" in="SourceGraphic" in2="effect1_dropShadow_149_2287" result="shape"/>
</filter>
<filter id="filter2_d_149_2287" x="96.4973" y="141.323" width="88.0891" height="62.1733" filterUnits="userSpaceOnUse" color-interpolation-filters="sRGB">
<feFlood flood-opacity="0" result="BackgroundImageFix"/>
<feColorMatrix in="SourceAlpha" type="matrix" values="0 0 0 0 0 0 0 0 0 0 0 0 0 0 0 0 0 0 127 0" result="hardAlpha"/>
<feOffset/>
<feGaussianBlur stdDeviation="10"/>
<feColorMatrix type="matrix" values="0 0 0 0 0.215686 0 0 0 0 0.921569 0 0 0 0 0.952941 0 0 0 0.75 0"/>
<feBlend mode="normal" in2="BackgroundImageFix" result="effect1_dropShadow_149_2287"/>
<feBlend mode="normal" in="SourceGraphic" in2="effect1_dropShadow_149_2287" result="shape"/>
</filter>
</defs>
</svg>
