<svg width="207" height="63" viewBox="0 0 207 63" fill="none" xmlns="http://www.w3.org/2000/svg">
<path d="M11.24 4.864C11.2827 4.736 11.304 4.62933 11.304 4.544C11.3467 4.416 11.3893 4.30933 11.432 4.224H4.392C4.47733 4.096 4.56267 3.98933 4.648 3.904C4.73333 3.776 4.81867 3.66933 4.904 3.584H12.328C12.6693 3.328 13.032 3.2 13.416 3.2H26.216C26.6853 3.2 27.048 3.328 27.304 3.584H19.88C19.9653 3.66933 20.0507 3.776 20.136 3.904C20.264 3.98933 20.3493 4.096 20.392 4.224H27.368C27.4533 4.48 27.496 4.69333 27.496 4.864H31.08C31.1227 4.864 31.144 4.88533 31.144 4.928V5.504H22.504V6.784H26.088V7.744H25.704V9.024H23.4V10.304H28.584V10.624H28.968V11.904H29.224V13.184H28.776V14.464H28.456V16.064H29.544V17.344H28.328V18.624H28.584V18.944H33.128V20.224H35.496V20.864H25.64V21.504H28.904V22.784H26.216V24.064H28.52V24.704H28.968V25.664H37.544V26.304H43.496V27.584H27.24V26.304H21.288V25.664H12.712V24.704H12.264V24.064H9.96V22.784H12.648V21.504H9.384V20.864H19.24V20.224H16.872V18.944H12.328V18.624H12.072V17.344H13.288V16.064H12.2V14.464H12.52V13.184H12.968V11.904H12.712V10.624H12.328V10.304H7.144V9.024H9.448V7.744H9.832V6.784H6.248V5.504H14.888V4.864H11.24ZM53.8 39.424H36.328V39.744H37.608V40.704H46.696V41.024H43.88V42.304H48.36V43.264H49V43.584H48.552V43.904H48.36V45.184H48.488V46.144H48.232V46.464H47.912C47.8693 46.5493 47.848 46.656 47.848 46.784H48.552C48.424 47.2107 48.1893 47.5307 47.848 47.744H47.144C46.9307 47.9147 46.632 48 46.248 48H13.992C13.608 48 13.3093 47.9147 13.096 47.744H13.736C13.352 47.5307 13.096 47.2107 12.968 46.784H12.264C12.264 46.6987 12.2427 46.6347 12.2 46.592C12.2 46.5493 12.2 46.5067 12.2 46.464H12.52V46.144H12.776V45.184H12.648V43.904H12.84V43.584H13.288V43.264H12.648V42.304H8.168V41.024H10.984V40.704H1.896V39.744H0.615999V39.424H18.088V38.464H10.984V37.504H17.896V37.184H2.792V36.224H4.968V35.904H13.288V35.584H10.344V34.624H15.336V33.344H10.28V32.704H14.44V32.384H12.52V31.424H14.376V30.784H12.008V30.144H17.576V29.184H19.176V28.544H10.408V27.584H26.664V28.544H35.432V29.184H33.832V30.144H28.264V30.784H30.632V31.424H28.776V32.384H30.696V32.704H26.536V33.344H31.592V34.624H26.6V34.88H44.328C44.9253 34.88 45.3947 35.1147 45.736 35.584H48.68L48.872 35.904H40.552L40.68 36.224H38.44C38.4827 36.3093 38.504 36.4373 38.504 36.608V37.184H53.608V37.504H46.696V38.464H53.8V39.424ZM93.4785 29.504C93.5212 29.7173 93.5425 29.9307 93.5425 30.144C93.5425 30.3573 93.5425 30.5707 93.5425 30.784H88.9985V31.424H86.3745V32.064H88.8705V32.384H85.9905V33.344H84.3905V33.664H87.9745C87.9745 33.792 87.9532 33.8987 87.9105 33.984H87.7185V34.304H88.2945V34.368C88.2945 34.5387 88.2732 34.7307 88.2305 34.944C88.2305 35.1573 88.2092 35.3707 88.1665 35.584H87.7185L87.5265 36.864H88.4865C88.4865 37.0347 88.4438 37.248 88.3585 37.504H88.1665C88.1238 37.6747 88.0812 37.8453 88.0385 38.016C87.9958 38.144 87.9532 38.2933 87.9105 38.464H88.4225C88.3798 38.6773 88.3158 38.8907 88.2305 39.104C88.1452 39.3173 88.0598 39.5307 87.9745 39.744H87.0145L86.7585 40.384H86.8865C86.8012 40.5547 86.7585 40.6613 86.7585 40.704H86.5025C86.3318 41.1307 86.0972 41.5573 85.7985 41.984H85.9265C85.8838 42.0693 85.8198 42.176 85.7345 42.304C85.6492 42.432 85.5638 42.5387 85.4785 42.624H85.4145L84.6465 43.584C84.6038 43.6267 84.5612 43.6693 84.5185 43.712C84.4758 43.7547 84.4118 43.8187 84.3265 43.904H84.0065C83.8358 44.0747 83.6652 44.2453 83.4945 44.416C83.3238 44.544 83.1318 44.6933 82.9185 44.864H80.9985L79.6545 45.824H79.9105C79.8252 45.8667 79.7398 45.9093 79.6545 45.952C79.5692 45.9947 79.4838 46.0587 79.3985 46.144H78.9505C78.8652 46.1867 78.7585 46.2293 78.6305 46.272C78.5025 46.3147 78.3958 46.3787 78.3105 46.464H81.7665C81.5532 46.592 81.3185 46.72 81.0625 46.848C80.8065 46.9333 80.5505 47.0187 80.2945 47.104H79.2065C78.9078 47.232 78.5878 47.36 78.2465 47.488C77.9052 47.5733 77.5638 47.6587 77.2225 47.744H77.4785C76.9665 47.872 76.4332 47.9787 75.8785 48.064C75.3238 48.192 74.7478 48.2987 74.1505 48.384H76.1345C75.4518 48.4693 74.7478 48.5333 74.0225 48.576C73.2972 48.6187 72.5505 48.64 71.7825 48.64C70.9718 48.64 70.2038 48.6187 69.4785 48.576C68.7958 48.5333 68.0918 48.4693 67.3665 48.384H65.3185C64.7638 48.2987 64.1878 48.192 63.5905 48.064C63.0358 47.9787 62.5025 47.872 61.9905 47.744H61.7985C61.4572 47.6587 61.1158 47.5733 60.7745 47.488C60.4758 47.36 60.1558 47.232 59.8145 47.104H60.8385C60.6252 47.0187 60.3905 46.9333 60.1345 46.848C59.8785 46.72 59.6438 46.592 59.4305 46.464H55.9745L55.3985 46.144H55.8465L55.2705 45.824H55.0145C54.5025 45.4827 54.0545 45.1627 53.6705 44.864H55.5905C55.4198 44.6933 55.2492 44.544 55.0785 44.416C54.9078 44.2453 54.7372 44.0747 54.5665 43.904H54.8865C54.8438 43.8187 54.8012 43.7547 54.7585 43.712C54.7158 43.6693 54.6518 43.6267 54.5665 43.584L53.7985 42.624H53.8625L53.4145 41.984H53.2865C52.9878 41.5573 52.7532 41.1307 52.5825 40.704H52.7745C52.6892 40.5333 52.6465 40.4267 52.6465 40.384H52.4545L52.1985 39.744H53.1585C53.1158 39.5307 53.0518 39.3173 52.9665 39.104C52.8812 38.8907 52.7958 38.6773 52.7105 38.464H52.1985C52.1558 38.2933 52.1132 38.144 52.0705 38.016C52.0278 37.8453 51.9852 37.6747 51.9425 37.504H51.5585L51.3665 36.864H50.7265L50.5345 35.584H51.1745C51.1318 35.3707 51.0892 35.1573 51.0465 34.944C51.0465 34.7307 51.0465 34.5387 51.0465 34.368V34.304H49.8945V33.984H49.5745C49.5745 33.8987 49.5532 33.8347 49.5105 33.792C49.5105 33.7493 49.5105 33.7067 49.5105 33.664H53.0945C53.0945 33.536 53.0732 33.4293 53.0305 33.344H49.4465V32.384H50.9825V32.064H51.7505V31.424H53.0945V30.784H49.1905C49.1905 30.5707 49.1905 30.3573 49.1905 30.144C49.1905 29.9307 49.2118 29.7173 49.2545 29.504H48.4225V28.864H54.7585C54.8012 28.736 54.8225 28.5653 54.8225 28.352V27.904H53.0945C53.0945 27.7333 53.0945 27.584 53.0945 27.456C53.1372 27.2853 53.1585 27.1147 53.1585 26.944H53.7985L53.9905 25.664H51.8785C51.9212 25.4933 51.9638 25.344 52.0065 25.216C52.0492 25.0453 52.0918 24.8747 52.1345 24.704H51.6865C51.7718 24.4907 51.8358 24.2773 51.8785 24.064C51.9638 23.808 52.0492 23.5947 52.1345 23.424H52.1985C52.2412 23.3387 52.2838 23.232 52.3265 23.104C52.3692 22.976 52.4118 22.8693 52.4545 22.784H52.3905C52.3905 22.7413 52.4332 22.6347 52.5185 22.464H52.8385C53.0092 22.0373 53.2438 21.6107 53.5425 21.184H52.2625L52.6465 20.544H55.0145C55.0572 20.4587 55.1425 20.352 55.2705 20.224H50.5985C50.6838 20.0533 50.7905 19.904 50.9185 19.776C51.0892 19.6053 51.2385 19.4347 51.3665 19.264H52.8385C53.0518 19.0507 53.2652 18.8373 53.4785 18.624C53.7345 18.368 53.9692 18.1547 54.1825 17.984H57.1265C57.5105 17.6427 57.9585 17.3227 58.4705 17.024H59.6865C59.8572 16.896 60.0278 16.7893 60.1985 16.704C60.4118 16.576 60.6038 16.4693 60.7745 16.384H56.9985C57.3825 16.1707 57.8518 15.9573 58.4065 15.744H60.1345C61.1158 15.36 62.1398 15.04 63.2065 14.784H61.2865C63.3772 14.3147 65.5958 14.08 67.9425 14.08C70.2892 14.08 72.5078 14.3147 74.5985 14.784H76.5825C77.6492 15.04 78.6518 15.36 79.5905 15.744H77.7985C78.3532 15.9573 78.8225 16.1707 79.2065 16.384H82.9825C83.1958 16.4693 83.3878 16.576 83.5585 16.704C83.7718 16.7893 83.9638 16.896 84.1345 17.024H82.9185L84.2625 17.984H81.3185C81.5745 18.1547 81.8092 18.368 82.0225 18.624C82.2785 18.8373 82.5132 19.0507 82.7265 19.264H81.2545C81.3825 19.4347 81.5105 19.6053 81.6385 19.776C81.8092 19.904 81.9372 20.0533 82.0225 20.224H86.7585L86.9505 20.544H84.6465L85.0305 21.184H86.3105C86.6092 21.6107 86.8438 22.0373 87.0145 22.464H86.6945C86.7798 22.6347 86.8225 22.7413 86.8225 22.784H86.9505L87.2065 23.424H87.1425C87.2278 23.5947 87.3132 23.808 87.3985 24.064C87.4838 24.2773 87.5478 24.4907 87.5905 24.704H88.2305L88.4225 25.664H88.0385C88.1238 25.8347 88.1665 26.048 88.1665 26.304C88.2092 26.5173 88.2518 26.7307 88.2945 26.944H88.8065C88.8492 27.1147 88.8705 27.2853 88.8705 27.456C88.8705 27.584 88.8918 27.7333 88.9345 27.904H86.4385V28.352C86.4385 28.5653 86.4598 28.736 86.5025 28.864H85.2225V29.504H93.4785ZM68.9025 26.944C68.8598 27.1147 68.8172 27.2853 68.7745 27.456C68.7745 27.584 68.7745 27.7333 68.7745 27.904H70.5665C70.5238 28.032 70.5025 28.16 70.5025 28.288C70.5025 28.416 70.5025 28.544 70.5025 28.672V28.864H70.7585V28.672C70.7585 28.544 70.7372 28.416 70.6945 28.288C70.6945 28.16 70.6945 28.032 70.6945 27.904H73.1905C73.1905 27.7333 73.1692 27.584 73.1265 27.456C73.1265 27.2853 73.1265 27.1147 73.1265 26.944H72.6145C72.5718 26.688 72.5078 26.4533 72.4225 26.24C72.3798 26.0267 72.3158 25.8347 72.2305 25.664H72.6785C72.5078 25.28 72.2518 24.96 71.9105 24.704H71.2705C70.8438 24.448 70.2892 24.32 69.6065 24.32C68.9238 24.32 68.3905 24.448 68.0065 24.704H68.4545C68.2838 24.832 68.1345 24.9813 68.0065 25.152C67.8785 25.28 67.7718 25.4507 67.6865 25.664H69.7985C69.7558 25.8347 69.6918 26.0267 69.6065 26.24C69.5638 26.4533 69.5212 26.688 69.4785 26.944H68.9025ZM73.2545 30.784H77.7985V29.504H69.5425C69.4998 29.3333 69.4785 29.12 69.4785 28.864H64.1665C64.1665 29.12 64.1452 29.3333 64.1025 29.504H64.9345V30.784H68.8385V31.424H67.4305V32.064H66.6625V32.384H65.1265C65.1265 32.5547 65.1265 32.7253 65.1265 32.896C65.1692 33.024 65.1905 33.1733 65.1905 33.344H70.2465V32.384H73.1265V32.064H70.6305V31.424H73.2545V30.784ZM72.2305 33.984V33.664H65.2545V33.984H65.5745V34.048C65.5745 34.0907 65.5745 34.1333 65.5745 34.176C65.6172 34.2187 65.6385 34.2613 65.6385 34.304H66.7265C66.7692 34.5173 66.7905 34.7307 66.7905 34.944C66.7905 35.1573 66.8118 35.3707 66.8545 35.584H66.2145C66.2998 36.1387 66.3852 36.5653 66.4705 36.864H67.1745C67.2598 37.12 67.3452 37.3333 67.4305 37.504H67.8785C68.2625 38.1013 68.9878 38.4 70.0545 38.4C71.1212 38.4 71.8465 38.1013 72.2305 37.504H72.4865C72.5292 37.4187 72.5718 37.3333 72.6145 37.248C72.6572 37.12 72.6998 36.992 72.7425 36.864H71.7825C71.8252 36.6507 71.8678 36.4587 71.9105 36.288C71.9532 36.0747 71.9958 35.84 72.0385 35.584H72.4865C72.5292 35.3707 72.5505 35.1573 72.5505 34.944C72.5505 34.7307 72.5718 34.5173 72.6145 34.304H72.0385V33.984H72.2305ZM130.317 46.784H132.365V47.744H130.765V48.064H131.213C131.17 48.2347 131.149 48.384 131.149 48.512C131.149 48.6827 131.128 48.8533 131.085 49.024H131.021V49.344H128.013C127.97 49.4293 127.949 49.536 127.949 49.664C127.949 49.792 127.928 49.8987 127.885 49.984H131.597C131.554 50.1973 131.512 50.4107 131.469 50.624C131.426 50.8373 131.384 51.0507 131.341 51.264H130.317C130.274 51.4347 130.232 51.584 130.189 51.712C130.146 51.8827 130.082 52.0533 129.997 52.224H127.885L127.629 52.864H128.717L128.461 53.504H128.589C128.504 53.7173 128.397 53.9307 128.269 54.144H128.333L127.757 55.104C127.714 55.1467 127.672 55.1893 127.629 55.232C127.629 55.2747 127.608 55.3387 127.565 55.424C127.48 55.5947 127.373 55.744 127.245 55.872C127.117 56.0427 126.989 56.2133 126.861 56.384H126.733L126.413 56.704H127.629L127.053 57.344H125.581C125.453 57.4293 125.325 57.536 125.197 57.664C125.069 57.792 124.962 57.8987 124.877 57.984H126.605C126.434 58.1547 126.221 58.304 125.965 58.432C125.752 58.6027 125.538 58.7733 125.325 58.944H127.629C127.373 59.1147 127.096 59.264 126.797 59.392C126.541 59.5627 126.264 59.7333 125.965 59.904H125.325C125.112 60.032 124.877 60.1387 124.621 60.224C124.365 60.352 124.13 60.4587 123.917 60.544H120.269C119.458 60.8427 118.626 61.0987 117.773 61.312C116.92 61.5253 116.045 61.696 115.149 61.824H118.925C118.285 61.9093 117.624 61.9733 116.941 62.016C116.258 62.0587 115.576 62.08 114.893 62.08C114.168 62.08 113.442 62.0587 112.717 62.016C112.034 61.9733 111.373 61.9093 110.733 61.824H106.957C105.037 61.568 103.266 61.1413 101.645 60.544H105.293C105.037 60.4587 104.781 60.352 104.525 60.224C104.269 60.1387 104.013 60.032 103.757 59.904H104.397C104.098 59.7333 103.8 59.5627 103.501 59.392C103.202 59.264 102.904 59.1147 102.605 58.944H100.365C100.109 58.7733 99.853 58.6027 99.597 58.432C99.3837 58.304 99.1703 58.1547 98.957 57.984H97.229C96.8877 57.728 96.6317 57.5147 96.461 57.344H97.933C97.805 57.2587 97.677 57.152 97.549 57.024C97.421 56.896 97.3143 56.7893 97.229 56.704H96.013C95.9703 56.6187 95.9277 56.5547 95.885 56.512C95.8423 56.4693 95.7783 56.4267 95.693 56.384H95.885C95.7143 56.2133 95.565 56.0427 95.437 55.872C95.309 55.744 95.181 55.5947 95.053 55.424H94.989C94.9463 55.3387 94.861 55.232 94.733 55.104H94.797C94.669 54.9333 94.541 54.7627 94.413 54.592C94.285 54.464 94.1783 54.3147 94.093 54.144L93.709 53.504H93.581C93.5383 53.4187 93.4957 53.312 93.453 53.184C93.4103 53.056 93.3463 52.9493 93.261 52.864H92.173L91.917 52.224H94.093C94.0503 52.0533 93.9863 51.8827 93.901 51.712C93.8583 51.584 93.8157 51.4347 93.773 51.264H93.389C93.389 51.136 93.3677 51.008 93.325 50.88C93.325 50.7947 93.325 50.7093 93.325 50.624C93.325 50.3253 93.3463 50.112 93.389 49.984H93.197C93.325 49.728 93.4743 49.5147 93.645 49.344H93.261C93.517 49.1733 93.709 49.0667 93.837 49.024H94.669C94.925 48.9387 95.1597 48.896 95.373 48.896H107.853C108.066 48.896 108.301 48.9387 108.557 49.024H107.661C107.874 49.0667 108.045 49.1733 108.173 49.344H108.557C108.728 49.5147 108.877 49.728 109.005 49.984H109.197L109.325 50.176C109.624 50.688 109.901 51.0507 110.157 51.264H110.477C110.946 51.6053 111.586 51.776 112.397 51.776C113.037 51.776 113.592 51.6053 114.061 51.264H115.085C115.469 50.9653 115.746 50.5387 115.917 49.984H112.205C112.29 49.728 112.333 49.5147 112.333 49.344H115.341C115.384 49.2587 115.405 49.152 115.405 49.024H115.469C115.512 48.8533 115.533 48.6827 115.533 48.512C115.533 48.384 115.533 48.2347 115.533 48.064H115.149V47.744H116.685V46.784H114.637V46.464H113.421V46.144H114.573V44.864H113.357V44.48L112.717 44.864H112.653C111.629 45.4613 110.52 45.888 109.325 46.144H109.581C109.24 46.1867 108.898 46.2507 108.557 46.336C108.216 46.3787 107.853 46.4213 107.469 46.464H105.869C105.613 46.5067 105.357 46.528 105.101 46.528C104.845 46.528 104.589 46.528 104.333 46.528C104.034 46.528 103.736 46.528 103.437 46.528C103.138 46.528 102.861 46.5067 102.605 46.464H104.141C103.757 46.4213 103.373 46.3787 102.989 46.336C102.605 46.2507 102.221 46.1867 101.837 46.144H101.645C101.005 46.016 100.386 45.8453 99.789 45.632C99.2343 45.4187 98.6797 45.1627 98.125 44.864H98.189C98.0183 44.7787 97.8477 44.6933 97.677 44.608C97.5063 44.48 97.3357 44.352 97.165 44.224H98.637C98.381 44.0107 98.125 43.7973 97.869 43.584C97.6557 43.3707 97.4423 43.1573 97.229 42.944H92.045L91.725 42.624H94.669C94.3277 42.1973 94.029 41.7707 93.773 41.344H94.605C94.3063 40.9173 94.0717 40.4907 93.901 40.064H93.773C93.5597 39.5947 93.389 39.168 93.261 38.784H88.589C88.589 38.6987 88.589 38.6347 88.589 38.592C88.5463 38.5493 88.525 38.5067 88.525 38.464H92.877L92.685 37.824H93.005C92.9623 37.6107 92.8983 37.3973 92.813 37.184C92.7703 36.9707 92.7277 36.7573 92.685 36.544H93.453L93.261 35.264H92.429L92.365 34.624H90.829C90.7863 34.4107 90.765 34.1973 90.765 33.984C90.765 33.7707 90.7437 33.5573 90.701 33.344H90.125C90.125 33.1733 90.125 33.024 90.125 32.896C90.0823 32.7253 90.061 32.5547 90.061 32.384H90.957V31.744H92.109C92.109 31.5733 92.0877 31.424 92.045 31.296C92.045 31.1253 92.045 30.9547 92.045 30.784H92.621V29.824H91.597C91.597 29.6533 91.597 29.504 91.597 29.376C91.597 29.2053 91.6183 29.0347 91.661 28.864H91.789V28.8C91.789 28.6293 91.789 28.48 91.789 28.352C91.8317 28.224 91.853 28.0747 91.853 27.904H92.109C92.1517 27.7333 92.173 27.584 92.173 27.456C92.173 27.2853 92.1943 27.1147 92.237 26.944C92.2797 26.8587 92.301 26.752 92.301 26.624C92.301 26.496 92.3223 26.3893 92.365 26.304H92.045V25.984H92.429C92.4717 25.7707 92.5143 25.5573 92.557 25.344C92.5997 25.088 92.6423 24.8747 92.685 24.704H92.621C92.6637 24.5333 92.7063 24.384 92.749 24.256C92.7917 24.0853 92.8343 23.9147 92.877 23.744H93.389C93.4743 23.5307 93.5383 23.3173 93.581 23.104C93.6663 22.848 93.7517 22.6347 93.837 22.464H94.157L94.285 22.144H93.389C93.4317 22.0587 93.4743 21.952 93.517 21.824C93.5597 21.696 93.6023 21.5893 93.645 21.504L94.029 20.544C94.0717 20.4587 94.093 20.3947 94.093 20.352C94.1357 20.3093 94.1783 20.2667 94.221 20.224L94.413 19.904C94.4983 19.8187 94.5623 19.712 94.605 19.584C94.6903 19.456 94.7757 19.3493 94.861 19.264C94.9037 19.1787 94.9463 19.1147 94.989 19.072C95.0317 19.0293 95.0743 18.9867 95.117 18.944H94.989L95.757 17.984C95.885 17.8987 95.9917 17.792 96.077 17.664C96.205 17.536 96.3117 17.4293 96.397 17.344H96.525C96.5677 17.2587 96.6103 17.1947 96.653 17.152C96.7383 17.1093 96.8023 17.0667 96.845 17.024H97.549C97.805 16.768 98.0823 16.5547 98.381 16.384H96.781C96.9517 16.256 97.1223 16.1493 97.293 16.064C97.4637 15.936 97.6343 15.8293 97.805 15.744H98.253C98.8503 15.4027 99.5757 15.0827 100.429 14.784H102.541C104.077 14.3147 105.72 14.08 107.469 14.08C109.005 14.08 110.434 14.3147 111.757 14.784H109.645C110.328 14.9973 111.01 15.3173 111.693 15.744H111.309C111.48 15.8293 111.629 15.936 111.757 16.064C111.928 16.1493 112.098 16.256 112.269 16.384H113.805C113.976 16.4693 114.125 16.576 114.253 16.704C114.381 16.832 114.509 16.9387 114.637 17.024H113.933L114.253 17.344H114.189L114.765 17.984C114.85 18.0267 114.914 18.0907 114.957 18.176C115.042 18.2613 115.106 18.3467 115.149 18.432V17.984H115.405V17.344H116.493V17.024H117.197V16.384H114.061C114.061 16.128 114.125 15.9147 114.253 15.744H115.341C115.554 15.232 115.917 14.912 116.429 14.784H115.149C115.277 14.7413 115.448 14.72 115.661 14.72H126.861C127.074 14.72 127.224 14.7413 127.309 14.784H128.589C129.101 14.912 129.464 15.232 129.677 15.744H128.589C128.674 16 128.717 16.2133 128.717 16.384H131.853V17.024H131.149V17.344H130.061V17.984H129.805V18.944H129.869V19.904H129.805V21.504H129.869V22.144H130.765V22.464H130.381V23.744H129.805L129.869 24.704V26.304H129.677V26.944H129.485V27.904H129.869V28.864H130.637V29.824H129.293V30.784H129.741V31.744H129.869V32.384H127.757L127.821 33.344H128.077V34.624H129.485V35.264H130.637V36.544H129.805V37.824H129.549V38.464H125.133V38.784H129.805V40.064H129.933V41.344H129.037L129.101 42.624H126.157V42.944H131.341V44.224H129.037V44.864H130.253V46.144H129.101V46.464H130.317V46.784ZM108.749 34.624C109.048 34.9227 109.432 35.136 109.901 35.264H110.669C110.84 35.3067 111.01 35.3493 111.181 35.392C111.394 35.392 111.586 35.392 111.757 35.392C111.97 35.392 112.162 35.392 112.333 35.392C112.546 35.3493 112.738 35.3067 112.909 35.264H111.757C112.226 35.136 112.61 34.9227 112.909 34.624H111.501C111.842 34.2827 112.077 33.856 112.205 33.344H111.949L112.141 32.384H114.189C114.189 32.2987 114.21 32.2347 114.253 32.192V31.744H114.125V30.784H113.741V29.824H115.021V28.864H114.189V28.736C114.189 28.5653 114.168 28.416 114.125 28.288C114.125 28.16 114.104 28.032 114.061 27.904H113.741C113.698 27.5627 113.592 27.2427 113.421 26.944H113.549C113.421 26.688 113.272 26.4747 113.101 26.304H113.293C113.122 26.1333 112.994 26.0267 112.909 25.984C112.482 25.6853 111.864 25.536 111.053 25.536C110.242 25.536 109.624 25.6853 109.197 25.984H108.813C108.728 26.0267 108.6 26.1333 108.429 26.304H108.749C108.578 26.4747 108.429 26.688 108.301 26.944H108.237C108.194 27.072 108.152 27.2213 108.109 27.392C108.066 27.52 108.002 27.6907 107.917 27.904H107.661C107.618 28.0747 107.576 28.2453 107.533 28.416C107.533 28.544 107.533 28.6933 107.533 28.864H107.341V29.248C107.298 29.376 107.277 29.568 107.277 29.824H108.301V30.784H107.725C107.725 30.9547 107.725 31.1253 107.725 31.296C107.768 31.424 107.789 31.552 107.789 31.68V31.744H106.637L106.701 32.384H105.805L105.997 33.344H106.573C106.701 33.856 106.936 34.2827 107.277 34.624H108.749ZM115.085 44.224H115.661V43.776L115.085 44.224ZM135.31 9.344V8.064H135.246V7.104H135.822V6.784H136.206V5.504H135.886V4.544H135.95V3.264H136.206V2.304H136.078V1.728C136.078 1.38667 136.121 1.152 136.206 1.024H136.846L137.038 0.703999H136.526C136.867 0.234664 137.337 -3.8147e-06 137.934 -3.8147e-06H148.75C149.347 -3.8147e-06 149.817 0.234664 150.158 0.703999H150.67L150.862 1.024H150.158C150.286 1.19467 150.35 1.42933 150.35 1.728V2.304H150.478V3.264H150.222V4.544H150.158V5.504H150.478V6.784H150.094V7.104H149.518V8.064H149.582V9.344H150.03V9.472C150.03 9.856 149.881 10.24 149.582 10.624H148.814C148.515 11.008 148.089 11.2 147.534 11.2H136.718C136.163 11.2 135.715 11.008 135.374 10.624H136.142C135.886 10.2827 135.758 9.89867 135.758 9.472V9.344H135.31ZM148.494 22.784H154.51V24.064H152.334V24.704H149.902V25.984H151.758V26.304H150.542V26.944H150.734V27.584H151.054V28.544H147.854V29.504H149.966V30.464H149.582V31.104H150.67V32.064H150.926V33.024H150.542V33.984H150.862V34.624H150.542V35.904H150.414V36.864H150.158V37.824H150.414V38.464H150.542V39.744H150.286V40.384H150.606V41.024H150.542V41.984H150.798V42.944H150.99V43.264H150.542V44.544H149.646V45.824H150.286V46.272C150.286 46.4853 150.265 46.656 150.222 46.784H149.774C149.646 47.2107 149.411 47.5307 149.07 47.744H150.35C150.137 47.9147 149.817 48 149.39 48H137.934C137.55 48 137.251 47.9147 137.038 47.744H135.758C135.374 47.5307 135.118 47.2107 134.99 46.784H135.438C135.395 46.656 135.374 46.4853 135.374 46.272V45.824H134.734V44.544H135.63V43.264H136.078V42.944H135.886V41.984H135.63V41.024H135.694V40.384H135.374V39.744H135.63V38.464H135.502V37.824H135.246V36.864H135.502V35.904H135.63V34.624H135.95V33.984H135.63V33.024H136.014V32.064H135.758V31.104H134.67V30.464H135.054V29.504H132.942V28.544H136.142V27.584H135.822V26.944H135.63V26.304H136.846V25.984H134.99V24.704H137.422V24.064H139.598V22.784H133.582V22.144H138.894V20.864H136.974V19.904H138.126V18.624H136.078V18.304H135.63V17.664H135.246V16.704H135.694V16.448C135.694 15.9787 135.801 15.6373 136.014 15.424H136.078C136.419 14.9547 136.889 14.72 137.486 14.72H148.942C149.539 14.72 150.009 14.9547 150.35 15.424H150.222C150.478 15.68 150.606 16.0213 150.606 16.448V16.704H150.158V17.664H150.542V18.304H150.99V18.624H153.038V19.904H151.886V20.864H153.806V22.144H148.494V22.784ZM196.945 43.264H206.481V44.544H201.041V45.504H200.145V46.144H196.177V46.464H198.161C198.076 47.0613 197.82 47.488 197.393 47.744H195.985C195.772 47.9147 195.452 48 195.025 48H182.801C182.417 48 182.118 47.9147 181.905 47.744H183.313C182.886 47.488 182.63 47.0613 182.545 46.464H180.497V46.144H184.465V45.504H185.361V44.544H190.801V43.264H181.265V41.984H183.633V41.664H181.521V41.024H181.585V40.384H180.561V39.104H181.393V37.824H178.769V36.544H179.409V35.264H182.353V33.984H181.649V33.344H181.393V33.024H181.137V32.064H181.521V31.744H181.841V31.104H181.777V30.464H181.585V29.824H178.897V29.184H179.601V29.056C179.601 28.8853 179.58 28.736 179.537 28.608C179.537 28.48 179.537 28.352 179.537 28.224H180.817C180.774 28.0107 180.732 27.84 180.689 27.712C180.646 27.5413 180.604 27.392 180.561 27.264H181.713C181.457 26.7093 181.094 26.2827 180.625 25.984H178.577C178.108 25.6853 177.489 25.536 176.721 25.536C175.953 25.536 175.356 25.6853 174.929 25.984H176.465C176.252 26.1547 176.038 26.3467 175.825 26.56C175.654 26.7307 175.526 26.9653 175.441 27.264H173.521C173.436 27.4347 173.35 27.7547 173.265 28.224H173.585C173.542 28.3947 173.521 28.672 173.521 29.056V29.184H173.073V29.824H175.185V30.464H175.313V31.104H175.121V31.744H174.673V32.064H174.225V33.024H174.929V33.344H175.377V33.984H175.121V35.264H176.785V36.544H174.993V37.824H175.313V39.104H174.609V40.384H175.377V41.024H175.313V41.344H175.505V41.664H179.025V41.984H180.497V43.264H176.529V44.544H176.657V45.504H174.225V46.144H176.977V46.464H177.681C177.596 47.0613 177.318 47.488 176.849 47.744H173.905C173.692 47.9147 173.393 48 173.009 48H160.849C160.465 48 160.166 47.9147 159.953 47.744H162.897C162.428 47.488 162.15 47.0613 162.065 46.464H161.361V46.144H158.609V45.504H161.041V44.544H160.913V43.264H164.881V41.984H163.409V41.664H159.889V41.344H159.697V41.024H159.761V40.384H158.993V39.104H159.697V37.824H159.377V36.544H161.169V35.264H159.505V33.984H159.761V33.344H159.313V33.024H158.609V32.064H159.057V31.744H159.505V31.104H159.697V30.464H159.569V29.824H157.457V29.184H157.905V28.224H157.585V27.264H159.505V25.984H157.905V25.024H159.313V24.384H159.697V23.424H159.441V22.464H159.505V20.864H159.825V20.224H159.761V19.264H160.593V18.944H160.081V17.984H160.849V17.664H158.289V17.024H160.145V16.064H163.601C163.686 15.808 163.772 15.5947 163.857 15.424H161.809C162.15 14.9547 162.62 14.72 163.217 14.72H174.417C175.014 14.72 175.484 14.9547 175.825 15.424H176.913C177.852 14.9973 178.854 14.6773 179.921 14.464C180.988 14.208 182.097 14.08 183.249 14.08C185.382 14.08 187.302 14.528 189.009 15.424H189.713C189.926 15.5093 190.118 15.616 190.289 15.744C190.46 15.8293 190.63 15.936 190.801 16.064H189.905C190.118 16.192 190.332 16.3413 190.545 16.512C190.758 16.64 190.95 16.8107 191.121 17.024H196.113C196.369 17.1947 196.582 17.408 196.753 17.664H193.233C193.276 17.7067 193.318 17.7493 193.361 17.792C193.404 17.8347 193.446 17.8987 193.489 17.984H194.385C194.513 18.1547 194.641 18.3253 194.769 18.496C194.897 18.624 195.004 18.7733 195.089 18.944H195.665L195.857 19.264H195.025L195.601 20.224H195.665C195.75 20.4373 195.857 20.6507 195.985 20.864H195.665C195.878 21.3333 196.049 21.76 196.177 22.144C196.177 22.1867 196.22 22.2933 196.305 22.464H196.241C196.326 22.6347 196.369 22.8053 196.369 22.976C196.412 23.104 196.454 23.2533 196.497 23.424H196.753C196.838 23.5947 196.881 23.7653 196.881 23.936C196.924 24.064 196.966 24.2133 197.009 24.384H196.561C196.646 24.64 196.689 24.8533 196.689 25.024H195.345C195.388 25.1947 195.409 25.3653 195.409 25.536C195.409 25.664 195.43 25.8133 195.473 25.984H197.521C197.564 26.1547 197.585 26.368 197.585 26.624C197.628 26.8373 197.649 27.0507 197.649 27.264H196.497V28.224H195.281V29.184H194.577V29.824H197.265V30.464H197.457V31.104H197.521V31.744H197.201V32.064H196.817V33.024H197.073V33.344H197.329V33.984H198.033V35.264H195.089V36.544H194.449V37.824H197.073V39.104H196.241V40.384H197.265V41.024H197.201V41.664H199.313V41.984H196.945V43.264ZM175.441 16.064H174.737C174.737 16.1067 174.737 16.1707 174.737 16.256C174.78 16.2987 174.801 16.3627 174.801 16.448V16.512C174.886 16.4267 174.993 16.3413 175.121 16.256C175.249 16.1707 175.356 16.1067 175.441 16.064ZM172.945 17.024V17.664H178.257L179.025 17.024H172.945ZM174.737 17.984V18.56C174.822 18.432 174.993 18.24 175.249 17.984H174.737Z" fill="#FCF551"/>
</svg>
