<svg width="417" height="138" viewBox="0 0 417 138" fill="none" xmlns="http://www.w3.org/2000/svg">
<path d="M0 117.09H41.3058L0 96.9248V117.09Z" fill="#661109"/>
<path d="M98.49 0L0 38.8754V85.6927L64.3021 117.09H309.815L408.305 78.2145V0H98.49Z" fill="#661109"/>
<path d="M8.69482 126.217H50.0006L8.69482 106.044V126.217Z" fill="#FCF551"/>
<path d="M107.177 9.12646L8.69482 47.9947V94.8192L72.9969 126.216H318.51L417 87.341V9.12646H107.177Z" fill="#FCF551"/>
<path d="M72.6392 132.396H271.941V137.262H72.6392" fill="#FCF551"/>
<path d="M8.56348 132.396H49.8693V137.262H8.56348" fill="#FCF551"/>
<path d="M412.021 9.12646V87.1198V89.3033L417 87.341V87.1198V9.12646H412.021Z" fill="#75E8F0"/>
<g filter="url(#filter0_g_346_4)">
<path d="M122.925 47.93C122.962 47.82 122.98 47.7283 122.98 47.655C123.017 47.545 123.053 47.4533 123.09 47.38H117.04C117.113 47.27 117.187 47.1783 117.26 47.105C117.333 46.995 117.407 46.9033 117.48 46.83H123.86C124.153 46.61 124.465 46.5 124.795 46.5H135.795C136.198 46.5 136.51 46.61 136.73 46.83H130.35C130.423 46.9033 130.497 46.995 130.57 47.105C130.68 47.1783 130.753 47.27 130.79 47.38H136.785C136.858 47.6 136.895 47.7833 136.895 47.93H139.975C140.012 47.93 140.03 47.9483 140.03 47.985V48.48H132.605V49.58H135.685V50.405H135.355V51.505H133.375V52.605H137.83V52.88H138.16V53.98H138.38V55.08H137.995V56.18H137.72V57.555H138.655V58.655H137.61V59.755H137.83V60.03H141.735V61.13H143.77V61.68H135.3V62.23H138.105V63.33H135.795V64.43H137.775V64.98H138.16V65.805H145.53V66.355H150.645V67.455H136.675V66.355H131.56V65.805H124.19V64.98H123.805V64.43H121.825V63.33H124.135V62.23H121.33V61.68H129.8V61.13H127.765V60.03H123.86V59.755H123.64V58.655H124.685V57.555H123.75V56.18H124.025V55.08H124.41V53.98H124.19V52.88H123.86V52.605H119.405V51.505H121.385V50.405H121.715V49.58H118.635V48.48H126.06V47.93H122.925ZM159.5 77.63H144.485V77.905H145.585V78.73H153.395V79.005H150.975V80.105H154.825V80.93H155.375V81.205H154.99V81.48H154.825V82.58H154.935V83.405H154.715V83.68H154.44C154.403 83.7533 154.385 83.845 154.385 83.955H154.99C154.88 84.3217 154.678 84.5967 154.385 84.78H153.78C153.597 84.9267 153.34 85 153.01 85H125.29C124.96 85 124.703 84.9267 124.52 84.78H125.07C124.74 84.5967 124.52 84.3217 124.41 83.955H123.805C123.805 83.8817 123.787 83.8267 123.75 83.79C123.75 83.7533 123.75 83.7167 123.75 83.68H124.025V83.405H124.245V82.58H124.135V81.48H124.3V81.205H124.685V80.93H124.135V80.105H120.285V79.005H122.705V78.73H114.895V77.905H113.795V77.63H128.81V76.805H122.705V75.98H128.645V75.705H115.665V74.88H117.535V74.605H124.685V74.33H122.155V73.505H126.445V72.405H122.1V71.855H125.675V71.58H124.025V70.755H125.62V70.205H123.585V69.655H128.37V68.83H129.745V68.28H122.21V67.455H136.18V68.28H143.715V68.83H142.34V69.655H137.555V70.205H139.59V70.755H137.995V71.58H139.645V71.855H136.07V72.405H140.415V73.505H136.125V73.725H151.36C151.873 73.725 152.277 73.9267 152.57 74.33H155.1L155.265 74.605H148.115L148.225 74.88H146.3C146.337 74.9533 146.355 75.0633 146.355 75.21V75.705H159.335V75.98H153.395V76.805H159.5V77.63ZM193.599 69.105C193.635 69.2883 193.654 69.4717 193.654 69.655C193.654 69.8383 193.654 70.0217 193.654 70.205H189.749V70.755H187.494V71.305H189.639V71.58H187.164V72.405H185.789V72.68H188.869C188.869 72.79 188.85 72.8817 188.814 72.955H188.649V73.23H189.144V73.285C189.144 73.4317 189.125 73.5967 189.089 73.78C189.089 73.9633 189.07 74.1467 189.034 74.33H188.649L188.484 75.43H189.309C189.309 75.5767 189.272 75.76 189.199 75.98H189.034C188.997 76.1267 188.96 76.2733 188.924 76.42C188.887 76.53 188.85 76.6583 188.814 76.805H189.254C189.217 76.9883 189.162 77.1717 189.089 77.355C189.015 77.5383 188.942 77.7217 188.869 77.905H188.044L187.824 78.455H187.934C187.86 78.6017 187.824 78.6933 187.824 78.73H187.604C187.457 79.0967 187.255 79.4633 186.999 79.83H187.109C187.072 79.9033 187.017 79.995 186.944 80.105C186.87 80.215 186.797 80.3067 186.724 80.38H186.669L186.009 81.205C185.972 81.2417 185.935 81.2783 185.899 81.315C185.862 81.3517 185.807 81.4067 185.734 81.48H185.459C185.312 81.6267 185.165 81.7733 185.019 81.92C184.872 82.03 184.707 82.1583 184.524 82.305H182.874L181.719 83.13H181.939C181.865 83.1667 181.792 83.2033 181.719 83.24C181.645 83.2767 181.572 83.3317 181.499 83.405H181.114C181.04 83.4417 180.949 83.4783 180.839 83.515C180.729 83.5517 180.637 83.6067 180.564 83.68H183.534C183.35 83.79 183.149 83.9 182.929 84.01C182.709 84.0833 182.489 84.1567 182.269 84.23H181.334C181.077 84.34 180.802 84.45 180.509 84.56C180.215 84.6333 179.922 84.7067 179.629 84.78H179.849C179.409 84.89 178.95 84.9817 178.474 85.055C177.997 85.165 177.502 85.2567 176.989 85.33H178.694C178.107 85.4033 177.502 85.4583 176.879 85.495C176.255 85.5317 175.614 85.55 174.954 85.55C174.257 85.55 173.597 85.5317 172.974 85.495C172.387 85.4583 171.782 85.4033 171.159 85.33H169.399C168.922 85.2567 168.427 85.165 167.914 85.055C167.437 84.9817 166.979 84.89 166.539 84.78H166.374C166.08 84.7067 165.787 84.6333 165.494 84.56C165.237 84.45 164.962 84.34 164.669 84.23H165.549C165.365 84.1567 165.164 84.0833 164.944 84.01C164.724 83.9 164.522 83.79 164.339 83.68H161.369L160.874 83.405H161.259L160.764 83.13H160.544C160.104 82.8367 159.719 82.5617 159.389 82.305H161.039C160.892 82.1583 160.745 82.03 160.599 81.92C160.452 81.7733 160.305 81.6267 160.159 81.48H160.434C160.397 81.4067 160.36 81.3517 160.324 81.315C160.287 81.2783 160.232 81.2417 160.159 81.205L159.499 80.38H159.554L159.169 79.83H159.059C158.802 79.4633 158.6 79.0967 158.454 78.73H158.619C158.545 78.5833 158.509 78.4917 158.509 78.455H158.344L158.124 77.905H158.949C158.912 77.7217 158.857 77.5383 158.784 77.355C158.71 77.1717 158.637 76.9883 158.564 76.805H158.124C158.087 76.6583 158.05 76.53 158.014 76.42C157.977 76.2733 157.94 76.1267 157.904 75.98H157.574L157.409 75.43H156.859L156.694 74.33H157.244C157.207 74.1467 157.17 73.9633 157.134 73.78C157.134 73.5967 157.134 73.4317 157.134 73.285V73.23H156.144V72.955H155.869C155.869 72.8817 155.85 72.8267 155.814 72.79C155.814 72.7533 155.814 72.7167 155.814 72.68H158.894C158.894 72.57 158.875 72.4783 158.839 72.405H155.759V71.58H157.079V71.305H157.739V70.755H158.894V70.205H155.539C155.539 70.0217 155.539 69.8383 155.539 69.655C155.539 69.4717 155.557 69.2883 155.594 69.105H154.879V68.555H160.324C160.36 68.445 160.379 68.2983 160.379 68.115V67.73H158.894C158.894 67.5833 158.894 67.455 158.894 67.345C158.93 67.1983 158.949 67.0517 158.949 66.905H159.499L159.664 65.805H157.849C157.885 65.6583 157.922 65.53 157.959 65.42C157.995 65.2733 158.032 65.1267 158.069 64.98H157.684C157.757 64.7967 157.812 64.6133 157.849 64.43C157.922 64.21 157.995 64.0267 158.069 63.88H158.124C158.16 63.8067 158.197 63.715 158.234 63.605C158.27 63.495 158.307 63.4033 158.344 63.33H158.289C158.289 63.2933 158.325 63.2017 158.399 63.055H158.674C158.82 62.6883 159.022 62.3217 159.279 61.955H158.179L158.509 61.405H160.544C160.58 61.3317 160.654 61.24 160.764 61.13H156.749C156.822 60.9833 156.914 60.855 157.024 60.745C157.17 60.5983 157.299 60.4517 157.409 60.305H158.674C158.857 60.1217 159.04 59.9383 159.224 59.755C159.444 59.535 159.645 59.3517 159.829 59.205H162.359C162.689 58.9117 163.074 58.6367 163.514 58.38H164.559C164.705 58.27 164.852 58.1783 164.999 58.105C165.182 57.995 165.347 57.9033 165.494 57.83H162.249C162.579 57.6467 162.982 57.4633 163.459 57.28H164.944C165.787 56.95 166.667 56.675 167.584 56.455H165.934C167.73 56.0517 169.637 55.85 171.654 55.85C173.67 55.85 175.577 56.0517 177.374 56.455H179.079C179.995 56.675 180.857 56.95 181.664 57.28H180.124C180.6 57.4633 181.004 57.6467 181.334 57.83H184.579C184.762 57.9033 184.927 57.995 185.074 58.105C185.257 58.1783 185.422 58.27 185.569 58.38H184.524L185.679 59.205H183.149C183.369 59.3517 183.57 59.535 183.754 59.755C183.974 59.9383 184.175 60.1217 184.359 60.305H183.094C183.204 60.4517 183.314 60.5983 183.424 60.745C183.57 60.855 183.68 60.9833 183.754 61.13H187.824L187.989 61.405H186.009L186.339 61.955H187.439C187.695 62.3217 187.897 62.6883 188.044 63.055H187.769C187.842 63.2017 187.879 63.2933 187.879 63.33H187.989L188.209 63.88H188.154C188.227 64.0267 188.3 64.21 188.374 64.43C188.447 64.6133 188.502 64.7967 188.539 64.98H189.089L189.254 65.805H188.924C188.997 65.9517 189.034 66.135 189.034 66.355C189.07 66.5383 189.107 66.7217 189.144 66.905H189.584C189.62 67.0517 189.639 67.1983 189.639 67.345C189.639 67.455 189.657 67.5833 189.694 67.73H187.549V68.115C187.549 68.2983 187.567 68.445 187.604 68.555H186.504V69.105H193.599ZM172.479 66.905C172.442 67.0517 172.405 67.1983 172.369 67.345C172.369 67.455 172.369 67.5833 172.369 67.73H173.909C173.872 67.84 173.854 67.95 173.854 68.06C173.854 68.17 173.854 68.28 173.854 68.39V68.555H174.074V68.39C174.074 68.28 174.055 68.17 174.019 68.06C174.019 67.95 174.019 67.84 174.019 67.73H176.164C176.164 67.5833 176.145 67.455 176.109 67.345C176.109 67.1983 176.109 67.0517 176.109 66.905H175.669C175.632 66.685 175.577 66.4833 175.504 66.3C175.467 66.1167 175.412 65.9517 175.339 65.805H175.724C175.577 65.475 175.357 65.2 175.064 64.98H174.514C174.147 64.76 173.67 64.65 173.084 64.65C172.497 64.65 172.039 64.76 171.709 64.98H172.094C171.947 65.09 171.819 65.2183 171.709 65.365C171.599 65.475 171.507 65.6217 171.434 65.805H173.249C173.212 65.9517 173.157 66.1167 173.084 66.3C173.047 66.4833 173.01 66.685 172.974 66.905H172.479ZM176.219 70.205H180.124V69.105H173.029C172.992 68.9583 172.974 68.775 172.974 68.555H168.409C168.409 68.775 168.39 68.9583 168.354 69.105H169.069V70.205H172.424V70.755H171.214V71.305H170.554V71.58H169.234C169.234 71.7267 169.234 71.8733 169.234 72.02C169.27 72.13 169.289 72.2583 169.289 72.405H173.634V71.58H176.109V71.305H173.964V70.755H176.219V70.205ZM175.339 72.955V72.68H169.344V72.955H169.619V73.01C169.619 73.0467 169.619 73.0833 169.619 73.12C169.655 73.1567 169.674 73.1933 169.674 73.23H170.609C170.645 73.4133 170.664 73.5967 170.664 73.78C170.664 73.9633 170.682 74.1467 170.719 74.33H170.169C170.242 74.8067 170.315 75.1733 170.389 75.43H170.994C171.067 75.65 171.14 75.8333 171.214 75.98H171.599C171.929 76.4933 172.552 76.75 173.469 76.75C174.385 76.75 175.009 76.4933 175.339 75.98H175.559C175.595 75.9067 175.632 75.8333 175.669 75.76C175.705 75.65 175.742 75.54 175.779 75.43H174.954C174.99 75.2467 175.027 75.0817 175.064 74.935C175.1 74.7517 175.137 74.55 175.174 74.33H175.559C175.595 74.1467 175.614 73.9633 175.614 73.78C175.614 73.5967 175.632 73.4133 175.669 73.23H175.174V72.955H175.339ZM225.257 83.955H227.017V84.78H225.642V85.055H226.027C225.99 85.2017 225.972 85.33 225.972 85.44C225.972 85.5867 225.953 85.7333 225.917 85.88H225.862V86.155H223.277C223.24 86.2283 223.222 86.32 223.222 86.43C223.222 86.54 223.203 86.6317 223.167 86.705H226.357C226.32 86.8883 226.283 87.0717 226.247 87.255C226.21 87.4383 226.173 87.6217 226.137 87.805H225.257C225.22 87.9517 225.183 88.08 225.147 88.19C225.11 88.3367 225.055 88.4833 224.982 88.63H223.167L222.947 89.18H223.882L223.662 89.73H223.772C223.698 89.9133 223.607 90.0967 223.497 90.28H223.552L223.057 91.105C223.02 91.1417 222.983 91.1783 222.947 91.215C222.947 91.2517 222.928 91.3067 222.892 91.38C222.818 91.5267 222.727 91.655 222.617 91.765C222.507 91.9117 222.397 92.0583 222.287 92.205H222.177L221.902 92.48H222.947L222.452 93.03H221.187C221.077 93.1033 220.967 93.195 220.857 93.305C220.747 93.415 220.655 93.5067 220.582 93.58H222.067C221.92 93.7267 221.737 93.855 221.517 93.965C221.333 94.1117 221.15 94.2583 220.967 94.405H222.947C222.727 94.5517 222.488 94.68 222.232 94.79C222.012 94.9367 221.773 95.0833 221.517 95.23H220.967C220.783 95.34 220.582 95.4317 220.362 95.505C220.142 95.615 219.94 95.7067 219.757 95.78H216.622C215.925 96.0367 215.21 96.2567 214.477 96.44C213.743 96.6233 212.992 96.77 212.222 96.88H215.467C214.917 96.9533 214.348 97.0083 213.762 97.045C213.175 97.0817 212.588 97.1 212.002 97.1C211.378 97.1 210.755 97.0817 210.132 97.045C209.545 97.0083 208.977 96.9533 208.427 96.88H205.182C203.532 96.66 202.01 96.2933 200.617 95.78H203.752C203.532 95.7067 203.312 95.615 203.092 95.505C202.872 95.4317 202.652 95.34 202.432 95.23H202.982C202.725 95.0833 202.468 94.9367 202.212 94.79C201.955 94.68 201.698 94.5517 201.442 94.405H199.517C199.297 94.2583 199.077 94.1117 198.857 93.965C198.673 93.855 198.49 93.7267 198.307 93.58H196.822C196.528 93.36 196.308 93.1767 196.162 93.03H197.427C197.317 92.9567 197.207 92.865 197.097 92.755C196.987 92.645 196.895 92.5533 196.822 92.48H195.777C195.74 92.4067 195.703 92.3517 195.667 92.315C195.63 92.2783 195.575 92.2417 195.502 92.205H195.667C195.52 92.0583 195.392 91.9117 195.282 91.765C195.172 91.655 195.062 91.5267 194.952 91.38H194.897C194.86 91.3067 194.787 91.215 194.677 91.105H194.732C194.622 90.9583 194.512 90.8117 194.402 90.665C194.292 90.555 194.2 90.4267 194.127 90.28L193.797 89.73H193.687C193.65 89.6567 193.613 89.565 193.577 89.455C193.54 89.345 193.485 89.2533 193.412 89.18H192.477L192.257 88.63H194.127C194.09 88.4833 194.035 88.3367 193.962 88.19C193.925 88.08 193.888 87.9517 193.852 87.805H193.522C193.522 87.695 193.503 87.585 193.467 87.475C193.467 87.4017 193.467 87.3283 193.467 87.255C193.467 86.9983 193.485 86.815 193.522 86.705H193.357C193.467 86.485 193.595 86.3017 193.742 86.155H193.412C193.632 86.0083 193.797 85.9167 193.907 85.88H194.622C194.842 85.8067 195.043 85.77 195.227 85.77H205.952C206.135 85.77 206.337 85.8067 206.557 85.88H205.787C205.97 85.9167 206.117 86.0083 206.227 86.155H206.557C206.703 86.3017 206.832 86.485 206.942 86.705H207.107L207.217 86.87C207.473 87.31 207.712 87.6217 207.932 87.805H208.207C208.61 88.0983 209.16 88.245 209.857 88.245C210.407 88.245 210.883 88.0983 211.287 87.805H212.167C212.497 87.5483 212.735 87.1817 212.882 86.705H209.692C209.765 86.485 209.802 86.3017 209.802 86.155H212.387C212.423 86.0817 212.442 85.99 212.442 85.88H212.497C212.533 85.7333 212.552 85.5867 212.552 85.44C212.552 85.33 212.552 85.2017 212.552 85.055H212.222V84.78H213.542V83.955H211.782V83.68H210.737V83.405H211.727V82.305H210.682V81.975L210.132 82.305H210.077C209.197 82.8183 208.243 83.185 207.217 83.405H207.437C207.143 83.4417 206.85 83.4967 206.557 83.57C206.263 83.6067 205.952 83.6433 205.622 83.68H204.247C204.027 83.7167 203.807 83.735 203.587 83.735C203.367 83.735 203.147 83.735 202.927 83.735C202.67 83.735 202.413 83.735 202.157 83.735C201.9 83.735 201.662 83.7167 201.442 83.68H202.762C202.432 83.6433 202.102 83.6067 201.772 83.57C201.442 83.4967 201.112 83.4417 200.782 83.405H200.617C200.067 83.295 199.535 83.1483 199.022 82.965C198.545 82.7817 198.068 82.5617 197.592 82.305H197.647C197.5 82.2317 197.353 82.1583 197.207 82.085C197.06 81.975 196.913 81.865 196.767 81.755H198.032C197.812 81.5717 197.592 81.3883 197.372 81.205C197.188 81.0217 197.005 80.8383 196.822 80.655H192.367L192.092 80.38H194.622C194.328 80.0133 194.072 79.6467 193.852 79.28H194.567C194.31 78.9133 194.108 78.5467 193.962 78.18H193.852C193.668 77.7767 193.522 77.41 193.412 77.08H189.397C189.397 77.0067 189.397 76.9517 189.397 76.915C189.36 76.8783 189.342 76.8417 189.342 76.805H193.082L192.917 76.255H193.192C193.155 76.0717 193.1 75.8883 193.027 75.705C192.99 75.5217 192.953 75.3383 192.917 75.155H193.577L193.412 74.055H192.697L192.642 73.505H191.322C191.285 73.3217 191.267 73.1383 191.267 72.955C191.267 72.7717 191.248 72.5883 191.212 72.405H190.717C190.717 72.2583 190.717 72.13 190.717 72.02C190.68 71.8733 190.662 71.7267 190.662 71.58H191.432V71.03H192.422C192.422 70.8833 192.403 70.755 192.367 70.645C192.367 70.4983 192.367 70.3517 192.367 70.205H192.862V69.38H191.982C191.982 69.2333 191.982 69.105 191.982 68.995C191.982 68.8483 192 68.7017 192.037 68.555H192.147V68.5C192.147 68.3533 192.147 68.225 192.147 68.115C192.183 68.005 192.202 67.8767 192.202 67.73H192.422C192.458 67.5833 192.477 67.455 192.477 67.345C192.477 67.1983 192.495 67.0517 192.532 66.905C192.568 66.8317 192.587 66.74 192.587 66.63C192.587 66.52 192.605 66.4283 192.642 66.355H192.367V66.08H192.697C192.733 65.8967 192.77 65.7133 192.807 65.53C192.843 65.31 192.88 65.1267 192.917 64.98H192.862C192.898 64.8333 192.935 64.705 192.972 64.595C193.008 64.4483 193.045 64.3017 193.082 64.155H193.522C193.595 63.9717 193.65 63.7883 193.687 63.605C193.76 63.385 193.833 63.2017 193.907 63.055H194.182L194.292 62.78H193.522C193.558 62.7067 193.595 62.615 193.632 62.505C193.668 62.395 193.705 62.3033 193.742 62.23L194.072 61.405C194.108 61.3317 194.127 61.2767 194.127 61.24C194.163 61.2033 194.2 61.1667 194.237 61.13L194.402 60.855C194.475 60.7817 194.53 60.69 194.567 60.58C194.64 60.47 194.713 60.3783 194.787 60.305C194.823 60.2317 194.86 60.1767 194.897 60.14C194.933 60.1033 194.97 60.0667 195.007 60.03H194.897L195.557 59.205C195.667 59.1317 195.758 59.04 195.832 58.93C195.942 58.82 196.033 58.7283 196.107 58.655H196.217C196.253 58.5817 196.29 58.5267 196.327 58.49C196.4 58.4533 196.455 58.4167 196.492 58.38H197.097C197.317 58.16 197.555 57.9767 197.812 57.83H196.437C196.583 57.72 196.73 57.6283 196.877 57.555C197.023 57.445 197.17 57.3533 197.317 57.28H197.702C198.215 56.9867 198.838 56.7117 199.572 56.455H201.387C202.707 56.0517 204.118 55.85 205.622 55.85C206.942 55.85 208.17 56.0517 209.307 56.455H207.492C208.078 56.6383 208.665 56.9133 209.252 57.28H208.922C209.068 57.3533 209.197 57.445 209.307 57.555C209.453 57.6283 209.6 57.72 209.747 57.83H211.067C211.213 57.9033 211.342 57.995 211.452 58.105C211.562 58.215 211.672 58.3067 211.782 58.38H211.177L211.452 58.655H211.397L211.892 59.205C211.965 59.2417 212.02 59.2967 212.057 59.37C212.13 59.4433 212.185 59.5167 212.222 59.59V59.205H212.442V58.655H213.377V58.38H213.982V57.83H211.287C211.287 57.61 211.342 57.4267 211.452 57.28H212.387C212.57 56.84 212.882 56.565 213.322 56.455H212.222C212.332 56.4183 212.478 56.4 212.662 56.4H222.287C222.47 56.4 222.598 56.4183 222.672 56.455H223.772C224.212 56.565 224.523 56.84 224.707 57.28H223.772C223.845 57.5 223.882 57.6833 223.882 57.83H226.577V58.38H225.972V58.655H225.037V59.205H224.817V60.03H224.872V60.855H224.817V62.23H224.872V62.78H225.642V63.055H225.312V64.155H224.817L224.872 64.98V66.355H224.707V66.905H224.542V67.73H224.872V68.555H225.532V69.38H224.377V70.205H224.762V71.03H224.872V71.58H223.057L223.112 72.405H223.332V73.505H224.542V74.055H225.532V75.155H224.817V76.255H224.597V76.805H220.802V77.08H224.817V78.18H224.927V79.28H224.157L224.212 80.38H221.682V80.655H226.137V81.755H224.157V82.305H225.202V83.405H224.212V83.68H225.257V83.955ZM206.722 73.505C206.978 73.7617 207.308 73.945 207.712 74.055H208.372C208.518 74.0917 208.665 74.1283 208.812 74.165C208.995 74.165 209.16 74.165 209.307 74.165C209.49 74.165 209.655 74.165 209.802 74.165C209.985 74.1283 210.15 74.0917 210.297 74.055H209.307C209.71 73.945 210.04 73.7617 210.297 73.505H209.087C209.38 73.2117 209.582 72.845 209.692 72.405H209.472L209.637 71.58H211.397C211.397 71.5067 211.415 71.4517 211.452 71.415V71.03H211.342V70.205H211.012V69.38H212.112V68.555H211.397V68.445C211.397 68.2983 211.378 68.17 211.342 68.06C211.342 67.95 211.323 67.84 211.287 67.73H211.012C210.975 67.4367 210.883 67.1617 210.737 66.905H210.847C210.737 66.685 210.608 66.5017 210.462 66.355H210.627C210.48 66.2083 210.37 66.1167 210.297 66.08C209.93 65.8233 209.398 65.695 208.702 65.695C208.005 65.695 207.473 65.8233 207.107 66.08H206.777C206.703 66.1167 206.593 66.2083 206.447 66.355H206.722C206.575 66.5017 206.447 66.685 206.337 66.905H206.282C206.245 67.015 206.208 67.1433 206.172 67.29C206.135 67.4 206.08 67.5467 206.007 67.73H205.787C205.75 67.8767 205.713 68.0233 205.677 68.17C205.677 68.28 205.677 68.4083 205.677 68.555H205.512V68.885C205.475 68.995 205.457 69.16 205.457 69.38H206.337V70.205H205.842C205.842 70.3517 205.842 70.4983 205.842 70.645C205.878 70.755 205.897 70.865 205.897 70.975V71.03H204.907L204.962 71.58H204.192L204.357 72.405H204.852C204.962 72.845 205.163 73.2117 205.457 73.505H206.722ZM212.167 81.755H212.662V81.37L212.167 81.755ZM229.548 51.78V50.68H229.493V49.855H229.988V49.58H230.318V48.48H230.043V47.655H230.098V46.555H230.318V45.73H230.208V45.235C230.208 44.9417 230.244 44.74 230.318 44.63H230.868L231.033 44.355H230.593C230.886 43.9517 231.289 43.75 231.803 43.75H241.098C241.611 43.75 242.014 43.9517 242.308 44.355H242.748L242.913 44.63H242.308C242.418 44.7767 242.473 44.9783 242.473 45.235V45.73H242.583V46.555H242.363V47.655H242.308V48.48H242.583V49.58H242.253V49.855H241.758V50.68H241.813V51.78H242.198V51.89C242.198 52.22 242.069 52.55 241.813 52.88H241.153C240.896 53.21 240.529 53.375 240.053 53.375H230.758C230.281 53.375 229.896 53.21 229.603 52.88H230.263C230.043 52.5867 229.933 52.2567 229.933 51.89V51.78H229.548ZM240.878 63.33H246.048V64.43H244.178V64.98H242.088V66.08H243.683V66.355H242.638V66.905H242.803V67.455H243.078V68.28H240.328V69.105H242.143V69.93H241.813V70.48H242.748V71.305H242.968V72.13H242.638V72.955H242.913V73.505H242.638V74.605H242.528V75.43H242.308V76.255H242.528V76.805H242.638V77.905H242.418V78.455H242.693V79.005H242.638V79.83H242.858V80.655H243.023V80.93H242.638V82.03H241.868V83.13H242.418V83.515C242.418 83.6983 242.399 83.845 242.363 83.955H241.978C241.868 84.3217 241.666 84.5967 241.373 84.78H242.473C242.289 84.9267 242.014 85 241.648 85H231.803C231.473 85 231.216 84.9267 231.033 84.78H229.933C229.603 84.5967 229.383 84.3217 229.273 83.955H229.658C229.621 83.845 229.603 83.6983 229.603 83.515V83.13H229.053V82.03H229.823V80.93H230.208V80.655H230.043V79.83H229.823V79.005H229.878V78.455H229.603V77.905H229.823V76.805H229.713V76.255H229.493V75.43H229.713V74.605H229.823V73.505H230.098V72.955H229.823V72.13H230.153V71.305H229.933V70.48H228.998V69.93H229.328V69.105H227.513V68.28H230.263V67.455H229.988V66.905H229.823V66.355H230.868V66.08H229.273V64.98H231.363V64.43H233.233V63.33H228.063V62.78H232.628V61.68H230.978V60.855H231.968V59.755H230.208V59.48H229.823V58.93H229.493V58.105H229.878V57.885C229.878 57.4817 229.969 57.1883 230.153 57.005H230.208C230.501 56.6017 230.904 56.4 231.418 56.4H241.263C241.776 56.4 242.179 56.6017 242.473 57.005H242.363C242.583 57.225 242.693 57.5183 242.693 57.885V58.105H242.308V58.93H242.638V59.48H243.023V59.755H244.783V60.855H243.793V61.68H245.443V62.78H240.878V63.33ZM282.515 80.93H290.71V82.03H286.035V82.855H285.265V83.405H281.855V83.68H283.56C283.487 84.1933 283.267 84.56 282.9 84.78H281.69C281.507 84.9267 281.232 85 280.865 85H270.36C270.03 85 269.774 84.9267 269.59 84.78H270.8C270.434 84.56 270.214 84.1933 270.14 83.68H268.38V83.405H271.79V82.855H272.56V82.03H277.235V80.93H269.04V79.83H271.075V79.555H269.26V79.005H269.315V78.455H268.435V77.355H269.15V76.255H266.895V75.155H267.445V74.055H269.975V72.955H269.37V72.405H269.15V72.13H268.93V71.305H269.26V71.03H269.535V70.48H269.48V69.93H269.315V69.38H267.005V68.83H267.61V68.72C267.61 68.5733 267.592 68.445 267.555 68.335C267.555 68.225 267.555 68.115 267.555 68.005H268.655C268.619 67.8217 268.582 67.675 268.545 67.565C268.509 67.4183 268.472 67.29 268.435 67.18H269.425C269.205 66.7033 268.894 66.3367 268.49 66.08H266.73C266.327 65.8233 265.795 65.695 265.135 65.695C264.475 65.695 263.962 65.8233 263.595 66.08H264.915C264.732 66.2267 264.549 66.3917 264.365 66.575C264.219 66.7217 264.109 66.9233 264.035 67.18H262.385C262.312 67.3267 262.239 67.6017 262.165 68.005H262.44C262.404 68.1517 262.385 68.39 262.385 68.72V68.83H262V69.38H263.815V69.93H263.925V70.48H263.76V71.03H263.375V71.305H262.99V72.13H263.595V72.405H263.98V72.955H263.76V74.055H265.19V75.155H263.65V76.255H263.925V77.355H263.32V78.455H263.98V79.005H263.925V79.28H264.09V79.555H267.115V79.83H268.38V80.93H264.97V82.03H265.08V82.855H262.99V83.405H265.355V83.68H265.96C265.887 84.1933 265.649 84.56 265.245 84.78H262.715C262.532 84.9267 262.275 85 261.945 85H251.495C251.165 85 250.909 84.9267 250.725 84.78H253.255C252.852 84.56 252.614 84.1933 252.54 83.68H251.935V83.405H249.57V82.855H251.66V82.03H251.55V80.93H254.96V79.83H253.695V79.555H250.67V79.28H250.505V79.005H250.56V78.455H249.9V77.355H250.505V76.255H250.23V75.155H251.77V74.055H250.34V72.955H250.56V72.405H250.175V72.13H249.57V71.305H249.955V71.03H250.34V70.48H250.505V69.93H250.395V69.38H248.58V68.83H248.965V68.005H248.69V67.18H250.34V66.08H248.965V65.255H250.175V64.705H250.505V63.88H250.285V63.055H250.34V61.68H250.615V61.13H250.56V60.305H251.275V60.03H250.835V59.205H251.495V58.93H249.295V58.38H250.89V57.555H253.86C253.934 57.335 254.007 57.1517 254.08 57.005H252.32C252.614 56.6017 253.017 56.4 253.53 56.4H263.155C263.669 56.4 264.072 56.6017 264.365 57.005H265.3C266.107 56.6383 266.969 56.3633 267.885 56.18C268.802 55.96 269.755 55.85 270.745 55.85C272.579 55.85 274.229 56.235 275.695 57.005H276.3C276.484 57.0783 276.649 57.17 276.795 57.28C276.942 57.3533 277.089 57.445 277.235 57.555H276.465C276.649 57.665 276.832 57.7933 277.015 57.94C277.199 58.05 277.364 58.1967 277.51 58.38H281.8C282.02 58.5267 282.204 58.71 282.35 58.93H279.325C279.362 58.9667 279.399 59.0033 279.435 59.04C279.472 59.0767 279.509 59.1317 279.545 59.205H280.315C280.425 59.3517 280.535 59.4983 280.645 59.645C280.755 59.755 280.847 59.8833 280.92 60.03H281.415L281.58 60.305H280.865L281.36 61.13H281.415C281.489 61.3133 281.58 61.4967 281.69 61.68H281.415C281.599 62.0833 281.745 62.45 281.855 62.78C281.855 62.8167 281.892 62.9083 281.965 63.055H281.91C281.984 63.2017 282.02 63.3483 282.02 63.495C282.057 63.605 282.094 63.7333 282.13 63.88H282.35C282.424 64.0267 282.46 64.1733 282.46 64.32C282.497 64.43 282.534 64.5583 282.57 64.705H282.185C282.259 64.925 282.295 65.1083 282.295 65.255H281.14C281.177 65.4017 281.195 65.5483 281.195 65.695C281.195 65.805 281.214 65.9333 281.25 66.08H283.01C283.047 66.2267 283.065 66.41 283.065 66.63C283.102 66.8133 283.12 66.9967 283.12 67.18H282.13V68.005H281.085V68.83H280.48V69.38H282.79V69.93H282.955V70.48H283.01V71.03H282.735V71.305H282.405V72.13H282.625V72.405H282.845V72.955H283.45V74.055H280.92V75.155H280.37V76.255H282.625V77.355H281.91V78.455H282.79V79.005H282.735V79.555H284.55V79.83H282.515V80.93ZM264.035 57.555H263.43C263.43 57.5917 263.43 57.6467 263.43 57.72C263.467 57.7567 263.485 57.8117 263.485 57.885V57.94C263.559 57.8667 263.65 57.7933 263.76 57.72C263.87 57.6467 263.962 57.5917 264.035 57.555ZM261.89 58.38V58.93H266.455L267.115 58.38H261.89ZM263.43 59.205V59.7C263.504 59.59 263.65 59.425 263.87 59.205H263.43ZM324.141 84.505H322.326V85.605H322.821V86.155H322.931V87.255H323.316V87.53H323.646V88.08H324.471V88.905C324.471 89.015 324.452 89.1067 324.416 89.18C324.342 89.73 324.049 90.0967 323.536 90.28H323.041C322.821 90.3533 322.637 90.39 322.491 90.39H289.216C289.069 90.39 288.886 90.3533 288.666 90.28H289.161C288.647 90.0967 288.336 89.73 288.226 89.18V88.08H287.401V87.53H287.071V87.255H286.686V86.155H286.576V85.605H286.081V84.505H287.896V84.23H288.336V83.68H286.026V83.405H286.961V82.58H286.741V81.48H286.796V81.095C286.796 80.9117 286.814 80.765 286.851 80.655H286.521C286.777 79.9583 287.254 79.61 287.951 79.61H321.226C321.996 79.61 322.472 79.9583 322.656 80.655H322.931C322.967 80.7283 322.986 80.8017 322.986 80.875C323.022 80.9483 323.041 81.0217 323.041 81.095V81.48H322.986V82.58H323.206V83.405H322.271V83.68H324.581V84.23H324.141V84.505Z" fill="#D379F1"/>
</g>
<path d="M131.925 49.93C131.962 49.82 131.98 49.7283 131.98 49.655C132.017 49.545 132.053 49.4533 132.09 49.38H126.04C126.113 49.27 126.187 49.1783 126.26 49.105C126.333 48.995 126.407 48.9033 126.48 48.83H132.86C133.153 48.61 133.465 48.5 133.795 48.5H144.795C145.198 48.5 145.51 48.61 145.73 48.83H139.35C139.423 48.9033 139.497 48.995 139.57 49.105C139.68 49.1783 139.753 49.27 139.79 49.38H145.785C145.858 49.6 145.895 49.7833 145.895 49.93H148.975C149.012 49.93 149.03 49.9483 149.03 49.985V50.48H141.605V51.58H144.685V52.405H144.355V53.505H142.375V54.605H146.83V54.88H147.16V55.98H147.38V57.08H146.995V58.18H146.72V59.555H147.655V60.655H146.61V61.755H146.83V62.03H150.735V63.13H152.77V63.68H144.3V64.23H147.105V65.33H144.795V66.43H146.775V66.98H147.16V67.805H154.53V68.355H159.645V69.455H145.675V68.355H140.56V67.805H133.19V66.98H132.805V66.43H130.825V65.33H133.135V64.23H130.33V63.68H138.8V63.13H136.765V62.03H132.86V61.755H132.64V60.655H133.685V59.555H132.75V58.18H133.025V57.08H133.41V55.98H133.19V54.88H132.86V54.605H128.405V53.505H130.385V52.405H130.715V51.58H127.635V50.48H135.06V49.93H131.925ZM168.5 79.63H153.485V79.905H154.585V80.73H162.395V81.005H159.975V82.105H163.825V82.93H164.375V83.205H163.99V83.48H163.825V84.58H163.935V85.405H163.715V85.68H163.44C163.403 85.7533 163.385 85.845 163.385 85.955H163.99C163.88 86.3217 163.678 86.5967 163.385 86.78H162.78C162.597 86.9267 162.34 87 162.01 87H134.29C133.96 87 133.703 86.9267 133.52 86.78H134.07C133.74 86.5967 133.52 86.3217 133.41 85.955H132.805C132.805 85.8817 132.787 85.8267 132.75 85.79C132.75 85.7533 132.75 85.7167 132.75 85.68H133.025V85.405H133.245V84.58H133.135V83.48H133.3V83.205H133.685V82.93H133.135V82.105H129.285V81.005H131.705V80.73H123.895V79.905H122.795V79.63H137.81V78.805H131.705V77.98H137.645V77.705H124.665V76.88H126.535V76.605H133.685V76.33H131.155V75.505H135.445V74.405H131.1V73.855H134.675V73.58H133.025V72.755H134.62V72.205H132.585V71.655H137.37V70.83H138.745V70.28H131.21V69.455H145.18V70.28H152.715V70.83H151.34V71.655H146.555V72.205H148.59V72.755H146.995V73.58H148.645V73.855H145.07V74.405H149.415V75.505H145.125V75.725H160.36C160.873 75.725 161.277 75.9267 161.57 76.33H164.1L164.265 76.605H157.115L157.225 76.88H155.3C155.337 76.9533 155.355 77.0633 155.355 77.21V77.705H168.335V77.98H162.395V78.805H168.5V79.63ZM202.599 71.105C202.635 71.2883 202.654 71.4717 202.654 71.655C202.654 71.8383 202.654 72.0217 202.654 72.205H198.749V72.755H196.494V73.305H198.639V73.58H196.164V74.405H194.789V74.68H197.869C197.869 74.79 197.85 74.8817 197.814 74.955H197.649V75.23H198.144V75.285C198.144 75.4317 198.125 75.5967 198.089 75.78C198.089 75.9633 198.07 76.1467 198.034 76.33H197.649L197.484 77.43H198.309C198.309 77.5767 198.272 77.76 198.199 77.98H198.034C197.997 78.1267 197.96 78.2733 197.924 78.42C197.887 78.53 197.85 78.6583 197.814 78.805H198.254C198.217 78.9883 198.162 79.1717 198.089 79.355C198.015 79.5383 197.942 79.7217 197.869 79.905H197.044L196.824 80.455H196.934C196.86 80.6017 196.824 80.6933 196.824 80.73H196.604C196.457 81.0967 196.255 81.4633 195.999 81.83H196.109C196.072 81.9033 196.017 81.995 195.944 82.105C195.87 82.215 195.797 82.3067 195.724 82.38H195.669L195.009 83.205C194.972 83.2417 194.935 83.2783 194.899 83.315C194.862 83.3517 194.807 83.4067 194.734 83.48H194.459C194.312 83.6267 194.165 83.7733 194.019 83.92C193.872 84.03 193.707 84.1583 193.524 84.305H191.874L190.719 85.13H190.939C190.865 85.1667 190.792 85.2033 190.719 85.24C190.645 85.2767 190.572 85.3317 190.499 85.405H190.114C190.04 85.4417 189.949 85.4783 189.839 85.515C189.729 85.5517 189.637 85.6067 189.564 85.68H192.534C192.35 85.79 192.149 85.9 191.929 86.01C191.709 86.0833 191.489 86.1567 191.269 86.23H190.334C190.077 86.34 189.802 86.45 189.509 86.56C189.215 86.6333 188.922 86.7067 188.629 86.78H188.849C188.409 86.89 187.95 86.9817 187.474 87.055C186.997 87.165 186.502 87.2567 185.989 87.33H187.694C187.107 87.4033 186.502 87.4583 185.879 87.495C185.255 87.5317 184.614 87.55 183.954 87.55C183.257 87.55 182.597 87.5317 181.974 87.495C181.387 87.4583 180.782 87.4033 180.159 87.33H178.399C177.922 87.2567 177.427 87.165 176.914 87.055C176.437 86.9817 175.979 86.89 175.539 86.78H175.374C175.08 86.7067 174.787 86.6333 174.494 86.56C174.237 86.45 173.962 86.34 173.669 86.23H174.549C174.365 86.1567 174.164 86.0833 173.944 86.01C173.724 85.9 173.522 85.79 173.339 85.68H170.369L169.874 85.405H170.259L169.764 85.13H169.544C169.104 84.8367 168.719 84.5617 168.389 84.305H170.039C169.892 84.1583 169.745 84.03 169.599 83.92C169.452 83.7733 169.305 83.6267 169.159 83.48H169.434C169.397 83.4067 169.36 83.3517 169.324 83.315C169.287 83.2783 169.232 83.2417 169.159 83.205L168.499 82.38H168.554L168.169 81.83H168.059C167.802 81.4633 167.6 81.0967 167.454 80.73H167.619C167.545 80.5833 167.509 80.4917 167.509 80.455H167.344L167.124 79.905H167.949C167.912 79.7217 167.857 79.5383 167.784 79.355C167.71 79.1717 167.637 78.9883 167.564 78.805H167.124C167.087 78.6583 167.05 78.53 167.014 78.42C166.977 78.2733 166.94 78.1267 166.904 77.98H166.574L166.409 77.43H165.859L165.694 76.33H166.244C166.207 76.1467 166.17 75.9633 166.134 75.78C166.134 75.5967 166.134 75.4317 166.134 75.285V75.23H165.144V74.955H164.869C164.869 74.8817 164.85 74.8267 164.814 74.79C164.814 74.7533 164.814 74.7167 164.814 74.68H167.894C167.894 74.57 167.875 74.4783 167.839 74.405H164.759V73.58H166.079V73.305H166.739V72.755H167.894V72.205H164.539C164.539 72.0217 164.539 71.8383 164.539 71.655C164.539 71.4717 164.557 71.2883 164.594 71.105H163.879V70.555H169.324C169.36 70.445 169.379 70.2983 169.379 70.115V69.73H167.894C167.894 69.5833 167.894 69.455 167.894 69.345C167.93 69.1983 167.949 69.0517 167.949 68.905H168.499L168.664 67.805H166.849C166.885 67.6583 166.922 67.53 166.959 67.42C166.995 67.2733 167.032 67.1267 167.069 66.98H166.684C166.757 66.7967 166.812 66.6133 166.849 66.43C166.922 66.21 166.995 66.0267 167.069 65.88H167.124C167.16 65.8067 167.197 65.715 167.234 65.605C167.27 65.495 167.307 65.4033 167.344 65.33H167.289C167.289 65.2933 167.325 65.2017 167.399 65.055H167.674C167.82 64.6883 168.022 64.3217 168.279 63.955H167.179L167.509 63.405H169.544C169.58 63.3317 169.654 63.24 169.764 63.13H165.749C165.822 62.9833 165.914 62.855 166.024 62.745C166.17 62.5983 166.299 62.4517 166.409 62.305H167.674C167.857 62.1217 168.04 61.9383 168.224 61.755C168.444 61.535 168.645 61.3517 168.829 61.205H171.359C171.689 60.9117 172.074 60.6367 172.514 60.38H173.559C173.705 60.27 173.852 60.1783 173.999 60.105C174.182 59.995 174.347 59.9033 174.494 59.83H171.249C171.579 59.6467 171.982 59.4633 172.459 59.28H173.944C174.787 58.95 175.667 58.675 176.584 58.455H174.934C176.73 58.0517 178.637 57.85 180.654 57.85C182.67 57.85 184.577 58.0517 186.374 58.455H188.079C188.995 58.675 189.857 58.95 190.664 59.28H189.124C189.6 59.4633 190.004 59.6467 190.334 59.83H193.579C193.762 59.9033 193.927 59.995 194.074 60.105C194.257 60.1783 194.422 60.27 194.569 60.38H193.524L194.679 61.205H192.149C192.369 61.3517 192.57 61.535 192.754 61.755C192.974 61.9383 193.175 62.1217 193.359 62.305H192.094C192.204 62.4517 192.314 62.5983 192.424 62.745C192.57 62.855 192.68 62.9833 192.754 63.13H196.824L196.989 63.405H195.009L195.339 63.955H196.439C196.695 64.3217 196.897 64.6883 197.044 65.055H196.769C196.842 65.2017 196.879 65.2933 196.879 65.33H196.989L197.209 65.88H197.154C197.227 66.0267 197.3 66.21 197.374 66.43C197.447 66.6133 197.502 66.7967 197.539 66.98H198.089L198.254 67.805H197.924C197.997 67.9517 198.034 68.135 198.034 68.355C198.07 68.5383 198.107 68.7217 198.144 68.905H198.584C198.62 69.0517 198.639 69.1983 198.639 69.345C198.639 69.455 198.657 69.5833 198.694 69.73H196.549V70.115C196.549 70.2983 196.567 70.445 196.604 70.555H195.504V71.105H202.599ZM181.479 68.905C181.442 69.0517 181.405 69.1983 181.369 69.345C181.369 69.455 181.369 69.5833 181.369 69.73H182.909C182.872 69.84 182.854 69.95 182.854 70.06C182.854 70.17 182.854 70.28 182.854 70.39V70.555H183.074V70.39C183.074 70.28 183.055 70.17 183.019 70.06C183.019 69.95 183.019 69.84 183.019 69.73H185.164C185.164 69.5833 185.145 69.455 185.109 69.345C185.109 69.1983 185.109 69.0517 185.109 68.905H184.669C184.632 68.685 184.577 68.4833 184.504 68.3C184.467 68.1167 184.412 67.9517 184.339 67.805H184.724C184.577 67.475 184.357 67.2 184.064 66.98H183.514C183.147 66.76 182.67 66.65 182.084 66.65C181.497 66.65 181.039 66.76 180.709 66.98H181.094C180.947 67.09 180.819 67.2183 180.709 67.365C180.599 67.475 180.507 67.6217 180.434 67.805H182.249C182.212 67.9517 182.157 68.1167 182.084 68.3C182.047 68.4833 182.01 68.685 181.974 68.905H181.479ZM185.219 72.205H189.124V71.105H182.029C181.992 70.9583 181.974 70.775 181.974 70.555H177.409C177.409 70.775 177.39 70.9583 177.354 71.105H178.069V72.205H181.424V72.755H180.214V73.305H179.554V73.58H178.234C178.234 73.7267 178.234 73.8733 178.234 74.02C178.27 74.13 178.289 74.2583 178.289 74.405H182.634V73.58H185.109V73.305H182.964V72.755H185.219V72.205ZM184.339 74.955V74.68H178.344V74.955H178.619V75.01C178.619 75.0467 178.619 75.0833 178.619 75.12C178.655 75.1567 178.674 75.1933 178.674 75.23H179.609C179.645 75.4133 179.664 75.5967 179.664 75.78C179.664 75.9633 179.682 76.1467 179.719 76.33H179.169C179.242 76.8067 179.315 77.1733 179.389 77.43H179.994C180.067 77.65 180.14 77.8333 180.214 77.98H180.599C180.929 78.4933 181.552 78.75 182.469 78.75C183.385 78.75 184.009 78.4933 184.339 77.98H184.559C184.595 77.9067 184.632 77.8333 184.669 77.76C184.705 77.65 184.742 77.54 184.779 77.43H183.954C183.99 77.2467 184.027 77.0817 184.064 76.935C184.1 76.7517 184.137 76.55 184.174 76.33H184.559C184.595 76.1467 184.614 75.9633 184.614 75.78C184.614 75.5967 184.632 75.4133 184.669 75.23H184.174V74.955H184.339ZM234.257 85.955H236.017V86.78H234.642V87.055H235.027C234.99 87.2017 234.972 87.33 234.972 87.44C234.972 87.5867 234.953 87.7333 234.917 87.88H234.862V88.155H232.277C232.24 88.2283 232.222 88.32 232.222 88.43C232.222 88.54 232.203 88.6317 232.167 88.705H235.357C235.32 88.8883 235.283 89.0717 235.247 89.255C235.21 89.4383 235.173 89.6217 235.137 89.805H234.257C234.22 89.9517 234.183 90.08 234.147 90.19C234.11 90.3367 234.055 90.4833 233.982 90.63H232.167L231.947 91.18H232.882L232.662 91.73H232.772C232.698 91.9133 232.607 92.0967 232.497 92.28H232.552L232.057 93.105C232.02 93.1417 231.983 93.1783 231.947 93.215C231.947 93.2517 231.928 93.3067 231.892 93.38C231.818 93.5267 231.727 93.655 231.617 93.765C231.507 93.9117 231.397 94.0583 231.287 94.205H231.177L230.902 94.48H231.947L231.452 95.03H230.187C230.077 95.1033 229.967 95.195 229.857 95.305C229.747 95.415 229.655 95.5067 229.582 95.58H231.067C230.92 95.7267 230.737 95.855 230.517 95.965C230.333 96.1117 230.15 96.2583 229.967 96.405H231.947C231.727 96.5517 231.488 96.68 231.232 96.79C231.012 96.9367 230.773 97.0833 230.517 97.23H229.967C229.783 97.34 229.582 97.4317 229.362 97.505C229.142 97.615 228.94 97.7067 228.757 97.78H225.622C224.925 98.0367 224.21 98.2567 223.477 98.44C222.743 98.6233 221.992 98.77 221.222 98.88H224.467C223.917 98.9533 223.348 99.0083 222.762 99.045C222.175 99.0817 221.588 99.1 221.002 99.1C220.378 99.1 219.755 99.0817 219.132 99.045C218.545 99.0083 217.977 98.9533 217.427 98.88H214.182C212.532 98.66 211.01 98.2933 209.617 97.78H212.752C212.532 97.7067 212.312 97.615 212.092 97.505C211.872 97.4317 211.652 97.34 211.432 97.23H211.982C211.725 97.0833 211.468 96.9367 211.212 96.79C210.955 96.68 210.698 96.5517 210.442 96.405H208.517C208.297 96.2583 208.077 96.1117 207.857 95.965C207.673 95.855 207.49 95.7267 207.307 95.58H205.822C205.528 95.36 205.308 95.1767 205.162 95.03H206.427C206.317 94.9567 206.207 94.865 206.097 94.755C205.987 94.645 205.895 94.5533 205.822 94.48H204.777C204.74 94.4067 204.703 94.3517 204.667 94.315C204.63 94.2783 204.575 94.2417 204.502 94.205H204.667C204.52 94.0583 204.392 93.9117 204.282 93.765C204.172 93.655 204.062 93.5267 203.952 93.38H203.897C203.86 93.3067 203.787 93.215 203.677 93.105H203.732C203.622 92.9583 203.512 92.8117 203.402 92.665C203.292 92.555 203.2 92.4267 203.127 92.28L202.797 91.73H202.687C202.65 91.6567 202.613 91.565 202.577 91.455C202.54 91.345 202.485 91.2533 202.412 91.18H201.477L201.257 90.63H203.127C203.09 90.4833 203.035 90.3367 202.962 90.19C202.925 90.08 202.888 89.9517 202.852 89.805H202.522C202.522 89.695 202.503 89.585 202.467 89.475C202.467 89.4017 202.467 89.3283 202.467 89.255C202.467 88.9983 202.485 88.815 202.522 88.705H202.357C202.467 88.485 202.595 88.3017 202.742 88.155H202.412C202.632 88.0083 202.797 87.9167 202.907 87.88H203.622C203.842 87.8067 204.043 87.77 204.227 87.77H214.952C215.135 87.77 215.337 87.8067 215.557 87.88H214.787C214.97 87.9167 215.117 88.0083 215.227 88.155H215.557C215.703 88.3017 215.832 88.485 215.942 88.705H216.107L216.217 88.87C216.473 89.31 216.712 89.6217 216.932 89.805H217.207C217.61 90.0983 218.16 90.245 218.857 90.245C219.407 90.245 219.883 90.0983 220.287 89.805H221.167C221.497 89.5483 221.735 89.1817 221.882 88.705H218.692C218.765 88.485 218.802 88.3017 218.802 88.155H221.387C221.423 88.0817 221.442 87.99 221.442 87.88H221.497C221.533 87.7333 221.552 87.5867 221.552 87.44C221.552 87.33 221.552 87.2017 221.552 87.055H221.222V86.78H222.542V85.955H220.782V85.68H219.737V85.405H220.727V84.305H219.682V83.975L219.132 84.305H219.077C218.197 84.8183 217.243 85.185 216.217 85.405H216.437C216.143 85.4417 215.85 85.4967 215.557 85.57C215.263 85.6067 214.952 85.6433 214.622 85.68H213.247C213.027 85.7167 212.807 85.735 212.587 85.735C212.367 85.735 212.147 85.735 211.927 85.735C211.67 85.735 211.413 85.735 211.157 85.735C210.9 85.735 210.662 85.7167 210.442 85.68H211.762C211.432 85.6433 211.102 85.6067 210.772 85.57C210.442 85.4967 210.112 85.4417 209.782 85.405H209.617C209.067 85.295 208.535 85.1483 208.022 84.965C207.545 84.7817 207.068 84.5617 206.592 84.305H206.647C206.5 84.2317 206.353 84.1583 206.207 84.085C206.06 83.975 205.913 83.865 205.767 83.755H207.032C206.812 83.5717 206.592 83.3883 206.372 83.205C206.188 83.0217 206.005 82.8383 205.822 82.655H201.367L201.092 82.38H203.622C203.328 82.0133 203.072 81.6467 202.852 81.28H203.567C203.31 80.9133 203.108 80.5467 202.962 80.18H202.852C202.668 79.7767 202.522 79.41 202.412 79.08H198.397C198.397 79.0067 198.397 78.9517 198.397 78.915C198.36 78.8783 198.342 78.8417 198.342 78.805H202.082L201.917 78.255H202.192C202.155 78.0717 202.1 77.8883 202.027 77.705C201.99 77.5217 201.953 77.3383 201.917 77.155H202.577L202.412 76.055H201.697L201.642 75.505H200.322C200.285 75.3217 200.267 75.1383 200.267 74.955C200.267 74.7717 200.248 74.5883 200.212 74.405H199.717C199.717 74.2583 199.717 74.13 199.717 74.02C199.68 73.8733 199.662 73.7267 199.662 73.58H200.432V73.03H201.422C201.422 72.8833 201.403 72.755 201.367 72.645C201.367 72.4983 201.367 72.3517 201.367 72.205H201.862V71.38H200.982C200.982 71.2333 200.982 71.105 200.982 70.995C200.982 70.8483 201 70.7017 201.037 70.555H201.147V70.5C201.147 70.3533 201.147 70.225 201.147 70.115C201.183 70.005 201.202 69.8767 201.202 69.73H201.422C201.458 69.5833 201.477 69.455 201.477 69.345C201.477 69.1983 201.495 69.0517 201.532 68.905C201.568 68.8317 201.587 68.74 201.587 68.63C201.587 68.52 201.605 68.4283 201.642 68.355H201.367V68.08H201.697C201.733 67.8967 201.77 67.7133 201.807 67.53C201.843 67.31 201.88 67.1267 201.917 66.98H201.862C201.898 66.8333 201.935 66.705 201.972 66.595C202.008 66.4483 202.045 66.3017 202.082 66.155H202.522C202.595 65.9717 202.65 65.7883 202.687 65.605C202.76 65.385 202.833 65.2017 202.907 65.055H203.182L203.292 64.78H202.522C202.558 64.7067 202.595 64.615 202.632 64.505C202.668 64.395 202.705 64.3033 202.742 64.23L203.072 63.405C203.108 63.3317 203.127 63.2767 203.127 63.24C203.163 63.2033 203.2 63.1667 203.237 63.13L203.402 62.855C203.475 62.7817 203.53 62.69 203.567 62.58C203.64 62.47 203.713 62.3783 203.787 62.305C203.823 62.2317 203.86 62.1767 203.897 62.14C203.933 62.1033 203.97 62.0667 204.007 62.03H203.897L204.557 61.205C204.667 61.1317 204.758 61.04 204.832 60.93C204.942 60.82 205.033 60.7283 205.107 60.655H205.217C205.253 60.5817 205.29 60.5267 205.327 60.49C205.4 60.4533 205.455 60.4167 205.492 60.38H206.097C206.317 60.16 206.555 59.9767 206.812 59.83H205.437C205.583 59.72 205.73 59.6283 205.877 59.555C206.023 59.445 206.17 59.3533 206.317 59.28H206.702C207.215 58.9867 207.838 58.7117 208.572 58.455H210.387C211.707 58.0517 213.118 57.85 214.622 57.85C215.942 57.85 217.17 58.0517 218.307 58.455H216.492C217.078 58.6383 217.665 58.9133 218.252 59.28H217.922C218.068 59.3533 218.197 59.445 218.307 59.555C218.453 59.6283 218.6 59.72 218.747 59.83H220.067C220.213 59.9033 220.342 59.995 220.452 60.105C220.562 60.215 220.672 60.3067 220.782 60.38H220.177L220.452 60.655H220.397L220.892 61.205C220.965 61.2417 221.02 61.2967 221.057 61.37C221.13 61.4433 221.185 61.5167 221.222 61.59V61.205H221.442V60.655H222.377V60.38H222.982V59.83H220.287C220.287 59.61 220.342 59.4267 220.452 59.28H221.387C221.57 58.84 221.882 58.565 222.322 58.455H221.222C221.332 58.4183 221.478 58.4 221.662 58.4H231.287C231.47 58.4 231.598 58.4183 231.672 58.455H232.772C233.212 58.565 233.523 58.84 233.707 59.28H232.772C232.845 59.5 232.882 59.6833 232.882 59.83H235.577V60.38H234.972V60.655H234.037V61.205H233.817V62.03H233.872V62.855H233.817V64.23H233.872V64.78H234.642V65.055H234.312V66.155H233.817L233.872 66.98V68.355H233.707V68.905H233.542V69.73H233.872V70.555H234.532V71.38H233.377V72.205H233.762V73.03H233.872V73.58H232.057L232.112 74.405H232.332V75.505H233.542V76.055H234.532V77.155H233.817V78.255H233.597V78.805H229.802V79.08H233.817V80.18H233.927V81.28H233.157L233.212 82.38H230.682V82.655H235.137V83.755H233.157V84.305H234.202V85.405H233.212V85.68H234.257V85.955ZM215.722 75.505C215.978 75.7617 216.308 75.945 216.712 76.055H217.372C217.518 76.0917 217.665 76.1283 217.812 76.165C217.995 76.165 218.16 76.165 218.307 76.165C218.49 76.165 218.655 76.165 218.802 76.165C218.985 76.1283 219.15 76.0917 219.297 76.055H218.307C218.71 75.945 219.04 75.7617 219.297 75.505H218.087C218.38 75.2117 218.582 74.845 218.692 74.405H218.472L218.637 73.58H220.397C220.397 73.5067 220.415 73.4517 220.452 73.415V73.03H220.342V72.205H220.012V71.38H221.112V70.555H220.397V70.445C220.397 70.2983 220.378 70.17 220.342 70.06C220.342 69.95 220.323 69.84 220.287 69.73H220.012C219.975 69.4367 219.883 69.1617 219.737 68.905H219.847C219.737 68.685 219.608 68.5017 219.462 68.355H219.627C219.48 68.2083 219.37 68.1167 219.297 68.08C218.93 67.8233 218.398 67.695 217.702 67.695C217.005 67.695 216.473 67.8233 216.107 68.08H215.777C215.703 68.1167 215.593 68.2083 215.447 68.355H215.722C215.575 68.5017 215.447 68.685 215.337 68.905H215.282C215.245 69.015 215.208 69.1433 215.172 69.29C215.135 69.4 215.08 69.5467 215.007 69.73H214.787C214.75 69.8767 214.713 70.0233 214.677 70.17C214.677 70.28 214.677 70.4083 214.677 70.555H214.512V70.885C214.475 70.995 214.457 71.16 214.457 71.38H215.337V72.205H214.842C214.842 72.3517 214.842 72.4983 214.842 72.645C214.878 72.755 214.897 72.865 214.897 72.975V73.03H213.907L213.962 73.58H213.192L213.357 74.405H213.852C213.962 74.845 214.163 75.2117 214.457 75.505H215.722ZM221.167 83.755H221.662V83.37L221.167 83.755ZM238.548 53.78V52.68H238.493V51.855H238.988V51.58H239.318V50.48H239.043V49.655H239.098V48.555H239.318V47.73H239.208V47.235C239.208 46.9417 239.244 46.74 239.318 46.63H239.868L240.033 46.355H239.593C239.886 45.9517 240.289 45.75 240.803 45.75H250.098C250.611 45.75 251.014 45.9517 251.308 46.355H251.748L251.913 46.63H251.308C251.418 46.7767 251.473 46.9783 251.473 47.235V47.73H251.583V48.555H251.363V49.655H251.308V50.48H251.583V51.58H251.253V51.855H250.758V52.68H250.813V53.78H251.198V53.89C251.198 54.22 251.069 54.55 250.813 54.88H250.153C249.896 55.21 249.529 55.375 249.053 55.375H239.758C239.281 55.375 238.896 55.21 238.603 54.88H239.263C239.043 54.5867 238.933 54.2567 238.933 53.89V53.78H238.548ZM249.878 65.33H255.048V66.43H253.178V66.98H251.088V68.08H252.683V68.355H251.638V68.905H251.803V69.455H252.078V70.28H249.328V71.105H251.143V71.93H250.813V72.48H251.748V73.305H251.968V74.13H251.638V74.955H251.913V75.505H251.638V76.605H251.528V77.43H251.308V78.255H251.528V78.805H251.638V79.905H251.418V80.455H251.693V81.005H251.638V81.83H251.858V82.655H252.023V82.93H251.638V84.03H250.868V85.13H251.418V85.515C251.418 85.6983 251.399 85.845 251.363 85.955H250.978C250.868 86.3217 250.666 86.5967 250.373 86.78H251.473C251.289 86.9267 251.014 87 250.648 87H240.803C240.473 87 240.216 86.9267 240.033 86.78H238.933C238.603 86.5967 238.383 86.3217 238.273 85.955H238.658C238.621 85.845 238.603 85.6983 238.603 85.515V85.13H238.053V84.03H238.823V82.93H239.208V82.655H239.043V81.83H238.823V81.005H238.878V80.455H238.603V79.905H238.823V78.805H238.713V78.255H238.493V77.43H238.713V76.605H238.823V75.505H239.098V74.955H238.823V74.13H239.153V73.305H238.933V72.48H237.998V71.93H238.328V71.105H236.513V70.28H239.263V69.455H238.988V68.905H238.823V68.355H239.868V68.08H238.273V66.98H240.363V66.43H242.233V65.33H237.063V64.78H241.628V63.68H239.978V62.855H240.968V61.755H239.208V61.48H238.823V60.93H238.493V60.105H238.878V59.885C238.878 59.4817 238.969 59.1883 239.153 59.005H239.208C239.501 58.6017 239.904 58.4 240.418 58.4H250.263C250.776 58.4 251.179 58.6017 251.473 59.005H251.363C251.583 59.225 251.693 59.5183 251.693 59.885V60.105H251.308V60.93H251.638V61.48H252.023V61.755H253.783V62.855H252.793V63.68H254.443V64.78H249.878V65.33ZM291.515 82.93H299.71V84.03H295.035V84.855H294.265V85.405H290.855V85.68H292.56C292.487 86.1933 292.267 86.56 291.9 86.78H290.69C290.507 86.9267 290.232 87 289.865 87H279.36C279.03 87 278.774 86.9267 278.59 86.78H279.8C279.434 86.56 279.214 86.1933 279.14 85.68H277.38V85.405H280.79V84.855H281.56V84.03H286.235V82.93H278.04V81.83H280.075V81.555H278.26V81.005H278.315V80.455H277.435V79.355H278.15V78.255H275.895V77.155H276.445V76.055H278.975V74.955H278.37V74.405H278.15V74.13H277.93V73.305H278.26V73.03H278.535V72.48H278.48V71.93H278.315V71.38H276.005V70.83H276.61V70.72C276.61 70.5733 276.592 70.445 276.555 70.335C276.555 70.225 276.555 70.115 276.555 70.005H277.655C277.619 69.8217 277.582 69.675 277.545 69.565C277.509 69.4183 277.472 69.29 277.435 69.18H278.425C278.205 68.7033 277.894 68.3367 277.49 68.08H275.73C275.327 67.8233 274.795 67.695 274.135 67.695C273.475 67.695 272.962 67.8233 272.595 68.08H273.915C273.732 68.2267 273.549 68.3917 273.365 68.575C273.219 68.7217 273.109 68.9233 273.035 69.18H271.385C271.312 69.3267 271.239 69.6017 271.165 70.005H271.44C271.404 70.1517 271.385 70.39 271.385 70.72V70.83H271V71.38H272.815V71.93H272.925V72.48H272.76V73.03H272.375V73.305H271.99V74.13H272.595V74.405H272.98V74.955H272.76V76.055H274.19V77.155H272.65V78.255H272.925V79.355H272.32V80.455H272.98V81.005H272.925V81.28H273.09V81.555H276.115V81.83H277.38V82.93H273.97V84.03H274.08V84.855H271.99V85.405H274.355V85.68H274.96C274.887 86.1933 274.649 86.56 274.245 86.78H271.715C271.532 86.9267 271.275 87 270.945 87H260.495C260.165 87 259.909 86.9267 259.725 86.78H262.255C261.852 86.56 261.614 86.1933 261.54 85.68H260.935V85.405H258.57V84.855H260.66V84.03H260.55V82.93H263.96V81.83H262.695V81.555H259.67V81.28H259.505V81.005H259.56V80.455H258.9V79.355H259.505V78.255H259.23V77.155H260.77V76.055H259.34V74.955H259.56V74.405H259.175V74.13H258.57V73.305H258.955V73.03H259.34V72.48H259.505V71.93H259.395V71.38H257.58V70.83H257.965V70.005H257.69V69.18H259.34V68.08H257.965V67.255H259.175V66.705H259.505V65.88H259.285V65.055H259.34V63.68H259.615V63.13H259.56V62.305H260.275V62.03H259.835V61.205H260.495V60.93H258.295V60.38H259.89V59.555H262.86C262.934 59.335 263.007 59.1517 263.08 59.005H261.32C261.614 58.6017 262.017 58.4 262.53 58.4H272.155C272.669 58.4 273.072 58.6017 273.365 59.005H274.3C275.107 58.6383 275.969 58.3633 276.885 58.18C277.802 57.96 278.755 57.85 279.745 57.85C281.579 57.85 283.229 58.235 284.695 59.005H285.3C285.484 59.0783 285.649 59.17 285.795 59.28C285.942 59.3533 286.089 59.445 286.235 59.555H285.465C285.649 59.665 285.832 59.7933 286.015 59.94C286.199 60.05 286.364 60.1967 286.51 60.38H290.8C291.02 60.5267 291.204 60.71 291.35 60.93H288.325C288.362 60.9667 288.399 61.0033 288.435 61.04C288.472 61.0767 288.509 61.1317 288.545 61.205H289.315C289.425 61.3517 289.535 61.4983 289.645 61.645C289.755 61.755 289.847 61.8833 289.92 62.03H290.415L290.58 62.305H289.865L290.36 63.13H290.415C290.489 63.3133 290.58 63.4967 290.69 63.68H290.415C290.599 64.0833 290.745 64.45 290.855 64.78C290.855 64.8167 290.892 64.9083 290.965 65.055H290.91C290.984 65.2017 291.02 65.3483 291.02 65.495C291.057 65.605 291.094 65.7333 291.13 65.88H291.35C291.424 66.0267 291.46 66.1733 291.46 66.32C291.497 66.43 291.534 66.5583 291.57 66.705H291.185C291.259 66.925 291.295 67.1083 291.295 67.255H290.14C290.177 67.4017 290.195 67.5483 290.195 67.695C290.195 67.805 290.214 67.9333 290.25 68.08H292.01C292.047 68.2267 292.065 68.41 292.065 68.63C292.102 68.8133 292.12 68.9967 292.12 69.18H291.13V70.005H290.085V70.83H289.48V71.38H291.79V71.93H291.955V72.48H292.01V73.03H291.735V73.305H291.405V74.13H291.625V74.405H291.845V74.955H292.45V76.055H289.92V77.155H289.37V78.255H291.625V79.355H290.91V80.455H291.79V81.005H291.735V81.555H293.55V81.83H291.515V82.93ZM273.035 59.555H272.43C272.43 59.5917 272.43 59.6467 272.43 59.72C272.467 59.7567 272.485 59.8117 272.485 59.885V59.94C272.559 59.8667 272.65 59.7933 272.76 59.72C272.87 59.6467 272.962 59.5917 273.035 59.555ZM270.89 60.38V60.93H275.455L276.115 60.38H270.89ZM272.43 61.205V61.7C272.504 61.59 272.65 61.425 272.87 61.205H272.43ZM333.141 86.505H331.326V87.605H331.821V88.155H331.931V89.255H332.316V89.53H332.646V90.08H333.471V90.905C333.471 91.015 333.452 91.1067 333.416 91.18C333.342 91.73 333.049 92.0967 332.536 92.28H332.041C331.821 92.3533 331.637 92.39 331.491 92.39H298.216C298.069 92.39 297.886 92.3533 297.666 92.28H298.161C297.647 92.0967 297.336 91.73 297.226 91.18V90.08H296.401V89.53H296.071V89.255H295.686V88.155H295.576V87.605H295.081V86.505H296.896V86.23H297.336V85.68H295.026V85.405H295.961V84.58H295.741V83.48H295.796V83.095C295.796 82.9117 295.814 82.765 295.851 82.655H295.521C295.777 81.9583 296.254 81.61 296.951 81.61H330.226C330.996 81.61 331.472 81.9583 331.656 82.655H331.931C331.967 82.7283 331.986 82.8017 331.986 82.875C332.022 82.9483 332.041 83.0217 332.041 83.095V83.48H331.986V84.58H332.206V85.405H331.271V85.68H333.581V86.23H333.141V86.505Z" fill="#75E7F0"/>
<defs>
<filter id="filter0_g_346_4" x="108.595" y="38.55" width="221.186" height="63.7501" filterUnits="userSpaceOnUse" color-interpolation-filters="sRGB">
<feFlood flood-opacity="0" result="BackgroundImageFix"/>
<feBlend mode="normal" in="SourceGraphic" in2="BackgroundImageFix" result="shape"/>
<feTurbulence type="fractalNoise" baseFrequency="5 5" numOctaves="3" seed="901" />
<feDisplacementMap in="shape" scale="10.399999618530273" xChannelSelector="R" yChannelSelector="G" result="displacedImage" width="100%" height="100%" />
<feMerge result="effect1_texture_346_4">
<feMergeNode in="displacedImage"/>
</feMerge>
</filter>
</defs>
</svg>
