<svg width="1099" height="874" viewBox="0 0 1099 874" fill="none" xmlns="http://www.w3.org/2000/svg">
<path d="M565.921 831.933H707.454L739.298 852.483L958.192 852.483L1034.54 791.402L1034.54 638.526L1098.1 563.612V315.098L1034.54 240.185V83.5155L931.942 0L581.17 0L541.502 33.664L457.432 33.664L423.168 16.832L342.211 16.832L309.399 0L70.6086 1.04116L0.189331 84.0361L0 291.821L0 811.407L53.0669 856.202L530.48 856.202L565.921 831.933Z" fill="url(#paint0_linear_133_2393)"/>
<path d="M554.185 795.269H685.58L715.131 813.936L918.334 813.936L989.237 758.408V619.413L1048.26 551.317V325.361L989.237 257.24V114.8L893.977 38.8701L568.319 38.8701L531.511 69.485L453.457 69.485L421.633 54.19L346.481 54.19L316.025 38.8701L94.3344 39.8369L28.9631 115.271L28.7527 304.191L28.7527 776.603L78.0336 817.332H521.268L554.185 795.269Z" fill="url(#paint1_linear_133_2393)"/>
<path d="M707.454 849.731L739.298 870.281L530.48 874L565.921 849.731H707.454Z" fill="url(#paint2_linear_133_2393)"/>
<path d="M62.1118 171.27L95.2812 132.177V171.27L61.4598 211.131L62.1118 171.27Z" fill="url(#paint3_linear_133_2393)"/>
<path d="M62.1118 229.699L95.2812 190.581V229.699L61.4598 269.56L62.1118 229.699Z" fill="url(#paint4_linear_133_2393)"/>
<path d="M62.1118 286.194L95.2812 247.076V286.194L61.4598 326.055L62.1118 286.194Z" fill="url(#paint5_linear_133_2393)"/>
<path d="M62.1118 344.598L95.2812 305.505V344.598L61.4598 384.459L62.1118 344.598Z" fill="url(#paint6_linear_133_2393)"/>
<path d="M62.1118 401.613L95.2812 362.496V401.613L61.4598 441.475L62.1118 401.613Z" fill="url(#paint7_linear_133_2393)"/>
<path d="M62.1118 460.017L95.2812 420.899V460.017L61.4598 499.878L62.1118 460.017Z" fill="url(#paint8_linear_133_2393)"/>
<path d="M62.1118 516.513L95.2812 477.395V516.513L61.4598 556.374L62.1118 516.513Z" fill="url(#paint9_linear_133_2393)"/>
<path d="M62.1118 574.94L95.2812 535.823V574.94L61.4598 614.802L62.1118 574.94Z" fill="url(#paint10_linear_133_2393)"/>
<path d="M220.218 786.221H105.208L55.9485 745.492L55.9485 644.797L37.0185 628.511L37.0185 767.802L86.2785 808.531H246.131L220.218 786.221Z" fill="url(#paint11_linear_133_2393)"/>
<defs>
<linearGradient id="paint0_linear_133_2393" x1="0" y1="428.113" x2="1098.1" y2="428.113" gradientUnits="userSpaceOnUse">
<stop stop-color="#98E8F0"/>
<stop offset="1" stop-color="#FCF5C5"/>
</linearGradient>
<linearGradient id="paint1_linear_133_2393" x1="28.7527" y1="428.113" x2="1048.26" y2="428.113" gradientUnits="userSpaceOnUse">
<stop stop-color="#272930"/>
<stop offset="0.64" stop-color="#502E5E"/>
<stop offset="1" stop-color="#5D190F"/>
</linearGradient>
<linearGradient id="paint2_linear_133_2393" x1="530.48" y1="861.853" x2="739.298" y2="861.853" gradientUnits="userSpaceOnUse">
<stop stop-color="#98E8F0"/>
<stop offset="1" stop-color="#FCF5C5"/>
</linearGradient>
<linearGradient id="paint3_linear_133_2393" x1="61.4598" y1="171.666" x2="95.2812" y2="171.666" gradientUnits="userSpaceOnUse">
<stop stop-color="#98E8F0"/>
<stop offset="1" stop-color="#FCF5C5"/>
</linearGradient>
<linearGradient id="paint4_linear_133_2393" x1="61.4598" y1="230.071" x2="95.2812" y2="230.071" gradientUnits="userSpaceOnUse">
<stop stop-color="#98E8F0"/>
<stop offset="1" stop-color="#FCF5C5"/>
</linearGradient>
<linearGradient id="paint5_linear_133_2393" x1="61.4598" y1="286.566" x2="95.2812" y2="286.566" gradientUnits="userSpaceOnUse">
<stop stop-color="#98E8F0"/>
<stop offset="1" stop-color="#FCF5C5"/>
</linearGradient>
<linearGradient id="paint6_linear_133_2393" x1="61.4598" y1="344.994" x2="95.2812" y2="344.994" gradientUnits="userSpaceOnUse">
<stop stop-color="#98E8F0"/>
<stop offset="1" stop-color="#FCF5C5"/>
</linearGradient>
<linearGradient id="paint7_linear_133_2393" x1="61.4598" y1="401.985" x2="95.2812" y2="401.985" gradientUnits="userSpaceOnUse">
<stop stop-color="#98E8F0"/>
<stop offset="1" stop-color="#FCF5C5"/>
</linearGradient>
<linearGradient id="paint8_linear_133_2393" x1="61.4598" y1="460.389" x2="95.2812" y2="460.389" gradientUnits="userSpaceOnUse">
<stop stop-color="#98E8F0"/>
<stop offset="1" stop-color="#FCF5C5"/>
</linearGradient>
<linearGradient id="paint9_linear_133_2393" x1="61.4598" y1="516.885" x2="95.2812" y2="516.885" gradientUnits="userSpaceOnUse">
<stop stop-color="#98E8F0"/>
<stop offset="1" stop-color="#FCF5C5"/>
</linearGradient>
<linearGradient id="paint10_linear_133_2393" x1="61.4598" y1="575.312" x2="95.2812" y2="575.312" gradientUnits="userSpaceOnUse">
<stop stop-color="#98E8F0"/>
<stop offset="1" stop-color="#FCF5C5"/>
</linearGradient>
<linearGradient id="paint11_linear_133_2393" x1="37.0186" y1="718.521" x2="246.131" y2="718.521" gradientUnits="userSpaceOnUse">
<stop stop-color="#98E8F0"/>
<stop offset="1" stop-color="#FCF5C5"/>
</linearGradient>
</defs>
</svg>
