<svg width="572" height="193" viewBox="0 0 572 193" fill="none" xmlns="http://www.w3.org/2000/svg">
<path d="M77 117.09H118.306L77 96.9248V117.09Z" fill="#661109"/>
<path d="M175.49 0L77 38.8754V85.6927L141.302 117.09H386.815L485.305 78.2145V0H175.49Z" fill="#661109"/>
<path d="M85.6948 126.217H127.001L85.6948 106.044V126.217Z" fill="#FCF551"/>
<path d="M184.177 9.12646L85.6948 47.9947V94.8192L149.997 126.216H395.51L494 87.341V9.12646H184.177Z" fill="#FCF551"/>
<path d="M149.639 132.396H348.941V137.262H149.639" fill="#FCF551"/>
<path d="M85.5635 132.396H126.869V137.262H85.5635" fill="#FCF551"/>
<path d="M489.021 9.12646V87.1198V89.3033L494 87.341V87.1198V9.12646H489.021Z" fill="#75E8F0"/>
<g filter="url(#filter0_g_133_2445)">
<path d="M199.925 47.93C199.962 47.82 199.98 47.7283 199.98 47.655C200.017 47.545 200.053 47.4533 200.09 47.38H194.04C194.113 47.27 194.187 47.1783 194.26 47.105C194.333 46.995 194.407 46.9033 194.48 46.83H200.86C201.153 46.61 201.465 46.5 201.795 46.5H212.795C213.198 46.5 213.51 46.61 213.73 46.83H207.35C207.423 46.9033 207.497 46.995 207.57 47.105C207.68 47.1783 207.753 47.27 207.79 47.38H213.785C213.858 47.6 213.895 47.7833 213.895 47.93H216.975C217.012 47.93 217.03 47.9483 217.03 47.985V48.48H209.605V49.58H212.685V50.405H212.355V51.505H210.375V52.605H214.83V52.88H215.16V53.98H215.38V55.08H214.995V56.18H214.72V57.555H215.655V58.655H214.61V59.755H214.83V60.03H218.735V61.13H220.77V61.68H212.3V62.23H215.105V63.33H212.795V64.43H214.775V64.98H215.16V65.805H222.53V66.355H227.645V67.455H213.675V66.355H208.56V65.805H201.19V64.98H200.805V64.43H198.825V63.33H201.135V62.23H198.33V61.68H206.8V61.13H204.765V60.03H200.86V59.755H200.64V58.655H201.685V57.555H200.75V56.18H201.025V55.08H201.41V53.98H201.19V52.88H200.86V52.605H196.405V51.505H198.385V50.405H198.715V49.58H195.635V48.48H203.06V47.93H199.925ZM236.5 77.63H221.485V77.905H222.585V78.73H230.395V79.005H227.975V80.105H231.825V80.93H232.375V81.205H231.99V81.48H231.825V82.58H231.935V83.405H231.715V83.68H231.44C231.403 83.7533 231.385 83.845 231.385 83.955H231.99C231.88 84.3217 231.678 84.5967 231.385 84.78H230.78C230.597 84.9267 230.34 85 230.01 85H202.29C201.96 85 201.703 84.9267 201.52 84.78H202.07C201.74 84.5967 201.52 84.3217 201.41 83.955H200.805C200.805 83.8817 200.787 83.8267 200.75 83.79C200.75 83.7533 200.75 83.7167 200.75 83.68H201.025V83.405H201.245V82.58H201.135V81.48H201.3V81.205H201.685V80.93H201.135V80.105H197.285V79.005H199.705V78.73H191.895V77.905H190.795V77.63H205.81V76.805H199.705V75.98H205.645V75.705H192.665V74.88H194.535V74.605H201.685V74.33H199.155V73.505H203.445V72.405H199.1V71.855H202.675V71.58H201.025V70.755H202.62V70.205H200.585V69.655H205.37V68.83H206.745V68.28H199.21V67.455H213.18V68.28H220.715V68.83H219.34V69.655H214.555V70.205H216.59V70.755H214.995V71.58H216.645V71.855H213.07V72.405H217.415V73.505H213.125V73.725H228.36C228.873 73.725 229.277 73.9267 229.57 74.33H232.1L232.265 74.605H225.115L225.225 74.88H223.3C223.337 74.9533 223.355 75.0633 223.355 75.21V75.705H236.335V75.98H230.395V76.805H236.5V77.63ZM270.599 69.105C270.635 69.2883 270.654 69.4717 270.654 69.655C270.654 69.8383 270.654 70.0217 270.654 70.205H266.749V70.755H264.494V71.305H266.639V71.58H264.164V72.405H262.789V72.68H265.869C265.869 72.79 265.85 72.8817 265.814 72.955H265.649V73.23H266.144V73.285C266.144 73.4317 266.125 73.5967 266.089 73.78C266.089 73.9633 266.07 74.1467 266.034 74.33H265.649L265.484 75.43H266.309C266.309 75.5767 266.272 75.76 266.199 75.98H266.034C265.997 76.1267 265.96 76.2733 265.924 76.42C265.887 76.53 265.85 76.6583 265.814 76.805H266.254C266.217 76.9883 266.162 77.1717 266.089 77.355C266.015 77.5383 265.942 77.7217 265.869 77.905H265.044L264.824 78.455H264.934C264.86 78.6017 264.824 78.6933 264.824 78.73H264.604C264.457 79.0967 264.255 79.4633 263.999 79.83H264.109C264.072 79.9033 264.017 79.995 263.944 80.105C263.87 80.215 263.797 80.3067 263.724 80.38H263.669L263.009 81.205C262.972 81.2417 262.935 81.2783 262.899 81.315C262.862 81.3517 262.807 81.4067 262.734 81.48H262.459C262.312 81.6267 262.165 81.7733 262.019 81.92C261.872 82.03 261.707 82.1583 261.524 82.305H259.874L258.719 83.13H258.939C258.865 83.1667 258.792 83.2033 258.719 83.24C258.645 83.2767 258.572 83.3317 258.499 83.405H258.114C258.04 83.4417 257.949 83.4783 257.839 83.515C257.729 83.5517 257.637 83.6067 257.564 83.68H260.534C260.35 83.79 260.149 83.9 259.929 84.01C259.709 84.0833 259.489 84.1567 259.269 84.23H258.334C258.077 84.34 257.802 84.45 257.509 84.56C257.215 84.6333 256.922 84.7067 256.629 84.78H256.849C256.409 84.89 255.95 84.9817 255.474 85.055C254.997 85.165 254.502 85.2567 253.989 85.33H255.694C255.107 85.4033 254.502 85.4583 253.879 85.495C253.255 85.5317 252.614 85.55 251.954 85.55C251.257 85.55 250.597 85.5317 249.974 85.495C249.387 85.4583 248.782 85.4033 248.159 85.33H246.399C245.922 85.2567 245.427 85.165 244.914 85.055C244.437 84.9817 243.979 84.89 243.539 84.78H243.374C243.08 84.7067 242.787 84.6333 242.494 84.56C242.237 84.45 241.962 84.34 241.669 84.23H242.549C242.365 84.1567 242.164 84.0833 241.944 84.01C241.724 83.9 241.522 83.79 241.339 83.68H238.369L237.874 83.405H238.259L237.764 83.13H237.544C237.104 82.8367 236.719 82.5617 236.389 82.305H238.039C237.892 82.1583 237.745 82.03 237.599 81.92C237.452 81.7733 237.305 81.6267 237.159 81.48H237.434C237.397 81.4067 237.36 81.3517 237.324 81.315C237.287 81.2783 237.232 81.2417 237.159 81.205L236.499 80.38H236.554L236.169 79.83H236.059C235.802 79.4633 235.6 79.0967 235.454 78.73H235.619C235.545 78.5833 235.509 78.4917 235.509 78.455H235.344L235.124 77.905H235.949C235.912 77.7217 235.857 77.5383 235.784 77.355C235.71 77.1717 235.637 76.9883 235.564 76.805H235.124C235.087 76.6583 235.05 76.53 235.014 76.42C234.977 76.2733 234.94 76.1267 234.904 75.98H234.574L234.409 75.43H233.859L233.694 74.33H234.244C234.207 74.1467 234.17 73.9633 234.134 73.78C234.134 73.5967 234.134 73.4317 234.134 73.285V73.23H233.144V72.955H232.869C232.869 72.8817 232.85 72.8267 232.814 72.79C232.814 72.7533 232.814 72.7167 232.814 72.68H235.894C235.894 72.57 235.875 72.4783 235.839 72.405H232.759V71.58H234.079V71.305H234.739V70.755H235.894V70.205H232.539C232.539 70.0217 232.539 69.8383 232.539 69.655C232.539 69.4717 232.557 69.2883 232.594 69.105H231.879V68.555H237.324C237.36 68.445 237.379 68.2983 237.379 68.115V67.73H235.894C235.894 67.5833 235.894 67.455 235.894 67.345C235.93 67.1983 235.949 67.0517 235.949 66.905H236.499L236.664 65.805H234.849C234.885 65.6583 234.922 65.53 234.959 65.42C234.995 65.2733 235.032 65.1267 235.069 64.98H234.684C234.757 64.7967 234.812 64.6133 234.849 64.43C234.922 64.21 234.995 64.0267 235.069 63.88H235.124C235.16 63.8067 235.197 63.715 235.234 63.605C235.27 63.495 235.307 63.4033 235.344 63.33H235.289C235.289 63.2933 235.325 63.2017 235.399 63.055H235.674C235.82 62.6883 236.022 62.3217 236.279 61.955H235.179L235.509 61.405H237.544C237.58 61.3317 237.654 61.24 237.764 61.13H233.749C233.822 60.9833 233.914 60.855 234.024 60.745C234.17 60.5983 234.299 60.4517 234.409 60.305H235.674C235.857 60.1217 236.04 59.9383 236.224 59.755C236.444 59.535 236.645 59.3517 236.829 59.205H239.359C239.689 58.9117 240.074 58.6367 240.514 58.38H241.559C241.705 58.27 241.852 58.1783 241.999 58.105C242.182 57.995 242.347 57.9033 242.494 57.83H239.249C239.579 57.6467 239.982 57.4633 240.459 57.28H241.944C242.787 56.95 243.667 56.675 244.584 56.455H242.934C244.73 56.0517 246.637 55.85 248.654 55.85C250.67 55.85 252.577 56.0517 254.374 56.455H256.079C256.995 56.675 257.857 56.95 258.664 57.28H257.124C257.6 57.4633 258.004 57.6467 258.334 57.83H261.579C261.762 57.9033 261.927 57.995 262.074 58.105C262.257 58.1783 262.422 58.27 262.569 58.38H261.524L262.679 59.205H260.149C260.369 59.3517 260.57 59.535 260.754 59.755C260.974 59.9383 261.175 60.1217 261.359 60.305H260.094C260.204 60.4517 260.314 60.5983 260.424 60.745C260.57 60.855 260.68 60.9833 260.754 61.13H264.824L264.989 61.405H263.009L263.339 61.955H264.439C264.695 62.3217 264.897 62.6883 265.044 63.055H264.769C264.842 63.2017 264.879 63.2933 264.879 63.33H264.989L265.209 63.88H265.154C265.227 64.0267 265.3 64.21 265.374 64.43C265.447 64.6133 265.502 64.7967 265.539 64.98H266.089L266.254 65.805H265.924C265.997 65.9517 266.034 66.135 266.034 66.355C266.07 66.5383 266.107 66.7217 266.144 66.905H266.584C266.62 67.0517 266.639 67.1983 266.639 67.345C266.639 67.455 266.657 67.5833 266.694 67.73H264.549V68.115C264.549 68.2983 264.567 68.445 264.604 68.555H263.504V69.105H270.599ZM249.479 66.905C249.442 67.0517 249.405 67.1983 249.369 67.345C249.369 67.455 249.369 67.5833 249.369 67.73H250.909C250.872 67.84 250.854 67.95 250.854 68.06C250.854 68.17 250.854 68.28 250.854 68.39V68.555H251.074V68.39C251.074 68.28 251.055 68.17 251.019 68.06C251.019 67.95 251.019 67.84 251.019 67.73H253.164C253.164 67.5833 253.145 67.455 253.109 67.345C253.109 67.1983 253.109 67.0517 253.109 66.905H252.669C252.632 66.685 252.577 66.4833 252.504 66.3C252.467 66.1167 252.412 65.9517 252.339 65.805H252.724C252.577 65.475 252.357 65.2 252.064 64.98H251.514C251.147 64.76 250.67 64.65 250.084 64.65C249.497 64.65 249.039 64.76 248.709 64.98H249.094C248.947 65.09 248.819 65.2183 248.709 65.365C248.599 65.475 248.507 65.6217 248.434 65.805H250.249C250.212 65.9517 250.157 66.1167 250.084 66.3C250.047 66.4833 250.01 66.685 249.974 66.905H249.479ZM253.219 70.205H257.124V69.105H250.029C249.992 68.9583 249.974 68.775 249.974 68.555H245.409C245.409 68.775 245.39 68.9583 245.354 69.105H246.069V70.205H249.424V70.755H248.214V71.305H247.554V71.58H246.234C246.234 71.7267 246.234 71.8733 246.234 72.02C246.27 72.13 246.289 72.2583 246.289 72.405H250.634V71.58H253.109V71.305H250.964V70.755H253.219V70.205ZM252.339 72.955V72.68H246.344V72.955H246.619V73.01C246.619 73.0467 246.619 73.0833 246.619 73.12C246.655 73.1567 246.674 73.1933 246.674 73.23H247.609C247.645 73.4133 247.664 73.5967 247.664 73.78C247.664 73.9633 247.682 74.1467 247.719 74.33H247.169C247.242 74.8067 247.315 75.1733 247.389 75.43H247.994C248.067 75.65 248.14 75.8333 248.214 75.98H248.599C248.929 76.4933 249.552 76.75 250.469 76.75C251.385 76.75 252.009 76.4933 252.339 75.98H252.559C252.595 75.9067 252.632 75.8333 252.669 75.76C252.705 75.65 252.742 75.54 252.779 75.43H251.954C251.99 75.2467 252.027 75.0817 252.064 74.935C252.1 74.7517 252.137 74.55 252.174 74.33H252.559C252.595 74.1467 252.614 73.9633 252.614 73.78C252.614 73.5967 252.632 73.4133 252.669 73.23H252.174V72.955H252.339ZM302.257 83.955H304.017V84.78H302.642V85.055H303.027C302.99 85.2017 302.972 85.33 302.972 85.44C302.972 85.5867 302.953 85.7333 302.917 85.88H302.862V86.155H300.277C300.24 86.2283 300.222 86.32 300.222 86.43C300.222 86.54 300.203 86.6317 300.167 86.705H303.357C303.32 86.8883 303.283 87.0717 303.247 87.255C303.21 87.4383 303.173 87.6217 303.137 87.805H302.257C302.22 87.9517 302.183 88.08 302.147 88.19C302.11 88.3367 302.055 88.4833 301.982 88.63H300.167L299.947 89.18H300.882L300.662 89.73H300.772C300.698 89.9133 300.607 90.0967 300.497 90.28H300.552L300.057 91.105C300.02 91.1417 299.983 91.1783 299.947 91.215C299.947 91.2517 299.928 91.3067 299.892 91.38C299.818 91.5267 299.727 91.655 299.617 91.765C299.507 91.9117 299.397 92.0583 299.287 92.205H299.177L298.902 92.48H299.947L299.452 93.03H298.187C298.077 93.1033 297.967 93.195 297.857 93.305C297.747 93.415 297.655 93.5067 297.582 93.58H299.067C298.92 93.7267 298.737 93.855 298.517 93.965C298.333 94.1117 298.15 94.2583 297.967 94.405H299.947C299.727 94.5517 299.488 94.68 299.232 94.79C299.012 94.9367 298.773 95.0833 298.517 95.23H297.967C297.783 95.34 297.582 95.4317 297.362 95.505C297.142 95.615 296.94 95.7067 296.757 95.78H293.622C292.925 96.0367 292.21 96.2567 291.477 96.44C290.743 96.6233 289.992 96.77 289.222 96.88H292.467C291.917 96.9533 291.348 97.0083 290.762 97.045C290.175 97.0817 289.588 97.1 289.002 97.1C288.378 97.1 287.755 97.0817 287.132 97.045C286.545 97.0083 285.977 96.9533 285.427 96.88H282.182C280.532 96.66 279.01 96.2933 277.617 95.78H280.752C280.532 95.7067 280.312 95.615 280.092 95.505C279.872 95.4317 279.652 95.34 279.432 95.23H279.982C279.725 95.0833 279.468 94.9367 279.212 94.79C278.955 94.68 278.698 94.5517 278.442 94.405H276.517C276.297 94.2583 276.077 94.1117 275.857 93.965C275.673 93.855 275.49 93.7267 275.307 93.58H273.822C273.528 93.36 273.308 93.1767 273.162 93.03H274.427C274.317 92.9567 274.207 92.865 274.097 92.755C273.987 92.645 273.895 92.5533 273.822 92.48H272.777C272.74 92.4067 272.703 92.3517 272.667 92.315C272.63 92.2783 272.575 92.2417 272.502 92.205H272.667C272.52 92.0583 272.392 91.9117 272.282 91.765C272.172 91.655 272.062 91.5267 271.952 91.38H271.897C271.86 91.3067 271.787 91.215 271.677 91.105H271.732C271.622 90.9583 271.512 90.8117 271.402 90.665C271.292 90.555 271.2 90.4267 271.127 90.28L270.797 89.73H270.687C270.65 89.6567 270.613 89.565 270.577 89.455C270.54 89.345 270.485 89.2533 270.412 89.18H269.477L269.257 88.63H271.127C271.09 88.4833 271.035 88.3367 270.962 88.19C270.925 88.08 270.888 87.9517 270.852 87.805H270.522C270.522 87.695 270.503 87.585 270.467 87.475C270.467 87.4017 270.467 87.3283 270.467 87.255C270.467 86.9983 270.485 86.815 270.522 86.705H270.357C270.467 86.485 270.595 86.3017 270.742 86.155H270.412C270.632 86.0083 270.797 85.9167 270.907 85.88H271.622C271.842 85.8067 272.043 85.77 272.227 85.77H282.952C283.135 85.77 283.337 85.8067 283.557 85.88H282.787C282.97 85.9167 283.117 86.0083 283.227 86.155H283.557C283.703 86.3017 283.832 86.485 283.942 86.705H284.107L284.217 86.87C284.473 87.31 284.712 87.6217 284.932 87.805H285.207C285.61 88.0983 286.16 88.245 286.857 88.245C287.407 88.245 287.883 88.0983 288.287 87.805H289.167C289.497 87.5483 289.735 87.1817 289.882 86.705H286.692C286.765 86.485 286.802 86.3017 286.802 86.155H289.387C289.423 86.0817 289.442 85.99 289.442 85.88H289.497C289.533 85.7333 289.552 85.5867 289.552 85.44C289.552 85.33 289.552 85.2017 289.552 85.055H289.222V84.78H290.542V83.955H288.782V83.68H287.737V83.405H288.727V82.305H287.682V81.975L287.132 82.305H287.077C286.197 82.8183 285.243 83.185 284.217 83.405H284.437C284.143 83.4417 283.85 83.4967 283.557 83.57C283.263 83.6067 282.952 83.6433 282.622 83.68H281.247C281.027 83.7167 280.807 83.735 280.587 83.735C280.367 83.735 280.147 83.735 279.927 83.735C279.67 83.735 279.413 83.735 279.157 83.735C278.9 83.735 278.662 83.7167 278.442 83.68H279.762C279.432 83.6433 279.102 83.6067 278.772 83.57C278.442 83.4967 278.112 83.4417 277.782 83.405H277.617C277.067 83.295 276.535 83.1483 276.022 82.965C275.545 82.7817 275.068 82.5617 274.592 82.305H274.647C274.5 82.2317 274.353 82.1583 274.207 82.085C274.06 81.975 273.913 81.865 273.767 81.755H275.032C274.812 81.5717 274.592 81.3883 274.372 81.205C274.188 81.0217 274.005 80.8383 273.822 80.655H269.367L269.092 80.38H271.622C271.328 80.0133 271.072 79.6467 270.852 79.28H271.567C271.31 78.9133 271.108 78.5467 270.962 78.18H270.852C270.668 77.7767 270.522 77.41 270.412 77.08H266.397C266.397 77.0067 266.397 76.9517 266.397 76.915C266.36 76.8783 266.342 76.8417 266.342 76.805H270.082L269.917 76.255H270.192C270.155 76.0717 270.1 75.8883 270.027 75.705C269.99 75.5217 269.953 75.3383 269.917 75.155H270.577L270.412 74.055H269.697L269.642 73.505H268.322C268.285 73.3217 268.267 73.1383 268.267 72.955C268.267 72.7717 268.248 72.5883 268.212 72.405H267.717C267.717 72.2583 267.717 72.13 267.717 72.02C267.68 71.8733 267.662 71.7267 267.662 71.58H268.432V71.03H269.422C269.422 70.8833 269.403 70.755 269.367 70.645C269.367 70.4983 269.367 70.3517 269.367 70.205H269.862V69.38H268.982C268.982 69.2333 268.982 69.105 268.982 68.995C268.982 68.8483 269 68.7017 269.037 68.555H269.147V68.5C269.147 68.3533 269.147 68.225 269.147 68.115C269.183 68.005 269.202 67.8767 269.202 67.73H269.422C269.458 67.5833 269.477 67.455 269.477 67.345C269.477 67.1983 269.495 67.0517 269.532 66.905C269.568 66.8317 269.587 66.74 269.587 66.63C269.587 66.52 269.605 66.4283 269.642 66.355H269.367V66.08H269.697C269.733 65.8967 269.77 65.7133 269.807 65.53C269.843 65.31 269.88 65.1267 269.917 64.98H269.862C269.898 64.8333 269.935 64.705 269.972 64.595C270.008 64.4483 270.045 64.3017 270.082 64.155H270.522C270.595 63.9717 270.65 63.7883 270.687 63.605C270.76 63.385 270.833 63.2017 270.907 63.055H271.182L271.292 62.78H270.522C270.558 62.7067 270.595 62.615 270.632 62.505C270.668 62.395 270.705 62.3033 270.742 62.23L271.072 61.405C271.108 61.3317 271.127 61.2767 271.127 61.24C271.163 61.2033 271.2 61.1667 271.237 61.13L271.402 60.855C271.475 60.7817 271.53 60.69 271.567 60.58C271.64 60.47 271.713 60.3783 271.787 60.305C271.823 60.2317 271.86 60.1767 271.897 60.14C271.933 60.1033 271.97 60.0667 272.007 60.03H271.897L272.557 59.205C272.667 59.1317 272.758 59.04 272.832 58.93C272.942 58.82 273.033 58.7283 273.107 58.655H273.217C273.253 58.5817 273.29 58.5267 273.327 58.49C273.4 58.4533 273.455 58.4167 273.492 58.38H274.097C274.317 58.16 274.555 57.9767 274.812 57.83H273.437C273.583 57.72 273.73 57.6283 273.877 57.555C274.023 57.445 274.17 57.3533 274.317 57.28H274.702C275.215 56.9867 275.838 56.7117 276.572 56.455H278.387C279.707 56.0517 281.118 55.85 282.622 55.85C283.942 55.85 285.17 56.0517 286.307 56.455H284.492C285.078 56.6383 285.665 56.9133 286.252 57.28H285.922C286.068 57.3533 286.197 57.445 286.307 57.555C286.453 57.6283 286.6 57.72 286.747 57.83H288.067C288.213 57.9033 288.342 57.995 288.452 58.105C288.562 58.215 288.672 58.3067 288.782 58.38H288.177L288.452 58.655H288.397L288.892 59.205C288.965 59.2417 289.02 59.2967 289.057 59.37C289.13 59.4433 289.185 59.5167 289.222 59.59V59.205H289.442V58.655H290.377V58.38H290.982V57.83H288.287C288.287 57.61 288.342 57.4267 288.452 57.28H289.387C289.57 56.84 289.882 56.565 290.322 56.455H289.222C289.332 56.4183 289.478 56.4 289.662 56.4H299.287C299.47 56.4 299.598 56.4183 299.672 56.455H300.772C301.212 56.565 301.523 56.84 301.707 57.28H300.772C300.845 57.5 300.882 57.6833 300.882 57.83H303.577V58.38H302.972V58.655H302.037V59.205H301.817V60.03H301.872V60.855H301.817V62.23H301.872V62.78H302.642V63.055H302.312V64.155H301.817L301.872 64.98V66.355H301.707V66.905H301.542V67.73H301.872V68.555H302.532V69.38H301.377V70.205H301.762V71.03H301.872V71.58H300.057L300.112 72.405H300.332V73.505H301.542V74.055H302.532V75.155H301.817V76.255H301.597V76.805H297.802V77.08H301.817V78.18H301.927V79.28H301.157L301.212 80.38H298.682V80.655H303.137V81.755H301.157V82.305H302.202V83.405H301.212V83.68H302.257V83.955ZM283.722 73.505C283.978 73.7617 284.308 73.945 284.712 74.055H285.372C285.518 74.0917 285.665 74.1283 285.812 74.165C285.995 74.165 286.16 74.165 286.307 74.165C286.49 74.165 286.655 74.165 286.802 74.165C286.985 74.1283 287.15 74.0917 287.297 74.055H286.307C286.71 73.945 287.04 73.7617 287.297 73.505H286.087C286.38 73.2117 286.582 72.845 286.692 72.405H286.472L286.637 71.58H288.397C288.397 71.5067 288.415 71.4517 288.452 71.415V71.03H288.342V70.205H288.012V69.38H289.112V68.555H288.397V68.445C288.397 68.2983 288.378 68.17 288.342 68.06C288.342 67.95 288.323 67.84 288.287 67.73H288.012C287.975 67.4367 287.883 67.1617 287.737 66.905H287.847C287.737 66.685 287.608 66.5017 287.462 66.355H287.627C287.48 66.2083 287.37 66.1167 287.297 66.08C286.93 65.8233 286.398 65.695 285.702 65.695C285.005 65.695 284.473 65.8233 284.107 66.08H283.777C283.703 66.1167 283.593 66.2083 283.447 66.355H283.722C283.575 66.5017 283.447 66.685 283.337 66.905H283.282C283.245 67.015 283.208 67.1433 283.172 67.29C283.135 67.4 283.08 67.5467 283.007 67.73H282.787C282.75 67.8767 282.713 68.0233 282.677 68.17C282.677 68.28 282.677 68.4083 282.677 68.555H282.512V68.885C282.475 68.995 282.457 69.16 282.457 69.38H283.337V70.205H282.842C282.842 70.3517 282.842 70.4983 282.842 70.645C282.878 70.755 282.897 70.865 282.897 70.975V71.03H281.907L281.962 71.58H281.192L281.357 72.405H281.852C281.962 72.845 282.163 73.2117 282.457 73.505H283.722ZM289.167 81.755H289.662V81.37L289.167 81.755ZM306.548 51.78V50.68H306.493V49.855H306.988V49.58H307.318V48.48H307.043V47.655H307.098V46.555H307.318V45.73H307.208V45.235C307.208 44.9417 307.244 44.74 307.318 44.63H307.868L308.033 44.355H307.593C307.886 43.9517 308.289 43.75 308.803 43.75H318.098C318.611 43.75 319.014 43.9517 319.308 44.355H319.748L319.913 44.63H319.308C319.418 44.7767 319.473 44.9783 319.473 45.235V45.73H319.583V46.555H319.363V47.655H319.308V48.48H319.583V49.58H319.253V49.855H318.758V50.68H318.813V51.78H319.198V51.89C319.198 52.22 319.069 52.55 318.813 52.88H318.153C317.896 53.21 317.529 53.375 317.053 53.375H307.758C307.281 53.375 306.896 53.21 306.603 52.88H307.263C307.043 52.5867 306.933 52.2567 306.933 51.89V51.78H306.548ZM317.878 63.33H323.048V64.43H321.178V64.98H319.088V66.08H320.683V66.355H319.638V66.905H319.803V67.455H320.078V68.28H317.328V69.105H319.143V69.93H318.813V70.48H319.748V71.305H319.968V72.13H319.638V72.955H319.913V73.505H319.638V74.605H319.528V75.43H319.308V76.255H319.528V76.805H319.638V77.905H319.418V78.455H319.693V79.005H319.638V79.83H319.858V80.655H320.023V80.93H319.638V82.03H318.868V83.13H319.418V83.515C319.418 83.6983 319.399 83.845 319.363 83.955H318.978C318.868 84.3217 318.666 84.5967 318.373 84.78H319.473C319.289 84.9267 319.014 85 318.648 85H308.803C308.473 85 308.216 84.9267 308.033 84.78H306.933C306.603 84.5967 306.383 84.3217 306.273 83.955H306.658C306.621 83.845 306.603 83.6983 306.603 83.515V83.13H306.053V82.03H306.823V80.93H307.208V80.655H307.043V79.83H306.823V79.005H306.878V78.455H306.603V77.905H306.823V76.805H306.713V76.255H306.493V75.43H306.713V74.605H306.823V73.505H307.098V72.955H306.823V72.13H307.153V71.305H306.933V70.48H305.998V69.93H306.328V69.105H304.513V68.28H307.263V67.455H306.988V66.905H306.823V66.355H307.868V66.08H306.273V64.98H308.363V64.43H310.233V63.33H305.063V62.78H309.628V61.68H307.978V60.855H308.968V59.755H307.208V59.48H306.823V58.93H306.493V58.105H306.878V57.885C306.878 57.4817 306.969 57.1883 307.153 57.005H307.208C307.501 56.6017 307.904 56.4 308.418 56.4H318.263C318.776 56.4 319.179 56.6017 319.473 57.005H319.363C319.583 57.225 319.693 57.5183 319.693 57.885V58.105H319.308V58.93H319.638V59.48H320.023V59.755H321.783V60.855H320.793V61.68H322.443V62.78H317.878V63.33ZM359.515 80.93H367.71V82.03H363.035V82.855H362.265V83.405H358.855V83.68H360.56C360.487 84.1933 360.267 84.56 359.9 84.78H358.69C358.507 84.9267 358.232 85 357.865 85H347.36C347.03 85 346.774 84.9267 346.59 84.78H347.8C347.434 84.56 347.214 84.1933 347.14 83.68H345.38V83.405H348.79V82.855H349.56V82.03H354.235V80.93H346.04V79.83H348.075V79.555H346.26V79.005H346.315V78.455H345.435V77.355H346.15V76.255H343.895V75.155H344.445V74.055H346.975V72.955H346.37V72.405H346.15V72.13H345.93V71.305H346.26V71.03H346.535V70.48H346.48V69.93H346.315V69.38H344.005V68.83H344.61V68.72C344.61 68.5733 344.592 68.445 344.555 68.335C344.555 68.225 344.555 68.115 344.555 68.005H345.655C345.619 67.8217 345.582 67.675 345.545 67.565C345.509 67.4183 345.472 67.29 345.435 67.18H346.425C346.205 66.7033 345.894 66.3367 345.49 66.08H343.73C343.327 65.8233 342.795 65.695 342.135 65.695C341.475 65.695 340.962 65.8233 340.595 66.08H341.915C341.732 66.2267 341.549 66.3917 341.365 66.575C341.219 66.7217 341.109 66.9233 341.035 67.18H339.385C339.312 67.3267 339.239 67.6017 339.165 68.005H339.44C339.404 68.1517 339.385 68.39 339.385 68.72V68.83H339V69.38H340.815V69.93H340.925V70.48H340.76V71.03H340.375V71.305H339.99V72.13H340.595V72.405H340.98V72.955H340.76V74.055H342.19V75.155H340.65V76.255H340.925V77.355H340.32V78.455H340.98V79.005H340.925V79.28H341.09V79.555H344.115V79.83H345.38V80.93H341.97V82.03H342.08V82.855H339.99V83.405H342.355V83.68H342.96C342.887 84.1933 342.649 84.56 342.245 84.78H339.715C339.532 84.9267 339.275 85 338.945 85H328.495C328.165 85 327.909 84.9267 327.725 84.78H330.255C329.852 84.56 329.614 84.1933 329.54 83.68H328.935V83.405H326.57V82.855H328.66V82.03H328.55V80.93H331.96V79.83H330.695V79.555H327.67V79.28H327.505V79.005H327.56V78.455H326.9V77.355H327.505V76.255H327.23V75.155H328.77V74.055H327.34V72.955H327.56V72.405H327.175V72.13H326.57V71.305H326.955V71.03H327.34V70.48H327.505V69.93H327.395V69.38H325.58V68.83H325.965V68.005H325.69V67.18H327.34V66.08H325.965V65.255H327.175V64.705H327.505V63.88H327.285V63.055H327.34V61.68H327.615V61.13H327.56V60.305H328.275V60.03H327.835V59.205H328.495V58.93H326.295V58.38H327.89V57.555H330.86C330.934 57.335 331.007 57.1517 331.08 57.005H329.32C329.614 56.6017 330.017 56.4 330.53 56.4H340.155C340.669 56.4 341.072 56.6017 341.365 57.005H342.3C343.107 56.6383 343.969 56.3633 344.885 56.18C345.802 55.96 346.755 55.85 347.745 55.85C349.579 55.85 351.229 56.235 352.695 57.005H353.3C353.484 57.0783 353.649 57.17 353.795 57.28C353.942 57.3533 354.089 57.445 354.235 57.555H353.465C353.649 57.665 353.832 57.7933 354.015 57.94C354.199 58.05 354.364 58.1967 354.51 58.38H358.8C359.02 58.5267 359.204 58.71 359.35 58.93H356.325C356.362 58.9667 356.399 59.0033 356.435 59.04C356.472 59.0767 356.509 59.1317 356.545 59.205H357.315C357.425 59.3517 357.535 59.4983 357.645 59.645C357.755 59.755 357.847 59.8833 357.92 60.03H358.415L358.58 60.305H357.865L358.36 61.13H358.415C358.489 61.3133 358.58 61.4967 358.69 61.68H358.415C358.599 62.0833 358.745 62.45 358.855 62.78C358.855 62.8167 358.892 62.9083 358.965 63.055H358.91C358.984 63.2017 359.02 63.3483 359.02 63.495C359.057 63.605 359.094 63.7333 359.13 63.88H359.35C359.424 64.0267 359.46 64.1733 359.46 64.32C359.497 64.43 359.534 64.5583 359.57 64.705H359.185C359.259 64.925 359.295 65.1083 359.295 65.255H358.14C358.177 65.4017 358.195 65.5483 358.195 65.695C358.195 65.805 358.214 65.9333 358.25 66.08H360.01C360.047 66.2267 360.065 66.41 360.065 66.63C360.102 66.8133 360.12 66.9967 360.12 67.18H359.13V68.005H358.085V68.83H357.48V69.38H359.79V69.93H359.955V70.48H360.01V71.03H359.735V71.305H359.405V72.13H359.625V72.405H359.845V72.955H360.45V74.055H357.92V75.155H357.37V76.255H359.625V77.355H358.91V78.455H359.79V79.005H359.735V79.555H361.55V79.83H359.515V80.93ZM341.035 57.555H340.43C340.43 57.5917 340.43 57.6467 340.43 57.72C340.467 57.7567 340.485 57.8117 340.485 57.885V57.94C340.559 57.8667 340.65 57.7933 340.76 57.72C340.87 57.6467 340.962 57.5917 341.035 57.555ZM338.89 58.38V58.93H343.455L344.115 58.38H338.89ZM340.43 59.205V59.7C340.504 59.59 340.65 59.425 340.87 59.205H340.43ZM401.141 84.505H399.326V85.605H399.821V86.155H399.931V87.255H400.316V87.53H400.646V88.08H401.471V88.905C401.471 89.015 401.452 89.1067 401.416 89.18C401.342 89.73 401.049 90.0967 400.536 90.28H400.041C399.821 90.3533 399.637 90.39 399.491 90.39H366.216C366.069 90.39 365.886 90.3533 365.666 90.28H366.161C365.647 90.0967 365.336 89.73 365.226 89.18V88.08H364.401V87.53H364.071V87.255H363.686V86.155H363.576V85.605H363.081V84.505H364.896V84.23H365.336V83.68H363.026V83.405H363.961V82.58H363.741V81.48H363.796V81.095C363.796 80.9117 363.814 80.765 363.851 80.655H363.521C363.777 79.9583 364.254 79.61 364.951 79.61H398.226C398.996 79.61 399.472 79.9583 399.656 80.655H399.931C399.967 80.7283 399.986 80.8017 399.986 80.875C400.022 80.9483 400.041 81.0217 400.041 81.095V81.48H399.986V82.58H400.206V83.405H399.271V83.68H401.581V84.23H401.141V84.505Z" fill="#D379F1"/>
</g>
<path d="M208.925 49.93C208.962 49.82 208.98 49.7283 208.98 49.655C209.017 49.545 209.053 49.4533 209.09 49.38H203.04C203.113 49.27 203.187 49.1783 203.26 49.105C203.333 48.995 203.407 48.9033 203.48 48.83H209.86C210.153 48.61 210.465 48.5 210.795 48.5H221.795C222.198 48.5 222.51 48.61 222.73 48.83H216.35C216.423 48.9033 216.497 48.995 216.57 49.105C216.68 49.1783 216.753 49.27 216.79 49.38H222.785C222.858 49.6 222.895 49.7833 222.895 49.93H225.975C226.012 49.93 226.03 49.9483 226.03 49.985V50.48H218.605V51.58H221.685V52.405H221.355V53.505H219.375V54.605H223.83V54.88H224.16V55.98H224.38V57.08H223.995V58.18H223.72V59.555H224.655V60.655H223.61V61.755H223.83V62.03H227.735V63.13H229.77V63.68H221.3V64.23H224.105V65.33H221.795V66.43H223.775V66.98H224.16V67.805H231.53V68.355H236.645V69.455H222.675V68.355H217.56V67.805H210.19V66.98H209.805V66.43H207.825V65.33H210.135V64.23H207.33V63.68H215.8V63.13H213.765V62.03H209.86V61.755H209.64V60.655H210.685V59.555H209.75V58.18H210.025V57.08H210.41V55.98H210.19V54.88H209.86V54.605H205.405V53.505H207.385V52.405H207.715V51.58H204.635V50.48H212.06V49.93H208.925ZM245.5 79.63H230.485V79.905H231.585V80.73H239.395V81.005H236.975V82.105H240.825V82.93H241.375V83.205H240.99V83.48H240.825V84.58H240.935V85.405H240.715V85.68H240.44C240.403 85.7533 240.385 85.845 240.385 85.955H240.99C240.88 86.3217 240.678 86.5967 240.385 86.78H239.78C239.597 86.9267 239.34 87 239.01 87H211.29C210.96 87 210.703 86.9267 210.52 86.78H211.07C210.74 86.5967 210.52 86.3217 210.41 85.955H209.805C209.805 85.8817 209.787 85.8267 209.75 85.79C209.75 85.7533 209.75 85.7167 209.75 85.68H210.025V85.405H210.245V84.58H210.135V83.48H210.3V83.205H210.685V82.93H210.135V82.105H206.285V81.005H208.705V80.73H200.895V79.905H199.795V79.63H214.81V78.805H208.705V77.98H214.645V77.705H201.665V76.88H203.535V76.605H210.685V76.33H208.155V75.505H212.445V74.405H208.1V73.855H211.675V73.58H210.025V72.755H211.62V72.205H209.585V71.655H214.37V70.83H215.745V70.28H208.21V69.455H222.18V70.28H229.715V70.83H228.34V71.655H223.555V72.205H225.59V72.755H223.995V73.58H225.645V73.855H222.07V74.405H226.415V75.505H222.125V75.725H237.36C237.873 75.725 238.277 75.9267 238.57 76.33H241.1L241.265 76.605H234.115L234.225 76.88H232.3C232.337 76.9533 232.355 77.0633 232.355 77.21V77.705H245.335V77.98H239.395V78.805H245.5V79.63ZM279.599 71.105C279.635 71.2883 279.654 71.4717 279.654 71.655C279.654 71.8383 279.654 72.0217 279.654 72.205H275.749V72.755H273.494V73.305H275.639V73.58H273.164V74.405H271.789V74.68H274.869C274.869 74.79 274.85 74.8817 274.814 74.955H274.649V75.23H275.144V75.285C275.144 75.4317 275.125 75.5967 275.089 75.78C275.089 75.9633 275.07 76.1467 275.034 76.33H274.649L274.484 77.43H275.309C275.309 77.5767 275.272 77.76 275.199 77.98H275.034C274.997 78.1267 274.96 78.2733 274.924 78.42C274.887 78.53 274.85 78.6583 274.814 78.805H275.254C275.217 78.9883 275.162 79.1717 275.089 79.355C275.015 79.5383 274.942 79.7217 274.869 79.905H274.044L273.824 80.455H273.934C273.86 80.6017 273.824 80.6933 273.824 80.73H273.604C273.457 81.0967 273.255 81.4633 272.999 81.83H273.109C273.072 81.9033 273.017 81.995 272.944 82.105C272.87 82.215 272.797 82.3067 272.724 82.38H272.669L272.009 83.205C271.972 83.2417 271.935 83.2783 271.899 83.315C271.862 83.3517 271.807 83.4067 271.734 83.48H271.459C271.312 83.6267 271.165 83.7733 271.019 83.92C270.872 84.03 270.707 84.1583 270.524 84.305H268.874L267.719 85.13H267.939C267.865 85.1667 267.792 85.2033 267.719 85.24C267.645 85.2767 267.572 85.3317 267.499 85.405H267.114C267.04 85.4417 266.949 85.4783 266.839 85.515C266.729 85.5517 266.637 85.6067 266.564 85.68H269.534C269.35 85.79 269.149 85.9 268.929 86.01C268.709 86.0833 268.489 86.1567 268.269 86.23H267.334C267.077 86.34 266.802 86.45 266.509 86.56C266.215 86.6333 265.922 86.7067 265.629 86.78H265.849C265.409 86.89 264.95 86.9817 264.474 87.055C263.997 87.165 263.502 87.2567 262.989 87.33H264.694C264.107 87.4033 263.502 87.4583 262.879 87.495C262.255 87.5317 261.614 87.55 260.954 87.55C260.257 87.55 259.597 87.5317 258.974 87.495C258.387 87.4583 257.782 87.4033 257.159 87.33H255.399C254.922 87.2567 254.427 87.165 253.914 87.055C253.437 86.9817 252.979 86.89 252.539 86.78H252.374C252.08 86.7067 251.787 86.6333 251.494 86.56C251.237 86.45 250.962 86.34 250.669 86.23H251.549C251.365 86.1567 251.164 86.0833 250.944 86.01C250.724 85.9 250.522 85.79 250.339 85.68H247.369L246.874 85.405H247.259L246.764 85.13H246.544C246.104 84.8367 245.719 84.5617 245.389 84.305H247.039C246.892 84.1583 246.745 84.03 246.599 83.92C246.452 83.7733 246.305 83.6267 246.159 83.48H246.434C246.397 83.4067 246.36 83.3517 246.324 83.315C246.287 83.2783 246.232 83.2417 246.159 83.205L245.499 82.38H245.554L245.169 81.83H245.059C244.802 81.4633 244.6 81.0967 244.454 80.73H244.619C244.545 80.5833 244.509 80.4917 244.509 80.455H244.344L244.124 79.905H244.949C244.912 79.7217 244.857 79.5383 244.784 79.355C244.71 79.1717 244.637 78.9883 244.564 78.805H244.124C244.087 78.6583 244.05 78.53 244.014 78.42C243.977 78.2733 243.94 78.1267 243.904 77.98H243.574L243.409 77.43H242.859L242.694 76.33H243.244C243.207 76.1467 243.17 75.9633 243.134 75.78C243.134 75.5967 243.134 75.4317 243.134 75.285V75.23H242.144V74.955H241.869C241.869 74.8817 241.85 74.8267 241.814 74.79C241.814 74.7533 241.814 74.7167 241.814 74.68H244.894C244.894 74.57 244.875 74.4783 244.839 74.405H241.759V73.58H243.079V73.305H243.739V72.755H244.894V72.205H241.539C241.539 72.0217 241.539 71.8383 241.539 71.655C241.539 71.4717 241.557 71.2883 241.594 71.105H240.879V70.555H246.324C246.36 70.445 246.379 70.2983 246.379 70.115V69.73H244.894C244.894 69.5833 244.894 69.455 244.894 69.345C244.93 69.1983 244.949 69.0517 244.949 68.905H245.499L245.664 67.805H243.849C243.885 67.6583 243.922 67.53 243.959 67.42C243.995 67.2733 244.032 67.1267 244.069 66.98H243.684C243.757 66.7967 243.812 66.6133 243.849 66.43C243.922 66.21 243.995 66.0267 244.069 65.88H244.124C244.16 65.8067 244.197 65.715 244.234 65.605C244.27 65.495 244.307 65.4033 244.344 65.33H244.289C244.289 65.2933 244.325 65.2017 244.399 65.055H244.674C244.82 64.6883 245.022 64.3217 245.279 63.955H244.179L244.509 63.405H246.544C246.58 63.3317 246.654 63.24 246.764 63.13H242.749C242.822 62.9833 242.914 62.855 243.024 62.745C243.17 62.5983 243.299 62.4517 243.409 62.305H244.674C244.857 62.1217 245.04 61.9383 245.224 61.755C245.444 61.535 245.645 61.3517 245.829 61.205H248.359C248.689 60.9117 249.074 60.6367 249.514 60.38H250.559C250.705 60.27 250.852 60.1783 250.999 60.105C251.182 59.995 251.347 59.9033 251.494 59.83H248.249C248.579 59.6467 248.982 59.4633 249.459 59.28H250.944C251.787 58.95 252.667 58.675 253.584 58.455H251.934C253.73 58.0517 255.637 57.85 257.654 57.85C259.67 57.85 261.577 58.0517 263.374 58.455H265.079C265.995 58.675 266.857 58.95 267.664 59.28H266.124C266.6 59.4633 267.004 59.6467 267.334 59.83H270.579C270.762 59.9033 270.927 59.995 271.074 60.105C271.257 60.1783 271.422 60.27 271.569 60.38H270.524L271.679 61.205H269.149C269.369 61.3517 269.57 61.535 269.754 61.755C269.974 61.9383 270.175 62.1217 270.359 62.305H269.094C269.204 62.4517 269.314 62.5983 269.424 62.745C269.57 62.855 269.68 62.9833 269.754 63.13H273.824L273.989 63.405H272.009L272.339 63.955H273.439C273.695 64.3217 273.897 64.6883 274.044 65.055H273.769C273.842 65.2017 273.879 65.2933 273.879 65.33H273.989L274.209 65.88H274.154C274.227 66.0267 274.3 66.21 274.374 66.43C274.447 66.6133 274.502 66.7967 274.539 66.98H275.089L275.254 67.805H274.924C274.997 67.9517 275.034 68.135 275.034 68.355C275.07 68.5383 275.107 68.7217 275.144 68.905H275.584C275.62 69.0517 275.639 69.1983 275.639 69.345C275.639 69.455 275.657 69.5833 275.694 69.73H273.549V70.115C273.549 70.2983 273.567 70.445 273.604 70.555H272.504V71.105H279.599ZM258.479 68.905C258.442 69.0517 258.405 69.1983 258.369 69.345C258.369 69.455 258.369 69.5833 258.369 69.73H259.909C259.872 69.84 259.854 69.95 259.854 70.06C259.854 70.17 259.854 70.28 259.854 70.39V70.555H260.074V70.39C260.074 70.28 260.055 70.17 260.019 70.06C260.019 69.95 260.019 69.84 260.019 69.73H262.164C262.164 69.5833 262.145 69.455 262.109 69.345C262.109 69.1983 262.109 69.0517 262.109 68.905H261.669C261.632 68.685 261.577 68.4833 261.504 68.3C261.467 68.1167 261.412 67.9517 261.339 67.805H261.724C261.577 67.475 261.357 67.2 261.064 66.98H260.514C260.147 66.76 259.67 66.65 259.084 66.65C258.497 66.65 258.039 66.76 257.709 66.98H258.094C257.947 67.09 257.819 67.2183 257.709 67.365C257.599 67.475 257.507 67.6217 257.434 67.805H259.249C259.212 67.9517 259.157 68.1167 259.084 68.3C259.047 68.4833 259.01 68.685 258.974 68.905H258.479ZM262.219 72.205H266.124V71.105H259.029C258.992 70.9583 258.974 70.775 258.974 70.555H254.409C254.409 70.775 254.39 70.9583 254.354 71.105H255.069V72.205H258.424V72.755H257.214V73.305H256.554V73.58H255.234C255.234 73.7267 255.234 73.8733 255.234 74.02C255.27 74.13 255.289 74.2583 255.289 74.405H259.634V73.58H262.109V73.305H259.964V72.755H262.219V72.205ZM261.339 74.955V74.68H255.344V74.955H255.619V75.01C255.619 75.0467 255.619 75.0833 255.619 75.12C255.655 75.1567 255.674 75.1933 255.674 75.23H256.609C256.645 75.4133 256.664 75.5967 256.664 75.78C256.664 75.9633 256.682 76.1467 256.719 76.33H256.169C256.242 76.8067 256.315 77.1733 256.389 77.43H256.994C257.067 77.65 257.14 77.8333 257.214 77.98H257.599C257.929 78.4933 258.552 78.75 259.469 78.75C260.385 78.75 261.009 78.4933 261.339 77.98H261.559C261.595 77.9067 261.632 77.8333 261.669 77.76C261.705 77.65 261.742 77.54 261.779 77.43H260.954C260.99 77.2467 261.027 77.0817 261.064 76.935C261.1 76.7517 261.137 76.55 261.174 76.33H261.559C261.595 76.1467 261.614 75.9633 261.614 75.78C261.614 75.5967 261.632 75.4133 261.669 75.23H261.174V74.955H261.339ZM311.257 85.955H313.017V86.78H311.642V87.055H312.027C311.99 87.2017 311.972 87.33 311.972 87.44C311.972 87.5867 311.953 87.7333 311.917 87.88H311.862V88.155H309.277C309.24 88.2283 309.222 88.32 309.222 88.43C309.222 88.54 309.203 88.6317 309.167 88.705H312.357C312.32 88.8883 312.283 89.0717 312.247 89.255C312.21 89.4383 312.173 89.6217 312.137 89.805H311.257C311.22 89.9517 311.183 90.08 311.147 90.19C311.11 90.3367 311.055 90.4833 310.982 90.63H309.167L308.947 91.18H309.882L309.662 91.73H309.772C309.698 91.9133 309.607 92.0967 309.497 92.28H309.552L309.057 93.105C309.02 93.1417 308.983 93.1783 308.947 93.215C308.947 93.2517 308.928 93.3067 308.892 93.38C308.818 93.5267 308.727 93.655 308.617 93.765C308.507 93.9117 308.397 94.0583 308.287 94.205H308.177L307.902 94.48H308.947L308.452 95.03H307.187C307.077 95.1033 306.967 95.195 306.857 95.305C306.747 95.415 306.655 95.5067 306.582 95.58H308.067C307.92 95.7267 307.737 95.855 307.517 95.965C307.333 96.1117 307.15 96.2583 306.967 96.405H308.947C308.727 96.5517 308.488 96.68 308.232 96.79C308.012 96.9367 307.773 97.0833 307.517 97.23H306.967C306.783 97.34 306.582 97.4317 306.362 97.505C306.142 97.615 305.94 97.7067 305.757 97.78H302.622C301.925 98.0367 301.21 98.2567 300.477 98.44C299.743 98.6233 298.992 98.77 298.222 98.88H301.467C300.917 98.9533 300.348 99.0083 299.762 99.045C299.175 99.0817 298.588 99.1 298.002 99.1C297.378 99.1 296.755 99.0817 296.132 99.045C295.545 99.0083 294.977 98.9533 294.427 98.88H291.182C289.532 98.66 288.01 98.2933 286.617 97.78H289.752C289.532 97.7067 289.312 97.615 289.092 97.505C288.872 97.4317 288.652 97.34 288.432 97.23H288.982C288.725 97.0833 288.468 96.9367 288.212 96.79C287.955 96.68 287.698 96.5517 287.442 96.405H285.517C285.297 96.2583 285.077 96.1117 284.857 95.965C284.673 95.855 284.49 95.7267 284.307 95.58H282.822C282.528 95.36 282.308 95.1767 282.162 95.03H283.427C283.317 94.9567 283.207 94.865 283.097 94.755C282.987 94.645 282.895 94.5533 282.822 94.48H281.777C281.74 94.4067 281.703 94.3517 281.667 94.315C281.63 94.2783 281.575 94.2417 281.502 94.205H281.667C281.52 94.0583 281.392 93.9117 281.282 93.765C281.172 93.655 281.062 93.5267 280.952 93.38H280.897C280.86 93.3067 280.787 93.215 280.677 93.105H280.732C280.622 92.9583 280.512 92.8117 280.402 92.665C280.292 92.555 280.2 92.4267 280.127 92.28L279.797 91.73H279.687C279.65 91.6567 279.613 91.565 279.577 91.455C279.54 91.345 279.485 91.2533 279.412 91.18H278.477L278.257 90.63H280.127C280.09 90.4833 280.035 90.3367 279.962 90.19C279.925 90.08 279.888 89.9517 279.852 89.805H279.522C279.522 89.695 279.503 89.585 279.467 89.475C279.467 89.4017 279.467 89.3283 279.467 89.255C279.467 88.9983 279.485 88.815 279.522 88.705H279.357C279.467 88.485 279.595 88.3017 279.742 88.155H279.412C279.632 88.0083 279.797 87.9167 279.907 87.88H280.622C280.842 87.8067 281.043 87.77 281.227 87.77H291.952C292.135 87.77 292.337 87.8067 292.557 87.88H291.787C291.97 87.9167 292.117 88.0083 292.227 88.155H292.557C292.703 88.3017 292.832 88.485 292.942 88.705H293.107L293.217 88.87C293.473 89.31 293.712 89.6217 293.932 89.805H294.207C294.61 90.0983 295.16 90.245 295.857 90.245C296.407 90.245 296.883 90.0983 297.287 89.805H298.167C298.497 89.5483 298.735 89.1817 298.882 88.705H295.692C295.765 88.485 295.802 88.3017 295.802 88.155H298.387C298.423 88.0817 298.442 87.99 298.442 87.88H298.497C298.533 87.7333 298.552 87.5867 298.552 87.44C298.552 87.33 298.552 87.2017 298.552 87.055H298.222V86.78H299.542V85.955H297.782V85.68H296.737V85.405H297.727V84.305H296.682V83.975L296.132 84.305H296.077C295.197 84.8183 294.243 85.185 293.217 85.405H293.437C293.143 85.4417 292.85 85.4967 292.557 85.57C292.263 85.6067 291.952 85.6433 291.622 85.68H290.247C290.027 85.7167 289.807 85.735 289.587 85.735C289.367 85.735 289.147 85.735 288.927 85.735C288.67 85.735 288.413 85.735 288.157 85.735C287.9 85.735 287.662 85.7167 287.442 85.68H288.762C288.432 85.6433 288.102 85.6067 287.772 85.57C287.442 85.4967 287.112 85.4417 286.782 85.405H286.617C286.067 85.295 285.535 85.1483 285.022 84.965C284.545 84.7817 284.068 84.5617 283.592 84.305H283.647C283.5 84.2317 283.353 84.1583 283.207 84.085C283.06 83.975 282.913 83.865 282.767 83.755H284.032C283.812 83.5717 283.592 83.3883 283.372 83.205C283.188 83.0217 283.005 82.8383 282.822 82.655H278.367L278.092 82.38H280.622C280.328 82.0133 280.072 81.6467 279.852 81.28H280.567C280.31 80.9133 280.108 80.5467 279.962 80.18H279.852C279.668 79.7767 279.522 79.41 279.412 79.08H275.397C275.397 79.0067 275.397 78.9517 275.397 78.915C275.36 78.8783 275.342 78.8417 275.342 78.805H279.082L278.917 78.255H279.192C279.155 78.0717 279.1 77.8883 279.027 77.705C278.99 77.5217 278.953 77.3383 278.917 77.155H279.577L279.412 76.055H278.697L278.642 75.505H277.322C277.285 75.3217 277.267 75.1383 277.267 74.955C277.267 74.7717 277.248 74.5883 277.212 74.405H276.717C276.717 74.2583 276.717 74.13 276.717 74.02C276.68 73.8733 276.662 73.7267 276.662 73.58H277.432V73.03H278.422C278.422 72.8833 278.403 72.755 278.367 72.645C278.367 72.4983 278.367 72.3517 278.367 72.205H278.862V71.38H277.982C277.982 71.2333 277.982 71.105 277.982 70.995C277.982 70.8483 278 70.7017 278.037 70.555H278.147V70.5C278.147 70.3533 278.147 70.225 278.147 70.115C278.183 70.005 278.202 69.8767 278.202 69.73H278.422C278.458 69.5833 278.477 69.455 278.477 69.345C278.477 69.1983 278.495 69.0517 278.532 68.905C278.568 68.8317 278.587 68.74 278.587 68.63C278.587 68.52 278.605 68.4283 278.642 68.355H278.367V68.08H278.697C278.733 67.8967 278.77 67.7133 278.807 67.53C278.843 67.31 278.88 67.1267 278.917 66.98H278.862C278.898 66.8333 278.935 66.705 278.972 66.595C279.008 66.4483 279.045 66.3017 279.082 66.155H279.522C279.595 65.9717 279.65 65.7883 279.687 65.605C279.76 65.385 279.833 65.2017 279.907 65.055H280.182L280.292 64.78H279.522C279.558 64.7067 279.595 64.615 279.632 64.505C279.668 64.395 279.705 64.3033 279.742 64.23L280.072 63.405C280.108 63.3317 280.127 63.2767 280.127 63.24C280.163 63.2033 280.2 63.1667 280.237 63.13L280.402 62.855C280.475 62.7817 280.53 62.69 280.567 62.58C280.64 62.47 280.713 62.3783 280.787 62.305C280.823 62.2317 280.86 62.1767 280.897 62.14C280.933 62.1033 280.97 62.0667 281.007 62.03H280.897L281.557 61.205C281.667 61.1317 281.758 61.04 281.832 60.93C281.942 60.82 282.033 60.7283 282.107 60.655H282.217C282.253 60.5817 282.29 60.5267 282.327 60.49C282.4 60.4533 282.455 60.4167 282.492 60.38H283.097C283.317 60.16 283.555 59.9767 283.812 59.83H282.437C282.583 59.72 282.73 59.6283 282.877 59.555C283.023 59.445 283.17 59.3533 283.317 59.28H283.702C284.215 58.9867 284.838 58.7117 285.572 58.455H287.387C288.707 58.0517 290.118 57.85 291.622 57.85C292.942 57.85 294.17 58.0517 295.307 58.455H293.492C294.078 58.6383 294.665 58.9133 295.252 59.28H294.922C295.068 59.3533 295.197 59.445 295.307 59.555C295.453 59.6283 295.6 59.72 295.747 59.83H297.067C297.213 59.9033 297.342 59.995 297.452 60.105C297.562 60.215 297.672 60.3067 297.782 60.38H297.177L297.452 60.655H297.397L297.892 61.205C297.965 61.2417 298.02 61.2967 298.057 61.37C298.13 61.4433 298.185 61.5167 298.222 61.59V61.205H298.442V60.655H299.377V60.38H299.982V59.83H297.287C297.287 59.61 297.342 59.4267 297.452 59.28H298.387C298.57 58.84 298.882 58.565 299.322 58.455H298.222C298.332 58.4183 298.478 58.4 298.662 58.4H308.287C308.47 58.4 308.598 58.4183 308.672 58.455H309.772C310.212 58.565 310.523 58.84 310.707 59.28H309.772C309.845 59.5 309.882 59.6833 309.882 59.83H312.577V60.38H311.972V60.655H311.037V61.205H310.817V62.03H310.872V62.855H310.817V64.23H310.872V64.78H311.642V65.055H311.312V66.155H310.817L310.872 66.98V68.355H310.707V68.905H310.542V69.73H310.872V70.555H311.532V71.38H310.377V72.205H310.762V73.03H310.872V73.58H309.057L309.112 74.405H309.332V75.505H310.542V76.055H311.532V77.155H310.817V78.255H310.597V78.805H306.802V79.08H310.817V80.18H310.927V81.28H310.157L310.212 82.38H307.682V82.655H312.137V83.755H310.157V84.305H311.202V85.405H310.212V85.68H311.257V85.955ZM292.722 75.505C292.978 75.7617 293.308 75.945 293.712 76.055H294.372C294.518 76.0917 294.665 76.1283 294.812 76.165C294.995 76.165 295.16 76.165 295.307 76.165C295.49 76.165 295.655 76.165 295.802 76.165C295.985 76.1283 296.15 76.0917 296.297 76.055H295.307C295.71 75.945 296.04 75.7617 296.297 75.505H295.087C295.38 75.2117 295.582 74.845 295.692 74.405H295.472L295.637 73.58H297.397C297.397 73.5067 297.415 73.4517 297.452 73.415V73.03H297.342V72.205H297.012V71.38H298.112V70.555H297.397V70.445C297.397 70.2983 297.378 70.17 297.342 70.06C297.342 69.95 297.323 69.84 297.287 69.73H297.012C296.975 69.4367 296.883 69.1617 296.737 68.905H296.847C296.737 68.685 296.608 68.5017 296.462 68.355H296.627C296.48 68.2083 296.37 68.1167 296.297 68.08C295.93 67.8233 295.398 67.695 294.702 67.695C294.005 67.695 293.473 67.8233 293.107 68.08H292.777C292.703 68.1167 292.593 68.2083 292.447 68.355H292.722C292.575 68.5017 292.447 68.685 292.337 68.905H292.282C292.245 69.015 292.208 69.1433 292.172 69.29C292.135 69.4 292.08 69.5467 292.007 69.73H291.787C291.75 69.8767 291.713 70.0233 291.677 70.17C291.677 70.28 291.677 70.4083 291.677 70.555H291.512V70.885C291.475 70.995 291.457 71.16 291.457 71.38H292.337V72.205H291.842C291.842 72.3517 291.842 72.4983 291.842 72.645C291.878 72.755 291.897 72.865 291.897 72.975V73.03H290.907L290.962 73.58H290.192L290.357 74.405H290.852C290.962 74.845 291.163 75.2117 291.457 75.505H292.722ZM298.167 83.755H298.662V83.37L298.167 83.755ZM315.548 53.78V52.68H315.493V51.855H315.988V51.58H316.318V50.48H316.043V49.655H316.098V48.555H316.318V47.73H316.208V47.235C316.208 46.9417 316.244 46.74 316.318 46.63H316.868L317.033 46.355H316.593C316.886 45.9517 317.289 45.75 317.803 45.75H327.098C327.611 45.75 328.014 45.9517 328.308 46.355H328.748L328.913 46.63H328.308C328.418 46.7767 328.473 46.9783 328.473 47.235V47.73H328.583V48.555H328.363V49.655H328.308V50.48H328.583V51.58H328.253V51.855H327.758V52.68H327.813V53.78H328.198V53.89C328.198 54.22 328.069 54.55 327.813 54.88H327.153C326.896 55.21 326.529 55.375 326.053 55.375H316.758C316.281 55.375 315.896 55.21 315.603 54.88H316.263C316.043 54.5867 315.933 54.2567 315.933 53.89V53.78H315.548ZM326.878 65.33H332.048V66.43H330.178V66.98H328.088V68.08H329.683V68.355H328.638V68.905H328.803V69.455H329.078V70.28H326.328V71.105H328.143V71.93H327.813V72.48H328.748V73.305H328.968V74.13H328.638V74.955H328.913V75.505H328.638V76.605H328.528V77.43H328.308V78.255H328.528V78.805H328.638V79.905H328.418V80.455H328.693V81.005H328.638V81.83H328.858V82.655H329.023V82.93H328.638V84.03H327.868V85.13H328.418V85.515C328.418 85.6983 328.399 85.845 328.363 85.955H327.978C327.868 86.3217 327.666 86.5967 327.373 86.78H328.473C328.289 86.9267 328.014 87 327.648 87H317.803C317.473 87 317.216 86.9267 317.033 86.78H315.933C315.603 86.5967 315.383 86.3217 315.273 85.955H315.658C315.621 85.845 315.603 85.6983 315.603 85.515V85.13H315.053V84.03H315.823V82.93H316.208V82.655H316.043V81.83H315.823V81.005H315.878V80.455H315.603V79.905H315.823V78.805H315.713V78.255H315.493V77.43H315.713V76.605H315.823V75.505H316.098V74.955H315.823V74.13H316.153V73.305H315.933V72.48H314.998V71.93H315.328V71.105H313.513V70.28H316.263V69.455H315.988V68.905H315.823V68.355H316.868V68.08H315.273V66.98H317.363V66.43H319.233V65.33H314.063V64.78H318.628V63.68H316.978V62.855H317.968V61.755H316.208V61.48H315.823V60.93H315.493V60.105H315.878V59.885C315.878 59.4817 315.969 59.1883 316.153 59.005H316.208C316.501 58.6017 316.904 58.4 317.418 58.4H327.263C327.776 58.4 328.179 58.6017 328.473 59.005H328.363C328.583 59.225 328.693 59.5183 328.693 59.885V60.105H328.308V60.93H328.638V61.48H329.023V61.755H330.783V62.855H329.793V63.68H331.443V64.78H326.878V65.33ZM368.515 82.93H376.71V84.03H372.035V84.855H371.265V85.405H367.855V85.68H369.56C369.487 86.1933 369.267 86.56 368.9 86.78H367.69C367.507 86.9267 367.232 87 366.865 87H356.36C356.03 87 355.774 86.9267 355.59 86.78H356.8C356.434 86.56 356.214 86.1933 356.14 85.68H354.38V85.405H357.79V84.855H358.56V84.03H363.235V82.93H355.04V81.83H357.075V81.555H355.26V81.005H355.315V80.455H354.435V79.355H355.15V78.255H352.895V77.155H353.445V76.055H355.975V74.955H355.37V74.405H355.15V74.13H354.93V73.305H355.26V73.03H355.535V72.48H355.48V71.93H355.315V71.38H353.005V70.83H353.61V70.72C353.61 70.5733 353.592 70.445 353.555 70.335C353.555 70.225 353.555 70.115 353.555 70.005H354.655C354.619 69.8217 354.582 69.675 354.545 69.565C354.509 69.4183 354.472 69.29 354.435 69.18H355.425C355.205 68.7033 354.894 68.3367 354.49 68.08H352.73C352.327 67.8233 351.795 67.695 351.135 67.695C350.475 67.695 349.962 67.8233 349.595 68.08H350.915C350.732 68.2267 350.549 68.3917 350.365 68.575C350.219 68.7217 350.109 68.9233 350.035 69.18H348.385C348.312 69.3267 348.239 69.6017 348.165 70.005H348.44C348.404 70.1517 348.385 70.39 348.385 70.72V70.83H348V71.38H349.815V71.93H349.925V72.48H349.76V73.03H349.375V73.305H348.99V74.13H349.595V74.405H349.98V74.955H349.76V76.055H351.19V77.155H349.65V78.255H349.925V79.355H349.32V80.455H349.98V81.005H349.925V81.28H350.09V81.555H353.115V81.83H354.38V82.93H350.97V84.03H351.08V84.855H348.99V85.405H351.355V85.68H351.96C351.887 86.1933 351.649 86.56 351.245 86.78H348.715C348.532 86.9267 348.275 87 347.945 87H337.495C337.165 87 336.909 86.9267 336.725 86.78H339.255C338.852 86.56 338.614 86.1933 338.54 85.68H337.935V85.405H335.57V84.855H337.66V84.03H337.55V82.93H340.96V81.83H339.695V81.555H336.67V81.28H336.505V81.005H336.56V80.455H335.9V79.355H336.505V78.255H336.23V77.155H337.77V76.055H336.34V74.955H336.56V74.405H336.175V74.13H335.57V73.305H335.955V73.03H336.34V72.48H336.505V71.93H336.395V71.38H334.58V70.83H334.965V70.005H334.69V69.18H336.34V68.08H334.965V67.255H336.175V66.705H336.505V65.88H336.285V65.055H336.34V63.68H336.615V63.13H336.56V62.305H337.275V62.03H336.835V61.205H337.495V60.93H335.295V60.38H336.89V59.555H339.86C339.934 59.335 340.007 59.1517 340.08 59.005H338.32C338.614 58.6017 339.017 58.4 339.53 58.4H349.155C349.669 58.4 350.072 58.6017 350.365 59.005H351.3C352.107 58.6383 352.969 58.3633 353.885 58.18C354.802 57.96 355.755 57.85 356.745 57.85C358.579 57.85 360.229 58.235 361.695 59.005H362.3C362.484 59.0783 362.649 59.17 362.795 59.28C362.942 59.3533 363.089 59.445 363.235 59.555H362.465C362.649 59.665 362.832 59.7933 363.015 59.94C363.199 60.05 363.364 60.1967 363.51 60.38H367.8C368.02 60.5267 368.204 60.71 368.35 60.93H365.325C365.362 60.9667 365.399 61.0033 365.435 61.04C365.472 61.0767 365.509 61.1317 365.545 61.205H366.315C366.425 61.3517 366.535 61.4983 366.645 61.645C366.755 61.755 366.847 61.8833 366.92 62.03H367.415L367.58 62.305H366.865L367.36 63.13H367.415C367.489 63.3133 367.58 63.4967 367.69 63.68H367.415C367.599 64.0833 367.745 64.45 367.855 64.78C367.855 64.8167 367.892 64.9083 367.965 65.055H367.91C367.984 65.2017 368.02 65.3483 368.02 65.495C368.057 65.605 368.094 65.7333 368.13 65.88H368.35C368.424 66.0267 368.46 66.1733 368.46 66.32C368.497 66.43 368.534 66.5583 368.57 66.705H368.185C368.259 66.925 368.295 67.1083 368.295 67.255H367.14C367.177 67.4017 367.195 67.5483 367.195 67.695C367.195 67.805 367.214 67.9333 367.25 68.08H369.01C369.047 68.2267 369.065 68.41 369.065 68.63C369.102 68.8133 369.12 68.9967 369.12 69.18H368.13V70.005H367.085V70.83H366.48V71.38H368.79V71.93H368.955V72.48H369.01V73.03H368.735V73.305H368.405V74.13H368.625V74.405H368.845V74.955H369.45V76.055H366.92V77.155H366.37V78.255H368.625V79.355H367.91V80.455H368.79V81.005H368.735V81.555H370.55V81.83H368.515V82.93ZM350.035 59.555H349.43C349.43 59.5917 349.43 59.6467 349.43 59.72C349.467 59.7567 349.485 59.8117 349.485 59.885V59.94C349.559 59.8667 349.65 59.7933 349.76 59.72C349.87 59.6467 349.962 59.5917 350.035 59.555ZM347.89 60.38V60.93H352.455L353.115 60.38H347.89ZM349.43 61.205V61.7C349.504 61.59 349.65 61.425 349.87 61.205H349.43ZM410.141 86.505H408.326V87.605H408.821V88.155H408.931V89.255H409.316V89.53H409.646V90.08H410.471V90.905C410.471 91.015 410.452 91.1067 410.416 91.18C410.342 91.73 410.049 92.0967 409.536 92.28H409.041C408.821 92.3533 408.637 92.39 408.491 92.39H375.216C375.069 92.39 374.886 92.3533 374.666 92.28H375.161C374.647 92.0967 374.336 91.73 374.226 91.18V90.08H373.401V89.53H373.071V89.255H372.686V88.155H372.576V87.605H372.081V86.505H373.896V86.23H374.336V85.68H372.026V85.405H372.961V84.58H372.741V83.48H372.796V83.095C372.796 82.9117 372.814 82.765 372.851 82.655H372.521C372.777 81.9583 373.254 81.61 373.951 81.61H407.226C407.996 81.61 408.472 81.9583 408.656 82.655H408.931C408.967 82.7283 408.986 82.8017 408.986 82.875C409.022 82.9483 409.041 83.0217 409.041 83.095V83.48H408.986V84.58H409.206V85.405H408.271V85.68H410.581V86.23H410.141V86.505Z" fill="#75E7F0"/>
<defs>
<filter id="filter0_g_133_2445" x="185.595" y="38.55" width="221.186" height="63.7501" filterUnits="userSpaceOnUse" color-interpolation-filters="sRGB">
<feFlood flood-opacity="0" result="BackgroundImageFix"/>
<feBlend mode="normal" in="SourceGraphic" in2="BackgroundImageFix" result="shape"/>
<feTurbulence type="fractalNoise" baseFrequency="5 5" numOctaves="3" seed="901" />
<feDisplacementMap in="shape" scale="10.399999618530273" xChannelSelector="R" yChannelSelector="G" result="displacedImage" width="100%" height="100%" />
<feMerge result="effect1_texture_133_2445">
<feMergeNode in="displacedImage"/>
</feMerge>
</filter>
</defs>
</svg>
