<svg width="345" height="366" viewBox="0 0 345 366" fill="none" xmlns="http://www.w3.org/2000/svg">
<path d="M177.8 348.384L222.266 348.384L232.271 356.99H301.043L325.03 331.412V267.392L345 236.021L345 131.952L325.03 100.581V34.973L292.796 -0.000488281L182.591 -0.000488281L170.128 14.0969L143.715 14.0969L132.95 7.04818L107.515 7.04818L97.2062 -0.000488281L22.1834 0.435512L0.0591431 35.191L-0.000335693 122.204L-0.000335693 339.789L16.6721 358.547H166.665L177.8 348.384Z" fill="url(#paint0_linear_179_2398)"/>
<path d="M174.113 333.03H215.394L224.679 340.847H288.521L310.797 317.594V259.388L329.339 230.871L329.339 136.249L310.797 107.722V48.0732L280.868 16.2764L178.554 16.2764L166.989 29.0968L142.466 29.0968L132.468 22.6918L108.857 22.6918L99.2885 16.2764L29.6381 16.6812L9.09982 48.2705L9.03372 127.384L9.03372 325.214L24.5167 342.269H163.771L174.113 333.03Z" fill="url(#paint1_linear_179_2398)"/>
<path d="M222.266 355.837L232.271 364.443L166.665 366L177.8 355.837H222.266Z" fill="url(#paint2_linear_179_2398)"/>
<path d="M19.5139 71.7213L29.9351 55.3506L29.9351 71.7213L19.3091 88.4139L19.5139 71.7213Z" fill="url(#paint3_linear_179_2398)"/>
<path d="M19.5139 96.1888L29.9351 79.8076L29.9351 96.1888L19.3091 112.881L19.5139 96.1888Z" fill="url(#paint4_linear_179_2398)"/>
<path d="M19.5139 119.847L29.9351 103.466L29.9351 119.847L19.3091 136.54L19.5139 119.847Z" fill="url(#paint5_linear_179_2398)"/>
<path d="M19.5139 144.305L29.9351 127.934L29.9351 144.305L19.3091 160.997L19.5139 144.305Z" fill="url(#paint6_linear_179_2398)"/>
<path d="M19.5139 168.181L29.9351 151.8L29.9351 168.181L19.3091 184.874L19.5139 168.181Z" fill="url(#paint7_linear_179_2398)"/>
<path d="M19.5139 192.639L29.9351 176.258L29.9351 192.639L19.3091 209.332L19.5139 192.639Z" fill="url(#paint8_linear_179_2398)"/>
<path d="M19.5139 216.297L29.9351 199.916L29.9351 216.297L19.3091 232.99L19.5139 216.297Z" fill="url(#paint9_linear_179_2398)"/>
<path d="M19.5139 240.765L29.9351 224.384L29.9351 240.765L19.3091 257.458L19.5139 240.765Z" fill="url(#paint10_linear_179_2398)"/>
<path d="M69.1871 329.241H33.0535L17.5771 312.185L17.5771 270.018L11.6297 263.198L11.6297 321.528L27.1061 338.584H77.3284L69.1871 329.241Z" fill="url(#paint11_linear_179_2398)"/>
<defs>
<linearGradient id="paint0_linear_179_2398" x1="-0.000335693" y1="179.279" x2="345" y2="179.279" gradientUnits="userSpaceOnUse">
<stop stop-color="#98E8F0"/>
<stop offset="1" stop-color="#FCF5C5"/>
</linearGradient>
<linearGradient id="paint1_linear_179_2398" x1="9.03372" y1="179.278" x2="329.339" y2="179.278" gradientUnits="userSpaceOnUse">
<stop stop-color="#272930"/>
<stop offset="0.64" stop-color="#502E5E"/>
<stop offset="1" stop-color="#5D190F"/>
</linearGradient>
<linearGradient id="paint2_linear_179_2398" x1="166.665" y1="360.913" x2="232.271" y2="360.913" gradientUnits="userSpaceOnUse">
<stop stop-color="#98E8F0"/>
<stop offset="1" stop-color="#FCF5C5"/>
</linearGradient>
<linearGradient id="paint3_linear_179_2398" x1="19.3091" y1="71.8874" x2="29.9351" y2="71.8874" gradientUnits="userSpaceOnUse">
<stop stop-color="#98E8F0"/>
<stop offset="1" stop-color="#FCF5C5"/>
</linearGradient>
<linearGradient id="paint4_linear_179_2398" x1="19.3091" y1="96.3445" x2="29.9351" y2="96.3445" gradientUnits="userSpaceOnUse">
<stop stop-color="#98E8F0"/>
<stop offset="1" stop-color="#FCF5C5"/>
</linearGradient>
<linearGradient id="paint5_linear_179_2398" x1="19.3091" y1="120.003" x2="29.9351" y2="120.003" gradientUnits="userSpaceOnUse">
<stop stop-color="#98E8F0"/>
<stop offset="1" stop-color="#FCF5C5"/>
</linearGradient>
<linearGradient id="paint6_linear_179_2398" x1="19.3091" y1="144.471" x2="29.9351" y2="144.471" gradientUnits="userSpaceOnUse">
<stop stop-color="#98E8F0"/>
<stop offset="1" stop-color="#FCF5C5"/>
</linearGradient>
<linearGradient id="paint7_linear_179_2398" x1="19.3091" y1="168.337" x2="29.9351" y2="168.337" gradientUnits="userSpaceOnUse">
<stop stop-color="#98E8F0"/>
<stop offset="1" stop-color="#FCF5C5"/>
</linearGradient>
<linearGradient id="paint8_linear_179_2398" x1="19.3091" y1="192.795" x2="29.9351" y2="192.795" gradientUnits="userSpaceOnUse">
<stop stop-color="#98E8F0"/>
<stop offset="1" stop-color="#FCF5C5"/>
</linearGradient>
<linearGradient id="paint9_linear_179_2398" x1="19.3091" y1="216.453" x2="29.9351" y2="216.453" gradientUnits="userSpaceOnUse">
<stop stop-color="#98E8F0"/>
<stop offset="1" stop-color="#FCF5C5"/>
</linearGradient>
<linearGradient id="paint10_linear_179_2398" x1="19.3091" y1="240.921" x2="29.9351" y2="240.921" gradientUnits="userSpaceOnUse">
<stop stop-color="#98E8F0"/>
<stop offset="1" stop-color="#FCF5C5"/>
</linearGradient>
<linearGradient id="paint11_linear_179_2398" x1="11.6297" y1="300.891" x2="77.3284" y2="300.891" gradientUnits="userSpaceOnUse">
<stop stop-color="#98E8F0"/>
<stop offset="1" stop-color="#FCF5C5"/>
</linearGradient>
</defs>
</svg>
