<svg width="221" height="81" viewBox="0 0 221 81" fill="none" xmlns="http://www.w3.org/2000/svg">
<g filter="url(#filter0_g_346_3)">
<path d="M16.275 17.19C16.3183 17.06 16.34 16.9517 16.34 16.865C16.3833 16.735 16.4267 16.6267 16.47 16.54H9.32C9.40667 16.41 9.49333 16.3017 9.58 16.215C9.66667 16.085 9.75333 15.9767 9.84 15.89H17.38C17.7267 15.63 18.095 15.5 18.485 15.5H31.485C31.9617 15.5 32.33 15.63 32.59 15.89H25.05C25.1367 15.9767 25.2233 16.085 25.31 16.215C25.44 16.3017 25.5267 16.41 25.57 16.54H32.655C32.7417 16.8 32.785 17.0167 32.785 17.19H36.425C36.4683 17.19 36.49 17.2117 36.49 17.255V17.84H27.715V19.14H31.355V20.115H30.965V21.415H28.625V22.715H33.89V23.04H34.28V24.34H34.54V25.64H34.085V26.94H33.76V28.565H34.865V29.865H33.63V31.165H33.89V31.49H38.505V32.79H40.91V33.44H30.9V34.09H34.215V35.39H31.485V36.69H33.825V37.34H34.28V38.315H42.99V38.965H49.035V40.265H32.525V38.965H26.48V38.315H17.77V37.34H17.315V36.69H14.975V35.39H17.705V34.09H14.39V33.44H24.4V32.79H21.995V31.49H17.38V31.165H17.12V29.865H18.355V28.565H17.25V26.94H17.575V25.64H18.03V24.34H17.77V23.04H17.38V22.715H12.115V21.415H14.455V20.115H14.845V19.14H11.205V17.84H19.98V17.19H16.275ZM59.5 52.29H41.755V52.615H43.055V53.59H52.285V53.915H49.425V55.215H53.975V56.19H54.625V56.515H54.17V56.84H53.975V58.14H54.105V59.115H53.845V59.44H53.52C53.4767 59.5267 53.455 59.635 53.455 59.765H54.17C54.04 60.1983 53.8017 60.5233 53.455 60.74H52.74C52.5233 60.9133 52.22 61 51.83 61H19.07C18.68 61 18.3767 60.9133 18.16 60.74H18.81C18.42 60.5233 18.16 60.1983 18.03 59.765H17.315C17.315 59.6783 17.2933 59.6133 17.25 59.57C17.25 59.5267 17.25 59.4833 17.25 59.44H17.575V59.115H17.835V58.14H17.705V56.84H17.9V56.515H18.355V56.19H17.705V55.215H13.155V53.915H16.015V53.59H6.785V52.615H5.485V52.29H23.23V51.315H16.015V50.34H23.035V50.015H7.695V49.04H9.905V48.715H18.355V48.39H15.365V47.415H20.435V46.115H15.3V45.465H19.525V45.14H17.575V44.165H19.46V43.515H17.055V42.865H22.71V41.89H24.335V41.24H15.43V40.265H31.94V41.24H40.845V41.89H39.22V42.865H33.565V43.515H35.97V44.165H34.085V45.14H36.035V45.465H31.81V46.115H36.945V47.415H31.875V47.675H49.88C50.4867 47.675 50.9633 47.9133 51.31 48.39H54.3L54.495 48.715H46.045L46.175 49.04H43.9C43.9433 49.1267 43.965 49.2567 43.965 49.43V50.015H59.305V50.34H52.285V51.315H59.5V52.29ZM99.7985 42.215C99.8418 42.4317 99.8635 42.6483 99.8635 42.865C99.8635 43.0817 99.8635 43.2983 99.8635 43.515H95.2485V44.165H92.5835V44.815H95.1185V45.14H92.1935V46.115H90.5685V46.44H94.2085C94.2085 46.57 94.1868 46.6783 94.1435 46.765H93.9485V47.09H94.5335V47.155C94.5335 47.3283 94.5118 47.5233 94.4685 47.74C94.4685 47.9567 94.4468 48.1733 94.4035 48.39H93.9485L93.7535 49.69H94.7285C94.7285 49.8633 94.6851 50.08 94.5985 50.34H94.4035C94.3601 50.5133 94.3168 50.6867 94.2735 50.86C94.2301 50.99 94.1868 51.1417 94.1435 51.315H94.6635C94.6201 51.5317 94.5551 51.7483 94.4685 51.965C94.3818 52.1817 94.2951 52.3983 94.2085 52.615H93.2335L92.9735 53.265H93.1035C93.0168 53.4383 92.9735 53.5467 92.9735 53.59H92.7135C92.5401 54.0233 92.3018 54.4567 91.9985 54.89H92.1285C92.0851 54.9767 92.0201 55.085 91.9335 55.215C91.8468 55.345 91.7601 55.4533 91.6735 55.54H91.6085L90.8285 56.515C90.7851 56.5583 90.7418 56.6017 90.6985 56.645C90.6551 56.6883 90.5901 56.7533 90.5035 56.84H90.1785C90.0051 57.0133 89.8318 57.1867 89.6585 57.36C89.4851 57.49 89.2901 57.6417 89.0735 57.815H87.1235L85.7585 58.79H86.0185C85.9318 58.8333 85.8451 58.8767 85.7585 58.92C85.6718 58.9633 85.5851 59.0283 85.4985 59.115H85.0435C84.9568 59.1583 84.8485 59.2017 84.7185 59.245C84.5885 59.2883 84.4801 59.3533 84.3935 59.44H87.9035C87.6868 59.57 87.4485 59.7 87.1885 59.83C86.9285 59.9167 86.6685 60.0033 86.4085 60.09H85.3035C85.0001 60.22 84.6751 60.35 84.3285 60.48C83.9818 60.5667 83.6351 60.6533 83.2885 60.74H83.5485C83.0285 60.87 82.4868 60.9783 81.9235 61.065C81.3601 61.195 80.7751 61.3033 80.1685 61.39H82.1835C81.4901 61.4767 80.7751 61.5417 80.0385 61.585C79.3018 61.6283 78.5435 61.65 77.7635 61.65C76.9401 61.65 76.1601 61.6283 75.4235 61.585C74.7301 61.5417 74.0151 61.4767 73.2785 61.39H71.1985C70.6351 61.3033 70.0501 61.195 69.4435 61.065C68.8801 60.9783 68.3385 60.87 67.8185 60.74H67.6235C67.2768 60.6533 66.9301 60.5667 66.5835 60.48C66.2801 60.35 65.9551 60.22 65.6085 60.09H66.6485C66.4318 60.0033 66.1935 59.9167 65.9335 59.83C65.6735 59.7 65.4351 59.57 65.2185 59.44H61.7085L61.1235 59.115H61.5785L60.9935 58.79H60.7335C60.2135 58.4433 59.7585 58.1183 59.3685 57.815H61.3185C61.1451 57.6417 60.9718 57.49 60.7985 57.36C60.6251 57.1867 60.4518 57.0133 60.2785 56.84H60.6035C60.5601 56.7533 60.5168 56.6883 60.4735 56.645C60.4301 56.6017 60.3651 56.5583 60.2785 56.515L59.4985 55.54H59.5635L59.1085 54.89H58.9785C58.6751 54.4567 58.4368 54.0233 58.2635 53.59H58.4585C58.3718 53.4167 58.3285 53.3083 58.3285 53.265H58.1335L57.8735 52.615H58.8485C58.8051 52.3983 58.7401 52.1817 58.6535 51.965C58.5668 51.7483 58.4801 51.5317 58.3935 51.315H57.8735C57.8301 51.1417 57.7868 50.99 57.7435 50.86C57.7001 50.6867 57.6568 50.5133 57.6135 50.34H57.2235L57.0285 49.69H56.3785L56.1835 48.39H56.8335C56.7901 48.1733 56.7468 47.9567 56.7035 47.74C56.7035 47.5233 56.7035 47.3283 56.7035 47.155V47.09H55.5335V46.765H55.2085C55.2085 46.6783 55.1868 46.6133 55.1435 46.57C55.1435 46.5267 55.1435 46.4833 55.1435 46.44H58.7835C58.7835 46.31 58.7618 46.2017 58.7185 46.115H55.0785V45.14H56.6385V44.815H57.4185V44.165H58.7835V43.515H54.8185C54.8185 43.2983 54.8185 43.0817 54.8185 42.865C54.8185 42.6483 54.8401 42.4317 54.8835 42.215H54.0385V41.565H60.4735C60.5168 41.435 60.5385 41.2617 60.5385 41.045V40.59H58.7835C58.7835 40.4167 58.7835 40.265 58.7835 40.135C58.8268 39.9617 58.8485 39.7883 58.8485 39.615H59.4985L59.6935 38.315H57.5485C57.5918 38.1417 57.6351 37.99 57.6785 37.86C57.7218 37.6867 57.7651 37.5133 57.8085 37.34H57.3535C57.4401 37.1233 57.5051 36.9067 57.5485 36.69C57.6351 36.43 57.7218 36.2133 57.8085 36.04H57.8735C57.9168 35.9533 57.9601 35.845 58.0035 35.715C58.0468 35.585 58.0901 35.4767 58.1335 35.39H58.0685C58.0685 35.3467 58.1118 35.2383 58.1985 35.065H58.5235C58.6968 34.6317 58.9351 34.1983 59.2385 33.765H57.9385L58.3285 33.115H60.7335C60.7768 33.0283 60.8635 32.92 60.9935 32.79H56.2485C56.3351 32.6167 56.4435 32.465 56.5735 32.335C56.7468 32.1617 56.8985 31.9883 57.0285 31.815H58.5235C58.7401 31.5983 58.9568 31.3817 59.1735 31.165C59.4335 30.905 59.6718 30.6883 59.8885 30.515H62.8785C63.2685 30.1683 63.7235 29.8433 64.2435 29.54H65.4785C65.6518 29.41 65.8251 29.3017 65.9985 29.215C66.2151 29.085 66.4101 28.9767 66.5835 28.89H62.7485C63.1385 28.6733 63.6151 28.4567 64.1785 28.24H65.9335C66.9301 27.85 67.9701 27.525 69.0535 27.265H67.1035C69.2268 26.7883 71.4801 26.55 73.8635 26.55C76.2468 26.55 78.5001 26.7883 80.6235 27.265H82.6385C83.7218 27.525 84.7401 27.85 85.6935 28.24H83.8735C84.4368 28.4567 84.9135 28.6733 85.3035 28.89H89.1385C89.3551 28.9767 89.5501 29.085 89.7235 29.215C89.9401 29.3017 90.1351 29.41 90.3085 29.54H89.0735L90.4385 30.515H87.4485C87.7085 30.6883 87.9468 30.905 88.1635 31.165C88.4235 31.3817 88.6618 31.5983 88.8785 31.815H87.3835C87.5135 31.9883 87.6435 32.1617 87.7735 32.335C87.9468 32.465 88.0768 32.6167 88.1635 32.79H92.9735L93.1685 33.115H90.8285L91.2185 33.765H92.5185C92.8218 34.1983 93.0601 34.6317 93.2335 35.065H92.9085C92.9951 35.2383 93.0385 35.3467 93.0385 35.39H93.1685L93.4285 36.04H93.3635C93.4501 36.2133 93.5368 36.43 93.6235 36.69C93.7101 36.9067 93.7751 37.1233 93.8185 37.34H94.4685L94.6635 38.315H94.2735C94.3601 38.4883 94.4035 38.705 94.4035 38.965C94.4468 39.1817 94.4901 39.3983 94.5335 39.615H95.0535C95.0968 39.7883 95.1185 39.9617 95.1185 40.135C95.1185 40.265 95.1401 40.4167 95.1835 40.59H92.6485V41.045C92.6485 41.2617 92.6701 41.435 92.7135 41.565H91.4135V42.215H99.7985ZM74.8385 39.615C74.7951 39.7883 74.7518 39.9617 74.7085 40.135C74.7085 40.265 74.7085 40.4167 74.7085 40.59H76.5285C76.4851 40.72 76.4635 40.85 76.4635 40.98C76.4635 41.11 76.4635 41.24 76.4635 41.37V41.565H76.7235V41.37C76.7235 41.24 76.7018 41.11 76.6585 40.98C76.6585 40.85 76.6585 40.72 76.6585 40.59H79.1935C79.1935 40.4167 79.1718 40.265 79.1285 40.135C79.1285 39.9617 79.1285 39.7883 79.1285 39.615H78.6085C78.5651 39.355 78.5001 39.1167 78.4135 38.9C78.3701 38.6833 78.3051 38.4883 78.2185 38.315H78.6735C78.5001 37.925 78.2401 37.6 77.8935 37.34H77.2435C76.8101 37.08 76.2468 36.95 75.5535 36.95C74.8601 36.95 74.3185 37.08 73.9285 37.34H74.3835C74.2101 37.47 74.0585 37.6217 73.9285 37.795C73.7985 37.925 73.6901 38.0983 73.6035 38.315H75.7485C75.7051 38.4883 75.6401 38.6833 75.5535 38.9C75.5101 39.1167 75.4668 39.355 75.4235 39.615H74.8385ZM79.2585 43.515H83.8735V42.215H75.4885C75.4451 42.0417 75.4235 41.825 75.4235 41.565H70.0285C70.0285 41.825 70.0068 42.0417 69.9635 42.215H70.8085V43.515H74.7735V44.165H73.3435V44.815H72.5635V45.14H71.0035C71.0035 45.3133 71.0035 45.4867 71.0035 45.66C71.0468 45.79 71.0685 45.9417 71.0685 46.115H76.2035V45.14H79.1285V44.815H76.5935V44.165H79.2585V43.515ZM78.2185 46.765V46.44H71.1335V46.765H71.4585V46.83C71.4585 46.8733 71.4585 46.9167 71.4585 46.96C71.5018 47.0033 71.5235 47.0467 71.5235 47.09H72.6285C72.6718 47.3067 72.6935 47.5233 72.6935 47.74C72.6935 47.9567 72.7151 48.1733 72.7585 48.39H72.1085C72.1951 48.9533 72.2818 49.3867 72.3685 49.69H73.0835C73.1701 49.95 73.2568 50.1667 73.3435 50.34H73.7985C74.1885 50.9467 74.9251 51.25 76.0085 51.25C77.0918 51.25 77.8285 50.9467 78.2185 50.34H78.4785C78.5218 50.2533 78.5651 50.1667 78.6085 50.08C78.6518 49.95 78.6951 49.82 78.7385 49.69H77.7635C77.8068 49.4733 77.8501 49.2783 77.8935 49.105C77.9368 48.8883 77.9801 48.65 78.0235 48.39H78.4785C78.5218 48.1733 78.5435 47.9567 78.5435 47.74C78.5435 47.5233 78.5651 47.3067 78.6085 47.09H78.0235V46.765H78.2185ZM137.213 59.765H139.293V60.74H137.668V61.065H138.123C138.079 61.2383 138.058 61.39 138.058 61.52C138.058 61.6933 138.036 61.8667 137.993 62.04H137.928V62.365H134.873C134.829 62.4517 134.808 62.56 134.808 62.69C134.808 62.82 134.786 62.9283 134.743 63.015H138.513C138.469 63.2317 138.426 63.4483 138.383 63.665C138.339 63.8817 138.296 64.0983 138.253 64.315H137.213C137.169 64.4883 137.126 64.64 137.083 64.77C137.039 64.9433 136.974 65.1167 136.888 65.29H134.743L134.483 65.94H135.588L135.328 66.59H135.458C135.371 66.8067 135.263 67.0233 135.133 67.24H135.198L134.613 68.215C134.569 68.2583 134.526 68.3017 134.483 68.345C134.483 68.3883 134.461 68.4533 134.418 68.54C134.331 68.7133 134.223 68.865 134.093 68.995C133.963 69.1683 133.833 69.3417 133.703 69.515H133.573L133.248 69.84H134.483L133.898 70.49H132.403C132.273 70.5767 132.143 70.685 132.013 70.815C131.883 70.945 131.774 71.0533 131.688 71.14H133.443C133.269 71.3133 133.053 71.465 132.793 71.595C132.576 71.7683 132.359 71.9417 132.143 72.115H134.483C134.223 72.2883 133.941 72.44 133.638 72.57C133.378 72.7433 133.096 72.9167 132.793 73.09H132.143C131.926 73.22 131.688 73.3283 131.428 73.415C131.168 73.545 130.929 73.6533 130.713 73.74H127.008C126.184 74.0433 125.339 74.3033 124.473 74.52C123.606 74.7367 122.718 74.91 121.808 75.04H125.643C124.993 75.1267 124.321 75.1917 123.628 75.235C122.934 75.2783 122.241 75.3 121.548 75.3C120.811 75.3 120.074 75.2783 119.338 75.235C118.644 75.1917 117.973 75.1267 117.323 75.04H113.488C111.538 74.78 109.739 74.3467 108.093 73.74H111.798C111.538 73.6533 111.278 73.545 111.018 73.415C110.758 73.3283 110.498 73.22 110.238 73.09H110.888C110.584 72.9167 110.281 72.7433 109.978 72.57C109.674 72.44 109.371 72.2883 109.068 72.115H106.793C106.533 71.9417 106.273 71.7683 106.013 71.595C105.796 71.465 105.579 71.3133 105.363 71.14H103.608C103.261 70.88 103.001 70.6633 102.828 70.49H104.323C104.193 70.4033 104.063 70.295 103.933 70.165C103.803 70.035 103.694 69.9267 103.608 69.84H102.373C102.329 69.7533 102.286 69.6883 102.243 69.645C102.199 69.6017 102.134 69.5583 102.048 69.515H102.243C102.069 69.3417 101.918 69.1683 101.788 68.995C101.658 68.865 101.528 68.7133 101.398 68.54H101.333C101.289 68.4533 101.203 68.345 101.073 68.215H101.138C101.008 68.0417 100.878 67.8683 100.748 67.695C100.618 67.565 100.509 67.4133 100.423 67.24L100.033 66.59H99.9026C99.8592 66.5033 99.8159 66.395 99.7726 66.265C99.7292 66.135 99.6642 66.0267 99.5776 65.94H98.4726L98.2126 65.29H100.423C100.379 65.1167 100.314 64.9433 100.228 64.77C100.184 64.64 100.141 64.4883 100.098 64.315H99.7076C99.7076 64.185 99.6859 64.055 99.6426 63.925C99.6426 63.8383 99.6426 63.7517 99.6426 63.665C99.6426 63.3617 99.6642 63.145 99.7076 63.015H99.5126C99.6426 62.755 99.7942 62.5383 99.9676 62.365H99.5776C99.8376 62.1917 100.033 62.0833 100.163 62.04H101.008C101.268 61.9533 101.506 61.91 101.723 61.91H114.398C114.614 61.91 114.853 61.9533 115.113 62.04H114.203C114.419 62.0833 114.593 62.1917 114.723 62.365H115.113C115.286 62.5383 115.438 62.755 115.568 63.015H115.763L115.893 63.21C116.196 63.73 116.478 64.0983 116.738 64.315H117.063C117.539 64.6617 118.189 64.835 119.013 64.835C119.663 64.835 120.226 64.6617 120.703 64.315H121.743C122.133 64.0117 122.414 63.5783 122.588 63.015H118.818C118.904 62.755 118.948 62.5383 118.948 62.365H122.003C122.046 62.2783 122.068 62.17 122.068 62.04H122.133C122.176 61.8667 122.198 61.6933 122.198 61.52C122.198 61.39 122.198 61.2383 122.198 61.065H121.808V60.74H123.368V59.765H121.288V59.44H120.053V59.115H121.223V57.815H119.988V57.425L119.338 57.815H119.273C118.233 58.4217 117.106 58.855 115.893 59.115H116.153C115.806 59.1583 115.459 59.2233 115.113 59.31C114.766 59.3533 114.398 59.3967 114.008 59.44H112.383C112.123 59.4833 111.863 59.505 111.603 59.505C111.343 59.505 111.083 59.505 110.823 59.505C110.519 59.505 110.216 59.505 109.913 59.505C109.609 59.505 109.328 59.4833 109.068 59.44H110.628C110.238 59.3967 109.848 59.3533 109.458 59.31C109.068 59.2233 108.678 59.1583 108.288 59.115H108.093C107.443 58.985 106.814 58.8117 106.208 58.595C105.644 58.3783 105.081 58.1183 104.518 57.815H104.583C104.409 57.7283 104.236 57.6417 104.063 57.555C103.889 57.425 103.716 57.295 103.543 57.165H105.038C104.778 56.9483 104.518 56.7317 104.258 56.515C104.041 56.2983 103.824 56.0817 103.608 55.865H98.3426L98.0176 55.54H101.008C100.661 55.1067 100.358 54.6733 100.098 54.24H100.943C100.639 53.8067 100.401 53.3733 100.228 52.94H100.098C99.8809 52.4633 99.7076 52.03 99.5776 51.64H94.8326C94.8326 51.5533 94.8326 51.4883 94.8326 51.445C94.7892 51.4017 94.7676 51.3583 94.7676 51.315H99.1876L98.9926 50.665H99.3176C99.2742 50.4483 99.2092 50.2317 99.1226 50.015C99.0792 49.7983 99.0359 49.5817 98.9926 49.365H99.7726L99.5776 48.065H98.7326L98.6676 47.415H97.1076C97.0642 47.1983 97.0426 46.9817 97.0426 46.765C97.0426 46.5483 97.0209 46.3317 96.9776 46.115H96.3926C96.3926 45.9417 96.3926 45.79 96.3926 45.66C96.3492 45.4867 96.3276 45.3133 96.3276 45.14H97.2376V44.49H98.4076C98.4076 44.3167 98.3859 44.165 98.3426 44.035C98.3426 43.8617 98.3426 43.6883 98.3426 43.515H98.9276V42.54H97.8876C97.8876 42.3667 97.8876 42.215 97.8876 42.085C97.8876 41.9117 97.9092 41.7383 97.9526 41.565H98.0826V41.5C98.0826 41.3267 98.0826 41.175 98.0826 41.045C98.1259 40.915 98.1476 40.7633 98.1476 40.59H98.4076C98.4509 40.4167 98.4726 40.265 98.4726 40.135C98.4726 39.9617 98.4942 39.7883 98.5376 39.615C98.5809 39.5283 98.6026 39.42 98.6026 39.29C98.6026 39.16 98.6242 39.0517 98.6676 38.965H98.3426V38.64H98.7326C98.7759 38.4233 98.8192 38.2067 98.8626 37.99C98.9059 37.73 98.9492 37.5133 98.9926 37.34H98.9276C98.9709 37.1667 99.0142 37.015 99.0576 36.885C99.1009 36.7117 99.1442 36.5383 99.1876 36.365H99.7076C99.7942 36.1483 99.8592 35.9317 99.9026 35.715C99.9892 35.455 100.076 35.2383 100.163 35.065H100.488L100.618 34.74H99.7076C99.7509 34.6533 99.7942 34.545 99.8376 34.415C99.8809 34.285 99.9242 34.1767 99.9676 34.09L100.358 33.115C100.401 33.0283 100.423 32.9633 100.423 32.92C100.466 32.8767 100.509 32.8333 100.553 32.79L100.748 32.465C100.834 32.3783 100.899 32.27 100.943 32.14C101.029 32.01 101.116 31.9017 101.203 31.815C101.246 31.7283 101.289 31.6633 101.333 31.62C101.376 31.5767 101.419 31.5333 101.463 31.49H101.333L102.113 30.515C102.243 30.4283 102.351 30.32 102.438 30.19C102.568 30.06 102.676 29.9517 102.763 29.865H102.893C102.936 29.7783 102.979 29.7133 103.023 29.67C103.109 29.6267 103.174 29.5833 103.218 29.54H103.933C104.193 29.28 104.474 29.0633 104.778 28.89H103.153C103.326 28.76 103.499 28.6517 103.673 28.565C103.846 28.435 104.019 28.3267 104.193 28.24H104.648C105.254 27.8933 105.991 27.5683 106.858 27.265H109.003C110.563 26.7883 112.231 26.55 114.008 26.55C115.568 26.55 117.019 26.7883 118.363 27.265H116.218C116.911 27.4817 117.604 27.8067 118.298 28.24H117.908C118.081 28.3267 118.233 28.435 118.363 28.565C118.536 28.6517 118.709 28.76 118.883 28.89H120.443C120.616 28.9767 120.768 29.085 120.898 29.215C121.028 29.345 121.158 29.4533 121.288 29.54H120.573L120.898 29.865H120.833L121.418 30.515C121.504 30.5583 121.569 30.6233 121.613 30.71C121.699 30.7967 121.764 30.8833 121.808 30.97V30.515H122.068V29.865H123.173V29.54H123.888V28.89H120.703C120.703 28.63 120.768 28.4133 120.898 28.24H122.003C122.219 27.72 122.588 27.395 123.108 27.265H121.808C121.938 27.2217 122.111 27.2 122.328 27.2H133.703C133.919 27.2 134.071 27.2217 134.158 27.265H135.458C135.978 27.395 136.346 27.72 136.563 28.24H135.458C135.544 28.5 135.588 28.7167 135.588 28.89H138.773V29.54H138.058V29.865H136.953V30.515H136.693V31.49H136.758V32.465H136.693V34.09H136.758V34.74H137.668V35.065H137.278V36.365H136.693L136.758 37.34V38.965H136.563V39.615H136.368V40.59H136.758V41.565H137.538V42.54H136.173V43.515H136.628V44.49H136.758V45.14H134.613L134.678 46.115H134.938V47.415H136.368V48.065H137.538V49.365H136.693V50.665H136.433V51.315H131.948V51.64H136.693V52.94H136.823V54.24H135.913L135.978 55.54H132.988V55.865H138.253V57.165H135.913V57.815H137.148V59.115H135.978V59.44H137.213V59.765ZM115.308 47.415C115.611 47.7183 116.001 47.935 116.478 48.065H117.258C117.431 48.1083 117.604 48.1517 117.778 48.195C117.994 48.195 118.189 48.195 118.363 48.195C118.579 48.195 118.774 48.195 118.948 48.195C119.164 48.1517 119.359 48.1083 119.533 48.065H118.363C118.839 47.935 119.229 47.7183 119.533 47.415H118.103C118.449 47.0683 118.688 46.635 118.818 46.115H118.558L118.753 45.14H120.833C120.833 45.0533 120.854 44.9883 120.898 44.945V44.49H120.768V43.515H120.378V42.54H121.678V41.565H120.833V41.435C120.833 41.2617 120.811 41.11 120.768 40.98C120.768 40.85 120.746 40.72 120.703 40.59H120.378C120.334 40.2433 120.226 39.9183 120.053 39.615H120.183C120.053 39.355 119.901 39.1383 119.728 38.965H119.923C119.749 38.7917 119.619 38.6833 119.533 38.64C119.099 38.3367 118.471 38.185 117.648 38.185C116.824 38.185 116.196 38.3367 115.763 38.64H115.373C115.286 38.6833 115.156 38.7917 114.983 38.965H115.308C115.134 39.1383 114.983 39.355 114.853 39.615H114.788C114.744 39.745 114.701 39.8967 114.658 40.07C114.614 40.2 114.549 40.3733 114.463 40.59H114.203C114.159 40.7633 114.116 40.9367 114.073 41.11C114.073 41.24 114.073 41.3917 114.073 41.565H113.878V41.955C113.834 42.085 113.813 42.28 113.813 42.54H114.853V43.515H114.268C114.268 43.6883 114.268 43.8617 114.268 44.035C114.311 44.165 114.333 44.295 114.333 44.425V44.49H113.163L113.228 45.14H112.318L112.513 46.115H113.098C113.228 46.635 113.466 47.0683 113.813 47.415H115.308ZM121.743 57.165H122.328V56.71L121.743 57.165ZM142.284 21.74V20.44H142.219V19.465H142.804V19.14H143.194V17.84H142.869V16.865H142.934V15.565H143.194V14.59H143.064V14.005C143.064 13.6583 143.107 13.42 143.194 13.29H143.844L144.039 12.965H143.519C143.865 12.4883 144.342 12.25 144.949 12.25H155.934C156.54 12.25 157.017 12.4883 157.364 12.965H157.884L158.079 13.29H157.364C157.494 13.4633 157.559 13.7017 157.559 14.005V14.59H157.689V15.565H157.429V16.865H157.364V17.84H157.689V19.14H157.299V19.465H156.714V20.44H156.779V21.74H157.234V21.87C157.234 22.26 157.082 22.65 156.779 23.04H155.999C155.695 23.43 155.262 23.625 154.699 23.625H143.714C143.15 23.625 142.695 23.43 142.349 23.04H143.129C142.869 22.6933 142.739 22.3033 142.739 21.87V21.74H142.284ZM155.674 35.39H161.784V36.69H159.574V37.34H157.104V38.64H158.989V38.965H157.754V39.615H157.949V40.265H158.274V41.24H155.024V42.215H157.169V43.19H156.779V43.84H157.884V44.815H158.144V45.79H157.754V46.765H158.079V47.415H157.754V48.715H157.624V49.69H157.364V50.665H157.624V51.315H157.754V52.615H157.494V53.265H157.819V53.915H157.754V54.89H158.014V55.865H158.209V56.19H157.754V57.49H156.844V58.79H157.494V59.245C157.494 59.4617 157.472 59.635 157.429 59.765H156.974C156.844 60.1983 156.605 60.5233 156.259 60.74H157.559C157.342 60.9133 157.017 61 156.584 61H144.949C144.559 61 144.255 60.9133 144.039 60.74H142.739C142.349 60.5233 142.089 60.1983 141.959 59.765H142.414C142.37 59.635 142.349 59.4617 142.349 59.245V58.79H141.699V57.49H142.609V56.19H143.064V55.865H142.869V54.89H142.609V53.915H142.674V53.265H142.349V52.615H142.609V51.315H142.479V50.665H142.219V49.69H142.479V48.715H142.609V47.415H142.934V46.765H142.609V45.79H142.999V44.815H142.739V43.84H141.634V43.19H142.024V42.215H139.879V41.24H143.129V40.265H142.804V39.615H142.609V38.965H143.844V38.64H141.959V37.34H144.429V36.69H146.639V35.39H140.529V34.74H145.924V33.44H143.974V32.465H145.144V31.165H143.064V30.84H142.609V30.19H142.219V29.215H142.674V28.955C142.674 28.4783 142.782 28.1317 142.999 27.915H143.064C143.41 27.4383 143.887 27.2 144.494 27.2H156.129C156.735 27.2 157.212 27.4383 157.559 27.915H157.429C157.689 28.175 157.819 28.5217 157.819 28.955V29.215H157.364V30.19H157.754V30.84H158.209V31.165H160.289V32.465H159.119V33.44H161.069V34.74H155.674V35.39ZM204.882 56.19H214.567V57.49H209.042V58.465H208.132V59.115H204.102V59.44H206.117C206.03 60.0467 205.77 60.48 205.337 60.74H203.907C203.69 60.9133 203.365 61 202.932 61H190.517C190.127 61 189.823 60.9133 189.607 60.74H191.037C190.603 60.48 190.343 60.0467 190.257 59.44H188.177V59.115H192.207V58.465H193.117V57.49H198.642V56.19H188.957V54.89H191.362V54.565H189.217V53.915H189.282V53.265H188.242V51.965H189.087V50.665H186.422V49.365H187.072V48.065H190.062V46.765H189.347V46.115H189.087V45.79H188.827V44.815H189.217V44.49H189.542V43.84H189.477V43.19H189.282V42.54H186.552V41.89H187.267V41.76C187.267 41.5867 187.245 41.435 187.202 41.305C187.202 41.175 187.202 41.045 187.202 40.915H188.502C188.458 40.6983 188.415 40.525 188.372 40.395C188.328 40.2217 188.285 40.07 188.242 39.94H189.412C189.152 39.3767 188.783 38.9433 188.307 38.64H186.227C185.75 38.3367 185.122 38.185 184.342 38.185C183.562 38.185 182.955 38.3367 182.522 38.64H184.082C183.865 38.8133 183.648 39.0083 183.432 39.225C183.258 39.3983 183.128 39.6367 183.042 39.94H181.092C181.005 40.1133 180.918 40.4383 180.832 40.915H181.157C181.113 41.0883 181.092 41.37 181.092 41.76V41.89H180.637V42.54H182.782V43.19H182.912V43.84H182.717V44.49H182.262V44.815H181.807V45.79H182.522V46.115H182.977V46.765H182.717V48.065H184.407V49.365H182.587V50.665H182.912V51.965H182.197V53.265H182.977V53.915H182.912V54.24H183.107V54.565H186.682V54.89H188.177V56.19H184.147V57.49H184.277V58.465H181.807V59.115H184.602V59.44H185.317C185.23 60.0467 184.948 60.48 184.472 60.74H181.482C181.265 60.9133 180.962 61 180.572 61H168.222C167.832 61 167.528 60.9133 167.312 60.74H170.302C169.825 60.48 169.543 60.0467 169.457 59.44H168.742V59.115H165.947V58.465H168.417V57.49H168.287V56.19H172.317V54.89H170.822V54.565H167.247V54.24H167.052V53.915H167.117V53.265H166.337V51.965H167.052V50.665H166.727V49.365H168.547V48.065H166.857V46.765H167.117V46.115H166.662V45.79H165.947V44.815H166.402V44.49H166.857V43.84H167.052V43.19H166.922V42.54H164.777V41.89H165.232V40.915H164.907V39.94H166.857V38.64H165.232V37.665H166.662V37.015H167.052V36.04H166.792V35.065H166.857V33.44H167.182V32.79H167.117V31.815H167.962V31.49H167.442V30.515H168.222V30.19H165.622V29.54H167.507V28.565H171.017C171.103 28.305 171.19 28.0883 171.277 27.915H169.197C169.543 27.4383 170.02 27.2 170.627 27.2H182.002C182.608 27.2 183.085 27.4383 183.432 27.915H184.537C185.49 27.4817 186.508 27.1567 187.592 26.94C188.675 26.68 189.802 26.55 190.972 26.55C193.138 26.55 195.088 27.005 196.822 27.915H197.537C197.753 28.0017 197.948 28.11 198.122 28.24C198.295 28.3267 198.468 28.435 198.642 28.565H197.732C197.948 28.695 198.165 28.8467 198.382 29.02C198.598 29.15 198.793 29.3233 198.967 29.54H204.037C204.297 29.7133 204.513 29.93 204.687 30.19H201.112C201.155 30.2333 201.198 30.2767 201.242 30.32C201.285 30.3633 201.328 30.4283 201.372 30.515H202.282C202.412 30.6883 202.542 30.8617 202.672 31.035C202.802 31.165 202.91 31.3167 202.997 31.49H203.582L203.777 31.815H202.932L203.517 32.79H203.582C203.668 33.0067 203.777 33.2233 203.907 33.44H203.582C203.798 33.9167 203.972 34.35 204.102 34.74C204.102 34.7833 204.145 34.8917 204.232 35.065H204.167C204.253 35.2383 204.297 35.4117 204.297 35.585C204.34 35.715 204.383 35.8667 204.427 36.04H204.687C204.773 36.2133 204.817 36.3867 204.817 36.56C204.86 36.69 204.903 36.8417 204.947 37.015H204.492C204.578 37.275 204.622 37.4917 204.622 37.665H203.257C203.3 37.8383 203.322 38.0117 203.322 38.185C203.322 38.315 203.343 38.4667 203.387 38.64H205.467C205.51 38.8133 205.532 39.03 205.532 39.29C205.575 39.5067 205.597 39.7233 205.597 39.94H204.427V40.915H203.192V41.89H202.477V42.54H205.207V43.19H205.402V43.84H205.467V44.49H205.142V44.815H204.752V45.79H205.012V46.115H205.272V46.765H205.987V48.065H202.997V49.365H202.347V50.665H205.012V51.965H204.167V53.265H205.207V53.915H205.142V54.565H207.287V54.89H204.882V56.19ZM183.042 28.565H182.327C182.327 28.6083 182.327 28.6733 182.327 28.76C182.37 28.8033 182.392 28.8683 182.392 28.955V29.02C182.478 28.9333 182.587 28.8467 182.717 28.76C182.847 28.6733 182.955 28.6083 183.042 28.565ZM180.507 29.54V30.19H185.902L186.682 29.54H180.507ZM182.327 30.515V31.1C182.413 30.97 182.587 30.775 182.847 30.515H182.327Z" fill="#D379F1"/>
</g>
<path d="M25.24 18.864C25.2827 18.736 25.304 18.6293 25.304 18.544C25.3467 18.416 25.3893 18.3093 25.432 18.224H18.392C18.4773 18.096 18.5627 17.9893 18.648 17.904C18.7333 17.776 18.8187 17.6693 18.904 17.584H26.328C26.6693 17.328 27.032 17.2 27.416 17.2H40.216C40.6853 17.2 41.048 17.328 41.304 17.584H33.88C33.9653 17.6693 34.0507 17.776 34.136 17.904C34.264 17.9893 34.3493 18.096 34.392 18.224H41.368C41.4533 18.48 41.496 18.6933 41.496 18.864H45.08C45.1227 18.864 45.144 18.8853 45.144 18.928V19.504H36.504V20.784H40.088V21.744H39.704V23.024H37.4V24.304H42.584V24.624H42.968V25.904H43.224V27.184H42.776V28.464H42.456V30.064H43.544V31.344H42.328V32.624H42.584V32.944H47.128V34.224H49.496V34.864H39.64V35.504H42.904V36.784H40.216V38.064H42.52V38.704H42.968V39.664H51.544V40.304H57.496V41.584H41.24V40.304H35.288V39.664H26.712V38.704H26.264V38.064H23.96V36.784H26.648V35.504H23.384V34.864H33.24V34.224H30.872V32.944H26.328V32.624H26.072V31.344H27.288V30.064H26.2V28.464H26.52V27.184H26.968V25.904H26.712V24.624H26.328V24.304H21.144V23.024H23.448V21.744H23.832V20.784H20.248V19.504H28.888V18.864H25.24ZM67.8 53.424H50.328V53.744H51.608V54.704H60.696V55.024H57.88V56.304H62.36V57.264H63V57.584H62.552V57.904H62.36V59.184H62.488V60.144H62.232V60.464H61.912C61.8693 60.5493 61.848 60.656 61.848 60.784H62.552C62.424 61.2107 62.1893 61.5307 61.848 61.744H61.144C60.9307 61.9147 60.632 62 60.248 62H27.992C27.608 62 27.3093 61.9147 27.096 61.744H27.736C27.352 61.5307 27.096 61.2107 26.968 60.784H26.264C26.264 60.6987 26.2427 60.6347 26.2 60.592C26.2 60.5493 26.2 60.5067 26.2 60.464H26.52V60.144H26.776V59.184H26.648V57.904H26.84V57.584H27.288V57.264H26.648V56.304H22.168V55.024H24.984V54.704H15.896V53.744H14.616V53.424H32.088V52.464H24.984V51.504H31.896V51.184H16.792V50.224H18.968V49.904H27.288V49.584H24.344V48.624H29.336V47.344H24.28V46.704H28.44V46.384H26.52V45.424H28.376V44.784H26.008V44.144H31.576V43.184H33.176V42.544H24.408V41.584H40.664V42.544H49.432V43.184H47.832V44.144H42.264V44.784H44.632V45.424H42.776V46.384H44.696V46.704H40.536V47.344H45.592V48.624H40.6V48.88H58.328C58.9253 48.88 59.3947 49.1147 59.736 49.584H62.68L62.872 49.904H54.552L54.68 50.224H52.44C52.4827 50.3093 52.504 50.4373 52.504 50.608V51.184H67.608V51.504H60.696V52.464H67.8V53.424ZM107.479 43.504C107.521 43.7173 107.543 43.9307 107.543 44.144C107.543 44.3573 107.543 44.5707 107.543 44.784H102.999V45.424H100.375V46.064H102.871V46.384H99.9905V47.344H98.3905V47.664H101.975C101.975 47.792 101.953 47.8987 101.911 47.984H101.719V48.304H102.295V48.368C102.295 48.5387 102.273 48.7307 102.231 48.944C102.231 49.1573 102.209 49.3707 102.167 49.584H101.719L101.527 50.864H102.487C102.487 51.0347 102.444 51.248 102.359 51.504H102.167C102.124 51.6747 102.081 51.8453 102.039 52.016C101.996 52.144 101.953 52.2933 101.911 52.464H102.423C102.38 52.6773 102.316 52.8907 102.231 53.104C102.145 53.3173 102.06 53.5307 101.975 53.744H101.015L100.759 54.384H100.887C100.801 54.5547 100.759 54.6613 100.759 54.704H100.503C100.332 55.1307 100.097 55.5573 99.7985 55.984H99.9265C99.8838 56.0693 99.8198 56.176 99.7345 56.304C99.6492 56.432 99.5638 56.5387 99.4785 56.624H99.4145L98.6465 57.584C98.6038 57.6267 98.5612 57.6693 98.5185 57.712C98.4758 57.7547 98.4118 57.8187 98.3265 57.904H98.0065C97.8358 58.0747 97.6652 58.2453 97.4945 58.416C97.3238 58.544 97.1318 58.6933 96.9185 58.864H94.9985L93.6545 59.824H93.9105C93.8252 59.8667 93.7398 59.9093 93.6545 59.952C93.5692 59.9947 93.4838 60.0587 93.3985 60.144H92.9505C92.8652 60.1867 92.7585 60.2293 92.6305 60.272C92.5025 60.3147 92.3958 60.3787 92.3105 60.464H95.7665C95.5532 60.592 95.3185 60.72 95.0625 60.848C94.8065 60.9333 94.5505 61.0187 94.2945 61.104H93.2065C92.9078 61.232 92.5878 61.36 92.2465 61.488C91.9052 61.5733 91.5638 61.6587 91.2225 61.744H91.4785C90.9665 61.872 90.4332 61.9787 89.8785 62.064C89.3238 62.192 88.7478 62.2987 88.1505 62.384H90.1345C89.4518 62.4693 88.7478 62.5333 88.0225 62.576C87.2972 62.6187 86.5505 62.64 85.7825 62.64C84.9718 62.64 84.2038 62.6187 83.4785 62.576C82.7958 62.5333 82.0918 62.4693 81.3665 62.384H79.3185C78.7638 62.2987 78.1878 62.192 77.5905 62.064C77.0358 61.9787 76.5025 61.872 75.9905 61.744H75.7985C75.4572 61.6587 75.1158 61.5733 74.7745 61.488C74.4758 61.36 74.1558 61.232 73.8145 61.104H74.8385C74.6252 61.0187 74.3905 60.9333 74.1345 60.848C73.8785 60.72 73.6438 60.592 73.4305 60.464H69.9745L69.3985 60.144H69.8465L69.2705 59.824H69.0145C68.5025 59.4827 68.0545 59.1627 67.6705 58.864H69.5905C69.4198 58.6933 69.2492 58.544 69.0785 58.416C68.9078 58.2453 68.7372 58.0747 68.5665 57.904H68.8865C68.8438 57.8187 68.8012 57.7547 68.7585 57.712C68.7158 57.6693 68.6518 57.6267 68.5665 57.584L67.7985 56.624H67.8625L67.4145 55.984H67.2865C66.9878 55.5573 66.7532 55.1307 66.5825 54.704H66.7745C66.6892 54.5333 66.6465 54.4267 66.6465 54.384H66.4545L66.1985 53.744H67.1585C67.1158 53.5307 67.0518 53.3173 66.9665 53.104C66.8812 52.8907 66.7958 52.6773 66.7105 52.464H66.1985C66.1558 52.2933 66.1132 52.144 66.0705 52.016C66.0278 51.8453 65.9852 51.6747 65.9425 51.504H65.5585L65.3665 50.864H64.7265L64.5345 49.584H65.1745C65.1318 49.3707 65.0892 49.1573 65.0465 48.944C65.0465 48.7307 65.0465 48.5387 65.0465 48.368V48.304H63.8945V47.984H63.5745C63.5745 47.8987 63.5532 47.8347 63.5105 47.792C63.5105 47.7493 63.5105 47.7067 63.5105 47.664H67.0945C67.0945 47.536 67.0732 47.4293 67.0305 47.344H63.4465V46.384H64.9825V46.064H65.7505V45.424H67.0945V44.784H63.1905C63.1905 44.5707 63.1905 44.3573 63.1905 44.144C63.1905 43.9307 63.2118 43.7173 63.2545 43.504H62.4225V42.864H68.7585C68.8012 42.736 68.8225 42.5653 68.8225 42.352V41.904H67.0945C67.0945 41.7333 67.0945 41.584 67.0945 41.456C67.1372 41.2853 67.1585 41.1147 67.1585 40.944H67.7985L67.9905 39.664H65.8785C65.9212 39.4933 65.9638 39.344 66.0065 39.216C66.0492 39.0453 66.0918 38.8747 66.1345 38.704H65.6865C65.7718 38.4907 65.8358 38.2773 65.8785 38.064C65.9638 37.808 66.0492 37.5947 66.1345 37.424H66.1985C66.2412 37.3387 66.2838 37.232 66.3265 37.104C66.3692 36.976 66.4118 36.8693 66.4545 36.784H66.3905C66.3905 36.7413 66.4332 36.6347 66.5185 36.464H66.8385C67.0092 36.0373 67.2438 35.6107 67.5425 35.184H66.2625L66.6465 34.544H69.0145C69.0572 34.4587 69.1425 34.352 69.2705 34.224H64.5985C64.6838 34.0533 64.7905 33.904 64.9185 33.776C65.0892 33.6053 65.2385 33.4347 65.3665 33.264H66.8385C67.0518 33.0507 67.2652 32.8373 67.4785 32.624C67.7345 32.368 67.9692 32.1547 68.1825 31.984H71.1265C71.5105 31.6427 71.9585 31.3227 72.4705 31.024H73.6865C73.8572 30.896 74.0278 30.7893 74.1985 30.704C74.4118 30.576 74.6038 30.4693 74.7745 30.384H70.9985C71.3825 30.1707 71.8518 29.9573 72.4065 29.744H74.1345C75.1158 29.36 76.1398 29.04 77.2065 28.784H75.2865C77.3772 28.3147 79.5958 28.08 81.9425 28.08C84.2892 28.08 86.5078 28.3147 88.5985 28.784H90.5825C91.6492 29.04 92.6518 29.36 93.5905 29.744H91.7985C92.3532 29.9573 92.8225 30.1707 93.2065 30.384H96.9825C97.1958 30.4693 97.3878 30.576 97.5585 30.704C97.7718 30.7893 97.9638 30.896 98.1345 31.024H96.9185L98.2625 31.984H95.3185C95.5745 32.1547 95.8092 32.368 96.0225 32.624C96.2785 32.8373 96.5132 33.0507 96.7265 33.264H95.2545C95.3825 33.4347 95.5105 33.6053 95.6385 33.776C95.8092 33.904 95.9372 34.0533 96.0225 34.224H100.759L100.951 34.544H98.6465L99.0305 35.184H100.311C100.609 35.6107 100.844 36.0373 101.015 36.464H100.694C100.78 36.6347 100.823 36.7413 100.823 36.784H100.951L101.207 37.424H101.143C101.228 37.5947 101.313 37.808 101.399 38.064C101.484 38.2773 101.548 38.4907 101.591 38.704H102.231L102.423 39.664H102.039C102.124 39.8347 102.167 40.048 102.167 40.304C102.209 40.5173 102.252 40.7307 102.295 40.944H102.807C102.849 41.1147 102.871 41.2853 102.871 41.456C102.871 41.584 102.892 41.7333 102.935 41.904H100.439V42.352C100.439 42.5653 100.46 42.736 100.503 42.864H99.2225V43.504H107.479ZM82.9025 40.944C82.8598 41.1147 82.8172 41.2853 82.7745 41.456C82.7745 41.584 82.7745 41.7333 82.7745 41.904H84.5665C84.5238 42.032 84.5025 42.16 84.5025 42.288C84.5025 42.416 84.5025 42.544 84.5025 42.672V42.864H84.7585V42.672C84.7585 42.544 84.7372 42.416 84.6945 42.288C84.6945 42.16 84.6945 42.032 84.6945 41.904H87.1905C87.1905 41.7333 87.1692 41.584 87.1265 41.456C87.1265 41.2853 87.1265 41.1147 87.1265 40.944H86.6145C86.5718 40.688 86.5078 40.4533 86.4225 40.24C86.3798 40.0267 86.3158 39.8347 86.2305 39.664H86.6785C86.5078 39.28 86.2518 38.96 85.9105 38.704H85.2705C84.8438 38.448 84.2892 38.32 83.6065 38.32C82.9238 38.32 82.3905 38.448 82.0065 38.704H82.4545C82.2838 38.832 82.1345 38.9813 82.0065 39.152C81.8785 39.28 81.7718 39.4507 81.6865 39.664H83.7985C83.7558 39.8347 83.6918 40.0267 83.6065 40.24C83.5638 40.4533 83.5212 40.688 83.4785 40.944H82.9025ZM87.2545 44.784H91.7985V43.504H83.5425C83.4998 43.3333 83.4785 43.12 83.4785 42.864H78.1665C78.1665 43.12 78.1452 43.3333 78.1025 43.504H78.9345V44.784H82.8385V45.424H81.4305V46.064H80.6625V46.384H79.1265C79.1265 46.5547 79.1265 46.7253 79.1265 46.896C79.1692 47.024 79.1905 47.1733 79.1905 47.344H84.2465V46.384H87.1265V46.064H84.6305V45.424H87.2545V44.784ZM86.2305 47.984V47.664H79.2545V47.984H79.5745V48.048C79.5745 48.0907 79.5745 48.1333 79.5745 48.176C79.6172 48.2187 79.6385 48.2613 79.6385 48.304H80.7265C80.7692 48.5173 80.7905 48.7307 80.7905 48.944C80.7905 49.1573 80.8118 49.3707 80.8545 49.584H80.2145C80.2998 50.1387 80.3852 50.5653 80.4705 50.864H81.1745C81.2598 51.12 81.3452 51.3333 81.4305 51.504H81.8785C82.2625 52.1013 82.9878 52.4 84.0545 52.4C85.1212 52.4 85.8465 52.1013 86.2305 51.504H86.4865C86.5292 51.4187 86.5718 51.3333 86.6145 51.248C86.6572 51.12 86.6998 50.992 86.7425 50.864H85.7825C85.8252 50.6507 85.8678 50.4587 85.9105 50.288C85.9532 50.0747 85.9958 49.84 86.0385 49.584H86.4865C86.5292 49.3707 86.5505 49.1573 86.5505 48.944C86.5505 48.7307 86.5718 48.5173 86.6145 48.304H86.0385V47.984H86.2305ZM144.317 60.784H146.365V61.744H144.765V62.064H145.213C145.17 62.2347 145.149 62.384 145.149 62.512C145.149 62.6827 145.128 62.8533 145.085 63.024H145.021V63.344H142.013C141.97 63.4293 141.949 63.536 141.949 63.664C141.949 63.792 141.928 63.8987 141.885 63.984H145.597C145.554 64.1973 145.512 64.4107 145.469 64.624C145.426 64.8373 145.384 65.0507 145.341 65.264H144.317C144.274 65.4347 144.232 65.584 144.189 65.712C144.146 65.8827 144.082 66.0533 143.997 66.224H141.885L141.629 66.864H142.717L142.461 67.504H142.589C142.504 67.7173 142.397 67.9307 142.269 68.144H142.333L141.757 69.104C141.714 69.1467 141.672 69.1893 141.629 69.232C141.629 69.2747 141.608 69.3387 141.565 69.424C141.48 69.5947 141.373 69.744 141.245 69.872C141.117 70.0427 140.989 70.2133 140.861 70.384H140.733L140.413 70.704H141.629L141.053 71.344H139.581C139.453 71.4293 139.325 71.536 139.197 71.664C139.069 71.792 138.962 71.8987 138.877 71.984H140.605C140.434 72.1547 140.221 72.304 139.965 72.432C139.752 72.6027 139.538 72.7733 139.325 72.944H141.629C141.373 73.1147 141.096 73.264 140.797 73.392C140.541 73.5627 140.264 73.7333 139.965 73.904H139.325C139.112 74.032 138.877 74.1387 138.621 74.224C138.365 74.352 138.13 74.4587 137.917 74.544H134.269C133.458 74.8427 132.626 75.0987 131.773 75.312C130.92 75.5253 130.045 75.696 129.149 75.824H132.925C132.285 75.9093 131.624 75.9733 130.941 76.016C130.258 76.0587 129.576 76.08 128.893 76.08C128.168 76.08 127.442 76.0587 126.717 76.016C126.034 75.9733 125.373 75.9093 124.733 75.824H120.957C119.037 75.568 117.266 75.1413 115.645 74.544H119.293C119.037 74.4587 118.781 74.352 118.525 74.224C118.269 74.1387 118.013 74.032 117.757 73.904H118.397C118.098 73.7333 117.8 73.5627 117.501 73.392C117.202 73.264 116.904 73.1147 116.605 72.944H114.365C114.109 72.7733 113.853 72.6027 113.597 72.432C113.384 72.304 113.17 72.1547 112.957 71.984H111.229C110.888 71.728 110.632 71.5147 110.461 71.344H111.933C111.805 71.2587 111.677 71.152 111.549 71.024C111.421 70.896 111.314 70.7893 111.229 70.704H110.013C109.97 70.6187 109.928 70.5547 109.885 70.512C109.842 70.4693 109.778 70.4267 109.693 70.384H109.885C109.714 70.2133 109.565 70.0427 109.437 69.872C109.309 69.744 109.181 69.5947 109.053 69.424H108.989C108.946 69.3387 108.861 69.232 108.733 69.104H108.797C108.669 68.9333 108.541 68.7627 108.413 68.592C108.285 68.464 108.178 68.3147 108.093 68.144L107.709 67.504H107.581C107.538 67.4187 107.496 67.312 107.453 67.184C107.41 67.056 107.346 66.9493 107.261 66.864H106.173L105.917 66.224H108.093C108.05 66.0533 107.986 65.8827 107.901 65.712C107.858 65.584 107.816 65.4347 107.773 65.264H107.389C107.389 65.136 107.368 65.008 107.325 64.88C107.325 64.7947 107.325 64.7093 107.325 64.624C107.325 64.3253 107.346 64.112 107.389 63.984H107.197C107.325 63.728 107.474 63.5147 107.645 63.344H107.261C107.517 63.1733 107.709 63.0667 107.837 63.024H108.669C108.925 62.9387 109.16 62.896 109.373 62.896H121.853C122.066 62.896 122.301 62.9387 122.557 63.024H121.661C121.874 63.0667 122.045 63.1733 122.173 63.344H122.557C122.728 63.5147 122.877 63.728 123.005 63.984H123.197L123.325 64.176C123.624 64.688 123.901 65.0507 124.157 65.264H124.477C124.946 65.6053 125.586 65.776 126.397 65.776C127.037 65.776 127.592 65.6053 128.061 65.264H129.085C129.469 64.9653 129.746 64.5387 129.917 63.984H126.205C126.29 63.728 126.333 63.5147 126.333 63.344H129.341C129.384 63.2587 129.405 63.152 129.405 63.024H129.469C129.512 62.8533 129.533 62.6827 129.533 62.512C129.533 62.384 129.533 62.2347 129.533 62.064H129.149V61.744H130.685V60.784H128.637V60.464H127.421V60.144H128.573V58.864H127.357V58.48L126.717 58.864H126.653C125.629 59.4613 124.52 59.888 123.325 60.144H123.581C123.24 60.1867 122.898 60.2507 122.557 60.336C122.216 60.3787 121.853 60.4213 121.469 60.464H119.869C119.613 60.5067 119.357 60.528 119.101 60.528C118.845 60.528 118.589 60.528 118.333 60.528C118.034 60.528 117.736 60.528 117.437 60.528C117.138 60.528 116.861 60.5067 116.605 60.464H118.141C117.757 60.4213 117.373 60.3787 116.989 60.336C116.605 60.2507 116.221 60.1867 115.837 60.144H115.645C115.005 60.016 114.386 59.8453 113.789 59.632C113.234 59.4187 112.68 59.1627 112.125 58.864H112.189C112.018 58.7787 111.848 58.6933 111.677 58.608C111.506 58.48 111.336 58.352 111.165 58.224H112.637C112.381 58.0107 112.125 57.7973 111.869 57.584C111.656 57.3707 111.442 57.1573 111.229 56.944H106.045L105.725 56.624H108.669C108.328 56.1973 108.029 55.7707 107.773 55.344H108.605C108.306 54.9173 108.072 54.4907 107.901 54.064H107.773C107.56 53.5947 107.389 53.168 107.261 52.784H102.589C102.589 52.6987 102.589 52.6347 102.589 52.592C102.546 52.5493 102.525 52.5067 102.525 52.464H106.877L106.685 51.824H107.005C106.962 51.6107 106.898 51.3973 106.813 51.184C106.77 50.9707 106.728 50.7573 106.685 50.544H107.453L107.261 49.264H106.429L106.365 48.624H104.829C104.786 48.4107 104.765 48.1973 104.765 47.984C104.765 47.7707 104.744 47.5573 104.701 47.344H104.125C104.125 47.1733 104.125 47.024 104.125 46.896C104.082 46.7253 104.061 46.5547 104.061 46.384H104.957V45.744H106.109C106.109 45.5733 106.088 45.424 106.045 45.296C106.045 45.1253 106.045 44.9547 106.045 44.784H106.621V43.824H105.597C105.597 43.6533 105.597 43.504 105.597 43.376C105.597 43.2053 105.618 43.0347 105.661 42.864H105.789V42.8C105.789 42.6293 105.789 42.48 105.789 42.352C105.832 42.224 105.853 42.0747 105.853 41.904H106.109C106.152 41.7333 106.173 41.584 106.173 41.456C106.173 41.2853 106.194 41.1147 106.237 40.944C106.28 40.8587 106.301 40.752 106.301 40.624C106.301 40.496 106.322 40.3893 106.365 40.304H106.045V39.984H106.429C106.472 39.7707 106.514 39.5573 106.557 39.344C106.6 39.088 106.642 38.8747 106.685 38.704H106.621C106.664 38.5333 106.706 38.384 106.749 38.256C106.792 38.0853 106.834 37.9147 106.877 37.744H107.389C107.474 37.5307 107.538 37.3173 107.581 37.104C107.666 36.848 107.752 36.6347 107.837 36.464H108.157L108.285 36.144H107.389C107.432 36.0587 107.474 35.952 107.517 35.824C107.56 35.696 107.602 35.5893 107.645 35.504L108.029 34.544C108.072 34.4587 108.093 34.3947 108.093 34.352C108.136 34.3093 108.178 34.2667 108.221 34.224L108.413 33.904C108.498 33.8187 108.562 33.712 108.605 33.584C108.69 33.456 108.776 33.3493 108.861 33.264C108.904 33.1787 108.946 33.1147 108.989 33.072C109.032 33.0293 109.074 32.9867 109.117 32.944H108.989L109.757 31.984C109.885 31.8987 109.992 31.792 110.077 31.664C110.205 31.536 110.312 31.4293 110.397 31.344H110.525C110.568 31.2587 110.61 31.1947 110.653 31.152C110.738 31.1093 110.802 31.0667 110.845 31.024H111.549C111.805 30.768 112.082 30.5547 112.381 30.384H110.781C110.952 30.256 111.122 30.1493 111.293 30.064C111.464 29.936 111.634 29.8293 111.805 29.744H112.253C112.85 29.4027 113.576 29.0827 114.429 28.784H116.541C118.077 28.3147 119.72 28.08 121.469 28.08C123.005 28.08 124.434 28.3147 125.757 28.784H123.645C124.328 28.9973 125.01 29.3173 125.693 29.744H125.309C125.48 29.8293 125.629 29.936 125.757 30.064C125.928 30.1493 126.098 30.256 126.269 30.384H127.805C127.976 30.4693 128.125 30.576 128.253 30.704C128.381 30.832 128.509 30.9387 128.637 31.024H127.933L128.253 31.344H128.189L128.765 31.984C128.85 32.0267 128.914 32.0907 128.957 32.176C129.042 32.2613 129.106 32.3467 129.149 32.432V31.984H129.405V31.344H130.493V31.024H131.197V30.384H128.061C128.061 30.128 128.125 29.9147 128.253 29.744H129.341C129.554 29.232 129.917 28.912 130.429 28.784H129.149C129.277 28.7413 129.448 28.72 129.661 28.72H140.861C141.074 28.72 141.224 28.7413 141.309 28.784H142.589C143.101 28.912 143.464 29.232 143.677 29.744H142.589C142.674 30 142.717 30.2133 142.717 30.384H145.853V31.024H145.149V31.344H144.061V31.984H143.805V32.944H143.869V33.904H143.805V35.504H143.869V36.144H144.765V36.464H144.381V37.744H143.805L143.869 38.704V40.304H143.677V40.944H143.485V41.904H143.869V42.864H144.637V43.824H143.293V44.784H143.741V45.744H143.869V46.384H141.757L141.821 47.344H142.077V48.624H143.485V49.264H144.637V50.544H143.805V51.824H143.549V52.464H139.133V52.784H143.805V54.064H143.933V55.344H143.037L143.101 56.624H140.157V56.944H145.341V58.224H143.037V58.864H144.253V60.144H143.101V60.464H144.317V60.784ZM122.749 48.624C123.048 48.9227 123.432 49.136 123.901 49.264H124.669C124.84 49.3067 125.01 49.3493 125.181 49.392C125.394 49.392 125.586 49.392 125.757 49.392C125.97 49.392 126.162 49.392 126.333 49.392C126.546 49.3493 126.738 49.3067 126.909 49.264H125.757C126.226 49.136 126.61 48.9227 126.909 48.624H125.501C125.842 48.2827 126.077 47.856 126.205 47.344H125.949L126.141 46.384H128.189C128.189 46.2987 128.21 46.2347 128.253 46.192V45.744H128.125V44.784H127.741V43.824H129.021V42.864H128.189V42.736C128.189 42.5653 128.168 42.416 128.125 42.288C128.125 42.16 128.104 42.032 128.061 41.904H127.741C127.698 41.5627 127.592 41.2427 127.421 40.944H127.549C127.421 40.688 127.272 40.4747 127.101 40.304H127.293C127.122 40.1333 126.994 40.0267 126.909 39.984C126.482 39.6853 125.864 39.536 125.053 39.536C124.242 39.536 123.624 39.6853 123.197 39.984H122.813C122.728 40.0267 122.6 40.1333 122.429 40.304H122.749C122.578 40.4747 122.429 40.688 122.301 40.944H122.237C122.194 41.072 122.152 41.2213 122.109 41.392C122.066 41.52 122.002 41.6907 121.917 41.904H121.661C121.618 42.0747 121.576 42.2453 121.533 42.416C121.533 42.544 121.533 42.6933 121.533 42.864H121.341V43.248C121.298 43.376 121.277 43.568 121.277 43.824H122.301V44.784H121.725C121.725 44.9547 121.725 45.1253 121.725 45.296C121.768 45.424 121.789 45.552 121.789 45.68V45.744H120.637L120.701 46.384H119.805L119.997 47.344H120.573C120.701 47.856 120.936 48.2827 121.277 48.624H122.749ZM129.085 58.224H129.661V57.776L129.085 58.224ZM149.31 23.344V22.064H149.246V21.104H149.822V20.784H150.206V19.504H149.886V18.544H149.95V17.264H150.206V16.304H150.078V15.728C150.078 15.3867 150.121 15.152 150.206 15.024H150.846L151.038 14.704H150.526C150.867 14.2347 151.337 14 151.934 14H162.75C163.347 14 163.817 14.2347 164.158 14.704H164.67L164.862 15.024H164.158C164.286 15.1947 164.35 15.4293 164.35 15.728V16.304H164.478V17.264H164.222V18.544H164.158V19.504H164.478V20.784H164.094V21.104H163.518V22.064H163.582V23.344H164.03V23.472C164.03 23.856 163.881 24.24 163.582 24.624H162.814C162.515 25.008 162.089 25.2 161.534 25.2H150.718C150.163 25.2 149.715 25.008 149.374 24.624H150.142C149.886 24.2827 149.758 23.8987 149.758 23.472V23.344H149.31ZM162.494 36.784H168.51V38.064H166.334V38.704H163.902V39.984H165.758V40.304H164.542V40.944H164.734V41.584H165.054V42.544H161.854V43.504H163.966V44.464H163.582V45.104H164.67V46.064H164.926V47.024H164.542V47.984H164.862V48.624H164.542V49.904H164.414V50.864H164.158V51.824H164.414V52.464H164.542V53.744H164.286V54.384H164.606V55.024H164.542V55.984H164.798V56.944H164.99V57.264H164.542V58.544H163.646V59.824H164.286V60.272C164.286 60.4853 164.265 60.656 164.222 60.784H163.774C163.646 61.2107 163.411 61.5307 163.07 61.744H164.35C164.137 61.9147 163.817 62 163.39 62H151.934C151.55 62 151.251 61.9147 151.038 61.744H149.758C149.374 61.5307 149.118 61.2107 148.99 60.784H149.438C149.395 60.656 149.374 60.4853 149.374 60.272V59.824H148.734V58.544H149.63V57.264H150.078V56.944H149.886V55.984H149.63V55.024H149.694V54.384H149.374V53.744H149.63V52.464H149.502V51.824H149.246V50.864H149.502V49.904H149.63V48.624H149.95V47.984H149.63V47.024H150.014V46.064H149.758V45.104H148.67V44.464H149.054V43.504H146.942V42.544H150.142V41.584H149.822V40.944H149.63V40.304H150.846V39.984H148.99V38.704H151.422V38.064H153.598V36.784H147.582V36.144H152.894V34.864H150.974V33.904H152.126V32.624H150.078V32.304H149.63V31.664H149.246V30.704H149.694V30.448C149.694 29.9787 149.801 29.6373 150.014 29.424H150.078C150.419 28.9547 150.889 28.72 151.486 28.72H162.942C163.539 28.72 164.009 28.9547 164.35 29.424H164.222C164.478 29.68 164.606 30.0213 164.606 30.448V30.704H164.158V31.664H164.542V32.304H164.99V32.624H167.038V33.904H165.886V34.864H167.806V36.144H162.494V36.784ZM210.945 57.264H220.481V58.544H215.041V59.504H214.145V60.144H210.177V60.464H212.161C212.076 61.0613 211.82 61.488 211.393 61.744H209.985C209.772 61.9147 209.452 62 209.025 62H196.801C196.417 62 196.118 61.9147 195.905 61.744H197.313C196.886 61.488 196.63 61.0613 196.545 60.464H194.497V60.144H198.465V59.504H199.361V58.544H204.801V57.264H195.265V55.984H197.633V55.664H195.521V55.024H195.585V54.384H194.561V53.104H195.393V51.824H192.769V50.544H193.409V49.264H196.353V47.984H195.649V47.344H195.393V47.024H195.137V46.064H195.521V45.744H195.841V45.104H195.777V44.464H195.585V43.824H192.897V43.184H193.601V43.056C193.601 42.8853 193.58 42.736 193.537 42.608C193.537 42.48 193.537 42.352 193.537 42.224H194.817C194.774 42.0107 194.732 41.84 194.689 41.712C194.646 41.5413 194.604 41.392 194.561 41.264H195.713C195.457 40.7093 195.094 40.2827 194.625 39.984H192.577C192.108 39.6853 191.489 39.536 190.721 39.536C189.953 39.536 189.356 39.6853 188.929 39.984H190.465C190.252 40.1547 190.038 40.3467 189.825 40.56C189.654 40.7307 189.526 40.9653 189.441 41.264H187.521C187.436 41.4347 187.35 41.7547 187.265 42.224H187.585C187.542 42.3947 187.521 42.672 187.521 43.056V43.184H187.073V43.824H189.185V44.464H189.313V45.104H189.121V45.744H188.673V46.064H188.225V47.024H188.929V47.344H189.377V47.984H189.121V49.264H190.785V50.544H188.993V51.824H189.313V53.104H188.609V54.384H189.377V55.024H189.313V55.344H189.505V55.664H193.025V55.984H194.497V57.264H190.529V58.544H190.657V59.504H188.225V60.144H190.977V60.464H191.681C191.596 61.0613 191.318 61.488 190.849 61.744H187.905C187.692 61.9147 187.393 62 187.009 62H174.849C174.465 62 174.166 61.9147 173.953 61.744H176.897C176.428 61.488 176.15 61.0613 176.065 60.464H175.361V60.144H172.609V59.504H175.041V58.544H174.913V57.264H178.881V55.984H177.409V55.664H173.889V55.344H173.697V55.024H173.761V54.384H172.993V53.104H173.697V51.824H173.377V50.544H175.169V49.264H173.505V47.984H173.761V47.344H173.313V47.024H172.609V46.064H173.057V45.744H173.505V45.104H173.697V44.464H173.569V43.824H171.457V43.184H171.905V42.224H171.585V41.264H173.505V39.984H171.905V39.024H173.313V38.384H173.697V37.424H173.441V36.464H173.505V34.864H173.825V34.224H173.761V33.264H174.593V32.944H174.081V31.984H174.849V31.664H172.289V31.024H174.145V30.064H177.601C177.686 29.808 177.772 29.5947 177.857 29.424H175.809C176.15 28.9547 176.62 28.72 177.217 28.72H188.417C189.014 28.72 189.484 28.9547 189.825 29.424H190.913C191.852 28.9973 192.854 28.6773 193.921 28.464C194.988 28.208 196.097 28.08 197.249 28.08C199.382 28.08 201.302 28.528 203.009 29.424H203.713C203.926 29.5093 204.118 29.616 204.289 29.744C204.46 29.8293 204.63 29.936 204.801 30.064H203.905C204.118 30.192 204.332 30.3413 204.545 30.512C204.758 30.64 204.95 30.8107 205.121 31.024H210.113C210.369 31.1947 210.582 31.408 210.753 31.664H207.233C207.276 31.7067 207.318 31.7493 207.361 31.792C207.404 31.8347 207.446 31.8987 207.489 31.984H208.385C208.513 32.1547 208.641 32.3253 208.769 32.496C208.897 32.624 209.004 32.7733 209.089 32.944H209.665L209.857 33.264H209.025L209.601 34.224H209.665C209.75 34.4373 209.857 34.6507 209.985 34.864H209.665C209.878 35.3333 210.049 35.76 210.177 36.144C210.177 36.1867 210.22 36.2933 210.305 36.464H210.241C210.326 36.6347 210.369 36.8053 210.369 36.976C210.412 37.104 210.454 37.2533 210.497 37.424H210.753C210.838 37.5947 210.881 37.7653 210.881 37.936C210.924 38.064 210.966 38.2133 211.009 38.384H210.561C210.646 38.64 210.689 38.8533 210.689 39.024H209.345C209.388 39.1947 209.409 39.3653 209.409 39.536C209.409 39.664 209.43 39.8133 209.473 39.984H211.521C211.564 40.1547 211.585 40.368 211.585 40.624C211.628 40.8373 211.649 41.0507 211.649 41.264H210.497V42.224H209.281V43.184H208.577V43.824H211.265V44.464H211.457V45.104H211.521V45.744H211.201V46.064H210.817V47.024H211.073V47.344H211.329V47.984H212.033V49.264H209.089V50.544H208.449V51.824H211.073V53.104H210.241V54.384H211.265V55.024H211.201V55.664H213.313V55.984H210.945V57.264ZM189.441 30.064H188.737C188.737 30.1067 188.737 30.1707 188.737 30.256C188.78 30.2987 188.801 30.3627 188.801 30.448V30.512C188.886 30.4267 188.993 30.3413 189.121 30.256C189.249 30.1707 189.356 30.1067 189.441 30.064ZM186.945 31.024V31.664H192.257L193.025 31.024H186.945ZM188.737 31.984V32.56C188.822 32.432 188.993 32.24 189.249 31.984H188.737Z" fill="#FCF551"/>
<defs>
<filter id="filter0_g_346_3" x="0.285108" y="7.05" width="219.482" height="73.4498" filterUnits="userSpaceOnUse" color-interpolation-filters="sRGB">
<feFlood flood-opacity="0" result="BackgroundImageFix"/>
<feBlend mode="normal" in="SourceGraphic" in2="BackgroundImageFix" result="shape"/>
<feTurbulence type="fractalNoise" baseFrequency="5 5" numOctaves="3" seed="901" />
<feDisplacementMap in="shape" scale="10.399999618530273" xChannelSelector="R" yChannelSelector="G" result="displacedImage" width="100%" height="100%" />
<feMerge result="effect1_texture_346_3">
<feMergeNode in="displacedImage"/>
</feMerge>
</filter>
</defs>
</svg>
