<?xml version="1.0" encoding="UTF-8"?>
<svg id="Layer_2" data-name="Layer 2" xmlns="http://www.w3.org/2000/svg" xmlns:xlink="http://www.w3.org/1999/xlink" viewBox="0 0 574.65 250.67">
  <defs>
    <style>
      .cls-1 {
        fill: none;
      }

      .cls-2 {
        fill: url(#linear-gradient-8);
      }

      .cls-3 {
        fill: url(#linear-gradient-7);
      }

      .cls-4 {
        fill: url(#linear-gradient-5);
      }

      .cls-5 {
        fill: url(#linear-gradient-6);
      }

      .cls-6 {
        fill: url(#linear-gradient-9);
      }

      .cls-7 {
        fill: url(#linear-gradient-4);
      }

      .cls-8 {
        fill: url(#linear-gradient-3);
      }

      .cls-9 {
        fill: url(#linear-gradient-2);
      }

      .cls-10 {
        fill: url(#linear-gradient);
      }

      .cls-11 {
        fill: url(#linear-gradient-10);
      }

      .cls-12 {
        fill: url(#linear-gradient-11);
      }

      .cls-13 {
        fill: url(#linear-gradient-12);
      }

      .cls-14 {
        fill: url(#linear-gradient-13);
      }

      .cls-15 {
        fill: url(#linear-gradient-19);
      }

      .cls-16 {
        fill: url(#linear-gradient-14);
      }

      .cls-17 {
        fill: url(#linear-gradient-21);
      }

      .cls-18 {
        fill: url(#linear-gradient-20);
      }

      .cls-19 {
        fill: url(#linear-gradient-15);
      }

      .cls-20 {
        fill: url(#linear-gradient-16);
      }

      .cls-21 {
        fill: url(#linear-gradient-17);
      }

      .cls-22 {
        fill: url(#linear-gradient-18);
      }

      .cls-23 {
        opacity: .33;
      }

      .cls-24 {
        clip-path: url(#clippath);
      }
    </style>
    <clipPath id="clippath">
      <rect class="cls-1" width="574.65" height="250.67"/>
    </clipPath>
    <linearGradient id="linear-gradient" x1="457.85" y1="2272.01" x2="355.9" y2="2203.49" gradientTransform="translate(0 2089.76) scale(1 -1)" gradientUnits="userSpaceOnUse">
      <stop offset="0" stop-color="#98e8f0"/>
      <stop offset="1" stop-color="#fcf5c5"/>
    </linearGradient>
    <linearGradient id="linear-gradient-2" x1="332.13" y1="2190.09" x2="251.39" y2="2135.81" xlink:href="#linear-gradient"/>
    <linearGradient id="linear-gradient-3" x1="246.06" y1="2150.91" x2="131.32" y2="2073.78" xlink:href="#linear-gradient"/>
    <linearGradient id="linear-gradient-4" x1="154.05" y1="2117.38" x2="18.31" y2="2026.13" xlink:href="#linear-gradient"/>
    <linearGradient id="linear-gradient-5" x1="53.1" y1="2081.44" x2="-86.39" y2="1987.68" xlink:href="#linear-gradient"/>
    <linearGradient id="linear-gradient-6" x1="658.28" y1="2588.28" x2="-1317.24" y2="1260.31" xlink:href="#linear-gradient"/>
    <linearGradient id="linear-gradient-7" x1="715.16" y1="2606.02" x2="-1241.71" y2="1290.59" xlink:href="#linear-gradient"/>
    <linearGradient id="linear-gradient-8" x1="766.54" y1="2618.87" x2="-1172.83" y2="1315.2" xlink:href="#linear-gradient"/>
    <linearGradient id="linear-gradient-9" x1="809.98" y1="2626.38" x2="-1111.1" y2="1335.01" xlink:href="#linear-gradient"/>
    <linearGradient id="linear-gradient-10" x1="848.88" y1="2635.91" x2="-1060.35" y2="1352.51" xlink:href="#linear-gradient"/>
    <linearGradient id="linear-gradient-11" x1="883.59" y1="2643.19" x2="-1014.14" y2="1367.51" xlink:href="#linear-gradient"/>
    <linearGradient id="linear-gradient-12" x1="916.31" y1="2647.19" x2="-974.23" y2="1376.35" xlink:href="#linear-gradient"/>
    <linearGradient id="linear-gradient-13" x1="950.76" y1="2648.68" x2="-935.49" y2="1380.72" xlink:href="#linear-gradient"/>
    <linearGradient id="linear-gradient-14" x1="987.66" y1="2649.58" x2="-898.57" y2="1381.64" xlink:href="#linear-gradient"/>
    <linearGradient id="linear-gradient-15" x1="1027.59" y1="2649.07" x2="-861.55" y2="1379.18" xlink:href="#linear-gradient"/>
    <linearGradient id="linear-gradient-16" x1="1070.02" y1="2647.97" x2="-824.85" y2="1374.24" xlink:href="#linear-gradient"/>
    <linearGradient id="linear-gradient-17" x1="1117.22" y1="2652.17" x2="-787.69" y2="1371.67" xlink:href="#linear-gradient"/>
    <linearGradient id="linear-gradient-18" x1="1166.03" y1="2663.28" x2="-750.37" y2="1375.06" xlink:href="#linear-gradient"/>
    <linearGradient id="linear-gradient-19" x1="1220.25" y1="2678.65" x2="-710.48" y2="1380.79" xlink:href="#linear-gradient"/>
    <linearGradient id="linear-gradient-20" x1="1279.73" y1="2698.74" x2="-665.36" y2="1391.22" xlink:href="#linear-gradient"/>
    <linearGradient id="linear-gradient-21" x1="1344.93" y1="2722.69" x2="-613.38" y2="1406.3" xlink:href="#linear-gradient"/>
  </defs>
  <g id="Layer_1-2" data-name="Layer 1">
    <g class="cls-24">
      <g class="cls-23">
        <rect class="cls-1" x="-1547.99" y="-292.3" width="3129" height="789" transform="translate(-54.21 26.6) rotate(-33.91)"/>
        <path class="cls-10" d="M574.62-8.49c-3.99.27-7.42,1.37-12.84,2.61-43.62,6.43-81.41,2.91-101.89-18.26-8.69-9.82-15.38-19.78-19.76-32.5-5.97-21.29-10.83-40.92-16.8-62.2-4.06-15.34-11-28.76-16.49-43.14-1.91-5.95-6.7-9.96-10.04-14.94-11.87-26.96-33.23-46.34-57.15-66.41-28.46-20.63-58.11-36.85-93.51-49.2-2.31,2.76-3.75,3.73-6.62,5.65,55.49,20.54,101.72,52.11,132.17,94.3,24.63,30.44,37.77,68.59,46.61,109.65.48,6.91.95,13.82,4.86,19.63,1.12,1.66.24,3.45-.08,6.08,6.85,19.49,14.02,36.36,29.49,50.07,7.33,4.71,14.67,9.42,24.32,11.37,22.96,6.25,48,6.29,78.54-.98,6.86-2.2,13.48-7.85,19.22-11.71l-.03-.02h0Z"/>
        <path class="cls-9" d="M420.87,85.23c-3.43,1.1-4.54-.56-7.1-1.25-64.9,2.66-90.8-38.97-90.15-87.61,1.29-53.89-2.28-105.71-26.19-147.47-24.47-42.6-64.16-73.75-116.54-92.76l-7.18,4.83c14.43,5.96,26.87,12.06,38.98,20.79.56.83,4.54.56,5.1,1.39,34.68,23.68,61.06,50.53,77.08,86.76,17.37,41.34,13.84,91.91,16.62,139.44-.72,11.33,0,21.69,2.7,31.92,5.74,17.83,15.78,32.77,33.88,41.09,10.44,6.23,24.32,11.37,40.26,10.29,7.33,4.71,21.05.31,32.53-7.41h0Z"/>
        <path class="cls-8" d="M279.96,154.65c-18.74-3.07-31.73-10-45.84-18.59-9.01-7.2-14.59-15.5-19.29-25.59-.8-4.29-2.47-6.78-3.27-11.06-2.63-16.31-4.69-31.79-.46-50.3,3.04-14.09,3.76-25.42,6.79-39.51,8.07-50.01,6.41-95.88-14.15-132.67-20-35.96-53.48-64.06-97.65-80.16-1.99.13-6.3,3.03-9.73,4.13,6.78,3.88,12.99,6.93,21.21,9.84,19.21,9.98,35.55,21.89,49.58,36.56,17.93,20.48,32.44,42.06,38.89,70.25,3.18,17.14,4.38,34.41,4.13,52.65.56.83-2.31,2.76-1.76,3.59.8,4.28-.4,8.7.4,12.99-5.12,42-18.21,84.53-10.16,121.3,2.39,12.85,8.52,21.98,16.1,30.15,13.79,11.21,29.34,18.84,49.19,23.57,5.74-3.86,10.61-5.93,16.03-7.16h0Z"/>
        <path class="cls-7" d="M152.37,206.68c-13.55-7.76-27.98-13.72-37.79-25.21-9.8-11.48-14.74-25.03-17.37-41.34-1.19-17.27,1.05-35.65,4.72-54.99,9.34-38.81,20.36-75.13,21.96-109.95-.08-15.61-1.59-30.26-5.09-44.78-5.18-17-13.23-32.08-24.15-45.22-11.8-11.35-23.04-21.87-37.7-31.29-10.44-6.23-23.2-9.71-34.2-16.77-4.78-4.01-11.96.81-18.82,3.01,53.81,18.05,94.63,50.86,105.3,103.93,8.2,46.3-7.84,96.85-21.65,150.71-6.95,29.97-6.71,55.12,3.25,76.14,9.16,16.73,24.07,29.61,43.28,39.59,3.67,2.35,12.84-2.6,18.26-3.84h0Z"/>
        <path class="cls-4" d="M40.01,247.26C15.46,232.44.08,212.65-7.81,185.42-19.12,137.59,9.53,80.99,18.79,26.56c4.39-30.67,3.05-57.48-8.03-80.15C1.04-71.15-11.55-86.79-29.89-98.56c-16.66-9.28-34.2-16.77-53.18-23.3-5.1-1.39-13.4,1.78-19.7,4.81,24.96,6.12,47.6,15,67.05,28.43,9.01,7.2,16.02,14.53,23.04,21.87C-2.87-55.27,1.51-42.55,5.57-27.21,8.52-13.52,8.91-.54,7.87,13.42c-2.56,21-5.67,41.17-13.65,63.4-.32,2.62.24,3.45-1.52,7.04-.88,1.79,1.12,1.66.24,3.45-.32,2.62-3.19,4.55-3.51,7.18-.32,2.62.24,3.45-1.52,7.04-.88,1.79,1.12,1.66.24,3.46-.32,2.62-3.19,4.55-3.51,7.18-1.6,13.12-7.18,26.52-5.35,38.54.56.83-2.31,2.76-1.76,3.59-2.01,43.52,13.45,78.92,52.2,96.25.56.83,6.3-3.03,10.29-3.3h-.01Z"/>
        <path class="cls-5" d="M527.31-680.36c-22.44,103.04-53.72,208.42-137.16,319.93-20.26,25.67-41.64,49.68-68.99,74.09-15.55,14.07-32.22,26.48-48.89,38.89-65.48,45.22-135.57,74.26-205.9,99.85-3.43,1.1-8.85,2.33-12.28,3.43-28.31,10.6-55.74,19.39-84.05,29.99-3.43,1.1-7.74,4-11.16,5.1C-182.03-61.36-320.87,1.85-454.29,85.51c-45.06,29.08-88.12,58.03-130.95,90.44-52.32,39.99-99.21,78.74-146.75,122.74-46.1,43.04-88.21,85.81-128.09,131.89-10.69,12-21.93,23.18-32.06,36.01-.88,1.8-3.19,4.55-4.07,6.35-42.75,48.02-75.54,95.36-110.95,148.09-22.34,31.88-40.37,60.87-56.72,92.35-2.32,2.76-3.19,4.55-5.51,7.31-56.56,101.88-95.98,198.27-122.88,294.67,6.94-8.28,10.45-15.46,10.85-24.16,1.52-7.04,5.91-16.02,8.86-24.03l.96-7.87c17.48-51.51,36.31-97.91,60.33-148.99,6.46-15.19,13.48-29.55,21.94-44.87,117.43-228.35,311.65-454.1,564.38-630.01C-369.59,28.58-201.49-53.1-32.6-108.79c3.43-1.1,7.74-4,11.16-5.1,27.43-8.8,52.31-18.29,79.18-27.93,3.43-1.1,7.42-1.37,12.28-3.43,42.9-16.79,82.93-31.65,127.03-52.86l5.74-3.86c39.24-19.14,75.68-42.44,110.77-70.85,37.4-31.17,66.28-62.63,92.36-98.23,78.57-109.45,112.33-208.05,130.46-308.2.32-2.62-5.1-1.39-9.09-1.12h.02Z"/>
        <path class="cls-3" d="M607.12-670.15c-8.78,17.95-10.14,34.53-16.92,52.34-9.42,23.2-15.4,45.3-26.25,69.46-12.61,27.75-24.34,53.71-39.49,80.77-.88,1.79-3.75,3.73-4.63,5.52-17.79,32.44-36.7,63.23-63.02,95.38l-9.57,13.66c-.88,1.8-4.31,2.9-5.18,4.69-31.83,39.47-70.43,75.05-113.26,107.46-41.95,30.61-84.93,53.48-131.58,73.99-1.44.96-3.99.27-5.42,1.24C101.36-126.54,15.72-105.12-73.19-73.07c-9.73,4.13-20.02,7.43-29.74,11.56-3.43,1.1-7.42,1.37-12.28,3.44C-210.43-22.99-303.49,21.5-396.95,74.68l-14.36,9.65c-267.87,159.58-482.59,385.85-612.3,617.64-2.32,2.76-3.2,4.55-5.51,7.31-23.05,43.21-44.68,85.46-63.75,128.4-18.19,41.15-30.64,78.43-43.96,117.52,2.31-2.76,6.62-5.65,7.49-7.45,15.73-47.92,34.24-91.69,53.95-139.89,2.63-5.39,5.82-9.94,8.45-15.32,12.93-30.38,30.96-59.37,45.88-89.88,2.31-2.76,3.19-4.55,5.5-7.32,91.51-161.52,214.42-310.42,382.46-451.09,115.09-95.44,233.91-172.9,366.77-235.7C-124.3-59.19,8.46-94.22,146.26-143.47c30.3-10.73,58.61-21.33,88.12-36.34,39.23-19.14,73.37-39.68,108.14-65.46,31.9-23.85,60.13-50.06,86.69-78.76,33.5-36.98,60.46-74.38,85.75-114.27,3.51-7.18,7.58-13.53,12.53-21.67,17.79-32.44,32.39-60.33,46.19-92.5,2.95-8.01,5.9-16.02,10.29-24.99,12.37-31.21,23.86-60.62,29.37-89.63.88-1.79-5.1-1.39-6.22-3.05h0Z"/>
        <path class="cls-2" d="M673.53-658.16c-18.27,47.23-34.55,94.32-63.67,144.01-.88,1.8-1.2,4.42-2.07,6.22-35.58,64.89-77.7,129.35-135.13,189.64-.88,1.79-1.76,3.59-3.19,4.55-6.62,5.65-11.8,10.35-17.86,16.83-.88,1.79-1.76,3.59-3.19,4.55-31.98,29.93-65.64,57.38-102.96,82.47-96.74,63.82-198.73,95.03-299.84,124.44C-96.32-45.47-233.56,4.61-373.76,84.39c-142.51,82.54-269.32,182.24-378.11,296.34-161.59,168.87-272.16,351.64-332.26,525.78,2.88-1.93,5.75-3.86,6.62-5.65,49.4-140.45,124.31-273.94,233.99-411.53,93.16-115.64,204.98-222.14,334.26-315.06C-369.92,74.59-219.29,1.04-66.98-48.33,85.33-97.69,242.17-124.8,385.89-233.46c127.92-98.04,205.22-218.68,259.72-336.04,5.58-13.39,11.73-25.96,17.31-39.35.32-2.62,1.2-4.42,1.52-7.04,7.02-14.36,12.61-27.75,16.2-41.01-1.12-1.66-3.67-2.36-7.1-1.26h-.01Z"/>
        <path class="cls-6" d="M730.86-647.3c-5.9,16.02-12.37,31.21-19.71,48.19-3.51,7.18-7.58,13.53-11.09,20.71-41.01,87.81-94.78,172.15-170.15,255.35-24.25,25.94-48.17,49.25-77.52,73.8-15.23,11.44-28.47,22.75-42.27,33.23-16.67,12.41-32.46,23.02-50.24,33.77s-34.69,19.7-53.03,29.62c-32.93,16.11-64.43,31.26-96.73,42.13-32.29,10.86-64.59,21.73-97.44,31.76l-5.98.41c-29.42,8.93-55.98,15.94-85.96,24.05C-74.08-27.89-162.68,1.54-257.73,46.16c-98.49,45.72-188.28,101.26-275.37,167.03-249.23,190.43-420.33,431.96-502.13,654.43l5.74-3.86c70.55-189.6,191.96-374.84,379.23-548.92,114.37-105.8,239.58-192.38,381.05-260.96,1.43-.96,5.42-1.24,6.86-2.2C-141.78-7.68-31.58-35.97,86.35-68.26c64.83-18.28,127.11-37.25,192.1-67.68,3.43-1.1,7.41-1.37,11.72-4.26,16.35-9.78,31.5-15.15,47.85-24.93,12.04-6.89,23.53-14.61,35.57-21.5,17.78-10.75,34.45-23.16,51.12-35.57,15.23-11.44,29.91-23.72,44.58-35.99,82.63-72.41,138.86-149.98,188.56-227.97,3.27-10.64,13.08-20.84,18.35-31.61.88-1.79,1.2-4.42,2.08-6.21,6.38-9.11,11.33-17.25,15.71-26.23,3.83-9.8,8.78-17.95,13.17-26.92,9.41-23.2,21.94-44.87,29.36-67.93.88-1.79-3.11-1.52-5.66-2.22v-.02h0Z"/>
        <path class="cls-11" d="M781.09-637.68c-63.35,141.39-156.69,290.89-312.84,415.13-62.69,49.37-130.07,88.64-200.17,117.69-55.5,22.85-106.93,39.35-162.04,53.49-23.12,5.91-44.26,11.68-67.38,17.58l-5.98.41C-4.72-23.91-38.13-14.7-73.85-2.74c-20.57,6.6-41.71,12.37-61.72,19.8-21.45,8.39-41.47,15.82-62.92,24.22-19.46,8.26-38.36,17.35-57.82,25.61-36.36,17.21-70.18,35.12-104.87,54.83l-53.35,32.25c-284.39,181.53-486.83,447.75-576.53,686.37l5.74-3.86c21.23-55.24,46.68-107.29,77.31-164.03,2.31-2.76,3.19-4.55,5.5-7.32,21.62-42.25,50.02-80.61,80.49-125.2,2.31-2.76,3.75-3.73,6.06-6.48,70.75-99.37,153.54-183.94,255.71-270.69l7.18-4.82c76.25-63.3,152.89-113.62,240.29-160.32C-205.03,40.86-105.83,5.5,2.38-22.65c137.31-34.47,272.87-65.34,403.18-150.53,63.72-41.63,119.87-91.42,171.79-144.4,2.31-2.76,4.07-6.35,7.82-10.07,29.99-29.8,52.88-60.85,77.21-92.87,7.82-10.07,14.2-19.18,21.46-30.09,42.12-64.46,77.62-123.27,103.79-186.65-.56-.83-4.55-.56-6.54-.42Z"/>
        <path class="cls-12" d="M825.66-630.29c-16.44,37.56-37.98,73.72-59.84,112.52-7.58,13.53-17.71,26.36-25.84,39.06-64.22,99.8-141.67,189.21-245.18,270.85-83.1,65.5-173.38,114.14-266.83,145.63-17.14,5.5-35.17,12.79-52.87,17.46l-5.98.41c-8.85,2.34-18.58,6.46-27.43,8.8l-26.55,7.01c-7.42,1.37-12.84,2.61-20.25,3.98-5.42,1.24-8.29,3.16-13.72,4.4C30.36-8.93-13.01.95-63.01,16.48c-4.86,2.06-8.85,2.34-12.84,2.61-15.71,4.53-31.42,9.07-48,15.4-11.16,5.09-23.44,8.53-35.17,12.79-3.43,1.1-4.31,2.89-7.74,3.99-212.44,77.73-412.77,229.27-556.42,396.93-.88,1.79-3.19,4.55-4.07,6.35-6.06,6.48-10.69,12.01-16.75,18.49-22.02,29.26-42.83,54.1-63.73,85.01-19.14,27.33-33.1,49.97-50.81,76.33-3.19,4.55-4.39,8.97-7.02,14.36-2.31,2.76-3.19,4.55-5.5,7.32-11.09,20.71-21.86,38.79-31.51,58.54-11.09,20.71-19.31,39.49-28.96,59.23-6.46,15.19-14.92,30.51-17.4,45.43,1.43-.97,3.43-1.1,3.43-1.1,16.76-40.18,34.07-79.54,54.81-119.99,2.63-5.39,6.38-9.11,9.01-14.49,112.97-213.3,308.7-424.4,568.91-564.37,53.59-28.79,107.1-51.51,160.29-71.6C-48.98,9.46,45.99-7.39,148.78-34.31c91.38-25.28,182.05-60.92,268.42-115.37,85.81-55.27,162.38-121.2,225.39-194.88,5.18-4.69,11.25-11.17,15.87-16.69,25.44-30.36,46.58-57.82,68.92-89.7,43.24-62.8,74.99-117.88,104.83-178.91-.56-.83-4.54-.56-6.54-.42h-.01Z"/>
        <path class="cls-13" d="M866.56-625.25c-93.82,185.97-247.93,390.78-483.82,520.43C303.07-62.11,228.43-33.63,148.77-12.61,82.82,4,24.93,14-39.89,32.27c-70.81,18.68-137.39,40.55-208.13,74.84-1.43.97-5.42,1.24-6.86,2.2-175.52,83.04-326.25,206.06-443.35,345.01-.88,1.8-3.19,4.55-4.07,6.35-22.81,24.97-40.2,48.71-59.34,76.04-2.31,2.76-3.75,3.72-6.06,6.48-63.26,91.92-110.48,176.69-143.52,263.96,1.44-.97,3.43-1.1,4.87-2.07,15.08-42.67,35.83-83.12,57.45-125.37,5.82-9.94,12.21-19.05,16.04-28.85.88-1.79,3.19-4.55,5.5-7.31,23.29-39.76,46.27-76.89,76.1-116.22,3.19-4.55,4.95-8.14,8.14-12.7l51.21-63.34c10.69-12.01,19.94-23.04,30.63-35.05,39.56-43.46,79.92-82.64,127.69-123.19l7.18-4.82c110.22-93.37,232.39-165.86,359.34-212.64,3.43-1.1,4.31-2.89,7.73-3.99,37.16-12.93,72.88-24.89,111.72-35.33C18.31,19.65,76.2,9.66,141.59-7.79c43.7-12.51,87.4-25.01,131.18-43.59,4.86-2.06,8.85-2.33,13.71-4.4,102.71-42.53,198.25-101.94,286.06-179.04,118.91-105.24,201.47-214.96,266.49-332.16,2.31-2.76,3.19-4.55,5.5-7.32l10.53-21.54c5.82-9.94,12.21-19.05,16.04-28.85-.56-.83-2.55-.7-4.54-.56h0Z"/>
        <path class="cls-14" d="M903.24-623.4c-16.67,34.1-36.46,66.68-57.12,101.05-13.08,20.84-25.29,39.89-40.36,60.87-69.56,94.95-143.26,180.64-242.79,262.01-51.2,41.65-104.32,77.35-161.65,109.87C311.59-40.13,224.67-8.21,132.18,15.41,57.38,34.36-7.61,43.1-82.16,65.51c-50.56,14.71-98.88,32.73-150.4,55.31-73.84,32.77-143.54,74.8-209.34,122.64l-41.39,31.44c-56.39,46.34-106.23,93.1-153.29,144.01-6.06,6.48-10.69,12-16.75,18.49-13.88,16.56-26.88,31.32-40.2,48.71s-25.76,32.98-38.53,51.2c-23.21,33.68-41.8,61.84-61.58,94.41-34.06,57.84-58.96,110.72-80.5,168.58l3.99-.27c11.49-29.41,23.54-58,37.9-89.34,3.51-7.18,9.01-14.49,12.53-21.67,25.13-49.43,51.06-94.57,86.16-144.67,71.63-101.17,152.19-189.06,257.14-271.66,91.16-72.12,188.93-128.2,290.76-168.94,45.77-18.72,90.35-33.02,136.6-44.83C49.41,34.9,137.75,23.71,235.84-13.31c10.29-3.3,19.14-5.64,28.87-9.76,3.43-1.1,4.31-2.89,7.74-3.99,113.23-42.38,220.82-108.67,318.67-192.53,78.88-68.69,141.25-137.12,197.49-214.69,2.31-2.76,3.75-3.73,6.06-6.49,45.23-62.94,82.72-121.88,112.56-182.9l-3.99.27h0Z"/>
        <path class="cls-16" d="M939.12-625.83c-46.67,85.59-100.76,172.56-173.58,256.45-.88,1.8-3.19,4.55-4.07,6.35-14.44,15.73-28.31,32.29-42.75,48.02-2.31,2.76-4.31,2.89-6.62,5.65-85.18,93.41-189.58,176.84-308.24,242.15C323.31-22.7,245.24,6.88,163.27,30.66c-19.14,5.63-35.96,8.51-55.1,14.15l-5.98.41c-5.42,1.24-8.29,3.16-13.72,4.4C1.48,65.91-77.54,81.68-163.9,114.43c-22.89,9.36-44.34,17.76-66.67,27.94-30.62,13.35-60.13,28.37-89.95,46.01-77.44,46.03-147.54,96.77-211.5,156.63-66.28,62.63-120.6,124.44-169.33,194.56-18.27,25.53-32.23,48.17-46.51,73.43l-9.57,13.66c-22.74,40.59-42.04,80.08-60.79,120.39-.32,2.62-.64,5.25-1.52,7.04-7.9,16.15-12.05,28.58-17.95,44.6l3.99-.27c19.71-48.19,37.98-95.42,65.11-144.98,21.86-38.79,43.96-74.13,71.24-114.16,6.38-9.11,11.89-16.42,18.27-25.53,2.31-2.76,3.75-3.73,6.06-6.48,80.01-110.41,184.89-208.63,308.02-288.99,67.15-42.73,135.89-76.89,207.66-103.44,20.01-7.43,38.6-13.89,57.73-19.53C-29.94,74.98,29.94,64.85,100.99,49.63c5.42-1.24,8.29-3.17,13.72-4.4,67.06-14.96,128.22-35.59,194.89-63.53,22.33-10.19,43.22-19.41,64.99-30.43,26.08-13.91,49.28-25.9,72.81-40.51,153.76-93.72,280.01-215.94,378.29-351.89,2.31-2.76,3.75-3.72,6.06-6.48,43.79-61.97,80.41-119.12,110.8-179.31-1.44.97-1.99.14-3.43,1.1h0Z"/>
        <path class="cls-19" d="M972.21-632.41c-93.74,179.89-242.5,367.85-445.87,511.78-28.15,20.13-56.54,36.8-85.81,55.27-19.22,11.71-39.55,21.77-59.89,31.82-43.54,22.04-84.21,42.15-128.79,56.45-3.43,1.1-4.31,2.89-7.74,3.99-51.43,16.5-98.88,32.73-150.23,43.15-5.42,1.23-8.29,3.16-13.72,4.4-35.08,6.72-65.31,11.37-100.71,20.71-5.42,1.24-9.41,1.51-13.4,1.78-5.42,1.24-8.29,3.17-13.72,4.4-29.1,6.31-55.1,14.14-83.97,23.91-3.43,1.1-4.31,2.89-7.74,4-68.58,22-134.45,54.23-198.73,95.03-216.6,133.55-360.34,328.98-437.34,512.07-2.63,5.39-5.82,9.94-7.02,14.36-4.79,17.68-14.68,33.97-18.04,50.68.56.83,2.55.7,4.54.56,8.94-30.11,23.3-61.45,35.67-92.66,8.22-18.78,18.99-36.86,27.21-55.64,53.45-103.41,126.76-202.09,224.46-295.48,98.26-92.56,216.53-170.86,340.61-215.71,3.43-1.1,4.31-2.9,7.74-3.99,35.72-11.97,69.46-23.79,104.86-33.14,73.36-17.98,136.91-25.76,209.48-48.03l5.98-.41c65.15-20.9,126.87-40.7,192.18-73.76,1.43-.96,5.42-1.24,6.86-2.2,291.55-142.97,501.96-388.03,617.97-615.42-1.44.97-3.43,1.1-4.86,2.07h.02Z"/>
        <path class="cls-20" d="M1007.38-645.2c-25.14,49.43-52.82,98.16-89.35,149.23-2.31,2.76-1.2,4.42-3.51,7.18-29.27,40.16-54.24,77.43-87.74,114.41-.88,1.79-3.19,4.55-4.07,6.35-13.56,13.93-24.01,29.39-37.57,43.33-10.37,9.38-18.18,19.45-27.99,29.66-25.68,26.9-51.05,51.18-79.28,77.39-19.3,17.79-38.28,32.96-58.14,49.93-46.02,36.96-90.84,69.5-139.33,99.68C414.13-27.12,345.94,7.87,275.29,36.09c-39.47,15.69-76.63,28.62-116.9,40.02-63.39,17.31-121.04,30.76-184.36,41.99-5.42,1.24-8.29,3.17-13.72,4.4l-5.98.4-26.55,7c-117.94,32.29-232.77,87.79-336.29,169.43-77.36,61.64-139.97,126.62-195.01,199.77-25.21,33.81-44.11,64.6-65.33,98.14-.88,1.8-1.2,4.42-2.07,6.22-7.26,10.9-13.08,20.84-19.78,32.58-8.78,17.95-18.11,35.07-26.33,53.85-18.19,41.15-34.63,78.7-44.85,119.31.56.83,2.55.7,4.55.56,53-175.4,172.34-376.12,376.66-527.92C-271.49,202.41-154.99,149.4-32.59,123.76c116.42-25.24,220-47.88,336.75-97.44,48.64-20.65,93.62-43.65,140.35-70.25,52.47-30.45,99.29-63.13,147.86-99.39,4.31-2.9,6.06-6.49,10.37-9.38,12.36-9.51,23.29-18.06,35.09-28.41l7.18-4.82c67.07-58.34,121.31-114.08,175.63-175.89.88-1.8,3.19-4.56,4.07-6.35,38.13-42.5,66.84-83.49,98.19-129.87,35.98-51.9,63.34-98,87.91-148.26-1.43.97-1.99.14-3.42,1.1h-.01Z"/>
        <path class="cls-21" d="M1043.18-663.25C930.29-434.33,726.73-191.47,448.57-28.58,347.93,29.43,247.21,71.83,144.11,101.37c-3.99.27-7.97.54-12.84,2.61-13.71,4.4-25.99,7.84-38.83,10.44-5.42,1.24-8.29,3.17-13.72,4.4l-5.98.4c-42.26,11.54-79.9,17.56-122.72,28.27-5.42,1.24-8.29,3.16-13.72,4.4l-5.98.41c-15.15,5.36-29.98,8.1-46.01,15.26-6.86,2.2-12.28,3.43-19.14,5.64-30.3,10.73-59.49,23.12-90.43,39.1-11.16,5.1-22.33,10.19-32.93,16.11l-7.18,4.83c-162.2,87.35-279.77,219.39-357.23,352.2-4.39,8.97-9.33,17.12-14.28,25.26-.88,1.79-1.2,4.42-2.07,6.21-14.84,24.43-24.81,46.8-35.66,70.97-19.95,44.74-33.59,86.44-45.57,130.64.56.83,3.11,1.52,5.1,1.39.88-1.79,3.19-4.55,3.51-7.18,10.94-51.94,31.53-101.92,55.86-155.63,28.08-57.44,58.4-111.55,103.55-168.41l2.63-5.39c74.42-97.02,168.05-184.06,285.28-248.4,71.37-39.54,141.15-65.96,214.51-83.95,5.42-1.24,12.28-3.43,19.14-5.64l5.98-.4c5.42-1.24,9.73-4.13,13.72-4.4,7.97-.54,16.82-2.88,25.68-5.21,22.25-4.11,41.94-8.91,63.63-13.86,5.42-1.24,8.29-3.16,13.72-4.4l5.98-.4c11.72-4.26,21.13-5.77,32.85-10.04l5.98-.4c49.12-13.74,96.01-30.8,143.77-49.65,67.22-27.11,133.97-61.14,198.81-101.11,59.97-37.9,116.27-78.16,172.66-124.5,72.5-59.58,132.24-122.63,190.3-188.17.88-1.8,3.19-4.55,4.07-6.35,40.44-45.26,69.47-88.87,104.25-136.35,2.31-2.76,1.2-4.42,3.51-7.18,37.73-55.49,66.29-106.01,93.18-159.03l-4.31,2.9h0Z"/>
        <path class="cls-22" d="M1081.38-690.13c-74.36,156.02-185.16,313.64-337.33,459.31-7.5,7.45-16.99,15.04-24.49,22.48C591.08-89.43,442.98,6.5,286.2,70.92c-4.86,2.06-10.29,3.3-15.15,5.36C176.64,115.66,89.56,138.04-4.61,159.17c-48.24,11.95-92.5,23.62-140.26,42.48-24.32,10.32-49.2,19.82-73.84,32.77-40.11,20.94-77.67,42.57-113.88,69.32-12.36,9.51-23.29,18.06-35.65,27.58-12.36,9.51-20.74,18.76-32.54,29.1-44.9,38.62-79.28,77.39-112.3,121.28l-2.63,5.39c-10.13,12.83-18.83,24.7-28.4,38.37-10.77,18.08-22.65,34.51-31.99,51.63-6.14,12.56-13.4,23.47-19.55,36.03-1.2,4.42-2.95,8.01-6.14,12.56-.88,1.79-1.2,4.42-2.07,6.22-.88,1.79-3.19,4.55-4.07,6.35-.88,1.79-1.2,4.42-2.08,6.21-.88,1.8-3.19,4.55-4.07,6.35-1.2,4.42-2.95,8.01-4.15,12.43-.88,1.79-3.19,4.55-4.07,6.35-24.65,56.34-41.57,108.68-49.96,161.31.56.83,3.11,1.52,5.1,1.39,25.23-120.59,77.9-249.97,181.19-378.45,3.75-3.73,6.06-6.48,9.81-10.21,55.83-68.86,127.21-130.1,208.96-179.02,73.13-43.13,147.21-72.45,223.44-92.36,85.64-21.42,165.54-38.98,250.15-68.14C346.73,55.54,484.29-18.86,609.9-114.14c151.77-115.27,267.58-243.73,367.69-389.35,2.31-2.76,1.2-4.42,3.51-7.18,3.19-4.56,7.82-10.07,11.01-14.63,36.06-57.98,66.37-112.09,93.58-167.73l-4.31,2.89h0Z"/>
        <path class="cls-15" d="M1121.1-724.06c-8.54,21.4-19.63,42.11-30.16,63.65-8.46,15.32-16.35,31.48-24.81,46.8-2.63,5.38-7.26,10.9-10.45,15.46-23.06,43.21-49.46,81.44-78.5,125.06-22.33,31.88-44.03,58.52-67.48,88.74-78.97,96.46-168.93,185.85-275.32,269.42l-12.92,8.68C442.33,33.45,245.12,121.43,42.19,169.88c-1.99.14-4.31,2.9-6.3,3.03-27.11,6.18-50.24,12.08-76.79,19.09-31.42,9.07-61.72,19.8-93.46,31.49-4.87,2.07-7.74,4-12.6,6.06-1.44.97-3.99.27-5.42,1.24-56.38,24.65-111.4,54.4-162.29,93.43-67.55,51.43-120.67,108.83-166.78,173.56-2.63,5.38-7.82,10.07-10.45,15.46-1.76,3.59-3.51,7.18-7.26,10.9l-2.63,5.39c-.88,1.79-3.75,3.72-4.63,5.52l-5.27,10.77c-.88,1.79-3.75,3.72-4.63,5.52-17.23,33.27-37.02,65.85-48.27,98.72-.88,1.79-3.19,4.55-4.07,6.35-26.49,66.01-43.81,127.05-51.17,187.42,1.12,1.66,5.1,1.39,7.65,2.09-.63-16.44,5.59-35.09,7.83-53.46,2.48-14.92,6.95-29.97,10.86-45.86,7.82-31.77,19.32-61.18,32.56-94.18,6.14-12.56,10.85-24.16,15.56-35.76,4.95-8.14,8.46-15.32,11.41-23.33,9.33-17.12,19.23-33.41,28.56-50.53,9.89-16.29,19.46-29.95,30.79-47.21,37.41-52.86,76.97-96.32,129.37-142.39,76.57-65.93,160.22-108.9,247.7-139.99,8.29-3.17,17.14-5.5,26-7.84,64.59-21.73,126.79-34.62,193.05-53.86,41.7-12.37,83.17-28.19,125.19-43.19,13.16-5.23,27.75-11.42,40.91-16.65,115.31-48.59,227.43-114.33,331.19-192.51,205.52-156.23,357.95-341.83,460.94-532.76,1.76-3.59,1.2-4.42,2.95-8.01,17.47-29.82,29.52-58.4,43.56-87.12-1.43.97-3.74,3.72-5.18,4.69l.03-.02h0Z"/>
        <path class="cls-18" d="M1163.21-766.83c-21.78,54.41-49.55,109.22-80.74,165.13-2.31,2.76-3.19,4.55-5.5,7.32-20.98,37-43.08,72.33-70.04,109.74-2.32,2.76-1.2,4.42-3.51,7.18-29.83,39.33-56.24,77.57-89.74,114.54-.88,1.8-3.19,4.56-4.07,6.35-6.94,8.28-15.87,16.69-22.81,24.97-.88,1.8-3.19,4.56-4.07,6.35-51.68,56.43-103.61,109.41-166.05,162.23-10.37,9.38-19.3,17.79-28.79,25.38-5.74,3.86-12.36,9.51-17.55,14.2l-7.18,4.82c-103.28,85.09-212.86,151.52-331.68,207.29C201.5,149.55,81.02,181.14-46.09,218.38c-24,7.7-48,15.4-71.77,26.56-1.44.96-3.99.27-5.42,1.24-54.94,23.68-109.09,51.64-158.54,89.7-43.7,34.2-81.75,70.62-114.45,111.88-.88,1.8-4.31,2.89-5.18,4.69-63.09,79.77-99.95,155.15-126.37,236.77-19.31,61.18-29.14,114.78-30.43,168.66,1.12,1.66,5.1,1.39,7.65,2.09,3.76-47.11,7.2-91.6,23.57-144.77,1.2-4.42.96-7.88,2.16-12.29,28.34-97.37,74.53-189.87,156.28-282.18,48.81-54.5,110.06-102.9,179.13-139.69,23.21-11.99,45.53-22.17,67.86-32.36,18.02-7.29,34.61-13.62,53.19-20.09,54.86-17.6,105.98-31.47,159.96-47.28l61.72-19.8c22.01-7.57,42.02-14.99,64.03-22.56,36.6-13.76,72.09-29.18,108.45-46.39,54.39-24.51,103.67-50.41,154.15-80.73,102.4-61.6,195.23-131.23,281.36-210.83,16.43-15.86,31.98-29.93,46.98-44.83,168.13-168.44,288.66-351.89,361.03-529.47-2.31,2.76-3.74,3.72-6.06,6.48h0Z"/>
        <path class="cls-17" d="M1208.6-820.23c-7.98,22.23-17.08,42.81-25.06,65.04-.32,2.62-3.19,4.55-4.94,8.15-27.37,67.8-64.07,131.03-105.39,199.77-3.19,4.55-7.82,10.07-11.01,14.63-2.31,2.76-1.2,4.42-3.51,7.18-38.05,58.11-76.58,109.31-121.41,163.55-3.19,4.56-8.93,8.42-12.12,12.97C802.56-202.68,646.88-71.52,471.36,33.22,316.49,125.27,159.55,180.16.15,228.27c-28.87,9.76-56.3,18.56-84.05,29.99-6.3,3.03-11.16,5.1-17.46,8.12-1.44.96-3.99.27-5.42,1.23-57.82,25.61-113.16,57.99-163.8,100.47-54.39,46.2-91.17,93.81-124.59,146.41-.88,1.8-.32,2.62-1.2,4.42-32.55,50.8-48.51,95.26-65.11,144.98-.64,5.25-2.71,11.46-3.35,16.71-21.15,70.85-26.51,131.09-21.9,190.65-.32,2.62,5.66,2.22,8.21,2.91-2.93-78.76,4.99-160,39.23-251.69.88-1.79-.24-3.46.64-5.25,4.39-8.97,8.78-17.95,11.17-26.79,1.76-3.59,4.07-6.35,5.82-9.94,10.61-27.62,26.33-53.85,42.92-81.87,9.57-13.66,18.27-25.53,27.84-39.2,6.94-8.28,12.44-15.59,19.38-23.87,50.01-58.92,113.57-110.08,188.61-147.27,32.93-16.11,63.56-29.47,95.85-40.33,69.46-23.79,135.16-43.87,204.62-67.66,82.61-29.02,161.88-63.03,244.98-106.84C534.91,3.75,646.09-75.81,757.51-173.6c3.75-3.73,6.06-6.49,9.81-10.21,200.74-181.93,337.39-378.62,420.29-577.73,1.75-3.59,4.63-5.52,4.95-8.15,7.66-19.61,15.87-38.39,22.1-57.03-2.31,2.76-3.75,3.73-6.06,6.49h0Z"/>
      </g>
    </g>
  </g>
</svg>