<?xml version="1.0" encoding="UTF-8"?>
<svg id="Layer_1" data-name="Layer 1" xmlns="http://www.w3.org/2000/svg" xmlns:xlink="http://www.w3.org/1999/xlink" viewBox="0 0 1420 1441">
  <defs>
    <style>
      .cls-1 {
        fill: none;
      }

      .cls-2 {
        fill: url(#linear-gradient-8);
      }

      .cls-3 {
        fill: url(#linear-gradient-7);
      }

      .cls-4 {
        fill: url(#linear-gradient-5);
      }

      .cls-5 {
        fill: url(#linear-gradient-6);
      }

      .cls-6 {
        fill: url(#linear-gradient-9);
      }

      .cls-7 {
        fill: url(#linear-gradient-4);
      }

      .cls-8 {
        fill: url(#linear-gradient-3);
      }

      .cls-9 {
        fill: url(#linear-gradient-2);
      }

      .cls-10 {
        fill: url(#linear-gradient);
      }

      .cls-11 {
        fill: url(#linear-gradient-10);
      }

      .cls-12 {
        fill: url(#linear-gradient-11);
      }

      .cls-13 {
        fill: url(#linear-gradient-12);
      }

      .cls-14 {
        fill: url(#linear-gradient-13);
      }

      .cls-15 {
        fill: url(#linear-gradient-19);
      }

      .cls-16 {
        fill: url(#linear-gradient-14);
      }

      .cls-17 {
        fill: url(#linear-gradient-21);
      }

      .cls-18 {
        fill: url(#linear-gradient-20);
      }

      .cls-19 {
        fill: url(#linear-gradient-15);
      }

      .cls-20 {
        fill: url(#linear-gradient-16);
      }

      .cls-21 {
        fill: url(#linear-gradient-17);
      }

      .cls-22 {
        fill: url(#linear-gradient-18);
      }

      .cls-23 {
        opacity: .33;
      }

      .cls-24 {
        clip-path: url(#clippath);
      }
    </style>
    <clipPath id="clippath">
      <rect class="cls-1" x="785.27" width="634.73" height="349.12"/>
    </clipPath>
    <linearGradient id="linear-gradient" x1="918.27" y1="-891.55" x2="1122.16" y2="-754.52" gradientTransform="translate(0 724)" gradientUnits="userSpaceOnUse">
      <stop offset="0" stop-color="#98e8f0"/>
      <stop offset="1" stop-color="#fcf5c5"/>
    </linearGradient>
    <linearGradient id="linear-gradient-2" x1="1077.17" y1="-768.25" x2="1179.1" y2="-699.73" gradientTransform="translate(0 724)" gradientUnits="userSpaceOnUse">
      <stop offset="0" stop-color="#98e8f0"/>
      <stop offset="1" stop-color="#fcf5c5"/>
    </linearGradient>
    <linearGradient id="linear-gradient-3" x1="1202.86" y1="-686.33" x2="1283.59" y2="-632.06" gradientTransform="translate(0 724)" gradientUnits="userSpaceOnUse">
      <stop offset="0" stop-color="#98e8f0"/>
      <stop offset="1" stop-color="#fcf5c5"/>
    </linearGradient>
    <linearGradient id="linear-gradient-4" x1="1288.93" y1="-647.15" x2="1403.67" y2="-570.02" gradientTransform="translate(0 724)" gradientUnits="userSpaceOnUse">
      <stop offset="0" stop-color="#98e8f0"/>
      <stop offset="1" stop-color="#fcf5c5"/>
    </linearGradient>
    <linearGradient id="linear-gradient-5" x1="1380.93" y1="-613.62" x2="1516.68" y2="-522.37" gradientTransform="translate(0 724)" gradientUnits="userSpaceOnUse">
      <stop offset="0" stop-color="#98e8f0"/>
      <stop offset="1" stop-color="#fcf5c5"/>
    </linearGradient>
    <linearGradient id="linear-gradient-6" x1="876.69" y1="-1084.53" x2="2852.22" y2="243.45" gradientTransform="translate(0 724)" gradientUnits="userSpaceOnUse">
      <stop offset="0" stop-color="#98e8f0"/>
      <stop offset="1" stop-color="#fcf5c5"/>
    </linearGradient>
    <linearGradient id="linear-gradient-7" x1="819.83" y1="-1102.25" x2="2776.71" y2="213.18" gradientTransform="translate(0 724)" gradientUnits="userSpaceOnUse">
      <stop offset="0" stop-color="#98e8f0"/>
      <stop offset="1" stop-color="#fcf5c5"/>
    </linearGradient>
    <linearGradient id="linear-gradient-8" x1="768.46" y1="-1115.1" x2="2707.82" y2="188.55" gradientTransform="translate(0 724)" gradientUnits="userSpaceOnUse">
      <stop offset="0" stop-color="#98e8f0"/>
      <stop offset="1" stop-color="#fcf5c5"/>
    </linearGradient>
    <linearGradient id="linear-gradient-9" x1="725" y1="-1122.63" x2="2646.09" y2="168.75" gradientTransform="translate(0 724)" gradientUnits="userSpaceOnUse">
      <stop offset="0" stop-color="#98e8f0"/>
      <stop offset="1" stop-color="#fcf5c5"/>
    </linearGradient>
    <linearGradient id="linear-gradient-10" x1="686.11" y1="-1132.15" x2="2595.33" y2="151.25" gradientTransform="translate(0 724)" gradientUnits="userSpaceOnUse">
      <stop offset="0" stop-color="#98e8f0"/>
      <stop offset="1" stop-color="#fcf5c5"/>
    </linearGradient>
    <linearGradient id="linear-gradient-11" x1="651.41" y1="-1139.43" x2="2549.14" y2="136.25" gradientTransform="translate(0 724)" gradientUnits="userSpaceOnUse">
      <stop offset="0" stop-color="#98e8f0"/>
      <stop offset="1" stop-color="#fcf5c5"/>
    </linearGradient>
    <linearGradient id="linear-gradient-12" x1="618.68" y1="-1143.42" x2="2509.22" y2="127.42" gradientTransform="translate(0 724)" gradientUnits="userSpaceOnUse">
      <stop offset="0" stop-color="#98e8f0"/>
      <stop offset="1" stop-color="#fcf5c5"/>
    </linearGradient>
    <linearGradient id="linear-gradient-13" x1="584.23" y1="-1144.93" x2="2470.47" y2="123.03" gradientTransform="translate(0 724)" gradientUnits="userSpaceOnUse">
      <stop offset="0" stop-color="#98e8f0"/>
      <stop offset="1" stop-color="#fcf5c5"/>
    </linearGradient>
    <linearGradient id="linear-gradient-14" x1="547.32" y1="-1145.84" x2="2433.58" y2="122.11" gradientTransform="translate(0 724)" gradientUnits="userSpaceOnUse">
      <stop offset="0" stop-color="#98e8f0"/>
      <stop offset="1" stop-color="#fcf5c5"/>
    </linearGradient>
    <linearGradient id="linear-gradient-15" x1="507.38" y1="-1145.29" x2="2396.5" y2="124.59" gradientTransform="translate(0 724)" gradientUnits="userSpaceOnUse">
      <stop offset="0" stop-color="#98e8f0"/>
      <stop offset="1" stop-color="#fcf5c5"/>
    </linearGradient>
    <linearGradient id="linear-gradient-16" x1="464.97" y1="-1144.2" x2="2359.84" y2="129.54" gradientTransform="translate(0 724)" gradientUnits="userSpaceOnUse">
      <stop offset="0" stop-color="#98e8f0"/>
      <stop offset="1" stop-color="#fcf5c5"/>
    </linearGradient>
    <linearGradient id="linear-gradient-17" x1="417.77" y1="-1148.4" x2="2322.68" y2="132.1" gradientTransform="translate(0 724)" gradientUnits="userSpaceOnUse">
      <stop offset="0" stop-color="#98e8f0"/>
      <stop offset="1" stop-color="#fcf5c5"/>
    </linearGradient>
    <linearGradient id="linear-gradient-18" x1="368.97" y1="-1159.51" x2="2285.36" y2="128.71" gradientTransform="translate(0 724)" gradientUnits="userSpaceOnUse">
      <stop offset="0" stop-color="#98e8f0"/>
      <stop offset="1" stop-color="#fcf5c5"/>
    </linearGradient>
    <linearGradient id="linear-gradient-19" x1="314.71" y1="-1174.88" x2="2245.45" y2="122.98" gradientTransform="translate(0 724)" gradientUnits="userSpaceOnUse">
      <stop offset="0" stop-color="#98e8f0"/>
      <stop offset="1" stop-color="#fcf5c5"/>
    </linearGradient>
    <linearGradient id="linear-gradient-20" x1="255.26" y1="-1194.99" x2="2200.36" y2="112.53" gradientTransform="translate(0 724)" gradientUnits="userSpaceOnUse">
      <stop offset="0" stop-color="#98e8f0"/>
      <stop offset="1" stop-color="#fcf5c5"/>
    </linearGradient>
    <linearGradient id="linear-gradient-21" x1="190.07" y1="-1218.94" x2="2148.38" y2="97.45" gradientTransform="translate(0 724)" gradientUnits="userSpaceOnUse">
      <stop offset="0" stop-color="#98e8f0"/>
      <stop offset="1" stop-color="#fcf5c5"/>
    </linearGradient>
  </defs>
  <g class="cls-24">
    <g class="cls-23">
      <rect class="cls-1" x="1124" y="-1324.28" width="789" height="3129" transform="translate(471.98 1366.43) rotate(-56.09)"/>
      <path class="cls-10" d="M799.98,8.45c42.02,14.99,85.16,28.33,122.08,23.02,25.27-3.49,42.49-13.61,54.53-28.41,30.21-38.74,50.37-84.23,86.88-119.93,5.89-5.67,11.23-10.52,17.13-16.19,43.05-36.13,94.79-60.39,153.71-79.83,2.31,2.76,3.19,4.55,5.5,7.31-25.19,9.57-50.39,19.15-74.7,30.51-20.33,11.64-39.54,21.62-57.56,36.02-1.67,2.49-5.34,4.85-7.01,7.33-1.12,1.66-5.66,2.22-6.78,3.88-15.46,13.7-27.5,28.51-40.97,42.35-27.42,34.59-40.8,76.2-72.52,107.89-3.35,4.98-8.69,9.82-16.34,11.91l-1.67,2.49c-26.31,11.23-61.87,11.43-100.7.99-11.72-4.26-23.12-5.91-34.85-10.17-9.73-4.13-18.66-12.54-26.72-19.16h0Z"/>
      <path class="cls-9" d="M960.37,129.51c3.99.27,7.42,1.37,12.84,2.61,43.62,6.43,81.41,2.91,101.9-18.26,8.69-9.83,15.38-19.78,19.76-32.5,5.98-21.29,10.83-40.92,16.81-62.2,4.06-15.34,10.99-28.76,16.49-43.14,1.91-5.94,6.69-9.96,10.04-14.94,11.87-26.96,33.23-46.34,57.15-66.41,28.46-20.63,58.11-36.85,93.51-49.2,2.31,2.76,3.75,3.72,6.62,5.65-55.49,20.54-101.72,52.11-132.17,94.3-24.63,30.44-37.77,68.59-46.61,109.65-.48,6.91-.95,13.82-4.86,19.63-1.11,1.66-.23,3.45.08,6.08-6.85,19.49-14.02,36.36-29.48,50.07-7.34,4.71-14.67,9.42-24.32,11.37-22.96,6.25-47.99,6.29-78.53-.98-6.86-2.2-13.48-7.85-19.22-11.71v-.02h-.01Z"/>
      <path class="cls-8" d="M1114.12,223.23c3.43,1.1,4.55-.56,7.1-1.25,64.9,2.66,90.8-38.97,90.15-87.61-1.29-53.89,2.28-105.71,26.19-147.47,24.46-42.6,64.16-73.75,116.54-92.76l7.18,4.82c-14.43,5.96-26.87,12.06-38.99,20.79-.56.83-4.54.56-5.1,1.39-34.68,23.68-61.06,50.53-77.08,86.76-17.36,41.34-13.84,91.91-16.62,139.44.72,11.33.01,21.69-2.7,31.92-5.73,17.83-15.78,32.77-33.87,41.09-10.45,6.23-24.32,11.37-40.26,10.29-7.34,4.71-21.05.31-32.54-7.41h0Z"/>
      <path class="cls-7" d="M1255.03,292.65c18.74-3.07,31.73-10,45.84-18.59,9.01-7.2,14.59-15.5,19.29-25.59.8-4.29,2.47-6.78,3.27-11.06,2.62-16.31,4.69-31.79.46-50.3-3.03-14.09-3.76-25.42-6.79-39.51-8.07-50.01-6.41-95.88,14.15-132.67,20-35.96,53.48-64.06,97.65-80.16,1.99.14,6.3,3.03,9.73,4.13-6.78,3.88-12.99,6.93-21.21,9.84-19.21,9.98-35.55,21.89-49.58,36.56-17.93,20.48-32.44,42.06-38.89,70.25-3.18,17.14-4.37,34.41-4.13,52.65-.56.83,2.32,2.76,1.76,3.59-.8,4.28.4,8.7-.4,12.99,5.12,42,18.21,84.53,10.17,121.3-2.39,12.85-8.53,21.98-16.1,30.15-13.79,11.21-29.34,18.84-49.19,23.57-5.74-3.86-10.61-5.92-16.03-7.16h0Z"/>
      <path class="cls-4" d="M1382.62,344.67c13.55-7.76,27.98-13.72,37.79-25.21,9.8-11.48,14.74-25.03,17.37-41.34,1.19-17.27-1.05-35.65-4.72-54.99-9.34-38.81-20.36-75.14-21.96-109.95.07-15.61,1.58-30.26,5.08-44.78,5.18-17,13.23-32.08,24.15-45.22,11.8-11.35,23.04-21.87,37.7-31.29,10.45-6.23,23.2-9.71,34.21-16.77,4.78-4.01,11.96.81,18.81,3.01-53.81,18.05-94.63,50.86-105.29,103.93-8.2,46.3,7.84,96.85,21.65,150.71,6.95,29.97,6.72,55.12-3.24,76.14-9.17,16.73-24.08,29.61-43.29,39.59-3.67,2.35-12.84-2.61-18.26-3.84h0Z"/>
      <path class="cls-5" d="M1007.68-542.36c22.44,103.04,53.73,208.42,137.16,319.93,20.26,25.67,41.64,49.68,68.99,74.09,15.56,14.07,32.22,26.48,48.89,38.89,65.48,45.22,135.57,74.26,205.91,99.85,3.42,1.1,8.85,2.34,12.28,3.44,28.3,10.59,55.73,19.39,84.04,29.99,3.43,1.1,7.74,3.99,11.17,5.09,140.9,47.72,279.74,110.93,413.16,194.59,45.06,29.08,88.12,58.03,130.95,90.43,52.32,39.99,99.21,78.74,146.75,122.74,46.09,43.04,88.21,85.81,128.09,131.89,10.69,12,21.93,23.18,32.06,36.01.88,1.79,3.19,4.55,4.07,6.35,42.75,48.02,75.54,95.36,110.96,148.09,22.33,31.88,40.36,60.87,56.71,92.35,2.32,2.76,3.2,4.55,5.51,7.31,56.56,101.88,95.98,198.27,122.88,294.67-6.94-8.28-10.45-15.46-10.85-24.16-1.52-7.05-5.91-16.02-8.86-24.03l-.96-7.87c-17.48-51.51-36.31-97.91-60.32-149-6.47-15.19-13.49-29.55-21.94-44.87-117.44-228.35-311.66-454.1-564.39-630.01-155.36-106.84-323.46-188.51-492.35-244.21-3.43-1.1-7.74-3.99-11.17-5.09-27.43-8.8-52.31-18.29-79.18-27.92-3.43-1.1-7.42-1.37-12.28-3.44-42.9-16.79-82.93-31.65-127.03-52.86l-5.75-3.86c-39.23-19.14-75.68-42.44-110.77-70.85-37.4-31.17-66.28-62.63-92.36-98.23-78.57-109.45-112.33-208.05-130.46-308.2-.32-2.62,5.1-1.39,9.09-1.12h0Z"/>
      <path class="cls-3" d="M927.87-532.15c8.78,17.95,10.14,34.53,16.92,52.34,9.42,23.2,15.4,45.3,26.25,69.46,12.61,27.75,24.34,53.71,39.5,80.77.87,1.79,3.75,3.73,4.62,5.52,17.79,32.44,36.7,63.23,63.02,95.38l9.57,13.66c.88,1.79,4.31,2.9,5.19,4.69,31.82,39.47,70.43,75.06,113.25,107.46,41.95,30.61,84.94,53.48,131.59,73.99,1.43.96,3.98.27,5.42,1.24,90.43,39.1,176.07,60.52,264.98,92.57,9.73,4.13,20.02,7.43,29.75,11.56,3.43,1.1,7.41,1.37,12.28,3.44,95.21,35.08,188.27,79.57,281.74,132.76l14.35,9.65c267.88,159.58,482.59,385.85,612.31,617.64,2.31,2.76,3.19,4.55,5.5,7.31,23.06,43.21,44.68,85.46,63.75,128.4,18.19,41.15,30.64,78.43,43.97,117.52-2.32-2.76-6.62-5.66-7.5-7.45-15.72-47.92-34.24-91.7-53.94-139.89-2.64-5.39-5.83-9.94-8.46-15.32-12.93-30.38-30.96-59.37-45.88-89.88-2.31-2.76-3.19-4.55-5.5-7.32-91.5-161.52-214.42-310.41-382.46-451.09-115.09-95.44-233.91-172.9-366.77-235.7-142.02-67.76-274.79-102.78-412.59-152.03-30.3-10.73-58.61-21.32-88.11-36.34-39.24-19.14-73.37-39.68-108.14-65.46-31.9-23.85-60.14-50.06-86.7-78.76-33.5-36.98-60.46-74.38-85.75-114.27-3.51-7.18-7.57-13.53-12.52-21.67-17.79-32.44-32.39-60.33-46.2-92.5-2.95-8.01-5.91-16.02-10.29-24.99-12.37-31.21-23.86-60.62-29.37-89.63-.88-1.79,5.1-1.39,6.22-3.05h0Z"/>
      <path class="cls-2" d="M861.46-520.16c18.27,47.23,34.55,94.32,63.67,144.01.88,1.79,1.2,4.42,2.08,6.21,35.58,64.89,77.7,129.35,135.13,189.64.88,1.79,1.76,3.59,3.19,4.55,6.62,5.65,11.8,10.35,17.87,16.83.87,1.79,1.75,3.59,3.19,4.55,31.98,29.93,65.64,57.38,102.96,82.47,96.73,63.82,198.72,95.03,299.84,124.44,141.93,39.99,279.17,90.06,419.37,169.85,142.51,82.54,269.31,182.24,378.1,296.34,161.6,168.87,272.16,351.64,332.26,525.78-2.87-1.93-5.75-3.86-6.62-5.65-49.4-140.45-124.31-273.94-233.99-411.53-93.16-115.64-204.98-222.14-334.26-315.06-139.32-99.68-289.96-173.23-442.27-222.59s-309.15-76.48-452.86-185.13c-127.93-98.04-205.23-218.68-259.72-336.04-5.59-13.39-11.73-25.96-17.31-39.35-.32-2.62-1.2-4.42-1.52-7.05-7.02-14.36-12.61-27.75-16.2-41.01,1.12-1.66,3.67-2.36,7.1-1.26h0Z"/>
      <path class="cls-6" d="M804.13-509.3c5.91,16.02,12.37,31.21,19.71,48.19,3.51,7.18,7.58,13.53,11.09,20.71,41.01,87.81,94.78,172.15,170.15,255.35,24.25,25.94,48.17,49.25,77.52,73.8,15.24,11.44,28.48,22.75,42.27,33.23,16.67,12.41,32.46,23.02,50.25,33.77,17.78,10.75,34.69,19.7,53.03,29.62,32.93,16.11,64.43,31.26,96.73,42.13,32.29,10.86,64.59,21.73,97.44,31.76l5.98.41c29.43,8.93,55.98,15.94,85.96,24.05,94.81,26.38,183.41,55.81,278.46,100.43,98.49,45.72,188.28,101.26,275.37,167.03,249.23,190.43,420.33,431.96,502.13,654.43l-5.74-3.86c-70.55-189.61-191.96-374.84-379.23-548.92-114.37-105.8-239.57-192.38-381.04-260.96-1.44-.96-5.43-1.24-6.86-2.2-120.58-59.36-230.78-87.65-348.71-119.94-64.83-18.28-127.11-37.25-192.1-67.68-3.43-1.1-7.42-1.37-11.72-4.27-16.35-9.78-31.5-15.15-47.85-24.93-12.04-6.89-23.53-14.61-35.57-21.5-17.78-10.75-34.45-23.16-51.12-35.57-15.23-11.44-29.91-23.72-44.58-35.99-82.63-72.41-138.86-149.98-188.56-227.97-3.27-10.64-13.08-20.84-18.35-31.61-.88-1.8-1.2-4.42-2.08-6.21-6.38-9.11-11.33-17.25-15.72-26.23-3.83-9.81-8.78-17.95-13.16-26.92-9.42-23.2-21.94-44.87-29.36-67.93-.88-1.8,3.11-1.52,5.66-2.22Z"/>
      <path class="cls-11" d="M753.9-499.68c63.35,141.39,156.69,290.89,312.85,415.13,62.68,49.37,130.07,88.64,200.16,117.69,55.5,22.85,106.94,39.35,162.04,53.49,23.12,5.91,44.25,11.68,67.38,17.58l5.98.4c37.4,9.48,70.81,18.68,106.53,30.64,20.58,6.6,41.71,12.37,61.72,19.8,21.45,8.4,41.47,15.82,62.92,24.22,19.46,8.26,38.36,17.35,57.81,25.61,36.37,17.21,70.18,35.12,104.87,54.83l53.35,32.25c284.39,181.53,486.83,447.75,576.53,686.37l-5.74-3.86c-21.23-55.24-46.68-107.29-77.32-164.03-2.31-2.76-3.19-4.55-5.5-7.32-21.62-42.25-50.02-80.61-80.49-125.2-2.31-2.76-3.75-3.73-6.06-6.48-70.76-99.37-153.55-183.94-255.71-270.69l-7.18-4.82c-76.24-63.3-152.88-113.62-240.29-160.32-107.73-56.76-206.93-92.11-315.14-120.27-137.31-34.47-272.87-65.34-403.18-150.53-63.72-41.63-119.87-91.42-171.79-144.4-2.31-2.76-4.07-6.35-7.82-10.07-29.99-29.8-52.88-60.85-77.21-92.87-7.82-10.07-14.2-19.18-21.46-30.09-42.12-64.46-77.62-123.27-103.79-186.65.56-.83,4.54-.56,6.54-.43v.02h0Z"/>
      <path class="cls-12" d="M709.33-492.29c16.44,37.56,37.98,73.73,59.84,112.52,7.58,13.53,17.71,26.36,25.84,39.06,64.22,99.8,141.66,189.21,245.19,270.85,83.1,65.5,173.37,114.14,266.83,145.63,17.15,5.5,35.17,12.79,52.87,17.46l5.98.41c8.85,2.34,18.58,6.46,27.43,8.8l26.55,7c7.42,1.37,12.84,2.61,20.26,3.97,5.42,1.24,8.29,3.17,13.71,4.4,50.8,11.25,94.18,21.13,144.17,36.67,4.87,2.07,8.85,2.34,12.84,2.6,15.71,4.54,31.42,9.07,48.01,15.4,11.16,5.1,23.44,8.53,35.16,12.79,3.43,1.1,4.31,2.89,7.74,3.99,212.43,77.73,412.77,229.27,556.42,396.93.88,1.79,3.19,4.55,4.07,6.35,6.06,6.48,10.69,12,16.75,18.49,22.01,29.26,42.83,54.1,63.73,85.02,19.15,27.33,33.11,49.97,50.82,76.33,3.19,4.55,4.38,8.97,7.02,14.36,2.31,2.76,3.19,4.55,5.5,7.32,11.09,20.71,21.86,38.79,31.51,58.54,11.09,20.71,19.31,39.49,28.97,59.23,6.46,15.19,14.91,30.51,17.39,45.43-1.43-.97-3.43-1.1-3.43-1.1-16.75-40.18-34.07-79.54-54.81-119.99-2.63-5.39-6.38-9.11-9.02-14.49-112.96-213.3-308.7-424.4-568.91-564.37-53.59-28.79-107.1-51.51-160.29-71.6-103.5-38.25-198.47-55.1-301.25-82.02-91.39-25.28-182.06-60.92-268.42-115.37-85.81-55.27-162.38-121.2-225.39-194.88-5.18-4.69-11.25-11.18-15.87-16.7-25.44-30.36-46.58-57.82-68.92-89.7-43.23-62.8-74.99-117.88-104.83-178.91.56-.83,4.55-.56,6.54-.42h0Z"/>
      <path class="cls-13" d="M668.43-487.25c93.82,185.97,247.93,390.78,483.83,520.43,79.66,42.71,154.3,71.19,233.96,92.21,65.95,16.61,123.84,26.61,188.67,44.89,70.81,18.68,137.39,40.54,208.12,74.84,1.44.96,5.43,1.24,6.86,2.2,175.52,83.04,326.26,206.06,443.35,345.01.87,1.79,3.19,4.55,4.07,6.35,22.81,24.97,40.2,48.71,59.34,76.04,2.31,2.76,3.75,3.72,6.06,6.48,63.26,91.92,110.49,176.69,143.52,263.96-1.43-.97-3.42-1.1-4.86-2.07-15.08-42.67-35.83-83.12-57.45-125.37-5.82-9.94-12.2-19.05-16.03-28.85-.88-1.79-3.19-4.55-5.51-7.31-23.29-39.76-46.27-76.89-76.1-116.22-3.19-4.55-4.94-8.14-8.13-12.7l-51.21-63.34c-10.69-12.01-19.94-23.04-30.63-35.05-39.56-43.46-79.92-82.64-127.69-123.19l-7.18-4.82c-110.22-93.37-232.4-165.86-359.35-212.64-3.42-1.1-4.3-2.9-7.73-4-37.16-12.93-72.89-24.9-111.72-35.33-65.94-16.62-123.83-26.61-189.22-44.06-43.7-12.51-87.4-25.01-131.18-43.59-4.86-2.06-8.85-2.33-13.71-4.4-102.71-42.53-198.25-101.94-286.06-179.04-118.92-105.24-201.47-214.96-266.49-332.16-2.31-2.76-3.19-4.56-5.5-7.32l-10.53-21.54c-5.82-9.94-12.21-19.05-16.03-28.85.56-.83,2.55-.7,4.54-.56h-.01Z"/>
      <path class="cls-14" d="M631.75-485.4c16.67,34.1,36.46,66.68,57.12,101.05,13.08,20.84,25.29,39.89,40.36,60.87,69.56,94.95,143.26,180.64,242.79,262.01,51.2,41.65,104.31,77.35,161.65,109.87,89.72,49.46,176.64,81.38,269.14,105,74.79,18.95,139.78,27.69,214.34,50.1,50.55,14.71,98.87,32.73,150.39,55.31,73.84,32.77,143.54,74.8,209.34,122.64l41.39,31.44c56.39,46.34,106.23,93.1,153.29,144.01,6.06,6.48,10.69,12,16.75,18.49,13.88,16.56,26.88,31.32,40.2,48.71s25.77,32.98,38.53,51.2c23.21,33.68,41.8,61.84,61.58,94.41,34.07,57.84,58.96,110.72,80.51,168.58l-3.99-.27c-11.49-29.41-23.54-58-37.9-89.34-3.51-7.18-9.02-14.49-12.53-21.67-25.13-49.43-51.06-94.57-86.15-144.67-71.64-101.17-152.19-189.06-257.15-271.66-91.16-72.12-188.93-128.2-290.76-168.94-45.77-18.72-90.35-33.02-136.6-44.83-98.47-24.02-186.82-35.22-284.91-72.23-10.28-3.3-19.13-5.64-28.86-9.76-3.43-1.1-4.31-2.89-7.74-4-113.23-42.38-220.81-108.67-318.67-192.53-78.88-68.69-141.25-137.12-197.49-214.69-2.31-2.76-3.75-3.73-6.06-6.49-45.23-62.94-82.72-121.88-112.56-182.9l3.99.27v.02h0Z"/>
      <path class="cls-16" d="M595.87-487.83c46.67,85.6,100.76,172.56,173.58,256.45.88,1.79,3.19,4.55,4.07,6.35,14.44,15.73,28.32,32.29,42.75,48.02,2.31,2.76,4.31,2.89,6.62,5.65,85.18,93.41,189.58,176.84,308.25,242.15,80.54,44.5,158.61,74.09,240.58,97.86,19.14,5.63,35.97,8.51,55.1,14.14l5.98.4c5.43,1.24,8.3,3.17,13.72,4.4,86.99,16.31,166.02,32.07,252.38,64.82,22.88,9.36,44.33,17.75,66.66,27.94,30.62,13.35,60.13,28.37,89.96,46.01,77.43,46.03,147.53,96.77,211.5,156.63,66.28,62.63,120.59,124.44,169.33,194.56,18.27,25.53,32.23,48.17,46.51,73.43l9.57,13.66c22.74,40.59,42.05,80.08,60.8,120.39.32,2.62.64,5.25,1.51,7.04,7.9,16.15,12.05,28.58,17.96,44.6l-3.99-.27c-19.71-48.19-37.98-95.42-65.11-144.98-21.86-38.79-43.95-74.13-71.23-114.16-6.39-9.11-11.89-16.42-18.27-25.53-2.31-2.76-3.75-3.73-6.06-6.48-80.01-110.41-184.89-208.63-308.02-288.99-67.15-42.73-135.89-76.89-207.66-103.44-20.02-7.43-38.6-13.9-57.73-19.53-69.7-20.34-129.58-30.47-200.63-45.7-5.42-1.24-8.29-3.17-13.71-4.4-67.06-14.96-128.23-35.58-194.89-63.53-22.33-10.19-43.22-19.41-64.99-30.43-26.08-13.91-49.29-25.9-72.81-40.51-153.76-93.72-280.01-215.94-378.29-351.89-2.31-2.76-3.75-3.72-6.06-6.48-43.79-61.97-80.41-119.12-110.81-179.31,1.44.96,1.99.13,3.43,1.1v.03h0Z"/>
      <path class="cls-19" d="M562.78-494.41c93.74,179.89,242.5,367.85,445.87,511.79,28.15,20.13,56.54,36.8,85.81,55.27,19.22,11.71,39.56,21.77,59.89,31.82,43.54,22.04,84.21,42.15,128.79,56.45,3.43,1.1,4.3,2.89,7.73,3.99,51.44,16.5,98.88,32.73,150.23,43.15,5.43,1.24,8.3,3.16,13.72,4.4,35.08,6.72,65.31,11.37,100.71,20.71,5.42,1.24,9.41,1.51,13.4,1.78,5.42,1.24,8.29,3.17,13.71,4.4,29.11,6.31,55.1,14.14,83.97,23.91,3.43,1.1,4.3,2.9,7.73,3.99,68.58,22,134.45,54.23,198.73,95.03,216.6,133.55,360.34,328.98,437.34,512.07,2.63,5.39,5.82,9.94,7.02,14.36,4.79,17.68,14.68,33.97,18.03,50.68-.56.83-2.55.7-4.54.56-8.94-30.11-23.3-61.45-35.67-92.66-8.22-18.78-18.99-36.86-27.21-55.64-53.45-103.41-126.76-202.09-224.46-295.48-98.26-92.56-216.53-170.86-340.61-215.71-3.43-1.1-4.3-2.89-7.73-3.99-35.73-11.96-69.46-23.79-104.86-33.13-73.36-17.99-136.91-25.76-209.48-48.03l-5.98-.4c-65.15-20.9-126.87-40.7-192.18-73.76-1.43-.97-5.42-1.24-6.86-2.2C884.33-24.02,673.92-269.08,557.92-496.47c1.43.96,3.43,1.1,4.86,2.07h0Z"/>
      <path class="cls-20" d="M527.62-507.2c25.13,49.43,52.81,98.16,89.35,149.23,2.31,2.76,1.2,4.42,3.51,7.18,29.27,40.16,54.24,77.43,87.74,114.41.88,1.8,3.19,4.56,4.07,6.35,13.56,13.93,24.01,29.39,37.57,43.33,10.37,9.38,18.18,19.45,27.99,29.66,25.68,26.9,51.05,51.18,79.28,77.39,19.3,17.79,38.28,32.96,58.14,49.93,46.02,36.96,90.84,69.5,139.32,99.68,66.27,40.93,134.46,75.92,205.11,104.14,39.47,15.69,76.63,28.62,116.9,40.02,63.39,17.31,121.05,30.76,184.36,41.99,5.42,1.23,8.29,3.16,13.71,4.4l5.98.4,26.56,7.01c117.93,32.29,232.77,87.79,336.29,169.42,77.36,61.64,139.97,126.62,195.01,199.77,25.2,33.81,44.11,64.6,65.33,98.14.88,1.8,1.2,4.42,2.07,6.22,7.26,10.9,13.09,20.84,19.79,32.58,8.77,17.95,18.11,35.07,26.33,53.85,18.19,41.15,34.62,78.7,44.84,119.31-.55.83-2.55.7-4.54.56-53-175.4-172.34-376.12-376.67-527.92-109.18-79.42-225.68-132.43-348.08-158.07-116.42-25.24-220-47.88-336.75-97.44-48.64-20.65-93.62-43.65-140.35-70.25-52.47-30.45-99.29-63.13-147.86-99.39-4.31-2.89-6.06-6.48-10.37-9.38-12.36-9.51-23.29-18.06-35.09-28.41l-7.18-4.82c-67.07-58.34-121.31-114.08-175.63-175.89-.88-1.79-3.19-4.55-4.07-6.35-38.12-42.5-66.84-83.49-98.19-129.87-35.98-51.9-63.34-98-87.91-148.26,1.43.96,1.99.14,3.43,1.1v-.02h0Z"/>
      <path class="cls-21" d="M491.81-525.25c112.89,228.91,316.45,471.78,594.61,634.66,100.64,58.01,201.36,100.41,304.46,129.96,3.99.27,7.98.54,12.84,2.61,13.72,4.4,26,7.83,38.83,10.44,5.43,1.24,8.3,3.16,13.72,4.4l5.98.4c42.26,11.54,79.9,17.56,122.72,28.27,5.42,1.24,8.29,3.17,13.71,4.4l5.98.41c15.15,5.36,29.99,8.11,46.01,15.26,6.86,2.2,12.28,3.43,19.14,5.64,30.3,10.73,59.49,23.12,90.43,39.1,11.17,5.1,22.33,10.19,32.94,16.11l7.17,4.83c162.21,87.35,279.78,219.39,357.24,352.2,4.39,8.97,9.33,17.12,14.28,25.26.88,1.79,1.2,4.42,2.07,6.21,14.84,24.43,24.82,46.8,35.67,70.97,19.94,44.74,33.59,86.44,45.57,130.64-.56.83-3.11,1.52-5.11,1.39-.87-1.79-3.19-4.55-3.51-7.18-10.94-51.94-31.52-101.92-55.86-155.63-28.08-57.44-58.4-111.55-103.54-168.41l-2.64-5.39c-74.42-97.02-168.05-184.06-285.28-248.4-71.37-39.54-141.15-65.96-214.51-83.95-5.42-1.24-12.28-3.43-19.14-5.64l-5.98-.4c-5.42-1.23-9.73-4.13-13.71-4.4-7.98-.54-16.83-2.88-25.68-5.21-22.25-4.11-41.94-8.92-63.63-13.86-5.42-1.23-8.29-3.16-13.72-4.4l-5.98-.4c-11.72-4.26-21.13-5.77-32.85-10.04l-5.98-.4c-49.12-13.74-96.01-30.8-143.78-49.65-67.22-27.12-133.97-61.14-198.8-101.11-59.97-37.9-116.28-78.16-172.66-124.5-72.5-59.58-132.24-122.63-190.3-188.17-.88-1.79-3.19-4.56-4.07-6.35-40.44-45.26-69.48-88.87-104.25-136.35-2.31-2.76-1.2-4.42-3.51-7.18-37.73-55.49-66.29-106.01-93.18-159.03l4.31,2.9h0Z"/>
      <path class="cls-22" d="M453.61-552.13c74.36,156.02,185.16,313.64,337.33,459.31,7.5,7.45,16.99,15.03,24.49,22.48,128.49,118.9,276.58,214.84,433.36,279.26,4.86,2.07,10.28,3.3,15.15,5.37,94.42,39.37,181.49,61.75,275.66,82.88,48.25,11.95,92.5,23.62,140.27,42.48,24.32,10.32,49.2,19.82,73.84,32.77,40.11,20.94,77.67,42.57,113.88,69.32,12.36,9.51,23.29,18.06,35.65,27.58,12.36,9.51,20.74,18.76,32.54,29.1,44.9,38.62,79.28,77.39,112.3,121.28l2.64,5.39c10.13,12.83,18.82,24.7,28.39,38.37,10.77,18.08,22.66,34.51,31.99,51.63,6.15,12.56,13.41,23.47,19.55,36.03,1.2,4.42,2.95,8.01,6.14,12.56.88,1.79,1.2,4.42,2.08,6.22.87,1.79,3.19,4.55,4.07,6.35.87,1.79,1.19,4.42,2.07,6.21.88,1.8,3.19,4.55,4.07,6.35,1.2,4.42,2.95,8.01,4.15,12.43.88,1.79,3.19,4.55,4.07,6.35,24.65,56.34,41.57,108.68,49.96,161.31-.56.83-3.11,1.52-5.1,1.39-25.24-120.59-77.9-249.97-181.19-378.45-3.75-3.72-6.07-6.48-9.81-10.21-55.84-68.86-127.22-130.1-208.96-179.02-73.13-43.13-147.21-72.45-223.44-92.36-85.64-21.42-165.54-38.98-250.15-68.14-140.35-48.55-277.91-122.95-403.52-218.23-151.77-115.27-267.58-243.73-367.69-389.35-2.31-2.76-1.2-4.42-3.51-7.18-3.19-4.55-7.82-10.08-11.01-14.63-36.06-57.98-66.37-112.09-93.58-167.73l4.31,2.89h0Z"/>
      <path class="cls-15" d="M413.89-586.06c8.54,21.4,19.63,42.11,30.16,63.65,8.46,15.32,16.36,31.48,24.81,46.8,2.63,5.38,7.26,10.9,10.45,15.46,23.06,43.21,49.46,81.44,78.5,125.06,22.34,31.88,44.03,58.52,67.48,88.74,78.97,96.46,168.93,185.85,275.32,269.42l12.92,8.68c179.13,139.69,376.34,227.67,579.27,276.13,2,.13,4.31,2.89,6.3,3.03,27.11,6.17,50.24,12.08,76.79,19.09,31.42,9.07,61.72,19.8,93.46,31.49,4.86,2.07,7.73,3.99,12.6,6.06,1.43.96,3.99.27,5.42,1.24,56.38,24.64,111.41,54.4,162.29,93.43,67.55,51.43,120.67,108.83,166.77,173.56,2.64,5.39,7.82,10.07,10.45,15.46,1.76,3.59,3.51,7.18,7.26,10.9l2.64,5.39c.87,1.79,3.74,3.72,4.62,5.52l5.27,10.77c.88,1.79,3.75,3.72,4.62,5.52,17.24,33.27,37.02,65.85,48.27,98.72.88,1.79,3.19,4.55,4.07,6.35,26.49,66.01,43.81,127.05,51.17,187.42-1.12,1.66-5.1,1.39-7.66,2.09.64-16.44-5.59-35.09-7.83-53.46-2.47-14.92-6.94-29.97-10.85-45.86-7.83-31.77-19.32-61.18-32.56-94.18-6.15-12.56-10.85-24.16-15.56-35.76-4.95-8.14-8.46-15.32-11.41-23.33-9.34-17.12-19.23-33.41-28.56-50.53-9.89-16.29-19.47-29.95-30.79-47.21-37.41-52.86-76.98-96.32-129.38-142.39-76.56-65.93-160.21-108.9-247.69-139.99-8.29-3.17-17.15-5.5-26-7.83-64.59-21.73-126.78-34.62-193.05-53.86-41.7-12.37-83.17-28.2-125.19-43.19-13.16-5.23-27.75-11.42-40.91-16.65-115.31-48.59-227.44-114.33-331.2-192.51-205.52-156.23-357.95-341.83-460.94-532.76-1.76-3.59-1.2-4.42-2.95-8.01-17.47-29.82-29.52-58.4-43.56-87.12,1.44.97,3.75,3.72,5.18,4.69v-.03h0Z"/>
      <path class="cls-18" d="M371.78-628.83c21.78,54.41,49.55,109.22,80.74,165.13,2.31,2.76,3.19,4.55,5.5,7.32,20.98,37,43.08,72.33,70.04,109.74,2.31,2.76,1.2,4.42,3.51,7.18,29.83,39.33,56.24,77.57,89.74,114.54.88,1.79,3.19,4.55,4.07,6.35,6.94,8.28,15.87,16.69,22.81,24.97.88,1.79,3.19,4.55,4.07,6.35,51.68,56.43,103.61,109.41,166.06,162.23,10.37,9.38,19.3,17.79,28.79,25.38,5.74,3.86,12.36,9.51,17.55,14.2l7.18,4.82c103.28,85.09,212.85,151.52,331.67,207.29,129.99,60.87,250.48,92.46,377.58,129.7,24,7.7,48.01,15.4,71.77,26.55,1.44.97,3.99.27,5.42,1.24,54.95,23.68,109.09,51.64,158.54,89.7,43.71,34.2,81.75,70.62,114.45,111.88.88,1.79,4.31,2.89,5.19,4.69,63.09,79.77,99.95,155.15,126.37,236.77,19.31,61.18,29.14,114.78,30.43,168.66-1.12,1.66-5.1,1.39-7.66,2.09-3.76-47.11-7.2-91.6-23.56-144.77-1.2-4.42-.96-7.88-2.16-12.29-28.33-97.37-74.53-189.87-156.28-282.18-48.82-54.5-110.07-102.9-179.13-139.69-23.2-11.99-45.53-22.17-67.86-32.36-18.02-7.29-34.61-13.62-53.19-20.09-54.86-17.6-105.97-31.48-159.96-47.28l-61.72-19.8c-22.01-7.57-42.02-15-64.03-22.56-36.6-13.76-72.09-29.18-108.45-46.39-54.39-24.51-103.67-50.41-154.15-80.73-102.4-61.6-195.23-131.23-281.37-210.82-16.43-15.86-31.98-29.93-46.98-44.83-168.13-168.44-288.66-351.89-361.04-529.47,2.31,2.76,3.75,3.72,6.06,6.48h0Z"/>
      <path class="cls-17" d="M326.39-682.23c7.98,22.23,17.08,42.81,25.06,65.04.32,2.62,3.19,4.55,4.95,8.15,27.37,67.8,64.07,131.03,105.39,199.77,3.19,4.55,7.82,10.07,11.01,14.63,2.31,2.76,1.2,4.42,3.51,7.18,38.05,58.11,76.58,109.31,121.4,163.54,3.19,4.55,8.93,8.41,12.12,12.97,122.6,146.27,278.28,277.43,453.8,382.16,154.87,92.06,311.81,146.94,471.21,195.05,28.87,9.77,56.3,18.57,84.05,29.99,6.3,3.03,11.16,5.1,17.46,8.12,1.44.96,3.99.27,5.42,1.23,57.82,25.61,113.16,57.99,163.81,100.47,54.39,46.2,91.16,93.81,124.59,146.41.87,1.8.32,2.62,1.19,4.42,32.55,50.8,48.51,95.26,65.11,144.98.64,5.25,2.72,11.46,3.36,16.71,21.15,70.85,26.51,131.09,21.9,190.64.32,2.63-5.66,2.22-8.21,2.92,2.93-78.77-4.99-160-39.23-251.69-.87-1.79.24-3.46-.64-5.25-4.38-8.97-8.77-17.95-11.17-26.79-1.75-3.59-4.07-6.35-5.82-9.94-10.61-27.62-26.33-53.85-42.92-81.87-9.58-13.66-18.27-25.53-27.84-39.2-6.94-8.28-12.45-15.59-19.38-23.87-50.02-58.92-113.58-110.08-188.62-147.27-32.93-16.11-63.56-29.47-95.85-40.33-69.46-23.79-135.16-43.86-204.62-67.66-82.61-29.02-161.88-63.03-244.97-106.84-132.38-69.71-243.56-149.26-354.97-247.05-3.75-3.72-6.06-6.48-9.81-10.21-200.74-181.94-337.39-378.62-420.29-577.73-1.76-3.59-4.63-5.52-4.95-8.15-7.66-19.61-15.88-38.39-22.1-57.03,2.31,2.76,3.75,3.73,6.06,6.49h-.01Z"/>
    </g>
  </g>
</svg>