<svg width="1471" height="514" viewBox="0 0 1471 514" fill="none" xmlns="http://www.w3.org/2000/svg">
<path d="M758.097 489.714H947.692L990.35 501.811H1283.57L1385.85 465.856V375.866L1471 331.768V185.481L1385.85 141.384V49.1611L1248.41 0H778.524L725.385 19.8162H612.766L566.868 9.9081H458.42L414.465 0L94.5861 0.612872L0.253662 49.4676L0 171.779V477.632L71.0875 504H710.621L758.097 489.714Z" fill="url(#paint0_linear_159_3778)"/>
<path d="M751.101 467.839H933.945L975.068 478.817H1257.84L1356.5 446.16V364.418L1438.63 324.37V191.486L1356.5 151.423V67.6545L1223.94 23H770.77L719.549 41.0047H610.932L566.648 32.0096H462.069L419.688 23L111.191 23.5686L20.2233 67.9314L19.9305 179.035V456.861L88.5079 480.814H705.295L751.101 467.839Z" fill="url(#paint1_linear_159_3778)"/>
<path d="M964.386 499.728L1008.7 511.813L718.116 514L767.435 499.728H964.386Z" fill="url(#paint2_linear_159_3778)"/>
<path d="M66.3525 100.724L112.51 77.7334V100.724L65.4451 124.166L66.3525 100.724Z" fill="url(#paint3_linear_159_3778)"/>
<path d="M66.3525 135.086L112.51 112.081V135.086L65.4451 158.528L66.3525 135.086Z" fill="url(#paint4_linear_159_3778)"/>
<path d="M66.3525 168.31L112.51 145.305V168.31L65.4451 191.753L66.3525 168.31Z" fill="url(#paint5_linear_159_3778)"/>
<path d="M66.3525 202.658L112.51 179.667V202.658L65.4451 226.101L66.3525 202.658Z" fill="url(#paint6_linear_159_3778)"/>
<path d="M66.3525 236.189L112.51 213.184V236.189L65.4451 259.631L66.3525 236.189Z" fill="url(#paint7_linear_159_3778)"/>
<path d="M66.3525 270.536L112.51 247.531V270.536L65.4451 293.979L66.3525 270.536Z" fill="url(#paint8_linear_159_3778)"/>
<path d="M66.3525 303.761L112.51 280.756V303.761L65.4451 327.204L66.3525 303.761Z" fill="url(#paint9_linear_159_3778)"/>
<path d="M66.3525 338.123L112.51 315.118V338.123L65.4451 361.565L66.3525 338.123Z" fill="url(#paint10_linear_159_3778)"/>
<path d="M286.367 462.377H126.324L57.7757 438.424V379.206L31.4336 369.627V451.545L99.9818 475.498H322.427L286.367 462.377Z" fill="url(#paint11_linear_159_3778)"/>
<defs>
<linearGradient id="paint0_linear_159_3778" x1="0" y1="252.007" x2="1471" y2="252.007" gradientUnits="userSpaceOnUse">
<stop stop-color="#98E8F0"/>
<stop offset="1" stop-color="#FCF5C5"/>
</linearGradient>
<linearGradient id="paint1_linear_159_3778" x1="19.9305" y1="251.914" x2="1438.63" y2="251.914" gradientUnits="userSpaceOnUse">
<stop stop-color="#272930"/>
<stop offset="0.64" stop-color="#502E5E"/>
<stop offset="1" stop-color="#5D190F"/>
</linearGradient>
<linearGradient id="paint2_linear_159_3778" x1="718.116" y1="506.857" x2="1008.7" y2="506.857" gradientUnits="userSpaceOnUse">
<stop stop-color="#98E8F0"/>
<stop offset="1" stop-color="#FCF5C5"/>
</linearGradient>
<linearGradient id="paint3_linear_159_3778" x1="65.4451" y1="100.957" x2="112.51" y2="100.957" gradientUnits="userSpaceOnUse">
<stop stop-color="#98E8F0"/>
<stop offset="1" stop-color="#FCF5C5"/>
</linearGradient>
<linearGradient id="paint4_linear_159_3778" x1="65.4451" y1="135.304" x2="112.51" y2="135.304" gradientUnits="userSpaceOnUse">
<stop stop-color="#98E8F0"/>
<stop offset="1" stop-color="#FCF5C5"/>
</linearGradient>
<linearGradient id="paint5_linear_159_3778" x1="65.4451" y1="168.529" x2="112.51" y2="168.529" gradientUnits="userSpaceOnUse">
<stop stop-color="#98E8F0"/>
<stop offset="1" stop-color="#FCF5C5"/>
</linearGradient>
<linearGradient id="paint6_linear_159_3778" x1="65.4451" y1="202.891" x2="112.51" y2="202.891" gradientUnits="userSpaceOnUse">
<stop stop-color="#98E8F0"/>
<stop offset="1" stop-color="#FCF5C5"/>
</linearGradient>
<linearGradient id="paint7_linear_159_3778" x1="65.4451" y1="236.407" x2="112.51" y2="236.407" gradientUnits="userSpaceOnUse">
<stop stop-color="#98E8F0"/>
<stop offset="1" stop-color="#FCF5C5"/>
</linearGradient>
<linearGradient id="paint8_linear_159_3778" x1="65.4451" y1="270.755" x2="112.51" y2="270.755" gradientUnits="userSpaceOnUse">
<stop stop-color="#98E8F0"/>
<stop offset="1" stop-color="#FCF5C5"/>
</linearGradient>
<linearGradient id="paint9_linear_159_3778" x1="65.4451" y1="303.98" x2="112.51" y2="303.98" gradientUnits="userSpaceOnUse">
<stop stop-color="#98E8F0"/>
<stop offset="1" stop-color="#FCF5C5"/>
</linearGradient>
<linearGradient id="paint10_linear_159_3778" x1="65.4451" y1="338.341" x2="112.51" y2="338.341" gradientUnits="userSpaceOnUse">
<stop stop-color="#98E8F0"/>
<stop offset="1" stop-color="#FCF5C5"/>
</linearGradient>
<linearGradient id="paint11_linear_159_3778" x1="31.4336" y1="422.563" x2="322.427" y2="422.563" gradientUnits="userSpaceOnUse">
<stop stop-color="#98E8F0"/>
<stop offset="1" stop-color="#FCF5C5"/>
</linearGradient>
</defs>
</svg>
