<svg width="332" height="607" viewBox="0 0 332 607" fill="none" xmlns="http://www.w3.org/2000/svg">
<path d="M316.701 294.175V215.94L324.524 198.338V77.3399L301.272 35.1355H243.075L214.557 0H119.952L91.4338 35.1355H31.7928L0 91.8499V285.746L12.8153 307.674V354.145L6.40763 373.085V417.836L0 435.973L0.396348 567.97L31.991 606.895L111.091 607H308.887L325.94 577.666V313.766L316.701 294.175Z" fill="url(#paint0_linear_366_5)"/>
<path d="M307.239 293.487V219.718L314.589 203.126V89.0425L292.724 49.2353H237.994L211.181 16.1001H122.209L95.386 49.2353H39.2993L9.40131 102.717V285.551L21.4561 306.216V350.039L15.4336 367.905V410.098L9.40131 427.197L9.78198 551.661L39.4847 588.362L113.873 588.48H299.889L315.926 560.812V311.967L307.239 293.487Z" fill="url(#paint1_linear_366_5)"/>
<path d="M322.004 213.212L330.096 195.333L331.56 312.57L322.004 292.673V213.212Z" fill="url(#paint2_linear_366_5)"/>
<path d="M303.676 480.986V545.556L287.639 573.212H247.989L241.576 583.84H296.423L312.461 556.184V466.438L303.676 480.986Z" fill="url(#paint3_linear_366_5)"/>
<defs>
<linearGradient id="paint0_linear_366_5" x1="162.975" y1="607" x2="162.975" y2="0" gradientUnits="userSpaceOnUse">
<stop stop-color="#98E8F0"/>
<stop offset="1" stop-color="#FCF5C5"/>
</linearGradient>
<linearGradient id="paint1_linear_366_5" x1="162.669" y1="588.48" x2="162.669" y2="16.1001" gradientUnits="userSpaceOnUse">
<stop stop-color="#272930"/>
<stop offset="0.64" stop-color="#502E5E"/>
<stop offset="1" stop-color="#5D190F"/>
</linearGradient>
<linearGradient id="paint2_linear_366_5" x1="326.777" y1="312.57" x2="326.777" y2="195.333" gradientUnits="userSpaceOnUse">
<stop stop-color="#98E8F0"/>
<stop offset="1" stop-color="#FCF5C5"/>
</linearGradient>
<linearGradient id="paint3_linear_366_5" x1="277.019" y1="583.84" x2="277.019" y2="466.438" gradientUnits="userSpaceOnUse">
<stop stop-color="#98E8F0"/>
<stop offset="1" stop-color="#FCF5C5"/>
</linearGradient>
</defs>
</svg>
