<svg width="299" height="63" viewBox="0 0 299 63" fill="none" xmlns="http://www.w3.org/2000/svg">
<path d="M46.288 22.464H43.152C43.1093 22.6347 43.0667 22.8053 43.024 22.976C42.9813 23.104 42.9173 23.2533 42.832 23.424H44.624L44.432 24.064H42.896C42.768 24.448 42.5973 24.8747 42.384 25.344H41.424C41.2533 25.7707 41.0187 26.1973 40.72 26.624H40.848C40.6773 26.8373 40.528 27.0507 40.4 27.264C40.272 27.4773 40.1227 27.6907 39.952 27.904H46.864L46.032 28.864H40.336C40.1653 29.0773 39.952 29.2907 39.696 29.504C39.44 29.7173 39.2053 29.9307 38.992 30.144H39.824C39.6533 30.3147 39.44 30.4853 39.184 30.656C38.9707 30.784 38.7573 30.9333 38.544 31.104H40.656L40.4 31.296L40.976 32.384H39.44L40.144 33.664H40.336L40.528 33.984H40.464L41.104 35.264H41.744L42.128 35.904H37.2L37.712 36.864H42.192L42.576 37.504H41.168L41.68 38.464H48.016L48.72 39.744H44.496L45.008 40.704H43.024L44.048 42.624H44.496L44.88 43.264H44.688L44.88 43.584H41.872L42.576 44.864L42.704 45.184H40.72L41.04 45.888C41.168 46.0587 41.232 46.2507 41.232 46.464H42.576V46.592C42.576 47.0613 42.384 47.4453 42 47.744H43.728C43.5147 47.9147 43.2373 48 42.896 48H29.776C29.52 48 29.2853 47.9787 29.072 47.936C28.9013 47.8507 28.7093 47.7867 28.496 47.744H26.768C26.4267 47.5733 26.128 47.36 25.872 47.104C25.6587 46.848 25.488 46.6347 25.36 46.464H24.08L23.952 46.272L23.504 45.184H25.552L25.36 44.864H19.28V45.184H16.016V46.464H21.2C21.1147 47.0613 20.8373 47.488 20.368 47.744H19.92C19.6213 47.9147 19.3013 48 18.96 48H6.416C6.032 48 5.73333 47.9147 5.52 47.744H6.032C5.56267 47.488 5.28533 47.0613 5.2 46.464H0.0799999C0.0799999 46.4213 0.0799999 46.4 0.0799999 46.4C0.0373333 46.3573 0.0159999 46.3147 0.0159999 46.272V45.184H3.28V44.864H9.68V43.584H2.832V43.264H6.864V42.624H5.52V41.664H7.76V40.704H4.112V39.744H9.04V38.464H6.224V37.504H6.16V37.184H5.776V36.864H4.048V35.904H6.224V35.264H5.648V33.984H5.712V33.664H5.52V32.384H7.056V31.104H4.88V30.144H4.048V28.864H9.68V27.904H2.768V26.624H2.64V25.344H3.6V24.064H5.072V23.424H3.28V22.464H6.416V21.824H11.024V21.184H4.688V20.864H5.008V20.544H5.584V20.224H5.648V19.584H5.52V18.624H5.776V17.344H5.456V16.704H5.776V15.744H5.52V15.424H5.712V14.784H5.648V14.464H5.392V14.144H5.968V13.184H6.48V12.224H3.472V10.944H4.176V9.664H3.792V8.704H5.52V7.744H6.16V6.784H5.008V6.144H5.456V5.824H5.584V4.864H5.712C5.712 4.39466 5.904 3.968 6.288 3.584H9.744C10 3.328 10.3627 3.2 10.832 3.2H29.776C31.6107 3.2 33.3173 3.328 34.896 3.584H31.504C33.2107 3.84 34.832 4.26667 36.368 4.864H36.24C36.9653 5.12 37.6693 5.44 38.352 5.824H38.224L38.8 6.144H38.288C38.5013 6.22933 38.672 6.336 38.8 6.464C38.9707 6.592 39.1413 6.69866 39.312 6.784H40.464C40.6773 6.95466 40.8907 7.12533 41.104 7.296C41.3173 7.424 41.5093 7.57333 41.68 7.744H41.04C41.2533 7.91467 41.424 8.08533 41.552 8.256C41.7227 8.384 41.8933 8.53333 42.064 8.704H40.336C40.5067 8.87467 40.656 9.04533 40.784 9.216C40.912 9.344 41.04 9.49333 41.168 9.664H41.488C41.8293 10.0907 42.128 10.5173 42.384 10.944H41.744C41.872 11.1147 41.9787 11.328 42.064 11.584C42.192 11.7973 42.32 12.0107 42.448 12.224H45.456L45.84 13.184H45.328C45.3707 13.3547 45.4133 13.5253 45.456 13.696C45.5413 13.824 45.6053 13.9733 45.648 14.144H45.008L45.136 14.464H45.392C45.4347 14.5493 45.456 14.656 45.456 14.784L45.648 15.424H45.84C45.84 15.552 45.8613 15.6587 45.904 15.744H45.968C46.0107 15.9147 46.032 16.0853 46.032 16.256C46.0747 16.384 46.096 16.5333 46.096 16.704H45.264C45.264 16.7893 45.264 16.896 45.264 17.024C45.264 17.152 45.2853 17.2587 45.328 17.344H45.712C45.712 17.5573 45.712 17.7707 45.712 17.984C45.7547 18.1973 45.776 18.4107 45.776 18.624V19.264H46.16V19.584H45.776V20.224H45.136C45.136 20.2667 45.1147 20.3093 45.072 20.352C45.072 20.3947 45.072 20.4587 45.072 20.544H45.712C45.712 20.5867 45.6907 20.6293 45.648 20.672C45.648 20.7147 45.648 20.7787 45.648 20.864H48.656C48.6133 20.9493 48.592 21.056 48.592 21.184H49.424L49.36 21.824H46.416C46.3307 22.08 46.288 22.2933 46.288 22.464ZM20.688 21.184H27.024V21.824H22.416V21.888H27.088C27.3867 21.888 27.6213 21.8667 27.792 21.824H30.736C31.2053 21.696 31.632 21.4827 32.016 21.184H31.12L31.44 20.864H28.432C28.56 20.736 28.6453 20.6293 28.688 20.544H28.048L28.24 20.224H28.88L29.072 19.584H29.392C29.4347 19.4987 29.456 19.392 29.456 19.264H29.072L29.136 18.624C29.136 18.1973 29.072 17.7707 28.944 17.344H28.56C28.5173 17.2587 28.4747 17.152 28.432 17.024C28.432 16.896 28.3893 16.7893 28.304 16.704H29.2C29.0293 16.3627 28.7947 16.0427 28.496 15.744H28.368C28.24 15.616 28.0907 15.5093 27.92 15.424H27.728C27.3013 15.2107 26.8533 15.104 26.384 15.104H21.712V15.424H21.52V15.744H21.776V16.704H21.456V17.344H21.776V18.624H21.52V19.584H21.648V20.224H21.584V20.544H21.008V20.864H20.688V21.184ZM25.744 35.904L25.488 35.264H24.784L24.272 34.048H21.648V35.264H22.224V35.904H25.744ZM20.048 35.904V36.864H21.264L20.88 35.904H20.048ZM25.872 37.184L25.744 36.864H21.776V37.184H22.16V37.504H22.224V38.464H25.04V39.744H20.112V40.704H23.76V41.664H21.52V42.624H22.864V43.264H18.832V43.584H27.856L27.664 43.264H27.856L27.536 42.624H27.024L26.64 41.664L26.192 40.704H28.24L27.792 39.744H31.952L31.376 38.464H25.04L24.656 37.504H26.064L25.872 37.184ZM83.206 30.464V31.104H91.334V31.744H86.406V32.384H84.102V33.024H86.086V33.408C86.086 33.664 86.0647 33.856 86.022 33.984H86.918C86.6193 34.752 86.0647 35.136 85.254 35.136H66.182V35.264H68.742V35.456C68.742 35.6267 68.742 35.8187 68.742 36.032C68.742 36.2027 68.7633 36.3733 68.806 36.544H65.35C65.35 36.672 65.35 36.8 65.35 36.928C65.3927 37.0133 65.414 37.0987 65.414 37.184H65.03C65.03 37.3547 65.0727 37.568 65.158 37.824H65.414C65.6273 38.4213 65.9687 38.848 66.438 39.104H64.71C65.0087 39.2747 65.414 39.36 65.926 39.36C66.2673 39.36 66.5447 39.2747 66.758 39.104H69.766C69.9367 39.0187 70.086 38.8907 70.214 38.72C70.3847 38.5493 70.5767 38.3787 70.79 38.208L71.174 37.824H69.958C70.342 37.4827 70.918 37.312 71.686 37.312H83.782C84.294 37.312 84.678 37.4827 84.934 37.824H86.086C86.2993 38.1227 86.406 38.4213 86.406 38.72C86.3633 38.8053 86.342 38.9333 86.342 39.104H83.334C83.2487 39.5307 83.1207 39.9573 82.95 40.384H79.814C79.686 40.5973 79.5793 40.8107 79.494 41.024H87.43C87.3447 41.2373 87.2167 41.4507 87.046 41.664C86.918 41.8773 86.7687 42.0907 86.598 42.304H84.678C84.5073 42.56 84.3367 42.7733 84.166 42.944H84.614C84.5713 42.9867 84.5287 43.0293 84.486 43.072C84.4433 43.1147 84.4007 43.1787 84.358 43.264H80.774L80.454 43.584H81.542C81.4993 43.6267 81.4353 43.6693 81.35 43.712C81.3073 43.7547 81.2647 43.8187 81.222 43.904H83.206C82.9073 44.2027 82.5233 44.5227 82.054 44.864H81.094C81.0513 44.9067 80.9873 44.9493 80.902 44.992C80.8167 45.0347 80.7313 45.0987 80.646 45.184H79.942C79.2593 45.6533 78.5127 46.08 77.702 46.464H76.87C76.358 46.72 75.8033 46.9547 75.206 47.168C74.6513 47.3813 74.054 47.5733 73.414 47.744H72.39C71.9207 47.872 71.43 47.9787 70.918 48.064C70.406 48.192 69.8513 48.2987 69.254 48.384H71.942C71.3447 48.4693 70.726 48.5333 70.086 48.576C69.446 48.6187 68.7633 48.64 68.038 48.64C67.3553 48.64 66.6727 48.6187 65.99 48.576C65.3073 48.5333 64.646 48.4693 64.006 48.384H61.318C60.7633 48.2987 60.23 48.192 59.718 48.064C59.206 47.9787 58.694 47.872 58.182 47.744H59.206C58.054 47.4453 56.966 47.0187 55.942 46.464H56.774C56.006 46.0373 55.3447 45.6107 54.79 45.184H55.494C55.4087 45.0987 55.3233 45.0347 55.238 44.992C55.1953 44.9493 55.1313 44.9067 55.046 44.864H56.006C55.8353 44.6933 55.6647 44.544 55.494 44.416C55.3233 44.2453 55.1527 44.0747 54.982 43.904H52.934L52.614 43.584H51.526C51.4833 43.4987 51.4407 43.4347 51.398 43.392C51.3553 43.3493 51.3127 43.3067 51.27 43.264H54.79C54.7473 43.1787 54.662 43.072 54.534 42.944H54.086C54.0007 42.8587 53.9153 42.752 53.83 42.624C53.7447 42.496 53.6593 42.3893 53.574 42.304H55.494C55.366 42.0907 55.238 41.8773 55.11 41.664C54.982 41.4507 54.854 41.2373 54.726 41.024H46.726C46.598 40.8107 46.4913 40.5973 46.406 40.384H49.542L48.966 39.104H50.694C50.6087 38.8907 50.5233 38.6773 50.438 38.464C50.3953 38.2507 50.3313 38.0373 50.246 37.824H50.054L49.862 37.184H50.31L50.118 36.544H53.574C53.5313 36.3307 53.4887 36.1173 53.446 35.904C53.4033 35.6907 53.3607 35.4773 53.318 35.264H50.758L50.63 33.984H49.734C49.734 33.8133 49.7127 33.664 49.67 33.536C49.67 33.3653 49.67 33.1947 49.67 33.024H47.686V32.384H49.926V31.744H54.854V31.104H46.726V30.976C46.726 30.7627 46.7473 30.592 46.79 30.464H57.862C57.862 30.2933 57.862 30.144 57.862 30.016C57.9047 29.8453 57.926 29.6747 57.926 29.504H47.75C47.75 29.4187 47.75 29.3547 47.75 29.312C47.7927 29.2693 47.814 29.2267 47.814 29.184H52.038C52.038 29.056 52.0593 28.9493 52.102 28.864H56.838V28.544H47.814C47.8567 28.3307 47.8993 28.1173 47.942 27.904C47.9847 27.6907 48.0273 27.4773 48.07 27.264H50.502C50.502 27.0933 50.5447 26.88 50.63 26.624H48.518C48.518 26.5387 48.518 26.4747 48.518 26.432C48.5607 26.3893 48.582 26.3467 48.582 26.304H50.118C50.118 26.2187 50.118 26.1547 50.118 26.112C50.1607 26.0693 50.182 26.0267 50.182 25.984H48.582L48.71 25.664H50.246L50.438 25.024H51.654L52.038 24.064H50.886C50.9713 23.8507 51.0567 23.6373 51.142 23.424C51.2273 23.168 51.334 22.9547 51.462 22.784H51.27L51.398 22.464H49.798C49.8833 22.2933 49.926 22.1867 49.926 22.144H48.454L48.838 21.504H51.974C52.0167 21.4187 52.102 21.312 52.23 21.184H53.382C53.5527 20.9707 53.702 20.7573 53.83 20.544C54.0007 20.288 54.1713 20.0747 54.342 19.904H53.19C53.318 19.7333 53.446 19.584 53.574 19.456C53.7447 19.2853 53.9153 19.1147 54.086 18.944H56.582L57.222 18.304H53.446C54.0007 17.8347 54.5553 17.408 55.11 17.024H58.63L59.142 16.704H57.99C58.3313 16.4907 58.7367 16.2773 59.206 16.064H61.702C62.854 15.5093 64.0487 15.0827 65.286 14.784H61.702C62.6407 14.5707 63.622 14.4 64.646 14.272C65.67 14.144 66.7367 14.08 67.846 14.08C68.9553 14.08 70.0007 14.144 70.982 14.272C71.9633 14.4 72.902 14.5707 73.798 14.784H77.318C77.958 14.9547 78.5553 15.1467 79.11 15.36C79.7073 15.5733 80.2833 15.808 80.838 16.064H78.342C78.5553 16.1493 78.7473 16.256 78.918 16.384C79.1313 16.4693 79.3233 16.576 79.494 16.704H80.646C80.7313 16.7467 80.8167 16.7893 80.902 16.832C80.9873 16.8747 81.0727 16.9387 81.158 17.024H77.638C78.1927 17.408 78.7473 17.8347 79.302 18.304H83.142L83.782 18.944H81.286C81.4567 19.1147 81.606 19.2853 81.734 19.456C81.9047 19.584 82.054 19.7333 82.182 19.904H83.334C83.5047 20.0747 83.654 20.288 83.782 20.544C83.9527 20.7573 84.1233 20.9707 84.294 21.184H83.078C83.1207 21.2693 83.206 21.376 83.334 21.504H80.134L80.518 22.144H81.99L82.182 22.464H83.846C83.846 22.5067 83.8887 22.6133 83.974 22.784H84.166L84.742 24.064L85.126 25.024H85.19L85.382 25.664H84.614L84.742 25.984H85.318L85.446 26.304H86.47C86.47 26.3467 86.47 26.3893 86.47 26.432C86.5127 26.4747 86.534 26.5387 86.534 26.624H86.022L86.214 27.264H83.782L83.974 28.544H92.998V28.864H88.262C88.262 28.9067 88.262 28.9493 88.262 28.992C88.3047 29.0347 88.326 29.0987 88.326 29.184H84.038C84.0807 29.2693 84.102 29.376 84.102 29.504H94.278C94.278 29.6747 94.278 29.8453 94.278 30.016C94.278 30.144 94.2993 30.2933 94.342 30.464H83.206ZM63.75 26.304V26.624H65.798V27.136H70.918V26.624H71.366V26.304H70.342V25.984H69.702C69.702 25.856 69.6807 25.7493 69.638 25.664H70.406C70.406 25.4933 70.3633 25.28 70.278 25.024H70.214C70.1713 24.64 70.0433 24.32 69.83 24.064C69.4033 23.3813 68.742 23.04 67.846 23.04C66.9927 23.04 66.3527 23.3813 65.926 24.064H67.078C66.9073 24.32 66.7793 24.64 66.694 25.024H65.414C65.414 25.1093 65.3927 25.216 65.35 25.344C65.35 25.4293 65.3287 25.536 65.286 25.664H63.75C63.75 25.792 63.7287 25.8987 63.686 25.984H65.286V26.304H63.75ZM127.817 46.784H129.865V47.744H128.265V48.064H128.713C128.67 48.2347 128.649 48.384 128.649 48.512C128.649 48.6827 128.628 48.8533 128.585 49.024H128.521V49.344H125.513C125.47 49.4293 125.449 49.536 125.449 49.664C125.449 49.792 125.428 49.8987 125.385 49.984H129.097C129.054 50.1973 129.012 50.4107 128.969 50.624C128.926 50.8373 128.884 51.0507 128.841 51.264H127.817C127.774 51.4347 127.732 51.584 127.689 51.712C127.646 51.8827 127.582 52.0533 127.497 52.224H125.385L125.129 52.864H126.217L125.961 53.504H126.089C126.004 53.7173 125.897 53.9307 125.769 54.144H125.833L125.257 55.104C125.214 55.1467 125.172 55.1893 125.129 55.232C125.129 55.2747 125.108 55.3387 125.065 55.424C124.98 55.5947 124.873 55.744 124.745 55.872C124.617 56.0427 124.489 56.2133 124.361 56.384H124.233L123.913 56.704H125.129L124.553 57.344H123.081C122.953 57.4293 122.825 57.536 122.697 57.664C122.569 57.792 122.462 57.8987 122.377 57.984H124.105C123.934 58.1547 123.721 58.304 123.465 58.432C123.252 58.6027 123.038 58.7733 122.825 58.944H125.129C124.873 59.1147 124.596 59.264 124.297 59.392C124.041 59.5627 123.764 59.7333 123.465 59.904H122.825C122.612 60.032 122.377 60.1387 122.121 60.224C121.865 60.352 121.63 60.4587 121.417 60.544H117.769C116.958 60.8427 116.126 61.0987 115.273 61.312C114.42 61.5253 113.545 61.696 112.649 61.824H116.425C115.785 61.9093 115.124 61.9733 114.441 62.016C113.758 62.0587 113.076 62.08 112.393 62.08C111.668 62.08 110.942 62.0587 110.217 62.016C109.534 61.9733 108.873 61.9093 108.233 61.824H104.457C102.537 61.568 100.766 61.1413 99.145 60.544H102.793C102.537 60.4587 102.281 60.352 102.025 60.224C101.769 60.1387 101.513 60.032 101.257 59.904H101.897C101.598 59.7333 101.3 59.5627 101.001 59.392C100.702 59.264 100.404 59.1147 100.105 58.944H97.865C97.609 58.7733 97.353 58.6027 97.097 58.432C96.8837 58.304 96.6703 58.1547 96.457 57.984H94.729C94.3877 57.728 94.1317 57.5147 93.961 57.344H95.433C95.305 57.2587 95.177 57.152 95.049 57.024C94.921 56.896 94.8143 56.7893 94.729 56.704H93.513C93.4703 56.6187 93.4277 56.5547 93.385 56.512C93.3423 56.4693 93.2783 56.4267 93.193 56.384H93.385C93.2143 56.2133 93.065 56.0427 92.937 55.872C92.809 55.744 92.681 55.5947 92.553 55.424H92.489C92.4463 55.3387 92.361 55.232 92.233 55.104H92.297C92.169 54.9333 92.041 54.7627 91.913 54.592C91.785 54.464 91.6783 54.3147 91.593 54.144L91.209 53.504H91.081C91.0383 53.4187 90.9957 53.312 90.953 53.184C90.9103 53.056 90.8463 52.9493 90.761 52.864H89.673L89.417 52.224H91.593C91.5503 52.0533 91.4863 51.8827 91.401 51.712C91.3583 51.584 91.3157 51.4347 91.273 51.264H90.889C90.889 51.136 90.8677 51.008 90.825 50.88C90.825 50.7947 90.825 50.7093 90.825 50.624C90.825 50.3253 90.8463 50.112 90.889 49.984H90.697C90.825 49.728 90.9743 49.5147 91.145 49.344H90.761C91.017 49.1733 91.209 49.0667 91.337 49.024H92.169C92.425 48.9387 92.6597 48.896 92.873 48.896H105.353C105.566 48.896 105.801 48.9387 106.057 49.024H105.161C105.374 49.0667 105.545 49.1733 105.673 49.344H106.057C106.228 49.5147 106.377 49.728 106.505 49.984H106.697L106.825 50.176C107.124 50.688 107.401 51.0507 107.657 51.264H107.977C108.446 51.6053 109.086 51.776 109.897 51.776C110.537 51.776 111.092 51.6053 111.561 51.264H112.585C112.969 50.9653 113.246 50.5387 113.417 49.984H109.705C109.79 49.728 109.833 49.5147 109.833 49.344H112.841C112.884 49.2587 112.905 49.152 112.905 49.024H112.969C113.012 48.8533 113.033 48.6827 113.033 48.512C113.033 48.384 113.033 48.2347 113.033 48.064H112.649V47.744H114.185V46.784H112.137V46.464H110.921V46.144H112.073V44.864H110.857V44.48L110.217 44.864H110.153C109.129 45.4613 108.02 45.888 106.825 46.144H107.081C106.74 46.1867 106.398 46.2507 106.057 46.336C105.716 46.3787 105.353 46.4213 104.969 46.464H103.369C103.113 46.5067 102.857 46.528 102.601 46.528C102.345 46.528 102.089 46.528 101.833 46.528C101.534 46.528 101.236 46.528 100.937 46.528C100.638 46.528 100.361 46.5067 100.105 46.464H101.641C101.257 46.4213 100.873 46.3787 100.489 46.336C100.105 46.2507 99.721 46.1867 99.337 46.144H99.145C98.505 46.016 97.8863 45.8453 97.289 45.632C96.7343 45.4187 96.1797 45.1627 95.625 44.864H95.689C95.5183 44.7787 95.3477 44.6933 95.177 44.608C95.0063 44.48 94.8357 44.352 94.665 44.224H96.137C95.881 44.0107 95.625 43.7973 95.369 43.584C95.1557 43.3707 94.9423 43.1573 94.729 42.944H89.545L89.225 42.624H92.169C91.8277 42.1973 91.529 41.7707 91.273 41.344H92.105C91.8063 40.9173 91.5717 40.4907 91.401 40.064H91.273C91.0597 39.5947 90.889 39.168 90.761 38.784H86.089C86.089 38.6987 86.089 38.6347 86.089 38.592C86.0463 38.5493 86.025 38.5067 86.025 38.464H90.377L90.185 37.824H90.505C90.4623 37.6107 90.3983 37.3973 90.313 37.184C90.2703 36.9707 90.2277 36.7573 90.185 36.544H90.953L90.761 35.264H89.929L89.865 34.624H88.329C88.2863 34.4107 88.265 34.1973 88.265 33.984C88.265 33.7707 88.2437 33.5573 88.201 33.344H87.625C87.625 33.1733 87.625 33.024 87.625 32.896C87.5823 32.7253 87.561 32.5547 87.561 32.384H88.457V31.744H89.609C89.609 31.5733 89.5877 31.424 89.545 31.296C89.545 31.1253 89.545 30.9547 89.545 30.784H90.121V29.824H89.097C89.097 29.6533 89.097 29.504 89.097 29.376C89.097 29.2053 89.1183 29.0347 89.161 28.864H89.289V28.8C89.289 28.6293 89.289 28.48 89.289 28.352C89.3317 28.224 89.353 28.0747 89.353 27.904H89.609C89.6517 27.7333 89.673 27.584 89.673 27.456C89.673 27.2853 89.6943 27.1147 89.737 26.944C89.7797 26.8587 89.801 26.752 89.801 26.624C89.801 26.496 89.8223 26.3893 89.865 26.304H89.545V25.984H89.929C89.9717 25.7707 90.0143 25.5573 90.057 25.344C90.0997 25.088 90.1423 24.8747 90.185 24.704H90.121C90.1637 24.5333 90.2063 24.384 90.249 24.256C90.2917 24.0853 90.3343 23.9147 90.377 23.744H90.889C90.9743 23.5307 91.0383 23.3173 91.081 23.104C91.1663 22.848 91.2517 22.6347 91.337 22.464H91.657L91.785 22.144H90.889C90.9317 22.0587 90.9743 21.952 91.017 21.824C91.0597 21.696 91.1023 21.5893 91.145 21.504L91.529 20.544C91.5717 20.4587 91.593 20.3947 91.593 20.352C91.6357 20.3093 91.6783 20.2667 91.721 20.224L91.913 19.904C91.9983 19.8187 92.0623 19.712 92.105 19.584C92.1903 19.456 92.2757 19.3493 92.361 19.264C92.4037 19.1787 92.4463 19.1147 92.489 19.072C92.5317 19.0293 92.5743 18.9867 92.617 18.944H92.489L93.257 17.984C93.385 17.8987 93.4917 17.792 93.577 17.664C93.705 17.536 93.8117 17.4293 93.897 17.344H94.025C94.0677 17.2587 94.1103 17.1947 94.153 17.152C94.2383 17.1093 94.3023 17.0667 94.345 17.024H95.049C95.305 16.768 95.5823 16.5547 95.881 16.384H94.281C94.4517 16.256 94.6223 16.1493 94.793 16.064C94.9637 15.936 95.1343 15.8293 95.305 15.744H95.753C96.3503 15.4027 97.0757 15.0827 97.929 14.784H100.041C101.577 14.3147 103.22 14.08 104.969 14.08C106.505 14.08 107.934 14.3147 109.257 14.784H107.145C107.828 14.9973 108.51 15.3173 109.193 15.744H108.809C108.98 15.8293 109.129 15.936 109.257 16.064C109.428 16.1493 109.598 16.256 109.769 16.384H111.305C111.476 16.4693 111.625 16.576 111.753 16.704C111.881 16.832 112.009 16.9387 112.137 17.024H111.433L111.753 17.344H111.689L112.265 17.984C112.35 18.0267 112.414 18.0907 112.457 18.176C112.542 18.2613 112.606 18.3467 112.649 18.432V17.984H112.905V17.344H113.993V17.024H114.697V16.384H111.561C111.561 16.128 111.625 15.9147 111.753 15.744H112.841C113.054 15.232 113.417 14.912 113.929 14.784H112.649C112.777 14.7413 112.948 14.72 113.161 14.72H124.361C124.574 14.72 124.724 14.7413 124.809 14.784H126.089C126.601 14.912 126.964 15.232 127.177 15.744H126.089C126.174 16 126.217 16.2133 126.217 16.384H129.353V17.024H128.649V17.344H127.561V17.984H127.305V18.944H127.369V19.904H127.305V21.504H127.369V22.144H128.265V22.464H127.881V23.744H127.305L127.369 24.704V26.304H127.177V26.944H126.985V27.904H127.369V28.864H128.137V29.824H126.793V30.784H127.241V31.744H127.369V32.384H125.257L125.321 33.344H125.577V34.624H126.985V35.264H128.137V36.544H127.305V37.824H127.049V38.464H122.633V38.784H127.305V40.064H127.433V41.344H126.537L126.601 42.624H123.657V42.944H128.841V44.224H126.537V44.864H127.753V46.144H126.601V46.464H127.817V46.784ZM106.249 34.624C106.548 34.9227 106.932 35.136 107.401 35.264H108.169C108.34 35.3067 108.51 35.3493 108.681 35.392C108.894 35.392 109.086 35.392 109.257 35.392C109.47 35.392 109.662 35.392 109.833 35.392C110.046 35.3493 110.238 35.3067 110.409 35.264H109.257C109.726 35.136 110.11 34.9227 110.409 34.624H109.001C109.342 34.2827 109.577 33.856 109.705 33.344H109.449L109.641 32.384H111.689C111.689 32.2987 111.71 32.2347 111.753 32.192V31.744H111.625V30.784H111.241V29.824H112.521V28.864H111.689V28.736C111.689 28.5653 111.668 28.416 111.625 28.288C111.625 28.16 111.604 28.032 111.561 27.904H111.241C111.198 27.5627 111.092 27.2427 110.921 26.944H111.049C110.921 26.688 110.772 26.4747 110.601 26.304H110.793C110.622 26.1333 110.494 26.0267 110.409 25.984C109.982 25.6853 109.364 25.536 108.553 25.536C107.742 25.536 107.124 25.6853 106.697 25.984H106.313C106.228 26.0267 106.1 26.1333 105.929 26.304H106.249C106.078 26.4747 105.929 26.688 105.801 26.944H105.737C105.694 27.072 105.652 27.2213 105.609 27.392C105.566 27.52 105.502 27.6907 105.417 27.904H105.161C105.118 28.0747 105.076 28.2453 105.033 28.416C105.033 28.544 105.033 28.6933 105.033 28.864H104.841V29.248C104.798 29.376 104.777 29.568 104.777 29.824H105.801V30.784H105.225C105.225 30.9547 105.225 31.1253 105.225 31.296C105.268 31.424 105.289 31.552 105.289 31.68V31.744H104.137L104.201 32.384H103.305L103.497 33.344H104.073C104.201 33.856 104.436 34.2827 104.777 34.624H106.249ZM112.585 44.224H113.161V43.776L112.585 44.224ZM132.81 9.344V8.064H132.746V7.104H133.322V6.784H133.706V5.504H133.386V4.544H133.45V3.264H133.706V2.304H133.578V1.728C133.578 1.38667 133.621 1.152 133.706 1.024H134.346L134.538 0.703999H134.026C134.367 0.234664 134.837 -3.8147e-06 135.434 -3.8147e-06H146.25C146.847 -3.8147e-06 147.317 0.234664 147.658 0.703999H148.17L148.362 1.024H147.658C147.786 1.19467 147.85 1.42933 147.85 1.728V2.304H147.978V3.264H147.722V4.544H147.658V5.504H147.978V6.784H147.594V7.104H147.018V8.064H147.082V9.344H147.53V9.472C147.53 9.856 147.381 10.24 147.082 10.624H146.314C146.015 11.008 145.589 11.2 145.034 11.2H134.218C133.663 11.2 133.215 11.008 132.874 10.624H133.642C133.386 10.2827 133.258 9.89867 133.258 9.472V9.344H132.81ZM145.994 22.784H152.01V24.064H149.834V24.704H147.402V25.984H149.258V26.304H148.042V26.944H148.234V27.584H148.554V28.544H145.354V29.504H147.466V30.464H147.082V31.104H148.17V32.064H148.426V33.024H148.042V33.984H148.362V34.624H148.042V35.904H147.914V36.864H147.658V37.824H147.914V38.464H148.042V39.744H147.786V40.384H148.106V41.024H148.042V41.984H148.298V42.944H148.49V43.264H148.042V44.544H147.146V45.824H147.786V46.272C147.786 46.4853 147.765 46.656 147.722 46.784H147.274C147.146 47.2107 146.911 47.5307 146.57 47.744H147.85C147.637 47.9147 147.317 48 146.89 48H135.434C135.05 48 134.751 47.9147 134.538 47.744H133.258C132.874 47.5307 132.618 47.2107 132.49 46.784H132.938C132.895 46.656 132.874 46.4853 132.874 46.272V45.824H132.234V44.544H133.13V43.264H133.578V42.944H133.386V41.984H133.13V41.024H133.194V40.384H132.874V39.744H133.13V38.464H133.002V37.824H132.746V36.864H133.002V35.904H133.13V34.624H133.45V33.984H133.13V33.024H133.514V32.064H133.258V31.104H132.17V30.464H132.554V29.504H130.442V28.544H133.642V27.584H133.322V26.944H133.13V26.304H134.346V25.984H132.49V24.704H134.922V24.064H137.098V22.784H131.082V22.144H136.394V20.864H134.474V19.904H135.626V18.624H133.578V18.304H133.13V17.664H132.746V16.704H133.194V16.448C133.194 15.9787 133.301 15.6373 133.514 15.424H133.578C133.919 14.9547 134.389 14.72 134.986 14.72H146.442C147.039 14.72 147.509 14.9547 147.85 15.424H147.722C147.978 15.68 148.106 16.0213 148.106 16.448V16.704H147.658V17.664H148.042V18.304H148.49V18.624H150.538V19.904H149.386V20.864H151.306V22.144H145.994V22.784ZM192.555 42.304H189.931C189.675 42.7307 189.376 43.1573 189.035 43.584H190.187C190.144 43.6693 190.059 43.776 189.931 43.904H187.115C186.944 44.0747 186.774 44.2453 186.603 44.416C186.475 44.544 186.304 44.6933 186.091 44.864H186.027C185.814 45.0347 185.579 45.2053 185.323 45.376C185.11 45.504 184.875 45.6533 184.619 45.824H183.467C183.083 46.08 182.656 46.3147 182.187 46.528C181.718 46.6987 181.248 46.8907 180.779 47.104H180.523C180.395 47.1467 180.246 47.1893 180.075 47.232C179.947 47.2747 179.776 47.3387 179.563 47.424H186.859C186.688 47.4667 186.496 47.5093 186.283 47.552C186.112 47.5947 185.92 47.6587 185.707 47.744H182.507C181.952 47.872 181.376 47.9787 180.779 48.064C180.182 48.192 179.563 48.2987 178.923 48.384H177.003C176.32 48.4693 175.595 48.5333 174.827 48.576C174.059 48.6187 173.248 48.64 172.395 48.64C171.584 48.64 170.816 48.6187 170.091 48.576C169.408 48.5333 168.747 48.4693 168.107 48.384H169.963C169.366 48.2987 168.79 48.192 168.235 48.064C167.68 47.9787 167.147 47.872 166.635 47.744H169.835L168.747 47.424H161.451C161.323 47.3387 161.174 47.2747 161.003 47.232C160.875 47.1893 160.726 47.1467 160.555 47.104H160.747C160.278 46.8907 159.808 46.6773 159.339 46.464C158.912 46.2507 158.486 46.0373 158.059 45.824H159.211C158.955 45.6533 158.699 45.504 158.443 45.376C158.23 45.2053 158.016 45.0347 157.803 44.864H157.931C157.718 44.6933 157.526 44.544 157.355 44.416C157.184 44.2453 157.014 44.0747 156.843 43.904H159.595C159.552 43.8187 159.51 43.7547 159.467 43.712C159.424 43.6693 159.382 43.6267 159.339 43.584H158.123C157.952 43.3707 157.782 43.1573 157.611 42.944C157.44 42.7307 157.27 42.5173 157.099 42.304H159.787C159.616 42.0907 159.488 41.8773 159.403 41.664C159.318 41.408 159.232 41.1947 159.147 41.024H157.931C157.846 40.8533 157.803 40.7467 157.803 40.704H155.819L155.627 40.064H154.155C154.112 39.936 154.091 39.744 154.091 39.488C154.091 39.1467 154.112 38.912 154.155 38.784H154.603C154.816 38.272 155.158 37.952 155.627 37.824H155.499C155.584 37.7813 155.734 37.76 155.947 37.76H167.339C167.382 37.76 167.424 37.7813 167.467 37.824C167.552 37.824 167.616 37.824 167.659 37.824H167.787C168.128 37.9093 168.427 38.0373 168.683 38.208C168.982 38.3787 169.28 38.5707 169.579 38.784H169.195C169.536 38.9973 169.899 39.2107 170.283 39.424C170.667 39.5947 171.115 39.68 171.627 39.68C171.968 39.68 172.288 39.616 172.587 39.488C172.886 39.3173 173.056 39.0827 173.099 38.784H173.291V38.72C173.291 38.336 173.206 38.0373 173.035 37.824C172.864 37.568 172.587 37.3547 172.203 37.184H171.435C171.008 36.9707 170.432 36.7573 169.707 36.544C169.024 36.3307 168.064 36.1173 166.827 35.904H167.403L166.379 35.712C166.038 35.6267 165.696 35.5627 165.355 35.52C165.014 35.4347 164.672 35.3493 164.331 35.264H164.587L163.499 34.944H163.627C163.072 34.7733 162.539 34.5813 162.027 34.368C161.515 34.1547 161.024 33.92 160.555 33.664H160.811L159.275 32.704H159.147C158.848 32.4907 158.571 32.2773 158.315 32.064C158.102 31.8507 157.888 31.6373 157.675 31.424H156.331C156.288 31.3387 156.246 31.2747 156.203 31.232C156.16 31.1893 156.118 31.1467 156.075 31.104H156.651C156.523 30.976 156.438 30.8693 156.395 30.784H154.603L153.899 29.824H156.651L156.267 29.184H155.371C155.158 28.7147 154.987 28.288 154.859 27.904H155.243C155.243 27.8187 155.222 27.7547 155.179 27.712C155.179 27.6693 155.179 27.6267 155.179 27.584H158.187C158.187 27.4133 158.144 27.2 158.059 26.944H152.427C152.427 26.7733 152.427 26.624 152.427 26.496C152.384 26.3253 152.342 26.1547 152.299 25.984H152.363L152.299 25.344H156.587C156.544 25.2587 156.523 25.152 156.523 25.024C156.523 24.8533 156.523 24.704 156.523 24.576C156.566 24.4053 156.587 24.2347 156.587 24.064H153.579L153.643 23.424H156.523L156.715 22.784H155.435C155.478 22.6987 155.52 22.592 155.563 22.464C155.606 22.336 155.648 22.2293 155.691 22.144H155.179C155.264 21.9733 155.35 21.824 155.435 21.696C155.52 21.5253 155.584 21.3547 155.627 21.184H155.883L156.267 20.544H156.203C156.288 20.3733 156.395 20.224 156.523 20.096C156.651 19.9253 156.779 19.7547 156.907 19.584C157.035 19.4133 157.163 19.264 157.291 19.136C157.419 18.9653 157.568 18.7947 157.739 18.624H157.611L157.931 18.304H157.867C157.91 18.2187 157.952 18.1547 157.995 18.112C158.08 18.0693 158.144 18.0267 158.187 17.984H158.315L159.083 17.344C159.168 17.2587 159.232 17.1947 159.275 17.152C159.36 17.1093 159.446 17.0667 159.531 17.024H158.315C159.04 16.5547 159.83 16.128 160.683 15.744H162.667C162.795 15.6587 162.923 15.5947 163.051 15.552C163.179 15.5093 163.328 15.4667 163.499 15.424H159.147C159.318 15.3387 159.467 15.2747 159.595 15.232C159.766 15.1893 159.936 15.1467 160.107 15.104H162.859C163.926 14.7627 165.056 14.5067 166.251 14.336C167.488 14.1653 168.79 14.08 170.155 14.08C171.563 14.08 172.886 14.1653 174.123 14.336C175.36 14.5067 176.512 14.7627 177.579 15.104H174.827C174.998 15.1467 175.147 15.1893 175.275 15.232C175.446 15.2747 175.616 15.3387 175.787 15.424H180.075L180.971 15.744H178.987C179.456 15.9147 179.904 16.128 180.331 16.384C180.758 16.5973 181.163 16.8107 181.547 17.024H182.763L183.275 17.344H183.339C183.51 17.4293 183.659 17.536 183.787 17.664C183.958 17.792 184.107 17.8987 184.235 17.984H184.171L184.555 18.304H184.619L185.003 18.624H185.131C185.515 18.9227 185.835 19.2427 186.091 19.584C186.432 19.8827 186.688 20.2027 186.859 20.544H186.923L187.307 21.184H186.987C187.072 21.3547 187.158 21.5253 187.243 21.696C187.328 21.824 187.392 21.9733 187.435 22.144H187.883L188.075 22.784H189.291L189.355 23.232V23.424H190.443C190.443 23.5947 190.4 23.808 190.315 24.064C190.016 24.6613 189.59 24.96 189.035 24.96H178.283C177.856 24.96 177.451 24.8747 177.067 24.704C176.726 24.4907 176.384 24.2773 176.043 24.064C175.744 23.8507 175.403 23.6373 175.019 23.424H173.931C173.504 23.168 173.035 23.04 172.523 23.04C172.096 23.04 171.755 23.168 171.499 23.424H168.683C168.47 23.6373 168.363 23.8507 168.363 24.064H171.371C171.371 24.2773 171.414 24.4907 171.499 24.704C171.584 24.9173 171.776 25.1307 172.075 25.344H167.851C168.064 25.4293 168.299 25.536 168.555 25.664C168.811 25.792 169.131 25.8987 169.515 25.984H169.451C169.963 26.1547 170.603 26.304 171.371 26.432C172.182 26.56 173.12 26.7093 174.187 26.88C174.272 26.88 174.336 26.9013 174.379 26.944C174.464 26.944 174.528 26.944 174.571 26.944H180.203C180.715 27.0293 181.206 27.136 181.675 27.264C182.187 27.3493 182.656 27.456 183.083 27.584H180.075C180.246 27.6267 180.395 27.6693 180.523 27.712C180.694 27.7547 180.864 27.8187 181.035 27.904H180.651C181.206 28.0747 181.696 28.2667 182.123 28.48C182.592 28.6933 183.04 28.928 183.467 29.184H184.427L185.451 29.824H182.699C182.912 29.9947 183.126 30.1653 183.339 30.336C183.552 30.464 183.744 30.6133 183.915 30.784H185.707L186.027 31.104H185.451L185.771 31.424H187.051C187.52 31.8933 187.862 32.32 188.075 32.704H188.203C188.331 32.8747 188.438 33.0453 188.523 33.216C188.608 33.344 188.694 33.4933 188.779 33.664H188.523C188.608 33.8773 188.694 34.0907 188.779 34.304C188.907 34.5173 188.992 34.7307 189.035 34.944H188.843L188.971 35.264H188.715C188.758 35.3493 188.779 35.456 188.779 35.584C188.779 35.712 188.8 35.8187 188.843 35.904H188.267C188.395 36.3307 188.459 36.7573 188.459 37.184H189.291V37.632C189.291 37.8027 189.27 37.9947 189.227 38.208C189.227 38.3787 189.227 38.5707 189.227 38.784H189.035C188.992 38.9973 188.95 39.2107 188.907 39.424C188.907 39.6373 188.864 39.8507 188.779 40.064H190.251C190.251 40.2773 190.187 40.4907 190.059 40.704H192.107C192.022 40.8747 191.979 40.9813 191.979 41.024H193.195C193.11 41.2373 193.003 41.4507 192.875 41.664C192.79 41.8773 192.683 42.0907 192.555 42.304ZM223.655 40.704H222.119V41.344H224.423V41.984H226.535V42.944H225.063V43.904H229.351V44.864H222.375V46.144H222.887V46.272C222.887 46.3573 222.866 46.4213 222.823 46.464C222.738 46.8907 222.588 47.2107 222.375 47.424H221.863C221.692 47.5947 221.564 47.7013 221.479 47.744H223.655C223.442 47.9147 223.143 48 222.759 48H215.527C214.802 48 214.076 47.9787 213.351 47.936C212.668 47.8933 212.007 47.8293 211.367 47.744H209.191C208.892 47.7013 208.594 47.6587 208.295 47.616C207.996 47.5307 207.676 47.4667 207.335 47.424H207.847C207.292 47.296 206.759 47.1467 206.247 46.976C205.778 46.8053 205.308 46.6347 204.839 46.464H204.903C204.775 46.3787 204.647 46.3147 204.519 46.272C204.391 46.2293 204.284 46.1867 204.199 46.144H203.687C203.346 45.9307 203.004 45.7387 202.663 45.568C202.322 45.3547 201.98 45.12 201.639 44.864H208.679C208.508 44.6933 208.316 44.544 208.103 44.416C207.932 44.2453 207.762 44.0747 207.591 43.904H203.303L202.471 42.944H204.007C203.879 42.7733 203.751 42.624 203.623 42.496C203.538 42.3253 203.452 42.1547 203.367 41.984H201.255L200.871 41.344H198.567C198.524 41.2587 198.482 41.152 198.439 41.024C198.396 40.896 198.332 40.7893 198.247 40.704H199.847L199.463 39.744H200.743L200.551 39.104C200.466 38.848 200.423 38.6347 200.423 38.464H205.479C205.436 38.2933 205.394 38.144 205.351 38.016C205.351 37.8453 205.351 37.6747 205.351 37.504H198.055C198.055 37.4187 198.034 37.3547 197.991 37.312C197.991 37.2693 197.991 37.2267 197.991 37.184H197.799C197.799 37.0133 197.778 36.864 197.735 36.736C197.735 36.5653 197.735 36.3947 197.735 36.224H197.543C197.543 36.0533 197.522 35.904 197.479 35.776C197.479 35.6053 197.479 35.4347 197.479 35.264H198.375V34.944H197.799V34.304H197.287V33.024H198.055V31.744H197.287V30.784H197.863V30.144H197.927V29.184H198.247V26.944H198.375V25.984H198.695V25.92H193.639C192.999 25.92 192.487 25.6213 192.103 25.024H193.063C192.935 24.768 192.871 24.4907 192.871 24.192V23.744H190.823V22.784H191.271V21.504H190.951V20.864H191.079V20.224H192.039V19.904H190.439V18.944H192.359V17.984H191.975V17.344H191.527V16.384H191.143V16.064H190.951C191.079 15.424 191.484 14.9973 192.167 14.784H192.551C192.679 14.7413 192.85 14.72 193.063 14.72H198.119V14.464H198.375V13.504H197.863V12.864H197.799V11.904H197.543V11.584H196.007V10.944H194.535V10.624H195.047V10.304H196.519V9.024H197.095V8.384H195.047V7.744H198.183V6.784H197.863V6.464H197.159V5.824H197.799V5.504H197.159V4.544H197.735V4.288C197.735 4.07467 197.778 3.84 197.863 3.584H198.695C198.994 2.90133 199.527 2.56 200.295 2.56H211.495C212.178 2.56 212.711 2.90133 213.095 3.584H212.263C212.348 3.84 212.391 4.07467 212.391 4.288V4.544H211.815V5.504H212.455V5.824H211.815V6.464H212.519V6.784H212.839V7.744H209.703V8.384H211.751V9.024H211.175V10.304H209.703V10.624H209.191V10.944H210.663V11.584H212.199V11.904H212.455V12.864H212.519V13.504H213.031V14.464H212.775V14.72H220.839C221.052 14.72 221.202 14.7413 221.287 14.784H220.903C221.5 14.9973 221.906 15.424 222.119 16.064H222.311C222.311 16.1067 222.311 16.1493 222.311 16.192C222.354 16.2347 222.375 16.2987 222.375 16.384H222.759V17.344H223.207V17.984H223.591V18.944H221.671V19.904H223.271V20.224H222.311V20.864H222.183V21.504H222.503V22.784H222.055V23.744H224.103V24.192C224.103 24.3627 224.082 24.512 224.039 24.64C223.996 24.768 223.932 24.896 223.847 25.024H222.951C222.567 25.6213 222.055 25.92 221.415 25.92H213.351V25.984H213.031V26.944H212.903V29.184H212.583V30.144H212.519V30.784H211.943V31.744H212.711V33.024H211.943C211.943 33.2373 211.943 33.4507 211.943 33.664C211.986 33.8773 212.028 34.0907 212.071 34.304H212.647C212.732 34.56 212.818 34.7733 212.903 34.944H213.415L213.607 35.264H212.711C213.18 35.8613 213.906 36.16 214.887 36.16H220.711C220.924 36.16 221.074 36.1813 221.159 36.224H221.351C221.863 36.352 222.226 36.672 222.439 37.184H222.631C222.631 37.2267 222.631 37.2693 222.631 37.312C222.674 37.3547 222.695 37.4187 222.695 37.504H229.991C229.991 37.5467 229.991 37.6107 229.991 37.696C230.034 37.7387 230.055 37.8027 230.055 37.888V38.464H224.935V39.744H223.655V40.704ZM259.894 30.464V31.104H268.022V31.744H263.094V32.384H260.79V33.024H262.774V33.408C262.774 33.664 262.752 33.856 262.71 33.984H263.606C263.307 34.752 262.752 35.136 261.942 35.136H242.87V35.264H245.43V35.456C245.43 35.6267 245.43 35.8187 245.43 36.032C245.43 36.2027 245.451 36.3733 245.494 36.544H242.038C242.038 36.672 242.038 36.8 242.038 36.928C242.08 37.0133 242.102 37.0987 242.102 37.184H241.718C241.718 37.3547 241.76 37.568 241.846 37.824H242.102C242.315 38.4213 242.656 38.848 243.126 39.104H241.398C241.696 39.2747 242.102 39.36 242.614 39.36C242.955 39.36 243.232 39.2747 243.446 39.104H246.454C246.624 39.0187 246.774 38.8907 246.902 38.72C247.072 38.5493 247.264 38.3787 247.478 38.208L247.862 37.824H246.646C247.03 37.4827 247.606 37.312 248.374 37.312H260.47C260.982 37.312 261.366 37.4827 261.622 37.824H262.774C262.987 38.1227 263.094 38.4213 263.094 38.72C263.051 38.8053 263.03 38.9333 263.03 39.104H260.022C259.936 39.5307 259.808 39.9573 259.638 40.384H256.502C256.374 40.5973 256.267 40.8107 256.182 41.024H264.118C264.032 41.2373 263.904 41.4507 263.734 41.664C263.606 41.8773 263.456 42.0907 263.286 42.304H261.366C261.195 42.56 261.024 42.7733 260.854 42.944H261.302C261.259 42.9867 261.216 43.0293 261.174 43.072C261.131 43.1147 261.088 43.1787 261.046 43.264H257.462L257.142 43.584H258.229C258.187 43.6267 258.123 43.6693 258.038 43.712C257.995 43.7547 257.952 43.8187 257.91 43.904H259.894C259.595 44.2027 259.211 44.5227 258.742 44.864H257.782C257.739 44.9067 257.675 44.9493 257.59 44.992C257.504 45.0347 257.419 45.0987 257.333 45.184H256.63C255.947 45.6533 255.2 46.08 254.39 46.464H253.558C253.046 46.72 252.491 46.9547 251.894 47.168C251.339 47.3813 250.742 47.5733 250.102 47.744H249.078C248.608 47.872 248.118 47.9787 247.606 48.064C247.094 48.192 246.539 48.2987 245.942 48.384H248.63C248.032 48.4693 247.414 48.5333 246.774 48.576C246.134 48.6187 245.451 48.64 244.726 48.64C244.043 48.64 243.36 48.6187 242.678 48.576C241.995 48.5333 241.334 48.4693 240.694 48.384H238.006C237.451 48.2987 236.918 48.192 236.406 48.064C235.894 47.9787 235.382 47.872 234.87 47.744H235.894C234.742 47.4453 233.654 47.0187 232.63 46.464H233.462C232.694 46.0373 232.032 45.6107 231.478 45.184H232.182C232.096 45.0987 232.011 45.0347 231.926 44.992C231.883 44.9493 231.819 44.9067 231.734 44.864H232.694C232.523 44.6933 232.352 44.544 232.182 44.416C232.011 44.2453 231.84 44.0747 231.67 43.904H229.622L229.302 43.584H228.214C228.171 43.4987 228.128 43.4347 228.086 43.392C228.043 43.3493 228 43.3067 227.958 43.264H231.478C231.435 43.1787 231.35 43.072 231.222 42.944H230.774C230.688 42.8587 230.603 42.752 230.518 42.624C230.432 42.496 230.347 42.3893 230.262 42.304H232.182C232.054 42.0907 231.926 41.8773 231.798 41.664C231.67 41.4507 231.542 41.2373 231.414 41.024H223.413C223.285 40.8107 223.179 40.5973 223.093 40.384H226.23L225.654 39.104H227.382C227.296 38.8907 227.211 38.6773 227.126 38.464C227.083 38.2507 227.019 38.0373 226.934 37.824H226.742L226.549 37.184H226.998L226.806 36.544H230.262C230.219 36.3307 230.176 36.1173 230.134 35.904C230.091 35.6907 230.048 35.4773 230.006 35.264H227.446L227.318 33.984H226.422C226.422 33.8133 226.4 33.664 226.358 33.536C226.358 33.3653 226.358 33.1947 226.358 33.024H224.373V32.384H226.614V31.744H231.542V31.104H223.413V30.976C223.413 30.7627 223.435 30.592 223.477 30.464H234.55C234.55 30.2933 234.55 30.144 234.55 30.016C234.592 29.8453 234.614 29.6747 234.614 29.504H224.438C224.438 29.4187 224.438 29.3547 224.438 29.312C224.48 29.2693 224.502 29.2267 224.502 29.184H228.726C228.726 29.056 228.747 28.9493 228.79 28.864H233.526V28.544H224.502C224.544 28.3307 224.587 28.1173 224.63 27.904C224.672 27.6907 224.715 27.4773 224.758 27.264H227.19C227.19 27.0933 227.232 26.88 227.318 26.624H225.206C225.206 26.5387 225.206 26.4747 225.206 26.432C225.248 26.3893 225.27 26.3467 225.27 26.304H226.806C226.806 26.2187 226.806 26.1547 226.806 26.112C226.848 26.0693 226.87 26.0267 226.87 25.984H225.27L225.398 25.664H226.934L227.126 25.024H228.342L228.726 24.064H227.574C227.659 23.8507 227.744 23.6373 227.83 23.424C227.915 23.168 228.022 22.9547 228.15 22.784H227.958L228.086 22.464H226.486C226.571 22.2933 226.614 22.1867 226.614 22.144H225.142L225.526 21.504H228.661C228.704 21.4187 228.79 21.312 228.918 21.184H230.07C230.24 20.9707 230.39 20.7573 230.518 20.544C230.688 20.288 230.859 20.0747 231.03 19.904H229.878C230.006 19.7333 230.134 19.584 230.262 19.456C230.432 19.2853 230.603 19.1147 230.774 18.944H233.27L233.91 18.304H230.134C230.688 17.8347 231.243 17.408 231.798 17.024H235.318L235.83 16.704H234.678C235.019 16.4907 235.424 16.2773 235.894 16.064H238.39C239.542 15.5093 240.736 15.0827 241.974 14.784H238.39C239.328 14.5707 240.31 14.4 241.333 14.272C242.358 14.144 243.424 14.08 244.534 14.08C245.643 14.08 246.688 14.144 247.67 14.272C248.651 14.4 249.59 14.5707 250.486 14.784H254.006C254.646 14.9547 255.243 15.1467 255.798 15.36C256.395 15.5733 256.971 15.808 257.526 16.064H255.03C255.243 16.1493 255.435 16.256 255.606 16.384C255.819 16.4693 256.011 16.576 256.182 16.704H257.333C257.419 16.7467 257.504 16.7893 257.59 16.832C257.675 16.8747 257.76 16.9387 257.846 17.024H254.326C254.88 17.408 255.435 17.8347 255.99 18.304H259.83L260.47 18.944H257.974C258.144 19.1147 258.294 19.2853 258.422 19.456C258.592 19.584 258.742 19.7333 258.87 19.904H260.022C260.192 20.0747 260.342 20.288 260.47 20.544C260.64 20.7573 260.811 20.9707 260.982 21.184H259.766C259.808 21.2693 259.894 21.376 260.022 21.504H256.822L257.206 22.144H258.678L258.87 22.464H260.534C260.534 22.5067 260.576 22.6133 260.662 22.784H260.854L261.43 24.064L261.814 25.024H261.878L262.069 25.664H261.302L261.43 25.984H262.006L262.134 26.304H263.158C263.158 26.3467 263.158 26.3893 263.158 26.432C263.2 26.4747 263.222 26.5387 263.222 26.624H262.71L262.902 27.264H260.47L260.662 28.544H269.686V28.864H264.95C264.95 28.9067 264.95 28.9493 264.95 28.992C264.992 29.0347 265.014 29.0987 265.014 29.184H260.726C260.768 29.2693 260.79 29.376 260.79 29.504H270.966C270.966 29.6747 270.966 29.8453 270.966 30.016C270.966 30.144 270.987 30.2933 271.03 30.464H259.894ZM240.438 26.304V26.624H242.486V27.136H247.606V26.624H248.054V26.304H247.03V25.984H246.39C246.39 25.856 246.368 25.7493 246.326 25.664H247.094C247.094 25.4933 247.051 25.28 246.966 25.024H246.902C246.859 24.64 246.731 24.32 246.518 24.064C246.091 23.3813 245.43 23.04 244.534 23.04C243.68 23.04 243.04 23.3813 242.614 24.064H243.766C243.595 24.32 243.467 24.64 243.382 25.024H242.102C242.102 25.1093 242.08 25.216 242.038 25.344C242.038 25.4293 242.016 25.536 241.974 25.664H240.438C240.438 25.792 240.416 25.8987 240.374 25.984H241.974V26.304H240.438ZM295.929 19.584H298.361V20.864H298.233V22.144H295.993V23.104H296.569V24.384H296.057V25.664H294.905V25.984H290.873V26.432C290.873 26.5173 290.851 26.6027 290.809 26.688C290.809 26.7733 290.787 26.8587 290.745 26.944H292.217C292.003 27.7547 291.449 28.16 290.553 28.16H282.297C282.126 28.16 281.955 28.16 281.785 28.16C281.657 28.16 281.529 28.1813 281.401 28.224H283.961C283.747 28.2667 283.555 28.3093 283.385 28.352C283.214 28.3947 283.022 28.4587 282.809 28.544H284.921C284.793 28.5867 284.601 28.6933 284.345 28.864H285.561L285.177 29.184H285.497C285.241 29.44 285.049 29.76 284.921 30.144H283.001C282.915 30.3147 282.873 30.4213 282.873 30.464H282.233C282.233 30.5067 282.211 30.5493 282.169 30.592C282.169 30.6347 282.169 30.6987 282.169 30.784H282.937C282.894 30.8693 282.873 30.976 282.873 31.104C282.873 31.1893 282.851 31.296 282.809 31.424H283.193V32.384H282.297V33.024H283.193V33.984H284.153V35.264H282.745V35.584H281.721V35.904H285.561V36.864H283.641V37.504H284.281V38.144H282.809V39.424H281.977V39.744H281.145V40.704H283.321V41.664H282.169V42.624H283.321V42.944H283.193V43.584H281.785V44.224H282.809V45.504H283.065V46.464H282.809C282.723 47.0613 282.446 47.488 281.977 47.744H281.401C281.187 47.9147 280.889 48 280.505 48H268.345C267.961 48 267.662 47.9147 267.449 47.744H268.025C267.555 47.488 267.278 47.0613 267.193 46.464H267.449V45.504H267.193V44.224H266.169V43.584H267.577V42.944H267.705V42.624H266.553V41.664H267.705V40.704H265.529V39.744H266.361V39.424H267.193V38.144H268.665V37.504H268.025V36.864H269.945V35.904H266.105V35.584H267.129V35.264H268.536V33.984H267.577V33.024H266.681V32.384H267.577V31.424H267.193V30.784H266.424V30.464H267.065V30.144H268.985V29.184H268.665V28.864H267.513V28.544H265.401V28.224H262.84V26.944H261.432V25.984H265.465V25.664H266.617V24.384H267.129V23.104H266.553V22.144H268.793V20.864H268.921V19.584H266.489V18.624H268.536V17.344H266.553V17.024H267.193V16.448C267.193 16.2347 267.235 16 267.321 15.744H267.257C267.555 15.0613 268.089 14.72 268.857 14.72H280.057C280.782 14.72 281.294 15.0613 281.593 15.744H281.721C281.806 16 281.849 16.2347 281.849 16.448V17.024H281.208V17.344H283.193V17.536L283.449 17.344H283.577C283.662 17.2587 283.747 17.1947 283.833 17.152C283.918 17.1093 283.982 17.0667 284.025 17.024H284.153C285.006 16.4693 285.838 16.0427 286.649 15.744H286.777C287.63 15.4027 288.483 15.1467 289.337 14.976C290.19 14.8053 291.086 14.72 292.025 14.72H295.097C295.865 14.72 296.398 15.0613 296.697 15.744H296.569C296.654 16 296.697 16.2347 296.697 16.448V17.024H296.632V17.344H296.505V18.624H295.929V19.584Z" fill="#FCF551"/>
</svg>
