<svg width="445" height="136" viewBox="0 0 445 136" fill="none" xmlns="http://www.w3.org/2000/svg">
<path d="M0 115.09H44.0793L0 94.9248V115.09Z" fill="#661109"/>
<path d="M105.103 -2L0 36.8754V83.6927L68.6198 115.09H330.618L435.721 76.2145V-2H105.103Z" fill="#661109"/>
<path d="M9.27856 124.217H53.3579L9.27856 104.044V124.217Z" fill="#FCF551"/>
<path d="M114.374 7.12646L9.27856 45.9947V92.8192L77.8983 124.216H339.897L445 85.341V7.12646H114.374Z" fill="#FCF551"/>
<path d="M77.5166 130.396H290.2V135.262H77.5166" fill="#FCF551"/>
<path d="M9.13831 130.396H53.2176V135.262H9.13831" fill="#FCF551"/>
<path d="M439.687 7.12646V85.1198V87.3033L445 85.341V85.1198V7.12646H439.687Z" fill="#75E8F0"/>
<g filter="url(#filter0_g_357_2)">
<path d="M124.06 63.055H121.365C121.328 63.2017 121.292 63.3483 121.255 63.495C121.218 63.605 121.163 63.7333 121.09 63.88H122.63L122.465 64.43H121.145C121.035 64.76 120.888 65.1267 120.705 65.53H119.88C119.733 65.8967 119.532 66.2633 119.275 66.63H119.385C119.238 66.8133 119.11 66.9967 119 67.18C118.89 67.3633 118.762 67.5467 118.615 67.73H124.555L123.84 68.555H118.945C118.798 68.7383 118.615 68.9217 118.395 69.105C118.175 69.2883 117.973 69.4717 117.79 69.655H118.505C118.358 69.8017 118.175 69.9483 117.955 70.095C117.772 70.205 117.588 70.3333 117.405 70.48H119.22L119 70.645L119.495 71.58H118.175L118.78 72.68H118.945L119.11 72.955H119.055L119.605 74.055H120.155L120.485 74.605H116.25L116.69 75.43H120.54L120.87 75.98H119.66L120.1 76.805H125.545L126.15 77.905H122.52L122.96 78.73H121.255L122.135 80.38H122.52L122.85 80.93H122.685L122.85 81.205H120.265L120.87 82.305L120.98 82.58H119.275L119.55 83.185C119.66 83.3317 119.715 83.4967 119.715 83.68H120.87V83.79C120.87 84.1933 120.705 84.5233 120.375 84.78H121.86C121.677 84.9267 121.438 85 121.145 85H109.87C109.65 85 109.448 84.9817 109.265 84.945C109.118 84.8717 108.953 84.8167 108.77 84.78H107.285C106.992 84.6333 106.735 84.45 106.515 84.23C106.332 84.01 106.185 83.8267 106.075 83.68H104.975L104.865 83.515L104.48 82.58H106.24L106.075 82.305H100.85V82.58H98.045V83.68H102.5C102.427 84.1933 102.188 84.56 101.785 84.78H101.4C101.143 84.9267 100.868 85 100.575 85H89.795C89.465 85 89.2083 84.9267 89.025 84.78H89.465C89.0617 84.56 88.8233 84.1933 88.75 83.68H84.35C84.35 83.6433 84.35 83.625 84.35 83.625C84.3133 83.5883 84.295 83.5517 84.295 83.515V82.58H87.1V82.305H92.6V81.205H86.715V80.93H90.18V80.38H89.025V79.555H90.95V78.73H87.815V77.905H92.05V76.805H89.63V75.98H89.575V75.705H89.245V75.43H87.76V74.605H89.63V74.055H89.135V72.955H89.19V72.68H89.025V71.58H90.345V70.48H88.475V69.655H87.76V68.555H92.6V67.73H86.66V66.63H86.55V65.53H87.375V64.43H88.64V63.88H87.1V63.055H89.795V62.505H93.755V61.955H88.31V61.68H88.585V61.405H89.08V61.13H89.135V60.58H89.025V59.755H89.245V58.655H88.97V58.105H89.245V57.28H89.025V57.005H89.19V56.455H89.135V56.18H88.915V55.905H89.41V55.08H89.85V54.255H87.265V53.155H87.87V52.055H87.54V51.23H89.025V50.405H89.575V49.58H88.585V49.03H88.97V48.755H89.08V47.93H89.19C89.19 47.5267 89.355 47.16 89.685 46.83H92.655C92.875 46.61 93.1867 46.5 93.59 46.5H109.87C111.447 46.5 112.913 46.61 114.27 46.83H111.355C112.822 47.05 114.215 47.4167 115.535 47.93H115.425C116.048 48.15 116.653 48.425 117.24 48.755H117.13L117.625 49.03H117.185C117.368 49.1033 117.515 49.195 117.625 49.305C117.772 49.415 117.918 49.5067 118.065 49.58H119.055C119.238 49.7267 119.422 49.8733 119.605 50.02C119.788 50.13 119.953 50.2583 120.1 50.405H119.55C119.733 50.5517 119.88 50.6983 119.99 50.845C120.137 50.955 120.283 51.0833 120.43 51.23H118.945C119.092 51.3767 119.22 51.5233 119.33 51.67C119.44 51.78 119.55 51.9083 119.66 52.055H119.935C120.228 52.4217 120.485 52.7883 120.705 53.155H120.155C120.265 53.3017 120.357 53.485 120.43 53.705C120.54 53.8883 120.65 54.0717 120.76 54.255H123.345L123.675 55.08H123.235C123.272 55.2267 123.308 55.3733 123.345 55.52C123.418 55.63 123.473 55.7583 123.51 55.905H122.96L123.07 56.18H123.29C123.327 56.2533 123.345 56.345 123.345 56.455L123.51 57.005H123.675C123.675 57.115 123.693 57.2067 123.73 57.28H123.785C123.822 57.4267 123.84 57.5733 123.84 57.72C123.877 57.83 123.895 57.9583 123.895 58.105H123.18C123.18 58.1783 123.18 58.27 123.18 58.38C123.18 58.49 123.198 58.5817 123.235 58.655H123.565C123.565 58.8383 123.565 59.0217 123.565 59.205C123.602 59.3883 123.62 59.5717 123.62 59.755V60.305H123.95V60.58H123.62V61.13H123.07C123.07 61.1667 123.052 61.2033 123.015 61.24C123.015 61.2767 123.015 61.3317 123.015 61.405H123.565C123.565 61.4417 123.547 61.4783 123.51 61.515C123.51 61.5517 123.51 61.6067 123.51 61.68H126.095C126.058 61.7533 126.04 61.845 126.04 61.955H126.755L126.7 62.505H124.17C124.097 62.725 124.06 62.9083 124.06 63.055ZM102.06 61.955H107.505V62.505H103.545V62.56H107.56C107.817 62.56 108.018 62.5417 108.165 62.505H110.695C111.098 62.395 111.465 62.2117 111.795 61.955H111.025L111.3 61.68H108.715C108.825 61.57 108.898 61.4783 108.935 61.405H108.385L108.55 61.13H109.1L109.265 60.58H109.54C109.577 60.5067 109.595 60.415 109.595 60.305H109.265L109.32 59.755C109.32 59.3883 109.265 59.0217 109.155 58.655H108.825C108.788 58.5817 108.752 58.49 108.715 58.38C108.715 58.27 108.678 58.1783 108.605 58.105H109.375C109.228 57.8117 109.027 57.5367 108.77 57.28H108.66C108.55 57.17 108.422 57.0783 108.275 57.005H108.11C107.743 56.8217 107.358 56.73 106.955 56.73H102.94V57.005H102.775V57.28H102.995V58.105H102.72V58.655H102.995V59.755H102.775V60.58H102.885V61.13H102.83V61.405H102.335V61.68H102.06V61.955ZM106.405 74.605L106.185 74.055H105.58L105.14 73.01H102.885V74.055H103.38V74.605H106.405ZM101.51 74.605V75.43H102.555L102.225 74.605H101.51ZM106.515 75.705L106.405 75.43H102.995V75.705H103.325V75.98H103.38V76.805H105.8V77.905H101.565V78.73H104.7V79.555H102.775V80.38H103.93V80.93H100.465V81.205H108.22L108.055 80.93H108.22L107.945 80.38H107.505L107.175 79.555L106.79 78.73H108.55L108.165 77.905H111.74L111.245 76.805H105.8L105.47 75.98H106.68L106.515 75.705ZM155.786 69.93V70.48H162.771V71.03H158.536V71.58H156.556V72.13H158.261V72.46C158.261 72.68 158.243 72.845 158.206 72.955H158.976C158.72 73.615 158.243 73.945 157.546 73.945H141.156V74.055H143.356V74.22C143.356 74.3667 143.356 74.5317 143.356 74.715C143.356 74.8617 143.375 75.0083 143.411 75.155H140.441C140.441 75.265 140.441 75.375 140.441 75.485C140.478 75.5583 140.496 75.6317 140.496 75.705H140.166C140.166 75.8517 140.203 76.035 140.276 76.255H140.496C140.68 76.7683 140.973 77.135 141.376 77.355H139.891C140.148 77.5017 140.496 77.575 140.936 77.575C141.23 77.575 141.468 77.5017 141.651 77.355H144.236C144.383 77.2817 144.511 77.1717 144.621 77.025C144.768 76.8783 144.933 76.7317 145.116 76.585L145.446 76.255H144.401C144.731 75.9617 145.226 75.815 145.886 75.815H156.281C156.721 75.815 157.051 75.9617 157.271 76.255H158.261C158.445 76.5117 158.536 76.7683 158.536 77.025C158.5 77.0983 158.481 77.2083 158.481 77.355H155.896C155.823 77.7217 155.713 78.0883 155.566 78.455H152.871C152.761 78.6383 152.67 78.8217 152.596 79.005H159.416C159.343 79.1883 159.233 79.3717 159.086 79.555C158.976 79.7383 158.848 79.9217 158.701 80.105H157.051C156.905 80.325 156.758 80.5083 156.611 80.655H156.996C156.96 80.6917 156.923 80.7283 156.886 80.765C156.85 80.8017 156.813 80.8567 156.776 80.93H153.696L153.421 81.205H154.356C154.32 81.2417 154.265 81.2783 154.191 81.315C154.155 81.3517 154.118 81.4067 154.081 81.48H155.786C155.53 81.7367 155.2 82.0117 154.796 82.305H153.971C153.935 82.3417 153.88 82.3783 153.806 82.415C153.733 82.4517 153.66 82.5067 153.586 82.58H152.981C152.395 82.9833 151.753 83.35 151.056 83.68H150.341C149.901 83.9 149.425 84.1017 148.911 84.285C148.435 84.4683 147.921 84.6333 147.371 84.78H146.491C146.088 84.89 145.666 84.9817 145.226 85.055C144.786 85.165 144.31 85.2567 143.796 85.33H146.106C145.593 85.4033 145.061 85.4583 144.511 85.495C143.961 85.5317 143.375 85.55 142.751 85.55C142.165 85.55 141.578 85.5317 140.991 85.495C140.405 85.4583 139.836 85.4033 139.286 85.33H136.976C136.5 85.2567 136.041 85.165 135.601 85.055C135.161 84.9817 134.721 84.89 134.281 84.78H135.161C134.171 84.5233 133.236 84.1567 132.356 83.68H133.071C132.411 83.3133 131.843 82.9467 131.366 82.58H131.971C131.898 82.5067 131.825 82.4517 131.751 82.415C131.715 82.3783 131.66 82.3417 131.586 82.305H132.411C132.265 82.1583 132.118 82.03 131.971 81.92C131.825 81.7733 131.678 81.6267 131.531 81.48H129.771L129.496 81.205H128.561C128.525 81.1317 128.488 81.0767 128.451 81.04C128.415 81.0033 128.378 80.9667 128.341 80.93H131.366C131.33 80.8567 131.256 80.765 131.146 80.655H130.761C130.688 80.5817 130.615 80.49 130.541 80.38C130.468 80.27 130.395 80.1783 130.321 80.105H131.971C131.861 79.9217 131.751 79.7383 131.641 79.555C131.531 79.3717 131.421 79.1883 131.311 79.005H124.436C124.326 78.8217 124.235 78.6383 124.161 78.455H126.856L126.361 77.355H127.846C127.773 77.1717 127.7 76.9883 127.626 76.805C127.59 76.6217 127.535 76.4383 127.461 76.255H127.296L127.131 75.705H127.516L127.351 75.155H130.321C130.285 74.9717 130.248 74.7883 130.211 74.605C130.175 74.4217 130.138 74.2383 130.101 74.055H127.901L127.791 72.955H127.021C127.021 72.8083 127.003 72.68 126.966 72.57C126.966 72.4233 126.966 72.2767 126.966 72.13H125.261V71.58H127.186V71.03H131.421V70.48H124.436V70.37C124.436 70.1867 124.455 70.04 124.491 69.93H134.006C134.006 69.7833 134.006 69.655 134.006 69.545C134.043 69.3983 134.061 69.2517 134.061 69.105H125.316C125.316 69.0317 125.316 68.9767 125.316 68.94C125.353 68.9033 125.371 68.8667 125.371 68.83H129.001C129.001 68.72 129.02 68.6283 129.056 68.555H133.126V68.28H125.371C125.408 68.0967 125.445 67.9133 125.481 67.73C125.518 67.5467 125.555 67.3633 125.591 67.18H127.681C127.681 67.0333 127.718 66.85 127.791 66.63H125.976C125.976 66.5567 125.976 66.5017 125.976 66.465C126.013 66.4283 126.031 66.3917 126.031 66.355H127.351C127.351 66.2817 127.351 66.2267 127.351 66.19C127.388 66.1533 127.406 66.1167 127.406 66.08H126.031L126.141 65.805H127.461L127.626 65.255H128.671L129.001 64.43H128.011C128.085 64.2467 128.158 64.0633 128.231 63.88C128.305 63.66 128.396 63.4767 128.506 63.33H128.341L128.451 63.055H127.076C127.15 62.9083 127.186 62.8167 127.186 62.78H125.921L126.251 62.23H128.946C128.983 62.1567 129.056 62.065 129.166 61.955H130.156C130.303 61.7717 130.431 61.5883 130.541 61.405C130.688 61.185 130.835 61.0017 130.981 60.855H129.991C130.101 60.7083 130.211 60.58 130.321 60.47C130.468 60.3233 130.615 60.1767 130.761 60.03H132.906L133.456 59.48H130.211C130.688 59.0767 131.165 58.71 131.641 58.38H134.666L135.106 58.105H134.116C134.41 57.9217 134.758 57.7383 135.161 57.555H137.306C138.296 57.0783 139.323 56.7117 140.386 56.455H137.306C138.113 56.2717 138.956 56.125 139.836 56.015C140.716 55.905 141.633 55.85 142.586 55.85C143.54 55.85 144.438 55.905 145.281 56.015C146.125 56.125 146.931 56.2717 147.701 56.455H150.726C151.276 56.6017 151.79 56.7667 152.266 56.95C152.78 57.1333 153.275 57.335 153.751 57.555H151.606C151.79 57.6283 151.955 57.72 152.101 57.83C152.285 57.9033 152.45 57.995 152.596 58.105H153.586C153.66 58.1417 153.733 58.1783 153.806 58.215C153.88 58.2517 153.953 58.3067 154.026 58.38H151.001C151.478 58.71 151.955 59.0767 152.431 59.48H155.731L156.281 60.03H154.136C154.283 60.1767 154.411 60.3233 154.521 60.47C154.668 60.58 154.796 60.7083 154.906 60.855H155.896C156.043 61.0017 156.171 61.185 156.281 61.405C156.428 61.5883 156.575 61.7717 156.721 61.955H155.676C155.713 62.0283 155.786 62.12 155.896 62.23H153.146L153.476 62.78H154.741L154.906 63.055H156.336C156.336 63.0917 156.373 63.1833 156.446 63.33H156.611L157.106 64.43L157.436 65.255H157.491L157.656 65.805H156.996L157.106 66.08H157.601L157.711 66.355H158.591C158.591 66.3917 158.591 66.4283 158.591 66.465C158.628 66.5017 158.646 66.5567 158.646 66.63H158.206L158.371 67.18H156.281L156.446 68.28H164.201V68.555H160.131C160.131 68.5917 160.131 68.6283 160.131 68.665C160.168 68.7017 160.186 68.7567 160.186 68.83H156.501C156.538 68.9033 156.556 68.995 156.556 69.105H165.301C165.301 69.2517 165.301 69.3983 165.301 69.545C165.301 69.655 165.32 69.7833 165.356 69.93H155.786ZM139.066 66.355V66.63H140.826V67.07H145.226V66.63H145.611V66.355H144.731V66.08H144.181C144.181 65.97 144.163 65.8783 144.126 65.805H144.786C144.786 65.6583 144.75 65.475 144.676 65.255H144.621C144.585 64.925 144.475 64.65 144.291 64.43C143.925 63.8433 143.356 63.55 142.586 63.55C141.853 63.55 141.303 63.8433 140.936 64.43H141.926C141.78 64.65 141.67 64.925 141.596 65.255H140.496C140.496 65.3283 140.478 65.42 140.441 65.53C140.441 65.6033 140.423 65.695 140.386 65.805H139.066C139.066 65.915 139.048 66.0067 139.011 66.08H140.386V66.355H139.066ZM194.124 83.955H195.884V84.78H194.509V85.055H194.894C194.857 85.2017 194.839 85.33 194.839 85.44C194.839 85.5867 194.821 85.7333 194.784 85.88H194.729V86.155H192.144C192.107 86.2283 192.089 86.32 192.089 86.43C192.089 86.54 192.071 86.6317 192.034 86.705H195.224C195.187 86.8883 195.151 87.0717 195.114 87.255C195.077 87.4383 195.041 87.6217 195.004 87.805H194.124C194.087 87.9517 194.051 88.08 194.014 88.19C193.977 88.3367 193.922 88.4833 193.849 88.63H192.034L191.814 89.18H192.749L192.529 89.73H192.639C192.566 89.9133 192.474 90.0967 192.364 90.28H192.419L191.924 91.105C191.887 91.1417 191.851 91.1783 191.814 91.215C191.814 91.2517 191.796 91.3067 191.759 91.38C191.686 91.5267 191.594 91.655 191.484 91.765C191.374 91.9117 191.264 92.0583 191.154 92.205H191.044L190.769 92.48H191.814L191.319 93.03H190.054C189.944 93.1033 189.834 93.195 189.724 93.305C189.614 93.415 189.522 93.5067 189.449 93.58H190.934C190.787 93.7267 190.604 93.855 190.384 93.965C190.201 94.1117 190.017 94.2583 189.834 94.405H191.814C191.594 94.5517 191.356 94.68 191.099 94.79C190.879 94.9367 190.641 95.0833 190.384 95.23H189.834C189.651 95.34 189.449 95.4317 189.229 95.505C189.009 95.615 188.807 95.7067 188.624 95.78H185.489C184.792 96.0367 184.077 96.2567 183.344 96.44C182.611 96.6233 181.859 96.77 181.089 96.88H184.334C183.784 96.9533 183.216 97.0083 182.629 97.045C182.042 97.0817 181.456 97.1 180.869 97.1C180.246 97.1 179.622 97.0817 178.999 97.045C178.412 97.0083 177.844 96.9533 177.294 96.88H174.049C172.399 96.66 170.877 96.2933 169.484 95.78H172.619C172.399 95.7067 172.179 95.615 171.959 95.505C171.739 95.4317 171.519 95.34 171.299 95.23H171.849C171.592 95.0833 171.336 94.9367 171.079 94.79C170.822 94.68 170.566 94.5517 170.309 94.405H168.384C168.164 94.2583 167.944 94.1117 167.724 93.965C167.541 93.855 167.357 93.7267 167.174 93.58H165.689C165.396 93.36 165.176 93.1767 165.029 93.03H166.294C166.184 92.9567 166.074 92.865 165.964 92.755C165.854 92.645 165.762 92.5533 165.689 92.48H164.644C164.607 92.4067 164.571 92.3517 164.534 92.315C164.497 92.2783 164.442 92.2417 164.369 92.205H164.534C164.387 92.0583 164.259 91.9117 164.149 91.765C164.039 91.655 163.929 91.5267 163.819 91.38H163.764C163.727 91.3067 163.654 91.215 163.544 91.105H163.599C163.489 90.9583 163.379 90.8117 163.269 90.665C163.159 90.555 163.067 90.4267 162.994 90.28L162.664 89.73H162.554C162.517 89.6567 162.481 89.565 162.444 89.455C162.407 89.345 162.352 89.2533 162.279 89.18H161.344L161.124 88.63H162.994C162.957 88.4833 162.902 88.3367 162.829 88.19C162.792 88.08 162.756 87.9517 162.719 87.805H162.389C162.389 87.695 162.371 87.585 162.334 87.475C162.334 87.4017 162.334 87.3283 162.334 87.255C162.334 86.9983 162.352 86.815 162.389 86.705H162.224C162.334 86.485 162.462 86.3017 162.609 86.155H162.279C162.499 86.0083 162.664 85.9167 162.774 85.88H163.489C163.709 85.8067 163.911 85.77 164.094 85.77H174.819C175.002 85.77 175.204 85.8067 175.424 85.88H174.654C174.837 85.9167 174.984 86.0083 175.094 86.155H175.424C175.571 86.3017 175.699 86.485 175.809 86.705H175.974L176.084 86.87C176.341 87.31 176.579 87.6217 176.799 87.805H177.074C177.477 88.0983 178.027 88.245 178.724 88.245C179.274 88.245 179.751 88.0983 180.154 87.805H181.034C181.364 87.5483 181.602 87.1817 181.749 86.705H178.559C178.632 86.485 178.669 86.3017 178.669 86.155H181.254C181.291 86.0817 181.309 85.99 181.309 85.88H181.364C181.401 85.7333 181.419 85.5867 181.419 85.44C181.419 85.33 181.419 85.2017 181.419 85.055H181.089V84.78H182.409V83.955H180.649V83.68H179.604V83.405H180.594V82.305H179.549V81.975L178.999 82.305H178.944C178.064 82.8183 177.111 83.185 176.084 83.405H176.304C176.011 83.4417 175.717 83.4967 175.424 83.57C175.131 83.6067 174.819 83.6433 174.489 83.68H173.114C172.894 83.7167 172.674 83.735 172.454 83.735C172.234 83.735 172.014 83.735 171.794 83.735C171.537 83.735 171.281 83.735 171.024 83.735C170.767 83.735 170.529 83.7167 170.309 83.68H171.629C171.299 83.6433 170.969 83.6067 170.639 83.57C170.309 83.4967 169.979 83.4417 169.649 83.405H169.484C168.934 83.295 168.402 83.1483 167.889 82.965C167.412 82.7817 166.936 82.5617 166.459 82.305H166.514C166.367 82.2317 166.221 82.1583 166.074 82.085C165.927 81.975 165.781 81.865 165.634 81.755H166.899C166.679 81.5717 166.459 81.3883 166.239 81.205C166.056 81.0217 165.872 80.8383 165.689 80.655H161.234L160.959 80.38H163.489C163.196 80.0133 162.939 79.6467 162.719 79.28H163.434C163.177 78.9133 162.976 78.5467 162.829 78.18H162.719C162.536 77.7767 162.389 77.41 162.279 77.08H158.264C158.264 77.0067 158.264 76.9517 158.264 76.915C158.227 76.8783 158.209 76.8417 158.209 76.805H161.949L161.784 76.255H162.059C162.022 76.0717 161.967 75.8883 161.894 75.705C161.857 75.5217 161.821 75.3383 161.784 75.155H162.444L162.279 74.055H161.564L161.509 73.505H160.189C160.152 73.3217 160.134 73.1383 160.134 72.955C160.134 72.7717 160.116 72.5883 160.079 72.405H159.584C159.584 72.2583 159.584 72.13 159.584 72.02C159.547 71.8733 159.529 71.7267 159.529 71.58H160.299V71.03H161.289C161.289 70.8833 161.271 70.755 161.234 70.645C161.234 70.4983 161.234 70.3517 161.234 70.205H161.729V69.38H160.849C160.849 69.2333 160.849 69.105 160.849 68.995C160.849 68.8483 160.867 68.7017 160.904 68.555H161.014V68.5C161.014 68.3533 161.014 68.225 161.014 68.115C161.051 68.005 161.069 67.8767 161.069 67.73H161.289C161.326 67.5833 161.344 67.455 161.344 67.345C161.344 67.1983 161.362 67.0517 161.399 66.905C161.436 66.8317 161.454 66.74 161.454 66.63C161.454 66.52 161.472 66.4283 161.509 66.355H161.234V66.08H161.564C161.601 65.8967 161.637 65.7133 161.674 65.53C161.711 65.31 161.747 65.1267 161.784 64.98H161.729C161.766 64.8333 161.802 64.705 161.839 64.595C161.876 64.4483 161.912 64.3017 161.949 64.155H162.389C162.462 63.9717 162.517 63.7883 162.554 63.605C162.627 63.385 162.701 63.2017 162.774 63.055H163.049L163.159 62.78H162.389C162.426 62.7067 162.462 62.615 162.499 62.505C162.536 62.395 162.572 62.3033 162.609 62.23L162.939 61.405C162.976 61.3317 162.994 61.2767 162.994 61.24C163.031 61.2033 163.067 61.1667 163.104 61.13L163.269 60.855C163.342 60.7817 163.397 60.69 163.434 60.58C163.507 60.47 163.581 60.3783 163.654 60.305C163.691 60.2317 163.727 60.1767 163.764 60.14C163.801 60.1033 163.837 60.0667 163.874 60.03H163.764L164.424 59.205C164.534 59.1317 164.626 59.04 164.699 58.93C164.809 58.82 164.901 58.7283 164.974 58.655H165.084C165.121 58.5817 165.157 58.5267 165.194 58.49C165.267 58.4533 165.322 58.4167 165.359 58.38H165.964C166.184 58.16 166.422 57.9767 166.679 57.83H165.304C165.451 57.72 165.597 57.6283 165.744 57.555C165.891 57.445 166.037 57.3533 166.184 57.28H166.569C167.082 56.9867 167.706 56.7117 168.439 56.455H170.254C171.574 56.0517 172.986 55.85 174.489 55.85C175.809 55.85 177.037 56.0517 178.174 56.455H176.359C176.946 56.6383 177.532 56.9133 178.119 57.28H177.789C177.936 57.3533 178.064 57.445 178.174 57.555C178.321 57.6283 178.467 57.72 178.614 57.83H179.934C180.081 57.9033 180.209 57.995 180.319 58.105C180.429 58.215 180.539 58.3067 180.649 58.38H180.044L180.319 58.655H180.264L180.759 59.205C180.832 59.2417 180.887 59.2967 180.924 59.37C180.997 59.4433 181.052 59.5167 181.089 59.59V59.205H181.309V58.655H182.244V58.38H182.849V57.83H180.154C180.154 57.61 180.209 57.4267 180.319 57.28H181.254C181.437 56.84 181.749 56.565 182.189 56.455H181.089C181.199 56.4183 181.346 56.4 181.529 56.4H191.154C191.337 56.4 191.466 56.4183 191.539 56.455H192.639C193.079 56.565 193.391 56.84 193.574 57.28H192.639C192.712 57.5 192.749 57.6833 192.749 57.83H195.444V58.38H194.839V58.655H193.904V59.205H193.684V60.03H193.739V60.855H193.684V62.23H193.739V62.78H194.509V63.055H194.179V64.155H193.684L193.739 64.98V66.355H193.574V66.905H193.409V67.73H193.739V68.555H194.399V69.38H193.244V70.205H193.629V71.03H193.739V71.58H191.924L191.979 72.405H192.199V73.505H193.409V74.055H194.399V75.155H193.684V76.255H193.464V76.805H189.669V77.08H193.684V78.18H193.794V79.28H193.024L193.079 80.38H190.549V80.655H195.004V81.755H193.024V82.305H194.069V83.405H193.079V83.68H194.124V83.955ZM175.589 73.505C175.846 73.7617 176.176 73.945 176.579 74.055H177.239C177.386 74.0917 177.532 74.1283 177.679 74.165C177.862 74.165 178.027 74.165 178.174 74.165C178.357 74.165 178.522 74.165 178.669 74.165C178.852 74.1283 179.017 74.0917 179.164 74.055H178.174C178.577 73.945 178.907 73.7617 179.164 73.505H177.954C178.247 73.2117 178.449 72.845 178.559 72.405H178.339L178.504 71.58H180.264C180.264 71.5067 180.282 71.4517 180.319 71.415V71.03H180.209V70.205H179.879V69.38H180.979V68.555H180.264V68.445C180.264 68.2983 180.246 68.17 180.209 68.06C180.209 67.95 180.191 67.84 180.154 67.73H179.879C179.842 67.4367 179.751 67.1617 179.604 66.905H179.714C179.604 66.685 179.476 66.5017 179.329 66.355H179.494C179.347 66.2083 179.237 66.1167 179.164 66.08C178.797 65.8233 178.266 65.695 177.569 65.695C176.872 65.695 176.341 65.8233 175.974 66.08H175.644C175.571 66.1167 175.461 66.2083 175.314 66.355H175.589C175.442 66.5017 175.314 66.685 175.204 66.905H175.149C175.112 67.015 175.076 67.1433 175.039 67.29C175.002 67.4 174.947 67.5467 174.874 67.73H174.654C174.617 67.8767 174.581 68.0233 174.544 68.17C174.544 68.28 174.544 68.4083 174.544 68.555H174.379V68.885C174.342 68.995 174.324 69.16 174.324 69.38H175.204V70.205H174.709C174.709 70.3517 174.709 70.4983 174.709 70.645C174.746 70.755 174.764 70.865 174.764 70.975V71.03H173.774L173.829 71.58H173.059L173.224 72.405H173.719C173.829 72.845 174.031 73.2117 174.324 73.505H175.589ZM181.034 81.755H181.529V81.37L181.034 81.755ZM198.415 51.78V50.68H198.36V49.855H198.855V49.58H199.185V48.48H198.91V47.655H198.965V46.555H199.185V45.73H199.075V45.235C199.075 44.9417 199.112 44.74 199.185 44.63H199.735L199.9 44.355H199.46C199.753 43.9517 200.157 43.75 200.67 43.75H209.965C210.478 43.75 210.882 43.9517 211.175 44.355H211.615L211.78 44.63H211.175C211.285 44.7767 211.34 44.9783 211.34 45.235V45.73H211.45V46.555H211.23V47.655H211.175V48.48H211.45V49.58H211.12V49.855H210.625V50.68H210.68V51.78H211.065V51.89C211.065 52.22 210.937 52.55 210.68 52.88H210.02C209.763 53.21 209.397 53.375 208.92 53.375H199.625C199.148 53.375 198.763 53.21 198.47 52.88H199.13C198.91 52.5867 198.8 52.2567 198.8 51.89V51.78H198.415ZM209.745 63.33H214.915V64.43H213.045V64.98H210.955V66.08H212.55V66.355H211.505V66.905H211.67V67.455H211.945V68.28H209.195V69.105H211.01V69.93H210.68V70.48H211.615V71.305H211.835V72.13H211.505V72.955H211.78V73.505H211.505V74.605H211.395V75.43H211.175V76.255H211.395V76.805H211.505V77.905H211.285V78.455H211.56V79.005H211.505V79.83H211.725V80.655H211.89V80.93H211.505V82.03H210.735V83.13H211.285V83.515C211.285 83.6983 211.267 83.845 211.23 83.955H210.845C210.735 84.3217 210.533 84.5967 210.24 84.78H211.34C211.157 84.9267 210.882 85 210.515 85H200.67C200.34 85 200.083 84.9267 199.9 84.78H198.8C198.47 84.5967 198.25 84.3217 198.14 83.955H198.525C198.488 83.845 198.47 83.6983 198.47 83.515V83.13H197.92V82.03H198.69V80.93H199.075V80.655H198.91V79.83H198.69V79.005H198.745V78.455H198.47V77.905H198.69V76.805H198.58V76.255H198.36V75.43H198.58V74.605H198.69V73.505H198.965V72.955H198.69V72.13H199.02V71.305H198.8V70.48H197.865V69.93H198.195V69.105H196.38V68.28H199.13V67.455H198.855V66.905H198.69V66.355H199.735V66.08H198.14V64.98H200.23V64.43H202.1V63.33H196.93V62.78H201.495V61.68H199.845V60.855H200.835V59.755H199.075V59.48H198.69V58.93H198.36V58.105H198.745V57.885C198.745 57.4817 198.837 57.1883 199.02 57.005H199.075C199.368 56.6017 199.772 56.4 200.285 56.4H210.13C210.643 56.4 211.047 56.6017 211.34 57.005H211.23C211.45 57.225 211.56 57.5183 211.56 57.885V58.105H211.175V58.93H211.505V59.48H211.89V59.755H213.65V60.855H212.66V61.68H214.31V62.78H209.745V63.33ZM249.758 80.105H247.503C247.283 80.4717 247.027 80.8383 246.733 81.205H247.723C247.687 81.2783 247.613 81.37 247.503 81.48H245.083C244.937 81.6267 244.79 81.7733 244.643 81.92C244.533 82.03 244.387 82.1583 244.203 82.305H244.148C243.965 82.4517 243.763 82.5983 243.543 82.745C243.36 82.855 243.158 82.9833 242.938 83.13H241.948C241.618 83.35 241.252 83.5517 240.848 83.735C240.445 83.8817 240.042 84.0467 239.638 84.23H239.418C239.308 84.2667 239.18 84.3033 239.033 84.34C238.923 84.3767 238.777 84.4317 238.593 84.505H244.863C244.717 84.5417 244.552 84.5783 244.368 84.615C244.222 84.6517 244.057 84.7067 243.873 84.78H241.123C240.647 84.89 240.152 84.9817 239.638 85.055C239.125 85.165 238.593 85.2567 238.043 85.33H236.393C235.807 85.4033 235.183 85.4583 234.523 85.495C233.863 85.5317 233.167 85.55 232.433 85.55C231.737 85.55 231.077 85.5317 230.453 85.495C229.867 85.4583 229.298 85.4033 228.748 85.33H230.343C229.83 85.2567 229.335 85.165 228.858 85.055C228.382 84.9817 227.923 84.89 227.483 84.78H230.233L229.298 84.505H223.028C222.918 84.4317 222.79 84.3767 222.643 84.34C222.533 84.3033 222.405 84.2667 222.258 84.23H222.423C222.02 84.0467 221.617 83.8633 221.213 83.68C220.847 83.4967 220.48 83.3133 220.113 83.13H221.103C220.883 82.9833 220.663 82.855 220.443 82.745C220.26 82.5983 220.077 82.4517 219.893 82.305H220.003C219.82 82.1583 219.655 82.03 219.508 81.92C219.362 81.7733 219.215 81.6267 219.068 81.48H221.433C221.397 81.4067 221.36 81.3517 221.323 81.315C221.287 81.2783 221.25 81.2417 221.213 81.205H220.168C220.022 81.0217 219.875 80.8383 219.728 80.655C219.582 80.4717 219.435 80.2883 219.288 80.105H221.598C221.452 79.9217 221.342 79.7383 221.268 79.555C221.195 79.335 221.122 79.1517 221.048 79.005H220.003C219.93 78.8583 219.893 78.7667 219.893 78.73H218.188L218.023 78.18H216.758C216.722 78.07 216.703 77.905 216.703 77.685C216.703 77.3917 216.722 77.19 216.758 77.08H217.143C217.327 76.64 217.62 76.365 218.023 76.255H217.913C217.987 76.2183 218.115 76.2 218.298 76.2H228.088C228.125 76.2 228.162 76.2183 228.198 76.255C228.272 76.255 228.327 76.255 228.363 76.255H228.473C228.767 76.3283 229.023 76.4383 229.243 76.585C229.5 76.7317 229.757 76.8967 230.013 77.08H229.683C229.977 77.2633 230.288 77.4467 230.618 77.63C230.948 77.7767 231.333 77.85 231.773 77.85C232.067 77.85 232.342 77.795 232.598 77.685C232.855 77.5383 233.002 77.3367 233.038 77.08H233.203V77.025C233.203 76.695 233.13 76.4383 232.983 76.255C232.837 76.035 232.598 75.8517 232.268 75.705H231.608C231.242 75.5217 230.747 75.3383 230.123 75.155C229.537 74.9717 228.712 74.7883 227.648 74.605H228.143L227.263 74.44C226.97 74.3667 226.677 74.3117 226.383 74.275C226.09 74.2017 225.797 74.1283 225.503 74.055H225.723L224.788 73.78H224.898C224.422 73.6333 223.963 73.4683 223.523 73.285C223.083 73.1017 222.662 72.9 222.258 72.68H222.478L221.158 71.855H221.048C220.792 71.6717 220.553 71.4883 220.333 71.305C220.15 71.1217 219.967 70.9383 219.783 70.755H218.628C218.592 70.6817 218.555 70.6267 218.518 70.59C218.482 70.5533 218.445 70.5167 218.408 70.48H218.903C218.793 70.37 218.72 70.2783 218.683 70.205H217.143L216.538 69.38H218.903L218.573 68.83H217.803C217.62 68.4267 217.473 68.06 217.363 67.73H217.693C217.693 67.6567 217.675 67.6017 217.638 67.565C217.638 67.5283 217.638 67.4917 217.638 67.455H220.223C220.223 67.3083 220.187 67.125 220.113 66.905H215.273C215.273 66.7583 215.273 66.63 215.273 66.52C215.237 66.3733 215.2 66.2267 215.163 66.08H215.218L215.163 65.53H218.848C218.812 65.4567 218.793 65.365 218.793 65.255C218.793 65.1083 218.793 64.98 218.793 64.87C218.83 64.7233 218.848 64.5767 218.848 64.43H216.263L216.318 63.88H218.793L218.958 63.33H217.858C217.895 63.2567 217.932 63.165 217.968 63.055C218.005 62.945 218.042 62.8533 218.078 62.78H217.638C217.712 62.6333 217.785 62.505 217.858 62.395C217.932 62.2483 217.987 62.1017 218.023 61.955H218.243L218.573 61.405H218.518C218.592 61.2583 218.683 61.13 218.793 61.02C218.903 60.8733 219.013 60.7267 219.123 60.58C219.233 60.4333 219.343 60.305 219.453 60.195C219.563 60.0483 219.692 59.9017 219.838 59.755H219.728L220.003 59.48H219.948C219.985 59.4067 220.022 59.3517 220.058 59.315C220.132 59.2783 220.187 59.2417 220.223 59.205H220.333L220.993 58.655C221.067 58.5817 221.122 58.5267 221.158 58.49C221.232 58.4533 221.305 58.4167 221.378 58.38H220.333C220.957 57.9767 221.635 57.61 222.368 57.28H224.073C224.183 57.2067 224.293 57.1517 224.403 57.115C224.513 57.0783 224.642 57.0417 224.788 57.005H221.048C221.195 56.9317 221.323 56.8767 221.433 56.84C221.58 56.8033 221.727 56.7667 221.873 56.73H224.238C225.155 56.4367 226.127 56.2167 227.153 56.07C228.217 55.9233 229.335 55.85 230.508 55.85C231.718 55.85 232.855 55.9233 233.918 56.07C234.982 56.2167 235.972 56.4367 236.888 56.73H234.523C234.67 56.7667 234.798 56.8033 234.908 56.84C235.055 56.8767 235.202 56.9317 235.348 57.005H239.033L239.803 57.28H238.098C238.502 57.4267 238.887 57.61 239.253 57.83C239.62 58.0133 239.968 58.1967 240.298 58.38H241.343L241.783 58.655H241.838C241.985 58.7283 242.113 58.82 242.223 58.93C242.37 59.04 242.498 59.1317 242.608 59.205H242.553L242.883 59.48H242.938L243.268 59.755H243.378C243.708 60.0117 243.983 60.2867 244.203 60.58C244.497 60.8367 244.717 61.1117 244.863 61.405H244.918L245.248 61.955H244.973C245.047 62.1017 245.12 62.2483 245.193 62.395C245.267 62.505 245.322 62.6333 245.358 62.78H245.743L245.908 63.33H246.953L247.008 63.715V63.88H247.943C247.943 64.0267 247.907 64.21 247.833 64.43C247.577 64.9433 247.21 65.2 246.733 65.2H237.493C237.127 65.2 236.778 65.1267 236.448 64.98C236.155 64.7967 235.862 64.6133 235.568 64.43C235.312 64.2467 235.018 64.0633 234.688 63.88H233.753C233.387 63.66 232.983 63.55 232.543 63.55C232.177 63.55 231.883 63.66 231.663 63.88H229.243C229.06 64.0633 228.968 64.2467 228.968 64.43H231.553C231.553 64.6133 231.59 64.7967 231.663 64.98C231.737 65.1633 231.902 65.3467 232.158 65.53H228.528C228.712 65.6033 228.913 65.695 229.133 65.805C229.353 65.915 229.628 66.0067 229.958 66.08H229.903C230.343 66.2267 230.893 66.355 231.553 66.465C232.25 66.575 233.057 66.7033 233.973 66.85C234.047 66.85 234.102 66.8683 234.138 66.905C234.212 66.905 234.267 66.905 234.303 66.905H239.143C239.583 66.9783 240.005 67.07 240.408 67.18C240.848 67.2533 241.252 67.345 241.618 67.455H239.033C239.18 67.4917 239.308 67.5283 239.418 67.565C239.565 67.6017 239.712 67.6567 239.858 67.73H239.528C240.005 67.8767 240.427 68.0417 240.793 68.225C241.197 68.4083 241.582 68.61 241.948 68.83H242.773L243.653 69.38H241.288C241.472 69.5267 241.655 69.6733 241.838 69.82C242.022 69.93 242.187 70.0583 242.333 70.205H243.873L244.148 70.48H243.653L243.928 70.755H245.028C245.432 71.1583 245.725 71.525 245.908 71.855H246.018C246.128 72.0017 246.22 72.1483 246.293 72.295C246.367 72.405 246.44 72.5333 246.513 72.68H246.293C246.367 72.8633 246.44 73.0467 246.513 73.23C246.623 73.4133 246.697 73.5967 246.733 73.78H246.568L246.678 74.055H246.458C246.495 74.1283 246.513 74.22 246.513 74.33C246.513 74.44 246.532 74.5317 246.568 74.605H246.073C246.183 74.9717 246.238 75.3383 246.238 75.705H246.953V76.09C246.953 76.2367 246.935 76.4017 246.898 76.585C246.898 76.7317 246.898 76.8967 246.898 77.08H246.733C246.697 77.2633 246.66 77.4467 246.623 77.63C246.623 77.8133 246.587 77.9967 246.513 78.18H247.778C247.778 78.3633 247.723 78.5467 247.613 78.73H249.373C249.3 78.8767 249.263 78.9683 249.263 79.005H250.308C250.235 79.1883 250.143 79.3717 250.033 79.555C249.96 79.7383 249.868 79.9217 249.758 80.105ZM276.485 78.73H275.165V79.28H277.145V79.83H278.96V80.655H277.695V81.48H281.38V82.305H275.385V83.405H275.825V83.515C275.825 83.5883 275.806 83.6433 275.77 83.68C275.696 84.0467 275.568 84.3217 275.385 84.505H274.945C274.798 84.6517 274.688 84.7433 274.615 84.78H276.485C276.301 84.9267 276.045 85 275.715 85H269.5C268.876 85 268.253 84.9817 267.63 84.945C267.043 84.9083 266.475 84.8533 265.925 84.78H264.055C263.798 84.7433 263.541 84.7067 263.285 84.67C263.028 84.5967 262.753 84.5417 262.46 84.505H262.9C262.423 84.395 261.965 84.2667 261.525 84.12C261.121 83.9733 260.718 83.8267 260.315 83.68H260.37C260.26 83.6067 260.15 83.5517 260.04 83.515C259.93 83.4783 259.838 83.4417 259.765 83.405H259.325C259.031 83.2217 258.738 83.0567 258.445 82.91C258.151 82.7267 257.858 82.525 257.565 82.305H263.615C263.468 82.1583 263.303 82.03 263.12 81.92C262.973 81.7733 262.826 81.6267 262.68 81.48H258.995L258.28 80.655H259.6C259.49 80.5083 259.38 80.38 259.27 80.27C259.196 80.1233 259.123 79.9767 259.05 79.83H257.235L256.905 79.28H254.925C254.888 79.2067 254.851 79.115 254.815 79.005C254.778 78.895 254.723 78.8033 254.65 78.73H256.025L255.695 77.905H256.795L256.63 77.355C256.556 77.135 256.52 76.9517 256.52 76.805H260.865C260.828 76.6583 260.791 76.53 260.755 76.42C260.755 76.2733 260.755 76.1267 260.755 75.98H254.485C254.485 75.9067 254.466 75.8517 254.43 75.815C254.43 75.7783 254.43 75.7417 254.43 75.705H254.265C254.265 75.5583 254.246 75.43 254.21 75.32C254.21 75.1733 254.21 75.0267 254.21 74.88H254.045C254.045 74.7333 254.026 74.605 253.99 74.495C253.99 74.3483 253.99 74.2017 253.99 74.055H254.76V73.78H254.265V73.23H253.825V72.13H254.485V71.03H253.825V70.205H254.32V69.655H254.375V68.83H254.65V66.905H254.76V66.08H255.035V66.025H250.69C250.14 66.025 249.7 65.7683 249.37 65.255H250.195C250.085 65.035 250.03 64.7967 250.03 64.54V64.155H248.27V63.33H248.655V62.23H248.38V61.68H248.49V61.13H249.315V60.855H247.94V60.03H249.59V59.205H249.26V58.655H248.875V57.83H248.545V57.555H248.38C248.49 57.005 248.838 56.6383 249.425 56.455H249.755C249.865 56.4183 250.011 56.4 250.195 56.4H254.54V56.18H254.76V55.355H254.32V54.805H254.265V53.98H254.045V53.705H252.725V53.155H251.46V52.88H251.9V52.605H253.165V51.505H253.66V50.955H251.9V50.405H254.595V49.58H254.32V49.305H253.715V48.755H254.265V48.48H253.715V47.655H254.21V47.435C254.21 47.2517 254.246 47.05 254.32 46.83H255.035C255.291 46.2433 255.75 45.95 256.41 45.95H266.035C266.621 45.95 267.08 46.2433 267.41 46.83H266.695C266.768 47.05 266.805 47.2517 266.805 47.435V47.655H266.31V48.48H266.86V48.755H266.31V49.305H266.915V49.58H267.19V50.405H264.495V50.955H266.255V51.505H265.76V52.605H264.495V52.88H264.055V53.155H265.32V53.705H266.64V53.98H266.86V54.805H266.915V55.355H267.355V56.18H267.135V56.4H274.065C274.248 56.4 274.376 56.4183 274.45 56.455H274.12C274.633 56.6383 274.981 57.005 275.165 57.555H275.33C275.33 57.5917 275.33 57.6283 275.33 57.665C275.366 57.7017 275.385 57.7567 275.385 57.83H275.715V58.655H276.1V59.205H276.43V60.03H274.78V60.855H276.155V61.13H275.33V61.68H275.22V62.23H275.495V63.33H275.11V64.155H276.87V64.54C276.87 64.6867 276.851 64.815 276.815 64.925C276.778 65.035 276.723 65.145 276.65 65.255H275.88C275.55 65.7683 275.11 66.025 274.56 66.025H267.63V66.08H267.355V66.905H267.245V68.83H266.97V69.655H266.915V70.205H266.42V71.03H267.08V72.13H266.42C266.42 72.3133 266.42 72.4967 266.42 72.68C266.456 72.8633 266.493 73.0467 266.53 73.23H267.025C267.098 73.45 267.171 73.6333 267.245 73.78H267.685L267.85 74.055H267.08C267.483 74.5683 268.106 74.825 268.95 74.825H273.955C274.138 74.825 274.266 74.8433 274.34 74.88H274.505C274.945 74.99 275.256 75.265 275.44 75.705H275.605C275.605 75.7417 275.605 75.7783 275.605 75.815C275.641 75.8517 275.66 75.9067 275.66 75.98H281.93C281.93 76.0167 281.93 76.0717 281.93 76.145C281.966 76.1817 281.985 76.2367 281.985 76.31V76.805H277.585V77.905H276.485V78.73ZM307.627 69.93V70.48H314.612V71.03H310.377V71.58H308.397V72.13H310.102V72.46C310.102 72.68 310.084 72.845 310.047 72.955H310.817C310.561 73.615 310.084 73.945 309.387 73.945H292.997V74.055H295.197V74.22C295.197 74.3667 295.197 74.5317 295.197 74.715C295.197 74.8617 295.216 75.0083 295.252 75.155H292.282C292.282 75.265 292.282 75.375 292.282 75.485C292.319 75.5583 292.337 75.6317 292.337 75.705H292.007C292.007 75.8517 292.044 76.035 292.117 76.255H292.337C292.521 76.7683 292.814 77.135 293.217 77.355H291.732C291.989 77.5017 292.337 77.575 292.777 77.575C293.071 77.575 293.309 77.5017 293.492 77.355H296.077C296.224 77.2817 296.352 77.1717 296.462 77.025C296.609 76.8783 296.774 76.7317 296.957 76.585L297.287 76.255H296.242C296.572 75.9617 297.067 75.815 297.727 75.815H308.122C308.562 75.815 308.892 75.9617 309.112 76.255H310.102C310.286 76.5117 310.377 76.7683 310.377 77.025C310.341 77.0983 310.322 77.2083 310.322 77.355H307.737C307.664 77.7217 307.554 78.0883 307.407 78.455H304.712C304.602 78.6383 304.511 78.8217 304.437 79.005H311.257C311.184 79.1883 311.074 79.3717 310.927 79.555C310.817 79.7383 310.689 79.9217 310.542 80.105H308.892C308.746 80.325 308.599 80.5083 308.452 80.655H308.837C308.801 80.6917 308.764 80.7283 308.727 80.765C308.691 80.8017 308.654 80.8567 308.617 80.93H305.537L305.262 81.205H306.197C306.161 81.2417 306.106 81.2783 306.032 81.315C305.996 81.3517 305.959 81.4067 305.922 81.48H307.627C307.371 81.7367 307.041 82.0117 306.637 82.305H305.812C305.776 82.3417 305.721 82.3783 305.647 82.415C305.574 82.4517 305.501 82.5067 305.427 82.58H304.822C304.236 82.9833 303.594 83.35 302.897 83.68H302.182C301.742 83.9 301.266 84.1017 300.752 84.285C300.276 84.4683 299.762 84.6333 299.212 84.78H298.332C297.929 84.89 297.507 84.9817 297.067 85.055C296.627 85.165 296.151 85.2567 295.637 85.33H297.947C297.434 85.4033 296.902 85.4583 296.352 85.495C295.802 85.5317 295.216 85.55 294.592 85.55C294.006 85.55 293.419 85.5317 292.832 85.495C292.246 85.4583 291.677 85.4033 291.127 85.33H288.817C288.341 85.2567 287.882 85.165 287.442 85.055C287.002 84.9817 286.562 84.89 286.122 84.78H287.002C286.012 84.5233 285.077 84.1567 284.197 83.68H284.912C284.252 83.3133 283.684 82.9467 283.207 82.58H283.812C283.739 82.5067 283.666 82.4517 283.592 82.415C283.556 82.3783 283.501 82.3417 283.427 82.305H284.252C284.106 82.1583 283.959 82.03 283.812 81.92C283.666 81.7733 283.519 81.6267 283.372 81.48H281.612L281.337 81.205H280.402C280.366 81.1317 280.329 81.0767 280.292 81.04C280.256 81.0033 280.219 80.9667 280.182 80.93H283.207C283.171 80.8567 283.097 80.765 282.987 80.655H282.602C282.529 80.5817 282.456 80.49 282.382 80.38C282.309 80.27 282.236 80.1783 282.162 80.105H283.812C283.702 79.9217 283.592 79.7383 283.482 79.555C283.372 79.3717 283.262 79.1883 283.152 79.005H276.277C276.167 78.8217 276.076 78.6383 276.002 78.455H278.697L278.202 77.355H279.687C279.614 77.1717 279.541 76.9883 279.467 76.805C279.431 76.6217 279.376 76.4383 279.302 76.255H279.137L278.972 75.705H279.357L279.192 75.155H282.162C282.126 74.9717 282.089 74.7883 282.052 74.605C282.016 74.4217 281.979 74.2383 281.942 74.055H279.742L279.632 72.955H278.862C278.862 72.8083 278.844 72.68 278.807 72.57C278.807 72.4233 278.807 72.2767 278.807 72.13H277.102V71.58H279.027V71.03H283.262V70.48H276.277V70.37C276.277 70.1867 276.296 70.04 276.332 69.93H285.847C285.847 69.7833 285.847 69.655 285.847 69.545C285.884 69.3983 285.902 69.2517 285.902 69.105H277.157C277.157 69.0317 277.157 68.9767 277.157 68.94C277.194 68.9033 277.212 68.8667 277.212 68.83H280.842C280.842 68.72 280.861 68.6283 280.897 68.555H284.967V68.28H277.212C277.249 68.0967 277.286 67.9133 277.322 67.73C277.359 67.5467 277.396 67.3633 277.432 67.18H279.522C279.522 67.0333 279.559 66.85 279.632 66.63H277.817C277.817 66.5567 277.817 66.5017 277.817 66.465C277.854 66.4283 277.872 66.3917 277.872 66.355H279.192C279.192 66.2817 279.192 66.2267 279.192 66.19C279.229 66.1533 279.247 66.1167 279.247 66.08H277.872L277.982 65.805H279.302L279.467 65.255H280.512L280.842 64.43H279.852C279.926 64.2467 279.999 64.0633 280.072 63.88C280.146 63.66 280.237 63.4767 280.347 63.33H280.182L280.292 63.055H278.917C278.991 62.9083 279.027 62.8167 279.027 62.78H277.762L278.092 62.23H280.787C280.824 62.1567 280.897 62.065 281.007 61.955H281.997C282.144 61.7717 282.272 61.5883 282.382 61.405C282.529 61.185 282.676 61.0017 282.822 60.855H281.832C281.942 60.7083 282.052 60.58 282.162 60.47C282.309 60.3233 282.456 60.1767 282.602 60.03H284.747L285.297 59.48H282.052C282.529 59.0767 283.006 58.71 283.482 58.38H286.507L286.947 58.105H285.957C286.251 57.9217 286.599 57.7383 287.002 57.555H289.147C290.137 57.0783 291.164 56.7117 292.227 56.455H289.147C289.954 56.2717 290.797 56.125 291.677 56.015C292.557 55.905 293.474 55.85 294.427 55.85C295.381 55.85 296.279 55.905 297.122 56.015C297.966 56.125 298.772 56.2717 299.542 56.455H302.567C303.117 56.6017 303.631 56.7667 304.107 56.95C304.621 57.1333 305.116 57.335 305.592 57.555H303.447C303.631 57.6283 303.796 57.72 303.942 57.83C304.126 57.9033 304.291 57.995 304.437 58.105H305.427C305.501 58.1417 305.574 58.1783 305.647 58.215C305.721 58.2517 305.794 58.3067 305.867 58.38H302.842C303.319 58.71 303.796 59.0767 304.272 59.48H307.572L308.122 60.03H305.977C306.124 60.1767 306.252 60.3233 306.362 60.47C306.509 60.58 306.637 60.7083 306.747 60.855H307.737C307.884 61.0017 308.012 61.185 308.122 61.405C308.269 61.5883 308.416 61.7717 308.562 61.955H307.517C307.554 62.0283 307.627 62.12 307.737 62.23H304.987L305.317 62.78H306.582L306.747 63.055H308.177C308.177 63.0917 308.214 63.1833 308.287 63.33H308.452L308.947 64.43L309.277 65.255H309.332L309.497 65.805H308.837L308.947 66.08H309.442L309.552 66.355H310.432C310.432 66.3917 310.432 66.4283 310.432 66.465C310.469 66.5017 310.487 66.5567 310.487 66.63H310.047L310.212 67.18H308.122L308.287 68.28H316.042V68.555H311.972C311.972 68.5917 311.972 68.6283 311.972 68.665C312.009 68.7017 312.027 68.7567 312.027 68.83H308.342C308.379 68.9033 308.397 68.995 308.397 69.105H317.142C317.142 69.2517 317.142 69.3983 317.142 69.545C317.142 69.655 317.161 69.7833 317.197 69.93H307.627ZM290.907 66.355V66.63H292.667V67.07H297.067V66.63H297.452V66.355H296.572V66.08H296.022C296.022 65.97 296.004 65.8783 295.967 65.805H296.627C296.627 65.6583 296.591 65.475 296.517 65.255H296.462C296.426 64.925 296.316 64.65 296.132 64.43C295.766 63.8433 295.197 63.55 294.427 63.55C293.694 63.55 293.144 63.8433 292.777 64.43H293.767C293.621 64.65 293.511 64.925 293.437 65.255H292.337C292.337 65.3283 292.319 65.42 292.282 65.53C292.282 65.6033 292.264 65.695 292.227 65.805H290.907C290.907 65.915 290.889 66.0067 290.852 66.08H292.227V66.355H290.907ZM338.595 60.58H340.685V61.68H340.575V62.78H338.65V63.605H339.145V64.705H338.705V65.805H337.715V66.08H334.25V66.465C334.25 66.5383 334.231 66.6117 334.195 66.685C334.195 66.7583 334.176 66.8317 334.14 66.905H335.405C335.221 67.6017 334.745 67.95 333.975 67.95H326.88C326.733 67.95 326.586 67.95 326.44 67.95C326.33 67.95 326.22 67.9683 326.11 68.005H328.31C328.126 68.0417 327.961 68.0783 327.815 68.115C327.668 68.1517 327.503 68.2067 327.32 68.28H329.135C329.025 68.3167 328.86 68.4083 328.64 68.555H329.685L329.355 68.83H329.63C329.41 69.05 329.245 69.325 329.135 69.655H327.485C327.411 69.8017 327.375 69.8933 327.375 69.93H326.825C326.825 69.9667 326.806 70.0033 326.77 70.04C326.77 70.0767 326.77 70.1317 326.77 70.205H327.43C327.393 70.2783 327.375 70.37 327.375 70.48C327.375 70.5533 327.356 70.645 327.32 70.755H327.65V71.58H326.88V72.13H327.65V72.955H328.475V74.055H327.265V74.33H326.385V74.605H329.685V75.43H328.035V75.98H328.585V76.53H327.32V77.63H326.605V77.905H325.89V78.73H327.76V79.555H326.77V80.38H327.76V80.655H327.65V81.205H326.44V81.755H327.32V82.855H327.54V83.68H327.32C327.246 84.1933 327.008 84.56 326.605 84.78H326.11C325.926 84.9267 325.67 85 325.34 85H314.89C314.56 85 314.303 84.9267 314.12 84.78H314.615C314.211 84.56 313.973 84.1933 313.9 83.68H314.12V82.855H313.9V81.755H313.02V81.205H314.23V80.655H314.34V80.38H313.35V79.555H314.34V78.73H312.47V77.905H313.185V77.63H313.9V76.53H315.165V75.98H314.615V75.43H316.265V74.605H312.965V74.33H313.845V74.055H315.055V72.955H314.23V72.13H313.46V71.58H314.23V70.755H313.9V70.205H313.24V69.93H313.79V69.655H315.44V68.83H315.165V68.555H314.175V68.28H312.36V68.005H310.16V66.905H308.95V66.08H312.415V65.805H313.405V64.705H313.845V63.605H313.35V62.78H315.275V61.68H315.385V60.58H313.295V59.755H315.055V58.655H313.35V58.38H313.9V57.885C313.9 57.7017 313.936 57.5 314.01 57.28H313.955C314.211 56.6933 314.67 56.4 315.33 56.4H324.955C325.578 56.4 326.018 56.6933 326.275 57.28H326.385C326.458 57.5 326.495 57.7017 326.495 57.885V58.38H325.945V58.655H327.65V58.82L327.87 58.655H327.98C328.053 58.5817 328.126 58.5267 328.2 58.49C328.273 58.4533 328.328 58.4167 328.365 58.38H328.475C329.208 57.9033 329.923 57.5367 330.62 57.28H330.73C331.463 56.9867 332.196 56.7667 332.93 56.62C333.663 56.4733 334.433 56.4 335.24 56.4H337.88C338.54 56.4 338.998 56.6933 339.255 57.28H339.145C339.218 57.5 339.255 57.7017 339.255 57.885V58.38H339.2V58.655H339.09V59.755H338.595V60.58ZM379.107 84.505H377.292V85.605H377.787V86.155H377.897V87.255H378.282V87.53H378.612V88.08H379.437V88.905C379.437 89.015 379.418 89.1067 379.382 89.18C379.308 89.73 379.015 90.0967 378.502 90.28H378.007C377.787 90.3533 377.603 90.39 377.457 90.39H344.182C344.035 90.39 343.852 90.3533 343.632 90.28H344.127C343.613 90.0967 343.302 89.73 343.192 89.18V88.08H342.367V87.53H342.037V87.255H341.652V86.155H341.542V85.605H341.047V84.505H342.862V84.23H343.302V83.68H340.992V83.405H341.927V82.58H341.707V81.48H341.762V81.095C341.762 80.9117 341.78 80.765 341.817 80.655H341.487C341.743 79.9583 342.22 79.61 342.917 79.61H376.192C376.962 79.61 377.438 79.9583 377.622 80.655H377.897C377.933 80.7283 377.952 80.8017 377.952 80.875C377.988 80.9483 378.007 81.0217 378.007 81.095V81.48H377.952V82.58H378.172V83.405H377.237V83.68H379.547V84.23H379.107V84.505Z" fill="#D379F1"/>
</g>
<path d="M133.06 65.055H130.365C130.328 65.2017 130.292 65.3483 130.255 65.495C130.218 65.605 130.163 65.7333 130.09 65.88H131.63L131.465 66.43H130.145C130.035 66.76 129.888 67.1267 129.705 67.53H128.88C128.733 67.8967 128.532 68.2633 128.275 68.63H128.385C128.238 68.8133 128.11 68.9967 128 69.18C127.89 69.3633 127.762 69.5467 127.615 69.73H133.555L132.84 70.555H127.945C127.798 70.7383 127.615 70.9217 127.395 71.105C127.175 71.2883 126.973 71.4717 126.79 71.655H127.505C127.358 71.8017 127.175 71.9483 126.955 72.095C126.772 72.205 126.588 72.3333 126.405 72.48H128.22L128 72.645L128.495 73.58H127.175L127.78 74.68H127.945L128.11 74.955H128.055L128.605 76.055H129.155L129.485 76.605H125.25L125.69 77.43H129.54L129.87 77.98H128.66L129.1 78.805H134.545L135.15 79.905H131.52L131.96 80.73H130.255L131.135 82.38H131.52L131.85 82.93H131.685L131.85 83.205H129.265L129.87 84.305L129.98 84.58H128.275L128.55 85.185C128.66 85.3317 128.715 85.4967 128.715 85.68H129.87V85.79C129.87 86.1933 129.705 86.5233 129.375 86.78H130.86C130.677 86.9267 130.438 87 130.145 87H118.87C118.65 87 118.448 86.9817 118.265 86.945C118.118 86.8717 117.953 86.8167 117.77 86.78H116.285C115.992 86.6333 115.735 86.45 115.515 86.23C115.332 86.01 115.185 85.8267 115.075 85.68H113.975L113.865 85.515L113.48 84.58H115.24L115.075 84.305H109.85V84.58H107.045V85.68H111.5C111.427 86.1933 111.188 86.56 110.785 86.78H110.4C110.143 86.9267 109.868 87 109.575 87H98.795C98.465 87 98.2083 86.9267 98.025 86.78H98.465C98.0617 86.56 97.8233 86.1933 97.75 85.68H93.35C93.35 85.6433 93.35 85.625 93.35 85.625C93.3133 85.5883 93.295 85.5517 93.295 85.515V84.58H96.1V84.305H101.6V83.205H95.715V82.93H99.18V82.38H98.025V81.555H99.95V80.73H96.815V79.905H101.05V78.805H98.63V77.98H98.575V77.705H98.245V77.43H96.76V76.605H98.63V76.055H98.135V74.955H98.19V74.68H98.025V73.58H99.345V72.48H97.475V71.655H96.76V70.555H101.6V69.73H95.66V68.63H95.55V67.53H96.375V66.43H97.64V65.88H96.1V65.055H98.795V64.505H102.755V63.955H97.31V63.68H97.585V63.405H98.08V63.13H98.135V62.58H98.025V61.755H98.245V60.655H97.97V60.105H98.245V59.28H98.025V59.005H98.19V58.455H98.135V58.18H97.915V57.905H98.41V57.08H98.85V56.255H96.265V55.155H96.87V54.055H96.54V53.23H98.025V52.405H98.575V51.58H97.585V51.03H97.97V50.755H98.08V49.93H98.19C98.19 49.5267 98.355 49.16 98.685 48.83H101.655C101.875 48.61 102.187 48.5 102.59 48.5H118.87C120.447 48.5 121.913 48.61 123.27 48.83H120.355C121.822 49.05 123.215 49.4167 124.535 49.93H124.425C125.048 50.15 125.653 50.425 126.24 50.755H126.13L126.625 51.03H126.185C126.368 51.1033 126.515 51.195 126.625 51.305C126.772 51.415 126.918 51.5067 127.065 51.58H128.055C128.238 51.7267 128.422 51.8733 128.605 52.02C128.788 52.13 128.953 52.2583 129.1 52.405H128.55C128.733 52.5517 128.88 52.6983 128.99 52.845C129.137 52.955 129.283 53.0833 129.43 53.23H127.945C128.092 53.3767 128.22 53.5233 128.33 53.67C128.44 53.78 128.55 53.9083 128.66 54.055H128.935C129.228 54.4217 129.485 54.7883 129.705 55.155H129.155C129.265 55.3017 129.357 55.485 129.43 55.705C129.54 55.8883 129.65 56.0717 129.76 56.255H132.345L132.675 57.08H132.235C132.272 57.2267 132.308 57.3733 132.345 57.52C132.418 57.63 132.473 57.7583 132.51 57.905H131.96L132.07 58.18H132.29C132.327 58.2533 132.345 58.345 132.345 58.455L132.51 59.005H132.675C132.675 59.115 132.693 59.2067 132.73 59.28H132.785C132.822 59.4267 132.84 59.5733 132.84 59.72C132.877 59.83 132.895 59.9583 132.895 60.105H132.18C132.18 60.1783 132.18 60.27 132.18 60.38C132.18 60.49 132.198 60.5817 132.235 60.655H132.565C132.565 60.8383 132.565 61.0217 132.565 61.205C132.602 61.3883 132.62 61.5717 132.62 61.755V62.305H132.95V62.58H132.62V63.13H132.07C132.07 63.1667 132.052 63.2033 132.015 63.24C132.015 63.2767 132.015 63.3317 132.015 63.405H132.565C132.565 63.4417 132.547 63.4783 132.51 63.515C132.51 63.5517 132.51 63.6067 132.51 63.68H135.095C135.058 63.7533 135.04 63.845 135.04 63.955H135.755L135.7 64.505H133.17C133.097 64.725 133.06 64.9083 133.06 65.055ZM111.06 63.955H116.505V64.505H112.545V64.56H116.56C116.817 64.56 117.018 64.5417 117.165 64.505H119.695C120.098 64.395 120.465 64.2117 120.795 63.955H120.025L120.3 63.68H117.715C117.825 63.57 117.898 63.4783 117.935 63.405H117.385L117.55 63.13H118.1L118.265 62.58H118.54C118.577 62.5067 118.595 62.415 118.595 62.305H118.265L118.32 61.755C118.32 61.3883 118.265 61.0217 118.155 60.655H117.825C117.788 60.5817 117.752 60.49 117.715 60.38C117.715 60.27 117.678 60.1783 117.605 60.105H118.375C118.228 59.8117 118.027 59.5367 117.77 59.28H117.66C117.55 59.17 117.422 59.0783 117.275 59.005H117.11C116.743 58.8217 116.358 58.73 115.955 58.73H111.94V59.005H111.775V59.28H111.995V60.105H111.72V60.655H111.995V61.755H111.775V62.58H111.885V63.13H111.83V63.405H111.335V63.68H111.06V63.955ZM115.405 76.605L115.185 76.055H114.58L114.14 75.01H111.885V76.055H112.38V76.605H115.405ZM110.51 76.605V77.43H111.555L111.225 76.605H110.51ZM115.515 77.705L115.405 77.43H111.995V77.705H112.325V77.98H112.38V78.805H114.8V79.905H110.565V80.73H113.7V81.555H111.775V82.38H112.93V82.93H109.465V83.205H117.22L117.055 82.93H117.22L116.945 82.38H116.505L116.175 81.555L115.79 80.73H117.55L117.165 79.905H120.74L120.245 78.805H114.8L114.47 77.98H115.68L115.515 77.705ZM164.786 71.93V72.48H171.771V73.03H167.536V73.58H165.556V74.13H167.261V74.46C167.261 74.68 167.243 74.845 167.206 74.955H167.976C167.72 75.615 167.243 75.945 166.546 75.945H150.156V76.055H152.356V76.22C152.356 76.3667 152.356 76.5317 152.356 76.715C152.356 76.8617 152.375 77.0083 152.411 77.155H149.441C149.441 77.265 149.441 77.375 149.441 77.485C149.478 77.5583 149.496 77.6317 149.496 77.705H149.166C149.166 77.8517 149.203 78.035 149.276 78.255H149.496C149.68 78.7683 149.973 79.135 150.376 79.355H148.891C149.148 79.5017 149.496 79.575 149.936 79.575C150.23 79.575 150.468 79.5017 150.651 79.355H153.236C153.383 79.2817 153.511 79.1717 153.621 79.025C153.768 78.8783 153.933 78.7317 154.116 78.585L154.446 78.255H153.401C153.731 77.9617 154.226 77.815 154.886 77.815H165.281C165.721 77.815 166.051 77.9617 166.271 78.255H167.261C167.445 78.5117 167.536 78.7683 167.536 79.025C167.5 79.0983 167.481 79.2083 167.481 79.355H164.896C164.823 79.7217 164.713 80.0883 164.566 80.455H161.871C161.761 80.6383 161.67 80.8217 161.596 81.005H168.416C168.343 81.1883 168.233 81.3717 168.086 81.555C167.976 81.7383 167.848 81.9217 167.701 82.105H166.051C165.905 82.325 165.758 82.5083 165.611 82.655H165.996C165.96 82.6917 165.923 82.7283 165.886 82.765C165.85 82.8017 165.813 82.8567 165.776 82.93H162.696L162.421 83.205H163.356C163.32 83.2417 163.265 83.2783 163.191 83.315C163.155 83.3517 163.118 83.4067 163.081 83.48H164.786C164.53 83.7367 164.2 84.0117 163.796 84.305H162.971C162.935 84.3417 162.88 84.3783 162.806 84.415C162.733 84.4517 162.66 84.5067 162.586 84.58H161.981C161.395 84.9833 160.753 85.35 160.056 85.68H159.341C158.901 85.9 158.425 86.1017 157.911 86.285C157.435 86.4683 156.921 86.6333 156.371 86.78H155.491C155.088 86.89 154.666 86.9817 154.226 87.055C153.786 87.165 153.31 87.2567 152.796 87.33H155.106C154.593 87.4033 154.061 87.4583 153.511 87.495C152.961 87.5317 152.375 87.55 151.751 87.55C151.165 87.55 150.578 87.5317 149.991 87.495C149.405 87.4583 148.836 87.4033 148.286 87.33H145.976C145.5 87.2567 145.041 87.165 144.601 87.055C144.161 86.9817 143.721 86.89 143.281 86.78H144.161C143.171 86.5233 142.236 86.1567 141.356 85.68H142.071C141.411 85.3133 140.843 84.9467 140.366 84.58H140.971C140.898 84.5067 140.825 84.4517 140.751 84.415C140.715 84.3783 140.66 84.3417 140.586 84.305H141.411C141.265 84.1583 141.118 84.03 140.971 83.92C140.825 83.7733 140.678 83.6267 140.531 83.48H138.771L138.496 83.205H137.561C137.525 83.1317 137.488 83.0767 137.451 83.04C137.415 83.0033 137.378 82.9667 137.341 82.93H140.366C140.33 82.8567 140.256 82.765 140.146 82.655H139.761C139.688 82.5817 139.615 82.49 139.541 82.38C139.468 82.27 139.395 82.1783 139.321 82.105H140.971C140.861 81.9217 140.751 81.7383 140.641 81.555C140.531 81.3717 140.421 81.1883 140.311 81.005H133.436C133.326 80.8217 133.235 80.6383 133.161 80.455H135.856L135.361 79.355H136.846C136.773 79.1717 136.7 78.9883 136.626 78.805C136.59 78.6217 136.535 78.4383 136.461 78.255H136.296L136.131 77.705H136.516L136.351 77.155H139.321C139.285 76.9717 139.248 76.7883 139.211 76.605C139.175 76.4217 139.138 76.2383 139.101 76.055H136.901L136.791 74.955H136.021C136.021 74.8083 136.003 74.68 135.966 74.57C135.966 74.4233 135.966 74.2767 135.966 74.13H134.261V73.58H136.186V73.03H140.421V72.48H133.436V72.37C133.436 72.1867 133.455 72.04 133.491 71.93H143.006C143.006 71.7833 143.006 71.655 143.006 71.545C143.043 71.3983 143.061 71.2517 143.061 71.105H134.316C134.316 71.0317 134.316 70.9767 134.316 70.94C134.353 70.9033 134.371 70.8667 134.371 70.83H138.001C138.001 70.72 138.02 70.6283 138.056 70.555H142.126V70.28H134.371C134.408 70.0967 134.445 69.9133 134.481 69.73C134.518 69.5467 134.555 69.3633 134.591 69.18H136.681C136.681 69.0333 136.718 68.85 136.791 68.63H134.976C134.976 68.5567 134.976 68.5017 134.976 68.465C135.013 68.4283 135.031 68.3917 135.031 68.355H136.351C136.351 68.2817 136.351 68.2267 136.351 68.19C136.388 68.1533 136.406 68.1167 136.406 68.08H135.031L135.141 67.805H136.461L136.626 67.255H137.671L138.001 66.43H137.011C137.085 66.2467 137.158 66.0633 137.231 65.88C137.305 65.66 137.396 65.4767 137.506 65.33H137.341L137.451 65.055H136.076C136.15 64.9083 136.186 64.8167 136.186 64.78H134.921L135.251 64.23H137.946C137.983 64.1567 138.056 64.065 138.166 63.955H139.156C139.303 63.7717 139.431 63.5883 139.541 63.405C139.688 63.185 139.835 63.0017 139.981 62.855H138.991C139.101 62.7083 139.211 62.58 139.321 62.47C139.468 62.3233 139.615 62.1767 139.761 62.03H141.906L142.456 61.48H139.211C139.688 61.0767 140.165 60.71 140.641 60.38H143.666L144.106 60.105H143.116C143.41 59.9217 143.758 59.7383 144.161 59.555H146.306C147.296 59.0783 148.323 58.7117 149.386 58.455H146.306C147.113 58.2717 147.956 58.125 148.836 58.015C149.716 57.905 150.633 57.85 151.586 57.85C152.54 57.85 153.438 57.905 154.281 58.015C155.125 58.125 155.931 58.2717 156.701 58.455H159.726C160.276 58.6017 160.79 58.7667 161.266 58.95C161.78 59.1333 162.275 59.335 162.751 59.555H160.606C160.79 59.6283 160.955 59.72 161.101 59.83C161.285 59.9033 161.45 59.995 161.596 60.105H162.586C162.66 60.1417 162.733 60.1783 162.806 60.215C162.88 60.2517 162.953 60.3067 163.026 60.38H160.001C160.478 60.71 160.955 61.0767 161.431 61.48H164.731L165.281 62.03H163.136C163.283 62.1767 163.411 62.3233 163.521 62.47C163.668 62.58 163.796 62.7083 163.906 62.855H164.896C165.043 63.0017 165.171 63.185 165.281 63.405C165.428 63.5883 165.575 63.7717 165.721 63.955H164.676C164.713 64.0283 164.786 64.12 164.896 64.23H162.146L162.476 64.78H163.741L163.906 65.055H165.336C165.336 65.0917 165.373 65.1833 165.446 65.33H165.611L166.106 66.43L166.436 67.255H166.491L166.656 67.805H165.996L166.106 68.08H166.601L166.711 68.355H167.591C167.591 68.3917 167.591 68.4283 167.591 68.465C167.628 68.5017 167.646 68.5567 167.646 68.63H167.206L167.371 69.18H165.281L165.446 70.28H173.201V70.555H169.131C169.131 70.5917 169.131 70.6283 169.131 70.665C169.168 70.7017 169.186 70.7567 169.186 70.83H165.501C165.538 70.9033 165.556 70.995 165.556 71.105H174.301C174.301 71.2517 174.301 71.3983 174.301 71.545C174.301 71.655 174.32 71.7833 174.356 71.93H164.786ZM148.066 68.355V68.63H149.826V69.07H154.226V68.63H154.611V68.355H153.731V68.08H153.181C153.181 67.97 153.163 67.8783 153.126 67.805H153.786C153.786 67.6583 153.75 67.475 153.676 67.255H153.621C153.585 66.925 153.475 66.65 153.291 66.43C152.925 65.8433 152.356 65.55 151.586 65.55C150.853 65.55 150.303 65.8433 149.936 66.43H150.926C150.78 66.65 150.67 66.925 150.596 67.255H149.496C149.496 67.3283 149.478 67.42 149.441 67.53C149.441 67.6033 149.423 67.695 149.386 67.805H148.066C148.066 67.915 148.048 68.0067 148.011 68.08H149.386V68.355H148.066ZM203.124 85.955H204.884V86.78H203.509V87.055H203.894C203.857 87.2017 203.839 87.33 203.839 87.44C203.839 87.5867 203.821 87.7333 203.784 87.88H203.729V88.155H201.144C201.107 88.2283 201.089 88.32 201.089 88.43C201.089 88.54 201.071 88.6317 201.034 88.705H204.224C204.187 88.8883 204.151 89.0717 204.114 89.255C204.077 89.4383 204.041 89.6217 204.004 89.805H203.124C203.087 89.9517 203.051 90.08 203.014 90.19C202.977 90.3367 202.922 90.4833 202.849 90.63H201.034L200.814 91.18H201.749L201.529 91.73H201.639C201.566 91.9133 201.474 92.0967 201.364 92.28H201.419L200.924 93.105C200.887 93.1417 200.851 93.1783 200.814 93.215C200.814 93.2517 200.796 93.3067 200.759 93.38C200.686 93.5267 200.594 93.655 200.484 93.765C200.374 93.9117 200.264 94.0583 200.154 94.205H200.044L199.769 94.48H200.814L200.319 95.03H199.054C198.944 95.1033 198.834 95.195 198.724 95.305C198.614 95.415 198.522 95.5067 198.449 95.58H199.934C199.787 95.7267 199.604 95.855 199.384 95.965C199.201 96.1117 199.017 96.2583 198.834 96.405H200.814C200.594 96.5517 200.356 96.68 200.099 96.79C199.879 96.9367 199.641 97.0833 199.384 97.23H198.834C198.651 97.34 198.449 97.4317 198.229 97.505C198.009 97.615 197.807 97.7067 197.624 97.78H194.489C193.792 98.0367 193.077 98.2567 192.344 98.44C191.611 98.6233 190.859 98.77 190.089 98.88H193.334C192.784 98.9533 192.216 99.0083 191.629 99.045C191.042 99.0817 190.456 99.1 189.869 99.1C189.246 99.1 188.622 99.0817 187.999 99.045C187.412 99.0083 186.844 98.9533 186.294 98.88H183.049C181.399 98.66 179.877 98.2933 178.484 97.78H181.619C181.399 97.7067 181.179 97.615 180.959 97.505C180.739 97.4317 180.519 97.34 180.299 97.23H180.849C180.592 97.0833 180.336 96.9367 180.079 96.79C179.822 96.68 179.566 96.5517 179.309 96.405H177.384C177.164 96.2583 176.944 96.1117 176.724 95.965C176.541 95.855 176.357 95.7267 176.174 95.58H174.689C174.396 95.36 174.176 95.1767 174.029 95.03H175.294C175.184 94.9567 175.074 94.865 174.964 94.755C174.854 94.645 174.762 94.5533 174.689 94.48H173.644C173.607 94.4067 173.571 94.3517 173.534 94.315C173.497 94.2783 173.442 94.2417 173.369 94.205H173.534C173.387 94.0583 173.259 93.9117 173.149 93.765C173.039 93.655 172.929 93.5267 172.819 93.38H172.764C172.727 93.3067 172.654 93.215 172.544 93.105H172.599C172.489 92.9583 172.379 92.8117 172.269 92.665C172.159 92.555 172.067 92.4267 171.994 92.28L171.664 91.73H171.554C171.517 91.6567 171.481 91.565 171.444 91.455C171.407 91.345 171.352 91.2533 171.279 91.18H170.344L170.124 90.63H171.994C171.957 90.4833 171.902 90.3367 171.829 90.19C171.792 90.08 171.756 89.9517 171.719 89.805H171.389C171.389 89.695 171.371 89.585 171.334 89.475C171.334 89.4017 171.334 89.3283 171.334 89.255C171.334 88.9983 171.352 88.815 171.389 88.705H171.224C171.334 88.485 171.462 88.3017 171.609 88.155H171.279C171.499 88.0083 171.664 87.9167 171.774 87.88H172.489C172.709 87.8067 172.911 87.77 173.094 87.77H183.819C184.002 87.77 184.204 87.8067 184.424 87.88H183.654C183.837 87.9167 183.984 88.0083 184.094 88.155H184.424C184.571 88.3017 184.699 88.485 184.809 88.705H184.974L185.084 88.87C185.341 89.31 185.579 89.6217 185.799 89.805H186.074C186.477 90.0983 187.027 90.245 187.724 90.245C188.274 90.245 188.751 90.0983 189.154 89.805H190.034C190.364 89.5483 190.602 89.1817 190.749 88.705H187.559C187.632 88.485 187.669 88.3017 187.669 88.155H190.254C190.291 88.0817 190.309 87.99 190.309 87.88H190.364C190.401 87.7333 190.419 87.5867 190.419 87.44C190.419 87.33 190.419 87.2017 190.419 87.055H190.089V86.78H191.409V85.955H189.649V85.68H188.604V85.405H189.594V84.305H188.549V83.975L187.999 84.305H187.944C187.064 84.8183 186.111 85.185 185.084 85.405H185.304C185.011 85.4417 184.717 85.4967 184.424 85.57C184.131 85.6067 183.819 85.6433 183.489 85.68H182.114C181.894 85.7167 181.674 85.735 181.454 85.735C181.234 85.735 181.014 85.735 180.794 85.735C180.537 85.735 180.281 85.735 180.024 85.735C179.767 85.735 179.529 85.7167 179.309 85.68H180.629C180.299 85.6433 179.969 85.6067 179.639 85.57C179.309 85.4967 178.979 85.4417 178.649 85.405H178.484C177.934 85.295 177.402 85.1483 176.889 84.965C176.412 84.7817 175.936 84.5617 175.459 84.305H175.514C175.367 84.2317 175.221 84.1583 175.074 84.085C174.927 83.975 174.781 83.865 174.634 83.755H175.899C175.679 83.5717 175.459 83.3883 175.239 83.205C175.056 83.0217 174.872 82.8383 174.689 82.655H170.234L169.959 82.38H172.489C172.196 82.0133 171.939 81.6467 171.719 81.28H172.434C172.177 80.9133 171.976 80.5467 171.829 80.18H171.719C171.536 79.7767 171.389 79.41 171.279 79.08H167.264C167.264 79.0067 167.264 78.9517 167.264 78.915C167.227 78.8783 167.209 78.8417 167.209 78.805H170.949L170.784 78.255H171.059C171.022 78.0717 170.967 77.8883 170.894 77.705C170.857 77.5217 170.821 77.3383 170.784 77.155H171.444L171.279 76.055H170.564L170.509 75.505H169.189C169.152 75.3217 169.134 75.1383 169.134 74.955C169.134 74.7717 169.116 74.5883 169.079 74.405H168.584C168.584 74.2583 168.584 74.13 168.584 74.02C168.547 73.8733 168.529 73.7267 168.529 73.58H169.299V73.03H170.289C170.289 72.8833 170.271 72.755 170.234 72.645C170.234 72.4983 170.234 72.3517 170.234 72.205H170.729V71.38H169.849C169.849 71.2333 169.849 71.105 169.849 70.995C169.849 70.8483 169.867 70.7017 169.904 70.555H170.014V70.5C170.014 70.3533 170.014 70.225 170.014 70.115C170.051 70.005 170.069 69.8767 170.069 69.73H170.289C170.326 69.5833 170.344 69.455 170.344 69.345C170.344 69.1983 170.362 69.0517 170.399 68.905C170.436 68.8317 170.454 68.74 170.454 68.63C170.454 68.52 170.472 68.4283 170.509 68.355H170.234V68.08H170.564C170.601 67.8967 170.637 67.7133 170.674 67.53C170.711 67.31 170.747 67.1267 170.784 66.98H170.729C170.766 66.8333 170.802 66.705 170.839 66.595C170.876 66.4483 170.912 66.3017 170.949 66.155H171.389C171.462 65.9717 171.517 65.7883 171.554 65.605C171.627 65.385 171.701 65.2017 171.774 65.055H172.049L172.159 64.78H171.389C171.426 64.7067 171.462 64.615 171.499 64.505C171.536 64.395 171.572 64.3033 171.609 64.23L171.939 63.405C171.976 63.3317 171.994 63.2767 171.994 63.24C172.031 63.2033 172.067 63.1667 172.104 63.13L172.269 62.855C172.342 62.7817 172.397 62.69 172.434 62.58C172.507 62.47 172.581 62.3783 172.654 62.305C172.691 62.2317 172.727 62.1767 172.764 62.14C172.801 62.1033 172.837 62.0667 172.874 62.03H172.764L173.424 61.205C173.534 61.1317 173.626 61.04 173.699 60.93C173.809 60.82 173.901 60.7283 173.974 60.655H174.084C174.121 60.5817 174.157 60.5267 174.194 60.49C174.267 60.4533 174.322 60.4167 174.359 60.38H174.964C175.184 60.16 175.422 59.9767 175.679 59.83H174.304C174.451 59.72 174.597 59.6283 174.744 59.555C174.891 59.445 175.037 59.3533 175.184 59.28H175.569C176.082 58.9867 176.706 58.7117 177.439 58.455H179.254C180.574 58.0517 181.986 57.85 183.489 57.85C184.809 57.85 186.037 58.0517 187.174 58.455H185.359C185.946 58.6383 186.532 58.9133 187.119 59.28H186.789C186.936 59.3533 187.064 59.445 187.174 59.555C187.321 59.6283 187.467 59.72 187.614 59.83H188.934C189.081 59.9033 189.209 59.995 189.319 60.105C189.429 60.215 189.539 60.3067 189.649 60.38H189.044L189.319 60.655H189.264L189.759 61.205C189.832 61.2417 189.887 61.2967 189.924 61.37C189.997 61.4433 190.052 61.5167 190.089 61.59V61.205H190.309V60.655H191.244V60.38H191.849V59.83H189.154C189.154 59.61 189.209 59.4267 189.319 59.28H190.254C190.437 58.84 190.749 58.565 191.189 58.455H190.089C190.199 58.4183 190.346 58.4 190.529 58.4H200.154C200.337 58.4 200.466 58.4183 200.539 58.455H201.639C202.079 58.565 202.391 58.84 202.574 59.28H201.639C201.712 59.5 201.749 59.6833 201.749 59.83H204.444V60.38H203.839V60.655H202.904V61.205H202.684V62.03H202.739V62.855H202.684V64.23H202.739V64.78H203.509V65.055H203.179V66.155H202.684L202.739 66.98V68.355H202.574V68.905H202.409V69.73H202.739V70.555H203.399V71.38H202.244V72.205H202.629V73.03H202.739V73.58H200.924L200.979 74.405H201.199V75.505H202.409V76.055H203.399V77.155H202.684V78.255H202.464V78.805H198.669V79.08H202.684V80.18H202.794V81.28H202.024L202.079 82.38H199.549V82.655H204.004V83.755H202.024V84.305H203.069V85.405H202.079V85.68H203.124V85.955ZM184.589 75.505C184.846 75.7617 185.176 75.945 185.579 76.055H186.239C186.386 76.0917 186.532 76.1283 186.679 76.165C186.862 76.165 187.027 76.165 187.174 76.165C187.357 76.165 187.522 76.165 187.669 76.165C187.852 76.1283 188.017 76.0917 188.164 76.055H187.174C187.577 75.945 187.907 75.7617 188.164 75.505H186.954C187.247 75.2117 187.449 74.845 187.559 74.405H187.339L187.504 73.58H189.264C189.264 73.5067 189.282 73.4517 189.319 73.415V73.03H189.209V72.205H188.879V71.38H189.979V70.555H189.264V70.445C189.264 70.2983 189.246 70.17 189.209 70.06C189.209 69.95 189.191 69.84 189.154 69.73H188.879C188.842 69.4367 188.751 69.1617 188.604 68.905H188.714C188.604 68.685 188.476 68.5017 188.329 68.355H188.494C188.347 68.2083 188.237 68.1167 188.164 68.08C187.797 67.8233 187.266 67.695 186.569 67.695C185.872 67.695 185.341 67.8233 184.974 68.08H184.644C184.571 68.1167 184.461 68.2083 184.314 68.355H184.589C184.442 68.5017 184.314 68.685 184.204 68.905H184.149C184.112 69.015 184.076 69.1433 184.039 69.29C184.002 69.4 183.947 69.5467 183.874 69.73H183.654C183.617 69.8767 183.581 70.0233 183.544 70.17C183.544 70.28 183.544 70.4083 183.544 70.555H183.379V70.885C183.342 70.995 183.324 71.16 183.324 71.38H184.204V72.205H183.709C183.709 72.3517 183.709 72.4983 183.709 72.645C183.746 72.755 183.764 72.865 183.764 72.975V73.03H182.774L182.829 73.58H182.059L182.224 74.405H182.719C182.829 74.845 183.031 75.2117 183.324 75.505H184.589ZM190.034 83.755H190.529V83.37L190.034 83.755ZM207.415 53.78V52.68H207.36V51.855H207.855V51.58H208.185V50.48H207.91V49.655H207.965V48.555H208.185V47.73H208.075V47.235C208.075 46.9417 208.112 46.74 208.185 46.63H208.735L208.9 46.355H208.46C208.753 45.9517 209.157 45.75 209.67 45.75H218.965C219.478 45.75 219.882 45.9517 220.175 46.355H220.615L220.78 46.63H220.175C220.285 46.7767 220.34 46.9783 220.34 47.235V47.73H220.45V48.555H220.23V49.655H220.175V50.48H220.45V51.58H220.12V51.855H219.625V52.68H219.68V53.78H220.065V53.89C220.065 54.22 219.937 54.55 219.68 54.88H219.02C218.763 55.21 218.397 55.375 217.92 55.375H208.625C208.148 55.375 207.763 55.21 207.47 54.88H208.13C207.91 54.5867 207.8 54.2567 207.8 53.89V53.78H207.415ZM218.745 65.33H223.915V66.43H222.045V66.98H219.955V68.08H221.55V68.355H220.505V68.905H220.67V69.455H220.945V70.28H218.195V71.105H220.01V71.93H219.68V72.48H220.615V73.305H220.835V74.13H220.505V74.955H220.78V75.505H220.505V76.605H220.395V77.43H220.175V78.255H220.395V78.805H220.505V79.905H220.285V80.455H220.56V81.005H220.505V81.83H220.725V82.655H220.89V82.93H220.505V84.03H219.735V85.13H220.285V85.515C220.285 85.6983 220.267 85.845 220.23 85.955H219.845C219.735 86.3217 219.533 86.5967 219.24 86.78H220.34C220.157 86.9267 219.882 87 219.515 87H209.67C209.34 87 209.083 86.9267 208.9 86.78H207.8C207.47 86.5967 207.25 86.3217 207.14 85.955H207.525C207.488 85.845 207.47 85.6983 207.47 85.515V85.13H206.92V84.03H207.69V82.93H208.075V82.655H207.91V81.83H207.69V81.005H207.745V80.455H207.47V79.905H207.69V78.805H207.58V78.255H207.36V77.43H207.58V76.605H207.69V75.505H207.965V74.955H207.69V74.13H208.02V73.305H207.8V72.48H206.865V71.93H207.195V71.105H205.38V70.28H208.13V69.455H207.855V68.905H207.69V68.355H208.735V68.08H207.14V66.98H209.23V66.43H211.1V65.33H205.93V64.78H210.495V63.68H208.845V62.855H209.835V61.755H208.075V61.48H207.69V60.93H207.36V60.105H207.745V59.885C207.745 59.4817 207.837 59.1883 208.02 59.005H208.075C208.368 58.6017 208.772 58.4 209.285 58.4H219.13C219.643 58.4 220.047 58.6017 220.34 59.005H220.23C220.45 59.225 220.56 59.5183 220.56 59.885V60.105H220.175V60.93H220.505V61.48H220.89V61.755H222.65V62.855H221.66V63.68H223.31V64.78H218.745V65.33ZM258.758 82.105H256.503C256.283 82.4717 256.027 82.8383 255.733 83.205H256.723C256.687 83.2783 256.613 83.37 256.503 83.48H254.083C253.937 83.6267 253.79 83.7733 253.643 83.92C253.533 84.03 253.387 84.1583 253.203 84.305H253.148C252.965 84.4517 252.763 84.5983 252.543 84.745C252.36 84.855 252.158 84.9833 251.938 85.13H250.948C250.618 85.35 250.252 85.5517 249.848 85.735C249.445 85.8817 249.042 86.0467 248.638 86.23H248.418C248.308 86.2667 248.18 86.3033 248.033 86.34C247.923 86.3767 247.777 86.4317 247.593 86.505H253.863C253.717 86.5417 253.552 86.5783 253.368 86.615C253.222 86.6517 253.057 86.7067 252.873 86.78H250.123C249.647 86.89 249.152 86.9817 248.638 87.055C248.125 87.165 247.593 87.2567 247.043 87.33H245.393C244.807 87.4033 244.183 87.4583 243.523 87.495C242.863 87.5317 242.167 87.55 241.433 87.55C240.737 87.55 240.077 87.5317 239.453 87.495C238.867 87.4583 238.298 87.4033 237.748 87.33H239.343C238.83 87.2567 238.335 87.165 237.858 87.055C237.382 86.9817 236.923 86.89 236.483 86.78H239.233L238.298 86.505H232.028C231.918 86.4317 231.79 86.3767 231.643 86.34C231.533 86.3033 231.405 86.2667 231.258 86.23H231.423C231.02 86.0467 230.617 85.8633 230.213 85.68C229.847 85.4967 229.48 85.3133 229.113 85.13H230.103C229.883 84.9833 229.663 84.855 229.443 84.745C229.26 84.5983 229.077 84.4517 228.893 84.305H229.003C228.82 84.1583 228.655 84.03 228.508 83.92C228.362 83.7733 228.215 83.6267 228.068 83.48H230.433C230.397 83.4067 230.36 83.3517 230.323 83.315C230.287 83.2783 230.25 83.2417 230.213 83.205H229.168C229.022 83.0217 228.875 82.8383 228.728 82.655C228.582 82.4717 228.435 82.2883 228.288 82.105H230.598C230.452 81.9217 230.342 81.7383 230.268 81.555C230.195 81.335 230.122 81.1517 230.048 81.005H229.003C228.93 80.8583 228.893 80.7667 228.893 80.73H227.188L227.023 80.18H225.758C225.722 80.07 225.703 79.905 225.703 79.685C225.703 79.3917 225.722 79.19 225.758 79.08H226.143C226.327 78.64 226.62 78.365 227.023 78.255H226.913C226.987 78.2183 227.115 78.2 227.298 78.2H237.088C237.125 78.2 237.162 78.2183 237.198 78.255C237.272 78.255 237.327 78.255 237.363 78.255H237.473C237.767 78.3283 238.023 78.4383 238.243 78.585C238.5 78.7317 238.757 78.8967 239.013 79.08H238.683C238.977 79.2633 239.288 79.4467 239.618 79.63C239.948 79.7767 240.333 79.85 240.773 79.85C241.067 79.85 241.342 79.795 241.598 79.685C241.855 79.5383 242.002 79.3367 242.038 79.08H242.203V79.025C242.203 78.695 242.13 78.4383 241.983 78.255C241.837 78.035 241.598 77.8517 241.268 77.705H240.608C240.242 77.5217 239.747 77.3383 239.123 77.155C238.537 76.9717 237.712 76.7883 236.648 76.605H237.143L236.263 76.44C235.97 76.3667 235.677 76.3117 235.383 76.275C235.09 76.2017 234.797 76.1283 234.503 76.055H234.723L233.788 75.78H233.898C233.422 75.6333 232.963 75.4683 232.523 75.285C232.083 75.1017 231.662 74.9 231.258 74.68H231.478L230.158 73.855H230.048C229.792 73.6717 229.553 73.4883 229.333 73.305C229.15 73.1217 228.967 72.9383 228.783 72.755H227.628C227.592 72.6817 227.555 72.6267 227.518 72.59C227.482 72.5533 227.445 72.5167 227.408 72.48H227.903C227.793 72.37 227.72 72.2783 227.683 72.205H226.143L225.538 71.38H227.903L227.573 70.83H226.803C226.62 70.4267 226.473 70.06 226.363 69.73H226.693C226.693 69.6567 226.675 69.6017 226.638 69.565C226.638 69.5283 226.638 69.4917 226.638 69.455H229.223C229.223 69.3083 229.187 69.125 229.113 68.905H224.273C224.273 68.7583 224.273 68.63 224.273 68.52C224.237 68.3733 224.2 68.2267 224.163 68.08H224.218L224.163 67.53H227.848C227.812 67.4567 227.793 67.365 227.793 67.255C227.793 67.1083 227.793 66.98 227.793 66.87C227.83 66.7233 227.848 66.5767 227.848 66.43H225.263L225.318 65.88H227.793L227.958 65.33H226.858C226.895 65.2567 226.932 65.165 226.968 65.055C227.005 64.945 227.042 64.8533 227.078 64.78H226.638C226.712 64.6333 226.785 64.505 226.858 64.395C226.932 64.2483 226.987 64.1017 227.023 63.955H227.243L227.573 63.405H227.518C227.592 63.2583 227.683 63.13 227.793 63.02C227.903 62.8733 228.013 62.7267 228.123 62.58C228.233 62.4333 228.343 62.305 228.453 62.195C228.563 62.0483 228.692 61.9017 228.838 61.755H228.728L229.003 61.48H228.948C228.985 61.4067 229.022 61.3517 229.058 61.315C229.132 61.2783 229.187 61.2417 229.223 61.205H229.333L229.993 60.655C230.067 60.5817 230.122 60.5267 230.158 60.49C230.232 60.4533 230.305 60.4167 230.378 60.38H229.333C229.957 59.9767 230.635 59.61 231.368 59.28H233.073C233.183 59.2067 233.293 59.1517 233.403 59.115C233.513 59.0783 233.642 59.0417 233.788 59.005H230.048C230.195 58.9317 230.323 58.8767 230.433 58.84C230.58 58.8033 230.727 58.7667 230.873 58.73H233.238C234.155 58.4367 235.127 58.2167 236.153 58.07C237.217 57.9233 238.335 57.85 239.508 57.85C240.718 57.85 241.855 57.9233 242.918 58.07C243.982 58.2167 244.972 58.4367 245.888 58.73H243.523C243.67 58.7667 243.798 58.8033 243.908 58.84C244.055 58.8767 244.202 58.9317 244.348 59.005H248.033L248.803 59.28H247.098C247.502 59.4267 247.887 59.61 248.253 59.83C248.62 60.0133 248.968 60.1967 249.298 60.38H250.343L250.783 60.655H250.838C250.985 60.7283 251.113 60.82 251.223 60.93C251.37 61.04 251.498 61.1317 251.608 61.205H251.553L251.883 61.48H251.938L252.268 61.755H252.378C252.708 62.0117 252.983 62.2867 253.203 62.58C253.497 62.8367 253.717 63.1117 253.863 63.405H253.918L254.248 63.955H253.973C254.047 64.1017 254.12 64.2483 254.193 64.395C254.267 64.505 254.322 64.6333 254.358 64.78H254.743L254.908 65.33H255.953L256.008 65.715V65.88H256.943C256.943 66.0267 256.907 66.21 256.833 66.43C256.577 66.9433 256.21 67.2 255.733 67.2H246.493C246.127 67.2 245.778 67.1267 245.448 66.98C245.155 66.7967 244.862 66.6133 244.568 66.43C244.312 66.2467 244.018 66.0633 243.688 65.88H242.753C242.387 65.66 241.983 65.55 241.543 65.55C241.177 65.55 240.883 65.66 240.663 65.88H238.243C238.06 66.0633 237.968 66.2467 237.968 66.43H240.553C240.553 66.6133 240.59 66.7967 240.663 66.98C240.737 67.1633 240.902 67.3467 241.158 67.53H237.528C237.712 67.6033 237.913 67.695 238.133 67.805C238.353 67.915 238.628 68.0067 238.958 68.08H238.903C239.343 68.2267 239.893 68.355 240.553 68.465C241.25 68.575 242.057 68.7033 242.973 68.85C243.047 68.85 243.102 68.8683 243.138 68.905C243.212 68.905 243.267 68.905 243.303 68.905H248.143C248.583 68.9783 249.005 69.07 249.408 69.18C249.848 69.2533 250.252 69.345 250.618 69.455H248.033C248.18 69.4917 248.308 69.5283 248.418 69.565C248.565 69.6017 248.712 69.6567 248.858 69.73H248.528C249.005 69.8767 249.427 70.0417 249.793 70.225C250.197 70.4083 250.582 70.61 250.948 70.83H251.773L252.653 71.38H250.288C250.472 71.5267 250.655 71.6733 250.838 71.82C251.022 71.93 251.187 72.0583 251.333 72.205H252.873L253.148 72.48H252.653L252.928 72.755H254.028C254.432 73.1583 254.725 73.525 254.908 73.855H255.018C255.128 74.0017 255.22 74.1483 255.293 74.295C255.367 74.405 255.44 74.5333 255.513 74.68H255.293C255.367 74.8633 255.44 75.0467 255.513 75.23C255.623 75.4133 255.697 75.5967 255.733 75.78H255.568L255.678 76.055H255.458C255.495 76.1283 255.513 76.22 255.513 76.33C255.513 76.44 255.532 76.5317 255.568 76.605H255.073C255.183 76.9717 255.238 77.3383 255.238 77.705H255.953V78.09C255.953 78.2367 255.935 78.4017 255.898 78.585C255.898 78.7317 255.898 78.8967 255.898 79.08H255.733C255.697 79.2633 255.66 79.4467 255.623 79.63C255.623 79.8133 255.587 79.9967 255.513 80.18H256.778C256.778 80.3633 256.723 80.5467 256.613 80.73H258.373C258.3 80.8767 258.263 80.9683 258.263 81.005H259.308C259.235 81.1883 259.143 81.3717 259.033 81.555C258.96 81.7383 258.868 81.9217 258.758 82.105ZM285.485 80.73H284.165V81.28H286.145V81.83H287.96V82.655H286.695V83.48H290.38V84.305H284.385V85.405H284.825V85.515C284.825 85.5883 284.806 85.6433 284.77 85.68C284.696 86.0467 284.568 86.3217 284.385 86.505H283.945C283.798 86.6517 283.688 86.7433 283.615 86.78H285.485C285.301 86.9267 285.045 87 284.715 87H278.5C277.876 87 277.253 86.9817 276.63 86.945C276.043 86.9083 275.475 86.8533 274.925 86.78H273.055C272.798 86.7433 272.541 86.7067 272.285 86.67C272.028 86.5967 271.753 86.5417 271.46 86.505H271.9C271.423 86.395 270.965 86.2667 270.525 86.12C270.121 85.9733 269.718 85.8267 269.315 85.68H269.37C269.26 85.6067 269.15 85.5517 269.04 85.515C268.93 85.4783 268.838 85.4417 268.765 85.405H268.325C268.031 85.2217 267.738 85.0567 267.445 84.91C267.151 84.7267 266.858 84.525 266.565 84.305H272.615C272.468 84.1583 272.303 84.03 272.12 83.92C271.973 83.7733 271.826 83.6267 271.68 83.48H267.995L267.28 82.655H268.6C268.49 82.5083 268.38 82.38 268.27 82.27C268.196 82.1233 268.123 81.9767 268.05 81.83H266.235L265.905 81.28H263.925C263.888 81.2067 263.851 81.115 263.815 81.005C263.778 80.895 263.723 80.8033 263.65 80.73H265.025L264.695 79.905H265.795L265.63 79.355C265.556 79.135 265.52 78.9517 265.52 78.805H269.865C269.828 78.6583 269.791 78.53 269.755 78.42C269.755 78.2733 269.755 78.1267 269.755 77.98H263.485C263.485 77.9067 263.466 77.8517 263.43 77.815C263.43 77.7783 263.43 77.7417 263.43 77.705H263.265C263.265 77.5583 263.246 77.43 263.21 77.32C263.21 77.1733 263.21 77.0267 263.21 76.88H263.045C263.045 76.7333 263.026 76.605 262.99 76.495C262.99 76.3483 262.99 76.2017 262.99 76.055H263.76V75.78H263.265V75.23H262.825V74.13H263.485V73.03H262.825V72.205H263.32V71.655H263.375V70.83H263.65V68.905H263.76V68.08H264.035V68.025H259.69C259.14 68.025 258.7 67.7683 258.37 67.255H259.195C259.085 67.035 259.03 66.7967 259.03 66.54V66.155H257.27V65.33H257.655V64.23H257.38V63.68H257.49V63.13H258.315V62.855H256.94V62.03H258.59V61.205H258.26V60.655H257.875V59.83H257.545V59.555H257.38C257.49 59.005 257.838 58.6383 258.425 58.455H258.755C258.865 58.4183 259.011 58.4 259.195 58.4H263.54V58.18H263.76V57.355H263.32V56.805H263.265V55.98H263.045V55.705H261.725V55.155H260.46V54.88H260.9V54.605H262.165V53.505H262.66V52.955H260.9V52.405H263.595V51.58H263.32V51.305H262.715V50.755H263.265V50.48H262.715V49.655H263.21V49.435C263.21 49.2517 263.246 49.05 263.32 48.83H264.035C264.291 48.2433 264.75 47.95 265.41 47.95H275.035C275.621 47.95 276.08 48.2433 276.41 48.83H275.695C275.768 49.05 275.805 49.2517 275.805 49.435V49.655H275.31V50.48H275.86V50.755H275.31V51.305H275.915V51.58H276.19V52.405H273.495V52.955H275.255V53.505H274.76V54.605H273.495V54.88H273.055V55.155H274.32V55.705H275.64V55.98H275.86V56.805H275.915V57.355H276.355V58.18H276.135V58.4H283.065C283.248 58.4 283.376 58.4183 283.45 58.455H283.12C283.633 58.6383 283.981 59.005 284.165 59.555H284.33C284.33 59.5917 284.33 59.6283 284.33 59.665C284.366 59.7017 284.385 59.7567 284.385 59.83H284.715V60.655H285.1V61.205H285.43V62.03H283.78V62.855H285.155V63.13H284.33V63.68H284.22V64.23H284.495V65.33H284.11V66.155H285.87V66.54C285.87 66.6867 285.851 66.815 285.815 66.925C285.778 67.035 285.723 67.145 285.65 67.255H284.88C284.55 67.7683 284.11 68.025 283.56 68.025H276.63V68.08H276.355V68.905H276.245V70.83H275.97V71.655H275.915V72.205H275.42V73.03H276.08V74.13H275.42C275.42 74.3133 275.42 74.4967 275.42 74.68C275.456 74.8633 275.493 75.0467 275.53 75.23H276.025C276.098 75.45 276.171 75.6333 276.245 75.78H276.685L276.85 76.055H276.08C276.483 76.5683 277.106 76.825 277.95 76.825H282.955C283.138 76.825 283.266 76.8433 283.34 76.88H283.505C283.945 76.99 284.256 77.265 284.44 77.705H284.605C284.605 77.7417 284.605 77.7783 284.605 77.815C284.641 77.8517 284.66 77.9067 284.66 77.98H290.93C290.93 78.0167 290.93 78.0717 290.93 78.145C290.966 78.1817 290.985 78.2367 290.985 78.31V78.805H286.585V79.905H285.485V80.73ZM316.627 71.93V72.48H323.612V73.03H319.377V73.58H317.397V74.13H319.102V74.46C319.102 74.68 319.084 74.845 319.047 74.955H319.817C319.561 75.615 319.084 75.945 318.387 75.945H301.997V76.055H304.197V76.22C304.197 76.3667 304.197 76.5317 304.197 76.715C304.197 76.8617 304.216 77.0083 304.252 77.155H301.282C301.282 77.265 301.282 77.375 301.282 77.485C301.319 77.5583 301.337 77.6317 301.337 77.705H301.007C301.007 77.8517 301.044 78.035 301.117 78.255H301.337C301.521 78.7683 301.814 79.135 302.217 79.355H300.732C300.989 79.5017 301.337 79.575 301.777 79.575C302.071 79.575 302.309 79.5017 302.492 79.355H305.077C305.224 79.2817 305.352 79.1717 305.462 79.025C305.609 78.8783 305.774 78.7317 305.957 78.585L306.287 78.255H305.242C305.572 77.9617 306.067 77.815 306.727 77.815H317.122C317.562 77.815 317.892 77.9617 318.112 78.255H319.102C319.286 78.5117 319.377 78.7683 319.377 79.025C319.341 79.0983 319.322 79.2083 319.322 79.355H316.737C316.664 79.7217 316.554 80.0883 316.407 80.455H313.712C313.602 80.6383 313.511 80.8217 313.437 81.005H320.257C320.184 81.1883 320.074 81.3717 319.927 81.555C319.817 81.7383 319.689 81.9217 319.542 82.105H317.892C317.746 82.325 317.599 82.5083 317.452 82.655H317.837C317.801 82.6917 317.764 82.7283 317.727 82.765C317.691 82.8017 317.654 82.8567 317.617 82.93H314.537L314.262 83.205H315.197C315.161 83.2417 315.106 83.2783 315.032 83.315C314.996 83.3517 314.959 83.4067 314.922 83.48H316.627C316.371 83.7367 316.041 84.0117 315.637 84.305H314.812C314.776 84.3417 314.721 84.3783 314.647 84.415C314.574 84.4517 314.501 84.5067 314.427 84.58H313.822C313.236 84.9833 312.594 85.35 311.897 85.68H311.182C310.742 85.9 310.266 86.1017 309.752 86.285C309.276 86.4683 308.762 86.6333 308.212 86.78H307.332C306.929 86.89 306.507 86.9817 306.067 87.055C305.627 87.165 305.151 87.2567 304.637 87.33H306.947C306.434 87.4033 305.902 87.4583 305.352 87.495C304.802 87.5317 304.216 87.55 303.592 87.55C303.006 87.55 302.419 87.5317 301.832 87.495C301.246 87.4583 300.677 87.4033 300.127 87.33H297.817C297.341 87.2567 296.882 87.165 296.442 87.055C296.002 86.9817 295.562 86.89 295.122 86.78H296.002C295.012 86.5233 294.077 86.1567 293.197 85.68H293.912C293.252 85.3133 292.684 84.9467 292.207 84.58H292.812C292.739 84.5067 292.666 84.4517 292.592 84.415C292.556 84.3783 292.501 84.3417 292.427 84.305H293.252C293.106 84.1583 292.959 84.03 292.812 83.92C292.666 83.7733 292.519 83.6267 292.372 83.48H290.612L290.337 83.205H289.402C289.366 83.1317 289.329 83.0767 289.292 83.04C289.256 83.0033 289.219 82.9667 289.182 82.93H292.207C292.171 82.8567 292.097 82.765 291.987 82.655H291.602C291.529 82.5817 291.456 82.49 291.382 82.38C291.309 82.27 291.236 82.1783 291.162 82.105H292.812C292.702 81.9217 292.592 81.7383 292.482 81.555C292.372 81.3717 292.262 81.1883 292.152 81.005H285.277C285.167 80.8217 285.076 80.6383 285.002 80.455H287.697L287.202 79.355H288.687C288.614 79.1717 288.541 78.9883 288.467 78.805C288.431 78.6217 288.376 78.4383 288.302 78.255H288.137L287.972 77.705H288.357L288.192 77.155H291.162C291.126 76.9717 291.089 76.7883 291.052 76.605C291.016 76.4217 290.979 76.2383 290.942 76.055H288.742L288.632 74.955H287.862C287.862 74.8083 287.844 74.68 287.807 74.57C287.807 74.4233 287.807 74.2767 287.807 74.13H286.102V73.58H288.027V73.03H292.262V72.48H285.277V72.37C285.277 72.1867 285.296 72.04 285.332 71.93H294.847C294.847 71.7833 294.847 71.655 294.847 71.545C294.884 71.3983 294.902 71.2517 294.902 71.105H286.157C286.157 71.0317 286.157 70.9767 286.157 70.94C286.194 70.9033 286.212 70.8667 286.212 70.83H289.842C289.842 70.72 289.861 70.6283 289.897 70.555H293.967V70.28H286.212C286.249 70.0967 286.286 69.9133 286.322 69.73C286.359 69.5467 286.396 69.3633 286.432 69.18H288.522C288.522 69.0333 288.559 68.85 288.632 68.63H286.817C286.817 68.5567 286.817 68.5017 286.817 68.465C286.854 68.4283 286.872 68.3917 286.872 68.355H288.192C288.192 68.2817 288.192 68.2267 288.192 68.19C288.229 68.1533 288.247 68.1167 288.247 68.08H286.872L286.982 67.805H288.302L288.467 67.255H289.512L289.842 66.43H288.852C288.926 66.2467 288.999 66.0633 289.072 65.88C289.146 65.66 289.237 65.4767 289.347 65.33H289.182L289.292 65.055H287.917C287.991 64.9083 288.027 64.8167 288.027 64.78H286.762L287.092 64.23H289.787C289.824 64.1567 289.897 64.065 290.007 63.955H290.997C291.144 63.7717 291.272 63.5883 291.382 63.405C291.529 63.185 291.676 63.0017 291.822 62.855H290.832C290.942 62.7083 291.052 62.58 291.162 62.47C291.309 62.3233 291.456 62.1767 291.602 62.03H293.747L294.297 61.48H291.052C291.529 61.0767 292.006 60.71 292.482 60.38H295.507L295.947 60.105H294.957C295.251 59.9217 295.599 59.7383 296.002 59.555H298.147C299.137 59.0783 300.164 58.7117 301.227 58.455H298.147C298.954 58.2717 299.797 58.125 300.677 58.015C301.557 57.905 302.474 57.85 303.427 57.85C304.381 57.85 305.279 57.905 306.122 58.015C306.966 58.125 307.772 58.2717 308.542 58.455H311.567C312.117 58.6017 312.631 58.7667 313.107 58.95C313.621 59.1333 314.116 59.335 314.592 59.555H312.447C312.631 59.6283 312.796 59.72 312.942 59.83C313.126 59.9033 313.291 59.995 313.437 60.105H314.427C314.501 60.1417 314.574 60.1783 314.647 60.215C314.721 60.2517 314.794 60.3067 314.867 60.38H311.842C312.319 60.71 312.796 61.0767 313.272 61.48H316.572L317.122 62.03H314.977C315.124 62.1767 315.252 62.3233 315.362 62.47C315.509 62.58 315.637 62.7083 315.747 62.855H316.737C316.884 63.0017 317.012 63.185 317.122 63.405C317.269 63.5883 317.416 63.7717 317.562 63.955H316.517C316.554 64.0283 316.627 64.12 316.737 64.23H313.987L314.317 64.78H315.582L315.747 65.055H317.177C317.177 65.0917 317.214 65.1833 317.287 65.33H317.452L317.947 66.43L318.277 67.255H318.332L318.497 67.805H317.837L317.947 68.08H318.442L318.552 68.355H319.432C319.432 68.3917 319.432 68.4283 319.432 68.465C319.469 68.5017 319.487 68.5567 319.487 68.63H319.047L319.212 69.18H317.122L317.287 70.28H325.042V70.555H320.972C320.972 70.5917 320.972 70.6283 320.972 70.665C321.009 70.7017 321.027 70.7567 321.027 70.83H317.342C317.379 70.9033 317.397 70.995 317.397 71.105H326.142C326.142 71.2517 326.142 71.3983 326.142 71.545C326.142 71.655 326.161 71.7833 326.197 71.93H316.627ZM299.907 68.355V68.63H301.667V69.07H306.067V68.63H306.452V68.355H305.572V68.08H305.022C305.022 67.97 305.004 67.8783 304.967 67.805H305.627C305.627 67.6583 305.591 67.475 305.517 67.255H305.462C305.426 66.925 305.316 66.65 305.132 66.43C304.766 65.8433 304.197 65.55 303.427 65.55C302.694 65.55 302.144 65.8433 301.777 66.43H302.767C302.621 66.65 302.511 66.925 302.437 67.255H301.337C301.337 67.3283 301.319 67.42 301.282 67.53C301.282 67.6033 301.264 67.695 301.227 67.805H299.907C299.907 67.915 299.889 68.0067 299.852 68.08H301.227V68.355H299.907ZM347.595 62.58H349.685V63.68H349.575V64.78H347.65V65.605H348.145V66.705H347.705V67.805H346.715V68.08H343.25V68.465C343.25 68.5383 343.231 68.6117 343.195 68.685C343.195 68.7583 343.176 68.8317 343.14 68.905H344.405C344.221 69.6017 343.745 69.95 342.975 69.95H335.88C335.733 69.95 335.586 69.95 335.44 69.95C335.33 69.95 335.22 69.9683 335.11 70.005H337.31C337.126 70.0417 336.961 70.0783 336.815 70.115C336.668 70.1517 336.503 70.2067 336.32 70.28H338.135C338.025 70.3167 337.86 70.4083 337.64 70.555H338.685L338.355 70.83H338.63C338.41 71.05 338.245 71.325 338.135 71.655H336.485C336.411 71.8017 336.375 71.8933 336.375 71.93H335.825C335.825 71.9667 335.806 72.0033 335.77 72.04C335.77 72.0767 335.77 72.1317 335.77 72.205H336.43C336.393 72.2783 336.375 72.37 336.375 72.48C336.375 72.5533 336.356 72.645 336.32 72.755H336.65V73.58H335.88V74.13H336.65V74.955H337.475V76.055H336.265V76.33H335.385V76.605H338.685V77.43H337.035V77.98H337.585V78.53H336.32V79.63H335.605V79.905H334.89V80.73H336.76V81.555H335.77V82.38H336.76V82.655H336.65V83.205H335.44V83.755H336.32V84.855H336.54V85.68H336.32C336.246 86.1933 336.008 86.56 335.605 86.78H335.11C334.926 86.9267 334.67 87 334.34 87H323.89C323.56 87 323.303 86.9267 323.12 86.78H323.615C323.211 86.56 322.973 86.1933 322.9 85.68H323.12V84.855H322.9V83.755H322.02V83.205H323.23V82.655H323.34V82.38H322.35V81.555H323.34V80.73H321.47V79.905H322.185V79.63H322.9V78.53H324.165V77.98H323.615V77.43H325.265V76.605H321.965V76.33H322.845V76.055H324.055V74.955H323.23V74.13H322.46V73.58H323.23V72.755H322.9V72.205H322.24V71.93H322.79V71.655H324.44V70.83H324.165V70.555H323.175V70.28H321.36V70.005H319.16V68.905H317.95V68.08H321.415V67.805H322.405V66.705H322.845V65.605H322.35V64.78H324.275V63.68H324.385V62.58H322.295V61.755H324.055V60.655H322.35V60.38H322.9V59.885C322.9 59.7017 322.936 59.5 323.01 59.28H322.955C323.211 58.6933 323.67 58.4 324.33 58.4H333.955C334.578 58.4 335.018 58.6933 335.275 59.28H335.385C335.458 59.5 335.495 59.7017 335.495 59.885V60.38H334.945V60.655H336.65V60.82L336.87 60.655H336.98C337.053 60.5817 337.126 60.5267 337.2 60.49C337.273 60.4533 337.328 60.4167 337.365 60.38H337.475C338.208 59.9033 338.923 59.5367 339.62 59.28H339.73C340.463 58.9867 341.196 58.7667 341.93 58.62C342.663 58.4733 343.433 58.4 344.24 58.4H346.88C347.54 58.4 347.998 58.6933 348.255 59.28H348.145C348.218 59.5 348.255 59.7017 348.255 59.885V60.38H348.2V60.655H348.09V61.755H347.595V62.58ZM388.107 86.505H386.292V87.605H386.787V88.155H386.897V89.255H387.282V89.53H387.612V90.08H388.437V90.905C388.437 91.015 388.418 91.1067 388.382 91.18C388.308 91.73 388.015 92.0967 387.502 92.28H387.007C386.787 92.3533 386.603 92.39 386.457 92.39H353.182C353.035 92.39 352.852 92.3533 352.632 92.28H353.127C352.613 92.0967 352.302 91.73 352.192 91.18V90.08H351.367V89.53H351.037V89.255H350.652V88.155H350.542V87.605H350.047V86.505H351.862V86.23H352.302V85.68H349.992V85.405H350.927V84.58H350.707V83.48H350.762V83.095C350.762 82.9117 350.78 82.765 350.817 82.655H350.487C350.743 81.9583 351.22 81.61 351.917 81.61H385.192C385.962 81.61 386.438 81.9583 386.622 82.655H386.897C386.933 82.7283 386.952 82.8017 386.952 82.875C386.988 82.9483 387.007 83.0217 387.007 83.095V83.48H386.952V84.58H387.172V85.405H386.237V85.68H388.547V86.23H388.107V86.505Z" fill="#75E7F0"/>
<defs>
<filter id="filter0_g_357_2" x="79.095" y="38.55" width="305.652" height="63.7501" filterUnits="userSpaceOnUse" color-interpolation-filters="sRGB">
<feFlood flood-opacity="0" result="BackgroundImageFix"/>
<feBlend mode="normal" in="SourceGraphic" in2="BackgroundImageFix" result="shape"/>
<feTurbulence type="fractalNoise" baseFrequency="5 5" numOctaves="3" seed="901" />
<feDisplacementMap in="shape" scale="10.399999618530273" xChannelSelector="R" yChannelSelector="G" result="displacedImage" width="100%" height="100%" />
<feMerge result="effect1_texture_357_2">
<feMergeNode in="displacedImage"/>
</feMerge>
</filter>
</defs>
</svg>
