<svg width="345" height="507" viewBox="0 0 345 507" fill="none" xmlns="http://www.w3.org/2000/svg">
<path d="M177.799 482.598L222.266 482.598L232.271 494.519H301.042L325.03 459.086V370.404L345 326.947V182.786L325.03 139.329V48.4463L292.795 -0.000488281L182.59 -0.000488281L170.127 19.5278L143.714 19.5278L132.95 9.76364L107.515 9.76364L97.2059 -0.000488281L22.1831 0.603478L0.0588989 48.7482L-0.000579834 169.283V470.691L16.6719 496.676H166.665L177.799 482.598Z" fill="url(#paint0_linear_179_904)"/>
<path d="M174.113 461.329H215.394L224.679 472.157H288.52L310.797 439.946V359.316L329.339 319.814V188.739L310.797 149.222V66.5938L280.868 22.5474L178.553 22.5474L166.989 40.3069H142.466L132.468 31.4343L108.857 31.4343L99.2882 22.5474L29.6378 23.1082L9.09958 66.867L9.03348 176.458L9.03348 450.501L24.5165 474.127H163.771L174.113 461.329Z" fill="url(#paint1_linear_179_904)"/>
<path d="M222.266 492.921L232.271 504.843L166.665 507L177.8 492.921H222.266Z" fill="url(#paint2_linear_179_904)"/>
<path d="M19.5137 99.3518L29.9348 76.6743L29.9348 99.3518L19.3088 122.475L19.5137 99.3518Z" fill="url(#paint3_linear_179_904)"/>
<path d="M19.5137 133.246L29.9348 110.554L29.9348 133.246L19.3088 156.369L19.5137 133.246Z" fill="url(#paint4_linear_179_904)"/>
<path d="M19.5137 166.019L29.9348 143.327L29.9348 166.019L19.3088 189.142L19.5137 166.019Z" fill="url(#paint5_linear_179_904)"/>
<path d="M19.5137 199.898L29.9348 177.22L29.9348 199.898L19.3088 223.021L19.5137 199.898Z" fill="url(#paint6_linear_179_904)"/>
<path d="M19.5137 232.972L29.9348 210.28L29.9348 232.972L19.3088 256.095L19.5137 232.972Z" fill="url(#paint7_linear_179_904)"/>
<path d="M19.5137 266.852L29.9348 244.16L29.9348 266.852L19.3088 289.975L19.5137 266.852Z" fill="url(#paint8_linear_179_904)"/>
<path d="M19.5137 299.624L29.9348 276.933L29.9348 299.624L19.3088 322.748L19.5137 299.624Z" fill="url(#paint9_linear_179_904)"/>
<path d="M19.5137 333.518L29.9348 310.826L29.9348 333.518L19.3088 356.641L19.5137 333.518Z" fill="url(#paint10_linear_179_904)"/>
<path d="M69.1868 456.08H33.0532L17.5768 432.453L17.5768 374.041L11.6295 364.593L11.6295 445.395L27.1059 469.022H77.3281L69.1868 456.08Z" fill="url(#paint11_linear_179_904)"/>
<defs>
<linearGradient id="paint0_linear_179_904" x1="-0.000579834" y1="248.345" x2="345" y2="248.345" gradientUnits="userSpaceOnUse">
<stop stop-color="#98E8F0"/>
<stop offset="1" stop-color="#FCF5C5"/>
</linearGradient>
<linearGradient id="paint1_linear_179_904" x1="9.03348" y1="248.344" x2="329.339" y2="248.344" gradientUnits="userSpaceOnUse">
<stop stop-color="#272930"/>
<stop offset="0.64" stop-color="#502E5E"/>
<stop offset="1" stop-color="#5D190F"/>
</linearGradient>
<linearGradient id="paint2_linear_179_904" x1="166.665" y1="499.953" x2="232.271" y2="499.953" gradientUnits="userSpaceOnUse">
<stop stop-color="#98E8F0"/>
<stop offset="1" stop-color="#FCF5C5"/>
</linearGradient>
<linearGradient id="paint3_linear_179_904" x1="19.3088" y1="99.5819" x2="29.9348" y2="99.5819" gradientUnits="userSpaceOnUse">
<stop stop-color="#98E8F0"/>
<stop offset="1" stop-color="#FCF5C5"/>
</linearGradient>
<linearGradient id="paint4_linear_179_904" x1="19.3088" y1="133.461" x2="29.9348" y2="133.461" gradientUnits="userSpaceOnUse">
<stop stop-color="#98E8F0"/>
<stop offset="1" stop-color="#FCF5C5"/>
</linearGradient>
<linearGradient id="paint5_linear_179_904" x1="19.3088" y1="166.234" x2="29.9348" y2="166.234" gradientUnits="userSpaceOnUse">
<stop stop-color="#98E8F0"/>
<stop offset="1" stop-color="#FCF5C5"/>
</linearGradient>
<linearGradient id="paint6_linear_179_904" x1="19.3088" y1="200.128" x2="29.9348" y2="200.128" gradientUnits="userSpaceOnUse">
<stop stop-color="#98E8F0"/>
<stop offset="1" stop-color="#FCF5C5"/>
</linearGradient>
<linearGradient id="paint7_linear_179_904" x1="19.3088" y1="233.188" x2="29.9348" y2="233.188" gradientUnits="userSpaceOnUse">
<stop stop-color="#98E8F0"/>
<stop offset="1" stop-color="#FCF5C5"/>
</linearGradient>
<linearGradient id="paint8_linear_179_904" x1="19.3088" y1="267.068" x2="29.9348" y2="267.068" gradientUnits="userSpaceOnUse">
<stop stop-color="#98E8F0"/>
<stop offset="1" stop-color="#FCF5C5"/>
</linearGradient>
<linearGradient id="paint9_linear_179_904" x1="19.3088" y1="299.84" x2="29.9348" y2="299.84" gradientUnits="userSpaceOnUse">
<stop stop-color="#98E8F0"/>
<stop offset="1" stop-color="#FCF5C5"/>
</linearGradient>
<linearGradient id="paint10_linear_179_904" x1="19.3088" y1="333.734" x2="29.9348" y2="333.734" gradientUnits="userSpaceOnUse">
<stop stop-color="#98E8F0"/>
<stop offset="1" stop-color="#FCF5C5"/>
</linearGradient>
<linearGradient id="paint11_linear_179_904" x1="11.6295" y1="416.808" x2="77.3281" y2="416.808" gradientUnits="userSpaceOnUse">
<stop stop-color="#98E8F0"/>
<stop offset="1" stop-color="#FCF5C5"/>
</linearGradient>
</defs>
</svg>
