<svg width="202" height="65" viewBox="0 0 202 65" fill="none" xmlns="http://www.w3.org/2000/svg">
<g clip-path="url(#clip0_139_4627)">
<path d="M201.664 9.99823H181.688L201.664 19.3252V9.99823Z" fill="#661109"/>
<path d="M154.033 64.1548L201.664 46.1741V24.5201L170.567 9.99833H51.8351L4.20473 27.979V64.1548H154.033Z" fill="#661109"/>
<path d="M197.252 5.32061H177.277L197.252 14.6509V5.32061Z" fill="#FCF551"/>
<path d="M149.626 59.4766L197.252 41.4992V19.8419L166.156 5.3201H47.4239L-0.206436 23.3007V59.4766H149.626Z" fill="#FCF551"/>
<path d="M166.535 2.91895H70.1518V0.668062H166.535" fill="#FCF551"/>
<path d="M197.522 2.91895H177.547V0.668062H197.522" fill="#FCF551"/>
<path d="M2.40771 59.9336V23.8601V22.8502L-0.00010705 23.7578V23.8601V59.9336H2.40771Z" fill="#75E8F0"/>
</g>
<defs>
<clipPath id="clip0_139_4627">
<rect width="201.664" height="63.4867" fill="white" transform="matrix(-1 0 0 -1 201.664 64.1548)"/>
</clipPath>
</defs>
</svg>
